<?xml version="1.0" standalone="no"?>
<!DOCTYPE svg PUBLIC "-//W3C//DTD SVG 1.1//EN" "http://www.w3.org/Graphics/SVG/1.1/DTD/svg11.dtd" >
<svg xmlns="http://www.w3.org/2000/svg" xmlns:xlink="http://www.w3.org/1999/xlink" version="1.1">
<metadata>
Created by FontForge 20170731 at Sat Dec 18 19:04:58 2021
 By Aleksey,,,
Copyright (c) 2021 by ATK Studio. All rights reserved.
</metadata>
<defs>
<font id="ProtoMonoMedium" horiz-adv-x="640" >
  <font-face 
    font-family="Proto Mono Medium"
    font-weight="500"
    font-stretch="normal"
    units-per-em="1000"
    panose-1="0 0 0 0 0 0 0 0 0 0"
    ascent="800"
    descent="-200"
    x-height="700"
    cap-height="700"
    bbox="27 -260 613 991"
    underline-thickness="50"
    underline-position="-175"
    unicode-range="U+000D-25C4"
  />
<missing-glyph horiz-adv-x="500" 
 />
    <glyph glyph-name=".notdef" horiz-adv-x="500" 
 />
    <glyph glyph-name=".null" horiz-adv-x="0" 
 />
    <glyph glyph-name="uni000D" unicode="&#xd;" horiz-adv-x="250" 
 />
    <glyph glyph-name="uni2400" horiz-adv-x="0" 
 />
    <glyph glyph-name="uni2400" horiz-adv-x="0" 
 />
    <glyph glyph-name="space" unicode=" " 
 />
    <glyph glyph-name="exclam" unicode="!" 
d="M301 0q-21 0 -35.5 14.5t-14.5 34.5v40q0 20 14.5 34.5t35.5 14.5h39q21 0 35 -14.5t14 -34.5v-40q0 -20 -14 -34.5t-35 -14.5h-39zM371 247q0 -21 -15 -35.5t-36 -14.5q-20 0 -34.5 14.5t-14.5 35.5v404q0 20 14.5 34.5t34.5 14.5q21 0 36 -14.5t15 -34.5v-404z" />
    <glyph glyph-name="quotedbl" unicode="&#x22;" 
d="M281 514q0 -21 -15 -35.5t-35 -14.5q-21 0 -35.5 14.5t-14.5 35.5v137q0 20 14.5 34.5t35.5 14.5q20 0 35 -14.5t15 -34.5v-137zM460 514q0 -21 -14.5 -35.5t-35.5 -14.5q-20 0 -34.5 14.5t-14.5 35.5v137q0 20 14.5 34.5t34.5 14.5q21 0 35.5 -14.5t14.5 -34.5v-137z
" />
    <glyph glyph-name="numbersign" unicode="#" 
d="M339 298q10 0 12 11l10 84v2q0 8 -8 8h-52q-10 0 -12 -11l-10 -84v-2q0 -8 8 -8h52zM166 188v2q0 8 -8 8h-13q-21 0 -35 14.5t-14 34.5q0 22 14 36.5t35 14.5h23q9 0 11 11l9 84v2q0 8 -8 8h-35q-21 0 -35 15t-14 36q0 20 14 34.5t35 14.5h46q10 0 12 11l15 142
q2 18 16.5 30.5t33.5 12.5h5q19 0 31 -15t12 -34v-5l-13 -132v-2q0 -8 8 -8h52q10 0 12 11l14 142q2 18 16.5 30.5t34.5 12.5h5q19 -2 31.5 -16t12.5 -33v-5l-15 -132v-2q0 -8 8 -8h13q20 0 34.5 -14.5t14.5 -34.5q0 -21 -14.5 -36t-34.5 -15h-23q-10 0 -12 -11l-8 -84v-2
q0 -8 7 -8h36q20 0 34.5 -14.5t14.5 -36.5q0 -20 -14.5 -34.5t-34.5 -14.5h-46q-10 0 -12 -11l-18 -145q-2 -18 -16.5 -30.5t-33.5 -12.5h-5q-19 0 -31.5 15t-12.5 34v5l17 135v2q0 8 -8 8h-52q-10 0 -12 -11l-18 -145q-2 -18 -16 -30.5t-34 -12.5h-5q-19 0 -31.5 15
t-12.5 34v5z" />
    <glyph glyph-name="dollar" unicode="$" 
d="M370 109q0 -9 9 -9q13 0 20 9l37 36q9 8 9 21v68q0 13 -9 20l-37 38q-9 9 -19 9t-10 -9v-183zM270 592q0 8 -9 8q-12 0 -20 -8l-37 -37q-9 -7 -9 -21v-68q0 -12 9 -20l37 -37q8 -9 19 -9q10 0 10 9v183zM260 700q10 0 10 10v14q0 20 14.5 34.5t34.5 14.5q22 0 36.5 -14.5
t14.5 -34.5v-14q0 -10 10 -10h32q21 0 36 -15l82 -82q8 -8 11 -17t3 -18v-45q0 -21 -14.5 -35.5t-34.5 -14.5q-21 0 -35.5 14.5t-14.5 35.5v11q0 14 -9 21l-37 37q-8 8 -19 8q-10 0 -10 -8v-182q0 -10 10 -10h32q10 0 19.5 -4.5t16.5 -10.5l82 -82q14 -14 14 -36v-134
q0 -22 -14 -36l-82 -82q-15 -15 -36 -15h-32q-10 0 -10 -10v-14q0 -20 -14.5 -34.5t-36.5 -14.5q-20 0 -34.5 14.5t-14.5 34.5v14q0 10 -10 10h-32q-21 0 -36 15l-83 82q-13 13 -13 36v45q0 20 14 34.5t35 14.5t35.5 -14.5t14.5 -34.5v-12q0 -13 9 -21l37 -36q8 -9 19 -9
q10 0 10 9v182q0 10 -10 10h-32q-22 0 -36 14l-83 82q-13 16 -13 36v135q0 19 13 35l83 82q15 15 36 15h32z" />
    <glyph glyph-name="percent" unicode="%" 
d="M445 651q0 20 14.5 34.5t35.5 14.5q20 0 34.5 -14.5t14.5 -34.5v-127q0 -20 -15 -35l-325 -326q-9 -7 -9 -21v-93q0 -20 -14.5 -34.5t-35.5 -14.5t-35 14.5t-14 34.5v127q0 18 14 35l326 326q9 8 9 21v93zM436 0q-21 0 -35.5 14.5t-14.5 34.5v60q0 20 14.5 34.5
t35.5 14.5h59q20 0 34.5 -14.5t14.5 -34.5v-60q0 -20 -14.5 -34.5t-34.5 -14.5h-59zM145 542q-21 0 -35 14.5t-14 35.5v59q0 20 14 34.5t35 14.5h59q21 0 35 -14.5t14 -34.5v-59q0 -21 -14 -35.5t-35 -14.5h-59z" />
    <glyph glyph-name="ampersand" unicode="&#x26;" 
d="M400 290q0 10 -10 10h-129q-11 0 -20 -9l-37 -38q-9 -7 -9 -20v-67q0 -13 9 -21l37 -36q8 -9 20 -9h72q14 0 21 9l37 36q9 9 9 21v124zM500 133q0 -21 -15 -36l-82 -82q-15 -15 -36 -15h-139q-21 0 -36 15l-83 82q-8 7 -10.5 16.5t-2.5 19.5v133q0 10 2.5 19.5t10.5 16.5
l20 19q12 12 12 29q0 16 -12 28l-20 19q-8 7 -10.5 16.5t-2.5 19.5v135q0 9 2.5 18.5t10.5 16.5l83 82q15 15 36 15h91q22 0 36.5 -14.5t14.5 -34.5q0 -21 -14.5 -36t-36.5 -15h-58q-12 0 -20 -8l-37 -37q-9 -7 -9 -21v-68q0 -12 9 -20l37 -38q9 -9 20 -9h129q10 0 10 10v24
q0 20 14.5 35t35.5 15q20 0 35 -15t15 -35v-24q0 -10 10 -10h22q21 0 36 -14t15 -35t-15 -35.5t-36 -14.5h-22q-10 0 -10 -10v-157z" />
    <glyph glyph-name="quotesingle" unicode="'" 
d="M370 514q0 -21 -15 -35.5t-36 -14.5q-20 0 -34.5 14.5t-14.5 35.5v137q0 20 14.5 34.5t34.5 14.5q21 0 36 -14.5t15 -34.5v-137z" />
    <glyph glyph-name="parenleft" unicode="(" 
d="M394 54q21 0 35.5 -14t14.5 -35t-14.5 -35.5t-35.5 -14.5h-65q-20 0 -35 15l-83 81q-8 8 -11 17.5t-3 18.5v525q0 9 3 18.5t11 17.5l83 82q7 6 16 10t19 4h65q21 0 35.5 -14t14.5 -35t-14.5 -35.5t-35.5 -14.5h-31q-13 0 -21 -9l-36 -37q-9 -7 -9 -20v-459q0 -12 9 -20
l36 -37q9 -9 21 -9h31z" />
    <glyph glyph-name="parenright" unicode=")" 
d="M278 54q14 0 21 9l36 37q9 8 9 20v459q0 13 -9 20l-36 37q-7 9 -21 9h-31q-21 0 -35.5 14.5t-14.5 35.5t14.5 35t35.5 14h65q9 0 18.5 -4t16.5 -10l83 -82q8 -8 11 -17.5t3 -18.5v-525q0 -9 -3 -18.5t-11 -17.5l-83 -81q-15 -15 -35 -15h-65q-21 0 -35.5 14.5t-14.5 35.5
t14.5 35t35.5 14h31z" />
    <glyph glyph-name="asterisk" unicode="*" 
d="M276 616q1 -1 3 -1q3 0 3 5v41q0 17 11.5 28t26.5 11q17 0 28 -11t11 -28v-41q0 -5 3 -5q2 0 3 1l35 21q8 5 20 5q17 0 27 -10.5t10 -27.5q0 -21 -18 -32l-37 -22q-2 -2 -2 -4t1 -2l38 -21q18 -10 18 -33q0 -37 -37 -37q-13 0 -20 4l-35 21q-1 1 -4 1q-2 -2 -2 -5v-41
q0 -17 -11 -28t-28 -11q-15 0 -26.5 11t-11.5 28v41q0 5 -3 5q-2 0 -3 -1l-35 -21q-7 -4 -20 -4q-17 0 -27.5 10t-10.5 26q0 23 20 34l37 21q2 2 2 3t-2 3l-37 22q-20 11 -20 33q0 16 11 26.5t27 10.5q12 0 20 -5z" />
    <glyph glyph-name="plus" unicode="+" 
d="M454 398q20 0 34.5 -14t14.5 -35q0 -22 -14.5 -36t-34.5 -14h-44q-17 0 -28 -11.5t-11 -28.5v-44q0 -21 -14.5 -35t-36.5 -14q-20 0 -34.5 14t-14.5 35v44q0 17 -11.5 28.5t-27.5 11.5h-45q-20 0 -34.5 14t-14.5 36q0 21 14.5 35t34.5 14h45q16 0 27.5 11.5t11.5 28.5v44
q0 21 14.5 35t34.5 14q22 0 36.5 -14t14.5 -35v-44q0 -17 11 -28.5t28 -11.5h44z" />
    <glyph glyph-name="comma" unicode="," 
d="M339 138q21 0 35.5 -15t14.5 -35v-96q0 -9 -3 -18t-11 -17l-42 -42q-12 -12 -30 -12t-30 12q-12 13 -12 30t12 29l25 26q-21 0 -34 14.5t-13 34.5v39q0 20 14.5 35t35.5 15h38z" />
    <glyph glyph-name="hyphen" unicode="-" 
d="M454 400q20 0 34.5 -14t14.5 -35q0 -22 -14.5 -36t-34.5 -14h-267q-20 0 -34.5 14t-14.5 36q0 21 14.5 35t34.5 14h267z" />
    <glyph glyph-name="period" unicode="." 
d="M296 0q-21 0 -35 14.5t-14 34.5v50q0 20 14 34.5t35 14.5h49q21 0 35 -14.5t14 -34.5v-50q0 -20 -14 -34.5t-35 -14.5h-49z" />
    <glyph glyph-name="slash" unicode="/" 
d="M445 651q0 20 14.5 34.5t35.5 14.5q20 0 34.5 -14.5t14.5 -34.5v-127q0 -20 -15 -35l-325 -326q-9 -7 -9 -21v-93q0 -20 -14.5 -34.5t-35.5 -14.5t-35 14.5t-14 34.5v127q0 18 14 35l326 326q9 8 9 21v93z" />
    <glyph glyph-name="zero" unicode="0" 
d="M429 530q3 3 3 6t-3 6l-50 50q-8 8 -21 8h-76q-13 0 -21 -8l-57 -58q-9 -7 -9 -20v-202q0 -8 4 -8q3 0 6 3zM211 170q-4 -4 -4 -6t4 -6l50 -49q8 -9 21 -9h76q14 0 21 9l57 57q9 8 9 20v202q0 8 -4 8q-3 0 -6 -3zM213 684q13 16 35 16h143q22 0 36 -14l102 -103
q15 -15 15 -36v-394q0 -22 -15 -37l-102 -102q-14 -14 -36 -14h-143q-20 0 -35 15l-104 102q-13 13 -13 36v394q0 23 13 36z" />
    <glyph glyph-name="one" unicode="1" 
d="M270 514q0 8 -4 8q-3 0 -6 -3l-35 -35q-14 -14 -36 -14q-20 0 -34.5 14.5t-14.5 35.5q0 9 3 18.5t11 17.5l130 130q8 8 17.5 11t18.5 3q21 0 35.5 -14.5t14.5 -34.5v-512q0 -17 11 -28t28 -11h42q20 0 34.5 -15t14.5 -36q0 -20 -14.5 -34.5t-34.5 -14.5h-262
q-20 0 -34.5 14.5t-14.5 34.5q0 21 14.5 36t34.5 15h42q16 0 27.5 11t11.5 28v375z" />
    <glyph glyph-name="two" unicode="2" 
d="M195 523q0 -21 -14.5 -35.5t-35.5 -14.5t-35 14.5t-14 35.5v45q0 19 13 35l83 82q15 15 36 15h184q21 0 36 -15l82 -83q14 -14 14 -34v-61q0 -9 -3 -18.5t-11 -17.5l-326 -326q-7 -7 -7 -15q0 -14 12 -22t26 -8h260q20 0 34.5 -15t14.5 -36q0 -20 -14.5 -34.5
t-34.5 -14.5h-350q-21 0 -35 14.5t-14 34.5v109q0 22 13 35l329 329q7 4 7 15q0 9 -7 16l-39 39q-8 8 -20 8h-118q-12 0 -20 -8l-37 -37q-9 -7 -9 -21v-11z" />
    <glyph glyph-name="three" unicode="3" 
d="M195 523q0 -21 -14.5 -35.5t-35.5 -14.5t-35 14.5t-14 35.5v45q0 19 13 35l83 82q15 15 36 15h184q21 0 36 -15l82 -82q8 -8 11 -17t3 -18v-135q0 -22 -14 -36l-19 -19q-12 -12 -12 -28q0 -17 12 -29l19 -19q14 -14 14 -36v-134q0 -9 -3 -18t-11 -17l-82 -82
q-15 -15 -36 -15h-184q-21 0 -36 15l-83 82q-13 16 -13 35v46q0 20 14 34t35 14t35.5 -14t14.5 -34v-12q0 -13 9 -21l37 -36q8 -9 20 -9h118q13 0 20 9l37 36q9 8 9 21v67q0 13 -9 20l-37 38q-9 9 -20 9h-113q-21 0 -35.5 14.5t-14.5 35.5t14.5 35t35.5 14h113q11 0 20 9
l37 38q9 8 9 20v68q0 14 -9 21l-37 37q-8 8 -20 8h-118q-12 0 -20 -8l-37 -37q-9 -7 -9 -21v-11z" />
    <glyph glyph-name="four" unicode="4" 
d="M405 378q17 0 28.5 11t11.5 28v234q0 20 14.5 34.5t35.5 14.5q20 0 34.5 -14.5t14.5 -34.5v-602q0 -20 -14.5 -34.5t-34.5 -14.5q-21 0 -35.5 14.5t-14.5 34.5v190q0 16 -11.5 27.5t-28.5 11.5h-177q-21 0 -36 15l-83 82q-13 13 -13 36v240q0 20 14 34.5t35 14.5
t35.5 -14.5t14.5 -34.5v-207q0 -13 9 -21l37 -37q8 -8 20 -8h144z" />
    <glyph glyph-name="five" unicode="5" 
d="M195 166q0 -13 9 -21l37 -36q8 -9 20 -9h118q13 0 20 9l37 36q9 8 9 21v90q0 14 -9 21l-37 37q-8 8 -20 8h-151q-21 0 -36 15l-83 82q-13 16 -13 36v196q0 20 14 34.5t35 14.5h350q20 0 34.5 -14.5t14.5 -34.5q0 -22 -14.5 -36.5t-34.5 -14.5h-260q-17 0 -28.5 -11
t-11.5 -28v-73q0 -13 9 -21l37 -36q8 -9 20 -9h150q22 0 37 -15l82 -82q8 -7 11 -16.5t3 -19.5v-157q0 -9 -3 -18t-11 -17l-82 -82q-15 -15 -37 -15h-183q-21 0 -36 15l-83 82q-13 16 -13 35v46q0 20 14 34.5t35 14.5t35.5 -14.5t14.5 -34.5v-12z" />
    <glyph glyph-name="six" unicode="6" 
d="M195 166q0 -13 9 -21l37 -36q8 -9 20 -9h118q13 0 20 9l37 36q9 8 9 21v67q0 13 -9 20l-37 38q-9 9 -20 9h-144q-17 0 -28.5 -12t-11.5 -29v-93zM445 534q0 14 -9 21l-37 37q-8 8 -20 8h-118q-12 0 -20 -8l-37 -37q-9 -7 -9 -21v-94q0 -17 11.5 -29t28.5 -12h176
q11 0 20.5 -4t16.5 -10l82 -83q14 -14 14 -36v-134q0 -9 -3 -18t-11 -17l-82 -82q-15 -15 -37 -15h-183q-21 0 -36 15l-83 82q-13 16 -13 35v436q0 19 13 35l83 82q15 15 36 15h183q22 0 37 -15l82 -82q8 -8 11 -17t3 -18v-45q0 -21 -14.5 -35.5t-34.5 -14.5
q-21 0 -35.5 14.5t-14.5 35.5v11z" />
    <glyph glyph-name="seven" unicode="7" 
d="M370 49q0 -20 -14.5 -34.5t-35.5 -14.5t-35.5 14.5t-14.5 34.5v301q0 21 14 35l152 152q9 8 9 21v3q0 17 -11.5 28t-28.5 11h-260q-21 0 -35 14.5t-14 36.5q0 20 14 34.5t35 14.5h350q20 0 34.5 -14.5t14.5 -34.5v-127q0 -9 -3 -18t-11 -17l-151 -152q-9 -7 -9 -21v-267z
" />
    <glyph glyph-name="eight" unicode="8" 
d="M399 291q-9 9 -20 9h-118q-11 0 -20 -9l-37 -38q-9 -7 -9 -20v-67q0 -13 9 -21l37 -36q8 -9 20 -9h118q13 0 20 9l37 36q9 8 9 21v67q0 13 -9 20zM399 592q-8 8 -20 8h-118q-12 0 -20 -8l-37 -37q-9 -7 -9 -21v-68q0 -12 9 -20l37 -38q9 -9 20 -9h118q11 0 20 9l37 38
q9 8 9 20v68q0 14 -9 21zM228 0q-21 0 -36 15l-83 82q-13 16 -13 35v134q0 23 13 36l20 19q12 12 12 29q0 16 -12 28l-20 19q-13 13 -13 36v135q0 19 13 35l83 82q15 15 36 15h184q21 0 36 -15l82 -82q8 -8 11 -17t3 -18v-135q0 -22 -14 -36l-19 -19q-12 -12 -12 -28
q0 -17 12 -29l19 -19q14 -14 14 -36v-134q0 -9 -3 -18t-11 -17l-82 -82q-15 -15 -36 -15h-184z" />
    <glyph glyph-name="nine" unicode="9" 
d="M445 534q0 14 -9 21l-37 37q-8 8 -20 8h-118q-12 0 -20 -8l-37 -37q-9 -7 -9 -21v-68q0 -12 9 -20l37 -38q9 -9 20 -9h144q17 0 28.5 12t11.5 29v94zM195 166q0 -13 9 -21l37 -36q8 -9 20 -9h118q13 0 20 9l37 36q9 8 9 21v93q0 17 -11.5 29t-28.5 12h-177q-10 0 -19.5 4
t-16.5 10l-83 83q-13 13 -13 36v135q0 19 13 35l83 82q15 15 36 15h184q21 0 36 -15l82 -82q8 -8 11 -17t3 -18v-436q0 -9 -3 -18t-11 -17l-82 -82q-15 -15 -36 -15h-184q-21 0 -36 15l-83 82q-13 16 -13 35v46q0 20 14 34t35 14t35.5 -14t14.5 -34v-12z" />
    <glyph glyph-name="colon" unicode=":" 
d="M296 0q-21 0 -35 14.5t-14 34.5v50q0 20 14 34.5t35 14.5h49q21 0 35 -14.5t14 -34.5v-50q0 -20 -14 -34.5t-35 -14.5h-49zM296 335q-21 0 -35 14.5t-14 35.5v49q0 20 14 34.5t35 14.5h49q21 0 35 -14.5t14 -34.5v-49q0 -21 -14 -35.5t-35 -14.5h-49z" />
    <glyph glyph-name="semicolon" unicode=";" 
d="M296 335q-21 0 -35 14.5t-14 35.5v49q0 20 14 34.5t35 14.5h49q21 0 35 -14.5t14 -34.5v-49q0 -21 -14 -35.5t-35 -14.5h-49zM339 138q21 0 35.5 -15t14.5 -35v-96q0 -9 -3 -18t-11 -17l-42 -42q-12 -12 -30 -12t-30 12q-12 13 -12 30t12 29l25 26q-21 0 -34 14.5
t-13 34.5v39q0 20 14.5 35t35.5 15h38z" />
    <glyph glyph-name="less" unicode="&#x3c;" 
d="M394 607q8 8 17 11t18 3q20 0 36 -15t16 -35q0 -9 -3 -18t-11 -17l-159 -159q-14 -14 -14 -28t15 -29l156 -156q14 -14 14 -36q0 -21 -14 -35.5t-35 -14.5q-10 0 -19.5 3t-17.5 11l-220 221q-8 7 -11 16.5t-3 19.5t3.5 20t10.5 16z" />
    <glyph glyph-name="equal" unicode="=" 
d="M454 503q20 0 34.5 -14.5t14.5 -34.5q0 -22 -14.5 -36.5t-34.5 -14.5h-267q-20 0 -34.5 14.5t-14.5 36.5q0 20 14.5 34.5t34.5 14.5h267zM454 298q20 0 34.5 -14.5t14.5 -35.5t-14.5 -35.5t-34.5 -14.5h-267q-20 0 -34.5 14.5t-14.5 35.5t14.5 35.5t34.5 14.5h267z" />
    <glyph glyph-name="greater" unicode="&#x3e;" 
d="M467 385q7 -6 10.5 -16t3.5 -20t-3 -19.5t-11 -16.5l-221 -221q-7 -8 -16.5 -11t-19.5 -3q-22 0 -35.5 14.5t-13.5 35.5q0 22 14 36l156 156q15 15 15 29t-14 28l-159 159q-8 8 -11 17t-3 18q0 20 15.5 35t36.5 15q9 0 18 -3t17 -11z" />
    <glyph glyph-name="question" unicode="?" 
d="M544 504q0 -22 -14 -36l-151 -152q-9 -6 -9 -20v-49q0 -21 -14.5 -35.5t-35.5 -14.5t-35.5 14.5t-14.5 35.5v82q0 22 14 36l152 152q9 8 9 20q0 9 -7 16l-39 39q-8 8 -20 8h-118q-12 0 -20 -8l-37 -37q-9 -7 -9 -21v-11q0 -21 -14.5 -35.5t-35.5 -14.5t-35 14.5t-14 35.5
v45q0 19 13 35l83 82q15 15 36 15h184q21 0 36 -15l82 -83q14 -14 14 -34v-64zM301 0q-21 0 -35.5 14.5t-14.5 34.5v40q0 20 14.5 34.5t35.5 14.5h39q21 0 35 -14.5t14 -34.5v-40q0 -20 -14 -34.5t-35 -14.5h-39z" />
    <glyph glyph-name="at" unicode="@" 
d="M395 283q8 -9 21 -9h19q10 0 10 10v250q0 14 -9 21l-37 37q-8 8 -20 8h-118q-12 0 -20 -8l-37 -37q-9 -7 -9 -21v-368q0 -13 9 -21l37 -36q8 -9 20 -9h144q21 0 35 -15t14 -36q0 -20 -14 -34.5t-35 -14.5h-177q-21 0 -36 15l-83 82q-13 13 -13 36v435q0 19 13 35l83 82
q15 15 36 15h183q22 0 37 -15l82 -82q8 -8 11 -17t3 -18v-343q0 -21 -14.5 -35.5t-34.5 -14.5h-111q-23 0 -37 14l-63 63q-14 14 -14 36v166q0 20 14.5 34.5t34.5 14.5q22 0 36.5 -14.5t14.5 -34.5v-134q0 -11 9 -20z" />
    <glyph glyph-name="A" unicode="A" 
d="M544 49q0 -20 -14.5 -34.5t-34.5 -14.5q-21 0 -35.5 14.5t-14.5 34.5v190q0 16 -11.5 27.5t-28.5 11.5h-170q-17 0 -28.5 -11.5t-11.5 -27.5v-190q0 -20 -14.5 -34.5t-35.5 -14.5t-35 14.5t-14 34.5v498q0 23 13 36l104 102q15 15 35 15h143q22 0 36 -14l102 -103
q15 -15 15 -36v-498zM445 514q0 13 -9 20l-57 58q-8 8 -21 8h-76q-13 0 -21 -8l-57 -58q-9 -7 -9 -20v-97q0 -17 11.5 -28t28.5 -11h170q17 0 28.5 11t11.5 28v97z" />
    <glyph glyph-name="B" unicode="B" 
d="M436 446q9 8 9 20v68q0 14 -9 21l-37 37q-8 8 -20 8h-144q-17 0 -28.5 -11t-11.5 -28v-121q0 -17 11.5 -29t28.5 -12h144q11 0 20 9zM436 145q9 8 9 21v67q0 13 -9 20l-37 38q-9 9 -20 9h-144q-17 0 -28.5 -12t-11.5 -29v-120q0 -17 11.5 -28t28.5 -11h144q13 0 20 9z
M511 378q-12 -12 -12 -28q0 -17 12 -29l19 -19q14 -14 14 -36v-133q0 -22 -14 -36l-82 -82q-15 -15 -37 -15h-266q-21 0 -35 14.5t-14 34.5v602q0 20 14 34.5t35 14.5h266q22 0 37 -15l82 -82q8 -8 11 -17t3 -18v-135q0 -22 -14 -36z" />
    <glyph glyph-name="C" unicode="C" 
d="M195 186q0 -12 9 -20l57 -57q8 -9 21 -9h76q14 0 21 9l57 57q9 8 9 20v30q0 21 14.5 35.5t35.5 14.5q20 0 34.5 -14.5t14.5 -35.5v-63q0 -21 -15 -36l-102 -103q-14 -14 -36 -14h-143q-21 0 -36 15l-103 102q-13 13 -13 36v394q0 23 13 36l103 102q15 15 36 15h143
q22 0 36 -14l102 -103q15 -15 15 -36v-63q0 -21 -14.5 -35.5t-34.5 -14.5q-21 0 -35.5 14.5t-14.5 35.5v30q0 13 -9 20l-57 58q-8 8 -21 8h-76q-13 0 -21 -8l-57 -58q-9 -7 -9 -20v-328z" />
    <glyph glyph-name="D" unicode="D" 
d="M436 166q9 8 9 20v328q0 13 -9 20l-57 58q-8 8 -21 8h-123q-17 0 -28.5 -11t-11.5 -28v-422q0 -17 11.5 -28t28.5 -11h123q14 0 21 9zM529 583q15 -15 15 -36v-394q0 -21 -15 -36l-102 -103q-14 -14 -36 -14h-246q-21 0 -35 14.5t-14 34.5v602q0 20 14 34.5t35 14.5h246
q22 0 36 -14z" />
    <glyph glyph-name="E" unicode="E" 
d="M96 651q0 20 14 34.5t35 14.5h350q20 0 34.5 -14.5t14.5 -34.5q0 -21 -14.5 -36t-34.5 -15h-260q-17 0 -28.5 -11t-11.5 -28v-121q0 -17 11.5 -29t28.5 -12h193q20 0 35 -14t15 -35t-15 -35.5t-35 -14.5h-193q-17 0 -28.5 -12t-11.5 -29v-120q0 -17 11.5 -28t28.5 -11
h260q20 0 34.5 -15t14.5 -36q0 -20 -14.5 -34.5t-34.5 -14.5h-350q-21 0 -35 14.5t-14 34.5v602z" />
    <glyph glyph-name="F" unicode="F" 
d="M195 48q0 -20 -14.5 -34.5t-35.5 -14.5t-35 14.5t-14 34.5v603q0 20 14 34.5t35 14.5h350q20 0 34.5 -14.5t14.5 -34.5q0 -21 -14.5 -36t-34.5 -15h-260q-17 0 -28.5 -11t-11.5 -28v-121q0 -17 11.5 -29t28.5 -12h193q20 0 34.5 -14t14.5 -35t-14.5 -35.5t-34.5 -14.5
h-193q-17 0 -28.5 -12t-11.5 -29v-211z" />
    <glyph glyph-name="G" unicode="G" 
d="M445 534q0 14 -9 21l-37 37q-8 8 -20 8h-118q-12 0 -20 -8l-37 -37q-9 -7 -9 -21v-368q0 -13 9 -21l37 -36q8 -9 20 -9h118q13 0 20 9l37 36q9 8 9 21v94q0 17 -11.5 28.5t-28.5 11.5h-59q-21 0 -35.5 14.5t-14.5 35.5t14.5 35t35.5 14h149q20 0 34.5 -14t14.5 -35v-217
q0 -22 -14 -36l-82 -82q-15 -15 -37 -15h-183q-21 0 -36 15l-83 82q-13 13 -13 36v435q0 19 13 35l83 82q15 15 36 15h183q22 0 37 -15l82 -82q8 -8 11 -17t3 -18v-45q0 -21 -14.5 -35.5t-34.5 -14.5q-21 0 -35.5 14.5t-14.5 35.5v11z" />
    <glyph glyph-name="H" unicode="H" 
d="M544 49q0 -20 -14.5 -34.5t-34.5 -14.5q-22 0 -36 14.5t-14 34.5v211q0 17 -11.5 29t-28.5 12h-170q-17 0 -28.5 -12t-11.5 -29v-211q0 -20 -14.5 -34.5t-35.5 -14.5t-35 14.5t-14 34.5v602q0 20 14 34.5t35 14.5t35.5 -14.5t14.5 -34.5v-211q0 -17 11.5 -29t28.5 -12
h170q17 0 28.5 12t11.5 29v211q0 20 14 34.5t36 14.5q20 0 34.5 -14.5t14.5 -34.5v-602z" />
    <glyph glyph-name="I" unicode="I" 
d="M189 0q-20 0 -34.5 14.5t-14.5 34.5q0 21 14.5 36t34.5 15h42q16 0 27.5 11t11.5 28v422q0 17 -11.5 28t-27.5 11h-42q-20 0 -34.5 15t-14.5 36q0 20 14.5 34.5t34.5 14.5h262q20 0 34.5 -14.5t14.5 -34.5q0 -21 -14.5 -36t-34.5 -15h-42q-17 0 -28 -11t-11 -28v-422
q0 -17 11 -28t28 -11h42q20 0 34.5 -15t14.5 -36q0 -20 -14.5 -34.5t-34.5 -14.5h-262z" />
    <glyph glyph-name="J" unicode="J" 
d="M445 561q0 17 -11.5 28t-28.5 11h-86q-20 0 -34.5 15t-14.5 36q0 20 14.5 34.5t34.5 14.5h176q20 0 34.5 -14.5t14.5 -34.5v-518q0 -22 -14 -36l-82 -82q-15 -15 -36 -15h-184q-21 0 -36 15l-83 82q-13 13 -13 36v83q0 21 14 35.5t35 14.5t35.5 -14.5t14.5 -35.5v-50
q0 -13 9 -21l37 -36q8 -9 20 -9h118q13 0 20 9l37 36q9 8 9 21v395z" />
    <glyph glyph-name="K" unicode="K" 
d="M235 301q-17 0 -28.5 -12t-11.5 -29v-211q0 -20 -14.5 -34.5t-35.5 -14.5t-35 14.5t-14 34.5v602q0 20 14 34.5t35 14.5t35.5 -14.5t14.5 -34.5v-211q0 -17 11.5 -29t28.5 -12h46q14 0 21 9l134 134q9 8 9 21v88q0 20 14.5 34.5t35.5 14.5q20 0 34.5 -14.5t14.5 -34.5
v-122q0 -8 -3 -17.5t-11 -17.5l-117 -115q-12 -13 -12 -29q0 -15 12 -29l117 -115q8 -8 11 -17.5t3 -17.5v-122q0 -20 -14.5 -34.5t-34.5 -14.5q-21 0 -35.5 14.5t-14.5 34.5v88q0 14 -9 21l-134 134q-7 9 -21 9h-46z" />
    <glyph glyph-name="L" unicode="L" 
d="M195 139q0 -17 11.5 -28t28.5 -11h260q20 0 34.5 -15t14.5 -36q0 -20 -14.5 -34.5t-34.5 -14.5h-350q-21 0 -35 14.5t-14 34.5v602q0 20 14 34.5t35 14.5t35.5 -14.5t14.5 -34.5v-512z" />
    <glyph glyph-name="M" unicode="M" 
d="M445 514q0 8 -4 8q-3 0 -6 -3l-56 -56q-8 -6 -8 -17v-96q0 -21 -15 -35t-36 -14t-35 14t-14 35v93q0 13 -10 20l-55 56q-3 3 -6 3q-4 0 -4 -8v-465q0 -20 -15 -34.5t-35 -14.5q-22 0 -35.5 14.5t-13.5 34.5v602q0 20 13.5 34.5t35.5 14.5q9 0 18.5 -3t16.5 -11l110 -111
q14 -12 29 -12q16 0 28 12l110 111q8 8 17.5 11t19.5 3q20 0 34.5 -14.5t14.5 -34.5v-602q0 -20 -14.5 -34.5t-34.5 -14.5q-21 0 -35.5 14.5t-14.5 34.5v465z" />
    <glyph glyph-name="N" unicode="N" 
d="M438 247q3 -5 5 -5t2 7v402q0 20 14.5 34.5t35.5 14.5q20 0 34.5 -14.5t14.5 -34.5v-602q0 -20 -14.5 -34.5t-34.5 -14.5q-14 0 -26 7t-17 18l-250 429q-2 5 -5 5q-2 0 -2 -7v-403q0 -20 -14.5 -34.5t-35.5 -14.5t-35 14.5t-14 34.5v602q0 20 14 34.5t35 14.5
q30 0 43 -25z" />
    <glyph glyph-name="O" unicode="O" 
d="M530 603q8 -8 11 -17t3 -18v-436q0 -9 -3 -18t-11 -17l-82 -82q-15 -15 -37 -15h-183q-21 0 -36 15l-83 82q-13 16 -13 35v436q0 19 13 35l83 82q15 15 36 15h183q22 0 37 -15zM436 145q9 8 9 21v368q0 14 -9 21l-37 37q-8 8 -20 8h-118q-12 0 -20 -8l-37 -37
q-9 -7 -9 -21v-368q0 -13 9 -21l37 -36q8 -9 20 -9h118q13 0 20 9z" />
    <glyph glyph-name="P" unicode="P" 
d="M195 49q0 -20 -14.5 -34.5t-35.5 -14.5t-35 14.5t-14 34.5v602q0 20 14 34.5t35 14.5h266q22 0 37 -15l82 -82q8 -8 11 -17t3 -18v-157q0 -22 -14 -36l-82 -82q-15 -15 -37 -15h-176q-17 0 -28.5 -11.5t-11.5 -27.5v-190zM379 378q12 0 20 8l37 37q9 8 9 21v90
q0 14 -9 21l-37 37q-8 8 -20 8h-144q-17 0 -28.5 -11t-11.5 -28v-144q0 -17 11.5 -28t28.5 -11h144z" />
    <glyph glyph-name="Q" unicode="Q" 
d="M436 145q9 8 9 21v368q0 14 -9 21l-37 37q-8 8 -20 8h-118q-12 0 -20 -8l-37 -37q-9 -7 -9 -21v-368q0 -13 9 -21l37 -36q8 -9 20 -9h118q13 0 20 9zM229 0q-22 0 -37 15l-83 82q-13 13 -13 36v435q0 19 13 35l83 82q15 15 37 15h183q21 0 36 -15l82 -82q8 -8 11 -17
t3 -18v-435q0 -22 -14 -36l-19 -19q-12 -10 -12 -29q0 -16 12 -27l19 -19q8 -8 11 -17.5t3 -18.5q0 -21 -14.5 -35.5t-34.5 -14.5q-10 0 -19.5 3t-17.5 11l-59 60q-9 9 -20 9h-150z" />
    <glyph glyph-name="R" unicode="R" 
d="M235 278q-17 0 -28.5 -11.5t-11.5 -27.5v-190q0 -20 -14.5 -34.5t-35.5 -14.5t-35 14.5t-14 34.5v602q0 20 14 34.5t35 14.5h246q21 0 37 -15l102 -102q14 -14 14 -36v-116q0 -21 -15 -36l-39 -39q-12 -12 -12 -28q0 -15 12 -29l40 -39q14 -14 14 -35v-176
q0 -20 -14.5 -34.5t-34.5 -14.5q-21 0 -35.5 14.5t-14.5 34.5v142q0 14 -9 21l-57 57q-7 9 -21 9h-123zM436 444q9 8 9 20v50q0 13 -9 20l-57 58q-8 8 -21 8h-123q-17 0 -28.5 -11t-11.5 -28v-144q0 -17 11.5 -28t28.5 -11h123q13 0 21 8z" />
    <glyph glyph-name="S" unicode="S" 
d="M445 534q0 14 -9 21l-37 37q-8 8 -20 8h-118q-12 0 -20 -8l-37 -37q-9 -7 -9 -21v-68q0 -12 9 -20l37 -38q9 -9 20 -9h151q10 0 19.5 -4t16.5 -10l82 -83q14 -14 14 -36v-134q0 -9 -3 -18t-11 -17l-82 -82q-15 -15 -36 -15h-184q-21 0 -36 15l-83 82q-13 16 -13 35v46
q0 20 14 34t35 14t35.5 -14t14.5 -34v-12q0 -13 9 -21l37 -36q8 -9 20 -9h118q13 0 20 9l37 36q9 8 9 21v67q0 13 -9 20l-37 38q-9 9 -20 9h-151q-10 0 -19.5 4t-16.5 10l-83 83q-13 13 -13 36v135q0 19 13 35l83 82q15 15 36 15h184q21 0 36 -15l82 -82q8 -8 11 -17t3 -18
v-45q0 -21 -14.5 -35.5t-34.5 -14.5q-21 0 -35.5 14.5t-14.5 35.5v11z" />
    <glyph glyph-name="T" unicode="T" 
d="M370 49q0 -20 -14.5 -34.5t-36.5 -14.5q-20 0 -34.5 14.5t-14.5 34.5v512q0 17 -11.5 28t-27.5 11h-86q-21 0 -35 15t-14 36q0 20 14 34.5t35 14.5h350q20 0 34.5 -14.5t14.5 -34.5q0 -21 -14.5 -36t-34.5 -15h-86q-17 0 -28 -11t-11 -28v-512z" />
    <glyph glyph-name="U" unicode="U" 
d="M195 166q0 -13 9 -21l37 -36q8 -9 20 -9h118q13 0 20 9l37 36q9 8 9 21v485q0 20 14.5 34.5t35.5 14.5q20 0 34.5 -14.5t14.5 -34.5v-519q0 -9 -3 -18t-11 -17l-82 -82q-15 -15 -37 -15h-183q-21 0 -36 15l-83 82q-13 16 -13 35v519q0 20 14 34.5t35 14.5t35.5 -14.5
t14.5 -34.5v-485z" />
    <glyph glyph-name="V" unicode="V" 
d="M445 651q0 20 14.5 34.5t35.5 14.5q20 0 34.5 -14.5t14.5 -34.5v-445q0 -22 -15 -36l-155 -156q-14 -14 -36 -14h-36q-22 0 -36 14l-156 156q-14 14 -14 36v445q0 20 14 34.5t35 14.5t35.5 -14.5t14.5 -34.5v-411q0 -13 9 -21l88 -89q5 -6 13 -9t15 -3t15 3t13 9l88 89
q9 8 9 21v411z" />
    <glyph glyph-name="W" unicode="W" 
d="M445 651q0 20 14.5 34.5t35.5 14.5q20 0 34.5 -14.5t14.5 -34.5v-514q0 -21 -14 -35l-87 -88q-14 -14 -36 -14q-21 0 -35 14l-52 53l-52 -53q-14 -14 -35 -14q-22 0 -36 14l-88 88q-13 13 -13 35v514q0 20 14 34.5t35 14.5t35.5 -14.5t14.5 -34.5v-480q0 -14 12 -24.5
t26 -10.5t25.5 10.5t11.5 24.5v179q0 21 14.5 35t35.5 14t35.5 -14t14.5 -35v-179q0 -14 11.5 -24.5t25.5 -10.5t26 10.5t12 24.5v480z" />
    <glyph glyph-name="X" unicode="X" 
d="M445 651q0 20 14.5 34.5t35.5 14.5q20 0 34.5 -14.5t14.5 -34.5v-145q0 -21 -15 -36l-91 -92q-13 -13 -13 -28t13 -28l91 -92q15 -15 15 -36v-145q0 -20 -14.5 -34.5t-34.5 -14.5q-21 0 -35.5 14.5t-14.5 34.5v112q0 14 -9 20l-88 88q-13 13 -29 13q-14 0 -27 -13
l-88 -88q-9 -6 -9 -20v-112q0 -20 -14.5 -34.5t-35.5 -14.5t-35 14.5t-14 34.5v145q0 10 4 19.5t10 16.5l92 92q13 13 13 28t-13 28l-92 92q-6 7 -10 16.5t-4 19.5v145q0 20 14 34.5t35 14.5t35.5 -14.5t14.5 -34.5v-112q0 -14 9 -20l87 -89q14 -12 28 -12q17 0 30 12l87 89
q9 6 9 20v112z" />
    <glyph glyph-name="Y" unicode="Y" 
d="M110 448q-14 14 -14 36v167q0 20 14 34.5t35 14.5t35.5 -14.5t14.5 -34.5v-133q0 -13 9 -21l88 -89q5 -6 13 -9t14 -3q19 0 29 12l88 89q9 8 9 21v133q0 20 14.5 34.5t35.5 14.5q20 0 34.5 -14.5t14.5 -34.5v-167q0 -22 -15 -36l-150 -151q-9 -7 -9 -21v-227
q0 -20 -14.5 -34.5t-36.5 -14.5q-20 0 -34.5 14.5t-14.5 34.5v227q0 14 -9 21z" />
    <glyph glyph-name="Z" unicode="Z" 
d="M436 537q9 8 9 21v3q0 17 -11.5 28t-28.5 11h-260q-21 0 -35 15t-14 36q0 20 14 34.5t35 14.5h350q20 0 34.5 -14.5t14.5 -34.5v-127q0 -9 -3 -18t-11 -17l-326 -326q-9 -7 -9 -21v-3q0 -17 11.5 -28t28.5 -11h260q20 0 34.5 -15t14.5 -36q0 -20 -14.5 -34.5t-34.5 -14.5
h-350q-21 0 -35 14.5t-14 34.5v127q0 19 13 35z" />
    <glyph glyph-name="bracketleft" unicode="[" 
d="M247 -45q-21 0 -35.5 14t-14.5 35v691q0 21 14.5 35t35.5 14h147q21 0 35.5 -14t14.5 -35t-14.5 -35.5t-35.5 -14.5h-58q-16 0 -27.5 -11.5t-11.5 -28.5v-511q0 -17 11.5 -28.5t27.5 -11.5h58q21 0 35.5 -14t14.5 -35t-14.5 -35.5t-35.5 -14.5h-147z" />
    <glyph glyph-name="backslash" unicode="\" 
d="M196 558q0 -13 9 -21l325 -326q15 -15 15 -35v-127q0 -20 -14.5 -34.5t-34.5 -14.5q-21 0 -35.5 14.5t-14.5 34.5v93q0 14 -9 21l-326 326q-14 17 -14 35v127q0 20 14 34.5t35 14.5t35.5 -14.5t14.5 -34.5v-93z" />
    <glyph glyph-name="bracketright" unicode="]" 
d="M247 -45q-21 0 -35.5 14.5t-14.5 35.5t14.5 35t35.5 14h58q16 0 27.5 11.5t11.5 28.5v511q0 17 -11.5 28.5t-27.5 11.5h-58q-21 0 -35.5 14.5t-14.5 35.5t14.5 35t35.5 14h147q21 0 35.5 -14t14.5 -35v-691q0 -21 -14.5 -35t-35.5 -14h-147z" />
    <glyph glyph-name="asciicircum" unicode="^" 
d="M320 700q9 0 18.5 -3t17.5 -11l143 -143q14 -14 14 -36q0 -21 -14.5 -35.5t-37.5 -14.5q-8 0 -16 3t-17 11l-80 80q-13 13 -28 13q-14 0 -27 -13l-80 -80q-9 -8 -17.5 -11t-16.5 -3q-22 0 -36.5 14.5t-14.5 35.5q0 22 14 36l143 143q8 8 17.5 11t17.5 3z" />
    <glyph glyph-name="underscore" unicode="_" 
d="M496 54q20 0 34.5 -14t14.5 -35q0 -22 -14.5 -36t-34.5 -14h-350q-21 0 -35 14t-14 36q0 21 14 35t35 14h350z" />
    <glyph glyph-name="grave" unicode="`" 
d="M244 893q-14 14 -14 36q0 20 14 34.5t35 14.5q10 0 19.5 -3t17.5 -11l79 -81q15 -15 15 -35q0 -21 -15 -35t-35 -14q-9 0 -18.5 2.5t-17.5 10.5z" />
    <glyph glyph-name="a" unicode="a" 
d="M544 49q0 -20 -14.5 -34.5t-34.5 -14.5q-21 0 -35.5 14.5t-14.5 34.5v190q0 16 -11.5 27.5t-28.5 11.5h-170q-17 0 -28.5 -11.5t-11.5 -27.5v-190q0 -20 -14.5 -34.5t-35.5 -14.5t-35 14.5t-14 34.5v498q0 23 13 36l104 102q15 15 35 15h143q22 0 36 -14l102 -103
q15 -15 15 -36v-498zM445 514q0 13 -9 20l-57 58q-8 8 -21 8h-76q-13 0 -21 -8l-57 -58q-9 -7 -9 -20v-97q0 -17 11.5 -28t28.5 -11h170q17 0 28.5 11t11.5 28v97z" />
    <glyph glyph-name="b" unicode="b" 
d="M436 446q9 8 9 20v68q0 14 -9 21l-37 37q-8 8 -20 8h-144q-17 0 -28.5 -11t-11.5 -28v-121q0 -17 11.5 -29t28.5 -12h144q11 0 20 9zM436 145q9 8 9 21v67q0 13 -9 20l-37 38q-9 9 -20 9h-144q-17 0 -28.5 -12t-11.5 -29v-120q0 -17 11.5 -28t28.5 -11h144q13 0 20 9z
M511 378q-12 -12 -12 -28q0 -17 12 -29l19 -19q14 -14 14 -36v-133q0 -22 -14 -36l-82 -82q-15 -15 -37 -15h-266q-21 0 -35 14.5t-14 34.5v602q0 20 14 34.5t35 14.5h266q22 0 37 -15l82 -82q8 -8 11 -17t3 -18v-135q0 -22 -14 -36z" />
    <glyph glyph-name="c" unicode="c" 
d="M195 186q0 -12 9 -20l57 -57q8 -9 21 -9h76q14 0 21 9l57 57q9 8 9 20v30q0 21 14.5 35.5t35.5 14.5q20 0 34.5 -14.5t14.5 -35.5v-63q0 -21 -15 -36l-102 -103q-14 -14 -36 -14h-143q-21 0 -36 15l-103 102q-13 13 -13 36v394q0 23 13 36l103 102q15 15 36 15h143
q22 0 36 -14l102 -103q15 -15 15 -36v-63q0 -21 -14.5 -35.5t-34.5 -14.5q-21 0 -35.5 14.5t-14.5 35.5v30q0 13 -9 20l-57 58q-8 8 -21 8h-76q-13 0 -21 -8l-57 -58q-9 -7 -9 -20v-328z" />
    <glyph glyph-name="d" unicode="d" 
d="M436 166q9 8 9 20v328q0 13 -9 20l-57 58q-8 8 -21 8h-123q-17 0 -28.5 -11t-11.5 -28v-422q0 -17 11.5 -28t28.5 -11h123q14 0 21 9zM529 583q15 -15 15 -36v-394q0 -21 -15 -36l-102 -103q-14 -14 -36 -14h-246q-21 0 -35 14.5t-14 34.5v602q0 20 14 34.5t35 14.5h246
q22 0 36 -14z" />
    <glyph glyph-name="e" unicode="e" 
d="M96 651q0 20 14 34.5t35 14.5h350q20 0 34.5 -14.5t14.5 -34.5q0 -21 -14.5 -36t-34.5 -15h-260q-17 0 -28.5 -11t-11.5 -28v-121q0 -17 11.5 -29t28.5 -12h193q20 0 35 -14t15 -35t-15 -35.5t-35 -14.5h-193q-17 0 -28.5 -12t-11.5 -29v-120q0 -17 11.5 -28t28.5 -11
h260q20 0 34.5 -15t14.5 -36q0 -20 -14.5 -34.5t-34.5 -14.5h-350q-21 0 -35 14.5t-14 34.5v602z" />
    <glyph glyph-name="f" unicode="f" 
d="M195 48q0 -20 -14.5 -34.5t-35.5 -14.5t-35 14.5t-14 34.5v603q0 20 14 34.5t35 14.5h350q20 0 34.5 -14.5t14.5 -34.5q0 -21 -14.5 -36t-34.5 -15h-260q-17 0 -28.5 -11t-11.5 -28v-121q0 -17 11.5 -29t28.5 -12h193q20 0 34.5 -14t14.5 -35t-14.5 -35.5t-34.5 -14.5
h-193q-17 0 -28.5 -12t-11.5 -29v-211z" />
    <glyph glyph-name="g" unicode="g" 
d="M445 534q0 14 -9 21l-37 37q-8 8 -20 8h-118q-12 0 -20 -8l-37 -37q-9 -7 -9 -21v-368q0 -13 9 -21l37 -36q8 -9 20 -9h118q13 0 20 9l37 36q9 8 9 21v94q0 17 -11.5 28.5t-28.5 11.5h-59q-21 0 -35.5 14.5t-14.5 35.5t14.5 35t35.5 14h149q20 0 34.5 -14t14.5 -35v-217
q0 -22 -14 -36l-82 -82q-15 -15 -37 -15h-183q-21 0 -36 15l-83 82q-13 13 -13 36v435q0 19 13 35l83 82q15 15 36 15h183q22 0 37 -15l82 -82q8 -8 11 -17t3 -18v-45q0 -21 -14.5 -35.5t-34.5 -14.5q-21 0 -35.5 14.5t-14.5 35.5v11z" />
    <glyph glyph-name="h" unicode="h" 
d="M544 49q0 -20 -14.5 -34.5t-34.5 -14.5q-22 0 -36 14.5t-14 34.5v211q0 17 -11.5 29t-28.5 12h-170q-17 0 -28.5 -12t-11.5 -29v-211q0 -20 -14.5 -34.5t-35.5 -14.5t-35 14.5t-14 34.5v602q0 20 14 34.5t35 14.5t35.5 -14.5t14.5 -34.5v-211q0 -17 11.5 -29t28.5 -12
h170q17 0 28.5 12t11.5 29v211q0 20 14 34.5t36 14.5q20 0 34.5 -14.5t14.5 -34.5v-602z" />
    <glyph glyph-name="i" unicode="i" 
d="M189 0q-20 0 -34.5 14.5t-14.5 34.5q0 21 14.5 36t34.5 15h42q16 0 27.5 11t11.5 28v422q0 17 -11.5 28t-27.5 11h-42q-20 0 -34.5 15t-14.5 36q0 20 14.5 34.5t34.5 14.5h262q20 0 34.5 -14.5t14.5 -34.5q0 -21 -14.5 -36t-34.5 -15h-42q-17 0 -28 -11t-11 -28v-422
q0 -17 11 -28t28 -11h42q20 0 34.5 -15t14.5 -36q0 -20 -14.5 -34.5t-34.5 -14.5h-262z" />
    <glyph glyph-name="j" unicode="j" 
d="M445 561q0 17 -11.5 28t-28.5 11h-86q-20 0 -34.5 15t-14.5 36q0 20 14.5 34.5t34.5 14.5h176q20 0 34.5 -14.5t14.5 -34.5v-518q0 -22 -14 -36l-82 -82q-15 -15 -36 -15h-184q-21 0 -36 15l-83 82q-13 13 -13 36v83q0 21 14 35.5t35 14.5t35.5 -14.5t14.5 -35.5v-50
q0 -13 9 -21l37 -36q8 -9 20 -9h118q13 0 20 9l37 36q9 8 9 21v395z" />
    <glyph glyph-name="k" unicode="k" 
d="M235 301q-17 0 -28.5 -12t-11.5 -29v-211q0 -20 -14.5 -34.5t-35.5 -14.5t-35 14.5t-14 34.5v602q0 20 14 34.5t35 14.5t35.5 -14.5t14.5 -34.5v-211q0 -17 11.5 -29t28.5 -12h46q14 0 21 9l134 134q9 8 9 21v88q0 20 14.5 34.5t35.5 14.5q20 0 34.5 -14.5t14.5 -34.5
v-122q0 -8 -3 -17.5t-11 -17.5l-117 -115q-12 -13 -12 -29q0 -15 12 -29l117 -115q8 -8 11 -17.5t3 -17.5v-122q0 -20 -14.5 -34.5t-34.5 -14.5q-21 0 -35.5 14.5t-14.5 34.5v88q0 14 -9 21l-134 134q-7 9 -21 9h-46z" />
    <glyph glyph-name="l" unicode="l" 
d="M195 139q0 -17 11.5 -28t28.5 -11h260q20 0 34.5 -15t14.5 -36q0 -20 -14.5 -34.5t-34.5 -14.5h-350q-21 0 -35 14.5t-14 34.5v602q0 20 14 34.5t35 14.5t35.5 -14.5t14.5 -34.5v-512z" />
    <glyph glyph-name="m" unicode="m" 
d="M445 514q0 8 -4 8q-3 0 -6 -3l-56 -56q-8 -6 -8 -17v-96q0 -21 -15 -35t-36 -14t-35 14t-14 35v93q0 13 -10 20l-55 56q-3 3 -6 3q-4 0 -4 -8v-465q0 -20 -15 -34.5t-35 -14.5q-22 0 -35.5 14.5t-13.5 34.5v602q0 20 13.5 34.5t35.5 14.5q9 0 18.5 -3t16.5 -11l110 -111
q14 -12 29 -12q16 0 28 12l110 111q8 8 17.5 11t19.5 3q20 0 34.5 -14.5t14.5 -34.5v-602q0 -20 -14.5 -34.5t-34.5 -14.5q-21 0 -35.5 14.5t-14.5 34.5v465z" />
    <glyph glyph-name="n" unicode="n" 
d="M438 247q3 -5 5 -5t2 7v402q0 20 14.5 34.5t35.5 14.5q20 0 34.5 -14.5t14.5 -34.5v-602q0 -20 -14.5 -34.5t-34.5 -14.5q-14 0 -26 7t-17 18l-250 429q-2 5 -5 5q-2 0 -2 -7v-403q0 -20 -14.5 -34.5t-35.5 -14.5t-35 14.5t-14 34.5v602q0 20 14 34.5t35 14.5
q30 0 43 -25z" />
    <glyph glyph-name="o" unicode="o" 
d="M530 603q8 -8 11 -17t3 -18v-436q0 -9 -3 -18t-11 -17l-82 -82q-15 -15 -37 -15h-183q-21 0 -36 15l-83 82q-13 16 -13 35v436q0 19 13 35l83 82q15 15 36 15h183q22 0 37 -15zM436 145q9 8 9 21v368q0 14 -9 21l-37 37q-8 8 -20 8h-118q-12 0 -20 -8l-37 -37
q-9 -7 -9 -21v-368q0 -13 9 -21l37 -36q8 -9 20 -9h118q13 0 20 9z" />
    <glyph glyph-name="p" unicode="p" 
d="M195 49q0 -20 -14.5 -34.5t-35.5 -14.5t-35 14.5t-14 34.5v602q0 20 14 34.5t35 14.5h266q22 0 37 -15l82 -82q8 -8 11 -17t3 -18v-157q0 -22 -14 -36l-82 -82q-15 -15 -37 -15h-176q-17 0 -28.5 -11.5t-11.5 -27.5v-190zM379 378q12 0 20 8l37 37q9 8 9 21v90
q0 14 -9 21l-37 37q-8 8 -20 8h-144q-17 0 -28.5 -11t-11.5 -28v-144q0 -17 11.5 -28t28.5 -11h144z" />
    <glyph glyph-name="q" unicode="q" 
d="M229 0q-22 0 -37 15l-83 82q-13 13 -13 36v435q0 19 13 35l83 82q15 15 37 15h183q21 0 36 -15l82 -82q8 -8 11 -17t3 -18v-435q0 -22 -14 -36l-19 -19q-12 -10 -12 -29q0 -16 12 -27l19 -19q8 -8 11 -17.5t3 -18.5q0 -21 -14.5 -35.5t-34.5 -14.5q-10 0 -19.5 3
t-17.5 11l-59 60q-9 9 -20 9h-150zM436 145q9 8 9 21v368q0 14 -9 21l-37 37q-8 8 -20 8h-118q-12 0 -20 -8l-37 -37q-9 -7 -9 -21v-368q0 -13 9 -21l37 -36q8 -9 20 -9h118q13 0 20 9z" />
    <glyph glyph-name="r" unicode="r" 
d="M235 278q-17 0 -28.5 -11.5t-11.5 -27.5v-190q0 -20 -14.5 -34.5t-35.5 -14.5t-35 14.5t-14 34.5v602q0 20 14 34.5t35 14.5h246q21 0 37 -15l102 -102q14 -14 14 -36v-116q0 -21 -15 -36l-39 -39q-12 -12 -12 -28q0 -15 12 -29l40 -39q14 -14 14 -35v-176
q0 -20 -14.5 -34.5t-34.5 -14.5q-21 0 -35.5 14.5t-14.5 34.5v142q0 14 -9 21l-57 57q-7 9 -21 9h-123zM436 444q9 8 9 20v50q0 13 -9 20l-57 58q-8 8 -21 8h-123q-17 0 -28.5 -11t-11.5 -28v-144q0 -17 11.5 -28t28.5 -11h123q13 0 21 8z" />
    <glyph glyph-name="s" unicode="s" 
d="M445 534q0 14 -9 21l-37 37q-8 8 -20 8h-118q-12 0 -20 -8l-37 -37q-9 -7 -9 -21v-68q0 -12 9 -20l37 -38q9 -9 20 -9h151q10 0 19.5 -4t16.5 -10l82 -83q14 -14 14 -36v-134q0 -9 -3 -18t-11 -17l-82 -82q-15 -15 -36 -15h-184q-21 0 -36 15l-83 82q-13 16 -13 35v46
q0 20 14 34t35 14t35.5 -14t14.5 -34v-12q0 -13 9 -21l37 -36q8 -9 20 -9h118q13 0 20 9l37 36q9 8 9 21v67q0 13 -9 20l-37 38q-9 9 -20 9h-151q-10 0 -19.5 4t-16.5 10l-83 83q-13 13 -13 36v135q0 19 13 35l83 82q15 15 36 15h184q21 0 36 -15l82 -82q8 -8 11 -17t3 -18
v-45q0 -21 -14.5 -35.5t-34.5 -14.5q-21 0 -35.5 14.5t-14.5 35.5v11z" />
    <glyph glyph-name="t" unicode="t" 
d="M370 49q0 -20 -14.5 -34.5t-36.5 -14.5q-20 0 -34.5 14.5t-14.5 34.5v512q0 17 -11.5 28t-27.5 11h-86q-21 0 -35 15t-14 36q0 20 14 34.5t35 14.5h350q20 0 34.5 -14.5t14.5 -34.5q0 -21 -14.5 -36t-34.5 -15h-86q-17 0 -28 -11t-11 -28v-512z" />
    <glyph glyph-name="u" unicode="u" 
d="M195 166q0 -13 9 -21l37 -36q8 -9 20 -9h118q13 0 20 9l37 36q9 8 9 21v485q0 20 14.5 34.5t35.5 14.5q20 0 34.5 -14.5t14.5 -34.5v-519q0 -9 -3 -18t-11 -17l-82 -82q-15 -15 -37 -15h-183q-21 0 -36 15l-83 82q-13 16 -13 35v519q0 20 14 34.5t35 14.5t35.5 -14.5
t14.5 -34.5v-485z" />
    <glyph glyph-name="v" unicode="v" 
d="M445 651q0 20 14.5 34.5t35.5 14.5q20 0 34.5 -14.5t14.5 -34.5v-445q0 -22 -15 -36l-155 -156q-14 -14 -36 -14h-36q-22 0 -36 14l-156 156q-14 14 -14 36v445q0 20 14 34.5t35 14.5t35.5 -14.5t14.5 -34.5v-411q0 -13 9 -21l88 -89q5 -6 13 -9t15 -3t15 3t13 9l88 89
q9 8 9 21v411z" />
    <glyph glyph-name="w" unicode="w" 
d="M445 651q0 20 14.5 34.5t35.5 14.5q20 0 34.5 -14.5t14.5 -34.5v-514q0 -21 -14 -35l-87 -88q-14 -14 -36 -14q-21 0 -35 14l-52 53l-52 -53q-14 -14 -35 -14q-22 0 -36 14l-88 88q-13 13 -13 35v514q0 20 14 34.5t35 14.5t35.5 -14.5t14.5 -34.5v-480q0 -14 12 -24.5
t26 -10.5t25.5 10.5t11.5 24.5v179q0 21 14.5 35t35.5 14t35.5 -14t14.5 -35v-179q0 -14 11.5 -24.5t25.5 -10.5t26 10.5t12 24.5v480z" />
    <glyph glyph-name="x" unicode="x" 
d="M445 651q0 20 14.5 34.5t35.5 14.5q20 0 34.5 -14.5t14.5 -34.5v-145q0 -21 -15 -36l-91 -92q-13 -13 -13 -28t13 -28l91 -92q15 -15 15 -36v-145q0 -20 -14.5 -34.5t-34.5 -14.5q-21 0 -35.5 14.5t-14.5 34.5v112q0 14 -9 20l-88 88q-13 13 -29 13q-14 0 -27 -13
l-88 -88q-9 -6 -9 -20v-112q0 -20 -14.5 -34.5t-35.5 -14.5t-35 14.5t-14 34.5v145q0 10 4 19.5t10 16.5l92 92q13 13 13 28t-13 28l-92 92q-6 7 -10 16.5t-4 19.5v145q0 20 14 34.5t35 14.5t35.5 -14.5t14.5 -34.5v-112q0 -14 9 -20l87 -89q14 -12 28 -12q17 0 30 12l87 89
q9 6 9 20v112z" />
    <glyph glyph-name="y" unicode="y" 
d="M110 448q-14 14 -14 36v167q0 20 14 34.5t35 14.5t35.5 -14.5t14.5 -34.5v-133q0 -13 9 -21l88 -89q5 -6 13 -9t14 -3q19 0 29 12l88 89q9 8 9 21v133q0 20 14.5 34.5t35.5 14.5q20 0 34.5 -14.5t14.5 -34.5v-167q0 -22 -15 -36l-150 -151q-9 -7 -9 -21v-227
q0 -20 -14.5 -34.5t-36.5 -14.5q-20 0 -34.5 14.5t-14.5 34.5v227q0 14 -9 21z" />
    <glyph glyph-name="z" unicode="z" 
d="M436 537q9 8 9 21v3q0 17 -11.5 28t-28.5 11h-260q-21 0 -35 15t-14 36q0 20 14 34.5t35 14.5h350q20 0 34.5 -14.5t14.5 -34.5v-127q0 -9 -3 -18t-11 -17l-326 -326q-9 -7 -9 -21v-3q0 -17 11.5 -28t28.5 -11h260q20 0 34.5 -15t14.5 -36q0 -20 -14.5 -34.5t-34.5 -14.5
h-350q-21 0 -35 14.5t-14 34.5v127q0 19 13 35z" />
    <glyph glyph-name="braceleft" unicode="{" 
d="M324 302q14 -14 14 -36v-146q0 -12 9 -20l37 -37q8 -9 20 -9h32q20 0 34.5 -14t14.5 -35q0 -22 -14.5 -36.5t-34.5 -14.5h-65q-21 0 -36 15l-83 82q-13 16 -13 36v146q0 13 -9 20l-60 61q-8 7 -11 16.5t-3 18.5q0 22 14 36l60 60q9 9 9 20v147q0 20 13 36l83 82
q7 6 16.5 10t19.5 4h65q20 0 34.5 -14t14.5 -35t-14.5 -35.5t-34.5 -14.5h-32q-14 0 -20 -9l-37 -37q-9 -7 -9 -20v-147q0 -9 -3 -18.5t-11 -17.5l-41 -41q-3 -3 -3 -6t3 -6z" />
    <glyph glyph-name="bar" unicode="|" 
d="M270 724q0 20 14.5 34.5t34.5 14.5q22 0 36.5 -14.5t14.5 -34.5v-748q0 -20 -14.5 -34.5t-36.5 -14.5q-20 0 -34.5 14.5t-14.5 34.5v748z" />
    <glyph glyph-name="braceright" unicode="}" 
d="M358 343q4 4 4 6t-4 6l-42 41q-13 16 -13 36v147q0 13 -9 20l-37 37q-7 9 -20 9h-32q-20 0 -34.5 14.5t-14.5 35.5t14.5 35t34.5 14h65q10 0 19.5 -4t16.5 -10l82 -82q8 -8 11 -17.5t3 -18.5v-147q0 -12 9 -20l60 -60q14 -14 14 -36q0 -9 -3 -18.5t-11 -16.5l-60 -61
q-9 -7 -9 -20v-146q0 -9 -3 -18.5t-11 -17.5l-82 -82q-15 -15 -36 -15h-65q-20 0 -34.5 14.5t-14.5 36.5q0 21 14.5 35t34.5 14h32q13 0 20 9l37 37q9 8 9 20v146q0 23 13 36z" />
    <glyph glyph-name="asciitilde" unicode="~" 
d="M206 360v-55q0 -21 -15 -36t-36 -15q-19 0 -33.5 15t-14.5 36v79q0 7 3 15t10 15l47 48q6 5 14 9t17 4h78q9 0 18 -4t15 -9l48 -47q8 -8 10 -16t2 -15v-45l16 -16h35l14 16v57q0 20 14.5 35.5t35.5 15.5q20 0 34.5 -15.5t14.5 -35.5v-79q0 -8 -2.5 -16.5t-8.5 -14.5
l-49 -46q-5 -7 -14 -10.5t-17 -3.5h-79q-9 0 -18 3t-16 10l-47 47q-13 13 -13 31v43l-15 16h-33z" />
    <glyph glyph-name="exclamdown" unicode="&#xa1;" 
d="M340 700q21 0 35 -14.5t14 -34.5v-40q0 -20 -14 -34.5t-35 -14.5h-39q-21 0 -35.5 14.5t-14.5 34.5v40q0 20 14.5 34.5t35.5 14.5h39zM371 49q0 -20 -15 -34.5t-36 -14.5q-20 0 -34.5 14.5t-14.5 34.5v405q0 20 14.5 34.5t34.5 14.5q21 0 36 -14.5t15 -34.5v-405z" />
    <glyph glyph-name="cent" unicode="&#xa2;" 
d="M369 710q0 -10 10 -10h12q22 0 36 -14l102 -103q15 -15 15 -36v-63q0 -21 -14.5 -35.5t-34.5 -14.5q-21 0 -35.5 14.5t-14.5 35.5v30q0 13 -9 20l-57 58q-3 3 -7 3q-3 0 -3 -5v-480q0 -5 3 -5q4 0 7 4l57 57q9 8 9 20v30q0 21 14.5 35.5t35.5 14.5q20 0 34.5 -14.5
t14.5 -35.5v-63q0 -21 -15 -36l-102 -103q-14 -14 -36 -14h-12q-10 0 -10 -10v-14q0 -20 -14.5 -34.5t-36.5 -14.5q-20 0 -34.5 14.5t-14.5 34.5v14q0 10 -10 10h-11q-21 0 -36 15l-103 102q-13 13 -13 36v394q0 23 13 36l103 102q15 15 36 15h11q10 0 10 10v14
q0 20 14.5 34.5t34.5 14.5q22 0 36.5 -14.5t14.5 -34.5v-14zM269 590q0 5 -2 5q-3 0 -6 -3l-57 -58q-9 -7 -9 -20v-328q0 -12 9 -20l57 -57q3 -4 6 -4q2 0 2 5v480z" />
    <glyph glyph-name="sterling" unicode="&#xa3;" 
d="M445 534q0 15 -10 22l-35 35q-9 9 -21 9h-28q-13 0 -22 -9l-34 -35q-4 -4 -7 -10.5t-3 -11.5v-147q0 -9 10 -9h155q20 0 35 -14.5t15 -35.5t-15 -35.5t-35 -14.5h-155q-10 0 -10 -10v-159q0 -9 10 -9h200q20 0 34.5 -15t14.5 -36q0 -20 -14.5 -34.5t-34.5 -14.5h-350
q-21 0 -35 14.5t-14 34.5q0 21 14 36t35 15h31q9 0 9 9v159q0 10 -9 10h-31q-21 0 -35 14.5t-14 35.5t14 35.5t35 14.5h31q9 0 9 9v181q0 9 3 18t11 17l83 82q15 15 35 15h95q21 0 36 -15l82 -82q8 -8 11 -17t3 -18v-45q0 -21 -14.5 -35.5t-34.5 -14.5q-21 0 -35.5 14.5
t-14.5 35.5v11z" />
    <glyph glyph-name="currency" unicode="&#xa4;" 
d="M134 451q4 4 4 7t-4 6l-31 32q-8 8 -11 17.5t-3 18.5q0 21 14 35.5t35 14.5q10 0 19.5 -3t17.5 -11l31 -32q3 -3 6 -3t10 5q5 4 13.5 8t17.5 4h134q18 0 35 -14q5 -3 7 -3q5 0 6 3l31 32q8 8 17.5 11t19.5 3q20 0 34.5 -14.5t14.5 -35.5q0 -19 -14 -36l-31 -32
q-3 -3 -3 -6q0 -2 3 -7q14 -17 14 -34v-134q0 -21 -14 -35q-3 -3 -3 -6q0 -4 3 -7l31 -32q8 -8 11 -17t3 -18q0 -21 -14.5 -35.5t-34.5 -14.5q-10 0 -19.5 3t-17.5 11l-31 32q-4 4 -6 4t-7 -4q-8 -6 -16.5 -10t-18.5 -4h-134q-9 0 -17.5 4.5t-16.5 9.5q-4 3 -7 3t-6 -3
l-31 -32q-8 -8 -17.5 -11t-19.5 -3q-21 0 -35 14.5t-14 35.5q0 9 3 18.5t11 17.5l31 32q3 3 3 6t-3 6q-14 14 -14 35v134q0 20 14 34zM421 384q0 14 -10 21l-35 36q-7 10 -22 10h-67q-15 0 -22 -10l-35 -36q-10 -7 -10 -21v-68q0 -14 10 -21l35 -36q7 -10 22 -10h67
q15 0 22 10l35 36q10 7 10 21v68z" />
    <glyph glyph-name="yen" unicode="&#xa5;" 
d="M267 368q0 7 -6 11l-151 150q-14 17 -14 37v85q0 20 14 34.5t35 14.5t35.5 -14.5t14.5 -34.5v-52q0 -12 9 -20l88 -89q5 -6 13 -9t14 -3q19 0 29 12l88 89q9 8 9 20v52q0 20 14.5 34.5t35.5 14.5q20 0 34.5 -14.5t14.5 -34.5v-85q0 -22 -15 -37l-150 -150q-6 -4 -6 -11
q0 -5 7 -5h73q20 0 34.5 -14.5t14.5 -34.5q0 -22 -14.5 -36.5t-34.5 -14.5h-73q-10 0 -10 -10v-14q0 -10 10 -10h73q20 0 34.5 -14.5t14.5 -35.5t-14.5 -35.5t-34.5 -14.5h-73q-10 0 -10 -10v-70q0 -20 -14.5 -34.5t-36.5 -14.5q-20 0 -34.5 14.5t-14.5 34.5v70q0 10 -10 10
h-74q-20 0 -34.5 14.5t-14.5 35.5t14.5 35.5t34.5 14.5h74q10 0 10 10v14q0 10 -10 10h-74q-20 0 -34.5 14.5t-14.5 36.5q0 20 14.5 34.5t34.5 14.5h74q7 0 7 5z" />
    <glyph glyph-name="brokenbar" unicode="&#xa6;" 
d="M270 724q0 20 14.5 34.5t34.5 14.5q22 0 36.5 -14.5t14.5 -34.5v-283q0 -21 -14.5 -35.5t-36.5 -14.5q-20 0 -34.5 14.5t-14.5 35.5v283zM270 259q0 21 14.5 35.5t34.5 14.5q22 0 36.5 -14.5t14.5 -35.5v-283q0 -20 -14.5 -34.5t-36.5 -14.5q-20 0 -34.5 14.5t-14.5 34.5
v283z" />
    <glyph glyph-name="section" unicode="&#xa7;" 
d="M445 617q0 14 -9 21l-37 36q-7 9 -20 9h-118q-12 0 -20 -9l-37 -36q-9 -7 -9 -21v-24q0 -12 9 -20l37 -38q9 -9 20 -9h151q10 0 19.5 -3t16.5 -10l82 -83q8 -8 11 -17.5t3 -18.5v-89q0 -9 -3 -18.5t-11 -17.5l-49 -46l49 -48q14 -14 14 -36v-90q0 -8 -3 -17.5t-11 -17.5
l-82 -82q-15 -15 -36 -15h-184q-21 0 -36 15l-83 82q-13 16 -13 35v46q0 20 14 34t35 14t35.5 -14t14.5 -34v-12q0 -13 9 -21l37 -36q8 -9 20 -9h118q13 0 20 9l37 36q9 8 9 21v23q0 13 -9 20l-37 38q-9 9 -20 9h-151q-22 0 -36 13l-83 83q-13 13 -13 36v89q0 20 13 36
l49 46l-49 48q-13 13 -13 36v91q0 19 13 35l83 82q15 15 36 15h184q21 0 36 -15l82 -82q8 -8 11 -17.5t3 -17.5v-47q0 -20 -14.5 -34.5t-34.5 -14.5q-21 0 -35.5 14.5t-14.5 34.5v13zM241 281q8 -9 20 -9h118q13 0 20 9l37 36q9 8 9 21v22q0 14 -9 21l-37 37q-9 9 -20 9
h-118q-12 0 -20 -9l-37 -36q-9 -9 -9 -21v-23q0 -13 9 -21z" />
    <glyph glyph-name="dieresis" unicode="&#xa8;" 
d="M396 808q-20 0 -34.5 14.5t-14.5 35.5v19q0 21 14.5 35.5t34.5 14.5h20q21 0 35 -14.5t14 -35.5v-19q0 -21 -14 -35.5t-35 -14.5h-20zM224 808q-21 0 -35 14.5t-14 35.5v19q0 21 14 35.5t35 14.5h20q20 0 34.5 -14.5t14.5 -35.5v-19q0 -21 -14.5 -35.5t-34.5 -14.5h-20z
" />
    <glyph glyph-name="copyright" unicode="&#xa9;" 
d="M376 305q2 11 11.5 19t21.5 8q14 0 24 -9.5t10 -23.5v-22q0 -7 -3 -13t-7 -11l-53 -53q-10 -10 -24 -10h-72q-7 0 -13 3t-11 7l-53 52q-5 5 -7.5 12t-2.5 13v148q0 14 10 24l52 52q10 10 25 10h72q6 0 12.5 -2t11.5 -7l53 -53q4 -5 7 -10.5t3 -13.5v-22q0 -14 -10 -23.5
t-24 -9.5q-12 0 -21.5 8t-11.5 19q-3 18 -10 22l-15 16q-9 9 -22 9h-18q-13 0 -22 -9l-15 -16q-10 -7 -10 -21v-94q0 -15 10 -22l15 -15q7 -10 22 -10h18q15 0 22 10l15 15q7 7 10 23zM467 199q4 3 7 9.5t3 12.5v259q0 15 -10 22l-33 33q-4 4 -10.5 7t-11.5 3h-184
q-6 0 -12.5 -3t-9.5 -7l-33 -33q-4 -3 -7 -9.5t-3 -12.5v-259q0 -6 3 -12.5t7 -9.5l33 -33q3 -4 9.5 -7t12.5 -3h184q6 0 12.5 3t9.5 7zM535 529q9 -9 9 -22v-313q0 -13 -9 -22l-73 -73q-10 -10 -23 -10h-238q-14 0 -24 10l-72 73q-9 9 -9 22v313q0 13 9 22l72 74q9 9 24 9
h238q14 0 23 -9z" />
    <glyph glyph-name="guillemotleft" unicode="&#xab;" 
d="M258 534q7 7 16 10t18 3q20 0 36.5 -14.5t16.5 -35.5q0 -9 -3 -18t-11 -17l-86 -84q-13 -13 -13 -28t14 -29l83 -81q7 -7 10 -16.5t3 -19.5q0 -21 -13.5 -35.5t-34.5 -14.5q-10 0 -19.5 3t-17.5 11l-147 147q-13 13 -13 35q0 10 3.5 20t9.5 16zM456 534q7 7 16 10t18 3
q21 0 37 -14.5t16 -35.5q0 -9 -3 -18t-11 -17l-86 -84q-13 -13 -13 -28t14 -29l83 -81q7 -7 10 -16.5t3 -19.5q0 -21 -13 -35.5t-35 -14.5q-10 0 -19.5 3t-17.5 11l-146 147q-7 6 -10.5 15.5t-3.5 19.5t3.5 20t10.5 16z" />
    <glyph glyph-name="registered" unicode="&#xae;" 
d="M264 392q0 -9 7 -16t17 -7h28q15 0 22 10l28 27q4 3 4 7q0 2 -4 6l-15 16q-9 9 -22 9h-55q-10 0 -10 -10v-42zM288 302q-10 0 -17 -7t-7 -17v-54q0 -14 -9.5 -24t-23.5 -10t-24 10t-10 24v253q0 14 10 24t24 10h125q15 0 25 -10l52 -52q10 -10 10 -24v-24q0 -7 -3 -13
t-7 -11l-25 -25q-8 -8 -8 -17t7 -16l26 -25q10 -10 10 -24v-46q0 -14 -10 -24t-24 -10t-23.5 10t-9.5 24v20q0 13 -10 20l-28 29q-9 9 -22 9h-28zM467 199q4 3 7 9.5t3 12.5v259q0 15 -10 22l-33 33q-4 4 -10.5 7t-11.5 3h-184q-6 0 -12.5 -3t-9.5 -7l-33 -33q-4 -3 -7 -9.5
t-3 -12.5v-259q0 -6 3 -12.5t7 -9.5l33 -33q3 -4 9.5 -7t12.5 -3h184q6 0 12.5 3t9.5 7zM535 529q9 -9 9 -22v-313q0 -13 -9 -22l-73 -73q-10 -10 -23 -10h-238q-14 0 -24 10l-72 73q-9 9 -9 22v313q0 13 9 22l72 74q9 9 24 9h238q14 0 23 -9z" />
    <glyph glyph-name="macron" unicode="&#xaf;" 
d="M227 808q-21 0 -35 14.5t-14 35.5q0 20 14 35t35 15h186q21 0 35 -15t14 -35q0 -21 -14 -35.5t-35 -14.5h-186z" />
    <glyph glyph-name="degree" unicode="&#xb0;" 
d="M186 601q0 12 11 26l60 62q11 11 28 11h71q7 0 15 -2.5t13 -9.5v1l60 -61q5 -5 7.5 -12.5t2.5 -14.5v-72q0 -5 -2 -12.5t-8 -13.5l-60 -60q-5 -5 -13 -8t-15 -3h-71q-13 0 -27 11l-61 60q-6 6 -8.5 13.5t-2.5 12.5v72zM282 592q-10 -10 -10 -26t10 -26l13 -13
q11 -9 25 -9q16 0 26 9l13 13q10 10 10 26t-10 26l-13 12q-10 10 -26 10q-15 0 -25 -10z" />
    <glyph glyph-name="plusminus" unicode="&#xb1;" 
d="M454 398q20 0 34.5 -14t14.5 -35q0 -22 -14.5 -36t-34.5 -14h-44q-17 0 -28 -11.5t-11 -28.5v-44q0 -21 -14.5 -35t-36.5 -14q-20 0 -34.5 14t-14.5 35v44q0 17 -11.5 28.5t-27.5 11.5h-45q-20 0 -34.5 14t-14.5 36q0 21 14.5 35t34.5 14h45q16 0 27.5 11.5t11.5 28.5v44
q0 21 14.5 35t34.5 14q22 0 36.5 -14t14.5 -35v-44q0 -17 11 -28.5t28 -11.5h44zM476 100q21 0 35 -14.5t14 -35.5t-14 -35.5t-35 -14.5h-310q-21 0 -35.5 14.5t-14.5 35.5t14.5 35.5t35.5 14.5h310z" />
    <glyph glyph-name="acute" unicode="&#xb4;" 
d="M316 812q-8 -8 -17.5 -10.5t-18.5 -2.5q-21 0 -35.5 14t-14.5 35q0 20 15 35l79 81q8 8 17.5 11t18.5 3q20 0 35 -14.5t15 -34.5q0 -21 -15 -36z" />
    <glyph glyph-name="paragraph" unicode="&#xb6;" 
d="M445 591q0 9 -10 9h-40q-10 0 -10 -9v-542q0 -20 -14 -34.5t-35 -14.5q-20 0 -35 14.5t-15 34.5v190q0 16 -12.5 27.5t-27.5 11.5h-18q-21 0 -36 15l-83 83q-13 13 -13 35v157q0 19 13 35l83 82q15 15 36 15h267q20 0 34.5 -14.5t14.5 -34.5v-602q0 -20 -14.5 -34.5
t-34.5 -14.5q-21 0 -35.5 14.5t-14.5 34.5v542z" />
    <glyph glyph-name="periodcentered" unicode="&#xb7;" 
d="M296 276q-21 0 -35 14.5t-14 34.5v50q0 20 14 34.5t35 14.5h49q21 0 35 -14.5t14 -34.5v-50q0 -20 -14 -34.5t-35 -14.5h-49z" />
    <glyph glyph-name="cedilla" unicode="&#xb8;" 
d="M283 44q0 16 11 26.5t26 10.5q16 0 26.5 -10.5t10.5 -26.5v-55q0 -5 3 -11.5t7 -9.5l59 -60q9 -11 9 -22v-60q0 -6 -2 -12.5t-7 -11.5l-52 -51q-10 -10 -24 -10h-60q-14 0 -24 10l-26 26q-11 11 -11 27t11 26t26 10q7 0 14.5 -2t12.5 -7l6 -6q7 -10 21 -10q15 0 22 10
l9 8q10 7 10 22t-10 22l-56 56q-12 12 -12 30v81z" />
    <glyph glyph-name="guillemotright" unicode="&#xbb;" 
d="M529 386q7 -6 10.5 -16t3.5 -20t-3.5 -19.5t-10.5 -15.5l-146 -147q-8 -8 -17.5 -11t-19.5 -3q-22 0 -35 14.5t-13 35.5q0 10 3 19.5t10 16.5l83 81q14 14 14 29t-13 28l-86 84q-8 8 -11 17t-3 18q0 21 16 35.5t37 14.5q9 0 18 -3t16 -10zM331 386q7 -6 10.5 -16t3.5 -20
t-3.5 -19.5t-10.5 -15.5l-147 -147q-7 -8 -16.5 -11t-19.5 -3q-22 0 -35 14.5t-13 35.5q0 10 3 19.5t9 16.5l84 81q14 14 14 29t-13 28l-87 84q-13 16 -13 35q0 21 16 35.5t37 14.5q9 0 18 -3t15 -10z" />
    <glyph glyph-name="questiondown" unicode="&#xbf;" 
d="M96 196q0 23 13 36l152 152q9 6 9 20v50q0 20 14.5 34.5t34.5 14.5q22 0 36.5 -14.5t14.5 -34.5v-83q0 -22 -14 -36l-152 -152q-9 -7 -9 -20q0 -9 7 -16l39 -38q8 -9 20 -9h118q13 0 20 9l37 36q9 8 9 21v12q0 20 14.5 34.5t35.5 14.5q20 0 34.5 -14.5t14.5 -34.5v-46
q0 -9 -3 -18t-11 -17l-82 -82q-15 -15 -36 -15h-184q-21 0 -36 15l-83 83q-13 14 -13 34v64zM340 700q21 0 35 -14.5t14 -34.5v-40q0 -20 -14 -34.5t-35 -14.5h-39q-21 0 -35.5 14.5t-14.5 34.5v40q0 20 14.5 34.5t35.5 14.5h39z" />
    <glyph glyph-name="Agrave" unicode="&#xc0;" 
d="M244 893q-14 14 -14 36q0 20 14 34.5t35 14.5q10 0 19.5 -3t17.5 -11l79 -81q15 -15 15 -35q0 -21 -15 -35t-35 -14q-9 0 -18.5 2.5t-17.5 10.5zM544 49q0 -20 -14.5 -34.5t-34.5 -14.5q-21 0 -35.5 14.5t-14.5 34.5v190q0 16 -11.5 27.5t-28.5 11.5h-170
q-17 0 -28.5 -11.5t-11.5 -27.5v-190q0 -20 -14.5 -34.5t-35.5 -14.5t-35 14.5t-14 34.5v498q0 23 13 36l104 102q15 15 35 15h143q22 0 36 -14l102 -103q15 -15 15 -36v-498zM445 514q0 13 -9 20l-57 58q-8 8 -21 8h-76q-13 0 -21 -8l-57 -58q-9 -7 -9 -20v-97
q0 -17 11.5 -28t28.5 -11h170q17 0 28.5 11t11.5 28v97z" />
    <glyph glyph-name="Aacute" unicode="&#xc1;" 
d="M316 812q-8 -8 -17.5 -10.5t-18.5 -2.5q-21 0 -35.5 14t-14.5 35q0 20 15 35l79 81q8 8 17.5 11t18.5 3q20 0 35 -14.5t15 -34.5q0 -21 -15 -36zM544 49q0 -20 -14.5 -34.5t-34.5 -14.5q-21 0 -35.5 14.5t-14.5 34.5v190q0 16 -11.5 27.5t-28.5 11.5h-170
q-17 0 -28.5 -11.5t-11.5 -27.5v-190q0 -20 -14.5 -34.5t-35.5 -14.5t-35 14.5t-14 34.5v498q0 23 13 36l104 102q15 15 35 15h143q22 0 36 -14l102 -103q15 -15 15 -36v-498zM445 514q0 13 -9 20l-57 58q-8 8 -21 8h-76q-13 0 -21 -8l-57 -58q-9 -7 -9 -20v-97
q0 -17 11.5 -28t28.5 -11h170q17 0 28.5 11t11.5 28v97z" />
    <glyph glyph-name="Acircumflex" unicode="&#xc2;" 
d="M260 810q-13 -11 -31 -11q-19 0 -32 12t-13 31q0 20 13 32l92 91q13 13 31 13q19 0 32 -13l92 -91q7 -6 9 -14.5t2 -17.5q0 -43 -43 -43q-9 0 -17.5 2t-14.5 9l-36 36q-11 11 -24 11t-23 -10zM544 49q0 -20 -14.5 -34.5t-34.5 -14.5q-21 0 -35.5 14.5t-14.5 34.5v190
q0 16 -11.5 27.5t-28.5 11.5h-170q-17 0 -28.5 -11.5t-11.5 -27.5v-190q0 -20 -14.5 -34.5t-35.5 -14.5t-35 14.5t-14 34.5v498q0 23 13 36l104 102q15 15 35 15h143q22 0 36 -14l102 -103q15 -15 15 -36v-498zM445 514q0 13 -9 20l-57 58q-8 8 -21 8h-76q-13 0 -21 -8
l-57 -58q-9 -7 -9 -20v-97q0 -17 11.5 -28t28.5 -11h170q17 0 28.5 11t11.5 28v97z" />
    <glyph glyph-name="Atilde" unicode="&#xc3;" 
d="M242 894v-29q0 -18 -12.5 -30.5t-30.5 -12.5q-17 0 -29 12.5t-12 30.5v49q0 15 11 26l39 40q11 11 27 11h49q17 0 28 -11l39 -41q10 -10 10 -25v-20l13 -12h11l12 12v31q0 17 12.5 29t30.5 12q17 0 29 -12t12 -29v-50q0 -6 -2.5 -13.5t-7.5 -12.5l-40 -40
q-10 -10 -27 -10h-49q-17 0 -28 10l-39 40q-5 5 -7.5 12.5t-2.5 13.5v19l-13 13h-12zM544 49q0 -20 -14.5 -34.5t-34.5 -14.5q-21 0 -35.5 14.5t-14.5 34.5v190q0 16 -11.5 27.5t-28.5 11.5h-170q-17 0 -28.5 -11.5t-11.5 -27.5v-190q0 -20 -14.5 -34.5t-35.5 -14.5
t-35 14.5t-14 34.5v498q0 23 13 36l104 102q15 15 35 15h143q22 0 36 -14l102 -103q15 -15 15 -36v-498zM445 514q0 13 -9 20l-57 58q-8 8 -21 8h-76q-13 0 -21 -8l-57 -58q-9 -7 -9 -20v-97q0 -17 11.5 -28t28.5 -11h170q17 0 28.5 11t11.5 28v97z" />
    <glyph glyph-name="Adieresis" unicode="&#xc4;" 
d="M396 808q-20 0 -34.5 14.5t-14.5 35.5v19q0 21 14.5 35.5t34.5 14.5h20q21 0 35 -14.5t14 -35.5v-19q0 -21 -14 -35.5t-35 -14.5h-20zM224 808q-21 0 -35 14.5t-14 35.5v19q0 21 14 35.5t35 14.5h20q20 0 34.5 -14.5t14.5 -35.5v-19q0 -21 -14.5 -35.5t-34.5 -14.5h-20z
M544 49q0 -20 -14.5 -34.5t-34.5 -14.5q-21 0 -35.5 14.5t-14.5 34.5v190q0 16 -11.5 27.5t-28.5 11.5h-170q-17 0 -28.5 -11.5t-11.5 -27.5v-190q0 -20 -14.5 -34.5t-35.5 -14.5t-35 14.5t-14 34.5v498q0 23 13 36l104 102q15 15 35 15h143q22 0 36 -14l102 -103
q15 -15 15 -36v-498zM445 514q0 13 -9 20l-57 58q-8 8 -21 8h-76q-13 0 -21 -8l-57 -58q-9 -7 -9 -20v-97q0 -17 11.5 -28t28.5 -11h170q17 0 28.5 11t11.5 28v97z" />
    <glyph glyph-name="Aring" unicode="&#xc5;" 
d="M205 903q0 6 2 12.5t7 11.5l52 52q11 9 24 9h59q16 0 25 -9l51 -52q9 -10 9 -24v-60q0 -13 -9 -24l-51 -51q-9 -9 -25 -9h-59q-13 0 -24 9l-52 52q-9 11 -9 23v60zM288 894q-9 -7 -9 -21q0 -12 9 -20l11 -11q8 -9 20 -9q14 0 21 9l11 11q9 8 9 20q0 14 -9 21l-11 11
q-7 9 -21 9q-12 0 -20 -9zM544 49q0 -20 -14.5 -34.5t-34.5 -14.5q-21 0 -35.5 14.5t-14.5 34.5v190q0 16 -11.5 27.5t-28.5 11.5h-170q-17 0 -28.5 -11.5t-11.5 -27.5v-190q0 -20 -14.5 -34.5t-35.5 -14.5t-35 14.5t-14 34.5v498q0 23 13 36l104 102q15 15 35 15h143
q22 0 36 -14l102 -103q15 -15 15 -36v-498zM445 514q0 13 -9 20l-57 58q-8 8 -21 8h-76q-13 0 -21 -8l-57 -58q-9 -7 -9 -20v-97q0 -17 11.5 -28t28.5 -11h170q17 0 28.5 11t11.5 28v97z" />
    <glyph glyph-name="AE" unicode="&#xc6;" 
d="M270 592q0 8 -10 8q-12 0 -18 -8l-57 -57q-9 -7 -9 -21v-97q0 -17 11 -28t28 -11h45q10 0 10 9v205zM270 268q0 10 -10 10h-45q-17 0 -28 -11.5t-11 -27.5v-190q0 -20 -15 -34.5t-36 -14.5q-20 0 -34.5 14.5t-14.5 34.5v498q0 22 14 36l103 102q15 15 36 15h286
q20 0 34.5 -14.5t14.5 -34.5q0 -21 -14.5 -36t-34.5 -15h-106q-17 0 -28 -11t-11 -28v-121q0 -17 11 -29t28 -12h86q20 0 34.5 -14t14.5 -35t-14.5 -35.5t-34.5 -14.5h-86q-17 0 -28 -11.5t-11 -28.5v-121q0 -17 11 -28t28 -11h106q20 0 34.5 -15t14.5 -36
q0 -20 -14.5 -34.5t-34.5 -14.5h-196q-20 0 -34.5 14.5t-14.5 34.5v219z" />
    <glyph glyph-name="Ccedilla" unicode="&#xc7;" 
d="M196 186q0 -12 9 -20l57 -57q8 -9 21 -9h76q14 0 21 9l57 57q9 8 9 20v30q0 21 14.5 35.5t35.5 14.5q20 0 34.5 -14.5t14.5 -35.5v-63q0 -21 -15 -36l-102 -103q-14 -14 -36 -14h-34v-11q0 -5 3 -11.5t7 -9.5l59 -60q9 -11 9 -22v-60q0 -6 -2 -12.5t-7 -11.5l-52 -51
q-10 -10 -24 -10h-60q-14 0 -24 10l-26 26q-11 11 -11 27t11 26t26 10q7 0 14.5 -2t12.5 -7l6 -6q7 -10 21 -10q15 0 22 10l9 8q10 7 10 22t-10 22l-56 56q-12 12 -12 30v37h-35q-21 0 -36 15l-103 102q-13 13 -13 36v394q0 23 13 36l103 102q15 15 36 15h143q22 0 36 -14
l102 -103q15 -15 15 -36v-63q0 -21 -14.5 -35.5t-34.5 -14.5q-21 0 -35.5 14.5t-14.5 35.5v30q0 13 -9 20l-57 58q-8 8 -21 8h-76q-13 0 -21 -8l-57 -58q-9 -7 -9 -20v-328z" />
    <glyph glyph-name="Egrave" unicode="&#xc8;" 
d="M244 893q-14 14 -14 36q0 20 14 34.5t35 14.5q10 0 19.5 -3t17.5 -11l79 -81q15 -15 15 -35q0 -21 -15 -35t-35 -14q-9 0 -18.5 2.5t-17.5 10.5zM96 651q0 20 14 34.5t35 14.5h350q20 0 34.5 -14.5t14.5 -34.5q0 -21 -14.5 -36t-34.5 -15h-260q-17 0 -28.5 -11t-11.5 -28
v-121q0 -17 11.5 -29t28.5 -12h193q20 0 35 -14t15 -35t-15 -35.5t-35 -14.5h-193q-17 0 -28.5 -12t-11.5 -29v-120q0 -17 11.5 -28t28.5 -11h260q20 0 34.5 -15t14.5 -36q0 -20 -14.5 -34.5t-34.5 -14.5h-350q-21 0 -35 14.5t-14 34.5v602z" />
    <glyph glyph-name="Eacute" unicode="&#xc9;" 
d="M316 812q-8 -8 -17.5 -10.5t-18.5 -2.5q-21 0 -35.5 14t-14.5 35q0 20 15 35l79 81q8 8 17.5 11t18.5 3q20 0 35 -14.5t15 -34.5q0 -21 -15 -36zM96 651q0 20 14 34.5t35 14.5h350q20 0 34.5 -14.5t14.5 -34.5q0 -21 -14.5 -36t-34.5 -15h-260q-17 0 -28.5 -11t-11.5 -28
v-121q0 -17 11.5 -29t28.5 -12h193q20 0 35 -14t15 -35t-15 -35.5t-35 -14.5h-193q-17 0 -28.5 -12t-11.5 -29v-120q0 -17 11.5 -28t28.5 -11h260q20 0 34.5 -15t14.5 -36q0 -20 -14.5 -34.5t-34.5 -14.5h-350q-21 0 -35 14.5t-14 34.5v602z" />
    <glyph glyph-name="Ecircumflex" unicode="&#xca;" 
d="M260 810q-13 -11 -31 -11q-19 0 -32 12t-13 31q0 20 13 32l92 91q13 13 31 13q19 0 32 -13l92 -91q7 -6 9 -14.5t2 -17.5q0 -43 -43 -43q-9 0 -17.5 2t-14.5 9l-36 36q-11 11 -24 11t-23 -10zM96 651q0 20 14 34.5t35 14.5h350q20 0 34.5 -14.5t14.5 -34.5
q0 -21 -14.5 -36t-34.5 -15h-260q-17 0 -28.5 -11t-11.5 -28v-121q0 -17 11.5 -29t28.5 -12h193q20 0 35 -14t15 -35t-15 -35.5t-35 -14.5h-193q-17 0 -28.5 -12t-11.5 -29v-120q0 -17 11.5 -28t28.5 -11h260q20 0 34.5 -15t14.5 -36q0 -20 -14.5 -34.5t-34.5 -14.5h-350
q-21 0 -35 14.5t-14 34.5v602z" />
    <glyph glyph-name="Edieresis" unicode="&#xcb;" 
d="M396 808q-20 0 -34.5 14.5t-14.5 35.5v19q0 21 14.5 35.5t34.5 14.5h20q21 0 35 -14.5t14 -35.5v-19q0 -21 -14 -35.5t-35 -14.5h-20zM224 808q-21 0 -35 14.5t-14 35.5v19q0 21 14 35.5t35 14.5h20q20 0 34.5 -14.5t14.5 -35.5v-19q0 -21 -14.5 -35.5t-34.5 -14.5h-20z
M96 651q0 20 14 34.5t35 14.5h350q20 0 34.5 -14.5t14.5 -34.5q0 -21 -14.5 -36t-34.5 -15h-260q-17 0 -28.5 -11t-11.5 -28v-121q0 -17 11.5 -29t28.5 -12h193q20 0 35 -14t15 -35t-15 -35.5t-35 -14.5h-193q-17 0 -28.5 -12t-11.5 -29v-120q0 -17 11.5 -28t28.5 -11h260
q20 0 34.5 -15t14.5 -36q0 -20 -14.5 -34.5t-34.5 -14.5h-350q-21 0 -35 14.5t-14 34.5v602z" />
    <glyph glyph-name="Igrave" unicode="&#xcc;" 
d="M244 893q-14 14 -14 36q0 20 14 34.5t35 14.5q10 0 19.5 -3t17.5 -11l79 -81q15 -15 15 -35q0 -21 -15 -35t-35 -14q-9 0 -18.5 2.5t-17.5 10.5zM189 0q-20 0 -34.5 14.5t-14.5 34.5q0 21 14.5 36t34.5 15h42q16 0 27.5 11t11.5 28v422q0 17 -11.5 28t-27.5 11h-42
q-20 0 -34.5 15t-14.5 36q0 20 14.5 34.5t34.5 14.5h262q20 0 34.5 -14.5t14.5 -34.5q0 -21 -14.5 -36t-34.5 -15h-42q-17 0 -28 -11t-11 -28v-422q0 -17 11 -28t28 -11h42q20 0 34.5 -15t14.5 -36q0 -20 -14.5 -34.5t-34.5 -14.5h-262z" />
    <glyph glyph-name="Iacute" unicode="&#xcd;" 
d="M316 812q-8 -8 -17.5 -10.5t-18.5 -2.5q-21 0 -35.5 14t-14.5 35q0 20 15 35l79 81q8 8 17.5 11t18.5 3q20 0 35 -14.5t15 -34.5q0 -21 -15 -36zM189 0q-20 0 -34.5 14.5t-14.5 34.5q0 21 14.5 36t34.5 15h42q16 0 27.5 11t11.5 28v422q0 17 -11.5 28t-27.5 11h-42
q-20 0 -34.5 15t-14.5 36q0 20 14.5 34.5t34.5 14.5h262q20 0 34.5 -14.5t14.5 -34.5q0 -21 -14.5 -36t-34.5 -15h-42q-17 0 -28 -11t-11 -28v-422q0 -17 11 -28t28 -11h42q20 0 34.5 -15t14.5 -36q0 -20 -14.5 -34.5t-34.5 -14.5h-262z" />
    <glyph glyph-name="Icircumflex" unicode="&#xce;" 
d="M260 810q-13 -11 -31 -11q-19 0 -32 12t-13 31q0 20 13 32l92 91q13 13 31 13q19 0 32 -13l92 -91q7 -6 9 -14.5t2 -17.5q0 -43 -43 -43q-9 0 -17.5 2t-14.5 9l-36 36q-11 11 -24 11t-23 -10zM189 0q-20 0 -34.5 14.5t-14.5 34.5q0 21 14.5 36t34.5 15h42q16 0 27.5 11
t11.5 28v422q0 17 -11.5 28t-27.5 11h-42q-20 0 -34.5 15t-14.5 36q0 20 14.5 34.5t34.5 14.5h262q20 0 34.5 -14.5t14.5 -34.5q0 -21 -14.5 -36t-34.5 -15h-42q-17 0 -28 -11t-11 -28v-422q0 -17 11 -28t28 -11h42q20 0 34.5 -15t14.5 -36q0 -20 -14.5 -34.5t-34.5 -14.5
h-262z" />
    <glyph glyph-name="Idieresis" unicode="&#xcf;" 
d="M396 808q-20 0 -34.5 14.5t-14.5 35.5v19q0 21 14.5 35.5t34.5 14.5h20q21 0 35 -14.5t14 -35.5v-19q0 -21 -14 -35.5t-35 -14.5h-20zM224 808q-21 0 -35 14.5t-14 35.5v19q0 21 14 35.5t35 14.5h20q20 0 34.5 -14.5t14.5 -35.5v-19q0 -21 -14.5 -35.5t-34.5 -14.5h-20z
M189 0q-20 0 -34.5 14.5t-14.5 34.5q0 21 14.5 36t34.5 15h42q16 0 27.5 11t11.5 28v422q0 17 -11.5 28t-27.5 11h-42q-20 0 -34.5 15t-14.5 36q0 20 14.5 34.5t34.5 14.5h262q20 0 34.5 -14.5t14.5 -34.5q0 -21 -14.5 -36t-34.5 -15h-42q-17 0 -28 -11t-11 -28v-422
q0 -17 11 -28t28 -11h42q20 0 34.5 -15t14.5 -36q0 -20 -14.5 -34.5t-34.5 -14.5h-262z" />
    <glyph glyph-name="Eth" unicode="&#xd0;" 
d="M96 651q0 20 14 34.5t35 14.5h246q22 0 36 -14l102 -103q15 -15 15 -36v-394q0 -21 -15 -36l-102 -103q-14 -14 -36 -14h-246q-21 0 -35 14.5t-14 34.5v242q0 10 -10 10h-10q-21 0 -35 14t-14 36q0 21 14 35t35 14h10q10 0 10 10v241zM195 139q0 -17 11.5 -28t28.5 -11
h123q14 0 21 9l57 57q9 8 9 20v328q0 13 -9 20l-57 58q-8 8 -21 8h-123q-17 0 -28.5 -11t-11.5 -28v-151q0 -10 10 -10h137q21 0 35 -14t14 -35q0 -22 -14 -36t-35 -14h-137q-10 0 -10 -10v-152z" />
    <glyph glyph-name="Ntilde" unicode="&#xd1;" 
d="M242 894v-29q0 -18 -12.5 -30.5t-30.5 -12.5q-17 0 -29 12.5t-12 30.5v49q0 15 11 26l39 40q11 11 27 11h49q17 0 28 -11l39 -41q10 -10 10 -25v-20l13 -12h11l12 12v31q0 17 12.5 29t30.5 12q17 0 29 -12t12 -29v-50q0 -6 -2.5 -13.5t-7.5 -12.5l-40 -40
q-10 -10 -27 -10h-49q-17 0 -28 10l-39 40q-5 5 -7.5 12.5t-2.5 13.5v19l-13 13h-12zM438 247q3 -5 5 -5t2 7v402q0 20 14.5 34.5t35.5 14.5q20 0 34.5 -14.5t14.5 -34.5v-602q0 -20 -14.5 -34.5t-34.5 -14.5q-14 0 -26 7t-17 18l-250 429q-2 5 -5 5q-2 0 -2 -7v-403
q0 -20 -14.5 -34.5t-35.5 -14.5t-35 14.5t-14 34.5v602q0 20 14 34.5t35 14.5q30 0 43 -25z" />
    <glyph glyph-name="Ograve" unicode="&#xd2;" 
d="M244 893q-14 14 -14 36q0 20 14 34.5t35 14.5q10 0 19.5 -3t17.5 -11l79 -81q15 -15 15 -35q0 -21 -15 -35t-35 -14q-9 0 -18.5 2.5t-17.5 10.5zM530 603q8 -8 11 -17t3 -18v-436q0 -9 -3 -18t-11 -17l-82 -82q-15 -15 -37 -15h-183q-21 0 -36 15l-83 82q-13 16 -13 35
v436q0 19 13 35l83 82q15 15 36 15h183q22 0 37 -15zM436 145q9 8 9 21v368q0 14 -9 21l-37 37q-8 8 -20 8h-118q-12 0 -20 -8l-37 -37q-9 -7 -9 -21v-368q0 -13 9 -21l37 -36q8 -9 20 -9h118q13 0 20 9z" />
    <glyph glyph-name="Oacute" unicode="&#xd3;" 
d="M316 812q-8 -8 -17.5 -10.5t-18.5 -2.5q-21 0 -35.5 14t-14.5 35q0 20 15 35l79 81q8 8 17.5 11t18.5 3q20 0 35 -14.5t15 -34.5q0 -21 -15 -36zM530 603q8 -8 11 -17t3 -18v-436q0 -9 -3 -18t-11 -17l-82 -82q-15 -15 -37 -15h-183q-21 0 -36 15l-83 82q-13 16 -13 35
v436q0 19 13 35l83 82q15 15 36 15h183q22 0 37 -15zM436 145q9 8 9 21v368q0 14 -9 21l-37 37q-8 8 -20 8h-118q-12 0 -20 -8l-37 -37q-9 -7 -9 -21v-368q0 -13 9 -21l37 -36q8 -9 20 -9h118q13 0 20 9z" />
    <glyph glyph-name="Ocircumflex" unicode="&#xd4;" 
d="M260 810q-13 -11 -31 -11q-19 0 -32 12t-13 31q0 20 13 32l92 91q13 13 31 13q19 0 32 -13l92 -91q7 -6 9 -14.5t2 -17.5q0 -43 -43 -43q-9 0 -17.5 2t-14.5 9l-36 36q-11 11 -24 11t-23 -10zM530 603q8 -8 11 -17t3 -18v-436q0 -9 -3 -18t-11 -17l-82 -82
q-15 -15 -37 -15h-183q-21 0 -36 15l-83 82q-13 16 -13 35v436q0 19 13 35l83 82q15 15 36 15h183q22 0 37 -15zM436 145q9 8 9 21v368q0 14 -9 21l-37 37q-8 8 -20 8h-118q-12 0 -20 -8l-37 -37q-9 -7 -9 -21v-368q0 -13 9 -21l37 -36q8 -9 20 -9h118q13 0 20 9z" />
    <glyph glyph-name="Otilde" unicode="&#xd5;" 
d="M242 894v-29q0 -18 -12.5 -30.5t-30.5 -12.5q-17 0 -29 12.5t-12 30.5v49q0 15 11 26l39 40q11 11 27 11h49q17 0 28 -11l39 -41q10 -10 10 -25v-20l13 -12h11l12 12v31q0 17 12.5 29t30.5 12q17 0 29 -12t12 -29v-50q0 -6 -2.5 -13.5t-7.5 -12.5l-40 -40
q-10 -10 -27 -10h-49q-17 0 -28 10l-39 40q-5 5 -7.5 12.5t-2.5 13.5v19l-13 13h-12zM530 603q8 -8 11 -17t3 -18v-436q0 -9 -3 -18t-11 -17l-82 -82q-15 -15 -37 -15h-183q-21 0 -36 15l-83 82q-13 16 -13 35v436q0 19 13 35l83 82q15 15 36 15h183q22 0 37 -15zM436 145
q9 8 9 21v368q0 14 -9 21l-37 37q-8 8 -20 8h-118q-12 0 -20 -8l-37 -37q-9 -7 -9 -21v-368q0 -13 9 -21l37 -36q8 -9 20 -9h118q13 0 20 9z" />
    <glyph glyph-name="Odieresis" unicode="&#xd6;" 
d="M396 808q-20 0 -34.5 14.5t-14.5 35.5v19q0 21 14.5 35.5t34.5 14.5h20q21 0 35 -14.5t14 -35.5v-19q0 -21 -14 -35.5t-35 -14.5h-20zM224 808q-21 0 -35 14.5t-14 35.5v19q0 21 14 35.5t35 14.5h20q20 0 34.5 -14.5t14.5 -35.5v-19q0 -21 -14.5 -35.5t-34.5 -14.5h-20z
M530 603q8 -8 11 -17t3 -18v-436q0 -9 -3 -18t-11 -17l-82 -82q-15 -15 -37 -15h-183q-21 0 -36 15l-83 82q-13 16 -13 35v436q0 19 13 35l83 82q15 15 36 15h183q22 0 37 -15zM436 145q9 8 9 21v368q0 14 -9 21l-37 37q-8 8 -20 8h-118q-12 0 -20 -8l-37 -37q-9 -7 -9 -21
v-368q0 -13 9 -21l37 -36q8 -9 20 -9h118q13 0 20 9z" />
    <glyph glyph-name="multiply" unicode="&#xd7;" 
d="M489 253q15 -13 15 -35v-1q0 -20 -15.5 -34.5t-34.5 -14.5q-20 0 -37 14l-69 69q-10 13 -27 13q-14 0 -27 -13l-70 -70q-17 -14 -36 -14q-20 0 -35 15.5t-15 35.5q0 9 3.5 18.5t10.5 15.5l70 70q13 13 13 28t-13 28l-70 70q-8 7 -11 16t-3 18q0 21 15 36t35 15
q19 0 36 -14l70 -70q12 -12 27 -12t27 12l70 70q17 14 36 14q20 0 35 -15t15 -35q0 -9 -3.5 -18.5t-11.5 -16.5l-69 -70q-12 -12 -12 -28t12 -28z" />
    <glyph glyph-name="Oslash" unicode="&#xd8;" 
d="M205 164q-6 -6 -6 -11q0 -3 2 -5l40 -39q9 -9 21 -9h117q12 0 21 9l36 35q4 4 7 10.5t3 11.5v222q0 8 -4 8q-3 0 -6 -3zM436 536q6 6 6 11q0 3 -2 5l-40 39q-9 9 -21 9h-117q-12 0 -21 -9l-36 -35q-4 -4 -7 -10.5t-3 -11.5v-222q0 -8 4 -8q3 0 6 3zM525 627q8 8 17.5 11
t19.5 3q21 0 35 -14.5t14 -34.5q0 -22 -14 -36l-42 -43q-10 -7 -10 -22v-358q0 -21 -15 -36l-82 -82q-15 -15 -36 -15h-183q-21 0 -36 15l-62 61q-4 4 -7 4q-2 0 -6 -4l-3 -3q-14 -14 -36 -14q-21 0 -35 14.5t-14 35.5q0 20 13 36l43 42q10 7 10 22v359q0 18 14 35l83 82
q15 15 36 15h183q21 0 36 -15l62 -61q4 -4 7 -4t6 4z" />
    <glyph glyph-name="Ugrave" unicode="&#xd9;" 
d="M244 893q-14 14 -14 36q0 20 14 34.5t35 14.5q10 0 19.5 -3t17.5 -11l79 -81q15 -15 15 -35q0 -21 -15 -35t-35 -14q-9 0 -18.5 2.5t-17.5 10.5zM195 166q0 -13 9 -21l37 -36q8 -9 20 -9h118q13 0 20 9l37 36q9 8 9 21v485q0 20 14.5 34.5t35.5 14.5q20 0 34.5 -14.5
t14.5 -34.5v-519q0 -9 -3 -18t-11 -17l-82 -82q-15 -15 -37 -15h-183q-21 0 -36 15l-83 82q-13 16 -13 35v519q0 20 14 34.5t35 14.5t35.5 -14.5t14.5 -34.5v-485z" />
    <glyph glyph-name="Uacute" unicode="&#xda;" 
d="M316 812q-8 -8 -17.5 -10.5t-18.5 -2.5q-21 0 -35.5 14t-14.5 35q0 20 15 35l79 81q8 8 17.5 11t18.5 3q20 0 35 -14.5t15 -34.5q0 -21 -15 -36zM195 166q0 -13 9 -21l37 -36q8 -9 20 -9h118q13 0 20 9l37 36q9 8 9 21v485q0 20 14.5 34.5t35.5 14.5q20 0 34.5 -14.5
t14.5 -34.5v-519q0 -9 -3 -18t-11 -17l-82 -82q-15 -15 -37 -15h-183q-21 0 -36 15l-83 82q-13 16 -13 35v519q0 20 14 34.5t35 14.5t35.5 -14.5t14.5 -34.5v-485z" />
    <glyph glyph-name="Ucircumflex" unicode="&#xdb;" 
d="M260 810q-13 -11 -31 -11q-19 0 -32 12t-13 31q0 20 13 32l92 91q13 13 31 13q19 0 32 -13l92 -91q7 -6 9 -14.5t2 -17.5q0 -43 -43 -43q-9 0 -17.5 2t-14.5 9l-36 36q-11 11 -24 11t-23 -10zM195 166q0 -13 9 -21l37 -36q8 -9 20 -9h118q13 0 20 9l37 36q9 8 9 21v485
q0 20 14.5 34.5t35.5 14.5q20 0 34.5 -14.5t14.5 -34.5v-519q0 -9 -3 -18t-11 -17l-82 -82q-15 -15 -37 -15h-183q-21 0 -36 15l-83 82q-13 16 -13 35v519q0 20 14 34.5t35 14.5t35.5 -14.5t14.5 -34.5v-485z" />
    <glyph glyph-name="Udieresis" unicode="&#xdc;" 
d="M396 808q-20 0 -34.5 14.5t-14.5 35.5v19q0 21 14.5 35.5t34.5 14.5h20q21 0 35 -14.5t14 -35.5v-19q0 -21 -14 -35.5t-35 -14.5h-20zM224 808q-21 0 -35 14.5t-14 35.5v19q0 21 14 35.5t35 14.5h20q20 0 34.5 -14.5t14.5 -35.5v-19q0 -21 -14.5 -35.5t-34.5 -14.5h-20z
M195 166q0 -13 9 -21l37 -36q8 -9 20 -9h118q13 0 20 9l37 36q9 8 9 21v485q0 20 14.5 34.5t35.5 14.5q20 0 34.5 -14.5t14.5 -34.5v-519q0 -9 -3 -18t-11 -17l-82 -82q-15 -15 -37 -15h-183q-21 0 -36 15l-83 82q-13 16 -13 35v519q0 20 14 34.5t35 14.5t35.5 -14.5
t14.5 -34.5v-485z" />
    <glyph glyph-name="Yacute" unicode="&#xdd;" 
d="M316 812q-8 -8 -17.5 -10.5t-18.5 -2.5q-21 0 -35.5 14t-14.5 35q0 20 15 35l79 81q8 8 17.5 11t18.5 3q20 0 35 -14.5t15 -34.5q0 -21 -15 -36zM110 448q-14 14 -14 36v167q0 20 14 34.5t35 14.5t35.5 -14.5t14.5 -34.5v-133q0 -13 9 -21l88 -89q5 -6 13 -9t14 -3
q19 0 29 12l88 89q9 8 9 21v133q0 20 14.5 34.5t35.5 14.5q20 0 34.5 -14.5t14.5 -34.5v-167q0 -22 -15 -36l-150 -151q-9 -7 -9 -21v-227q0 -20 -14.5 -34.5t-36.5 -14.5q-20 0 -34.5 14.5t-14.5 34.5v227q0 14 -9 21z" />
    <glyph glyph-name="Thorn" unicode="&#xde;" 
d="M445 415q0 14 -9 21l-57 57q-7 9 -21 9h-123q-17 0 -28.5 -11.5t-11.5 -28.5v-224q0 -17 11.5 -28.5t28.5 -11.5h123q14 0 21 9l57 57q9 8 9 21v130zM96 651q0 20 14 34.5t35 14.5q22 0 36 -14.5t14 -34.5v-10q0 -17 11.5 -28.5t28.5 -11.5h156q23 0 36 -13l102 -104
q15 -15 15 -35v-198q0 -20 -15 -35l-102 -104q-13 -13 -36 -13h-156q-17 0 -28.5 -11.5t-11.5 -28.5v-10q0 -20 -14 -34.5t-36 -14.5q-21 0 -35 14.5t-14 34.5v602z" />
    <glyph glyph-name="germandbls" unicode="&#xdf;" 
d="M196 -23q0 -21 -14.5 -35t-35.5 -14q-20 0 -34.5 14t-14.5 35v592q0 8 3 17.5t11 17.5l82 81q15 15 35 15h155q21 0 36 -15l82 -81q8 -8 11 -17.5t3 -17.5v-110q0 -22 -14 -36l-20 -19q-11 -11 -11 -28q0 -16 11 -27l48 -48q8 -8 11 -17t3 -18v-134q0 -9 -3 -18.5
t-11 -17.5l-82 -81q-15 -15 -35 -15h-126q-20 0 -34.5 14.5t-14.5 34.5q0 21 14.5 35.5t34.5 14.5h92q15 0 22 10l34 34q10 7 10 22v67q0 15 -10 22l-86 87q-15 15 -15 35q0 9 3.5 18.5t11.5 17.5l58 59q10 7 10 21v43q0 15 -10 22l-34 34q-7 10 -22 10h-88q-15 0 -22 -10
l-34 -34q-10 -7 -10 -22v-558z" />
    <glyph glyph-name="agrave" unicode="&#xe0;" 
d="M544 49q0 -20 -14.5 -34.5t-34.5 -14.5q-21 0 -35.5 14.5t-14.5 34.5v190q0 16 -11.5 27.5t-28.5 11.5h-170q-17 0 -28.5 -11.5t-11.5 -27.5v-190q0 -20 -14.5 -34.5t-35.5 -14.5t-35 14.5t-14 34.5v498q0 23 13 36l104 102q15 15 35 15h143q22 0 36 -14l102 -103
q15 -15 15 -36v-498zM445 514q0 13 -9 20l-57 58q-8 8 -21 8h-76q-13 0 -21 -8l-57 -58q-9 -7 -9 -20v-97q0 -17 11.5 -28t28.5 -11h170q17 0 28.5 11t11.5 28v97zM244 893q-14 14 -14 36q0 20 14 34.5t35 14.5q10 0 19.5 -3t17.5 -11l79 -81q15 -15 15 -35q0 -21 -15 -35
t-35 -14q-9 0 -18.5 2.5t-17.5 10.5z" />
    <glyph glyph-name="aacute" unicode="&#xe1;" 
d="M544 49q0 -20 -14.5 -34.5t-34.5 -14.5q-21 0 -35.5 14.5t-14.5 34.5v190q0 16 -11.5 27.5t-28.5 11.5h-170q-17 0 -28.5 -11.5t-11.5 -27.5v-190q0 -20 -14.5 -34.5t-35.5 -14.5t-35 14.5t-14 34.5v498q0 23 13 36l104 102q15 15 35 15h143q22 0 36 -14l102 -103
q15 -15 15 -36v-498zM445 514q0 13 -9 20l-57 58q-8 8 -21 8h-76q-13 0 -21 -8l-57 -58q-9 -7 -9 -20v-97q0 -17 11.5 -28t28.5 -11h170q17 0 28.5 11t11.5 28v97zM316 812q-8 -8 -17.5 -10.5t-18.5 -2.5q-21 0 -35.5 14t-14.5 35q0 20 15 35l79 81q8 8 17.5 11t18.5 3
q20 0 35 -14.5t15 -34.5q0 -21 -15 -36z" />
    <glyph glyph-name="acircumflex" unicode="&#xe2;" 
d="M544 49q0 -20 -14.5 -34.5t-34.5 -14.5q-21 0 -35.5 14.5t-14.5 34.5v190q0 16 -11.5 27.5t-28.5 11.5h-170q-17 0 -28.5 -11.5t-11.5 -27.5v-190q0 -20 -14.5 -34.5t-35.5 -14.5t-35 14.5t-14 34.5v498q0 23 13 36l104 102q15 15 35 15h143q22 0 36 -14l102 -103
q15 -15 15 -36v-498zM445 514q0 13 -9 20l-57 58q-8 8 -21 8h-76q-13 0 -21 -8l-57 -58q-9 -7 -9 -20v-97q0 -17 11.5 -28t28.5 -11h170q17 0 28.5 11t11.5 28v97zM260 810q-13 -11 -31 -11q-19 0 -32 12t-13 31q0 20 13 32l92 91q13 13 31 13q19 0 32 -13l92 -91
q7 -6 9 -14.5t2 -17.5q0 -43 -43 -43q-9 0 -17.5 2t-14.5 9l-36 36q-11 11 -24 11t-23 -10z" />
    <glyph glyph-name="atilde" unicode="&#xe3;" 
d="M544 49q0 -20 -14.5 -34.5t-34.5 -14.5q-21 0 -35.5 14.5t-14.5 34.5v190q0 16 -11.5 27.5t-28.5 11.5h-170q-17 0 -28.5 -11.5t-11.5 -27.5v-190q0 -20 -14.5 -34.5t-35.5 -14.5t-35 14.5t-14 34.5v498q0 23 13 36l104 102q15 15 35 15h143q22 0 36 -14l102 -103
q15 -15 15 -36v-498zM445 514q0 13 -9 20l-57 58q-8 8 -21 8h-76q-13 0 -21 -8l-57 -58q-9 -7 -9 -20v-97q0 -17 11.5 -28t28.5 -11h170q17 0 28.5 11t11.5 28v97zM242 894v-29q0 -18 -12.5 -30.5t-30.5 -12.5q-17 0 -29 12.5t-12 30.5v49q0 15 11 26l39 40q11 11 27 11h49
q17 0 28 -11l39 -41q10 -10 10 -25v-20l13 -12h11l12 12v31q0 17 12.5 29t30.5 12q17 0 29 -12t12 -29v-50q0 -6 -2.5 -13.5t-7.5 -12.5l-40 -40q-10 -10 -27 -10h-49q-17 0 -28 10l-39 40q-5 5 -7.5 12.5t-2.5 13.5v19l-13 13h-12z" />
    <glyph glyph-name="adieresis" unicode="&#xe4;" 
d="M544 49q0 -20 -14.5 -34.5t-34.5 -14.5q-21 0 -35.5 14.5t-14.5 34.5v190q0 16 -11.5 27.5t-28.5 11.5h-170q-17 0 -28.5 -11.5t-11.5 -27.5v-190q0 -20 -14.5 -34.5t-35.5 -14.5t-35 14.5t-14 34.5v498q0 23 13 36l104 102q15 15 35 15h143q22 0 36 -14l102 -103
q15 -15 15 -36v-498zM445 514q0 13 -9 20l-57 58q-8 8 -21 8h-76q-13 0 -21 -8l-57 -58q-9 -7 -9 -20v-97q0 -17 11.5 -28t28.5 -11h170q17 0 28.5 11t11.5 28v97zM396 808q-20 0 -34.5 14.5t-14.5 35.5v19q0 21 14.5 35.5t34.5 14.5h20q21 0 35 -14.5t14 -35.5v-19
q0 -21 -14 -35.5t-35 -14.5h-20zM224 808q-21 0 -35 14.5t-14 35.5v19q0 21 14 35.5t35 14.5h20q20 0 34.5 -14.5t14.5 -35.5v-19q0 -21 -14.5 -35.5t-34.5 -14.5h-20z" />
    <glyph glyph-name="aring" unicode="&#xe5;" 
d="M544 49q0 -20 -14.5 -34.5t-34.5 -14.5q-21 0 -35.5 14.5t-14.5 34.5v190q0 16 -11.5 27.5t-28.5 11.5h-170q-17 0 -28.5 -11.5t-11.5 -27.5v-190q0 -20 -14.5 -34.5t-35.5 -14.5t-35 14.5t-14 34.5v498q0 23 13 36l104 102q15 15 35 15h143q22 0 36 -14l102 -103
q15 -15 15 -36v-498zM445 514q0 13 -9 20l-57 58q-8 8 -21 8h-76q-13 0 -21 -8l-57 -58q-9 -7 -9 -20v-97q0 -17 11.5 -28t28.5 -11h170q17 0 28.5 11t11.5 28v97zM205 903q0 6 2 12.5t7 11.5l52 52q11 9 24 9h59q16 0 25 -9l51 -52q9 -10 9 -24v-60q0 -13 -9 -24l-51 -51
q-9 -9 -25 -9h-59q-13 0 -24 9l-52 52q-9 11 -9 23v60zM288 894q-9 -7 -9 -21q0 -12 9 -20l11 -11q8 -9 20 -9q14 0 21 9l11 11q9 8 9 20q0 14 -9 21l-11 11q-7 9 -21 9q-12 0 -20 -9z" />
    <glyph glyph-name="ae" unicode="&#xe6;" 
d="M270 592q0 8 -10 8q-12 0 -18 -8l-57 -57q-9 -7 -9 -21v-97q0 -17 11 -28t28 -11h45q10 0 10 9v205zM270 268q0 10 -10 10h-45q-17 0 -28 -11.5t-11 -27.5v-190q0 -20 -15 -34.5t-36 -14.5q-20 0 -34.5 14.5t-14.5 34.5v498q0 22 14 36l103 102q15 15 36 15h286
q20 0 34.5 -14.5t14.5 -34.5q0 -21 -14.5 -36t-34.5 -15h-106q-17 0 -28 -11t-11 -28v-121q0 -17 11 -29t28 -12h86q20 0 34.5 -14t14.5 -35t-14.5 -35.5t-34.5 -14.5h-86q-17 0 -28 -11.5t-11 -28.5v-121q0 -17 11 -28t28 -11h106q20 0 34.5 -15t14.5 -36
q0 -20 -14.5 -34.5t-34.5 -14.5h-196q-20 0 -34.5 14.5t-14.5 34.5v219z" />
    <glyph glyph-name="ccedilla" unicode="&#xe7;" 
d="M196 186q0 -12 9 -20l57 -57q8 -9 21 -9h76q14 0 21 9l57 57q9 8 9 20v30q0 21 14.5 35.5t35.5 14.5q20 0 34.5 -14.5t14.5 -35.5v-63q0 -21 -15 -36l-102 -103q-14 -14 -36 -14h-34v-11q0 -5 3 -11.5t7 -9.5l59 -60q9 -11 9 -22v-60q0 -6 -2 -12.5t-7 -11.5l-52 -51
q-10 -10 -24 -10h-60q-14 0 -24 10l-26 26q-11 11 -11 27t11 26t26 10q7 0 14.5 -2t12.5 -7l6 -6q7 -10 21 -10q15 0 22 10l9 8q10 7 10 22t-10 22l-56 56q-12 12 -12 30v37h-35q-21 0 -36 15l-103 102q-13 13 -13 36v394q0 23 13 36l103 102q15 15 36 15h143q22 0 36 -14
l102 -103q15 -15 15 -36v-63q0 -21 -14.5 -35.5t-34.5 -14.5q-21 0 -35.5 14.5t-14.5 35.5v30q0 13 -9 20l-57 58q-8 8 -21 8h-76q-13 0 -21 -8l-57 -58q-9 -7 -9 -20v-328z" />
    <glyph glyph-name="egrave" unicode="&#xe8;" 
d="M96 651q0 20 14 34.5t35 14.5h350q20 0 34.5 -14.5t14.5 -34.5q0 -21 -14.5 -36t-34.5 -15h-260q-17 0 -28.5 -11t-11.5 -28v-121q0 -17 11.5 -29t28.5 -12h193q20 0 35 -14t15 -35t-15 -35.5t-35 -14.5h-193q-17 0 -28.5 -12t-11.5 -29v-120q0 -17 11.5 -28t28.5 -11
h260q20 0 34.5 -15t14.5 -36q0 -20 -14.5 -34.5t-34.5 -14.5h-350q-21 0 -35 14.5t-14 34.5v602zM244 893q-14 14 -14 36q0 20 14 34.5t35 14.5q10 0 19.5 -3t17.5 -11l79 -81q15 -15 15 -35q0 -21 -15 -35t-35 -14q-9 0 -18.5 2.5t-17.5 10.5z" />
    <glyph glyph-name="eacute" unicode="&#xe9;" 
d="M96 651q0 20 14 34.5t35 14.5h350q20 0 34.5 -14.5t14.5 -34.5q0 -21 -14.5 -36t-34.5 -15h-260q-17 0 -28.5 -11t-11.5 -28v-121q0 -17 11.5 -29t28.5 -12h193q20 0 35 -14t15 -35t-15 -35.5t-35 -14.5h-193q-17 0 -28.5 -12t-11.5 -29v-120q0 -17 11.5 -28t28.5 -11
h260q20 0 34.5 -15t14.5 -36q0 -20 -14.5 -34.5t-34.5 -14.5h-350q-21 0 -35 14.5t-14 34.5v602zM316 812q-8 -8 -17.5 -10.5t-18.5 -2.5q-21 0 -35.5 14t-14.5 35q0 20 15 35l79 81q8 8 17.5 11t18.5 3q20 0 35 -14.5t15 -34.5q0 -21 -15 -36z" />
    <glyph glyph-name="ecircumflex" unicode="&#xea;" 
d="M96 651q0 20 14 34.5t35 14.5h350q20 0 34.5 -14.5t14.5 -34.5q0 -21 -14.5 -36t-34.5 -15h-260q-17 0 -28.5 -11t-11.5 -28v-121q0 -17 11.5 -29t28.5 -12h193q20 0 35 -14t15 -35t-15 -35.5t-35 -14.5h-193q-17 0 -28.5 -12t-11.5 -29v-120q0 -17 11.5 -28t28.5 -11
h260q20 0 34.5 -15t14.5 -36q0 -20 -14.5 -34.5t-34.5 -14.5h-350q-21 0 -35 14.5t-14 34.5v602zM260 810q-13 -11 -31 -11q-19 0 -32 12t-13 31q0 20 13 32l92 91q13 13 31 13q19 0 32 -13l92 -91q7 -6 9 -14.5t2 -17.5q0 -43 -43 -43q-9 0 -17.5 2t-14.5 9l-36 36
q-11 11 -24 11t-23 -10z" />
    <glyph glyph-name="edieresis" unicode="&#xeb;" 
d="M96 651q0 20 14 34.5t35 14.5h350q20 0 34.5 -14.5t14.5 -34.5q0 -21 -14.5 -36t-34.5 -15h-260q-17 0 -28.5 -11t-11.5 -28v-121q0 -17 11.5 -29t28.5 -12h193q20 0 35 -14t15 -35t-15 -35.5t-35 -14.5h-193q-17 0 -28.5 -12t-11.5 -29v-120q0 -17 11.5 -28t28.5 -11
h260q20 0 34.5 -15t14.5 -36q0 -20 -14.5 -34.5t-34.5 -14.5h-350q-21 0 -35 14.5t-14 34.5v602zM396 808q-20 0 -34.5 14.5t-14.5 35.5v19q0 21 14.5 35.5t34.5 14.5h20q21 0 35 -14.5t14 -35.5v-19q0 -21 -14 -35.5t-35 -14.5h-20zM224 808q-21 0 -35 14.5t-14 35.5v19
q0 21 14 35.5t35 14.5h20q20 0 34.5 -14.5t14.5 -35.5v-19q0 -21 -14.5 -35.5t-34.5 -14.5h-20z" />
    <glyph glyph-name="igrave" unicode="&#xec;" 
d="M244 893q-14 14 -14 36q0 20 14 34.5t35 14.5q10 0 19.5 -3t17.5 -11l79 -81q15 -15 15 -35q0 -21 -15 -35t-35 -14q-9 0 -18.5 2.5t-17.5 10.5zM189 0q-20 0 -34.5 14.5t-14.5 34.5q0 21 14.5 35.5t34.5 14.5h41q17 0 28.5 11.5t11.5 27.5v420q0 16 -11.5 27.5
t-28.5 11.5h-41q-20 0 -34.5 14.5t-14.5 35.5q0 20 14.5 34.5t34.5 14.5h260q20 0 34.5 -14.5t14.5 -34.5q0 -21 -14.5 -35.5t-34.5 -14.5h-41q-17 0 -28 -11.5t-11 -27.5v-420q0 -16 11 -27.5t28 -11.5h41q20 0 34.5 -14.5t14.5 -35.5q0 -20 -14.5 -34.5t-34.5 -14.5h-260z
" />
    <glyph glyph-name="iacute" unicode="&#xed;" 
d="M316 812q-8 -8 -17.5 -10.5t-18.5 -2.5q-21 0 -35.5 14t-14.5 35q0 20 15 35l79 81q8 8 17.5 11t18.5 3q20 0 35 -14.5t15 -34.5q0 -21 -15 -36zM189 0q-20 0 -34.5 14.5t-14.5 34.5q0 21 14.5 35.5t34.5 14.5h41q17 0 28.5 11.5t11.5 27.5v420q0 16 -11.5 27.5
t-28.5 11.5h-41q-20 0 -34.5 14.5t-14.5 35.5q0 20 14.5 34.5t34.5 14.5h260q20 0 34.5 -14.5t14.5 -34.5q0 -21 -14.5 -35.5t-34.5 -14.5h-41q-17 0 -28 -11.5t-11 -27.5v-420q0 -16 11 -27.5t28 -11.5h41q20 0 34.5 -14.5t14.5 -35.5q0 -20 -14.5 -34.5t-34.5 -14.5h-260z
" />
    <glyph glyph-name="icircumflex" unicode="&#xee;" 
d="M260 810q-13 -11 -31 -11q-19 0 -32 12t-13 31q0 20 13 32l92 91q13 13 31 13q19 0 32 -13l92 -91q7 -6 9 -14.5t2 -17.5q0 -43 -43 -43q-9 0 -17.5 2t-14.5 9l-36 36q-11 11 -24 11t-23 -10zM189 0q-20 0 -34.5 14.5t-14.5 34.5q0 21 14.5 35.5t34.5 14.5h41
q17 0 28.5 11.5t11.5 27.5v420q0 16 -11.5 27.5t-28.5 11.5h-41q-20 0 -34.5 14.5t-14.5 35.5q0 20 14.5 34.5t34.5 14.5h260q20 0 34.5 -14.5t14.5 -34.5q0 -21 -14.5 -35.5t-34.5 -14.5h-41q-17 0 -28 -11.5t-11 -27.5v-420q0 -16 11 -27.5t28 -11.5h41q20 0 34.5 -14.5
t14.5 -35.5q0 -20 -14.5 -34.5t-34.5 -14.5h-260z" />
    <glyph glyph-name="idieresis" unicode="&#xef;" 
d="M396 808q-20 0 -34.5 14.5t-14.5 35.5v19q0 21 14.5 35.5t34.5 14.5h20q21 0 35 -14.5t14 -35.5v-19q0 -21 -14 -35.5t-35 -14.5h-20zM224 808q-21 0 -35 14.5t-14 35.5v19q0 21 14 35.5t35 14.5h20q20 0 34.5 -14.5t14.5 -35.5v-19q0 -21 -14.5 -35.5t-34.5 -14.5h-20z
M189 0q-20 0 -34.5 14.5t-14.5 34.5q0 21 14.5 35.5t34.5 14.5h41q17 0 28.5 11.5t11.5 27.5v420q0 16 -11.5 27.5t-28.5 11.5h-41q-20 0 -34.5 14.5t-14.5 35.5q0 20 14.5 34.5t34.5 14.5h260q20 0 34.5 -14.5t14.5 -34.5q0 -21 -14.5 -35.5t-34.5 -14.5h-41
q-17 0 -28 -11.5t-11 -27.5v-420q0 -16 11 -27.5t28 -11.5h41q20 0 34.5 -14.5t14.5 -35.5q0 -20 -14.5 -34.5t-34.5 -14.5h-260z" />
    <glyph glyph-name="eth" unicode="&#xf0;" 
d="M96 651q0 20 14 34.5t35 14.5h246q22 0 36 -14l102 -103q15 -15 15 -36v-394q0 -21 -15 -36l-102 -103q-14 -14 -36 -14h-246q-21 0 -35 14.5t-14 34.5v242q0 10 -10 10h-10q-21 0 -35 14t-14 36q0 21 14 35t35 14h10q10 0 10 10v241zM195 139q0 -17 11.5 -28t28.5 -11
h123q14 0 21 9l57 57q9 8 9 20v328q0 13 -9 20l-57 58q-8 8 -21 8h-123q-17 0 -28.5 -11t-11.5 -28v-151q0 -10 10 -10h137q21 0 35 -14t14 -35q0 -22 -14 -36t-35 -14h-137q-10 0 -10 -10v-152z" />
    <glyph glyph-name="ntilde" unicode="&#xf1;" 
d="M438 247q3 -5 5 -5t2 7v402q0 20 14.5 34.5t35.5 14.5q20 0 34.5 -14.5t14.5 -34.5v-602q0 -20 -14.5 -34.5t-34.5 -14.5q-14 0 -26 7t-17 18l-250 429q-2 5 -5 5q-2 0 -2 -7v-403q0 -20 -14.5 -34.5t-35.5 -14.5t-35 14.5t-14 34.5v602q0 20 14 34.5t35 14.5
q30 0 43 -25zM242 894v-29q0 -18 -12.5 -30.5t-30.5 -12.5q-17 0 -29 12.5t-12 30.5v49q0 15 11 26l39 40q11 11 27 11h49q17 0 28 -11l39 -41q10 -10 10 -25v-20l13 -12h11l12 12v31q0 17 12.5 29t30.5 12q17 0 29 -12t12 -29v-50q0 -6 -2.5 -13.5t-7.5 -12.5l-40 -40
q-10 -10 -27 -10h-49q-17 0 -28 10l-39 40q-5 5 -7.5 12.5t-2.5 13.5v19l-13 13h-12z" />
    <glyph glyph-name="ograve" unicode="&#xf2;" 
d="M530 603q8 -8 11 -17t3 -18v-436q0 -9 -3 -18t-11 -17l-82 -82q-15 -15 -37 -15h-183q-21 0 -36 15l-83 82q-13 16 -13 35v436q0 19 13 35l83 82q15 15 36 15h183q22 0 37 -15zM436 145q9 8 9 21v368q0 14 -9 21l-37 37q-8 8 -20 8h-118q-12 0 -20 -8l-37 -37
q-9 -7 -9 -21v-368q0 -13 9 -21l37 -36q8 -9 20 -9h118q13 0 20 9zM244 893q-14 14 -14 36q0 20 14 34.5t35 14.5q10 0 19.5 -3t17.5 -11l79 -81q15 -15 15 -35q0 -21 -15 -35t-35 -14q-9 0 -18.5 2.5t-17.5 10.5z" />
    <glyph glyph-name="oacute" unicode="&#xf3;" 
d="M530 603q8 -8 11 -17t3 -18v-436q0 -9 -3 -18t-11 -17l-82 -82q-15 -15 -37 -15h-183q-21 0 -36 15l-83 82q-13 16 -13 35v436q0 19 13 35l83 82q15 15 36 15h183q22 0 37 -15zM436 145q9 8 9 21v368q0 14 -9 21l-37 37q-8 8 -20 8h-118q-12 0 -20 -8l-37 -37
q-9 -7 -9 -21v-368q0 -13 9 -21l37 -36q8 -9 20 -9h118q13 0 20 9zM316 812q-8 -8 -17.5 -10.5t-18.5 -2.5q-21 0 -35.5 14t-14.5 35q0 20 15 35l79 81q8 8 17.5 11t18.5 3q20 0 35 -14.5t15 -34.5q0 -21 -15 -36z" />
    <glyph glyph-name="ocircumflex" unicode="&#xf4;" 
d="M530 603q8 -8 11 -17t3 -18v-436q0 -9 -3 -18t-11 -17l-82 -82q-15 -15 -37 -15h-183q-21 0 -36 15l-83 82q-13 16 -13 35v436q0 19 13 35l83 82q15 15 36 15h183q22 0 37 -15zM436 145q9 8 9 21v368q0 14 -9 21l-37 37q-8 8 -20 8h-118q-12 0 -20 -8l-37 -37
q-9 -7 -9 -21v-368q0 -13 9 -21l37 -36q8 -9 20 -9h118q13 0 20 9zM260 810q-13 -11 -31 -11q-19 0 -32 12t-13 31q0 20 13 32l92 91q13 13 31 13q19 0 32 -13l92 -91q7 -6 9 -14.5t2 -17.5q0 -43 -43 -43q-9 0 -17.5 2t-14.5 9l-36 36q-11 11 -24 11t-23 -10z" />
    <glyph glyph-name="otilde" unicode="&#xf5;" 
d="M530 603q8 -8 11 -17t3 -18v-436q0 -9 -3 -18t-11 -17l-82 -82q-15 -15 -37 -15h-183q-21 0 -36 15l-83 82q-13 16 -13 35v436q0 19 13 35l83 82q15 15 36 15h183q22 0 37 -15zM436 145q9 8 9 21v368q0 14 -9 21l-37 37q-8 8 -20 8h-118q-12 0 -20 -8l-37 -37
q-9 -7 -9 -21v-368q0 -13 9 -21l37 -36q8 -9 20 -9h118q13 0 20 9zM242 894v-29q0 -18 -12.5 -30.5t-30.5 -12.5q-17 0 -29 12.5t-12 30.5v49q0 15 11 26l39 40q11 11 27 11h49q17 0 28 -11l39 -41q10 -10 10 -25v-20l13 -12h11l12 12v31q0 17 12.5 29t30.5 12q17 0 29 -12
t12 -29v-50q0 -6 -2.5 -13.5t-7.5 -12.5l-40 -40q-10 -10 -27 -10h-49q-17 0 -28 10l-39 40q-5 5 -7.5 12.5t-2.5 13.5v19l-13 13h-12z" />
    <glyph glyph-name="odieresis" unicode="&#xf6;" 
d="M530 603q8 -8 11 -17t3 -18v-436q0 -9 -3 -18t-11 -17l-82 -82q-15 -15 -37 -15h-183q-21 0 -36 15l-83 82q-13 16 -13 35v436q0 19 13 35l83 82q15 15 36 15h183q22 0 37 -15zM436 145q9 8 9 21v368q0 14 -9 21l-37 37q-8 8 -20 8h-118q-12 0 -20 -8l-37 -37
q-9 -7 -9 -21v-368q0 -13 9 -21l37 -36q8 -9 20 -9h118q13 0 20 9zM396 808q-20 0 -34.5 14.5t-14.5 35.5v19q0 21 14.5 35.5t34.5 14.5h20q21 0 35 -14.5t14 -35.5v-19q0 -21 -14 -35.5t-35 -14.5h-20zM224 808q-21 0 -35 14.5t-14 35.5v19q0 21 14 35.5t35 14.5h20
q20 0 34.5 -14.5t14.5 -35.5v-19q0 -21 -14.5 -35.5t-34.5 -14.5h-20z" />
    <glyph glyph-name="divide" unicode="&#xf7;" 
d="M301 113q-21 0 -35.5 14.5t-14.5 35.5v39q0 21 14.5 35t35.5 14h39q21 0 35 -14t14 -35v-39q0 -21 -14 -35.5t-35 -14.5h-39zM301 449q-21 0 -35.5 14t-14.5 35v39q0 21 14.5 35.5t35.5 14.5h39q21 0 35 -14.5t14 -35.5v-39q0 -21 -14 -35t-35 -14h-39zM476 400
q21 0 35 -14t14 -35q0 -22 -14 -36t-35 -14h-310q-21 0 -35.5 14t-14.5 36q0 21 14.5 35t35.5 14h310z" />
    <glyph glyph-name="oslash" unicode="&#xf8;" 
d="M205 164q-6 -6 -6 -11q0 -3 2 -5l40 -39q9 -9 21 -9h117q12 0 21 9l36 35q4 4 7 10.5t3 11.5v222q0 8 -4 8q-3 0 -6 -3zM436 536q6 6 6 11q0 3 -2 5l-40 39q-9 9 -21 9h-117q-12 0 -21 -9l-36 -35q-4 -4 -7 -10.5t-3 -11.5v-222q0 -8 4 -8q3 0 6 3zM525 627q8 8 17.5 11
t19.5 3q21 0 35 -14.5t14 -34.5q0 -22 -14 -36l-42 -43q-10 -7 -10 -22v-358q0 -21 -15 -36l-82 -82q-15 -15 -36 -15h-183q-21 0 -36 15l-62 61q-4 4 -7 4q-2 0 -6 -4l-3 -3q-14 -14 -36 -14q-21 0 -35 14.5t-14 35.5q0 20 13 36l43 42q10 7 10 22v359q0 18 14 35l83 82
q15 15 36 15h183q21 0 36 -15l62 -61q4 -4 7 -4t6 4z" />
    <glyph glyph-name="ugrave" unicode="&#xf9;" 
d="M195 166q0 -13 9 -21l37 -36q8 -9 20 -9h118q13 0 20 9l37 36q9 8 9 21v485q0 20 14.5 34.5t35.5 14.5q20 0 34.5 -14.5t14.5 -34.5v-519q0 -9 -3 -18t-11 -17l-82 -82q-15 -15 -37 -15h-183q-21 0 -36 15l-83 82q-13 16 -13 35v519q0 20 14 34.5t35 14.5t35.5 -14.5
t14.5 -34.5v-485zM244 893q-14 14 -14 36q0 20 14 34.5t35 14.5q10 0 19.5 -3t17.5 -11l79 -81q15 -15 15 -35q0 -21 -15 -35t-35 -14q-9 0 -18.5 2.5t-17.5 10.5z" />
    <glyph glyph-name="uacute" unicode="&#xfa;" 
d="M195 166q0 -13 9 -21l37 -36q8 -9 20 -9h118q13 0 20 9l37 36q9 8 9 21v485q0 20 14.5 34.5t35.5 14.5q20 0 34.5 -14.5t14.5 -34.5v-519q0 -9 -3 -18t-11 -17l-82 -82q-15 -15 -37 -15h-183q-21 0 -36 15l-83 82q-13 16 -13 35v519q0 20 14 34.5t35 14.5t35.5 -14.5
t14.5 -34.5v-485zM316 812q-8 -8 -17.5 -10.5t-18.5 -2.5q-21 0 -35.5 14t-14.5 35q0 20 15 35l79 81q8 8 17.5 11t18.5 3q20 0 35 -14.5t15 -34.5q0 -21 -15 -36z" />
    <glyph glyph-name="ucircumflex" unicode="&#xfb;" 
d="M195 166q0 -13 9 -21l37 -36q8 -9 20 -9h118q13 0 20 9l37 36q9 8 9 21v485q0 20 14.5 34.5t35.5 14.5q20 0 34.5 -14.5t14.5 -34.5v-519q0 -9 -3 -18t-11 -17l-82 -82q-15 -15 -37 -15h-183q-21 0 -36 15l-83 82q-13 16 -13 35v519q0 20 14 34.5t35 14.5t35.5 -14.5
t14.5 -34.5v-485zM260 810q-13 -11 -31 -11q-19 0 -32 12t-13 31q0 20 13 32l92 91q13 13 31 13q19 0 32 -13l92 -91q7 -6 9 -14.5t2 -17.5q0 -43 -43 -43q-9 0 -17.5 2t-14.5 9l-36 36q-11 11 -24 11t-23 -10z" />
    <glyph glyph-name="udieresis" unicode="&#xfc;" 
d="M195 166q0 -13 9 -21l37 -36q8 -9 20 -9h118q13 0 20 9l37 36q9 8 9 21v485q0 20 14.5 34.5t35.5 14.5q20 0 34.5 -14.5t14.5 -34.5v-519q0 -9 -3 -18t-11 -17l-82 -82q-15 -15 -37 -15h-183q-21 0 -36 15l-83 82q-13 16 -13 35v519q0 20 14 34.5t35 14.5t35.5 -14.5
t14.5 -34.5v-485zM396 808q-20 0 -34.5 14.5t-14.5 35.5v19q0 21 14.5 35.5t34.5 14.5h20q21 0 35 -14.5t14 -35.5v-19q0 -21 -14 -35.5t-35 -14.5h-20zM224 808q-21 0 -35 14.5t-14 35.5v19q0 21 14 35.5t35 14.5h20q20 0 34.5 -14.5t14.5 -35.5v-19q0 -21 -14.5 -35.5
t-34.5 -14.5h-20z" />
    <glyph glyph-name="yacute" unicode="&#xfd;" 
d="M110 448q-14 14 -14 36v167q0 20 14 34.5t35 14.5t35.5 -14.5t14.5 -34.5v-133q0 -13 9 -21l88 -89q5 -6 13 -9t14 -3q19 0 29 12l88 89q9 8 9 21v133q0 20 14.5 34.5t35.5 14.5q20 0 34.5 -14.5t14.5 -34.5v-167q0 -22 -15 -36l-150 -151q-9 -7 -9 -21v-227
q0 -20 -14.5 -34.5t-36.5 -14.5q-20 0 -34.5 14.5t-14.5 34.5v227q0 14 -9 21zM316 812q-8 -8 -17.5 -10.5t-18.5 -2.5q-21 0 -35.5 14t-14.5 35q0 20 15 35l79 81q8 8 17.5 11t18.5 3q20 0 35 -14.5t15 -34.5q0 -21 -15 -36z" />
    <glyph glyph-name="thorn" unicode="&#xfe;" 
d="M445 413q0 11 -9 20l-57 57q-7 9 -20 9h-125q-16 0 -27.5 -11.5t-11.5 -27.5v-224q0 -16 11.5 -27.5t27.5 -11.5h125q13 0 20 9l57 57q9 9 9 20v130zM96 719q0 21 14.5 35t34.5 14q22 0 36 -14t14 -35v-82q0 -16 11.5 -27.5t27.5 -11.5h158q21 0 35 -14l102 -103
q15 -15 15 -35v-196q0 -20 -15 -35l-102 -103q-14 -14 -35 -14h-158q-16 0 -27.5 -11.5t-11.5 -27.5v-82q0 -21 -14 -35t-36 -14q-20 0 -34.5 14t-14.5 35v742z" />
    <glyph glyph-name="ydieresis" unicode="&#xff;" 
d="M110 448q-14 14 -14 36v167q0 20 14 34.5t35 14.5t35.5 -14.5t14.5 -34.5v-133q0 -13 9 -21l88 -89q5 -6 13 -9t14 -3q19 0 29 12l88 89q9 8 9 21v133q0 20 14.5 34.5t35.5 14.5q20 0 34.5 -14.5t14.5 -34.5v-167q0 -22 -15 -36l-150 -151q-9 -7 -9 -21v-227
q0 -20 -14.5 -34.5t-36.5 -14.5q-20 0 -34.5 14.5t-14.5 34.5v227q0 14 -9 21zM396 808q-20 0 -34.5 14.5t-14.5 35.5v19q0 21 14.5 35.5t34.5 14.5h20q21 0 35 -14.5t14 -35.5v-19q0 -21 -14 -35.5t-35 -14.5h-20zM224 808q-21 0 -35 14.5t-14 35.5v19q0 21 14 35.5
t35 14.5h20q20 0 34.5 -14.5t14.5 -35.5v-19q0 -21 -14.5 -35.5t-34.5 -14.5h-20z" />
    <glyph glyph-name="Amacron" unicode="&#x100;" 
d="M227 808q-21 0 -35 14.5t-14 35.5q0 20 14 35t35 15h186q21 0 35 -15t14 -35q0 -21 -14 -35.5t-35 -14.5h-186zM544 49q0 -20 -14.5 -34.5t-34.5 -14.5q-21 0 -35.5 14.5t-14.5 34.5v190q0 16 -11.5 27.5t-28.5 11.5h-170q-17 0 -28.5 -11.5t-11.5 -27.5v-190
q0 -20 -14.5 -34.5t-35.5 -14.5t-35 14.5t-14 34.5v498q0 23 13 36l104 102q15 15 35 15h143q22 0 36 -14l102 -103q15 -15 15 -36v-498zM445 514q0 13 -9 20l-57 58q-8 8 -21 8h-76q-13 0 -21 -8l-57 -58q-9 -7 -9 -20v-97q0 -17 11.5 -28t28.5 -11h170q17 0 28.5 11
t11.5 28v97z" />
    <glyph glyph-name="amacron" unicode="&#x101;" 
d="M544 49q0 -20 -14.5 -34.5t-34.5 -14.5q-21 0 -35.5 14.5t-14.5 34.5v190q0 16 -11.5 27.5t-28.5 11.5h-170q-17 0 -28.5 -11.5t-11.5 -27.5v-190q0 -20 -14.5 -34.5t-35.5 -14.5t-35 14.5t-14 34.5v498q0 23 13 36l104 102q15 15 35 15h143q22 0 36 -14l102 -103
q15 -15 15 -36v-498zM445 514q0 13 -9 20l-57 58q-8 8 -21 8h-76q-13 0 -21 -8l-57 -58q-9 -7 -9 -20v-97q0 -17 11.5 -28t28.5 -11h170q17 0 28.5 11t11.5 28v97zM227 808q-21 0 -35 14.5t-14 35.5q0 20 14 35t35 15h186q21 0 35 -15t14 -35q0 -21 -14 -35.5t-35 -14.5
h-186z" />
    <glyph glyph-name="Abreve" unicode="&#x102;" 
d="M272 927q0 -13 9 -21l16 -16q8 -9 20 -9h5q12 0 21 9l16 16q9 8 9 21v10q0 17 11.5 29t29.5 12t30 -12t12 -29v-42q0 -17 -10 -27l-59 -60q-9 -9 -28 -9h-68q-19 0 -28 9l-59 60q-10 10 -10 27v42q0 17 12 29t30 12q17 0 29 -12t12 -29v-10zM544 49q0 -20 -14.5 -34.5
t-34.5 -14.5q-21 0 -35.5 14.5t-14.5 34.5v190q0 16 -11.5 27.5t-28.5 11.5h-170q-17 0 -28.5 -11.5t-11.5 -27.5v-190q0 -20 -14.5 -34.5t-35.5 -14.5t-35 14.5t-14 34.5v498q0 23 13 36l104 102q15 15 35 15h143q22 0 36 -14l102 -103q15 -15 15 -36v-498zM445 514
q0 13 -9 20l-57 58q-8 8 -21 8h-76q-13 0 -21 -8l-57 -58q-9 -7 -9 -20v-97q0 -17 11.5 -28t28.5 -11h170q17 0 28.5 11t11.5 28v97z" />
    <glyph glyph-name="abreve" unicode="&#x103;" 
d="M544 49q0 -20 -14.5 -34.5t-34.5 -14.5q-21 0 -35.5 14.5t-14.5 34.5v190q0 16 -11.5 27.5t-28.5 11.5h-170q-17 0 -28.5 -11.5t-11.5 -27.5v-190q0 -20 -14.5 -34.5t-35.5 -14.5t-35 14.5t-14 34.5v498q0 23 13 36l104 102q15 15 35 15h143q22 0 36 -14l102 -103
q15 -15 15 -36v-498zM445 514q0 13 -9 20l-57 58q-8 8 -21 8h-76q-13 0 -21 -8l-57 -58q-9 -7 -9 -20v-97q0 -17 11.5 -28t28.5 -11h170q17 0 28.5 11t11.5 28v97zM272 927q0 -13 9 -21l16 -16q8 -9 20 -9h5q12 0 21 9l16 16q9 8 9 21v10q0 17 11.5 29t29.5 12t30 -12
t12 -29v-42q0 -17 -10 -27l-59 -60q-9 -9 -28 -9h-68q-19 0 -28 9l-59 60q-10 10 -10 27v42q0 17 12 29t30 12q17 0 29 -12t12 -29v-10z" />
    <glyph glyph-name="Aogonek" unicode="&#x104;" 
d="M545 -37q0 -18 -12 -30l-56 -56q-10 -7 -10 -22t10 -22l9 -8q7 -10 21 -10q15 0 22 10l6 6q11 9 27 9q15 0 26 -10t11 -26t-11 -27l-26 -26q-10 -10 -24 -10h-60q-14 0 -24 10l-52 51q-5 5 -7 11.5t-2 12.5v60q0 11 9 22l59 60q4 3 7 9.5t3 11.5v17q-25 13 -25 43v190
q0 16 -11.5 27.5t-28.5 11.5h-170q-17 0 -28.5 -11.5t-11.5 -27.5v-190q0 -20 -14.5 -34.5t-35.5 -14.5t-35 14.5t-14 34.5v498q0 23 13 36l104 102q15 15 35 15h143q22 0 36 -14l102 -103q15 -15 15 -36v-584zM446 514q0 13 -9 20l-57 58q-8 8 -21 8h-76q-13 0 -21 -8
l-57 -58q-9 -7 -9 -20v-97q0 -17 11.5 -28t28.5 -11h170q17 0 28.5 11t11.5 28v97z" />
    <glyph glyph-name="aogonek" unicode="&#x105;" 
d="M545 -37q0 -18 -12 -30l-56 -56q-10 -7 -10 -22t10 -22l9 -8q7 -10 21 -10q15 0 22 10l6 6q11 9 27 9q15 0 26 -10t11 -26t-11 -27l-26 -26q-10 -10 -24 -10h-60q-14 0 -24 10l-52 51q-5 5 -7 11.5t-2 12.5v60q0 11 9 22l59 60q4 3 7 9.5t3 11.5v17q-25 13 -25 43v190
q0 16 -11.5 27.5t-28.5 11.5h-170q-17 0 -28.5 -11.5t-11.5 -27.5v-190q0 -20 -14.5 -34.5t-35.5 -14.5t-35 14.5t-14 34.5v498q0 23 13 36l104 102q15 15 35 15h143q22 0 36 -14l102 -103q15 -15 15 -36v-584zM446 514q0 13 -9 20l-57 58q-8 8 -21 8h-76q-13 0 -21 -8
l-57 -58q-9 -7 -9 -20v-97q0 -17 11.5 -28t28.5 -11h170q17 0 28.5 11t11.5 28v97z" />
    <glyph glyph-name="Cacute" unicode="&#x106;" 
d="M316 812q-8 -8 -17.5 -10.5t-18.5 -2.5q-21 0 -35.5 14t-14.5 35q0 20 15 35l79 81q8 8 17.5 11t18.5 3q20 0 35 -14.5t15 -34.5q0 -21 -15 -36zM195 186q0 -12 9 -20l57 -57q8 -9 21 -9h76q14 0 21 9l57 57q9 8 9 20v30q0 21 14.5 35.5t35.5 14.5q20 0 34.5 -14.5
t14.5 -35.5v-63q0 -21 -15 -36l-102 -103q-14 -14 -36 -14h-143q-21 0 -36 15l-103 102q-13 13 -13 36v394q0 23 13 36l103 102q15 15 36 15h143q22 0 36 -14l102 -103q15 -15 15 -36v-63q0 -21 -14.5 -35.5t-34.5 -14.5q-21 0 -35.5 14.5t-14.5 35.5v30q0 13 -9 20l-57 58
q-8 8 -21 8h-76q-13 0 -21 -8l-57 -58q-9 -7 -9 -20v-328z" />
    <glyph glyph-name="cacute" unicode="&#x107;" 
d="M195 186q0 -12 9 -20l57 -57q8 -9 21 -9h76q14 0 21 9l57 57q9 8 9 20v30q0 21 14.5 35.5t35.5 14.5q20 0 34.5 -14.5t14.5 -35.5v-63q0 -21 -15 -36l-102 -103q-14 -14 -36 -14h-143q-21 0 -36 15l-103 102q-13 13 -13 36v394q0 23 13 36l103 102q15 15 36 15h143
q22 0 36 -14l102 -103q15 -15 15 -36v-63q0 -21 -14.5 -35.5t-34.5 -14.5q-21 0 -35.5 14.5t-14.5 35.5v30q0 13 -9 20l-57 58q-8 8 -21 8h-76q-13 0 -21 -8l-57 -58q-9 -7 -9 -20v-328zM316 812q-8 -8 -17.5 -10.5t-18.5 -2.5q-21 0 -35.5 14t-14.5 35q0 20 15 35l79 81
q8 8 17.5 11t18.5 3q20 0 35 -14.5t15 -34.5q0 -21 -15 -36z" />
    <glyph glyph-name="Ccircumflex" unicode="&#x108;" 
d="M260 810q-13 -11 -31 -11q-19 0 -32 12t-13 31q0 20 13 32l92 91q13 13 31 13q19 0 32 -13l92 -91q7 -6 9 -14.5t2 -17.5q0 -43 -43 -43q-9 0 -17.5 2t-14.5 9l-36 36q-11 11 -24 11t-23 -10zM195 186q0 -12 9 -20l57 -57q8 -9 21 -9h76q14 0 21 9l57 57q9 8 9 20v30
q0 21 14.5 35.5t35.5 14.5q20 0 34.5 -14.5t14.5 -35.5v-63q0 -21 -15 -36l-102 -103q-14 -14 -36 -14h-143q-21 0 -36 15l-103 102q-13 13 -13 36v394q0 23 13 36l103 102q15 15 36 15h143q22 0 36 -14l102 -103q15 -15 15 -36v-63q0 -21 -14.5 -35.5t-34.5 -14.5
q-21 0 -35.5 14.5t-14.5 35.5v30q0 13 -9 20l-57 58q-8 8 -21 8h-76q-13 0 -21 -8l-57 -58q-9 -7 -9 -20v-328z" />
    <glyph glyph-name="ccircumflex" unicode="&#x109;" 
d="M195 186q0 -12 9 -20l57 -57q8 -9 21 -9h76q14 0 21 9l57 57q9 8 9 20v30q0 21 14.5 35.5t35.5 14.5q20 0 34.5 -14.5t14.5 -35.5v-63q0 -21 -15 -36l-102 -103q-14 -14 -36 -14h-143q-21 0 -36 15l-103 102q-13 13 -13 36v394q0 23 13 36l103 102q15 15 36 15h143
q22 0 36 -14l102 -103q15 -15 15 -36v-63q0 -21 -14.5 -35.5t-34.5 -14.5q-21 0 -35.5 14.5t-14.5 35.5v30q0 13 -9 20l-57 58q-8 8 -21 8h-76q-13 0 -21 -8l-57 -58q-9 -7 -9 -20v-328zM260 810q-13 -11 -31 -11q-19 0 -32 12t-13 31q0 20 13 32l92 91q13 13 31 13
q19 0 32 -13l92 -91q7 -6 9 -14.5t2 -17.5q0 -43 -43 -43q-9 0 -17.5 2t-14.5 9l-36 36q-11 11 -24 11t-23 -10z" />
    <glyph glyph-name="Cdotaccent" unicode="&#x10a;" 
d="M305 813q-21 0 -35.5 14.5t-14.5 35.5v29q0 21 14.5 35t35.5 14h29q21 0 35.5 -14t14.5 -35v-29q0 -21 -14.5 -35.5t-35.5 -14.5h-29zM195 186q0 -12 9 -20l57 -57q8 -9 21 -9h76q14 0 21 9l57 57q9 8 9 20v30q0 21 14.5 35.5t35.5 14.5q20 0 34.5 -14.5t14.5 -35.5v-63
q0 -21 -15 -36l-102 -103q-14 -14 -36 -14h-143q-21 0 -36 15l-103 102q-13 13 -13 36v394q0 23 13 36l103 102q15 15 36 15h143q22 0 36 -14l102 -103q15 -15 15 -36v-63q0 -21 -14.5 -35.5t-34.5 -14.5q-21 0 -35.5 14.5t-14.5 35.5v30q0 13 -9 20l-57 58q-8 8 -21 8h-76
q-13 0 -21 -8l-57 -58q-9 -7 -9 -20v-328z" />
    <glyph glyph-name="cdotaccent" unicode="&#x10b;" 
d="M195 186q0 -12 9 -20l57 -57q8 -9 21 -9h76q14 0 21 9l57 57q9 8 9 20v30q0 21 14.5 35.5t35.5 14.5q20 0 34.5 -14.5t14.5 -35.5v-63q0 -21 -15 -36l-102 -103q-14 -14 -36 -14h-143q-21 0 -36 15l-103 102q-13 13 -13 36v394q0 23 13 36l103 102q15 15 36 15h143
q22 0 36 -14l102 -103q15 -15 15 -36v-63q0 -21 -14.5 -35.5t-34.5 -14.5q-21 0 -35.5 14.5t-14.5 35.5v30q0 13 -9 20l-57 58q-8 8 -21 8h-76q-13 0 -21 -8l-57 -58q-9 -7 -9 -20v-328zM305 813q-21 0 -35.5 14.5t-14.5 35.5v29q0 21 14.5 35t35.5 14h29q21 0 35.5 -14
t14.5 -35v-29q0 -21 -14.5 -35.5t-35.5 -14.5h-29z" />
    <glyph glyph-name="Ccaron" unicode="&#x10c;" 
d="M296 930q11 -11 24 -11t24 11l36 35q12 13 31 13t31.5 -13t12.5 -31t-11 -31l-92 -93q-7 -7 -15.5 -9t-16.5 -2t-16.5 2t-15.5 9l-91 92q-13 13 -13 32q0 17 13.5 30.5t31.5 13.5t31 -13zM195 186q0 -12 9 -20l57 -57q8 -9 21 -9h76q14 0 21 9l57 57q9 8 9 20v30
q0 21 14.5 35.5t35.5 14.5q20 0 34.5 -14.5t14.5 -35.5v-63q0 -21 -15 -36l-102 -103q-14 -14 -36 -14h-143q-21 0 -36 15l-103 102q-13 13 -13 36v394q0 23 13 36l103 102q15 15 36 15h143q22 0 36 -14l102 -103q15 -15 15 -36v-63q0 -21 -14.5 -35.5t-34.5 -14.5
q-21 0 -35.5 14.5t-14.5 35.5v30q0 13 -9 20l-57 58q-8 8 -21 8h-76q-13 0 -21 -8l-57 -58q-9 -7 -9 -20v-328z" />
    <glyph glyph-name="ccaron" unicode="&#x10d;" 
d="M195 186q0 -12 9 -20l57 -57q8 -9 21 -9h76q14 0 21 9l57 57q9 8 9 20v30q0 21 14.5 35.5t35.5 14.5q20 0 34.5 -14.5t14.5 -35.5v-63q0 -21 -15 -36l-102 -103q-14 -14 -36 -14h-143q-21 0 -36 15l-103 102q-13 13 -13 36v394q0 23 13 36l103 102q15 15 36 15h143
q22 0 36 -14l102 -103q15 -15 15 -36v-63q0 -21 -14.5 -35.5t-34.5 -14.5q-21 0 -35.5 14.5t-14.5 35.5v30q0 13 -9 20l-57 58q-8 8 -21 8h-76q-13 0 -21 -8l-57 -58q-9 -7 -9 -20v-328zM296 930q11 -11 24 -11t24 11l36 35q12 13 31 13t31.5 -13t12.5 -31t-11 -31l-92 -93
q-7 -7 -15.5 -9t-16.5 -2t-16.5 2t-15.5 9l-91 92q-13 13 -13 32q0 17 13.5 30.5t31.5 13.5t31 -13z" />
    <glyph glyph-name="Dcaron" unicode="&#x10e;" 
d="M296 930q11 -11 24 -11t24 11l36 35q12 13 31 13t31.5 -13t12.5 -31t-11 -31l-92 -93q-7 -7 -15.5 -9t-16.5 -2t-16.5 2t-15.5 9l-91 92q-13 13 -13 32q0 17 13.5 30.5t31.5 13.5t31 -13zM529 583q15 -15 15 -36v-394q0 -21 -15 -36l-102 -103q-14 -14 -36 -14h-246
q-21 0 -35 14.5t-14 34.5v602q0 20 14 34.5t35 14.5h246q22 0 36 -14zM436 166q9 8 9 20v328q0 13 -9 20l-57 58q-8 8 -21 8h-123q-17 0 -28.5 -11t-11.5 -28v-422q0 -17 11.5 -28t28.5 -11h123q14 0 21 9z" />
    <glyph glyph-name="dcaron" unicode="&#x10f;" 
d="M295 924q11 -11 25 -11q12 0 23 11l35 36q14 12 32 12t31 -12.5t13 -31.5q0 -16 -12 -30l-91 -92q-12 -12 -31 -12q-9 0 -17.5 2.5t-15.5 9.5l-90 91q-13 13 -13 31q0 19 13 32q15 12 31 12q19 0 32 -12zM529 583q15 -15 15 -36v-394q0 -21 -15 -36l-102 -103
q-14 -14 -36 -14h-246q-21 0 -35 14.5t-14 34.5v602q0 20 14 34.5t35 14.5h246q22 0 36 -14zM436 166q9 8 9 20v328q0 13 -9 20l-57 58q-8 8 -21 8h-123q-17 0 -28.5 -11t-11.5 -28v-422q0 -17 11.5 -28t28.5 -11h123q14 0 21 9z" />
    <glyph glyph-name="Dcroat" unicode="&#x110;" 
d="M96 651q0 20 14 34.5t35 14.5h246q22 0 36 -14l102 -103q15 -15 15 -36v-394q0 -21 -15 -36l-102 -103q-14 -14 -36 -14h-246q-21 0 -35 14.5t-14 34.5v242q0 10 -10 10h-10q-21 0 -35 14t-14 36q0 21 14 35t35 14h10q10 0 10 10v241zM195 139q0 -17 11.5 -28t28.5 -11
h123q14 0 21 9l57 57q9 8 9 20v328q0 13 -9 20l-57 58q-8 8 -21 8h-123q-17 0 -28.5 -11t-11.5 -28v-151q0 -10 10 -10h137q21 0 35 -14t14 -35q0 -22 -14 -36t-35 -14h-137q-10 0 -10 -10v-152z" />
    <glyph glyph-name="dcroat" unicode="&#x111;" 
d="M96 651q0 20 14 34.5t35 14.5h246q22 0 36 -14l102 -103q15 -15 15 -36v-394q0 -21 -15 -36l-102 -103q-14 -14 -36 -14h-246q-21 0 -35 14.5t-14 34.5v242q0 10 -10 10h-10q-21 0 -35 14t-14 36q0 21 14 35t35 14h10q10 0 10 10v241zM195 139q0 -17 11.5 -28t28.5 -11
h123q14 0 21 9l57 57q9 8 9 20v328q0 13 -9 20l-57 58q-8 8 -21 8h-123q-17 0 -28.5 -11t-11.5 -28v-151q0 -10 10 -10h137q21 0 35 -14t14 -35q0 -22 -14 -36t-35 -14h-137q-10 0 -10 -10v-152z" />
    <glyph glyph-name="Emacron" unicode="&#x112;" 
d="M227 808q-21 0 -35 14.5t-14 35.5q0 20 14 35t35 15h186q21 0 35 -15t14 -35q0 -21 -14 -35.5t-35 -14.5h-186zM96 651q0 20 14 34.5t35 14.5h350q20 0 34.5 -14.5t14.5 -34.5q0 -21 -14.5 -36t-34.5 -15h-260q-17 0 -28.5 -11t-11.5 -28v-121q0 -17 11.5 -29t28.5 -12
h193q20 0 35 -14t15 -35t-15 -35.5t-35 -14.5h-193q-17 0 -28.5 -12t-11.5 -29v-120q0 -17 11.5 -28t28.5 -11h260q20 0 34.5 -15t14.5 -36q0 -20 -14.5 -34.5t-34.5 -14.5h-350q-21 0 -35 14.5t-14 34.5v602z" />
    <glyph glyph-name="emacron" unicode="&#x113;" 
d="M96 651q0 20 14 34.5t35 14.5h350q20 0 34.5 -14.5t14.5 -34.5q0 -21 -14.5 -36t-34.5 -15h-260q-17 0 -28.5 -11t-11.5 -28v-121q0 -17 11.5 -29t28.5 -12h193q20 0 35 -14t15 -35t-15 -35.5t-35 -14.5h-193q-17 0 -28.5 -12t-11.5 -29v-120q0 -17 11.5 -28t28.5 -11
h260q20 0 34.5 -15t14.5 -36q0 -20 -14.5 -34.5t-34.5 -14.5h-350q-21 0 -35 14.5t-14 34.5v602zM227 808q-21 0 -35 14.5t-14 35.5q0 20 14 35t35 15h186q21 0 35 -15t14 -35q0 -21 -14 -35.5t-35 -14.5h-186z" />
    <glyph glyph-name="Ebreve" unicode="&#x114;" 
d="M272 927q0 -13 9 -21l16 -16q8 -9 20 -9h5q12 0 21 9l16 16q9 8 9 21v10q0 17 11.5 29t29.5 12t30 -12t12 -29v-42q0 -17 -10 -27l-59 -60q-9 -9 -28 -9h-68q-19 0 -28 9l-59 60q-10 10 -10 27v42q0 17 12 29t30 12q17 0 29 -12t12 -29v-10zM96 651q0 20 14 34.5t35 14.5
h350q20 0 34.5 -14.5t14.5 -34.5q0 -21 -14.5 -36t-34.5 -15h-260q-17 0 -28.5 -11t-11.5 -28v-121q0 -17 11.5 -29t28.5 -12h193q20 0 35 -14t15 -35t-15 -35.5t-35 -14.5h-193q-17 0 -28.5 -12t-11.5 -29v-120q0 -17 11.5 -28t28.5 -11h260q20 0 34.5 -15t14.5 -36
q0 -20 -14.5 -34.5t-34.5 -14.5h-350q-21 0 -35 14.5t-14 34.5v602z" />
    <glyph glyph-name="ebreve" unicode="&#x115;" 
d="M96 651q0 20 14 34.5t35 14.5h350q20 0 34.5 -14.5t14.5 -34.5q0 -21 -14.5 -36t-34.5 -15h-260q-17 0 -28.5 -11t-11.5 -28v-121q0 -17 11.5 -29t28.5 -12h193q20 0 35 -14t15 -35t-15 -35.5t-35 -14.5h-193q-17 0 -28.5 -12t-11.5 -29v-120q0 -17 11.5 -28t28.5 -11
h260q20 0 34.5 -15t14.5 -36q0 -20 -14.5 -34.5t-34.5 -14.5h-350q-21 0 -35 14.5t-14 34.5v602zM272 927q0 -13 9 -21l16 -16q8 -9 20 -9h5q12 0 21 9l16 16q9 8 9 21v10q0 17 11.5 29t29.5 12t30 -12t12 -29v-42q0 -17 -10 -27l-59 -60q-9 -9 -28 -9h-68q-19 0 -28 9
l-59 60q-10 10 -10 27v42q0 17 12 29t30 12q17 0 29 -12t12 -29v-10z" />
    <glyph glyph-name="Edotaccent" unicode="&#x116;" 
d="M305 813q-21 0 -35.5 14.5t-14.5 35.5v29q0 21 14.5 35t35.5 14h29q21 0 35.5 -14t14.5 -35v-29q0 -21 -14.5 -35.5t-35.5 -14.5h-29zM96 651q0 20 14 34.5t35 14.5h350q20 0 34.5 -14.5t14.5 -34.5q0 -21 -14.5 -36t-34.5 -15h-260q-17 0 -28.5 -11t-11.5 -28v-121
q0 -17 11.5 -29t28.5 -12h193q20 0 35 -14t15 -35t-15 -35.5t-35 -14.5h-193q-17 0 -28.5 -12t-11.5 -29v-120q0 -17 11.5 -28t28.5 -11h260q20 0 34.5 -15t14.5 -36q0 -20 -14.5 -34.5t-34.5 -14.5h-350q-21 0 -35 14.5t-14 34.5v602z" />
    <glyph glyph-name="edotaccent" unicode="&#x117;" 
d="M96 651q0 20 14 34.5t35 14.5h350q20 0 34.5 -14.5t14.5 -34.5q0 -21 -14.5 -36t-34.5 -15h-260q-17 0 -28.5 -11t-11.5 -28v-121q0 -17 11.5 -29t28.5 -12h193q20 0 35 -14t15 -35t-15 -35.5t-35 -14.5h-193q-17 0 -28.5 -12t-11.5 -29v-120q0 -17 11.5 -28t28.5 -11
h260q20 0 34.5 -15t14.5 -36q0 -20 -14.5 -34.5t-34.5 -14.5h-350q-21 0 -35 14.5t-14 34.5v602zM305 813q-21 0 -35.5 14.5t-14.5 35.5v29q0 21 14.5 35t35.5 14h29q21 0 35.5 -14t14.5 -35v-29q0 -21 -14.5 -35.5t-35.5 -14.5h-29z" />
    <glyph glyph-name="Eogonek" unicode="&#x118;" 
d="M96 651q0 20 14 34.5t35 14.5h350q20 0 34.5 -14.5t14.5 -34.5q0 -21 -14.5 -36t-34.5 -15h-260q-17 0 -28.5 -11t-11.5 -28v-121q0 -17 11.5 -29t28.5 -12h193q20 0 35 -14t15 -35t-15 -35.5t-35 -14.5h-193q-17 0 -28.5 -12t-11.5 -29v-120q0 -17 11.5 -28t28.5 -11
h260q23 0 36 -16t13 -38v-83q0 -18 -12 -30l-56 -56q-10 -7 -10 -22t10 -22l9 -8q7 -10 21 -10q15 0 22 10l6 6q11 9 27 9q15 0 26 -10t11 -26t-11 -27l-26 -26q-10 -10 -24 -10h-60q-14 0 -24 10l-52 51q-5 5 -7 11.5t-2 12.5v60q0 11 9 22l59 60q4 3 7 9.5t3 11.5v11h-325
q-21 0 -35 14.5t-14 34.5v602z" />
    <glyph glyph-name="eogonek" unicode="&#x119;" 
d="M96 651q0 20 14 34.5t35 14.5h350q20 0 34.5 -14.5t14.5 -34.5q0 -21 -14.5 -36t-34.5 -15h-260q-17 0 -28.5 -11t-11.5 -28v-121q0 -17 11.5 -29t28.5 -12h193q20 0 35 -14t15 -35t-15 -35.5t-35 -14.5h-193q-17 0 -28.5 -12t-11.5 -29v-120q0 -17 11.5 -28t28.5 -11
h260q23 0 36 -16t13 -38v-83q0 -18 -12 -30l-56 -56q-10 -7 -10 -22t10 -22l9 -8q7 -10 21 -10q15 0 22 10l6 6q11 9 27 9q15 0 26 -10t11 -26t-11 -27l-26 -26q-10 -10 -24 -10h-60q-14 0 -24 10l-52 51q-5 5 -7 11.5t-2 12.5v60q0 11 9 22l59 60q4 3 7 9.5t3 11.5v11h-325
q-21 0 -35 14.5t-14 34.5v602z" />
    <glyph glyph-name="Ecaron" unicode="&#x11a;" 
d="M296 930q11 -11 24 -11t24 11l36 35q12 13 31 13t31.5 -13t12.5 -31t-11 -31l-92 -93q-7 -7 -15.5 -9t-16.5 -2t-16.5 2t-15.5 9l-91 92q-13 13 -13 32q0 17 13.5 30.5t31.5 13.5t31 -13zM96 651q0 20 14 34.5t35 14.5h350q20 0 34.5 -14.5t14.5 -34.5q0 -21 -14.5 -36
t-34.5 -15h-260q-17 0 -28.5 -11t-11.5 -28v-121q0 -17 11.5 -29t28.5 -12h193q20 0 35 -14t15 -35t-15 -35.5t-35 -14.5h-193q-17 0 -28.5 -12t-11.5 -29v-120q0 -17 11.5 -28t28.5 -11h260q20 0 34.5 -15t14.5 -36q0 -20 -14.5 -34.5t-34.5 -14.5h-350q-21 0 -35 14.5
t-14 34.5v602z" />
    <glyph glyph-name="ecaron" unicode="&#x11b;" 
d="M96 651q0 20 14 34.5t35 14.5h350q20 0 34.5 -14.5t14.5 -34.5q0 -21 -14.5 -36t-34.5 -15h-260q-17 0 -28.5 -11t-11.5 -28v-121q0 -17 11.5 -29t28.5 -12h193q20 0 35 -14t15 -35t-15 -35.5t-35 -14.5h-193q-17 0 -28.5 -12t-11.5 -29v-120q0 -17 11.5 -28t28.5 -11
h260q20 0 34.5 -15t14.5 -36q0 -20 -14.5 -34.5t-34.5 -14.5h-350q-21 0 -35 14.5t-14 34.5v602zM296 930q11 -11 24 -11t24 11l36 35q12 13 31 13t31.5 -13t12.5 -31t-11 -31l-92 -93q-7 -7 -15.5 -9t-16.5 -2t-16.5 2t-15.5 9l-91 92q-13 13 -13 32q0 17 13.5 30.5
t31.5 13.5t31 -13z" />
    <glyph glyph-name="Gcircumflex" unicode="&#x11c;" 
d="M260 810q-13 -11 -31 -11q-19 0 -32 12t-13 31q0 20 13 32l92 91q13 13 31 13q19 0 32 -13l92 -91q7 -6 9 -14.5t2 -17.5q0 -43 -43 -43q-9 0 -17.5 2t-14.5 9l-36 36q-11 11 -24 11t-23 -10zM445 534q0 14 -9 21l-37 37q-8 8 -20 8h-118q-12 0 -20 -8l-37 -37
q-9 -7 -9 -21v-368q0 -13 9 -21l37 -36q8 -9 20 -9h118q13 0 20 9l37 36q9 8 9 21v94q0 17 -11.5 28.5t-28.5 11.5h-59q-21 0 -35.5 14.5t-14.5 35.5t14.5 35t35.5 14h149q20 0 34.5 -14t14.5 -35v-217q0 -22 -14 -36l-82 -82q-15 -15 -37 -15h-183q-21 0 -36 15l-83 82
q-13 13 -13 36v435q0 19 13 35l83 82q15 15 36 15h183q22 0 37 -15l82 -82q8 -8 11 -17t3 -18v-45q0 -21 -14.5 -35.5t-34.5 -14.5q-21 0 -35.5 14.5t-14.5 35.5v11z" />
    <glyph glyph-name="gcircumflex" unicode="&#x11d;" 
d="M445 534q0 14 -9 21l-37 37q-8 8 -20 8h-118q-12 0 -20 -8l-37 -37q-9 -7 -9 -21v-368q0 -13 9 -21l37 -36q8 -9 20 -9h118q13 0 20 9l37 36q9 8 9 21v94q0 17 -11.5 28.5t-28.5 11.5h-59q-21 0 -35.5 14.5t-14.5 35.5t14.5 35t35.5 14h149q20 0 34.5 -14t14.5 -35v-217
q0 -22 -14 -36l-82 -82q-15 -15 -37 -15h-183q-21 0 -36 15l-83 82q-13 13 -13 36v435q0 19 13 35l83 82q15 15 36 15h183q22 0 37 -15l82 -82q8 -8 11 -17t3 -18v-45q0 -21 -14.5 -35.5t-34.5 -14.5q-21 0 -35.5 14.5t-14.5 35.5v11zM260 810q-13 -11 -31 -11q-19 0 -32 12
t-13 31q0 20 13 32l92 91q13 13 31 13q19 0 32 -13l92 -91q7 -6 9 -14.5t2 -17.5q0 -43 -43 -43q-9 0 -17.5 2t-14.5 9l-36 36q-11 11 -24 11t-23 -10z" />
    <glyph glyph-name="Gbreve" unicode="&#x11e;" 
d="M272 927q0 -13 9 -21l16 -16q8 -9 20 -9h5q12 0 21 9l16 16q9 8 9 21v10q0 17 11.5 29t29.5 12t30 -12t12 -29v-42q0 -17 -10 -27l-59 -60q-9 -9 -28 -9h-68q-19 0 -28 9l-59 60q-10 10 -10 27v42q0 17 12 29t30 12q17 0 29 -12t12 -29v-10zM445 534q0 14 -9 21l-37 37
q-8 8 -20 8h-118q-12 0 -20 -8l-37 -37q-9 -7 -9 -21v-368q0 -13 9 -21l37 -36q8 -9 20 -9h118q13 0 20 9l37 36q9 8 9 21v94q0 17 -11.5 28.5t-28.5 11.5h-59q-21 0 -35.5 14.5t-14.5 35.5t14.5 35t35.5 14h149q20 0 34.5 -14t14.5 -35v-217q0 -22 -14 -36l-82 -82
q-15 -15 -37 -15h-183q-21 0 -36 15l-83 82q-13 13 -13 36v435q0 19 13 35l83 82q15 15 36 15h183q22 0 37 -15l82 -82q8 -8 11 -17t3 -18v-45q0 -21 -14.5 -35.5t-34.5 -14.5q-21 0 -35.5 14.5t-14.5 35.5v11z" />
    <glyph glyph-name="gbreve" unicode="&#x11f;" 
d="M445 534q0 14 -9 21l-37 37q-8 8 -20 8h-118q-12 0 -20 -8l-37 -37q-9 -7 -9 -21v-368q0 -13 9 -21l37 -36q8 -9 20 -9h118q13 0 20 9l37 36q9 8 9 21v94q0 17 -11.5 28.5t-28.5 11.5h-59q-21 0 -35.5 14.5t-14.5 35.5t14.5 35t35.5 14h149q20 0 34.5 -14t14.5 -35v-217
q0 -22 -14 -36l-82 -82q-15 -15 -37 -15h-183q-21 0 -36 15l-83 82q-13 13 -13 36v435q0 19 13 35l83 82q15 15 36 15h183q22 0 37 -15l82 -82q8 -8 11 -17t3 -18v-45q0 -21 -14.5 -35.5t-34.5 -14.5q-21 0 -35.5 14.5t-14.5 35.5v11zM272 927q0 -13 9 -21l16 -16
q8 -9 20 -9h5q12 0 21 9l16 16q9 8 9 21v10q0 17 11.5 29t29.5 12t30 -12t12 -29v-42q0 -17 -10 -27l-59 -60q-9 -9 -28 -9h-68q-19 0 -28 9l-59 60q-10 10 -10 27v42q0 17 12 29t30 12q17 0 29 -12t12 -29v-10z" />
    <glyph glyph-name="Gdotaccent" unicode="&#x120;" 
d="M305 813q-21 0 -35.5 14.5t-14.5 35.5v29q0 21 14.5 35t35.5 14h29q21 0 35.5 -14t14.5 -35v-29q0 -21 -14.5 -35.5t-35.5 -14.5h-29zM445 534q0 14 -9 21l-37 37q-8 8 -20 8h-118q-12 0 -20 -8l-37 -37q-9 -7 -9 -21v-368q0 -13 9 -21l37 -36q8 -9 20 -9h118q13 0 20 9
l37 36q9 8 9 21v94q0 17 -11.5 28.5t-28.5 11.5h-59q-21 0 -35.5 14.5t-14.5 35.5t14.5 35t35.5 14h149q20 0 34.5 -14t14.5 -35v-217q0 -22 -14 -36l-82 -82q-15 -15 -37 -15h-183q-21 0 -36 15l-83 82q-13 13 -13 36v435q0 19 13 35l83 82q15 15 36 15h183q22 0 37 -15
l82 -82q8 -8 11 -17t3 -18v-45q0 -21 -14.5 -35.5t-34.5 -14.5q-21 0 -35.5 14.5t-14.5 35.5v11z" />
    <glyph glyph-name="gdotaccent" unicode="&#x121;" 
d="M445 534q0 14 -9 21l-37 37q-8 8 -20 8h-118q-12 0 -20 -8l-37 -37q-9 -7 -9 -21v-368q0 -13 9 -21l37 -36q8 -9 20 -9h118q13 0 20 9l37 36q9 8 9 21v94q0 17 -11.5 28.5t-28.5 11.5h-59q-21 0 -35.5 14.5t-14.5 35.5t14.5 35t35.5 14h149q20 0 34.5 -14t14.5 -35v-217
q0 -22 -14 -36l-82 -82q-15 -15 -37 -15h-183q-21 0 -36 15l-83 82q-13 13 -13 36v435q0 19 13 35l83 82q15 15 36 15h183q22 0 37 -15l82 -82q8 -8 11 -17t3 -18v-45q0 -21 -14.5 -35.5t-34.5 -14.5q-21 0 -35.5 14.5t-14.5 35.5v11zM305 813q-21 0 -35.5 14.5t-14.5 35.5
v29q0 21 14.5 35t35.5 14h29q21 0 35.5 -14t14.5 -35v-29q0 -21 -14.5 -35.5t-35.5 -14.5h-29z" />
    <glyph glyph-name="uni0122" unicode="&#x122;" 
d="M445 534q0 14 -9 21l-37 37q-8 8 -20 8h-118q-12 0 -20 -8l-37 -37q-9 -7 -9 -21v-368q0 -13 9 -21l37 -36q8 -9 20 -9h118q13 0 20 9l37 36q9 8 9 21v94q0 17 -11.5 28.5t-28.5 11.5h-59q-21 0 -35.5 14.5t-14.5 35.5t14.5 35t35.5 14h149q20 0 34.5 -14t14.5 -35v-217
q0 -22 -14 -36l-82 -82q-15 -15 -37 -15h-183q-21 0 -36 15l-83 82q-13 13 -13 36v435q0 19 13 35l83 82q15 15 36 15h183q22 0 37 -15l82 -82q8 -8 11 -17t3 -18v-45q0 -21 -14.5 -35.5t-34.5 -14.5q-21 0 -35.5 14.5t-14.5 35.5v11zM314 -245q-7 -8 -16.5 -11t-18.5 -3
q-10 0 -19.5 3.5t-15.5 10.5q-15 15 -15 35q0 21 15 36l79 80q8 8 17.5 11t18.5 3q20 0 35 -14.5t15 -34.5q0 -21 -15 -36z" />
    <glyph glyph-name="uni0123" unicode="&#x123;" 
d="M445 534q0 14 -9 21l-37 37q-8 8 -20 8h-118q-12 0 -20 -8l-37 -37q-9 -7 -9 -21v-368q0 -13 9 -21l37 -36q8 -9 20 -9h118q13 0 20 9l37 36q9 8 9 21v94q0 17 -11.5 28.5t-28.5 11.5h-59q-21 0 -35.5 14.5t-14.5 35.5t14.5 35t35.5 14h149q20 0 34.5 -14t14.5 -35v-217
q0 -22 -14 -36l-82 -82q-15 -15 -37 -15h-183q-21 0 -36 15l-83 82q-13 13 -13 36v435q0 19 13 35l83 82q15 15 36 15h183q22 0 37 -15l82 -82q8 -8 11 -17t3 -18v-45q0 -21 -14.5 -35.5t-34.5 -14.5q-21 0 -35.5 14.5t-14.5 35.5v11zM316 -244q-8 -8 -17.5 -11t-18.5 -3
t-18.5 3.5t-16.5 10.5q-15 16 -15 35q0 21 15 36l80 80q7 8 16.5 11t18.5 3q21 0 35 -14q15 -17 15 -35q0 -21 -15 -36z" />
    <glyph glyph-name="Hcircumflex" unicode="&#x124;" 
d="M260 810q-13 -11 -31 -11q-19 0 -32 12t-13 31q0 20 13 32l92 91q13 13 31 13q19 0 32 -13l92 -91q7 -6 9 -14.5t2 -17.5q0 -43 -43 -43q-9 0 -17.5 2t-14.5 9l-36 36q-11 11 -24 11t-23 -10zM544 49q0 -20 -14.5 -34.5t-34.5 -14.5q-22 0 -36 14.5t-14 34.5v211
q0 17 -11.5 29t-28.5 12h-170q-17 0 -28.5 -12t-11.5 -29v-211q0 -20 -14.5 -34.5t-35.5 -14.5t-35 14.5t-14 34.5v602q0 20 14 34.5t35 14.5t35.5 -14.5t14.5 -34.5v-211q0 -17 11.5 -29t28.5 -12h170q17 0 28.5 12t11.5 29v211q0 20 14 34.5t36 14.5q20 0 34.5 -14.5
t14.5 -34.5v-602z" />
    <glyph glyph-name="hcircumflex" unicode="&#x125;" 
d="M544 49q0 -20 -14.5 -34.5t-34.5 -14.5q-22 0 -36 14.5t-14 34.5v211q0 17 -11.5 29t-28.5 12h-170q-17 0 -28.5 -12t-11.5 -29v-211q0 -20 -14.5 -34.5t-35.5 -14.5t-35 14.5t-14 34.5v602q0 20 14 34.5t35 14.5t35.5 -14.5t14.5 -34.5v-211q0 -17 11.5 -29t28.5 -12
h170q17 0 28.5 12t11.5 29v211q0 20 14 34.5t36 14.5q20 0 34.5 -14.5t14.5 -34.5v-602zM297 847q10 10 23 10t24 -11l36 -36q6 -7 14.5 -9t17.5 -2q43 0 43 43q0 9 -2 17.5t-9 14.5l-92 91q-13 13 -32 13q-18 0 -31 -13l-92 -91q-13 -12 -13 -32q0 -19 13 -31t32 -12
q18 0 31 11z" />
    <glyph glyph-name="Hbar" unicode="&#x126;" 
d="M446 651q0 20 14 34.5t36 14.5q20 0 34.5 -14.5t14.5 -34.5v-49q0 -10 10 -10h9q21 0 35 -14t14 -35t-14 -35.5t-35 -14.5h-9q-10 0 -10 -10v-435q0 -20 -14.5 -34.5t-34.5 -14.5q-22 0 -36 14.5t-14 34.5v211q0 17 -11.5 29t-28.5 12h-170q-17 0 -28.5 -12t-11.5 -29
v-211q0 -20 -14.5 -34.5t-35.5 -14.5t-35 14.5t-14 34.5v435q0 10 -10 10h-10q-21 0 -35 14.5t-14 35.5t14 35t35 14h10q10 0 10 10v49q0 20 14 34.5t35 14.5t35.5 -14.5t14.5 -34.5v-49q0 -10 10 -10h230q10 0 10 10v49zM196 440q0 -17 11.5 -29t28.5 -12h170q17 0 28.5 12
t11.5 29v43q0 10 -10 10h-230q-10 0 -10 -10v-43z" />
    <glyph glyph-name="hbar" unicode="&#x127;" 
d="M446 651q0 20 14 34.5t36 14.5q20 0 34.5 -14.5t14.5 -34.5v-49q0 -10 10 -10h9q21 0 35 -14t14 -35t-14 -35.5t-35 -14.5h-9q-10 0 -10 -10v-435q0 -20 -14.5 -34.5t-34.5 -14.5q-22 0 -36 14.5t-14 34.5v211q0 17 -11.5 29t-28.5 12h-170q-17 0 -28.5 -12t-11.5 -29
v-211q0 -20 -14.5 -34.5t-35.5 -14.5t-35 14.5t-14 34.5v435q0 10 -10 10h-10q-21 0 -35 14.5t-14 35.5t14 35t35 14h10q10 0 10 10v49q0 20 14 34.5t35 14.5t35.5 -14.5t14.5 -34.5v-49q0 -10 10 -10h230q10 0 10 10v49zM196 440q0 -17 11.5 -29t28.5 -12h170q17 0 28.5 12
t11.5 29v43q0 10 -10 10h-230q-10 0 -10 -10v-43z" />
    <glyph glyph-name="Itilde" unicode="&#x128;" 
d="M242 894v-29q0 -18 -12.5 -30.5t-30.5 -12.5q-17 0 -29 12.5t-12 30.5v49q0 15 11 26l39 40q11 11 27 11h49q17 0 28 -11l39 -41q10 -10 10 -25v-20l13 -12h11l12 12v31q0 17 12.5 29t30.5 12q17 0 29 -12t12 -29v-50q0 -6 -2.5 -13.5t-7.5 -12.5l-40 -40
q-10 -10 -27 -10h-49q-17 0 -28 10l-39 40q-5 5 -7.5 12.5t-2.5 13.5v19l-13 13h-12zM189 0q-20 0 -34.5 14.5t-14.5 34.5q0 21 14.5 36t34.5 15h42q16 0 27.5 11t11.5 28v422q0 17 -11.5 28t-27.5 11h-42q-20 0 -34.5 15t-14.5 36q0 20 14.5 34.5t34.5 14.5h262
q20 0 34.5 -14.5t14.5 -34.5q0 -21 -14.5 -36t-34.5 -15h-42q-17 0 -28 -11t-11 -28v-422q0 -17 11 -28t28 -11h42q20 0 34.5 -15t14.5 -36q0 -20 -14.5 -34.5t-34.5 -14.5h-262z" />
    <glyph glyph-name="itilde" unicode="&#x129;" 
d="M242 894v-29q0 -18 -12.5 -30.5t-30.5 -12.5q-17 0 -29 12.5t-12 30.5v49q0 15 11 26l39 40q11 11 27 11h49q17 0 28 -11l39 -41q10 -10 10 -25v-20l13 -12h11l12 12v31q0 17 12.5 29t30.5 12q17 0 29 -12t12 -29v-50q0 -6 -2.5 -13.5t-7.5 -12.5l-40 -40
q-10 -10 -27 -10h-49q-17 0 -28 10l-39 40q-5 5 -7.5 12.5t-2.5 13.5v19l-13 13h-12zM189 0q-20 0 -34.5 14.5t-14.5 34.5q0 21 14.5 35.5t34.5 14.5h41q17 0 28.5 11.5t11.5 27.5v420q0 16 -11.5 27.5t-28.5 11.5h-41q-20 0 -34.5 14.5t-14.5 35.5q0 20 14.5 34.5
t34.5 14.5h260q20 0 34.5 -14.5t14.5 -34.5q0 -21 -14.5 -35.5t-34.5 -14.5h-41q-17 0 -28 -11.5t-11 -27.5v-420q0 -16 11 -27.5t28 -11.5h41q20 0 34.5 -14.5t14.5 -35.5q0 -20 -14.5 -34.5t-34.5 -14.5h-260z" />
    <glyph glyph-name="Imacron" unicode="&#x12a;" 
d="M227 808q-21 0 -35 14.5t-14 35.5q0 20 14 35t35 15h186q21 0 35 -15t14 -35q0 -21 -14 -35.5t-35 -14.5h-186zM189 0q-20 0 -34.5 14.5t-14.5 34.5q0 21 14.5 36t34.5 15h42q16 0 27.5 11t11.5 28v422q0 17 -11.5 28t-27.5 11h-42q-20 0 -34.5 15t-14.5 36
q0 20 14.5 34.5t34.5 14.5h262q20 0 34.5 -14.5t14.5 -34.5q0 -21 -14.5 -36t-34.5 -15h-42q-17 0 -28 -11t-11 -28v-422q0 -17 11 -28t28 -11h42q20 0 34.5 -15t14.5 -36q0 -20 -14.5 -34.5t-34.5 -14.5h-262z" />
    <glyph glyph-name="imacron" unicode="&#x12b;" 
d="M227 808q-21 0 -35 14.5t-14 35.5q0 20 14 35t35 15h186q21 0 35 -15t14 -35q0 -21 -14 -35.5t-35 -14.5h-186zM189 0q-20 0 -34.5 14.5t-14.5 34.5q0 21 14.5 35.5t34.5 14.5h41q17 0 28.5 11.5t11.5 27.5v420q0 16 -11.5 27.5t-28.5 11.5h-41q-20 0 -34.5 14.5
t-14.5 35.5q0 20 14.5 34.5t34.5 14.5h260q20 0 34.5 -14.5t14.5 -34.5q0 -21 -14.5 -35.5t-34.5 -14.5h-41q-17 0 -28 -11.5t-11 -27.5v-420q0 -16 11 -27.5t28 -11.5h41q20 0 34.5 -14.5t14.5 -35.5q0 -20 -14.5 -34.5t-34.5 -14.5h-260z" />
    <glyph glyph-name="Ibreve" unicode="&#x12c;" 
d="M189 0q-20 0 -34.5 14.5t-14.5 34.5q0 21 14.5 36t34.5 15h42q16 0 27.5 11t11.5 28v422q0 17 -11.5 28t-27.5 11h-42q-20 0 -34.5 15t-14.5 36q0 20 14.5 34.5t34.5 14.5h262q20 0 34.5 -14.5t14.5 -34.5q0 -21 -14.5 -36t-34.5 -15h-42q-17 0 -28 -11t-11 -28v-422
q0 -17 11 -28t28 -11h42q20 0 34.5 -15t14.5 -36q0 -20 -14.5 -34.5t-34.5 -14.5h-262zM272 927q0 -13 9 -21l16 -16q8 -9 20 -9h5q12 0 21 9l16 16q9 8 9 21v10q0 17 11.5 29t29.5 12t30 -12t12 -29v-42q0 -17 -10 -27l-59 -60q-9 -9 -28 -9h-68q-19 0 -28 9l-59 60
q-10 10 -10 27v42q0 17 12 29t30 12q17 0 29 -12t12 -29v-10z" />
    <glyph glyph-name="ibreve" unicode="&#x12d;" 
d="M189 0q-20 0 -34.5 14.5t-14.5 34.5q0 21 14.5 36t34.5 15h42q16 0 27.5 11t11.5 28v422q0 17 -11.5 28t-27.5 11h-42q-20 0 -34.5 15t-14.5 36q0 20 14.5 34.5t34.5 14.5h262q20 0 34.5 -14.5t14.5 -34.5q0 -21 -14.5 -36t-34.5 -15h-42q-17 0 -28 -11t-11 -28v-422
q0 -17 11 -28t28 -11h42q20 0 34.5 -15t14.5 -36q0 -20 -14.5 -34.5t-34.5 -14.5h-262zM272 927q0 -13 9 -21l16 -16q8 -9 20 -9h5q12 0 21 9l16 16q9 8 9 21v10q0 17 11.5 29t29.5 12t30 -12t12 -29v-42q0 -17 -10 -27l-59 -60q-9 -9 -28 -9h-68q-19 0 -28 9l-59 60
q-10 10 -10 27v42q0 17 12 29t30 12q17 0 29 -12t12 -29v-10z" />
    <glyph glyph-name="Iogonek" unicode="&#x12e;" 
d="M358 0v-38q0 -18 -12 -30l-56 -56q-10 -7 -10 -22t10 -22l9 -8q7 -10 21 -10q15 0 22 10l6 6q11 9 27 9q15 0 26 -10t11 -26t-11 -27l-26 -26q-10 -10 -24 -10h-60q-14 0 -24 10l-52 51q-5 5 -7 11.5t-2 12.5v60q0 11 9 22l59 60q4 3 7 9.5t3 11.5v12h-94
q-20 0 -34.5 14.5t-14.5 34.5q0 21 14.5 36t34.5 15h42q16 0 27.5 11t11.5 28v422q0 17 -11.5 28t-27.5 11h-42q-20 0 -34.5 15t-14.5 36q0 20 14.5 34.5t34.5 14.5h262q20 0 34.5 -14.5t14.5 -34.5q0 -21 -14.5 -36t-34.5 -15h-42q-17 0 -28 -11t-11 -28v-422q0 -17 11 -28
t28 -11h42q20 0 34.5 -15t14.5 -36q0 -20 -14.5 -34.5t-34.5 -14.5h-94z" />
    <glyph glyph-name="iogonek" unicode="&#x12f;" 
d="M358 0v-38q0 -18 -12 -30l-56 -56q-10 -7 -10 -22t10 -22l9 -8q7 -10 21 -10q15 0 22 10l6 6q11 9 27 9q15 0 26 -10t11 -26t-11 -27l-26 -26q-10 -10 -24 -10h-60q-14 0 -24 10l-52 51q-5 5 -7 11.5t-2 12.5v60q0 11 9 22l59 60q4 3 7 9.5t3 11.5v12h-94
q-20 0 -34.5 14.5t-14.5 34.5q0 21 14.5 36t34.5 15h42q16 0 27.5 11t11.5 28v422q0 17 -11.5 28t-27.5 11h-42q-20 0 -34.5 15t-14.5 36q0 20 14.5 34.5t34.5 14.5h262q20 0 34.5 -14.5t14.5 -34.5q0 -21 -14.5 -36t-34.5 -15h-42q-17 0 -28 -11t-11 -28v-422q0 -17 11 -28
t28 -11h42q20 0 34.5 -15t14.5 -36q0 -20 -14.5 -34.5t-34.5 -14.5h-94z" />
    <glyph glyph-name="Idotaccent" unicode="&#x130;" 
d="M305 813q-21 0 -35.5 14.5t-14.5 35.5v29q0 21 14.5 35t35.5 14h29q21 0 35.5 -14t14.5 -35v-29q0 -21 -14.5 -35.5t-35.5 -14.5h-29zM189 0q-20 0 -34.5 14.5t-14.5 34.5q0 21 14.5 36t34.5 15h42q16 0 27.5 11t11.5 28v422q0 17 -11.5 28t-27.5 11h-42q-20 0 -34.5 15
t-14.5 36q0 20 14.5 34.5t34.5 14.5h262q20 0 34.5 -14.5t14.5 -34.5q0 -21 -14.5 -36t-34.5 -15h-42q-17 0 -28 -11t-11 -28v-422q0 -17 11 -28t28 -11h42q20 0 34.5 -15t14.5 -36q0 -20 -14.5 -34.5t-34.5 -14.5h-262z" />
    <glyph glyph-name="dotlessi" unicode="&#x131;" 
d="M189 0q-20 0 -34.5 14.5t-14.5 34.5q0 21 14.5 36t34.5 15h42q16 0 27.5 11t11.5 28v422q0 17 -11.5 28t-27.5 11h-42q-20 0 -34.5 15t-14.5 36q0 20 14.5 34.5t34.5 14.5h262q20 0 34.5 -14.5t14.5 -34.5q0 -21 -14.5 -36t-34.5 -15h-42q-17 0 -28 -11t-11 -28v-422
q0 -17 11 -28t28 -11h42q20 0 34.5 -15t14.5 -36q0 -20 -14.5 -34.5t-34.5 -14.5h-262z" />
    <glyph glyph-name="Jcircumflex" unicode="&#x134;" 
d="M339 810q-13 -11 -31 -11q-19 0 -32 12t-13 31q0 20 13 32l92 91q13 13 31 13q19 0 32 -13l92 -91q7 -6 9 -14.5t2 -17.5q0 -43 -43 -43q-9 0 -17.5 2t-14.5 9l-36 36q-11 11 -24 11t-23 -10zM446 561q0 17 -11.5 28t-28.5 11h-86q-20 0 -34.5 15t-14.5 36
q0 20 14.5 34.5t34.5 14.5h176q20 0 34.5 -14.5t14.5 -34.5v-518q0 -22 -14 -36l-82 -82q-15 -15 -36 -15h-184q-21 0 -36 15l-83 82q-13 13 -13 36v83q0 21 14 35.5t35 14.5t35.5 -14.5t14.5 -35.5v-50q0 -13 9 -21l37 -36q8 -9 20 -9h118q13 0 20 9l37 36q9 8 9 21v395z
" />
    <glyph glyph-name="jcircumflex" unicode="&#x135;" 
d="M339 810q-13 -11 -31 -11q-19 0 -32 12t-13 31q0 20 13 32l92 91q13 13 31 13q19 0 32 -13l92 -91q7 -6 9 -14.5t2 -17.5q0 -43 -43 -43q-9 0 -17.5 2t-14.5 9l-36 36q-11 11 -24 11t-23 -10zM446 561q0 17 -11.5 28t-28.5 11h-86q-20 0 -34.5 15t-14.5 36
q0 20 14.5 34.5t34.5 14.5h176q20 0 34.5 -14.5t14.5 -34.5v-518q0 -22 -14 -36l-82 -82q-15 -15 -36 -15h-184q-21 0 -36 15l-83 82q-13 13 -13 36v83q0 21 14 35.5t35 14.5t35.5 -14.5t14.5 -35.5v-50q0 -13 9 -21l37 -36q8 -9 20 -9h118q13 0 20 9l37 36q9 8 9 21v395z
" />
    <glyph glyph-name="uni0136" unicode="&#x136;" 
d="M235 301q-17 0 -28.5 -12t-11.5 -29v-211q0 -20 -14.5 -34.5t-35.5 -14.5t-35 14.5t-14 34.5v602q0 20 14 34.5t35 14.5t35.5 -14.5t14.5 -34.5v-211q0 -17 11.5 -29t28.5 -12h46q14 0 21 9l134 134q9 8 9 21v88q0 20 14.5 34.5t35.5 14.5q20 0 34.5 -14.5t14.5 -34.5
v-122q0 -8 -3 -17.5t-11 -17.5l-117 -115q-12 -13 -12 -29q0 -15 12 -29l117 -115q8 -8 11 -17.5t3 -17.5v-122q0 -20 -14.5 -34.5t-34.5 -14.5q-21 0 -35.5 14.5t-14.5 34.5v88q0 14 -9 21l-134 134q-7 9 -21 9h-46zM314 -245q-7 -8 -16.5 -11t-18.5 -3q-10 0 -19.5 3.5
t-15.5 10.5q-15 15 -15 35q0 21 15 36l79 80q8 8 17.5 11t18.5 3q20 0 35 -14.5t15 -34.5q0 -21 -15 -36z" />
    <glyph glyph-name="uni0137" unicode="&#x137;" 
d="M235 301q-17 0 -28.5 -12t-11.5 -29v-211q0 -20 -14.5 -34.5t-35.5 -14.5t-35 14.5t-14 34.5v602q0 20 14 34.5t35 14.5t35.5 -14.5t14.5 -34.5v-211q0 -17 11.5 -29t28.5 -12h46q14 0 21 9l134 134q9 8 9 21v88q0 20 14.5 34.5t35.5 14.5q20 0 34.5 -14.5t14.5 -34.5
v-122q0 -8 -3 -17.5t-11 -17.5l-117 -115q-12 -13 -12 -29q0 -15 12 -29l117 -115q8 -8 11 -17.5t3 -17.5v-122q0 -20 -14.5 -34.5t-34.5 -14.5q-21 0 -35.5 14.5t-14.5 34.5v88q0 14 -9 21l-134 134q-7 9 -21 9h-46zM394 -165q15 15 15 36q0 20 -15 34.5t-35 14.5
q-9 0 -18.5 -3t-17.5 -11l-79 -80q-15 -15 -15 -36q0 -20 15 -35q6 -7 15.5 -10.5t19.5 -3.5q9 0 18.5 3t16.5 11z" />
    <glyph glyph-name="kgreenlandic" unicode="&#x138;" 
d="M235 301q-17 0 -28.5 -12t-11.5 -29v-211q0 -20 -14.5 -34.5t-35.5 -14.5t-35 14.5t-14 34.5v602q0 20 14 34.5t35 14.5t35.5 -14.5t14.5 -34.5v-211q0 -17 11.5 -29t28.5 -12h46q14 0 21 9l134 134q9 8 9 21v88q0 20 14.5 34.5t35.5 14.5q20 0 34.5 -14.5t14.5 -34.5
v-122q0 -8 -3 -17.5t-11 -17.5l-117 -115q-12 -13 -12 -29q0 -15 12 -29l117 -115q8 -8 11 -17.5t3 -17.5v-122q0 -20 -14.5 -34.5t-34.5 -14.5q-21 0 -35.5 14.5t-14.5 34.5v88q0 14 -9 21l-134 134q-7 9 -21 9h-46z" />
    <glyph glyph-name="Lacute" unicode="&#x139;" 
d="M316 812q-8 -8 -17.5 -10.5t-18.5 -2.5q-21 0 -35.5 14t-14.5 35q0 20 15 35l79 81q8 8 17.5 11t18.5 3q20 0 35 -14.5t15 -34.5q0 -21 -15 -36zM195 139q0 -17 11.5 -28t28.5 -11h260q20 0 34.5 -15t14.5 -36q0 -20 -14.5 -34.5t-34.5 -14.5h-350q-21 0 -35 14.5
t-14 34.5v602q0 20 14 34.5t35 14.5t35.5 -14.5t14.5 -34.5v-512z" />
    <glyph glyph-name="lacute" unicode="&#x13a;" 
d="M195 139q0 -17 11.5 -28t28.5 -11h260q20 0 34.5 -15t14.5 -36q0 -20 -14.5 -34.5t-34.5 -14.5h-350q-21 0 -35 14.5t-14 34.5v602q0 20 14 34.5t35 14.5t35.5 -14.5t14.5 -34.5v-512zM316 812q-8 -8 -17.5 -10.5t-18.5 -2.5q-21 0 -35.5 14t-14.5 35q0 20 15 35l79 81
q8 8 17.5 11t18.5 3q20 0 35 -14.5t15 -34.5q0 -21 -15 -36z" />
    <glyph glyph-name="uni013B" unicode="&#x13b;" 
d="M195 139q0 -17 11.5 -28t28.5 -11h260q20 0 34.5 -15t14.5 -36q0 -20 -14.5 -34.5t-34.5 -14.5h-350q-21 0 -35 14.5t-14 34.5v602q0 20 14 34.5t35 14.5t35.5 -14.5t14.5 -34.5v-512zM314 -245q-7 -8 -16.5 -11t-18.5 -3q-10 0 -19.5 3.5t-15.5 10.5q-15 15 -15 35
q0 21 15 36l79 80q8 8 17.5 11t18.5 3q20 0 35 -14.5t15 -34.5q0 -21 -15 -36z" />
    <glyph glyph-name="uni013C" unicode="&#x13c;" 
d="M195 139q0 -17 11.5 -28t28.5 -11h260q20 0 34.5 -15t14.5 -36q0 -20 -14.5 -34.5t-34.5 -14.5h-350q-21 0 -35 14.5t-14 34.5v602q0 20 14 34.5t35 14.5t35.5 -14.5t14.5 -34.5v-512zM314 -245q-7 -8 -16.5 -11t-18.5 -3q-10 0 -19.5 3.5t-15.5 10.5q-15 15 -15 35
q0 21 15 36l79 80q8 8 17.5 11t18.5 3q20 0 35 -14.5t15 -34.5q0 -21 -15 -36z" />
    <glyph glyph-name="Lcaron" unicode="&#x13d;" 
d="M295 924q11 -11 25 -11q12 0 23 11l35 36q14 12 32 12t31 -12.5t13 -31.5q0 -16 -12 -30l-91 -92q-12 -12 -31 -12q-9 0 -17.5 2.5t-15.5 9.5l-90 91q-13 13 -13 31q0 19 13 32q15 12 31 12q19 0 32 -12zM195 139q0 -17 11.5 -28t28.5 -11h260q20 0 34.5 -15t14.5 -36
q0 -20 -14.5 -34.5t-34.5 -14.5h-350q-21 0 -35 14.5t-14 34.5v602q0 20 14 34.5t35 14.5t35.5 -14.5t14.5 -34.5v-512z" />
    <glyph glyph-name="lcaron" unicode="&#x13e;" 
d="M295 924q11 -11 25 -11q12 0 23 11l35 36q14 12 32 12t31 -12.5t13 -31.5q0 -16 -12 -30l-91 -92q-12 -12 -31 -12q-9 0 -17.5 2.5t-15.5 9.5l-90 91q-13 13 -13 31q0 19 13 32q15 12 31 12q19 0 32 -12zM195 139q0 -17 11.5 -28t28.5 -11h260q20 0 34.5 -15t14.5 -36
q0 -20 -14.5 -34.5t-34.5 -14.5h-350q-21 0 -35 14.5t-14 34.5v602q0 20 14 34.5t35 14.5t35.5 -14.5t14.5 -34.5v-512z" />
    <glyph glyph-name="Ldot" unicode="&#x13f;" 
d="M195 139q0 -17 11.5 -28t28.5 -11h260q20 0 34.5 -15t14.5 -36q0 -20 -14.5 -34.5t-34.5 -14.5h-350q-21 0 -35 14.5t-14 34.5v602q0 20 14 34.5t35 14.5t35.5 -14.5t14.5 -34.5v-512zM353 281q-21 0 -35 14.5t-14 34.5v40q0 20 14 34.5t35 14.5h39q21 0 35.5 -14.5
t14.5 -34.5v-40q0 -20 -14.5 -34.5t-35.5 -14.5h-39z" />
    <glyph glyph-name="ldot" unicode="&#x140;" 
d="M195 139q0 -17 11.5 -28t28.5 -11h260q20 0 34.5 -15t14.5 -36q0 -20 -14.5 -34.5t-34.5 -14.5h-350q-21 0 -35 14.5t-14 34.5v602q0 20 14 34.5t35 14.5t35.5 -14.5t14.5 -34.5v-512zM353 281q-21 0 -35 14.5t-14 34.5v40q0 20 14 34.5t35 14.5h39q21 0 35.5 -14.5
t14.5 -34.5v-40q0 -20 -14.5 -34.5t-35.5 -14.5h-39z" />
    <glyph glyph-name="Lslash" unicode="&#x141;" 
d="M196 445q0 -8 4 -8q3 0 6 3l55 55q15 15 35 15t35 -15.5t15 -36.5q0 -8 -3 -17t-11 -17l-126 -126q-10 -7 -10 -22v-137q0 -17 11.5 -28t28.5 -11h260q20 0 34.5 -15t14.5 -36q0 -20 -14.5 -34.5t-34.5 -14.5h-350q-21 0 -35 14.5t-14 34.5v138q0 5 -2 5q-3 0 -4 -1
q-3 -1 -7 -1h-6q-21 0 -35.5 15t-14.5 36q0 18 13 34l46 45q10 7 10 22v309q0 20 14 34.5t35 14.5t35.5 -14.5t14.5 -34.5v-206z" />
    <glyph glyph-name="lslash" unicode="&#x142;" 
d="M196 445q0 -8 4 -8q3 0 6 3l55 55q15 15 35 15t35 -15.5t15 -36.5q0 -8 -3 -17t-11 -17l-126 -126q-10 -7 -10 -22v-137q0 -17 11.5 -28t28.5 -11h260q20 0 34.5 -15t14.5 -36q0 -20 -14.5 -34.5t-34.5 -14.5h-350q-21 0 -35 14.5t-14 34.5v138q0 5 -2 5q-3 0 -4 -1
q-3 -1 -7 -1h-6q-21 0 -35.5 15t-14.5 36q0 18 13 34l46 45q10 7 10 22v309q0 20 14 34.5t35 14.5t35.5 -14.5t14.5 -34.5v-206z" />
    <glyph glyph-name="Nacute" unicode="&#x143;" 
d="M316 812q-8 -8 -17.5 -10.5t-18.5 -2.5q-21 0 -35.5 14t-14.5 35q0 20 15 35l79 81q8 8 17.5 11t18.5 3q20 0 35 -14.5t15 -34.5q0 -21 -15 -36zM438 247q3 -5 5 -5t2 7v402q0 20 14.5 34.5t35.5 14.5q20 0 34.5 -14.5t14.5 -34.5v-602q0 -20 -14.5 -34.5t-34.5 -14.5
q-14 0 -26 7t-17 18l-250 429q-2 5 -5 5q-2 0 -2 -7v-403q0 -20 -14.5 -34.5t-35.5 -14.5t-35 14.5t-14 34.5v602q0 20 14 34.5t35 14.5q30 0 43 -25z" />
    <glyph glyph-name="nacute" unicode="&#x144;" 
d="M438 247q3 -5 5 -5t2 7v402q0 20 14.5 34.5t35.5 14.5q20 0 34.5 -14.5t14.5 -34.5v-602q0 -20 -14.5 -34.5t-34.5 -14.5q-14 0 -26 7t-17 18l-250 429q-2 5 -5 5q-2 0 -2 -7v-403q0 -20 -14.5 -34.5t-35.5 -14.5t-35 14.5t-14 34.5v602q0 20 14 34.5t35 14.5
q30 0 43 -25zM316 812q-8 -8 -17.5 -10.5t-18.5 -2.5q-21 0 -35.5 14t-14.5 35q0 20 15 35l79 81q8 8 17.5 11t18.5 3q20 0 35 -14.5t15 -34.5q0 -21 -15 -36z" />
    <glyph glyph-name="uni0145" unicode="&#x145;" 
d="M438 247q3 -5 5 -5t2 7v402q0 20 14.5 34.5t35.5 14.5q20 0 34.5 -14.5t14.5 -34.5v-602q0 -20 -14.5 -34.5t-34.5 -14.5q-14 0 -26 7t-17 18l-250 429q-2 5 -5 5q-2 0 -2 -7v-403q0 -20 -14.5 -34.5t-35.5 -14.5t-35 14.5t-14 34.5v602q0 20 14 34.5t35 14.5
q30 0 43 -25zM314 -245q-7 -8 -16.5 -11t-18.5 -3q-10 0 -19.5 3.5t-15.5 10.5q-15 15 -15 35q0 21 15 36l79 80q8 8 17.5 11t18.5 3q20 0 35 -14.5t15 -34.5q0 -21 -15 -36z" />
    <glyph glyph-name="uni0146" unicode="&#x146;" 
d="M438 247q3 -5 5 -5t2 7v402q0 20 14.5 34.5t35.5 14.5q20 0 34.5 -14.5t14.5 -34.5v-602q0 -20 -14.5 -34.5t-34.5 -14.5q-14 0 -26 7t-17 18l-250 429q-2 5 -5 5q-2 0 -2 -7v-403q0 -20 -14.5 -34.5t-35.5 -14.5t-35 14.5t-14 34.5v602q0 20 14 34.5t35 14.5
q30 0 43 -25zM314 -245q-7 -8 -16.5 -11t-18.5 -3q-10 0 -19.5 3.5t-15.5 10.5q-15 15 -15 35q0 21 15 36l79 80q8 8 17.5 11t18.5 3q20 0 35 -14.5t15 -34.5q0 -21 -15 -36z" />
    <glyph glyph-name="Ncaron" unicode="&#x147;" 
d="M296 930q11 -11 24 -11t24 11l36 35q12 13 31 13t31.5 -13t12.5 -31t-11 -31l-92 -93q-7 -7 -15.5 -9t-16.5 -2t-16.5 2t-15.5 9l-91 92q-13 13 -13 32q0 17 13.5 30.5t31.5 13.5t31 -13zM438 247q3 -5 5 -5t2 7v402q0 20 14.5 34.5t35.5 14.5q20 0 34.5 -14.5
t14.5 -34.5v-602q0 -20 -14.5 -34.5t-34.5 -14.5q-14 0 -26 7t-17 18l-250 429q-2 5 -5 5q-2 0 -2 -7v-403q0 -20 -14.5 -34.5t-35.5 -14.5t-35 14.5t-14 34.5v602q0 20 14 34.5t35 14.5q30 0 43 -25z" />
    <glyph glyph-name="ncaron" unicode="&#x148;" 
d="M438 247q3 -5 5 -5t2 7v402q0 20 14.5 34.5t35.5 14.5q20 0 34.5 -14.5t14.5 -34.5v-602q0 -20 -14.5 -34.5t-34.5 -14.5q-14 0 -26 7t-17 18l-250 429q-2 5 -5 5q-2 0 -2 -7v-403q0 -20 -14.5 -34.5t-35.5 -14.5t-35 14.5t-14 34.5v602q0 20 14 34.5t35 14.5
q30 0 43 -25zM296 930q11 -11 24 -11t24 11l36 35q12 13 31 13t31.5 -13t12.5 -31t-11 -31l-92 -93q-7 -7 -15.5 -9t-16.5 -2t-16.5 2t-15.5 9l-91 92q-13 13 -13 32q0 17 13.5 30.5t31.5 13.5t31 -13z" />
    <glyph glyph-name="Eng" unicode="&#x14a;" 
d="M194 656l30 29q7 6 16 10.5t20 4.5h152q10 0 19.5 -4.5t16.5 -10.5l82 -83q14 -14 14 -35v-654q0 -9 -3 -18.5t-11 -17.5l-82 -82q-15 -15 -36 -15h-93q-20 0 -34.5 14.5t-14.5 35.5q0 20 14.5 35t34.5 15h60q13 0 20 9l37 36q9 7 9 21v587q0 14 -9 21l-37 38
q-4 3 -9.5 5.5t-10.5 2.5h-86q-5 0 -11 -2.5t-10 -5.5l-68 -69q-9 -7 -9 -21v-453q0 -20 -14.5 -34.5t-35.5 -14.5t-35 14.5t-14 34.5v601q0 20 14 35t35 15q18 0 32 -11.5t17 -28.5v-4z" />
    <glyph glyph-name="eng" unicode="&#x14b;" 
d="M194 656l30 29q7 6 16 10.5t20 4.5h152q10 0 19.5 -4.5t16.5 -10.5l82 -83q14 -14 14 -35v-654q0 -9 -3 -18.5t-11 -17.5l-82 -82q-15 -15 -36 -15h-93q-20 0 -34.5 14.5t-14.5 35.5q0 20 14.5 35t34.5 15h60q13 0 20 9l37 36q9 7 9 21v587q0 14 -9 21l-37 38
q-4 3 -9.5 5.5t-10.5 2.5h-86q-5 0 -11 -2.5t-10 -5.5l-68 -69q-9 -7 -9 -21v-453q0 -20 -14.5 -34.5t-35.5 -14.5t-35 14.5t-14 34.5v601q0 20 14 35t35 15q18 0 32 -11.5t17 -28.5v-4z" />
    <glyph glyph-name="Omacron" unicode="&#x14c;" 
d="M227 808q-21 0 -35 14.5t-14 35.5q0 20 14 35t35 15h186q21 0 35 -15t14 -35q0 -21 -14 -35.5t-35 -14.5h-186zM530 603q8 -8 11 -17t3 -18v-436q0 -9 -3 -18t-11 -17l-82 -82q-15 -15 -37 -15h-183q-21 0 -36 15l-83 82q-13 16 -13 35v436q0 19 13 35l83 82q15 15 36 15
h183q22 0 37 -15zM436 145q9 8 9 21v368q0 14 -9 21l-37 37q-8 8 -20 8h-118q-12 0 -20 -8l-37 -37q-9 -7 -9 -21v-368q0 -13 9 -21l37 -36q8 -9 20 -9h118q13 0 20 9z" />
    <glyph glyph-name="omacron" unicode="&#x14d;" 
d="M530 603q8 -8 11 -17t3 -18v-436q0 -9 -3 -18t-11 -17l-82 -82q-15 -15 -37 -15h-183q-21 0 -36 15l-83 82q-13 16 -13 35v436q0 19 13 35l83 82q15 15 36 15h183q22 0 37 -15zM436 145q9 8 9 21v368q0 14 -9 21l-37 37q-8 8 -20 8h-118q-12 0 -20 -8l-37 -37
q-9 -7 -9 -21v-368q0 -13 9 -21l37 -36q8 -9 20 -9h118q13 0 20 9zM227 808q-21 0 -35 14.5t-14 35.5q0 20 14 35t35 15h186q21 0 35 -15t14 -35q0 -21 -14 -35.5t-35 -14.5h-186z" />
    <glyph glyph-name="Obreve" unicode="&#x14e;" 
d="M272 927q0 -13 9 -21l16 -16q8 -9 20 -9h5q12 0 21 9l16 16q9 8 9 21v10q0 17 11.5 29t29.5 12t30 -12t12 -29v-42q0 -17 -10 -27l-59 -60q-9 -9 -28 -9h-68q-19 0 -28 9l-59 60q-10 10 -10 27v42q0 17 12 29t30 12q17 0 29 -12t12 -29v-10zM530 603q8 -8 11 -17t3 -18
v-436q0 -9 -3 -18t-11 -17l-82 -82q-15 -15 -37 -15h-183q-21 0 -36 15l-83 82q-13 16 -13 35v436q0 19 13 35l83 82q15 15 36 15h183q22 0 37 -15zM436 145q9 8 9 21v368q0 14 -9 21l-37 37q-8 8 -20 8h-118q-12 0 -20 -8l-37 -37q-9 -7 -9 -21v-368q0 -13 9 -21l37 -36
q8 -9 20 -9h118q13 0 20 9z" />
    <glyph glyph-name="obreve" unicode="&#x14f;" 
d="M530 603q8 -8 11 -17t3 -18v-436q0 -9 -3 -18t-11 -17l-82 -82q-15 -15 -37 -15h-183q-21 0 -36 15l-83 82q-13 16 -13 35v436q0 19 13 35l83 82q15 15 36 15h183q22 0 37 -15zM436 145q9 8 9 21v368q0 14 -9 21l-37 37q-8 8 -20 8h-118q-12 0 -20 -8l-37 -37
q-9 -7 -9 -21v-368q0 -13 9 -21l37 -36q8 -9 20 -9h118q13 0 20 9zM272 927q0 -13 9 -21l16 -16q8 -9 20 -9h5q12 0 21 9l16 16q9 8 9 21v10q0 17 11.5 29t29.5 12t30 -12t12 -29v-42q0 -17 -10 -27l-59 -60q-9 -9 -28 -9h-68q-19 0 -28 9l-59 60q-10 10 -10 27v42
q0 17 12 29t30 12q17 0 29 -12t12 -29v-10z" />
    <glyph glyph-name="Ohungarumlaut" unicode="&#x150;" 
d="M230 812q-8 -8 -17 -10.5t-19 -2.5q-20 0 -34.5 14t-14.5 35t14 35l81 81q14 14 35 14t35 -14.5t14 -34.5q0 -23 -13 -36zM400 812q-8 -8 -17 -10.5t-18 -2.5q-21 0 -35.5 14t-14.5 35t14 35l80 81q8 8 17.5 11t18.5 3q20 0 35 -14.5t15 -34.5q0 -21 -15 -36zM530 603
q8 -8 11 -17t3 -18v-436q0 -9 -3 -18t-11 -17l-82 -82q-15 -15 -37 -15h-183q-21 0 -36 15l-83 82q-13 16 -13 35v436q0 19 13 35l83 82q15 15 36 15h183q22 0 37 -15zM436 145q9 8 9 21v368q0 14 -9 21l-37 37q-8 8 -20 8h-118q-12 0 -20 -8l-37 -37q-9 -7 -9 -21v-368
q0 -13 9 -21l37 -36q8 -9 20 -9h118q13 0 20 9z" />
    <glyph glyph-name="ohungarumlaut" unicode="&#x151;" 
d="M530 603q8 -8 11 -17t3 -18v-436q0 -9 -3 -18t-11 -17l-82 -82q-15 -15 -37 -15h-183q-21 0 -36 15l-83 82q-13 16 -13 35v436q0 19 13 35l83 82q15 15 36 15h183q22 0 37 -15zM436 145q9 8 9 21v368q0 14 -9 21l-37 37q-8 8 -20 8h-118q-12 0 -20 -8l-37 -37
q-9 -7 -9 -21v-368q0 -13 9 -21l37 -36q8 -9 20 -9h118q13 0 20 9zM230 812q-8 -8 -17 -10.5t-19 -2.5q-20 0 -34.5 14t-14.5 35t14 35l81 81q14 14 35 14t35 -14.5t14 -34.5q0 -23 -13 -36zM400 812q-8 -8 -17 -10.5t-18 -2.5q-21 0 -35.5 14t-14.5 35t14 35l80 81
q8 8 17.5 11t18.5 3q20 0 35 -14.5t15 -34.5q0 -21 -15 -36z" />
    <glyph glyph-name="OE" unicode="&#x152;" 
d="M270 591q0 9 -10 9h-18q-13 0 -22 -9l-35 -35q-5 -4 -7 -10t-2 -12v-368q0 -14 9 -22l35 -35q9 -9 22 -9h18q10 0 10 9v482zM208 0q-21 0 -35 15l-83 82q-14 14 -14 36v435q0 9 3 18t11 17l83 82q14 15 35 15h307q20 0 34.5 -14.5t14.5 -34.5q0 -21 -14.5 -36t-34.5 -15
h-106q-17 0 -28 -11t-11 -28v-121q0 -17 11 -29t28 -12h86q20 0 34.5 -14t14.5 -35t-14.5 -35.5t-34.5 -14.5h-86q-17 0 -28 -12t-11 -29v-120q0 -17 11 -28t28 -11h106q20 0 34.5 -15t14.5 -36q0 -20 -14.5 -34.5t-34.5 -14.5h-307z" />
    <glyph glyph-name="oe" unicode="&#x153;" 
d="M270 591q0 9 -10 9h-18q-13 0 -22 -9l-35 -35q-5 -4 -7 -10t-2 -12v-368q0 -14 9 -22l35 -35q9 -9 22 -9h18q10 0 10 9v482zM208 0q-21 0 -35 15l-83 82q-14 14 -14 36v435q0 9 3 18t11 17l83 82q14 15 35 15h307q20 0 34.5 -14.5t14.5 -34.5q0 -21 -14.5 -36t-34.5 -15
h-106q-17 0 -28 -11t-11 -28v-121q0 -17 11 -29t28 -12h86q20 0 34.5 -14t14.5 -35t-14.5 -35.5t-34.5 -14.5h-86q-17 0 -28 -12t-11 -29v-120q0 -17 11 -28t28 -11h106q20 0 34.5 -15t14.5 -36q0 -20 -14.5 -34.5t-34.5 -14.5h-307z" />
    <glyph glyph-name="Racute" unicode="&#x154;" 
d="M316 812q-8 -8 -17.5 -10.5t-18.5 -2.5q-21 0 -35.5 14t-14.5 35q0 20 15 35l79 81q8 8 17.5 11t18.5 3q20 0 35 -14.5t15 -34.5q0 -21 -15 -36zM235 278q-17 0 -28.5 -11.5t-11.5 -27.5v-190q0 -20 -14.5 -34.5t-35.5 -14.5t-35 14.5t-14 34.5v602q0 20 14 34.5t35 14.5
h246q21 0 37 -15l102 -102q14 -14 14 -36v-116q0 -21 -15 -36l-39 -39q-12 -12 -12 -28q0 -15 12 -29l40 -39q14 -14 14 -35v-176q0 -20 -14.5 -34.5t-34.5 -14.5q-21 0 -35.5 14.5t-14.5 34.5v142q0 14 -9 21l-57 57q-7 9 -21 9h-123zM436 444q9 8 9 20v50q0 13 -9 20
l-57 58q-8 8 -21 8h-123q-17 0 -28.5 -11t-11.5 -28v-144q0 -17 11.5 -28t28.5 -11h123q13 0 21 8z" />
    <glyph glyph-name="racute" unicode="&#x155;" 
d="M235 278q-17 0 -28.5 -11.5t-11.5 -27.5v-190q0 -20 -14.5 -34.5t-35.5 -14.5t-35 14.5t-14 34.5v602q0 20 14 34.5t35 14.5h246q21 0 37 -15l102 -102q14 -14 14 -36v-116q0 -21 -15 -36l-39 -39q-12 -12 -12 -28q0 -15 12 -29l40 -39q14 -14 14 -35v-176
q0 -20 -14.5 -34.5t-34.5 -14.5q-21 0 -35.5 14.5t-14.5 34.5v142q0 14 -9 21l-57 57q-7 9 -21 9h-123zM436 444q9 8 9 20v50q0 13 -9 20l-57 58q-8 8 -21 8h-123q-17 0 -28.5 -11t-11.5 -28v-144q0 -17 11.5 -28t28.5 -11h123q13 0 21 8zM316 812q-8 -8 -17.5 -10.5
t-18.5 -2.5q-21 0 -35.5 14t-14.5 35q0 20 15 35l79 81q8 8 17.5 11t18.5 3q20 0 35 -14.5t15 -34.5q0 -21 -15 -36z" />
    <glyph glyph-name="uni0156" unicode="&#x156;" 
d="M235 278q-17 0 -28.5 -11.5t-11.5 -27.5v-190q0 -20 -14.5 -34.5t-35.5 -14.5t-35 14.5t-14 34.5v602q0 20 14 34.5t35 14.5h246q21 0 37 -15l102 -102q14 -14 14 -36v-116q0 -21 -15 -36l-39 -39q-12 -12 -12 -28q0 -15 12 -29l40 -39q14 -14 14 -35v-176
q0 -20 -14.5 -34.5t-34.5 -14.5q-21 0 -35.5 14.5t-14.5 34.5v142q0 14 -9 21l-57 57q-7 9 -21 9h-123zM436 444q9 8 9 20v50q0 13 -9 20l-57 58q-8 8 -21 8h-123q-17 0 -28.5 -11t-11.5 -28v-144q0 -17 11.5 -28t28.5 -11h123q13 0 21 8zM394 -165q15 15 15 36
q0 20 -15 34.5t-35 14.5q-9 0 -18.5 -3t-17.5 -11l-79 -80q-15 -15 -15 -36q0 -20 15 -35q6 -7 15.5 -10.5t19.5 -3.5q9 0 18.5 3t16.5 11z" />
    <glyph glyph-name="uni0157" unicode="&#x157;" 
d="M235 278q-17 0 -28.5 -11.5t-11.5 -27.5v-190q0 -20 -14.5 -34.5t-35.5 -14.5t-35 14.5t-14 34.5v602q0 20 14 34.5t35 14.5h246q21 0 37 -15l102 -102q14 -14 14 -36v-116q0 -21 -15 -36l-39 -39q-12 -12 -12 -28q0 -15 12 -29l40 -39q14 -14 14 -35v-176
q0 -20 -14.5 -34.5t-34.5 -14.5q-21 0 -35.5 14.5t-14.5 34.5v142q0 14 -9 21l-57 57q-7 9 -21 9h-123zM436 444q9 8 9 20v50q0 13 -9 20l-57 58q-8 8 -21 8h-123q-17 0 -28.5 -11t-11.5 -28v-144q0 -17 11.5 -28t28.5 -11h123q13 0 21 8zM394 -165q15 15 15 36
q0 20 -15 34.5t-35 14.5q-9 0 -18.5 -3t-17.5 -11l-79 -80q-15 -15 -15 -36q0 -20 15 -35q6 -7 15.5 -10.5t19.5 -3.5q9 0 18.5 3t16.5 11z" />
    <glyph glyph-name="Rcaron" unicode="&#x158;" 
d="M296 930q11 -11 24 -11t24 11l36 35q12 13 31 13t31.5 -13t12.5 -31t-11 -31l-92 -93q-7 -7 -15.5 -9t-16.5 -2t-16.5 2t-15.5 9l-91 92q-13 13 -13 32q0 17 13.5 30.5t31.5 13.5t31 -13zM235 278q-17 0 -28.5 -11.5t-11.5 -27.5v-190q0 -20 -14.5 -34.5t-35.5 -14.5
t-35 14.5t-14 34.5v602q0 20 14 34.5t35 14.5h246q21 0 37 -15l102 -102q14 -14 14 -36v-116q0 -21 -15 -36l-39 -39q-12 -12 -12 -28q0 -15 12 -29l40 -39q14 -14 14 -35v-176q0 -20 -14.5 -34.5t-34.5 -14.5q-21 0 -35.5 14.5t-14.5 34.5v142q0 14 -9 21l-57 57
q-7 9 -21 9h-123zM436 444q9 8 9 20v50q0 13 -9 20l-57 58q-8 8 -21 8h-123q-17 0 -28.5 -11t-11.5 -28v-144q0 -17 11.5 -28t28.5 -11h123q13 0 21 8z" />
    <glyph glyph-name="rcaron" unicode="&#x159;" 
d="M235 278q-17 0 -28.5 -11.5t-11.5 -27.5v-190q0 -20 -14.5 -34.5t-35.5 -14.5t-35 14.5t-14 34.5v602q0 20 14 34.5t35 14.5h246q21 0 37 -15l102 -102q14 -14 14 -36v-116q0 -21 -15 -36l-39 -39q-12 -12 -12 -28q0 -15 12 -29l40 -39q14 -14 14 -35v-176
q0 -20 -14.5 -34.5t-34.5 -14.5q-21 0 -35.5 14.5t-14.5 34.5v142q0 14 -9 21l-57 57q-7 9 -21 9h-123zM436 444q9 8 9 20v50q0 13 -9 20l-57 58q-8 8 -21 8h-123q-17 0 -28.5 -11t-11.5 -28v-144q0 -17 11.5 -28t28.5 -11h123q13 0 21 8zM260 965q-13 13 -31 13
t-31.5 -13.5t-13.5 -30.5q0 -19 13 -32l91 -92q7 -7 15.5 -9t16.5 -2t16.5 2t15.5 9l92 93q11 13 11 31t-12.5 31t-31.5 13t-31 -13l-36 -35q-11 -11 -24 -11t-24 11z" />
    <glyph glyph-name="Sacute" unicode="&#x15a;" 
d="M316 812q-8 -8 -17.5 -10.5t-18.5 -2.5q-21 0 -35.5 14t-14.5 35q0 20 15 35l79 81q8 8 17.5 11t18.5 3q20 0 35 -14.5t15 -34.5q0 -21 -15 -36zM445 534q0 14 -9 21l-37 37q-8 8 -20 8h-118q-12 0 -20 -8l-37 -37q-9 -7 -9 -21v-68q0 -12 9 -20l37 -38q9 -9 20 -9h151
q10 0 19.5 -4t16.5 -10l82 -83q14 -14 14 -36v-134q0 -9 -3 -18t-11 -17l-82 -82q-15 -15 -36 -15h-184q-21 0 -36 15l-83 82q-13 16 -13 35v46q0 20 14 34t35 14t35.5 -14t14.5 -34v-12q0 -13 9 -21l37 -36q8 -9 20 -9h118q13 0 20 9l37 36q9 8 9 21v67q0 13 -9 20l-37 38
q-9 9 -20 9h-151q-10 0 -19.5 4t-16.5 10l-83 83q-13 13 -13 36v135q0 19 13 35l83 82q15 15 36 15h184q21 0 36 -15l82 -82q8 -8 11 -17t3 -18v-45q0 -21 -14.5 -35.5t-34.5 -14.5q-21 0 -35.5 14.5t-14.5 35.5v11z" />
    <glyph glyph-name="sacute" unicode="&#x15b;" 
d="M445 534q0 14 -9 21l-37 37q-8 8 -20 8h-118q-12 0 -20 -8l-37 -37q-9 -7 -9 -21v-68q0 -12 9 -20l37 -38q9 -9 20 -9h151q10 0 19.5 -4t16.5 -10l82 -83q14 -14 14 -36v-134q0 -9 -3 -18t-11 -17l-82 -82q-15 -15 -36 -15h-184q-21 0 -36 15l-83 82q-13 16 -13 35v46
q0 20 14 34t35 14t35.5 -14t14.5 -34v-12q0 -13 9 -21l37 -36q8 -9 20 -9h118q13 0 20 9l37 36q9 8 9 21v67q0 13 -9 20l-37 38q-9 9 -20 9h-151q-10 0 -19.5 4t-16.5 10l-83 83q-13 13 -13 36v135q0 19 13 35l83 82q15 15 36 15h184q21 0 36 -15l82 -82q8 -8 11 -17t3 -18
v-45q0 -21 -14.5 -35.5t-34.5 -14.5q-21 0 -35.5 14.5t-14.5 35.5v11zM316 812q-8 -8 -17.5 -10.5t-18.5 -2.5q-21 0 -35.5 14t-14.5 35q0 20 15 35l79 81q8 8 17.5 11t18.5 3q20 0 35 -14.5t15 -34.5q0 -21 -15 -36z" />
    <glyph glyph-name="Scircumflex" unicode="&#x15c;" 
d="M260 810q-13 -11 -31 -11q-19 0 -32 12t-13 31q0 20 13 32l92 91q13 13 31 13q19 0 32 -13l92 -91q7 -6 9 -14.5t2 -17.5q0 -43 -43 -43q-9 0 -17.5 2t-14.5 9l-36 36q-11 11 -24 11t-23 -10zM445 534q0 14 -9 21l-37 37q-8 8 -20 8h-118q-12 0 -20 -8l-37 -37
q-9 -7 -9 -21v-68q0 -12 9 -20l37 -38q9 -9 20 -9h151q10 0 19.5 -4t16.5 -10l82 -83q14 -14 14 -36v-134q0 -9 -3 -18t-11 -17l-82 -82q-15 -15 -36 -15h-184q-21 0 -36 15l-83 82q-13 16 -13 35v46q0 20 14 34t35 14t35.5 -14t14.5 -34v-12q0 -13 9 -21l37 -36q8 -9 20 -9
h118q13 0 20 9l37 36q9 8 9 21v67q0 13 -9 20l-37 38q-9 9 -20 9h-151q-10 0 -19.5 4t-16.5 10l-83 83q-13 13 -13 36v135q0 19 13 35l83 82q15 15 36 15h184q21 0 36 -15l82 -82q8 -8 11 -17t3 -18v-45q0 -21 -14.5 -35.5t-34.5 -14.5q-21 0 -35.5 14.5t-14.5 35.5v11z" />
    <glyph glyph-name="scircumflex" unicode="&#x15d;" 
d="M445 534q0 14 -9 21l-37 37q-8 8 -20 8h-118q-12 0 -20 -8l-37 -37q-9 -7 -9 -21v-68q0 -12 9 -20l37 -38q9 -9 20 -9h151q10 0 19.5 -4t16.5 -10l82 -83q14 -14 14 -36v-134q0 -9 -3 -18t-11 -17l-82 -82q-15 -15 -36 -15h-184q-21 0 -36 15l-83 82q-13 16 -13 35v46
q0 20 14 34t35 14t35.5 -14t14.5 -34v-12q0 -13 9 -21l37 -36q8 -9 20 -9h118q13 0 20 9l37 36q9 8 9 21v67q0 13 -9 20l-37 38q-9 9 -20 9h-151q-10 0 -19.5 4t-16.5 10l-83 83q-13 13 -13 36v135q0 19 13 35l83 82q15 15 36 15h184q21 0 36 -15l82 -82q8 -8 11 -17t3 -18
v-45q0 -21 -14.5 -35.5t-34.5 -14.5q-21 0 -35.5 14.5t-14.5 35.5v11zM260 810q-13 -11 -31 -11q-19 0 -32 12t-13 31q0 20 13 32l92 91q13 13 31 13q19 0 32 -13l92 -91q7 -6 9 -14.5t2 -17.5q0 -43 -43 -43q-9 0 -17.5 2t-14.5 9l-36 36q-11 11 -24 11t-23 -10z" />
    <glyph glyph-name="Scedilla" unicode="&#x15e;" 
d="M446 534q0 14 -9 21l-37 37q-8 8 -20 8h-118q-12 0 -20 -8l-37 -37q-9 -7 -9 -21v-68q0 -12 9 -20l37 -38q9 -9 20 -9h151q10 0 19.5 -4t16.5 -10l82 -83q14 -14 14 -36v-134q0 -9 -3 -18t-11 -17l-82 -82q-15 -15 -36 -15h-55v-11q0 -5 3 -11.5t7 -9.5l59 -60
q9 -11 9 -22v-60q0 -6 -2 -12.5t-7 -11.5l-52 -51q-10 -10 -24 -10h-60q-14 0 -24 10l-26 26q-11 11 -11 27t11 26t26 10q7 0 14.5 -2t12.5 -7l6 -6q7 -10 21 -10q15 0 22 10l9 8q10 7 10 22t-10 22l-56 56q-12 12 -12 30v37h-55q-21 0 -36 15l-83 82q-13 16 -13 35v46
q0 20 14 34t35 14t35.5 -14t14.5 -34v-12q0 -13 9 -21l37 -36q8 -9 20 -9h118q13 0 20 9l37 36q9 8 9 21v67q0 13 -9 20l-37 38q-9 9 -20 9h-151q-10 0 -19.5 4t-16.5 10l-83 83q-13 13 -13 36v135q0 19 13 35l83 82q15 15 36 15h184q21 0 36 -15l82 -82q8 -8 11 -17t3 -18
v-45q0 -21 -14.5 -35.5t-34.5 -14.5q-21 0 -35.5 14.5t-14.5 35.5v11z" />
    <glyph glyph-name="scedilla" unicode="&#x15f;" 
d="M446 534q0 14 -9 21l-37 37q-8 8 -20 8h-118q-12 0 -20 -8l-37 -37q-9 -7 -9 -21v-68q0 -12 9 -20l37 -38q9 -9 20 -9h151q10 0 19.5 -4t16.5 -10l82 -83q14 -14 14 -36v-134q0 -9 -3 -18t-11 -17l-82 -82q-15 -15 -36 -15h-55v-11q0 -5 3 -11.5t7 -9.5l59 -60
q9 -11 9 -22v-60q0 -6 -2 -12.5t-7 -11.5l-52 -51q-10 -10 -24 -10h-60q-14 0 -24 10l-26 26q-11 11 -11 27t11 26t26 10q7 0 14.5 -2t12.5 -7l6 -6q7 -10 21 -10q15 0 22 10l9 8q10 7 10 22t-10 22l-56 56q-12 12 -12 30v37h-55q-21 0 -36 15l-83 82q-13 16 -13 35v46
q0 20 14 34t35 14t35.5 -14t14.5 -34v-12q0 -13 9 -21l37 -36q8 -9 20 -9h118q13 0 20 9l37 36q9 8 9 21v67q0 13 -9 20l-37 38q-9 9 -20 9h-151q-10 0 -19.5 4t-16.5 10l-83 83q-13 13 -13 36v135q0 19 13 35l83 82q15 15 36 15h184q21 0 36 -15l82 -82q8 -8 11 -17t3 -18
v-45q0 -21 -14.5 -35.5t-34.5 -14.5q-21 0 -35.5 14.5t-14.5 35.5v11z" />
    <glyph glyph-name="Scaron" unicode="&#x160;" 
d="M296 930q11 -11 24 -11t24 11l36 35q12 13 31 13t31.5 -13t12.5 -31t-11 -31l-92 -93q-7 -7 -15.5 -9t-16.5 -2t-16.5 2t-15.5 9l-91 92q-13 13 -13 32q0 17 13.5 30.5t31.5 13.5t31 -13zM445 534q0 14 -9 21l-37 37q-8 8 -20 8h-118q-12 0 -20 -8l-37 -37q-9 -7 -9 -21
v-68q0 -12 9 -20l37 -38q9 -9 20 -9h151q10 0 19.5 -4t16.5 -10l82 -83q14 -14 14 -36v-134q0 -9 -3 -18t-11 -17l-82 -82q-15 -15 -36 -15h-184q-21 0 -36 15l-83 82q-13 16 -13 35v46q0 20 14 34t35 14t35.5 -14t14.5 -34v-12q0 -13 9 -21l37 -36q8 -9 20 -9h118
q13 0 20 9l37 36q9 8 9 21v67q0 13 -9 20l-37 38q-9 9 -20 9h-151q-10 0 -19.5 4t-16.5 10l-83 83q-13 13 -13 36v135q0 19 13 35l83 82q15 15 36 15h184q21 0 36 -15l82 -82q8 -8 11 -17t3 -18v-45q0 -21 -14.5 -35.5t-34.5 -14.5q-21 0 -35.5 14.5t-14.5 35.5v11z" />
    <glyph glyph-name="scaron" unicode="&#x161;" 
d="M445 534q0 14 -9 21l-37 37q-8 8 -20 8h-118q-12 0 -20 -8l-37 -37q-9 -7 -9 -21v-68q0 -12 9 -20l37 -38q9 -9 20 -9h151q10 0 19.5 -4t16.5 -10l82 -83q14 -14 14 -36v-134q0 -9 -3 -18t-11 -17l-82 -82q-15 -15 -36 -15h-184q-21 0 -36 15l-83 82q-13 16 -13 35v46
q0 20 14 34t35 14t35.5 -14t14.5 -34v-12q0 -13 9 -21l37 -36q8 -9 20 -9h118q13 0 20 9l37 36q9 8 9 21v67q0 13 -9 20l-37 38q-9 9 -20 9h-151q-10 0 -19.5 4t-16.5 10l-83 83q-13 13 -13 36v135q0 19 13 35l83 82q15 15 36 15h184q21 0 36 -15l82 -82q8 -8 11 -17t3 -18
v-45q0 -21 -14.5 -35.5t-34.5 -14.5q-21 0 -35.5 14.5t-14.5 35.5v11zM296 930q11 -11 24 -11t24 11l36 35q12 13 31 13t31.5 -13t12.5 -31t-11 -31l-92 -93q-7 -7 -15.5 -9t-16.5 -2t-16.5 2t-15.5 9l-91 92q-13 13 -13 32q0 17 13.5 30.5t31.5 13.5t31 -13z" />
    <glyph glyph-name="uni0162" unicode="&#x162;" 
d="M370 49q0 -20 -14.5 -34.5t-36.5 -14.5q-20 0 -34.5 14.5t-14.5 34.5v512q0 17 -11.5 28t-27.5 11h-86q-21 0 -35 15t-14 36q0 20 14 34.5t35 14.5h350q20 0 34.5 -14.5t14.5 -34.5q0 -21 -14.5 -36t-34.5 -15h-86q-17 0 -28 -11t-11 -28v-512zM394 -165q15 15 15 36
q0 20 -15 34.5t-35 14.5q-9 0 -18.5 -3t-17.5 -11l-79 -80q-15 -15 -15 -36q0 -20 15 -35q6 -7 15.5 -10.5t19.5 -3.5q9 0 18.5 3t16.5 11z" />
    <glyph glyph-name="uni0163" unicode="&#x163;" 
d="M370 49q0 -20 -14.5 -34.5t-36.5 -14.5q-20 0 -34.5 14.5t-14.5 34.5v512q0 17 -11.5 28t-27.5 11h-86q-21 0 -35 15t-14 36q0 20 14 34.5t35 14.5h350q20 0 34.5 -14.5t14.5 -34.5q0 -21 -14.5 -36t-34.5 -15h-86q-17 0 -28 -11t-11 -28v-512zM394 -165q15 15 15 36
q0 20 -15 34.5t-35 14.5q-9 0 -18.5 -3t-17.5 -11l-79 -80q-15 -15 -15 -36q0 -20 15 -35q6 -7 15.5 -10.5t19.5 -3.5q9 0 18.5 3t16.5 11z" />
    <glyph glyph-name="Tcaron" unicode="&#x164;" 
d="M296 930q11 -11 24 -11t24 11l36 35q12 13 31 13t31.5 -13t12.5 -31t-11 -31l-92 -93q-7 -7 -15.5 -9t-16.5 -2t-16.5 2t-15.5 9l-91 92q-13 13 -13 32q0 17 13.5 30.5t31.5 13.5t31 -13zM370 49q0 -20 -14.5 -34.5t-36.5 -14.5q-20 0 -34.5 14.5t-14.5 34.5v512
q0 17 -11.5 28t-27.5 11h-86q-21 0 -35 15t-14 36q0 20 14 34.5t35 14.5h350q20 0 34.5 -14.5t14.5 -34.5q0 -21 -14.5 -36t-34.5 -15h-86q-17 0 -28 -11t-11 -28v-512z" />
    <glyph glyph-name="tcaron" unicode="&#x165;" 
d="M295 924q11 -11 25 -11q12 0 23 11l35 36q14 12 32 12t31 -12.5t13 -31.5q0 -16 -12 -30l-91 -92q-12 -12 -31 -12q-9 0 -17.5 2.5t-15.5 9.5l-90 91q-13 13 -13 31q0 19 13 32q15 12 31 12q19 0 32 -12zM370 49q0 -20 -14.5 -34.5t-36.5 -14.5q-20 0 -34.5 14.5
t-14.5 34.5v512q0 17 -11.5 28t-27.5 11h-86q-21 0 -35 15t-14 36q0 20 14 34.5t35 14.5h350q20 0 34.5 -14.5t14.5 -34.5q0 -21 -14.5 -36t-34.5 -15h-86q-17 0 -28 -11t-11 -28v-512z" />
    <glyph glyph-name="Tbar" unicode="&#x166;" 
d="M271 561q0 17 -11.5 28t-27.5 11h-86q-21 0 -35 15t-14 36q0 20 14 34.5t35 14.5h350q20 0 34.5 -14.5t14.5 -34.5q0 -21 -14.5 -36t-34.5 -15h-86q-17 0 -28 -11t-11 -28v-151q0 -10 10 -10h95q21 0 35 -14t14 -35q0 -22 -14 -36t-35 -14h-95q-10 0 -10 -10v-242
q0 -20 -14.5 -34.5t-36.5 -14.5q-20 0 -34.5 14.5t-14.5 34.5v242q0 10 -10 10h-95q-21 0 -35.5 14t-14.5 36q0 21 14.5 35t35.5 14h95q10 0 10 10v151z" />
    <glyph glyph-name="tbar" unicode="&#x167;" 
d="M271 561q0 17 -11.5 28t-27.5 11h-86q-21 0 -35 15t-14 36q0 20 14 34.5t35 14.5h350q20 0 34.5 -14.5t14.5 -34.5q0 -21 -14.5 -36t-34.5 -15h-86q-17 0 -28 -11t-11 -28v-151q0 -10 10 -10h95q21 0 35 -14t14 -35q0 -22 -14 -36t-35 -14h-95q-10 0 -10 -10v-242
q0 -20 -14.5 -34.5t-36.5 -14.5q-20 0 -34.5 14.5t-14.5 34.5v242q0 10 -10 10h-95q-21 0 -35.5 14t-14.5 36q0 21 14.5 35t35.5 14h95q10 0 10 10v151z" />
    <glyph glyph-name="Utilde" unicode="&#x168;" 
d="M242 894v-29q0 -18 -12.5 -30.5t-30.5 -12.5q-17 0 -29 12.5t-12 30.5v49q0 15 11 26l39 40q11 11 27 11h49q17 0 28 -11l39 -41q10 -10 10 -25v-20l13 -12h11l12 12v31q0 17 12.5 29t30.5 12q17 0 29 -12t12 -29v-50q0 -6 -2.5 -13.5t-7.5 -12.5l-40 -40
q-10 -10 -27 -10h-49q-17 0 -28 10l-39 40q-5 5 -7.5 12.5t-2.5 13.5v19l-13 13h-12zM195 166q0 -13 9 -21l37 -36q8 -9 20 -9h118q13 0 20 9l37 36q9 8 9 21v485q0 20 14.5 34.5t35.5 14.5q20 0 34.5 -14.5t14.5 -34.5v-519q0 -9 -3 -18t-11 -17l-82 -82q-15 -15 -37 -15
h-183q-21 0 -36 15l-83 82q-13 16 -13 35v519q0 20 14 34.5t35 14.5t35.5 -14.5t14.5 -34.5v-485z" />
    <glyph glyph-name="utilde" unicode="&#x169;" 
d="M195 166q0 -13 9 -21l37 -36q8 -9 20 -9h118q13 0 20 9l37 36q9 8 9 21v485q0 20 14.5 34.5t35.5 14.5q20 0 34.5 -14.5t14.5 -34.5v-519q0 -9 -3 -18t-11 -17l-82 -82q-15 -15 -37 -15h-183q-21 0 -36 15l-83 82q-13 16 -13 35v519q0 20 14 34.5t35 14.5t35.5 -14.5
t14.5 -34.5v-485zM242 894v-29q0 -18 -12.5 -30.5t-30.5 -12.5q-17 0 -29 12.5t-12 30.5v49q0 15 11 26l39 40q11 11 27 11h49q17 0 28 -11l39 -41q10 -10 10 -25v-20l13 -12h11l12 12v31q0 17 12.5 29t30.5 12q17 0 29 -12t12 -29v-50q0 -6 -2.5 -13.5t-7.5 -12.5l-40 -40
q-10 -10 -27 -10h-49q-17 0 -28 10l-39 40q-5 5 -7.5 12.5t-2.5 13.5v19l-13 13h-12z" />
    <glyph glyph-name="Umacron" unicode="&#x16a;" 
d="M227 808q-21 0 -35 14.5t-14 35.5q0 20 14 35t35 15h186q21 0 35 -15t14 -35q0 -21 -14 -35.5t-35 -14.5h-186zM195 166q0 -13 9 -21l37 -36q8 -9 20 -9h118q13 0 20 9l37 36q9 8 9 21v485q0 20 14.5 34.5t35.5 14.5q20 0 34.5 -14.5t14.5 -34.5v-519q0 -9 -3 -18
t-11 -17l-82 -82q-15 -15 -37 -15h-183q-21 0 -36 15l-83 82q-13 16 -13 35v519q0 20 14 34.5t35 14.5t35.5 -14.5t14.5 -34.5v-485z" />
    <glyph glyph-name="umacron" unicode="&#x16b;" 
d="M195 166q0 -13 9 -21l37 -36q8 -9 20 -9h118q13 0 20 9l37 36q9 8 9 21v485q0 20 14.5 34.5t35.5 14.5q20 0 34.5 -14.5t14.5 -34.5v-519q0 -9 -3 -18t-11 -17l-82 -82q-15 -15 -37 -15h-183q-21 0 -36 15l-83 82q-13 16 -13 35v519q0 20 14 34.5t35 14.5t35.5 -14.5
t14.5 -34.5v-485zM227 808q-21 0 -35 14.5t-14 35.5q0 20 14 35t35 15h186q21 0 35 -15t14 -35q0 -21 -14 -35.5t-35 -14.5h-186z" />
    <glyph glyph-name="Ubreve" unicode="&#x16c;" 
d="M272 927q0 -13 9 -21l16 -16q8 -9 20 -9h5q12 0 21 9l16 16q9 8 9 21v10q0 17 11.5 29t29.5 12t30 -12t12 -29v-42q0 -17 -10 -27l-59 -60q-9 -9 -28 -9h-68q-19 0 -28 9l-59 60q-10 10 -10 27v42q0 17 12 29t30 12q17 0 29 -12t12 -29v-10zM195 166q0 -13 9 -21l37 -36
q8 -9 20 -9h118q13 0 20 9l37 36q9 8 9 21v485q0 20 14.5 34.5t35.5 14.5q20 0 34.5 -14.5t14.5 -34.5v-519q0 -9 -3 -18t-11 -17l-82 -82q-15 -15 -37 -15h-183q-21 0 -36 15l-83 82q-13 16 -13 35v519q0 20 14 34.5t35 14.5t35.5 -14.5t14.5 -34.5v-485z" />
    <glyph glyph-name="ubreve" unicode="&#x16d;" 
d="M195 166q0 -13 9 -21l37 -36q8 -9 20 -9h118q13 0 20 9l37 36q9 8 9 21v485q0 20 14.5 34.5t35.5 14.5q20 0 34.5 -14.5t14.5 -34.5v-519q0 -9 -3 -18t-11 -17l-82 -82q-15 -15 -37 -15h-183q-21 0 -36 15l-83 82q-13 16 -13 35v519q0 20 14 34.5t35 14.5t35.5 -14.5
t14.5 -34.5v-485zM272 927q0 -13 9 -21l16 -16q8 -9 20 -9h5q12 0 21 9l16 16q9 8 9 21v10q0 17 11.5 29t29.5 12t30 -12t12 -29v-42q0 -17 -10 -27l-59 -60q-9 -9 -28 -9h-68q-19 0 -28 9l-59 60q-10 10 -10 27v42q0 17 12 29t30 12q17 0 29 -12t12 -29v-10z" />
    <glyph glyph-name="Uring" unicode="&#x16e;" 
d="M205 903q0 6 2 12.5t7 11.5l52 52q11 9 24 9h59q16 0 25 -9l51 -52q9 -10 9 -24v-60q0 -13 -9 -24l-51 -51q-9 -9 -25 -9h-59q-13 0 -24 9l-52 52q-9 11 -9 23v60zM288 894q-9 -7 -9 -21q0 -12 9 -20l11 -11q8 -9 20 -9q14 0 21 9l11 11q9 8 9 20q0 14 -9 21l-11 11
q-7 9 -21 9q-12 0 -20 -9zM195 166q0 -13 9 -21l37 -36q8 -9 20 -9h118q13 0 20 9l37 36q9 8 9 21v485q0 20 14.5 34.5t35.5 14.5q20 0 34.5 -14.5t14.5 -34.5v-519q0 -9 -3 -18t-11 -17l-82 -82q-15 -15 -37 -15h-183q-21 0 -36 15l-83 82q-13 16 -13 35v519q0 20 14 34.5
t35 14.5t35.5 -14.5t14.5 -34.5v-485z" />
    <glyph glyph-name="uring" unicode="&#x16f;" 
d="M195 166q0 -13 9 -21l37 -36q8 -9 20 -9h118q13 0 20 9l37 36q9 8 9 21v485q0 20 14.5 34.5t35.5 14.5q20 0 34.5 -14.5t14.5 -34.5v-519q0 -9 -3 -18t-11 -17l-82 -82q-15 -15 -37 -15h-183q-21 0 -36 15l-83 82q-13 16 -13 35v519q0 20 14 34.5t35 14.5t35.5 -14.5
t14.5 -34.5v-485zM205 903q0 6 2 12.5t7 11.5l52 52q11 9 24 9h59q16 0 25 -9l51 -52q9 -10 9 -24v-60q0 -13 -9 -24l-51 -51q-9 -9 -25 -9h-59q-13 0 -24 9l-52 52q-9 11 -9 23v60zM288 894q-9 -7 -9 -21q0 -12 9 -20l11 -11q8 -9 20 -9q14 0 21 9l11 11q9 8 9 20
q0 14 -9 21l-11 11q-7 9 -21 9q-12 0 -20 -9z" />
    <glyph glyph-name="Uhungarumlaut" unicode="&#x170;" 
d="M230 812q-8 -8 -17 -10.5t-19 -2.5q-20 0 -34.5 14t-14.5 35t14 35l81 81q14 14 35 14t35 -14.5t14 -34.5q0 -23 -13 -36zM400 812q-8 -8 -17 -10.5t-18 -2.5q-21 0 -35.5 14t-14.5 35t14 35l80 81q8 8 17.5 11t18.5 3q20 0 35 -14.5t15 -34.5q0 -21 -15 -36zM195 166
q0 -13 9 -21l37 -36q8 -9 20 -9h118q13 0 20 9l37 36q9 8 9 21v485q0 20 14.5 34.5t35.5 14.5q20 0 34.5 -14.5t14.5 -34.5v-519q0 -9 -3 -18t-11 -17l-82 -82q-15 -15 -37 -15h-183q-21 0 -36 15l-83 82q-13 16 -13 35v519q0 20 14 34.5t35 14.5t35.5 -14.5t14.5 -34.5
v-485z" />
    <glyph glyph-name="uhungarumlaut" unicode="&#x171;" 
d="M195 166q0 -13 9 -21l37 -36q8 -9 20 -9h118q13 0 20 9l37 36q9 8 9 21v485q0 20 14.5 34.5t35.5 14.5q20 0 34.5 -14.5t14.5 -34.5v-519q0 -9 -3 -18t-11 -17l-82 -82q-15 -15 -37 -15h-183q-21 0 -36 15l-83 82q-13 16 -13 35v519q0 20 14 34.5t35 14.5t35.5 -14.5
t14.5 -34.5v-485zM230 812q-8 -8 -17 -10.5t-19 -2.5q-20 0 -34.5 14t-14.5 35t14 35l81 81q14 14 35 14t35 -14.5t14 -34.5q0 -23 -13 -36zM400 812q-8 -8 -17 -10.5t-18 -2.5q-21 0 -35.5 14t-14.5 35t14 35l80 81q8 8 17.5 11t18.5 3q20 0 35 -14.5t15 -34.5
q0 -21 -15 -36z" />
    <glyph glyph-name="Uogonek" unicode="&#x172;" 
d="M196 166q0 -13 9 -21l37 -36q8 -9 20 -9h118q13 0 20 9l37 36q9 8 9 21v485q0 20 14.5 34.5t35.5 14.5q20 0 34.5 -14.5t14.5 -34.5v-519q0 -9 -3 -18t-11 -17l-54 -54v-80q0 -18 -12 -30l-56 -56q-10 -7 -10 -22t10 -22l9 -8q7 -10 21 -10q15 0 22 10l6 6q11 9 27 9
q15 0 26 -10t11 -26t-11 -27l-26 -26q-10 -10 -24 -10h-60q-14 0 -24 10l-52 51q-5 5 -7 11.5t-2 12.5v60q0 11 9 22l59 60q4 3 7 9.5t3 11.5v11h-174q-21 0 -36 15l-83 82q-13 16 -13 35v519q0 20 14 34.5t35 14.5t35.5 -14.5t14.5 -34.5v-485z" />
    <glyph glyph-name="uogonek" unicode="&#x173;" 
d="M196 166q0 -13 9 -21l37 -36q8 -9 20 -9h118q13 0 20 9l37 36q9 8 9 21v485q0 20 14.5 34.5t35.5 14.5q20 0 34.5 -14.5t14.5 -34.5v-519q0 -9 -3 -18t-11 -17l-54 -54v-80q0 -18 -12 -30l-56 -56q-10 -7 -10 -22t10 -22l9 -8q7 -10 21 -10q15 0 22 10l6 6q11 9 27 9
q15 0 26 -10t11 -26t-11 -27l-26 -26q-10 -10 -24 -10h-60q-14 0 -24 10l-52 51q-5 5 -7 11.5t-2 12.5v60q0 11 9 22l59 60q4 3 7 9.5t3 11.5v11h-174q-21 0 -36 15l-83 82q-13 16 -13 35v519q0 20 14 34.5t35 14.5t35.5 -14.5t14.5 -34.5v-485z" />
    <glyph glyph-name="Wcircumflex" unicode="&#x174;" 
d="M260 810q-13 -11 -31 -11q-19 0 -32 12t-13 31q0 20 13 32l92 91q13 13 31 13q19 0 32 -13l92 -91q7 -6 9 -14.5t2 -17.5q0 -43 -43 -43q-9 0 -17.5 2t-14.5 9l-36 36q-11 11 -24 11t-23 -10zM445 651q0 20 14.5 34.5t35.5 14.5q20 0 34.5 -14.5t14.5 -34.5v-514
q0 -21 -14 -35l-87 -88q-14 -14 -36 -14q-21 0 -35 14l-52 53l-52 -53q-14 -14 -35 -14q-22 0 -36 14l-88 88q-13 13 -13 35v514q0 20 14 34.5t35 14.5t35.5 -14.5t14.5 -34.5v-480q0 -14 12 -24.5t26 -10.5t25.5 10.5t11.5 24.5v179q0 21 14.5 35t35.5 14t35.5 -14
t14.5 -35v-179q0 -14 11.5 -24.5t25.5 -10.5t26 10.5t12 24.5v480z" />
    <glyph glyph-name="wcircumflex" unicode="&#x175;" 
d="M445 651q0 20 14.5 34.5t35.5 14.5q20 0 34.5 -14.5t14.5 -34.5v-514q0 -21 -14 -35l-87 -88q-14 -14 -36 -14q-21 0 -35 14l-52 53l-52 -53q-14 -14 -35 -14q-22 0 -36 14l-88 88q-13 13 -13 35v514q0 20 14 34.5t35 14.5t35.5 -14.5t14.5 -34.5v-480q0 -14 12 -24.5
t26 -10.5t25.5 10.5t11.5 24.5v179q0 21 14.5 35t35.5 14t35.5 -14t14.5 -35v-179q0 -14 11.5 -24.5t25.5 -10.5t26 10.5t12 24.5v480zM260 810q-13 -11 -31 -11q-19 0 -32 12t-13 31q0 20 13 32l92 91q13 13 31 13q19 0 32 -13l92 -91q7 -6 9 -14.5t2 -17.5q0 -43 -43 -43
q-9 0 -17.5 2t-14.5 9l-36 36q-11 11 -24 11t-23 -10z" />
    <glyph glyph-name="Ycircumflex" unicode="&#x176;" 
d="M260 810q-13 -11 -31 -11q-19 0 -32 12t-13 31q0 20 13 32l92 91q13 13 31 13q19 0 32 -13l92 -91q7 -6 9 -14.5t2 -17.5q0 -43 -43 -43q-9 0 -17.5 2t-14.5 9l-36 36q-11 11 -24 11t-23 -10zM110 448q-14 14 -14 36v167q0 20 14 34.5t35 14.5t35.5 -14.5t14.5 -34.5
v-133q0 -13 9 -21l88 -89q5 -6 13 -9t14 -3q19 0 29 12l88 89q9 8 9 21v133q0 20 14.5 34.5t35.5 14.5q20 0 34.5 -14.5t14.5 -34.5v-167q0 -22 -15 -36l-150 -151q-9 -7 -9 -21v-227q0 -20 -14.5 -34.5t-36.5 -14.5q-20 0 -34.5 14.5t-14.5 34.5v227q0 14 -9 21z" />
    <glyph glyph-name="ycircumflex" unicode="&#x177;" 
d="M110 448q-14 14 -14 36v167q0 20 14 34.5t35 14.5t35.5 -14.5t14.5 -34.5v-133q0 -13 9 -21l88 -89q5 -6 13 -9t14 -3q19 0 29 12l88 89q9 8 9 21v133q0 20 14.5 34.5t35.5 14.5q20 0 34.5 -14.5t14.5 -34.5v-167q0 -22 -15 -36l-150 -151q-9 -7 -9 -21v-227
q0 -20 -14.5 -34.5t-36.5 -14.5q-20 0 -34.5 14.5t-14.5 34.5v227q0 14 -9 21zM260 810q-13 -11 -31 -11q-19 0 -32 12t-13 31q0 20 13 32l92 91q13 13 31 13q19 0 32 -13l92 -91q7 -6 9 -14.5t2 -17.5q0 -43 -43 -43q-9 0 -17.5 2t-14.5 9l-36 36q-11 11 -24 11t-23 -10z
" />
    <glyph glyph-name="Ydieresis" unicode="&#x178;" 
d="M396 808q-20 0 -34.5 14.5t-14.5 35.5v19q0 21 14.5 35.5t34.5 14.5h20q21 0 35 -14.5t14 -35.5v-19q0 -21 -14 -35.5t-35 -14.5h-20zM224 808q-21 0 -35 14.5t-14 35.5v19q0 21 14 35.5t35 14.5h20q20 0 34.5 -14.5t14.5 -35.5v-19q0 -21 -14.5 -35.5t-34.5 -14.5h-20z
M110 448q-14 14 -14 36v167q0 20 14 34.5t35 14.5t35.5 -14.5t14.5 -34.5v-133q0 -13 9 -21l88 -89q5 -6 13 -9t14 -3q19 0 29 12l88 89q9 8 9 21v133q0 20 14.5 34.5t35.5 14.5q20 0 34.5 -14.5t14.5 -34.5v-167q0 -22 -15 -36l-150 -151q-9 -7 -9 -21v-227
q0 -20 -14.5 -34.5t-36.5 -14.5q-20 0 -34.5 14.5t-14.5 34.5v227q0 14 -9 21z" />
    <glyph glyph-name="Zacute" unicode="&#x179;" 
d="M316 812q-8 -8 -17.5 -10.5t-18.5 -2.5q-21 0 -35.5 14t-14.5 35q0 20 15 35l79 81q8 8 17.5 11t18.5 3q20 0 35 -14.5t15 -34.5q0 -21 -15 -36zM436 537q9 8 9 21v3q0 17 -11.5 28t-28.5 11h-260q-21 0 -35 15t-14 36q0 20 14 34.5t35 14.5h350q20 0 34.5 -14.5
t14.5 -34.5v-127q0 -9 -3 -18t-11 -17l-326 -326q-9 -7 -9 -21v-3q0 -17 11.5 -28t28.5 -11h260q20 0 34.5 -15t14.5 -36q0 -20 -14.5 -34.5t-34.5 -14.5h-350q-21 0 -35 14.5t-14 34.5v127q0 19 13 35z" />
    <glyph glyph-name="zacute" unicode="&#x17a;" 
d="M436 537q9 8 9 21v3q0 17 -11.5 28t-28.5 11h-260q-21 0 -35 15t-14 36q0 20 14 34.5t35 14.5h350q20 0 34.5 -14.5t14.5 -34.5v-127q0 -9 -3 -18t-11 -17l-326 -326q-9 -7 -9 -21v-3q0 -17 11.5 -28t28.5 -11h260q20 0 34.5 -15t14.5 -36q0 -20 -14.5 -34.5t-34.5 -14.5
h-350q-21 0 -35 14.5t-14 34.5v127q0 19 13 35zM316 812q-8 -8 -17.5 -10.5t-18.5 -2.5q-21 0 -35.5 14t-14.5 35q0 20 15 35l79 81q8 8 17.5 11t18.5 3q20 0 35 -14.5t15 -34.5q0 -21 -15 -36z" />
    <glyph glyph-name="Zdotaccent" unicode="&#x17b;" 
d="M305 813q-21 0 -35.5 14.5t-14.5 35.5v29q0 21 14.5 35t35.5 14h29q21 0 35.5 -14t14.5 -35v-29q0 -21 -14.5 -35.5t-35.5 -14.5h-29zM436 537q9 8 9 21v3q0 17 -11.5 28t-28.5 11h-260q-21 0 -35 15t-14 36q0 20 14 34.5t35 14.5h350q20 0 34.5 -14.5t14.5 -34.5v-127
q0 -9 -3 -18t-11 -17l-326 -326q-9 -7 -9 -21v-3q0 -17 11.5 -28t28.5 -11h260q20 0 34.5 -15t14.5 -36q0 -20 -14.5 -34.5t-34.5 -14.5h-350q-21 0 -35 14.5t-14 34.5v127q0 19 13 35z" />
    <glyph glyph-name="zdotaccent" unicode="&#x17c;" 
d="M436 537q9 8 9 21v3q0 17 -11.5 28t-28.5 11h-260q-21 0 -35 15t-14 36q0 20 14 34.5t35 14.5h350q20 0 34.5 -14.5t14.5 -34.5v-127q0 -9 -3 -18t-11 -17l-326 -326q-9 -7 -9 -21v-3q0 -17 11.5 -28t28.5 -11h260q20 0 34.5 -15t14.5 -36q0 -20 -14.5 -34.5t-34.5 -14.5
h-350q-21 0 -35 14.5t-14 34.5v127q0 19 13 35zM305 813q-21 0 -35.5 14.5t-14.5 35.5v29q0 21 14.5 35t35.5 14h29q21 0 35.5 -14t14.5 -35v-29q0 -21 -14.5 -35.5t-35.5 -14.5h-29z" />
    <glyph glyph-name="Zcaron" unicode="&#x17d;" 
d="M296 930q11 -11 24 -11t24 11l36 35q12 13 31 13t31.5 -13t12.5 -31t-11 -31l-92 -93q-7 -7 -15.5 -9t-16.5 -2t-16.5 2t-15.5 9l-91 92q-13 13 -13 32q0 17 13.5 30.5t31.5 13.5t31 -13zM436 537q9 8 9 21v3q0 17 -11.5 28t-28.5 11h-260q-21 0 -35 15t-14 36
q0 20 14 34.5t35 14.5h350q20 0 34.5 -14.5t14.5 -34.5v-127q0 -9 -3 -18t-11 -17l-326 -326q-9 -7 -9 -21v-3q0 -17 11.5 -28t28.5 -11h260q20 0 34.5 -15t14.5 -36q0 -20 -14.5 -34.5t-34.5 -14.5h-350q-21 0 -35 14.5t-14 34.5v127q0 19 13 35z" />
    <glyph glyph-name="zcaron" unicode="&#x17e;" 
d="M436 537q9 8 9 21v3q0 17 -11.5 28t-28.5 11h-260q-21 0 -35 15t-14 36q0 20 14 34.5t35 14.5h350q20 0 34.5 -14.5t14.5 -34.5v-127q0 -9 -3 -18t-11 -17l-326 -326q-9 -7 -9 -21v-3q0 -17 11.5 -28t28.5 -11h260q20 0 34.5 -15t14.5 -36q0 -20 -14.5 -34.5t-34.5 -14.5
h-350q-21 0 -35 14.5t-14 34.5v127q0 19 13 35zM296 930q11 -11 24 -11t24 11l36 35q12 13 31 13t31.5 -13t12.5 -31t-11 -31l-92 -93q-7 -7 -15.5 -9t-16.5 -2t-16.5 2t-15.5 9l-91 92q-13 13 -13 32q0 17 13.5 30.5t31.5 13.5t31 -13z" />
    <glyph glyph-name="uni0218" unicode="&#x218;" 
d="M445 534q0 14 -9 21l-37 37q-8 8 -20 8h-118q-12 0 -20 -8l-37 -37q-9 -7 -9 -21v-68q0 -12 9 -20l37 -38q9 -9 20 -9h151q10 0 19.5 -4t16.5 -10l82 -83q14 -14 14 -36v-134q0 -9 -3 -18t-11 -17l-82 -82q-15 -15 -36 -15h-184q-21 0 -36 15l-83 82q-13 16 -13 35v46
q0 20 14 34t35 14t35.5 -14t14.5 -34v-12q0 -13 9 -21l37 -36q8 -9 20 -9h118q13 0 20 9l37 36q9 8 9 21v67q0 13 -9 20l-37 38q-9 9 -20 9h-151q-10 0 -19.5 4t-16.5 10l-83 83q-13 13 -13 36v135q0 19 13 35l83 82q15 15 36 15h184q21 0 36 -15l82 -82q8 -8 11 -17t3 -18
v-45q0 -21 -14.5 -35.5t-34.5 -14.5q-21 0 -35.5 14.5t-14.5 35.5v11zM314 -245q-7 -8 -16.5 -11t-18.5 -3q-10 0 -19.5 3.5t-15.5 10.5q-15 15 -15 35q0 21 15 36l79 80q8 8 17.5 11t18.5 3q20 0 35 -14.5t15 -34.5q0 -21 -15 -36z" />
    <glyph glyph-name="uni0219" unicode="&#x219;" 
d="M445 534q0 14 -9 21l-37 37q-8 8 -20 8h-118q-12 0 -20 -8l-37 -37q-9 -7 -9 -21v-68q0 -12 9 -20l37 -38q9 -9 20 -9h151q10 0 19.5 -4t16.5 -10l82 -83q14 -14 14 -36v-134q0 -9 -3 -18t-11 -17l-82 -82q-15 -15 -36 -15h-184q-21 0 -36 15l-83 82q-13 16 -13 35v46
q0 20 14 34t35 14t35.5 -14t14.5 -34v-12q0 -13 9 -21l37 -36q8 -9 20 -9h118q13 0 20 9l37 36q9 8 9 21v67q0 13 -9 20l-37 38q-9 9 -20 9h-151q-10 0 -19.5 4t-16.5 10l-83 83q-13 13 -13 36v135q0 19 13 35l83 82q15 15 36 15h184q21 0 36 -15l82 -82q8 -8 11 -17t3 -18
v-45q0 -21 -14.5 -35.5t-34.5 -14.5q-21 0 -35.5 14.5t-14.5 35.5v11zM314 -245q-7 -8 -16.5 -11t-18.5 -3q-10 0 -19.5 3.5t-15.5 10.5q-15 15 -15 35q0 21 15 36l79 80q8 8 17.5 11t18.5 3q20 0 35 -14.5t15 -34.5q0 -21 -15 -36z" />
    <glyph glyph-name="uni021A" unicode="&#x21a;" 
d="M370 49q0 -20 -14.5 -34.5t-36.5 -14.5q-20 0 -34.5 14.5t-14.5 34.5v512q0 17 -11.5 28t-27.5 11h-86q-21 0 -35 15t-14 36q0 20 14 34.5t35 14.5h350q20 0 34.5 -14.5t14.5 -34.5q0 -21 -14.5 -36t-34.5 -15h-86q-17 0 -28 -11t-11 -28v-512zM394 -165q15 15 15 36
q0 20 -15 34.5t-35 14.5q-9 0 -18.5 -3t-17.5 -11l-79 -80q-15 -15 -15 -36q0 -20 15 -35q6 -7 15.5 -10.5t19.5 -3.5q9 0 18.5 3t16.5 11z" />
    <glyph glyph-name="uni021B" unicode="&#x21b;" 
d="M370 49q0 -20 -14.5 -34.5t-36.5 -14.5q-20 0 -34.5 14.5t-14.5 34.5v512q0 17 -11.5 28t-27.5 11h-86q-21 0 -35 15t-14 36q0 20 14 34.5t35 14.5h350q20 0 34.5 -14.5t14.5 -34.5q0 -21 -14.5 -36t-34.5 -15h-86q-17 0 -28 -11t-11 -28v-512zM394 -165q15 15 15 36
q0 20 -15 34.5t-35 14.5q-9 0 -18.5 -3t-17.5 -11l-79 -80q-15 -15 -15 -36q0 -20 15 -35q6 -7 15.5 -10.5t19.5 -3.5q9 0 18.5 3t16.5 11z" />
    <glyph glyph-name="uni0237" unicode="&#x237;" 
d="M445 561q0 17 -11.5 28t-28.5 11h-86q-20 0 -34.5 15t-14.5 36q0 20 14.5 34.5t34.5 14.5h176q20 0 34.5 -14.5t14.5 -34.5v-518q0 -22 -14 -36l-82 -82q-15 -15 -36 -15h-184q-21 0 -36 15l-83 82q-13 13 -13 36v83q0 21 14 35.5t35 14.5t35.5 -14.5t14.5 -35.5v-50
q0 -13 9 -21l37 -36q8 -9 20 -9h118q13 0 20 9l37 36q9 8 9 21v395z" />
    <glyph glyph-name="circumflex" unicode="&#x2c6;" 
d="M261 810q-13 -11 -31 -11q-19 0 -32 12t-13 31q0 20 13 32l92 91q13 13 31 13q19 0 32 -13l92 -91q7 -6 9 -14.5t2 -17.5q0 -43 -43 -43q-9 0 -17.5 2t-14.5 9l-36 36q-11 11 -24 11t-23 -10z" />
    <glyph glyph-name="caron" unicode="&#x2c7;" 
d="M297 930q11 -11 24 -11t24 11l36 35q12 13 31 13t31.5 -13t12.5 -31t-11 -31l-92 -93q-7 -7 -15.5 -9t-16.5 -2t-16.5 2t-15.5 9l-91 92q-13 13 -13 32q0 17 13.5 30.5t31.5 13.5t31 -13z" />
    <glyph glyph-name="uni02C9" unicode="&#x2c9;" 
d="M227 808q-21 0 -35 14.5t-14 35.5q0 20 14 35t35 15h186q21 0 35 -15t14 -35q0 -21 -14 -35.5t-35 -14.5h-186z" />
    <glyph glyph-name="breve" unicode="&#x2d8;" 
d="M273 927q0 -13 9 -21l16 -16q8 -9 20 -9h5q12 0 21 9l16 16q9 8 9 21v10q0 17 11.5 29t29.5 12t30 -12t12 -29v-42q0 -17 -10 -27l-59 -60q-9 -9 -28 -9h-68q-19 0 -28 9l-59 60q-10 10 -10 27v42q0 17 12 29t30 12q17 0 29 -12t12 -29v-10z" />
    <glyph glyph-name="dotaccent" unicode="&#x2d9;" 
d="M306 813q-21 0 -35.5 14.5t-14.5 35.5v29q0 21 14.5 35t35.5 14h29q21 0 35.5 -14t14.5 -35v-29q0 -21 -14.5 -35.5t-35.5 -14.5h-29z" />
    <glyph glyph-name="ring" unicode="&#x2da;" 
d="M206 903q0 6 2 12.5t7 11.5l52 52q11 9 24 9h59q16 0 25 -9l51 -52q9 -10 9 -24v-60q0 -13 -9 -24l-51 -51q-9 -9 -25 -9h-59q-13 0 -24 9l-52 52q-9 11 -9 23v60zM289 894q-9 -7 -9 -21q0 -12 9 -20l11 -11q8 -9 20 -9q14 0 21 9l11 11q9 8 9 20q0 14 -9 21l-11 11
q-7 9 -21 9q-12 0 -20 -9z" />
    <glyph glyph-name="ogonek" unicode="&#x2db;" 
d="M358 -37q0 -18 -12 -30l-56 -56q-10 -7 -10 -22t10 -22l9 -8q7 -10 21 -10q15 0 22 10l6 6q11 9 27 9q15 0 26 -10t11 -26t-11 -27l-26 -26q-10 -10 -24 -10h-60q-14 0 -24 10l-52 51q-5 5 -7 11.5t-2 12.5v60q0 11 9 22l59 60q4 3 7 9.5t3 11.5v55q0 16 10.5 26.5
t25.5 10.5q16 0 27 -10.5t11 -26.5v-81z" />
    <glyph glyph-name="tilde" unicode="&#x2dc;" 
d="M243 894v-29q0 -18 -12.5 -30.5t-30.5 -12.5q-17 0 -29 12.5t-12 30.5v49q0 15 11 26l39 40q11 11 27 11h49q17 0 28 -11l39 -41q10 -10 10 -25v-20l13 -12h11l12 12v31q0 17 12.5 29t30.5 12q17 0 29 -12t12 -29v-50q0 -6 -2.5 -13.5t-7.5 -12.5l-40 -40
q-10 -10 -27 -10h-49q-17 0 -28 10l-39 40q-5 5 -7.5 12.5t-2.5 13.5v19l-13 13h-12z" />
    <glyph glyph-name="hungarumlaut" unicode="&#x2dd;" 
d="M230 812q-8 -8 -17 -10.5t-19 -2.5q-20 0 -34.5 14t-14.5 35t14 35l81 81q14 14 35 14t35 -14.5t14 -34.5q0 -23 -13 -36zM400 812q-8 -8 -17 -10.5t-18 -2.5q-21 0 -35.5 14t-14.5 35t14 35l80 81q8 8 17.5 11t18.5 3q20 0 35 -14.5t15 -34.5q0 -21 -15 -36z" />
    <glyph glyph-name="uni0326" unicode="&#x326;" 
d="M315 -245q-7 -8 -16.5 -11t-18.5 -3q-10 0 -19.5 3.5t-15.5 10.5q-15 15 -15 35q0 21 15 36l79 80q8 8 17.5 11t18.5 3q20 0 35 -14.5t15 -34.5q0 -21 -15 -36z" />
    <glyph glyph-name="uni03BC" unicode="&#x3bc;" 
d="M199 11q-2 2 -4 2q1 0 1 -3v-122q0 -20 -14 -34.5t-36 -14.5q-20 0 -34.5 14.5t-14.5 34.5v607q0 20 14.5 34.5t34.5 14.5q22 0 36 -14.5t14 -34.5v-330q0 -12 9 -21l36 -36q9 -9 21 -9h116q12 0 21 9l36 36q9 9 9 21v330q0 20 15 34.5t35 14.5t34.5 -14.5t14.5 -34.5
v-364q0 -8 -3 -17.5t-11 -17.5l-82 -81q-15 -15 -36 -15h-183q-15 0 -29 11z" />
    <glyph glyph-name="Wgrave" unicode="&#x1e80;" 
d="M244 893q-14 14 -14 36q0 20 14 34.5t35 14.5q10 0 19.5 -3t17.5 -11l79 -81q15 -15 15 -35q0 -21 -15 -35t-35 -14q-9 0 -18.5 2.5t-17.5 10.5zM445 651q0 20 14.5 34.5t35.5 14.5q20 0 34.5 -14.5t14.5 -34.5v-514q0 -21 -14 -35l-87 -88q-14 -14 -36 -14q-21 0 -35 14
l-52 53l-52 -53q-14 -14 -35 -14q-22 0 -36 14l-88 88q-13 13 -13 35v514q0 20 14 34.5t35 14.5t35.5 -14.5t14.5 -34.5v-480q0 -14 12 -24.5t26 -10.5t25.5 10.5t11.5 24.5v179q0 21 14.5 35t35.5 14t35.5 -14t14.5 -35v-179q0 -14 11.5 -24.5t25.5 -10.5t26 10.5t12 24.5
v480z" />
    <glyph glyph-name="wgrave" unicode="&#x1e81;" 
d="M445 651q0 20 14.5 34.5t35.5 14.5q20 0 34.5 -14.5t14.5 -34.5v-514q0 -21 -14 -35l-87 -88q-14 -14 -36 -14q-21 0 -35 14l-52 53l-52 -53q-14 -14 -35 -14q-22 0 -36 14l-88 88q-13 13 -13 35v514q0 20 14 34.5t35 14.5t35.5 -14.5t14.5 -34.5v-480q0 -14 12 -24.5
t26 -10.5t25.5 10.5t11.5 24.5v179q0 21 14.5 35t35.5 14t35.5 -14t14.5 -35v-179q0 -14 11.5 -24.5t25.5 -10.5t26 10.5t12 24.5v480zM244 893q-14 14 -14 36q0 20 14 34.5t35 14.5q10 0 19.5 -3t17.5 -11l79 -81q15 -15 15 -35q0 -21 -15 -35t-35 -14q-9 0 -18.5 2.5
t-17.5 10.5z" />
    <glyph glyph-name="Wacute" unicode="&#x1e82;" 
d="M316 812q-8 -8 -17.5 -10.5t-18.5 -2.5q-21 0 -35.5 14t-14.5 35q0 20 15 35l79 81q8 8 17.5 11t18.5 3q20 0 35 -14.5t15 -34.5q0 -21 -15 -36zM445 651q0 20 14.5 34.5t35.5 14.5q20 0 34.5 -14.5t14.5 -34.5v-514q0 -21 -14 -35l-87 -88q-14 -14 -36 -14q-21 0 -35 14
l-52 53l-52 -53q-14 -14 -35 -14q-22 0 -36 14l-88 88q-13 13 -13 35v514q0 20 14 34.5t35 14.5t35.5 -14.5t14.5 -34.5v-480q0 -14 12 -24.5t26 -10.5t25.5 10.5t11.5 24.5v179q0 21 14.5 35t35.5 14t35.5 -14t14.5 -35v-179q0 -14 11.5 -24.5t25.5 -10.5t26 10.5t12 24.5
v480z" />
    <glyph glyph-name="wacute" unicode="&#x1e83;" 
d="M445 651q0 20 14.5 34.5t35.5 14.5q20 0 34.5 -14.5t14.5 -34.5v-514q0 -21 -14 -35l-87 -88q-14 -14 -36 -14q-21 0 -35 14l-52 53l-52 -53q-14 -14 -35 -14q-22 0 -36 14l-88 88q-13 13 -13 35v514q0 20 14 34.5t35 14.5t35.5 -14.5t14.5 -34.5v-480q0 -14 12 -24.5
t26 -10.5t25.5 10.5t11.5 24.5v179q0 21 14.5 35t35.5 14t35.5 -14t14.5 -35v-179q0 -14 11.5 -24.5t25.5 -10.5t26 10.5t12 24.5v480zM316 812q-8 -8 -17.5 -10.5t-18.5 -2.5q-21 0 -35.5 14t-14.5 35q0 20 15 35l79 81q8 8 17.5 11t18.5 3q20 0 35 -14.5t15 -34.5
q0 -21 -15 -36z" />
    <glyph glyph-name="Wdieresis" unicode="&#x1e84;" 
d="M396 808q-20 0 -34.5 14.5t-14.5 35.5v19q0 21 14.5 35.5t34.5 14.5h20q21 0 35 -14.5t14 -35.5v-19q0 -21 -14 -35.5t-35 -14.5h-20zM224 808q-21 0 -35 14.5t-14 35.5v19q0 21 14 35.5t35 14.5h20q20 0 34.5 -14.5t14.5 -35.5v-19q0 -21 -14.5 -35.5t-34.5 -14.5h-20z
M445 651q0 20 14.5 34.5t35.5 14.5q20 0 34.5 -14.5t14.5 -34.5v-514q0 -21 -14 -35l-87 -88q-14 -14 -36 -14q-21 0 -35 14l-52 53l-52 -53q-14 -14 -35 -14q-22 0 -36 14l-88 88q-13 13 -13 35v514q0 20 14 34.5t35 14.5t35.5 -14.5t14.5 -34.5v-480q0 -14 12 -24.5
t26 -10.5t25.5 10.5t11.5 24.5v179q0 21 14.5 35t35.5 14t35.5 -14t14.5 -35v-179q0 -14 11.5 -24.5t25.5 -10.5t26 10.5t12 24.5v480z" />
    <glyph glyph-name="wdieresis" unicode="&#x1e85;" 
d="M445 651q0 20 14.5 34.5t35.5 14.5q20 0 34.5 -14.5t14.5 -34.5v-514q0 -21 -14 -35l-87 -88q-14 -14 -36 -14q-21 0 -35 14l-52 53l-52 -53q-14 -14 -35 -14q-22 0 -36 14l-88 88q-13 13 -13 35v514q0 20 14 34.5t35 14.5t35.5 -14.5t14.5 -34.5v-480q0 -14 12 -24.5
t26 -10.5t25.5 10.5t11.5 24.5v179q0 21 14.5 35t35.5 14t35.5 -14t14.5 -35v-179q0 -14 11.5 -24.5t25.5 -10.5t26 10.5t12 24.5v480zM396 808q-20 0 -34.5 14.5t-14.5 35.5v19q0 21 14.5 35.5t34.5 14.5h20q21 0 35 -14.5t14 -35.5v-19q0 -21 -14 -35.5t-35 -14.5h-20z
M224 808q-21 0 -35 14.5t-14 35.5v19q0 21 14 35.5t35 14.5h20q20 0 34.5 -14.5t14.5 -35.5v-19q0 -21 -14.5 -35.5t-34.5 -14.5h-20z" />
    <glyph glyph-name="endash" unicode="&#x2013;" 
d="M476 400q21 0 35 -14t14 -35q0 -22 -14 -36t-35 -14h-310q-21 0 -35.5 14t-14.5 36q0 21 14.5 35t35.5 14h310z" />
    <glyph glyph-name="emdash" unicode="&#x2014;" 
d="M495 400q20 0 34.5 -14t14.5 -35q0 -22 -14.5 -36t-34.5 -14h-350q-21 0 -35 14t-14 36q0 21 14 35t35 14h350z" />
    <glyph glyph-name="quoteleft" unicode="&#x2018;" 
d="M301 465q-21 0 -35.5 15t-14.5 35v96q0 9 3 18t11 17l42 42q12 12 30 12t30 -12q12 -13 12 -30t-12 -29l-25 -26q21 0 34 -14.5t13 -34.5v-39q0 -20 -14.5 -35t-35.5 -15h-38z" />
    <glyph glyph-name="quoteright" unicode="&#x2019;" 
d="M339 700q21 0 35.5 -15t14.5 -35v-96q0 -9 -3 -18t-11 -17l-42 -42q-12 -12 -30 -12t-30 12q-12 14 -12 30q0 17 12 29l25 26q-21 0 -34 14.5t-13 34.5v39q0 20 14.5 35t35.5 15h38z" />
    <glyph glyph-name="quotesinglbase" unicode="&#x201a;" 
d="M339 138q21 0 35.5 -15t14.5 -35v-96q0 -9 -3 -18t-11 -17l-42 -42q-12 -12 -30 -12t-30 12q-12 13 -12 30t12 29l25 26q-21 0 -34 14.5t-13 34.5v39q0 20 14.5 35t35.5 15h38z" />
    <glyph glyph-name="quotereversed" unicode="&#x201b;" 
d="M339 700q21 0 35.5 -15t14.5 -35v-39q0 -20 -13 -34.5t-34 -14.5l25 -26q12 -12 12 -29q0 -16 -12 -30q-12 -12 -30 -12t-30 12l-42 42q-8 8 -11 17t-3 18v96q0 20 14.5 35t35.5 15h38z" />
    <glyph glyph-name="quotedblleft" unicode="&#x201c;" 
d="M198 465q-21 0 -35.5 15t-14.5 35v96q0 9 3 18t11 17l42 42q12 12 30 12t30 -12q12 -13 12 -30t-12 -29l-25 -26q21 0 34 -14.5t13 -34.5v-39q0 -20 -14.5 -35t-35.5 -15h-38zM405 465q-21 0 -35.5 15t-14.5 35v96q0 9 3 18t11 17l42 42q12 12 30 12t30 -12
q12 -13 12 -30t-12 -29l-25 -26q21 0 34 -14.5t13 -34.5v-39q0 -20 -14.5 -35t-35.5 -15h-38z" />
    <glyph glyph-name="quotedblright" unicode="&#x201d;" 
d="M443 700q21 0 35.5 -15t14.5 -35v-96q0 -9 -3 -18t-11 -17l-42 -42q-12 -12 -30 -12t-30 12q-12 14 -12 30q0 17 12 29l25 26q-21 0 -34 14.5t-13 34.5v39q0 20 14.5 35t35.5 15h38zM236 700q21 0 35.5 -15t14.5 -35v-96q0 -9 -3 -18t-11 -17l-42 -42q-12 -12 -30 -12
t-30 12q-12 14 -12 30q0 17 12 29l25 26q-21 0 -34 14.5t-13 34.5v39q0 20 14.5 35t35.5 15h38z" />
    <glyph glyph-name="quotedblbase" unicode="&#x201e;" 
d="M443 138q21 0 35.5 -15t14.5 -35v-96q0 -9 -3 -18t-11 -17l-42 -42q-12 -12 -30 -12t-30 12q-12 13 -12 30t12 29l25 26q-21 0 -34 14.5t-13 34.5v39q0 20 14.5 35t35.5 15h38zM236 138q21 0 35.5 -15t14.5 -35v-96q0 -9 -3 -18t-11 -17l-42 -42q-12 -12 -30 -12t-30 12
q-12 13 -12 30t12 29l25 26q-21 0 -34 14.5t-13 34.5v39q0 20 14.5 35t35.5 15h38z" />
    <glyph glyph-name="uni201F" unicode="&#x201f;" 
d="M236 700q21 0 35.5 -15t14.5 -35v-39q0 -20 -13 -34.5t-34 -14.5l25 -26q12 -12 12 -29q0 -16 -12 -30q-12 -12 -30 -12t-30 12l-42 42q-8 8 -11 17t-3 18v96q0 20 14.5 35t35.5 15h38zM443 700q21 0 35.5 -15t14.5 -35v-39q0 -20 -13 -34.5t-34 -14.5l25 -26
q12 -12 12 -29q0 -16 -12 -30q-12 -12 -30 -12t-30 12l-42 42q-8 8 -11 17t-3 18v96q0 20 14.5 35t35.5 15h38z" />
    <glyph glyph-name="dagger" unicode="&#x2020;" 
d="M369 513q0 -10 10 -10h116q20 0 34.5 -14.5t14.5 -34.5q0 -22 -14.5 -36.5t-34.5 -14.5h-116q-10 0 -10 -10v-344q0 -20 -14.5 -34.5t-36.5 -14.5q-20 0 -34.5 14.5t-14.5 34.5v344q0 10 -10 10h-114q-21 0 -35 14.5t-14 36.5q0 20 14 34.5t35 14.5h114q10 0 10 10v138
q0 20 14.5 34.5t34.5 14.5q22 0 36.5 -14.5t14.5 -34.5v-138z" />
    <glyph glyph-name="daggerdbl" unicode="&#x2021;" 
d="M369 307q0 -10 10 -10h116q20 0 34.5 -14.5t14.5 -35.5t-14.5 -35.5t-34.5 -14.5h-116q-10 0 -10 -10v-138q0 -20 -14.5 -34.5t-36.5 -14.5q-20 0 -34.5 14.5t-14.5 34.5v138q0 10 -10 10h-114q-21 0 -35 14.5t-14 35.5t14 35.5t35 14.5h114q10 0 10 10v86q0 10 -10 10
h-114q-21 0 -35 14.5t-14 36.5q0 20 14 34.5t35 14.5h114q10 0 10 10v138q0 20 14.5 34.5t34.5 14.5q22 0 36.5 -14.5t14.5 -34.5v-138q0 -10 10 -10h116q20 0 34.5 -14.5t14.5 -34.5q0 -22 -14.5 -36.5t-34.5 -14.5h-116q-10 0 -10 -10v-86z" />
    <glyph glyph-name="bullet" unicode="&#x2022;" 
d="M206 380q0 5 2 11.5t7 11.5l52 52q11 9 24 9h59q16 0 25 -9l51 -52q9 -10 9 -23v-61q0 -12 -9 -23l-51 -51q-9 -9 -25 -9h-59q-13 0 -24 9l-52 52q-9 11 -9 22v61z" />
    <glyph glyph-name="ellipsis" unicode="&#x2026;" 
d="M109 0q-21 0 -35.5 14.5t-14.5 34.5v40q0 20 14.5 34.5t35.5 14.5h39q21 0 35 -14.5t14 -34.5v-40q0 -20 -14 -34.5t-35 -14.5h-39zM301 0q-21 0 -35.5 14.5t-14.5 34.5v40q0 20 14.5 34.5t35.5 14.5h39q21 0 35 -14.5t14 -34.5v-40q0 -20 -14 -34.5t-35 -14.5h-39z
M493 0q-21 0 -35 14.5t-14 34.5v40q0 20 14 34.5t35 14.5h39q21 0 35.5 -14.5t14.5 -34.5v-40q0 -20 -14.5 -34.5t-35.5 -14.5h-39z" />
    <glyph glyph-name="guilsinglleft" unicode="&#x2039;" 
d="M358 534q7 7 16 10t17 3q21 0 37.5 -14.5t16.5 -35.5q0 -9 -3 -18t-11 -17l-87 -84q-13 -13 -13 -28t14 -29l84 -81q7 -7 10 -16.5t3 -19.5q0 -21 -13.5 -35.5t-35.5 -14.5q-9 0 -18.5 3t-17.5 11l-147 147q-7 6 -10.5 15.5t-3.5 19.5t3.5 20t10.5 16z" />
    <glyph glyph-name="guilsinglright" unicode="&#x203a;" 
d="M431 386q7 -6 10.5 -16t3.5 -20t-3.5 -19.5t-10.5 -15.5l-147 -147q-8 -8 -17.5 -11t-19.5 -3q-21 0 -34.5 14.5t-13.5 35.5q0 10 3 19.5t10 16.5l84 81q14 14 14 29t-13 28l-87 84q-8 8 -11 17t-3 18q0 21 16.5 35.5t36.5 14.5q9 0 18 -3t16 -10z" />
    <glyph glyph-name="fraction" unicode="&#x2044;" 
d="M445 651q0 20 14.5 34.5t35.5 14.5q20 0 34.5 -14.5t14.5 -34.5v-127q0 -20 -15 -35l-325 -326q-9 -7 -9 -21v-93q0 -20 -14.5 -34.5t-35.5 -14.5t-35 14.5t-14 34.5v127q0 18 14 35l326 326q9 8 9 21v93z" />
    <glyph glyph-name="franc" unicode="&#x20a3;" 
d="M96 651q0 20 14 34.5t35 14.5h350q20 0 34.5 -14.5t14.5 -34.5q0 -21 -14.5 -36t-34.5 -15h-260q-17 0 -28.5 -11t-11.5 -28v-121q0 -17 11.5 -29t28.5 -12h193q20 0 34.5 -14t14.5 -35t-14.5 -35.5t-34.5 -14.5h-193q-17 0 -28.5 -12t-11.5 -29v-29q0 -10 10 -10h137
q21 0 35 -14.5t14 -34.5q0 -22 -14 -36.5t-35 -14.5h-137q-10 0 -10 -10v-62q0 -20 -14.5 -34.5t-35.5 -14.5t-35 14.5t-14 34.5v62q0 10 -10 10h-10q-21 0 -35 14.5t-14 36.5q0 20 14 34.5t35 14.5h10q10 0 10 10v421z" />
    <glyph glyph-name="lira" unicode="&#x20a4;" 
d="M185 568q0 9 3 18t11 17l83 82q15 15 35 15h95q21 0 36 -15l82 -82q8 -8 11 -17t3 -18v-45q0 -21 -14.5 -35.5t-34.5 -14.5q-21 0 -35.5 14.5t-14.5 35.5v11q0 15 -10 22l-35 35q-9 9 -21 9h-28q-13 0 -22 -9l-34 -35q-4 -4 -7 -10.5t-3 -11.5v-89q0 -10 10 -10h155
q20 0 35 -14.5t15 -35.5q0 -20 -15 -35t-35 -15h-155q-10 0 -10 -10v-24q0 -10 10 -10h155q20 0 35 -15t15 -35q0 -21 -15 -35.5t-35 -14.5h-155q-10 0 -10 -10v-72q0 -9 10 -9h200q20 0 34.5 -15t14.5 -36q0 -20 -14.5 -34.5t-34.5 -14.5h-350q-21 0 -35 14.5t-14 34.5
q0 21 14 36t35 15h31q9 0 9 9v72q0 10 -9 10h-31q-21 0 -35 14.5t-14 35.5q0 20 14 35t35 15h31q9 0 9 10v24q0 10 -9 10h-31q-21 0 -35 15t-14 35q0 21 14 35.5t35 14.5h31q9 0 9 10v123z" />
    <glyph glyph-name="Euro" unicode="&#x20ac;" 
d="M446 533q-3 17 -11 23l-35 35q-9 9 -21 9h-48q-12 0 -21 -9l-35 -35q-4 -4 -7 -10.5t-3 -11.5v-52q0 -10 10 -10h125q21 0 36 -14.5t15 -35.5t-15 -35t-36 -14h-125q-10 0 -10 -10v-26q0 -10 10 -10h125q21 0 36 -14t15 -35t-15 -35.5t-36 -14.5h-125q-10 0 -10 -10v-52
q0 -15 10 -22l35 -35q9 -9 21 -9h48q12 0 21 9l35 35q8 6 11 23t17 28.5t32 11.5q20 0 34.5 -14.5t14.5 -34.5v-25q0 -22 -14 -36l-82 -82q-15 -15 -36 -15h-114q-21 0 -36 15l-83 82q-13 13 -13 36v85q0 10 -10 10h-11q-21 0 -35 14.5t-14 35.5t14 35t35 14h11q10 0 10 10
v26q0 10 -10 10h-11q-21 0 -35 14t-14 35t14 35.5t35 14.5h11q10 0 10 10v86q0 19 13 35l83 82q15 15 36 15h114q21 0 36 -15l82 -82q8 -8 11 -17t3 -18v-26q0 -20 -14.5 -34.5t-34.5 -14.5q-18 0 -32 11.5t-17 28.5z" />
    <glyph glyph-name="trademark" unicode="&#x2122;" 
d="M262 700q11 0 19 -7.5t8 -19.5q0 -29 -31 -29h-29q-9 0 -9 -7v-142q0 -12 -8 -19.5t-19 -7.5t-19.5 7.5t-8.5 19.5v142q0 7 -8 7h-31q-30 0 -30 29q0 12 8 19.5t19 7.5h139zM470 566q0 -8 -5 -18t-19 -10t-19.5 10t-5.5 18v20q0 6 -5 11l-6 5q-1 1 -3 1t-2 -4v-104
q0 -12 -9 -19.5t-18 -7.5q-10 0 -19.5 7.5t-9.5 19.5v178q0 13 9.5 20t19.5 7q12 0 22 -10l41 -42q2 -3 5 -3q4 0 5 3l41 42q10 10 23 10q10 0 19.5 -7t9.5 -20v-178q0 -12 -9.5 -19.5t-19.5 -7.5q-11 0 -19.5 7.5t-8.5 19.5v104q0 4 -2 4t-3 -1l-7 -6q-5 -5 -5 -11v-19z
" />
    <glyph glyph-name="arrowleft" unicode="&#x2190;" 
d="M279 411q-4 -4 -4 -7q0 -4 8 -4h212q20 0 34.5 -14t14.5 -35q0 -22 -14.5 -36t-34.5 -14h-215q-8 0 -8 -4q0 -3 4 -7l107 -107q13 -13 13 -35t-13.5 -36t-35.5 -14q-10 0 -19.5 3t-16.5 10l-202 202q-7 7 -10 16.5t-3 19.5q0 14 5.5 23.5t13.5 17.5l197 198q7 7 16 10
t18 3q21 0 36.5 -14.5t15.5 -35.5q0 -17 -14 -34z" />
    <glyph glyph-name="arrowup" unicode="&#x2191;" 
d="M382 390q-4 4 -7 4q-4 0 -4 -8v-212q0 -20 -14 -34t-35 -14q-22 0 -36 14t-14 34v215q0 8 -4 8q-3 0 -7 -4l-107 -107q-13 -13 -35 -13t-36 13.5t-14 35.5q0 10 3 19.5t10 16.5l202 202q7 7 16.5 10t19.5 3q14 0 23.5 -5.5t17.5 -13.5l198 -197q7 -7 10 -16t3 -18
q0 -21 -14.5 -36.5t-35.5 -15.5q-17 0 -34 14z" />
    <glyph glyph-name="arrowright" unicode="&#x2192;" 
d="M256 517q-14 17 -14 34q0 21 15.5 35.5t36.5 14.5q9 0 18 -3t16 -10l197 -198q8 -8 13.5 -17.5t5.5 -23.5q0 -10 -3 -19.5t-10 -16.5l-202 -202q-7 -7 -16.5 -10t-19.5 -3q-22 0 -35.5 14t-13.5 36t13 35l107 107q4 4 4 7q0 4 -8 4h-215q-20 0 -34.5 14t-14.5 36
q0 21 14.5 35t34.5 14h212q8 0 8 4q0 3 -4 7z" />
    <glyph glyph-name="arrowdown" unicode="&#x2193;" 
d="M488 414q17 14 34 14q21 0 35.5 -15.5t14.5 -36.5q0 -9 -3 -18t-10 -16l-198 -197q-8 -8 -17.5 -13.5t-23.5 -5.5q-10 0 -19.5 3t-16.5 10l-202 202q-7 7 -10 16.5t-3 19.5q0 22 14 35.5t36 13.5t35 -13l107 -107q4 -4 7 -4q4 0 4 8v215q0 20 14 34t36 14q21 0 35 -14
t14 -34v-212q0 -8 4 -8q3 0 7 4z" />
    <glyph glyph-name="minus" unicode="&#x2212;" 
d="M476 400q21 0 35 -14t14 -35q0 -22 -14 -36t-35 -14h-310q-21 0 -35.5 14t-14.5 36q0 21 14.5 35t35.5 14h310z" />
    <glyph glyph-name="uni2215" unicode="&#x2215;" 
d="M445 651q0 20 14.5 34.5t35.5 14.5q20 0 34.5 -14.5t14.5 -34.5v-127q0 -20 -15 -35l-325 -326q-9 -7 -9 -21v-93q0 -20 -14.5 -34.5t-35.5 -14.5t-35 14.5t-14 34.5v127q0 18 14 35l326 326q9 8 9 21v93z" />
    <glyph glyph-name="uni2219" unicode="&#x2219;" 
d="M206 380q0 5 2 11.5t7 11.5l52 52q11 9 24 9h59q16 0 25 -9l51 -52q9 -10 9 -23v-61q0 -12 -9 -23l-51 -51q-9 -9 -25 -9h-59q-13 0 -24 9l-52 52q-9 11 -9 22v61z" />
    <glyph glyph-name="triagup" unicode="&#x25b2;" 
d="M119 200q-22 1 -36 14.5t-14 35.5q0 10 3 19.5t10 16.5l202 202q7 7 16.5 10t19.5 3q14 0 23.5 -5.5t17.5 -13.5l198 -197q7 -7 10 -16t3 -18q0 -20 -14 -35.5t-34 -15.5h-405z" />
    <glyph glyph-name="triagrt" unicode="&#x25ba;" 
d="M170 554q0 20 15.5 34t35.5 14q9 0 18 -3t16 -10l197 -198q8 -8 13.5 -17.5t5.5 -23.5q0 -10 -3 -19.5t-10 -16.5l-202 -202q-7 -7 -16.5 -10t-19.5 -3q-22 0 -35.5 14t-14.5 36v405z" />
    <glyph glyph-name="triagdn" unicode="&#x25bc;" 
d="M524 501q20 0 34 -15.5t14 -35.5q0 -9 -3 -18t-10 -16l-198 -197q-8 -8 -17.5 -13.5t-23.5 -5.5q-10 0 -19.5 3t-16.5 10l-202 202q-7 7 -10 16.5t-3 19.5q0 22 14 35.5t36 14.5h405z" />
    <glyph glyph-name="triaglf" unicode="&#x25c4;" 
d="M471 149q-1 -22 -14.5 -36t-35.5 -14q-10 0 -19.5 3t-16.5 10l-202 202q-7 7 -10 16.5t-3 19.5q0 14 5.5 23.5t13.5 17.5l197 198q7 7 16 10t18 3q20 0 35.5 -14t15.5 -34v-405z" />
  </font>
</defs>
</svg>
