<?xml version="1.0" standalone="no"?>
<!DOCTYPE svg PUBLIC "-//W3C//DTD SVG 1.1//EN" "http://www.w3.org/Graphics/SVG/1.1/DTD/svg11.dtd" >
<svg xmlns="http://www.w3.org/2000/svg" xmlns:xlink="http://www.w3.org/1999/xlink" version="1.1">
<metadata>
Created by FontForge 20170731 at Sat Dec 18 19:05:51 2021
 By Aleksey,,,
Copyright (c) 2021 by ATK Studio. All rights reserved.
</metadata>
<defs>
<font id="ProtoMonoLight" horiz-adv-x="640" >
  <font-face 
    font-family="Proto Mono Light"
    font-weight="300"
    font-stretch="normal"
    units-per-em="1000"
    panose-1="0 0 0 0 0 0 0 0 0 0"
    ascent="800"
    descent="-200"
    x-height="700"
    cap-height="700"
    bbox="28 -268 611 999"
    underline-thickness="50"
    underline-position="-175"
    unicode-range="U+000D-25C4"
  />
<missing-glyph horiz-adv-x="500" 
 />
    <glyph glyph-name=".notdef" horiz-adv-x="500" 
 />
    <glyph glyph-name="uni0000" horiz-adv-x="0" 
 />
    <glyph glyph-name="uni000D" unicode="&#xd;" horiz-adv-x="250" 
 />
    <glyph glyph-name="uni000D.1" horiz-adv-x="250" 
 />
    <glyph glyph-name="uni000D.1" horiz-adv-x="250" 
 />
    <glyph glyph-name="space" unicode=" " 
 />
    <glyph glyph-name="exclam" unicode="!" 
d="M361 244q0 -17 -12 -29t-29 -12t-29 12t-12 29v415q0 17 12 29t29 12t29 -12t12 -29v-415zM299 0q-17 0 -28.5 12t-11.5 29v40q0 17 11.5 29t28.5 12h41q17 0 28.5 -12t11.5 -29v-40q0 -17 -11.5 -29t-28.5 -12h-41z" />
    <glyph glyph-name="quotedbl" unicode="&#x22;" 
d="M269 518q0 -17 -12.5 -28.5t-29.5 -11.5t-28.5 11.5t-11.5 28.5v141q0 17 11.5 29t28.5 12t29.5 -12t12.5 -29v-141zM453 518q0 -17 -12 -28.5t-29 -11.5t-29 11.5t-12 28.5v141q0 17 12 29t29 12t29 -12t12 -29v-141z" />
    <glyph glyph-name="numbersign" unicode="#" 
d="M171 184v2q0 18 -18 18h-13q-17 0 -29 12t-12 29t12 29t29 12h23q22 0 23 19l9 90v2q0 18 -18 18h-37q-17 0 -29 12.5t-12 29.5t12 28.5t29 11.5h48q21 0 22 19l15 146q2 16 14.5 26.5t27.5 10.5h5q14 0 24 -12.5t10 -28.5v-5l-14 -136v-2q0 -18 18 -18h54q9 0 15.5 5.5
t7.5 13.5l15 146q2 16 14 26.5t27 10.5h5q16 -2 26 -13.5t10 -27.5v-5l-15 -136v-2q0 -18 18 -18h13q17 0 29 -11.5t12 -28.5t-12 -29.5t-29 -12.5h-23q-9 0 -15.5 -5.5t-7.5 -13.5l-9 -90v-2q0 -18 19 -18h36q17 0 29 -12t12 -29t-12 -29t-29 -12h-48q-21 0 -22 -19
l-18 -149q-2 -16 -14 -26.5t-28 -10.5h-5q-14 0 -24 12.5t-10 28.5v5l17 139v2q0 18 -18 18h-54q-21 0 -22 -19l-19 -149q-2 -16 -14 -26.5t-27 -10.5h-5q-16 0 -26 12.5t-10 28.5v5zM340 286q21 0 22 19l10 90v2q0 18 -18 18h-54q-21 0 -22 -19l-10 -90v-2q0 -18 18 -18h54
z" />
    <glyph glyph-name="dollar" unicode="$" 
d="M259 700q20 0 20 20v14q0 17 12 29t29 12t29 -12t12 -29v-14q0 -20 20 -20h34q18 0 28 -12l87 -84q11 -14 11 -30v-46q0 -17 -12 -29t-29 -12t-29 12t-12 29v12q0 8 -4 15.5t-9 12.5l-37 38q-10 12 -28 12q-20 0 -20 -19v-187q0 -20 20 -20h34q16 0 29 -13l86 -85
q11 -11 11 -29v-138q0 -17 -11 -31l-87 -84q-10 -12 -28 -12h-34q-20 0 -20 -20v-14q0 -17 -12 -29t-29 -12t-29 12t-12 29v14q0 20 -20 20h-35q-17 0 -28 12l-85 84q-12 15 -12 31v46q0 17 12 28.5t29 11.5t29 -11.5t12 -28.5v-13q0 -17 12 -28l38 -38q11 -12 28 -12
q20 0 20 20v187q0 20 -20 20h-35q-17 0 -29 12l-84 85q-12 12 -12 29v139q0 15 12 30l85 84q11 12 28 12h35zM279 599q0 19 -19 19q-17 0 -29 -12l-38 -38q-12 -10 -12 -28v-70q0 -17 12 -29l38 -37q11 -12 28 -12q20 0 20 19v188zM361 102q0 -20 19 -20t29 12l37 38
q5 5 9 12.5t4 15.5v70q0 8 -4 16t-9 13l-36 38q-12 12 -29 12q-20 0 -20 -19v-188z" />
    <glyph glyph-name="percent" unicode="%" 
d="M459 659q0 17 12 29t29 12t29 -12t12 -29v-129q0 -10 -3 -16.5t-9 -13.5l-336 -336q-12 -10 -12 -28v-95q0 -17 -12 -29t-29 -12t-29 12t-12 29v129q0 10 3.5 16.5t9.5 13.5l334 336q5 5 9 12.5t4 15.5v95zM140 558q-17 0 -29 12t-12 29v60q0 17 12 29t29 12h60
q17 0 28.5 -12t11.5 -29v-60q0 -17 -11.5 -29t-28.5 -12h-60zM439 0q-17 0 -28.5 12t-11.5 29v61q0 17 11.5 28.5t28.5 11.5h61q17 0 29 -11.5t12 -28.5v-61q0 -17 -12 -29t-29 -12h-61z" />
    <glyph glyph-name="ampersand" unicode="&#x26;" 
d="M495 127q0 -16 -12 -31l-84 -84q-13 -12 -31 -12h-144q-17 0 -28 12l-85 84q-12 15 -12 31v138q0 17 12 29l20 20q14 16 14 36t-14 36l-20 20q-12 12 -12 29v139q0 15 12 30l85 84q11 12 28 12h96q17 0 29 -12t12 -29t-12 -29t-29 -12h-61q-17 0 -29 -12l-37 -38
q-12 -10 -12 -28v-70q0 -17 12 -29l36 -38q12 -12 30 -12h134q20 0 20 20v24q0 17 11.5 29.5t28.5 12.5t29.5 -12.5t12.5 -29.5v-24q0 -20 20 -20h24q17 0 29 -12t12 -29t-12 -29t-29 -12h-24q-20 0 -20 -20v-162zM413 289q0 20 -20 20h-134q-18 0 -30 -12l-37 -38
q-11 -11 -11 -29v-70q0 -17 12 -28l37 -38q12 -12 29 -12h75q18 0 28 12l39 37q12 12 12 29v129z" />
    <glyph glyph-name="quotesingle" unicode="'" 
d="M361 518q0 -17 -12 -28.5t-29 -11.5t-29 11.5t-12 28.5v141q0 17 12 29t29 12t29 -12t12 -29v-141z" />
    <glyph glyph-name="parenleft" unicode="(" 
d="M396 36q17 0 28.5 -12t11.5 -29t-11.5 -29.5t-28.5 -12.5h-67q-19 0 -29 13l-86 84q-11 13 -11 29v541q0 16 11 29l86 84q10 13 29 13h67q17 0 28.5 -12t11.5 -29t-11.5 -29.5t-28.5 -12.5h-33q-17 0 -28 -12l-38 -37q-12 -12 -12 -29v-471q0 -17 12 -29l38 -37
q11 -12 28 -12h33z" />
    <glyph glyph-name="parenright" unicode=")" 
d="M276 36q18 0 28 12l38 37q12 12 12 29v471q0 17 -12 29l-38 37q-10 12 -28 12h-32q-17 0 -29 12.5t-12 29.5t12 29t29 12h66q19 0 29 -13l86 -84q11 -13 11 -29v-541q0 -16 -11 -29l-86 -84q-10 -13 -29 -13h-66q-17 0 -29 12.5t-12 29.5t12 29t29 12h32z" />
    <glyph glyph-name="asterisk" unicode="*" 
d="M270 616q3 -3 8 -3q12 0 12 15v43q0 12 9 20.5t21 8.5t20.5 -8.5t8.5 -20.5v-43q0 -15 12 -15q5 0 8 3l38 21q8 3 15 3q12 0 20 -8t8 -20q0 -19 -13 -26l-38 -22q-8 -5 -8 -11t8 -11l38 -23q13 -7 13 -25q0 -12 -7.5 -20t-20.5 -8q-7 0 -15 3l-38 21q-3 3 -8 3
q-12 0 -12 -15v-43q0 -12 -8.5 -20.5t-20.5 -8.5t-21 8.5t-9 20.5v43q0 15 -12 15q-5 0 -8 -3l-38 -21q-7 -3 -15 -3q-12 0 -20 8t-8 19q0 18 14 26l37 23q10 7 10 11q0 5 -10 11l-37 22q-14 8 -14 27q0 11 8.5 19t19.5 8q8 0 15 -3z" />
    <glyph glyph-name="plus" unicode="+" 
d="M457 390q17 0 28.5 -12t11.5 -29t-11.5 -29t-28.5 -12h-45q-22 0 -36.5 -14.5t-14.5 -35.5v-46q0 -17 -12 -29t-29 -12t-29 12t-12 29v46q0 21 -14.5 35.5t-36.5 14.5h-45q-17 0 -29 12t-12 29t12 29t29 12h45q22 0 36.5 14.5t14.5 35.5v46q0 17 12 28.5t29 11.5
t29 -11.5t12 -28.5v-46q0 -21 14.5 -35.5t36.5 -14.5h45z" />
    <glyph glyph-name="comma" unicode="," 
d="M339 122q17 0 29 -12.5t12 -29.5v-98q0 -15 -12 -30l-43 -42q-9 -9 -24 -9q-14 0 -23 9t-9 23q0 13 10 24l43 43h-23q-17 0 -28.5 12t-11.5 29v39q0 17 11.5 29.5t28.5 12.5h40z" />
    <glyph glyph-name="hyphen" unicode="-" 
d="M457 392q17 0 28.5 -12t11.5 -29t-11.5 -29t-28.5 -12h-274q-17 0 -29 12t-12 29t12 29t29 12h274z" />
    <glyph glyph-name="period" unicode="." 
d="M294 0q-17 0 -28.5 12t-11.5 29v50q0 17 11.5 29t28.5 12h51q17 0 29 -12t12 -29v-50q0 -17 -12 -29t-29 -12h-51z" />
    <glyph glyph-name="slash" unicode="/" 
d="M459 659q0 17 12 29t29 12t29 -12t12 -29v-129q0 -10 -3 -16.5t-9 -13.5l-336 -336q-12 -10 -12 -28v-95q0 -17 -12 -29t-29 -12t-29 12t-12 29v129q0 10 3.5 16.5t9.5 13.5l334 336q5 5 9 12.5t4 15.5v95z" />
    <glyph glyph-name="zero" unicode="0" 
d="M217 688q11 12 29 12h148q15 0 29 -11l106 -108q12 -10 12 -28v-406q0 -16 -12 -30l-106 -106q-11 -11 -29 -11h-148q-18 0 -29 12l-106 106q-12 14 -12 29v406q0 16 12 29zM439 529q6 5 6 13t-6 14l-51 51q-11 11 -29 11h-79q-17 0 -28 -12l-59 -59q-12 -10 -12 -29
v-221q0 -13 9 -13q6 0 9 5zM359 82q17 0 29 12l58 59q5 5 9 13t4 16v221q0 13 -10 13q-6 0 -9 -5l-240 -240q-7 -4 -7 -13q0 -7 7 -14l52 -51q11 -11 28 -11h79z" />
    <glyph glyph-name="one" unicode="1" 
d="M279 533q0 13 -9 13q-5 0 -10 -5l-44 -45q-13 -12 -30 -12t-29 11.5t-12 28.5q0 20 11 31l134 134q11 11 31 11q17 0 28.5 -12t11.5 -29v-526q0 -21 14.5 -36t36.5 -15h42q17 0 29 -12t12 -29t-12 -29t-29 -12h-268q-17 0 -29 12t-12 29t12 29t29 12h42q22 0 36.5 15
t14.5 36v400z" />
    <glyph glyph-name="two" unicode="2" 
d="M182 528q0 -17 -12.5 -29t-29.5 -12t-29 12t-12 29v46q0 15 12 30l86 84q11 12 28 12h190q18 0 28 -12l86 -84q12 -15 12 -30v-63q0 -18 -11 -29l-336 -336q-10 -7 -10 -22q0 -19 15.5 -30.5t32.5 -11.5h268q17 0 29 -12t12 -29t-12 -29t-29 -12h-360q-17 0 -29 12
t-12 29v111q0 18 12 30l337 337q5 4 8 11t3 13q0 14 -11 23l-39 40q-10 12 -29 12h-120q-17 0 -29 -12l-37 -38q-12 -10 -12 -28v-12z" />
    <glyph glyph-name="three" unicode="3" 
d="M182 528q0 -17 -12.5 -29t-29.5 -12t-29 12t-12 29v46q0 15 12 30l86 84q11 12 28 12h190q18 0 28 -12l87 -84q11 -14 11 -30v-139q0 -18 -11 -29l-21 -20q-15 -16 -15 -36q0 -19 15 -36l21 -20q11 -11 11 -29v-139q0 -16 -11 -30l-87 -84q-10 -12 -28 -12h-190
q-17 0 -28 12l-86 84q-12 15 -12 30v47q0 17 12 28.5t29 11.5t29.5 -11.5t12.5 -28.5v-13q0 -17 12 -28l37 -38q12 -12 29 -12h120q19 0 29 12l37 38q5 5 9 12.5t4 15.5v70q0 8 -4 16t-9 13l-36 38q-12 12 -30 12h-115q-18 0 -30 12t-12 29t12 29t30 12h115q18 0 30 12
l37 38q12 12 12 29v70q0 8 -4 15.5t-9 12.5l-37 38q-10 12 -29 12h-120q-17 0 -29 -12l-37 -38q-12 -10 -12 -28v-12z" />
    <glyph glyph-name="four" unicode="4" 
d="M408 368q21 0 36 15t15 36v240q0 17 12 29t29 12t29 -12t12 -29v-618q0 -17 -12 -29t-29 -12t-29 12t-12 29v194q0 22 -15 36.5t-36 14.5h-184q-17 0 -28 12l-85 84q-12 15 -12 31v246q0 17 12 29t29 12t29 -12t12 -29v-213q0 -17 12 -28l37 -38q12 -12 29 -12h149z" />
    <glyph glyph-name="five" unicode="5" 
d="M181 160q0 -17 12 -28l37 -38q12 -12 29 -12h121q19 0 29 12l37 38q5 5 9 12.5t4 15.5v94q0 8 -4 15.5t-9 12.5l-37 38q-10 12 -29 12h-156q-17 0 -28 12l-85 84q-12 14 -12 31v200q0 17 12 29t29 12h360q17 0 29 -12t12 -29t-12 -29t-29 -12h-269q-21 0 -35.5 -15
t-14.5 -36v-75q0 -17 12 -28l37 -38q12 -12 29 -12h155q19 0 29 -12l87 -84q11 -14 11 -31v-161q0 -16 -11 -30l-87 -84q-10 -12 -29 -12h-190q-17 0 -28 12l-85 84q-12 15 -12 30v47q0 17 12 28.5t29 11.5t29 -11.5t12 -28.5v-13z" />
    <glyph glyph-name="six" unicode="6" 
d="M459 540q0 8 -4 15.5t-9 12.5l-37 38q-10 12 -29 12h-121q-17 0 -29 -12l-37 -38q-12 -10 -12 -28v-98q0 -21 14.5 -36t35.5 -15h183q17 0 30 -12l86 -85q11 -11 11 -29v-139q0 -16 -11 -30l-87 -84q-10 -12 -29 -12h-190q-17 0 -28 12l-85 84q-12 15 -12 30v448
q0 15 12 30l85 84q11 12 28 12h190q19 0 29 -12l87 -84q11 -14 11 -30v-46q0 -17 -12 -29t-29 -12t-29 12t-12 29v12zM181 160q0 -17 12 -28l37 -38q12 -12 29 -12h121q19 0 29 12l37 38q5 5 9 12.5t4 15.5v70q0 8 -4 16t-9 13l-36 38q-12 12 -30 12h-149q-21 0 -35.5 -15
t-14.5 -36v-98z" />
    <glyph glyph-name="seven" unicode="7" 
d="M361 41q0 -17 -11.5 -29t-28.5 -12q-18 0 -30 12t-12 29v309q0 18 11 29l156 157q5 5 9 12.5t4 15.5v3q0 21 -15 36t-36 15h-268q-17 0 -29 12t-12 29t12 29t29 12h360q17 0 29 -12t12 -29v-129q0 -19 -11 -30l-157 -156q-12 -10 -12 -28v-275z" />
    <glyph glyph-name="eight" unicode="8" 
d="M224 0q-17 0 -28 12l-85 84q-12 15 -12 30v139q0 17 12 29l20 20q14 16 14 36t-14 36l-20 20q-12 12 -12 29v139q0 15 12 30l85 84q11 12 28 12h191q18 0 28 -12l87 -84q11 -14 11 -30v-139q0 -18 -11 -29l-21 -20q-15 -16 -15 -36q0 -19 15 -36l21 -20q11 -11 11 -29
v-139q0 -16 -11 -30l-87 -84q-10 -12 -28 -12h-191zM409 606q-10 12 -29 12h-121q-17 0 -29 -12l-37 -38q-12 -10 -12 -28v-70q0 -17 12 -29l36 -38q12 -12 30 -12h121q18 0 30 12l37 38q12 12 12 29v70q0 8 -4 15.5t-9 12.5zM410 297q-12 12 -30 12h-121q-18 0 -30 -12
l-37 -38q-11 -11 -11 -29v-70q0 -17 12 -28l37 -38q12 -12 29 -12h121q19 0 29 12l37 38q5 5 9 12.5t4 15.5v70q0 8 -4 16t-9 13z" />
    <glyph glyph-name="nine" unicode="9" 
d="M181 160q0 -17 12 -28l37 -38q12 -12 29 -12h121q19 0 29 12l37 38q5 5 9 12.5t4 15.5v98q0 21 -15 36t-36 15h-184q-15 0 -29 12l-84 85q-12 12 -12 29v139q0 15 12 30l85 84q11 12 28 12h191q18 0 28 -12l87 -84q11 -14 11 -30v-448q0 -16 -11 -30l-87 -84
q-10 -12 -28 -12h-191q-17 0 -28 12l-85 84q-12 15 -12 30v47q0 17 12 28.5t29 11.5t29 -11.5t12 -28.5v-13zM459 540q0 8 -4 15.5t-9 12.5l-37 38q-10 12 -29 12h-121q-17 0 -29 -12l-37 -38q-12 -10 -12 -28v-70q0 -17 12 -29l36 -38q12 -12 30 -12h149q21 0 36 15t15 36
v98z" />
    <glyph glyph-name="colon" unicode=":" 
d="M294 345q-17 0 -28.5 12t-11.5 29v50q0 17 11.5 29t28.5 12h51q17 0 29 -12t12 -29v-50q0 -17 -12 -29t-29 -12h-51zM294 0q-17 0 -28.5 12t-11.5 29v50q0 17 11.5 29t28.5 12h51q17 0 29 -12t12 -29v-50q0 -17 -12 -29t-29 -12h-51z" />
    <glyph glyph-name="semicolon" unicode=";" 
d="M294 345q-17 0 -28.5 12t-11.5 29v50q0 17 11.5 29t28.5 12h51q17 0 29 -12t12 -29v-50q0 -17 -12 -29t-29 -12h-51zM339 122q17 0 29 -12.5t12 -29.5v-98q0 -15 -12 -30l-43 -42q-9 -9 -24 -9q-14 0 -23 9t-9 23q0 13 9 24l44 43h-23q-17 0 -28.5 12t-11.5 29v39
q0 17 11.5 29.5t28.5 12.5h40z" />
    <glyph glyph-name="less" unicode="&#x3c;" 
d="M404 608q11 11 28 11t30.5 -12.5t13.5 -29.5t-11 -28l-165 -165q-17 -15 -17 -35q0 -19 18 -37l162 -161q11 -11 11 -29t-11.5 -30t-29.5 -12q-19 0 -30 11l-227 228q-12 11 -12 30q0 18 12 30z" />
    <glyph glyph-name="equal" unicode="=" 
d="M457 497q17 0 28.5 -11.5t11.5 -28.5q0 -18 -11.5 -30t-28.5 -12h-274q-17 0 -29 12t-12 30q0 17 12 28.5t29 11.5h274zM457 286q17 0 28.5 -11.5t11.5 -28.5q0 -18 -11.5 -30t-28.5 -12h-274q-17 0 -29 12t-12 30q0 17 12 28.5t29 11.5h274z" />
    <glyph glyph-name="greater" unicode="&#x3e;" 
d="M465 379q11 -14 11 -30q0 -19 -11 -30l-228 -228q-11 -11 -30 -11q-17 0 -29 12t-12 30q0 19 12 29l161 161q18 18 18 37q0 20 -17 35l-164 165q-12 11 -12 28t13.5 29.5t30.5 12.5t28 -11z" />
    <glyph glyph-name="question" unicode="?" 
d="M541 508q0 -18 -11 -29l-157 -156q-12 -12 -12 -29v-50q0 -17 -11.5 -29t-28.5 -12q-18 0 -30 12t-12 29v85q0 18 11 29l156 156q5 5 9 13t4 16q0 14 -11 23l-39 40q-10 12 -29 12h-120q-17 0 -29 -12l-37 -38q-12 -10 -12 -28v-12q0 -17 -12.5 -29t-29.5 -12t-29 12
t-12 29v46q0 15 12 30l86 84q11 12 28 12h190q18 0 28 -12l86 -84q12 -15 12 -30v-66zM299 0q-17 0 -28.5 12t-11.5 29v40q0 17 11.5 29t28.5 12h41q17 0 28.5 -12t11.5 -29v-40q0 -17 -11.5 -29t-28.5 -12h-41z" />
    <glyph glyph-name="at" unicode="@" 
d="M391 274q11 -12 28 -12h19q9 0 15 5.5t6 14.5v258q0 8 -4 15.5t-9 12.5l-37 38q-10 12 -29 12h-120q-17 0 -29 -12l-38 -38q-12 -10 -12 -28v-380q0 -17 12 -28l38 -38q12 -12 29 -12h148q17 0 28.5 -12t11.5 -29t-11.5 -29t-28.5 -12h-184q-17 0 -28 12l-85 84
q-12 15 -12 31v447q0 15 12 30l85 84q11 12 28 12h190q19 0 29 -12l87 -84q11 -14 11 -30v-353q0 -17 -12 -29t-29 -12h-114q-17 0 -31 12l-65 65q-11 14 -11 29v171q0 17 12 28.5t29 11.5t29 -11.5t12 -28.5v-137q0 -17 12 -29z" />
    <glyph glyph-name="A" unicode="A" 
d="M541 41q0 -17 -12 -29t-29 -12t-29 12t-12 29v194q0 22 -15 36.5t-36 14.5h-177q-21 0 -35.5 -14.5t-14.5 -36.5v-194q0 -17 -12 -29t-29 -12t-29 12t-12 29v512q0 16 12 29l106 106q11 12 29 12h148q15 0 29 -11l106 -108q12 -10 12 -28v-512zM459 518q0 8 -4 16t-9 13
l-58 59q-12 12 -29 12h-79q-17 0 -28 -12l-59 -59q-12 -10 -12 -29v-99q0 -21 14.5 -36t35.5 -15h177q21 0 36 15t15 36v99z" />
    <glyph glyph-name="B" unicode="B" 
d="M509 386q-15 -16 -15 -36q0 -19 15 -36l21 -20q11 -11 11 -29v-138q0 -17 -11 -31l-87 -84q-10 -12 -29 -12h-274q-17 0 -29 12t-12 29v618q0 17 12 29t29 12h274q19 0 29 -12l87 -84q11 -14 11 -30v-139q0 -18 -11 -29zM447 441q12 12 12 29v70q0 8 -4 15.5t-9 12.5
l-37 38q-10 12 -29 12h-149q-21 0 -35.5 -15t-14.5 -36v-125q0 -21 14.5 -36t35.5 -15h149q18 0 30 12zM446 132q5 5 9 12.5t4 15.5v70q0 8 -4 16t-9 13l-36 38q-12 12 -30 12h-149q-21 0 -35.5 -15t-14.5 -36v-125q0 -21 14.5 -36t35.5 -15h149q19 0 29 12z" />
    <glyph glyph-name="C" unicode="C" 
d="M181 182q0 -18 12 -29l59 -59q11 -12 28 -12h78q17 0 29 12l58 59q5 5 9 13t4 16v30q0 17 12 29.5t29 12.5t29 -12.5t12 -29.5v-65q0 -17 -12 -28l-106 -108q-14 -11 -29 -11h-147q-17 0 -31 12l-104 106q-12 12 -12 29v406q0 17 12 29l104 106q14 12 31 12h147
q15 0 29 -11l106 -108q12 -10 12 -28v-65q0 -17 -12 -29.5t-29 -12.5t-29 12.5t-12 29.5v30q0 8 -4 16t-9 13l-58 59q-12 12 -29 12h-78q-17 0 -28 -12l-59 -59q-12 -10 -12 -29v-336z" />
    <glyph glyph-name="D" unicode="D" 
d="M529 581q12 -10 12 -28v-406q0 -17 -12 -28l-106 -108q-14 -11 -29 -11h-254q-17 0 -29 12t-12 29v618q0 17 12 29t29 12h254q15 0 29 -11zM446 153q5 5 9 13t4 16v336q0 8 -4 16t-9 13l-58 59q-12 12 -29 12h-128q-21 0 -35.5 -15t-14.5 -36v-434q0 -21 14.5 -36
t35.5 -15h128q17 0 29 12z" />
    <glyph glyph-name="E" unicode="E" 
d="M99 659q0 17 12 29t29 12h359q17 0 29 -12t12 -29t-12 -29t-29 -12h-268q-21 0 -35.5 -15t-14.5 -36v-125q0 -21 14.5 -36t35.5 -15h199q17 0 29.5 -12t12.5 -29t-12.5 -29t-29.5 -12h-199q-21 0 -35.5 -15t-14.5 -36v-125q0 -21 14.5 -36t35.5 -15h268q17 0 29 -12
t12 -29t-12 -29t-29 -12h-359q-17 0 -29 12t-12 29v618z" />
    <glyph glyph-name="F" unicode="F" 
d="M181 41q0 -17 -12 -29t-29 -12t-29 12t-12 29v618q0 17 12 29t29 12h359q17 0 29 -12t12 -29t-12 -29t-29 -12h-268q-21 0 -35.5 -15t-14.5 -36v-125q0 -21 14.5 -36t35.5 -15h199q17 0 29 -12t12 -29t-12 -29t-29 -12h-199q-21 0 -35.5 -15t-14.5 -36v-217z" />
    <glyph glyph-name="G" unicode="G" 
d="M459 540q0 8 -4 15.5t-9 12.5l-37 38q-10 12 -29 12h-120q-18 0 -30 -12l-37 -38q-12 -10 -12 -28v-380q0 -17 12 -28l37 -38q12 -12 30 -12h120q19 0 29 12l37 38q5 5 9 12.5t4 15.5v99q0 21 -15 35.5t-36 14.5h-61q-17 0 -29.5 12t-12.5 29t12.5 29t29.5 12h153
q17 0 29 -12t12 -29v-223q0 -17 -11 -31l-87 -84q-10 -12 -29 -12h-190q-17 0 -28 12l-85 84q-12 15 -12 31v447q0 15 12 30l85 84q11 12 28 12h190q19 0 29 -12l87 -84q11 -14 11 -30v-46q0 -17 -12 -29t-29 -12t-29 12t-12 29v12z" />
    <glyph glyph-name="H" unicode="H" 
d="M541 41q0 -17 -12 -29t-29 -12t-29 12t-12 29v217q0 21 -15 36t-36 15h-177q-21 0 -35.5 -15t-14.5 -36v-217q0 -17 -12 -29t-29 -12t-29 12t-12 29v618q0 17 12 29t29 12t29 -12t12 -29v-217q0 -21 14.5 -36t35.5 -15h177q21 0 36 15t15 36v217q0 17 12 29t29 12t29 -12
t12 -29v-618z" />
    <glyph glyph-name="I" unicode="I" 
d="M186 0q-17 0 -29 12t-12 29t12 29t29 12h42q22 0 36.5 15t14.5 36v434q0 21 -14.5 36t-36.5 15h-42q-17 0 -29 12t-12 29t12 29t29 12h268q17 0 29 -12t12 -29t-12 -29t-29 -12h-42q-22 0 -36.5 -15t-14.5 -36v-434q0 -21 14.5 -36t36.5 -15h42q17 0 29 -12t12 -29
t-12 -29t-29 -12h-268z" />
    <glyph glyph-name="J" unicode="J" 
d="M459 567q0 21 -15 36t-36 15h-89q-17 0 -29 12t-12 29t12 29t29 12h181q17 0 29 -12t12 -29v-532q0 -17 -11 -31l-87 -84q-10 -12 -28 -12h-191q-17 0 -28 12l-85 84q-12 15 -12 31v85q0 17 12 29.5t29 12.5t29 -12.5t12 -29.5v-52q0 -17 12 -28l37 -38q12 -12 29 -12
h121q19 0 29 12l37 38q5 5 9 12.5t4 15.5v407z" />
    <glyph glyph-name="K" unicode="K" 
d="M231 309q-21 0 -35.5 -15t-14.5 -36v-217q0 -17 -12 -29t-29 -12t-29 12t-12 29v618q0 17 12 29t29 12t29 -12t12 -29v-217q0 -21 14.5 -36t35.5 -15h48q18 0 28 12l139 138q5 5 9 12.5t4 15.5v90q0 17 12 29t29 12t29 -12t12 -29v-124q0 -16 -11 -30l-122 -119
q-6 -8 -10 -17t-4 -19t4 -18.5t10 -16.5l122 -120q11 -14 11 -30v-124q0 -17 -12 -29t-29 -12t-29 12t-12 29v90q0 8 -4 15.5t-9 12.5l-139 138q-10 12 -28 12h-48z" />
    <glyph glyph-name="L" unicode="L" 
d="M181 133q0 -21 14.5 -36t35.5 -15h268q17 0 29 -12t12 -29t-12 -29t-29 -12h-359q-17 0 -29 12t-12 29v618q0 17 12 29t29 12t29 -12t12 -29v-526z" />
    <glyph glyph-name="M" unicode="M" 
d="M459 533q0 13 -10 13q-6 0 -9 -5l-67 -67q-12 -12 -12 -29v-95q0 -17 -11.5 -29t-28.5 -12q-18 0 -30 12t-12 29v95q0 17 -12 29l-68 67q-3 5 -9 5q-9 0 -9 -13v-492q0 -17 -12 -29t-29 -12t-29 12t-12 29v618q0 17 12 29t29 12q15 0 29 -11l115 -116q8 -6 17 -10t20 -4
q22 0 35 15l114 115q14 11 30 11q17 0 29 -12t12 -29v-618q0 -17 -12 -29t-29 -12t-29 12t-12 29v492z" />
    <glyph glyph-name="N" unicode="N" 
d="M442 223q5 -8 9 -8q2 0 5 2.5t3 9.5v432q0 17 12 29t29 12t29 -12t12 -29v-618q0 -17 -12 -29t-29 -12q-24 0 -36 20l-267 458q-5 8 -9 8q-7 0 -7 -12v-433q0 -17 -12 -29t-29 -12t-29 12t-12 29v618q0 17 12 29t29 12q22 0 36 -20z" />
    <glyph glyph-name="O" unicode="O" 
d="M530 604q11 -14 11 -30v-448q0 -16 -11 -30l-87 -84q-10 -12 -29 -12h-190q-17 0 -28 12l-85 84q-12 15 -12 30v448q0 15 12 30l85 84q11 12 28 12h190q19 0 29 -12zM446 132q5 5 9 12.5t4 15.5v380q0 8 -4 15.5t-9 12.5l-37 38q-10 12 -29 12h-121q-17 0 -29 -12
l-37 -38q-12 -10 -12 -28v-380q0 -17 12 -28l37 -38q12 -12 29 -12h121q19 0 29 12z" />
    <glyph glyph-name="P" unicode="P" 
d="M181 41q0 -17 -12 -29t-29 -12t-29 12t-12 29v618q0 17 12 29t29 12h274q19 0 29 -12l87 -84q11 -14 11 -30v-161q0 -17 -11 -31l-87 -84q-10 -12 -29 -12h-183q-21 0 -35.5 -14.5t-14.5 -36.5v-194zM380 368q19 0 29 12l37 38q5 5 9 12.5t4 15.5v94q0 8 -4 15.5t-9 12.5
l-37 38q-10 12 -29 12h-149q-21 0 -35.5 -15t-14.5 -36v-148q0 -21 14.5 -36t35.5 -15h149z" />
    <glyph glyph-name="Q" unicode="Q" 
d="M225 0q-18 0 -29 12l-85 84q-12 15 -12 31v447q0 15 12 30l85 84q11 12 29 12h190q18 0 28 -12l87 -84q11 -14 11 -30v-447q0 -16 -11 -30l-21 -19q-15 -16 -15 -37q0 -20 15 -37l21 -19q11 -11 11 -30q0 -17 -12 -28.5t-29 -11.5q-16 0 -30 11l-60 62q-12 12 -30 12
h-155zM446 132q5 5 9 12.5t4 15.5v380q0 8 -4 15.5t-9 12.5l-37 38q-10 12 -29 12h-121q-17 0 -29 -12l-37 -38q-12 -10 -12 -28v-380q0 -17 12 -28l37 -38q12 -12 29 -12h121q19 0 29 12z" />
    <glyph glyph-name="R" unicode="R" 
d="M231 286q-21 0 -35.5 -14.5t-14.5 -36.5v-194q0 -17 -12 -29t-29 -12t-29 12t-12 29v618q0 17 12 29t29 12h254q17 0 30 -12l106 -106q11 -11 11 -29v-120q0 -15 -12 -29l-41 -41q-15 -15 -15 -35q0 -10 4 -19.5t10 -17.5l43 -40q11 -14 11 -30v-180q0 -17 -12 -29
t-29 -12t-29 12t-12 29v146q0 8 -4 15.5t-9 12.5l-58 59q-12 12 -29 12h-128zM446 439q5 5 9 13t4 16v50q0 8 -4 16t-9 13l-58 59q-12 12 -29 12h-128q-21 0 -35.5 -15t-14.5 -36v-148q0 -21 14.5 -36t35.5 -15h128q17 0 29 12z" />
    <glyph glyph-name="S" unicode="S" 
d="M459 540q0 8 -4 15.5t-9 12.5l-37 38q-10 12 -29 12h-121q-17 0 -29 -12l-37 -38q-12 -10 -12 -28v-70q0 -17 12 -29l36 -38q12 -12 30 -12h156q16 0 29 -12l86 -85q11 -11 11 -29v-139q0 -16 -11 -30l-87 -84q-10 -12 -28 -12h-191q-17 0 -28 12l-85 84q-12 15 -12 30
v47q0 17 12 28.5t29 11.5t29 -11.5t12 -28.5v-13q0 -17 12 -28l37 -38q12 -12 29 -12h121q19 0 29 12l37 38q5 5 9 12.5t4 15.5v70q0 8 -4 16t-9 13l-36 38q-12 12 -30 12h-156q-15 0 -29 12l-84 85q-12 12 -12 29v139q0 15 12 30l85 84q11 12 28 12h191q18 0 28 -12l87 -84
q11 -14 11 -30v-46q0 -17 -12 -29t-29 -12t-29 12t-12 29v12z" />
    <glyph glyph-name="T" unicode="T" 
d="M361 41q0 -17 -12 -29t-29 -12t-29 12t-12 29v526q0 21 -14.5 36t-36.5 15h-88q-17 0 -29 12t-12 29t12 29t29 12h360q17 0 29 -12t12 -29t-12 -29t-29 -12h-88q-22 0 -36.5 -15t-14.5 -36v-526z" />
    <glyph glyph-name="U" unicode="U" 
d="M181 160q0 -17 12 -28l37 -38q12 -12 29 -12h121q19 0 29 12l37 38q5 5 9 12.5t4 15.5v499q0 17 12 29t29 12t29 -12t12 -29v-533q0 -16 -11 -30l-87 -84q-10 -12 -29 -12h-190q-17 0 -28 12l-85 84q-12 15 -12 30v533q0 17 12 29t29 12t29 -12t12 -29v-499z" />
    <glyph glyph-name="V" unicode="V" 
d="M459 659q0 17 12 29t29 12t29 -12t12 -29v-457q0 -16 -12 -31l-161 -160q-11 -11 -29 -11h-39q-18 0 -29 11l-159 160q-6 8 -9.5 15t-3.5 16v457q0 17 12 29t29 12t29 -12t12 -29v-423q0 -17 12 -28l90 -91q15 -15 38 -15q20 0 35 15l91 91q12 12 12 28v423z" />
    <glyph glyph-name="W" unicode="W" 
d="M459 659q0 17 12 29t29 12t29 -12t12 -29v-528q0 -18 -11 -29l-91 -91q-11 -11 -29 -11q-16 0 -30 11l-59 62l-61 -62q-6 -6 -14.5 -8.5t-16.5 -2.5q-18 0 -29 11l-89 91q-12 12 -12 29v528q0 17 12 29t29 12t29 -12t12 -29v-494q0 -19 15.5 -32t32.5 -13q20 0 35 13
t15 32v185q0 17 12 29t30 12q17 0 28.5 -12t11.5 -29v-185q0 -19 16 -32t33 -13q19 0 34 13t15 32v494z" />
    <glyph glyph-name="X" unicode="X" 
d="M459 659q0 17 12 29t29 12t29 -12t12 -29v-149q0 -17 -12 -28l-96 -96q-15 -16 -15 -36q0 -22 16 -35l95 -97q12 -10 12 -28v-149q0 -17 -12 -29t-29 -12t-29 12t-12 29v114q0 8 -4 16t-9 13l-90 90q-7 8 -17 12t-20 4q-23 0 -36 -16l-90 -90q-12 -12 -12 -29v-114
q0 -17 -12 -29t-29 -12t-29 12t-12 29v149q0 18 13 28l94 97q15 15 15 35t-16 36l-93 96q-13 10 -13 28v149q0 17 12 29t29 12t29 -12t12 -29v-114q0 -17 12 -29l90 -92q8 -6 17 -10t19 -4t19.5 4t17.5 10l91 92q12 12 12 29v114z" />
    <glyph glyph-name="Y" unicode="Y" 
d="M112 458q-13 14 -13 30v171q0 17 12 29t29 12t29 -12t12 -29v-137q0 -17 12 -28l91 -91q15 -15 36 -15t36 15l91 91q12 12 12 28v137q0 17 12 29t29 12t29 -12t12 -29v-171q0 -16 -12 -30l-156 -156q-12 -10 -12 -28v-233q0 -17 -12 -29t-29 -12t-29 12t-12 29v233
q0 18 -12 28z" />
    <glyph glyph-name="Z" unicode="Z" 
d="M446 536q5 5 9 12.5t4 15.5v3q0 21 -15 36t-36 15h-268q-17 0 -29 12t-12 29t12 29t29 12h360q17 0 29 -12t12 -29v-129q0 -19 -11 -30l-336 -336q-12 -10 -12 -28v-3q0 -21 14.5 -36t35.5 -15h268q17 0 29 -12t12 -29t-12 -29t-29 -12h-360q-17 0 -29 12t-12 29v129
q0 18 12 30z" />
    <glyph glyph-name="bracketleft" unicode="[" 
d="M244 -47q-17 0 -29 12t-12 29v711q0 17 12 29t29 12h152q17 0 28.5 -12t11.5 -29t-11.5 -29t-28.5 -12h-60q-22 0 -36.5 -14.5t-14.5 -35.5v-529q0 -21 14.5 -35.5t36.5 -14.5h60q17 0 28.5 -12t11.5 -29t-11.5 -29t-28.5 -12h-152z" />
    <glyph glyph-name="backslash" unicode="\" 
d="M181 564q0 -17 12 -28l336 -336q12 -13 12 -30v-129q0 -17 -12 -29t-29 -12t-29 12t-12 29v95q0 8 -4 15.5t-9 12.5l-334 336q-6 7 -9.5 13.5t-3.5 16.5v129q0 17 12 29t29 12t29 -12t12 -29v-95z" />
    <glyph glyph-name="bracketright" unicode="]" 
d="M244 -47q-17 0 -29 12t-12 29t12 29t29 12h59q22 0 36.5 14.5t14.5 35.5v529q0 21 -14.5 35.5t-36.5 14.5h-59q-17 0 -29 12t-12 29t12 29t29 12h152q17 0 28.5 -12t11.5 -29v-711q0 -17 -11.5 -29t-28.5 -12h-152z" />
    <glyph glyph-name="asciicircum" unicode="^" 
d="M320 700q18 0 29 -11l147 -147q6 -6 8.5 -14.5t2.5 -16.5q0 -17 -12 -28.5t-30 -11.5q-15 0 -28 11l-82 82q-15 16 -35 16q-21 0 -36 -16l-82 -82q-13 -11 -27 -11q-19 0 -31 11.5t-12 28.5q0 8 2.5 16.5t8.5 14.5l147 147q14 11 30 11z" />
    <glyph glyph-name="underscore" unicode="_" 
d="M500 35q17 0 29 -12t12 -29t-12 -29t-29 -12h-360q-17 0 -29 12t-12 29t12 29t29 12h360z" />
    <glyph glyph-name="grave" unicode="`" 
d="M248 916q-12 11 -12 29q0 17 12 29t29 12q16 0 30 -11l83 -83q12 -13 12 -30t-12.5 -28.5t-29.5 -11.5q-18 0 -29 11z" />
    <glyph glyph-name="a" unicode="a" 
d="M541 41q0 -17 -12 -29t-29 -12t-29 12t-12 29v194q0 22 -15 36.5t-36 14.5h-177q-21 0 -35.5 -14.5t-14.5 -36.5v-194q0 -17 -12 -29t-29 -12t-29 12t-12 29v512q0 16 12 29l106 106q11 12 29 12h148q15 0 29 -11l106 -108q12 -10 12 -28v-512zM459 518q0 8 -4 16t-9 13
l-58 59q-12 12 -29 12h-79q-17 0 -28 -12l-59 -59q-12 -10 -12 -29v-99q0 -21 14.5 -36t35.5 -15h177q21 0 36 15t15 36v99z" />
    <glyph glyph-name="b" unicode="b" 
d="M509 386q-15 -16 -15 -36q0 -19 15 -36l21 -20q11 -11 11 -29v-138q0 -17 -11 -31l-87 -84q-10 -12 -29 -12h-274q-17 0 -29 12t-12 29v618q0 17 12 29t29 12h274q19 0 29 -12l87 -84q11 -14 11 -30v-139q0 -18 -11 -29zM447 441q12 12 12 29v70q0 8 -4 15.5t-9 12.5
l-37 38q-10 12 -29 12h-149q-21 0 -35.5 -15t-14.5 -36v-125q0 -21 14.5 -36t35.5 -15h149q18 0 30 12zM446 132q5 5 9 12.5t4 15.5v70q0 8 -4 16t-9 13l-36 38q-12 12 -30 12h-149q-21 0 -35.5 -15t-14.5 -36v-125q0 -21 14.5 -36t35.5 -15h149q19 0 29 12z" />
    <glyph glyph-name="c" unicode="c" 
d="M181 182q0 -18 12 -29l59 -59q11 -12 28 -12h78q17 0 29 12l58 59q5 5 9 13t4 16v30q0 17 12 29.5t29 12.5t29 -12.5t12 -29.5v-65q0 -17 -12 -28l-106 -108q-14 -11 -29 -11h-147q-17 0 -31 12l-104 106q-12 12 -12 29v406q0 17 12 29l104 106q14 12 31 12h147
q15 0 29 -11l106 -108q12 -10 12 -28v-65q0 -17 -12 -29.5t-29 -12.5t-29 12.5t-12 29.5v30q0 8 -4 16t-9 13l-58 59q-12 12 -29 12h-78q-17 0 -28 -12l-59 -59q-12 -10 -12 -29v-336z" />
    <glyph glyph-name="d" unicode="d" 
d="M529 581q12 -10 12 -28v-406q0 -17 -12 -28l-106 -108q-14 -11 -29 -11h-254q-17 0 -29 12t-12 29v618q0 17 12 29t29 12h254q15 0 29 -11zM446 153q5 5 9 13t4 16v336q0 8 -4 16t-9 13l-58 59q-12 12 -29 12h-128q-21 0 -35.5 -15t-14.5 -36v-434q0 -21 14.5 -36
t35.5 -15h128q17 0 29 12z" />
    <glyph glyph-name="e" unicode="e" 
d="M99 659q0 17 12 29t29 12h359q17 0 29 -12t12 -29t-12 -29t-29 -12h-268q-21 0 -35.5 -15t-14.5 -36v-125q0 -21 14.5 -36t35.5 -15h199q17 0 29.5 -12t12.5 -29t-12.5 -29t-29.5 -12h-199q-21 0 -35.5 -15t-14.5 -36v-125q0 -21 14.5 -36t35.5 -15h268q17 0 29 -12
t12 -29t-12 -29t-29 -12h-359q-17 0 -29 12t-12 29v618z" />
    <glyph glyph-name="f" unicode="f" 
d="M181 41q0 -17 -12 -29t-29 -12t-29 12t-12 29v618q0 17 12 29t29 12h359q17 0 29 -12t12 -29t-12 -29t-29 -12h-268q-21 0 -35.5 -15t-14.5 -36v-125q0 -21 14.5 -36t35.5 -15h199q17 0 29 -12t12 -29t-12 -29t-29 -12h-199q-21 0 -35.5 -15t-14.5 -36v-217z" />
    <glyph glyph-name="g" unicode="g" 
d="M459 540q0 8 -4 15.5t-9 12.5l-37 38q-10 12 -29 12h-120q-18 0 -30 -12l-37 -38q-12 -10 -12 -28v-380q0 -17 12 -28l37 -38q12 -12 30 -12h120q19 0 29 12l37 38q5 5 9 12.5t4 15.5v99q0 21 -15 35.5t-36 14.5h-61q-17 0 -29.5 12t-12.5 29t12.5 29t29.5 12h153
q17 0 29 -12t12 -29v-223q0 -17 -11 -31l-87 -84q-10 -12 -29 -12h-190q-17 0 -28 12l-85 84q-12 15 -12 31v447q0 15 12 30l85 84q11 12 28 12h190q19 0 29 -12l87 -84q11 -14 11 -30v-46q0 -17 -12 -29t-29 -12t-29 12t-12 29v12z" />
    <glyph glyph-name="h" unicode="h" 
d="M541 41q0 -17 -12 -29t-29 -12t-29 12t-12 29v217q0 21 -15 36t-36 15h-177q-21 0 -35.5 -15t-14.5 -36v-217q0 -17 -12 -29t-29 -12t-29 12t-12 29v618q0 17 12 29t29 12t29 -12t12 -29v-217q0 -21 14.5 -36t35.5 -15h177q21 0 36 15t15 36v217q0 17 12 29t29 12t29 -12
t12 -29v-618z" />
    <glyph glyph-name="i" unicode="i" 
d="M186 0q-17 0 -29 12t-12 29t12 29t29 12h42q22 0 36.5 15t14.5 36v434q0 21 -14.5 36t-36.5 15h-42q-17 0 -29 12t-12 29t12 29t29 12h268q17 0 29 -12t12 -29t-12 -29t-29 -12h-42q-22 0 -36.5 -15t-14.5 -36v-434q0 -21 14.5 -36t36.5 -15h42q17 0 29 -12t12 -29
t-12 -29t-29 -12h-268z" />
    <glyph glyph-name="j" unicode="j" 
d="M459 567q0 21 -15 36t-36 15h-89q-17 0 -29 12t-12 29t12 29t29 12h181q17 0 29 -12t12 -29v-532q0 -17 -11 -31l-87 -84q-10 -12 -28 -12h-191q-17 0 -28 12l-85 84q-12 15 -12 31v85q0 17 12 29.5t29 12.5t29 -12.5t12 -29.5v-52q0 -17 12 -28l37 -38q12 -12 29 -12
h121q19 0 29 12l37 38q5 5 9 12.5t4 15.5v407z" />
    <glyph glyph-name="k" unicode="k" 
d="M231 309q-21 0 -35.5 -15t-14.5 -36v-217q0 -17 -12 -29t-29 -12t-29 12t-12 29v618q0 17 12 29t29 12t29 -12t12 -29v-217q0 -21 14.5 -36t35.5 -15h48q18 0 28 12l139 138q5 5 9 12.5t4 15.5v90q0 17 12 29t29 12t29 -12t12 -29v-124q0 -16 -11 -30l-122 -119
q-6 -8 -10 -17t-4 -19t4 -18.5t10 -16.5l122 -120q11 -14 11 -30v-124q0 -17 -12 -29t-29 -12t-29 12t-12 29v90q0 8 -4 15.5t-9 12.5l-139 138q-10 12 -28 12h-48z" />
    <glyph glyph-name="l" unicode="l" 
d="M181 133q0 -21 14.5 -36t35.5 -15h268q17 0 29 -12t12 -29t-12 -29t-29 -12h-359q-17 0 -29 12t-12 29v618q0 17 12 29t29 12t29 -12t12 -29v-526z" />
    <glyph glyph-name="m" unicode="m" 
d="M459 533q0 13 -10 13q-6 0 -9 -5l-67 -67q-12 -12 -12 -29v-95q0 -17 -11.5 -29t-28.5 -12q-18 0 -30 12t-12 29v95q0 17 -12 29l-68 67q-3 5 -9 5q-9 0 -9 -13v-492q0 -17 -12 -29t-29 -12t-29 12t-12 29v618q0 17 12 29t29 12q15 0 29 -11l115 -116q8 -6 17 -10t20 -4
q22 0 35 15l114 115q14 11 30 11q17 0 29 -12t12 -29v-618q0 -17 -12 -29t-29 -12t-29 12t-12 29v492z" />
    <glyph glyph-name="n" unicode="n" 
d="M442 223q5 -8 9 -8q2 0 5 2.5t3 9.5v432q0 17 12 29t29 12t29 -12t12 -29v-618q0 -17 -12 -29t-29 -12q-24 0 -36 20l-267 458q-5 8 -9 8q-7 0 -7 -12v-433q0 -17 -12 -29t-29 -12t-29 12t-12 29v618q0 17 12 29t29 12q22 0 36 -20z" />
    <glyph glyph-name="o" unicode="o" 
d="M530 604q11 -14 11 -30v-448q0 -16 -11 -30l-87 -84q-10 -12 -29 -12h-190q-17 0 -28 12l-85 84q-12 15 -12 30v448q0 15 12 30l85 84q11 12 28 12h190q19 0 29 -12zM446 132q5 5 9 12.5t4 15.5v380q0 8 -4 15.5t-9 12.5l-37 38q-10 12 -29 12h-121q-17 0 -29 -12
l-37 -38q-12 -10 -12 -28v-380q0 -17 12 -28l37 -38q12 -12 29 -12h121q19 0 29 12z" />
    <glyph glyph-name="p" unicode="p" 
d="M181 41q0 -17 -12 -29t-29 -12t-29 12t-12 29v618q0 17 12 29t29 12h274q19 0 29 -12l87 -84q11 -14 11 -30v-161q0 -17 -11 -31l-87 -84q-10 -12 -29 -12h-183q-21 0 -35.5 -14.5t-14.5 -36.5v-194zM380 368q19 0 29 12l37 38q5 5 9 12.5t4 15.5v94q0 8 -4 15.5t-9 12.5
l-37 38q-10 12 -29 12h-149q-21 0 -35.5 -15t-14.5 -36v-148q0 -21 14.5 -36t35.5 -15h149z" />
    <glyph glyph-name="q" unicode="q" 
d="M225 0q-18 0 -29 12l-85 84q-12 15 -12 31v447q0 15 12 30l85 84q11 12 29 12h190q18 0 28 -12l87 -84q11 -14 11 -30v-447q0 -16 -11 -30l-21 -19q-15 -16 -15 -37q0 -20 15 -37l21 -19q11 -11 11 -30q0 -17 -12 -28.5t-29 -11.5q-16 0 -30 11l-60 62q-12 12 -30 12
h-155zM446 132q5 5 9 12.5t4 15.5v380q0 8 -4 15.5t-9 12.5l-37 38q-10 12 -29 12h-121q-17 0 -29 -12l-37 -38q-12 -10 -12 -28v-380q0 -17 12 -28l37 -38q12 -12 29 -12h121q19 0 29 12z" />
    <glyph glyph-name="r" unicode="r" 
d="M231 286q-21 0 -35.5 -14.5t-14.5 -36.5v-194q0 -17 -12 -29t-29 -12t-29 12t-12 29v618q0 17 12 29t29 12h254q17 0 30 -12l106 -106q11 -11 11 -29v-120q0 -15 -12 -29l-41 -41q-15 -15 -15 -35q0 -10 4 -19.5t10 -17.5l43 -40q11 -14 11 -30v-180q0 -17 -12 -29
t-29 -12t-29 12t-12 29v146q0 8 -4 15.5t-9 12.5l-58 59q-12 12 -29 12h-128zM446 439q5 5 9 13t4 16v50q0 8 -4 16t-9 13l-58 59q-12 12 -29 12h-128q-21 0 -35.5 -15t-14.5 -36v-148q0 -21 14.5 -36t35.5 -15h128q17 0 29 12z" />
    <glyph glyph-name="s" unicode="s" 
d="M459 540q0 8 -4 15.5t-9 12.5l-37 38q-10 12 -29 12h-121q-17 0 -29 -12l-37 -38q-12 -10 -12 -28v-70q0 -17 12 -29l36 -38q12 -12 30 -12h156q16 0 29 -12l86 -85q11 -11 11 -29v-139q0 -16 -11 -30l-87 -84q-10 -12 -28 -12h-191q-17 0 -28 12l-85 84q-12 15 -12 30
v47q0 17 12 28.5t29 11.5t29 -11.5t12 -28.5v-13q0 -17 12 -28l37 -38q12 -12 29 -12h121q19 0 29 12l37 38q5 5 9 12.5t4 15.5v70q0 8 -4 16t-9 13l-36 38q-12 12 -30 12h-156q-15 0 -29 12l-84 85q-12 12 -12 29v139q0 15 12 30l85 84q11 12 28 12h191q18 0 28 -12l87 -84
q11 -14 11 -30v-46q0 -17 -12 -29t-29 -12t-29 12t-12 29v12z" />
    <glyph glyph-name="t" unicode="t" 
d="M361 41q0 -17 -12 -29t-29 -12t-29 12t-12 29v526q0 21 -14.5 36t-36.5 15h-88q-17 0 -29 12t-12 29t12 29t29 12h360q17 0 29 -12t12 -29t-12 -29t-29 -12h-88q-22 0 -36.5 -15t-14.5 -36v-526z" />
    <glyph glyph-name="u" unicode="u" 
d="M181 160q0 -17 12 -28l37 -38q12 -12 29 -12h121q19 0 29 12l37 38q5 5 9 12.5t4 15.5v499q0 17 12 29t29 12t29 -12t12 -29v-533q0 -16 -11 -30l-87 -84q-10 -12 -29 -12h-190q-17 0 -28 12l-85 84q-12 15 -12 30v533q0 17 12 29t29 12t29 -12t12 -29v-499z" />
    <glyph glyph-name="v" unicode="v" 
d="M459 659q0 17 12 29t29 12t29 -12t12 -29v-457q0 -16 -12 -31l-161 -160q-11 -11 -29 -11h-39q-18 0 -29 11l-159 160q-6 8 -9.5 15t-3.5 16v457q0 17 12 29t29 12t29 -12t12 -29v-423q0 -17 12 -28l90 -91q15 -15 38 -15q20 0 35 15l91 91q12 12 12 28v423z" />
    <glyph glyph-name="w" unicode="w" 
d="M459 659q0 17 12 29t29 12t29 -12t12 -29v-528q0 -18 -11 -29l-91 -91q-11 -11 -29 -11q-16 0 -30 11l-59 62l-61 -62q-6 -6 -14.5 -8.5t-16.5 -2.5q-18 0 -29 11l-89 91q-12 12 -12 29v528q0 17 12 29t29 12t29 -12t12 -29v-494q0 -19 15.5 -32t32.5 -13q20 0 35 13
t15 32v185q0 17 12 29t30 12q17 0 28.5 -12t11.5 -29v-185q0 -19 16 -32t33 -13q19 0 34 13t15 32v494z" />
    <glyph glyph-name="x" unicode="x" 
d="M459 659q0 17 12 29t29 12t29 -12t12 -29v-149q0 -17 -12 -28l-96 -96q-15 -16 -15 -36q0 -22 16 -35l95 -97q12 -10 12 -28v-149q0 -17 -12 -29t-29 -12t-29 12t-12 29v114q0 8 -4 16t-9 13l-90 90q-7 8 -17 12t-20 4q-23 0 -36 -16l-90 -90q-12 -12 -12 -29v-114
q0 -17 -12 -29t-29 -12t-29 12t-12 29v149q0 18 13 28l94 97q15 15 15 35t-16 36l-93 96q-13 10 -13 28v149q0 17 12 29t29 12t29 -12t12 -29v-114q0 -17 12 -29l90 -92q8 -6 17 -10t19 -4t19.5 4t17.5 10l91 92q12 12 12 29v114z" />
    <glyph glyph-name="y" unicode="y" 
d="M112 458q-13 14 -13 30v171q0 17 12 29t29 12t29 -12t12 -29v-137q0 -17 12 -28l91 -91q15 -15 36 -15t36 15l91 91q12 12 12 28v137q0 17 12 29t29 12t29 -12t12 -29v-171q0 -16 -12 -30l-156 -156q-12 -10 -12 -28v-233q0 -17 -12 -29t-29 -12t-29 12t-12 29v233
q0 18 -12 28z" />
    <glyph glyph-name="z" unicode="z" 
d="M446 536q5 5 9 12.5t4 15.5v3q0 21 -15 36t-36 15h-268q-17 0 -29 12t-12 29t12 29t29 12h360q17 0 29 -12t12 -29v-129q0 -19 -11 -30l-336 -336q-12 -10 -12 -28v-3q0 -21 14.5 -36t35.5 -15h268q17 0 29 -12t12 -29t-12 -29t-29 -12h-360q-17 0 -29 12t-12 29v129
q0 18 12 30z" />
    <glyph glyph-name="braceleft" unicode="{" 
d="M317 293q11 -11 11 -29v-150q0 -17 12 -29l37 -37q12 -12 29 -12h32q17 0 29 -12t12 -29t-12 -30t-29 -13h-67q-16 0 -29 13l-85 85q-11 11 -11 29v150q0 8 -4 16t-9 13l-62 62q-11 11 -11 29t11 29l62 62q5 5 9 13t4 16v151q0 16 11 29l86 84q10 13 28 13h67
q17 0 29 -12t12 -29t-12 -29.5t-29 -12.5h-32q-17 0 -29 -12l-37 -37q-12 -12 -12 -29v-151q0 -18 -11 -29l-43 -43q-6 -4 -6 -13q0 -8 6 -13z" />
    <glyph glyph-name="bar" unicode="|" 
d="M279 734q0 17 12 29t29 12t29 -12t12 -29v-768q0 -17 -12 -29t-29 -12t-29 12t-12 29v768z" />
    <glyph glyph-name="braceright" unicode="}" 
d="M365 336q7 4 7 13t-7 13l-41 43q-12 12 -12 29v151q0 17 -12 29l-37 37q-10 12 -29 12h-32q-17 0 -29 12.5t-12 29.5t12 29t29 12h67q18 0 28 -13l85 -84q6 -6 9 -14t3 -15v-151q0 -17 12 -29l62 -62q11 -11 11 -29t-11 -29l-62 -62q-12 -12 -12 -29v-150q0 -18 -12 -29
l-84 -85q-13 -13 -29 -13h-67q-17 0 -29 13t-12 30t12 29t29 12h32q19 0 29 12l37 37q12 12 12 29v150q0 17 12 29z" />
    <glyph glyph-name="asciitilde" unicode="~" 
d="M193 366v-61q0 -17 -12.5 -29.5t-30.5 -12.5q-15 0 -27 12.5t-12 29.5v81q0 13 12 26l46 49q6 4 12.5 7t13.5 3h80q15 0 26 -11l50 -48q9 -10 9 -26v-49l23 -23h45l20 23v63q0 16 12 28.5t29 12.5q16 0 28.5 -12.5t12.5 -28.5v-81q0 -13 -9 -27l-50 -50q-7 -10 -25 -10
h-82q-17 0 -27 10l-49 50q-10 10 -10 27v47l-21 23h-43z" />
    <glyph glyph-name="exclamdown" unicode="&#xa1;" 
d="M340 700q17 0 28.5 -12t11.5 -29v-40q0 -17 -11.5 -29t-28.5 -12h-41q-17 0 -28.5 12t-11.5 29v40q0 17 11.5 29t28.5 12h41zM361 41q0 -17 -12 -29t-29 -12t-29 12t-12 29v416q0 17 12 28.5t29 11.5t29 -11.5t12 -28.5v-416z" />
    <glyph glyph-name="cent" unicode="&#xa2;" 
d="M360 720q0 -20 20 -20h14q15 0 29 -11l106 -108q12 -10 12 -28v-65q0 -17 -12 -29.5t-29 -12.5t-29 12.5t-12 29.5v30q0 8 -4 16t-9 13l-58 59q-7 7 -15 7q-13 0 -13 -17v-492q0 -17 13 -17q8 0 15 7l58 59q5 5 9 13t4 16v30q0 17 12 29.5t29 12.5t29 -12.5t12 -29.5v-65
q0 -17 -12 -28l-106 -108q-14 -11 -29 -11h-14q-20 0 -20 -20v-14q0 -17 -12 -29t-29 -12t-29 12t-12 29v14q0 20 -20 20h-11q-18 0 -32 12l-104 106q-12 12 -12 29v406q0 17 12 29l104 106q14 12 32 12h11q20 0 20 20v14q0 17 12 29t29 12t29 -12t12 -29v-14zM278 596
q0 17 -12 17q-9 0 -13 -7l-60 -59q-12 -10 -12 -29v-336q0 -18 12 -29l60 -59q4 -7 13 -7q12 0 12 17v492z" />
    <glyph glyph-name="sterling" unicode="&#xa3;" 
d="M459 540q0 8 -4.5 16t-9.5 13l-35 36q-5 5 -13.5 9t-16.5 4h-28q-8 0 -16 -4t-13 -9l-36 -36q-5 -5 -9 -13t-4 -16v-151q0 -21 20 -21h159q17 0 29.5 -11.5t12.5 -28.5q0 -18 -12.5 -30t-29.5 -12h-159q-20 0 -20 -20v-163q0 -21 20 -21h206q17 0 29 -12t12 -29t-12 -29
t-29 -12h-360q-17 0 -29 12t-12 29t12 29t29 12h31q21 0 21 21v163q0 20 -21 20h-31q-17 0 -29 12t-12 30q0 17 12 28.5t29 11.5h31q21 0 21 21v185q0 16 11 30l86 84q11 12 29 12h97q18 0 28 -12l87 -84q11 -14 11 -30v-46q0 -17 -12 -29t-29 -12t-29 12t-12 29v12z" />
    <glyph glyph-name="currency" unicode="&#xa4;" 
d="M135 447q2 2 4.5 6t2.5 9q0 9 -7 13l-32 32q-12 11 -12 31q0 17 12 28.5t29 11.5q19 0 30 -11l33 -32q5 -6 13 -6q9 0 13 6v-1q14 12 30 12h138q16 0 29 -12q7 -5 13 -5q9 0 13 6l33 32q11 11 30 11q17 0 29 -11.5t12 -28.5q0 -20 -11 -31l-33 -32q-6 -4 -6 -13
q0 -8 5 -15q12 -12 12 -28v-138q0 -17 -11 -28q-6 -4 -6 -15q0 -9 6 -14l33 -32q11 -11 11 -30q0 -17 -12 -28.5t-29 -11.5q-19 0 -30 11l-33 32q-6 8 -13 8q-5 0 -13 -7q-13 -12 -29 -12h-138q-16 0 -30 12q-10 7 -13 7q-7 0 -13 -8l-33 -32q-11 -11 -30 -11
q-17 0 -29 11.5t-12 28.5q0 21 12 31l32 32q7 4 7 13q0 11 -7 15q-11 11 -11 28v138q0 17 11 28zM433 384q0 8 -4 16.5t-9 13.5l-37 36q-12 14 -29 14h-69q-17 0 -29 -14l-37 -36q-5 -5 -9 -13.5t-4 -16.5v-68q0 -8 4 -16.5t9 -13.5l37 -36q12 -14 29 -14h69q17 0 29 14
l37 36q5 5 9 13.5t4 16.5v68z" />
    <glyph glyph-name="yen" unicode="&#xa5;" 
d="M276 368q0 10 -9 19l-155 155q-13 14 -13 30v87q0 17 12 29t29 12t29 -12t12 -29v-52q0 -18 12 -29l91 -91q15 -15 36 -15t36 15l91 91q12 12 12 29v52q0 17 12 29t29 12t29 -12t12 -29v-87q0 -16 -12 -30l-156 -155q-9 -9 -9 -19q0 -15 17 -15h76q17 0 28.5 -12
t11.5 -29t-11.5 -29t-28.5 -12h-76q-20 0 -20 -20v-16q0 -20 20 -20h76q17 0 28.5 -11.5t11.5 -28.5q0 -18 -11.5 -30t-28.5 -12h-76q-20 0 -20 -20v-72q0 -17 -12 -29t-29 -12t-29 12t-12 29v72q0 20 -20 20h-77q-17 0 -29 12t-12 30q0 17 12 28.5t29 11.5h77q20 0 20 20
v16q0 20 -20 20h-77q-17 0 -29 12t-12 29t12 29t29 12h77q17 0 17 15z" />
    <glyph glyph-name="brokenbar" unicode="&#xa6;" 
d="M279 734q0 17 12 29t29 12t29 -12t12 -29v-291q0 -17 -12 -28.5t-29 -11.5t-29 11.5t-12 28.5v291zM279 257q0 17 12 28.5t29 11.5t29 -11.5t12 -28.5v-291q0 -17 -12 -29t-29 -12t-29 12t-12 29v291z" />
    <glyph glyph-name="section" unicode="&#xa7;" 
d="M459 625q0 8 -4 15.5t-9 12.5l-37 38q-10 12 -29 12h-120q-17 0 -29 -12l-37 -38q-12 -10 -12 -28v-24q0 -18 12 -29l36 -38q11 -13 30 -13h155q15 0 29 -11l86 -85q11 -11 11 -29v-93q0 -16 -11 -29l-58 -55l58 -57q11 -11 11 -29v-92q0 -7 -3 -15.5t-8 -14.5l-87 -84
q-10 -12 -28 -12h-190q-17 0 -28 12l-86 84q-12 14 -12 30v46q0 17 12 28.5t29 11.5t29.5 -11.5t12.5 -28.5v-12q0 -17 12 -28l37 -38q12 -12 29 -12h120q19 0 29 12l37 38q5 5 9 12.5t4 15.5v23q0 8 -4 16t-9 13l-36 38q-10 13 -30 13h-155q-15 0 -29 11l-85 85
q-12 12 -12 29v93q0 16 12 29l56 55l-55 57q-13 12 -13 29v93q0 17 12 30l86 84q11 12 28 12h190q18 0 28 -12l87 -84q5 -6 8 -14.5t3 -15.5v-47q0 -17 -12 -29t-29 -12t-29 12t-12 29v13zM231 272q12 -12 29 -12h120q19 0 29 12l37 37q5 5 9 13t4 16v22q0 8 -4 16t-9 13
l-36 38q-12 12 -30 12h-120q-17 0 -29 -12l-37 -37q-12 -12 -12 -29v-23q0 -17 12 -29z" />
    <glyph glyph-name="dieresis" unicode="&#xa8;" 
d="M398 832q-17 0 -29 11.5t-12 28.5v21q0 17 12 28.5t29 11.5h20q17 0 29 -11.5t12 -28.5v-21q0 -17 -12 -28.5t-29 -11.5h-20zM220 832q-17 0 -28.5 11.5t-11.5 28.5v21q0 17 11.5 28.5t28.5 11.5h20q17 0 29 -11.5t12 -28.5v-21q0 -17 -12 -28.5t-29 -11.5h-20z" />
    <glyph glyph-name="copyright" unicode="&#xa9;" 
d="M535 528q6 -9 6 -17v-321q0 -9 -7 -17l-75 -75q-7 -7 -17 -7h-244q-10 0 -16 7l-75 75q-3 4 -5.5 8.5t-2.5 8.5v321q0 7 7 17l75 76l8 4t9 2h244q5 0 9 -2t9 -4zM479 188q5 4 9 12.5t4 16.5v267q0 8 -4 16t-9 13l-35 35q-5 5 -13 9t-16 4h-190q-8 0 -16.5 -4t-12.5 -9
l-35 -35q-5 -4 -9 -12.5t-4 -16.5v-267q0 -8 4 -16.5t9 -12.5l35 -35q4 -5 12.5 -9t16.5 -4h190q8 0 16.5 4t12.5 9zM388 301q2 9 8.5 15t15.5 6q10 0 17 -7.5t7 -17.5v-22q0 -5 -2.5 -9.5t-5.5 -8.5l-55 -54q-6 -7 -16 -7h-74q-5 0 -9.5 2.5t-8.5 5.5l-54 53q-7 7 -7 18
v152q0 10 7 17l54 54q8 7 18 7h74q10 0 17 -6l55 -55q7 -8 7 -17v-22q0 -10 -7 -17.5t-17 -7.5q-9 0 -15.5 6t-8.5 15q-3 20 -13 27l-15 16q-5 5 -13.5 9t-16.5 4h-20q-8 0 -16.5 -4t-13.5 -9l-15 -16q-12 -10 -12 -28v-98q0 -8 4 -16t9 -13l15 -15q5 -5 13 -9t16 -4h20
q8 0 16 4t13 9l15 15q11 10 14 28z" />
    <glyph glyph-name="guillemotleft" unicode="&#xab;" 
d="M264 533q10 10 27 10t31 -12.5t14 -29.5q0 -14 -11 -28l-89 -86q-17 -17 -17 -37t18 -38l86 -83q10 -13 10 -29q0 -17 -11 -29.5t-29 -12.5q-19 0 -30 11l-150 151q-5 6 -9 14t-4 16q0 17 12 30zM468 533q10 10 27 10t31 -12.5t14 -29.5q0 -14 -11 -28l-89 -86
q-17 -17 -17 -37t18 -38l85 -83q11 -14 11 -29q0 -17 -11.5 -29.5t-28.5 -12.5q-19 0 -30 11l-150 151q-13 13 -13 30q0 18 12 30z" />
    <glyph glyph-name="registered" unicode="&#xae;" 
d="M535 528q6 -9 6 -17v-321q0 -9 -7 -17l-75 -75q-7 -7 -17 -7h-244q-10 0 -16 7l-75 75q-3 4 -5.5 8.5t-2.5 8.5v321q0 7 7 17l75 76l8 4t9 2h244q5 0 9 -2t9 -4zM479 188q5 4 9 12.5t4 16.5v267q0 8 -4 16t-9 13l-35 35q-5 5 -13 9t-16 4h-190q-8 0 -16.5 -4t-12.5 -9
l-35 -35q-5 -4 -9 -12.5t-4 -16.5v-267q0 -8 4 -16.5t9 -12.5l35 -35q4 -5 12.5 -9t16.5 -4h190q8 0 16.5 4t12.5 9zM287 310q-14 0 -24 -10t-10 -24v-56q0 -10 -7.5 -17t-17.5 -7t-17 7t-7 17v261q0 10 7 17t17 7h129q11 0 18 -7l54 -54q7 -7 7 -17v-24q0 -9 -7 -19
l-25 -25q-11 -9 -11 -24q0 -13 11 -24l24 -26q8 -8 8 -17v-48q0 -10 -7 -17t-17 -7t-17 7t-7 17v20q0 8 -4.5 16t-9.5 13l-27 29q-12 12 -30 12h-30zM253 394q0 -15 10 -25t24 -10h30q8 0 16 4t13 9l28 29q7 4 7 14q0 6 -7 13l-14 16q-5 5 -13.5 9t-16.5 4h-57
q-9 0 -14.5 -6t-5.5 -15v-42z" />
    <glyph glyph-name="macron" unicode="&#xaf;" 
d="M223 832q-17 0 -28.5 11.5t-11.5 28.5t11.5 29.5t28.5 12.5h192q17 0 28.5 -12.5t11.5 -29.5t-11.5 -28.5t-28.5 -11.5h-192z" />
    <glyph glyph-name="degree" unicode="&#xb0;" 
d="M192 609q0 10 9 20l61 63q11 8 21 8h73q5 0 10.5 -1.5t9.5 -6.5l63 -64q8 -8 8 -19v-74q0 -5 -1.5 -10.5t-6.5 -10.5l-62 -62q-11 -8 -21 -8h-73q-10 0 -21 9l-62 61q-5 5 -6.5 10.5t-1.5 10.5v74zM273 606q-6 -5 -9.5 -15t-3.5 -19q0 -8 3.5 -18t9.5 -15l13 -14
q5 -6 14.5 -9.5t19.5 -3.5q8 0 18 3.5t15 9.5l13 14q6 6 9.5 15.5t3.5 17.5q0 9 -3.5 19t-9.5 15l-13 13q-5 6 -15 9.5t-18 3.5q-10 0 -19.5 -3.5t-14.5 -9.5z" />
    <glyph glyph-name="plusminus" unicode="&#xb1;" 
d="M457 390q17 0 28.5 -12t11.5 -29t-11.5 -29t-28.5 -12h-45q-22 0 -36.5 -14.5t-14.5 -35.5v-46q0 -17 -12 -29.5t-29 -12.5t-29 12.5t-12 29.5v46q0 21 -14.5 35.5t-36.5 14.5h-45q-17 0 -29 12t-12 29t12 29t29 12h45q22 0 36.5 14.5t14.5 35.5v46q0 17 12 28.5t29 11.5
t29 -11.5t12 -28.5v-46q0 -21 14.5 -35.5t36.5 -14.5h45zM480 82q17 0 28.5 -11.5t11.5 -28.5q0 -18 -11.5 -30t-28.5 -12h-320q-17 0 -28.5 12t-11.5 30q0 17 11.5 28.5t28.5 11.5h320z" />
    <glyph glyph-name="acute" unicode="&#xb4;" 
d="M307 833q-13 -11 -29 -11q-17 0 -29.5 11.5t-12.5 28.5t13 30l82 83q13 11 29 11q17 0 29.5 -12t12.5 -29t-12 -28z" />
    <glyph glyph-name="paragraph" unicode="&#xb6;" 
d="M459 597q0 10 -6 15.5t-15 5.5h-40q-9 0 -15 -5.5t-6 -15.5v-556q0 -17 -11.5 -29t-28.5 -12t-29.5 12t-12.5 29v194q0 22 -15.5 36.5t-35.5 14.5h-19q-15 0 -29 12l-85 85q-12 14 -12 30v161q0 15 12 30l86 84q11 12 28 12h275q17 0 29 -12t12 -29v-618q0 -17 -12 -29
t-29 -12t-29 12t-12 29v556z" />
    <glyph glyph-name="periodcentered" unicode="&#xb7;" 
d="M294 284q-17 0 -28.5 12t-11.5 29v50q0 17 11.5 29t28.5 12h51q17 0 29 -12t12 -29v-50q0 -17 -12 -29t-29 -12h-51z" />
    <glyph glyph-name="cedilla" unicode="&#xb8;" 
d="M291 36q0 11 8.5 19t20.5 8q11 0 19 -8t8 -19v-57q0 -8 4 -17t9 -14l60 -58q7 -10 7 -18v-62q0 -4 -2 -8.5t-4 -8.5l-55 -53q-6 -7 -16 -7h-62q-10 0 -16 7l-28 28q-9 9 -9 20t9 19t20 8q13 0 20 -7l6 -6q5 -5 13.5 -9t16.5 -4t16 4t13 9l9 9q5 5 9 13.5t4 16.5t-4 16
t-9 13l-58 58q-9 10 -9 23v85z" />
    <glyph glyph-name="guillemotright" unicode="&#xbb;" 
d="M529 380q11 -14 11 -30t-12 -30l-151 -151q-11 -11 -30 -11q-17 0 -28.5 12.5t-11.5 29.5q0 15 11 29l85 83q18 18 18 38t-17 37l-88 86q-12 12 -12 28q0 17 14 29.5t31 12.5t27 -10zM325 380q11 -14 11 -30t-12 -30l-150 -151q-13 -11 -31 -11q-17 0 -28 12.5t-11 29.5
q0 16 10 29l85 83q18 18 18 38t-17 37l-88 86q-12 14 -12 28q0 17 14 29.5t31 12.5q15 0 28 -10z" />
    <glyph glyph-name="questiondown" unicode="&#xbf;" 
d="M341 700q17 0 28.5 -12t11.5 -29v-40q0 -17 -11.5 -29t-28.5 -12h-41q-17 0 -28.5 12t-11.5 29v40q0 17 11.5 29t28.5 12h41zM99 192q0 17 12 29l156 156q12 12 12 29v51q0 17 12 28.5t29 11.5t29 -11.5t12 -28.5v-86q0 -18 -11 -29l-156 -156q-12 -12 -12 -29
q0 -16 10 -23l39 -40q12 -12 29 -12h120q19 0 29 12l37 38q5 5 9 12.5t4 15.5v13q0 17 12 28.5t29 11.5t29 -11.5t12 -28.5v-47q0 -16 -11 -30l-87 -84q-10 -12 -28 -12h-190q-17 0 -28 12l-85 84q-5 7 -9 14.5t-4 15.5v66z" />
    <glyph glyph-name="Agrave" unicode="&#xc0;" 
d="M249 916q-12 11 -12 29q0 17 12 29t29 12q16 0 30 -11l83 -83q12 -13 12 -30t-12.5 -28.5t-29.5 -11.5q-18 0 -29 11zM541 41q0 -17 -12 -29t-29 -12t-29 12t-12 29v194q0 22 -15 36.5t-36 14.5h-177q-21 0 -35.5 -14.5t-14.5 -36.5v-194q0 -17 -12 -29t-29 -12t-29 12
t-12 29v512q0 16 12 29l106 106q11 12 29 12h148q15 0 29 -11l106 -108q12 -10 12 -28v-512zM459 518q0 8 -4 16t-9 13l-58 59q-12 12 -29 12h-79q-17 0 -28 -12l-59 -59q-12 -10 -12 -29v-99q0 -21 14.5 -36t35.5 -15h177q21 0 36 15t15 36v99z" />
    <glyph glyph-name="Aacute" unicode="&#xc1;" 
d="M308 833q-13 -11 -29 -11q-17 0 -29.5 11.5t-12.5 28.5t13 30l82 83q13 11 29 11q17 0 29.5 -12t12.5 -29t-12 -28zM541 41q0 -17 -12 -29t-29 -12t-29 12t-12 29v194q0 22 -15 36.5t-36 14.5h-177q-21 0 -35.5 -14.5t-14.5 -36.5v-194q0 -17 -12 -29t-29 -12t-29 12
t-12 29v512q0 16 12 29l106 106q11 12 29 12h148q15 0 29 -11l106 -108q12 -10 12 -28v-512zM459 518q0 8 -4 16t-9 13l-58 59q-12 12 -29 12h-79q-17 0 -28 -12l-59 -59q-12 -10 -12 -29v-99q0 -21 14.5 -36t35.5 -15h177q21 0 36 15t15 36v99z" />
    <glyph glyph-name="Acircumflex" unicode="&#xc2;" 
d="M251 831q-9 -9 -25 -9q-14 0 -24.5 10t-10.5 24t10 27l95 93q9 10 25 10q15 0 25 -10l94 -93q9 -12 9 -27t-9.5 -24.5t-24.5 -9.5t-26 9l-37 36q-12 14 -31 14q-20 0 -32 -14zM541 41q0 -17 -12 -29t-29 -12t-29 12t-12 29v194q0 22 -15 36.5t-36 14.5h-177
q-21 0 -35.5 -14.5t-14.5 -36.5v-194q0 -17 -12 -29t-29 -12t-29 12t-12 29v512q0 16 12 29l106 106q11 12 29 12h148q15 0 29 -11l106 -108q12 -10 12 -28v-512zM459 518q0 8 -4 16t-9 13l-58 59q-12 12 -29 12h-79q-17 0 -28 -12l-59 -59q-12 -10 -12 -29v-99
q0 -21 14.5 -36t35.5 -15h177q21 0 36 15t15 36v99z" />
    <glyph glyph-name="Atilde" unicode="&#xc3;" 
d="M230 914v-35q0 -14 -9.5 -23.5t-23.5 -9.5q-13 0 -23 9.5t-10 23.5v51q0 12 8 20l41 41q11 8 20 8h51q10 0 21 -8l40 -41q8 -11 8 -20v-24l19 -18h21l18 18v35q0 14 9.5 23.5t23.5 9.5t23.5 -9.5t9.5 -23.5v-50q0 -11 -7 -21l-43 -40q-6 -8 -19 -8h-51q-10 0 -21 8
l-41 40q-7 7 -7 21v23l-19 19h-20zM541 41q0 -17 -12 -29t-29 -12t-29 12t-12 29v194q0 22 -15 36.5t-36 14.5h-177q-21 0 -35.5 -14.5t-14.5 -36.5v-194q0 -17 -12 -29t-29 -12t-29 12t-12 29v512q0 16 12 29l106 106q11 12 29 12h148q15 0 29 -11l106 -108q12 -10 12 -28
v-512zM459 518q0 8 -4 16t-9 13l-58 59q-12 12 -29 12h-79q-17 0 -28 -12l-59 -59q-12 -10 -12 -29v-99q0 -21 14.5 -36t35.5 -15h177q21 0 36 15t15 36v99z" />
    <glyph glyph-name="Adieresis" unicode="&#xc4;" 
d="M399 832q-17 0 -29 11.5t-12 28.5v21q0 17 12 28.5t29 11.5h20q17 0 29 -11.5t12 -28.5v-21q0 -17 -12 -28.5t-29 -11.5h-20zM221 832q-17 0 -28.5 11.5t-11.5 28.5v21q0 17 11.5 28.5t28.5 11.5h20q17 0 29 -11.5t12 -28.5v-21q0 -17 -12 -28.5t-29 -11.5h-20zM541 41
q0 -17 -12 -29t-29 -12t-29 12t-12 29v194q0 22 -15 36.5t-36 14.5h-177q-21 0 -35.5 -14.5t-14.5 -36.5v-194q0 -17 -12 -29t-29 -12t-29 12t-12 29v512q0 16 12 29l106 106q11 12 29 12h148q15 0 29 -11l106 -108q12 -10 12 -28v-512zM459 518q0 8 -4 16t-9 13l-58 59
q-12 12 -29 12h-79q-17 0 -28 -12l-59 -59q-12 -10 -12 -29v-99q0 -21 14.5 -36t35.5 -15h177q21 0 36 15t15 36v99z" />
    <glyph glyph-name="Aring" unicode="&#xc5;" 
d="M213 919q0 10 7 17l52 53q8 7 18 7h61q5 0 9.5 -2t8.5 -4l53 -55q6 -6 6 -16v-62q0 -9 -6 -17l-53 -53q-4 -2 -8.5 -4t-9.5 -2h-61q-10 0 -18 7l-52 52q-7 8 -7 17v62zM281 917q-12 -10 -12 -28t12 -29l11 -11q11 -12 29 -12t28 12l11 11q12 11 12 29t-12 28l-11 11
q-10 12 -28 12t-29 -12zM541 41q0 -17 -12 -29t-29 -12t-29 12t-12 29v194q0 22 -15 36.5t-36 14.5h-177q-21 0 -35.5 -14.5t-14.5 -36.5v-194q0 -17 -12 -29t-29 -12t-29 12t-12 29v512q0 16 12 29l106 106q11 12 29 12h148q15 0 29 -11l106 -108q12 -10 12 -28v-512z
M459 518q0 8 -4 16t-9 13l-58 59q-12 12 -29 12h-79q-17 0 -28 -12l-59 -59q-12 -10 -12 -29v-99q0 -21 14.5 -36t35.5 -15h177q21 0 36 15t15 36v99z" />
    <glyph glyph-name="AE" unicode="&#xc6;" 
d="M279 266q0 20 -20 20h-47q-21 0 -36 -14.5t-15 -36.5v-194q0 -17 -12 -29t-29 -12t-29 12t-12 29v512q0 15 11 29l108 106q11 12 28 12h294q17 0 29 -12t12 -29t-12 -29t-29 -12h-108q-22 0 -36.5 -15t-14.5 -36v-125q0 -21 14.5 -36t36.5 -15h88q17 0 29 -12t12 -29
t-12 -29t-29 -12h-88q-22 0 -36.5 -15t-14.5 -36v-125q0 -21 14.5 -36t36.5 -15h108q17 0 29 -12t12 -29t-12 -29t-29 -12h-200q-17 0 -29 12t-12 29v225zM279 599q0 19 -20 19q-15 0 -27 -12l-57 -58q-14 -12 -14 -30v-99q0 -21 15 -36t36 -15h47q20 0 20 21v210z" />
    <glyph glyph-name="Ccedilla" unicode="&#xc7;" 
d="M181 182q0 -18 12 -29l59 -59q11 -12 28 -12h78q17 0 29 12l58 59q5 5 9 13t4 16v30q0 17 12 29.5t29 12.5t29 -12.5t12 -29.5v-65q0 -17 -12 -28l-106 -108q-14 -11 -29 -11h-46v-21q0 -8 4 -17t9 -14l60 -58q7 -10 7 -18v-62q0 -4 -2 -8.5t-4 -8.5l-55 -53
q-6 -7 -16 -7h-62q-10 0 -16 7l-28 28q-9 9 -9 20t9 19t20 8q13 0 20 -7l6 -6q5 -5 13.5 -9t16.5 -4t16 4t13 9l9 9q5 5 9 13.5t4 16.5t-4 16t-9 13l-58 58q-9 10 -9 23v49h-45q-17 0 -31 12l-104 106q-12 12 -12 29v406q0 17 12 29l104 106q14 12 31 12h147q15 0 29 -11
l106 -108q12 -10 12 -28v-65q0 -17 -12 -29.5t-29 -12.5t-29 12.5t-12 29.5v30q0 8 -4 16t-9 13l-58 59q-12 12 -29 12h-78q-17 0 -28 -12l-59 -59q-12 -10 -12 -29v-336z" />
    <glyph glyph-name="Egrave" unicode="&#xc8;" 
d="M249 916q-12 11 -12 29q0 17 12 29t29 12q16 0 30 -11l83 -83q12 -13 12 -30t-12.5 -28.5t-29.5 -11.5q-18 0 -29 11zM99 659q0 17 12 29t29 12h359q17 0 29 -12t12 -29t-12 -29t-29 -12h-268q-21 0 -35.5 -15t-14.5 -36v-125q0 -21 14.5 -36t35.5 -15h199q17 0 29.5 -12
t12.5 -29t-12.5 -29t-29.5 -12h-199q-21 0 -35.5 -15t-14.5 -36v-125q0 -21 14.5 -36t35.5 -15h268q17 0 29 -12t12 -29t-12 -29t-29 -12h-359q-17 0 -29 12t-12 29v618z" />
    <glyph glyph-name="Eacute" unicode="&#xc9;" 
d="M308 833q-13 -11 -29 -11q-17 0 -29.5 11.5t-12.5 28.5t13 30l82 83q13 11 29 11q17 0 29.5 -12t12.5 -29t-12 -28zM99 659q0 17 12 29t29 12h359q17 0 29 -12t12 -29t-12 -29t-29 -12h-268q-21 0 -35.5 -15t-14.5 -36v-125q0 -21 14.5 -36t35.5 -15h199q17 0 29.5 -12
t12.5 -29t-12.5 -29t-29.5 -12h-199q-21 0 -35.5 -15t-14.5 -36v-125q0 -21 14.5 -36t35.5 -15h268q17 0 29 -12t12 -29t-12 -29t-29 -12h-359q-17 0 -29 12t-12 29v618z" />
    <glyph glyph-name="Ecircumflex" unicode="&#xca;" 
d="M251 831q-9 -9 -25 -9q-14 0 -24.5 10t-10.5 24t10 27l95 93q9 10 25 10q15 0 25 -10l94 -93q9 -12 9 -27t-9.5 -24.5t-24.5 -9.5t-26 9l-37 36q-12 14 -31 14q-20 0 -32 -14zM99 659q0 17 12 29t29 12h359q17 0 29 -12t12 -29t-12 -29t-29 -12h-268q-21 0 -35.5 -15
t-14.5 -36v-125q0 -21 14.5 -36t35.5 -15h199q17 0 29.5 -12t12.5 -29t-12.5 -29t-29.5 -12h-199q-21 0 -35.5 -15t-14.5 -36v-125q0 -21 14.5 -36t35.5 -15h268q17 0 29 -12t12 -29t-12 -29t-29 -12h-359q-17 0 -29 12t-12 29v618z" />
    <glyph glyph-name="Edieresis" unicode="&#xcb;" 
d="M399 832q-17 0 -29 11.5t-12 28.5v21q0 17 12 28.5t29 11.5h20q17 0 29 -11.5t12 -28.5v-21q0 -17 -12 -28.5t-29 -11.5h-20zM221 832q-17 0 -28.5 11.5t-11.5 28.5v21q0 17 11.5 28.5t28.5 11.5h20q17 0 29 -11.5t12 -28.5v-21q0 -17 -12 -28.5t-29 -11.5h-20zM99 659
q0 17 12 29t29 12h359q17 0 29 -12t12 -29t-12 -29t-29 -12h-268q-21 0 -35.5 -15t-14.5 -36v-125q0 -21 14.5 -36t35.5 -15h199q17 0 29.5 -12t12.5 -29t-12.5 -29t-29.5 -12h-199q-21 0 -35.5 -15t-14.5 -36v-125q0 -21 14.5 -36t35.5 -15h268q17 0 29 -12t12 -29t-12 -29
t-29 -12h-359q-17 0 -29 12t-12 29v618z" />
    <glyph glyph-name="Igrave" unicode="&#xcc;" 
d="M249 916q-12 11 -12 29q0 17 12 29t29 12q16 0 30 -11l83 -83q12 -13 12 -30t-12.5 -28.5t-29.5 -11.5q-18 0 -29 11zM186 0q-17 0 -29 12t-12 29t12 29t29 12h42q22 0 36.5 15t14.5 36v434q0 21 -14.5 36t-36.5 15h-42q-17 0 -29 12t-12 29t12 29t29 12h268q17 0 29 -12
t12 -29t-12 -29t-29 -12h-42q-22 0 -36.5 -15t-14.5 -36v-434q0 -21 14.5 -36t36.5 -15h42q17 0 29 -12t12 -29t-12 -29t-29 -12h-268z" />
    <glyph glyph-name="Iacute" unicode="&#xcd;" 
d="M308 833q-13 -11 -29 -11q-17 0 -29.5 11.5t-12.5 28.5t13 30l82 83q13 11 29 11q17 0 29.5 -12t12.5 -29t-12 -28zM186 0q-17 0 -29 12t-12 29t12 29t29 12h42q22 0 36.5 15t14.5 36v434q0 21 -14.5 36t-36.5 15h-42q-17 0 -29 12t-12 29t12 29t29 12h268q17 0 29 -12
t12 -29t-12 -29t-29 -12h-42q-22 0 -36.5 -15t-14.5 -36v-434q0 -21 14.5 -36t36.5 -15h42q17 0 29 -12t12 -29t-12 -29t-29 -12h-268z" />
    <glyph glyph-name="Icircumflex" unicode="&#xce;" 
d="M251 831q-9 -9 -25 -9q-14 0 -24.5 10t-10.5 24t10 27l95 93q9 10 25 10q15 0 25 -10l94 -93q9 -12 9 -27t-9.5 -24.5t-24.5 -9.5t-26 9l-37 36q-12 14 -31 14q-20 0 -32 -14zM186 0q-17 0 -29 12t-12 29t12 29t29 12h42q22 0 36.5 15t14.5 36v434q0 21 -14.5 36
t-36.5 15h-42q-17 0 -29 12t-12 29t12 29t29 12h268q17 0 29 -12t12 -29t-12 -29t-29 -12h-42q-22 0 -36.5 -15t-14.5 -36v-434q0 -21 14.5 -36t36.5 -15h42q17 0 29 -12t12 -29t-12 -29t-29 -12h-268z" />
    <glyph glyph-name="Idieresis" unicode="&#xcf;" 
d="M399 832q-17 0 -29 11.5t-12 28.5v21q0 17 12 28.5t29 11.5h20q17 0 29 -11.5t12 -28.5v-21q0 -17 -12 -28.5t-29 -11.5h-20zM221 832q-17 0 -28.5 11.5t-11.5 28.5v21q0 17 11.5 28.5t28.5 11.5h20q17 0 29 -11.5t12 -28.5v-21q0 -17 -12 -28.5t-29 -11.5h-20zM186 0
q-17 0 -29 12t-12 29t12 29t29 12h42q22 0 36.5 15t14.5 36v434q0 21 -14.5 36t-36.5 15h-42q-17 0 -29 12t-12 29t12 29t29 12h268q17 0 29 -12t12 -29t-12 -29t-29 -12h-42q-22 0 -36.5 -15t-14.5 -36v-434q0 -21 14.5 -36t36.5 -15h42q17 0 29 -12t12 -29t-12 -29
t-29 -12h-268z" />
    <glyph glyph-name="Eth" unicode="&#xd0;" 
d="M99 659q0 17 12 29t29 12h254q15 0 29 -11l106 -108q12 -10 12 -28v-406q0 -17 -12 -28l-106 -108q-14 -11 -29 -11h-254q-17 0 -29 12t-12 29v249q0 20 -20 20h-10q-17 0 -29 12t-12 29t12 29t29 12h10q20 0 20 20v247zM181 133q0 -21 14.5 -36t35.5 -15h128q17 0 29 12
l58 59q5 5 9 13t4 16v336q0 8 -4 16t-9 13l-58 59q-12 12 -29 12h-128q-21 0 -35.5 -15t-14.5 -36v-155q0 -20 20 -20h142q17 0 28.5 -12t11.5 -29t-11.5 -29t-28.5 -12h-142q-20 0 -20 -20v-157z" />
    <glyph glyph-name="Ntilde" unicode="&#xd1;" 
d="M230 914v-35q0 -14 -9.5 -23.5t-23.5 -9.5q-13 0 -23 9.5t-10 23.5v51q0 12 8 20l41 41q11 8 20 8h51q10 0 21 -8l40 -41q8 -11 8 -20v-24l19 -18h21l18 18v35q0 14 9.5 23.5t23.5 9.5t23.5 -9.5t9.5 -23.5v-50q0 -11 -7 -21l-43 -40q-6 -8 -19 -8h-51q-10 0 -21 8
l-41 40q-7 7 -7 21v23l-19 19h-20zM442 223q5 -8 9 -8q2 0 5 2.5t3 9.5v432q0 17 12 29t29 12t29 -12t12 -29v-618q0 -17 -12 -29t-29 -12q-24 0 -36 20l-267 458q-5 8 -9 8q-7 0 -7 -12v-433q0 -17 -12 -29t-29 -12t-29 12t-12 29v618q0 17 12 29t29 12q22 0 36 -20z" />
    <glyph glyph-name="Ograve" unicode="&#xd2;" 
d="M249 916q-12 11 -12 29q0 17 12 29t29 12q16 0 30 -11l83 -83q12 -13 12 -30t-12.5 -28.5t-29.5 -11.5q-18 0 -29 11zM530 604q11 -14 11 -30v-448q0 -16 -11 -30l-87 -84q-10 -12 -29 -12h-190q-17 0 -28 12l-85 84q-12 15 -12 30v448q0 15 12 30l85 84q11 12 28 12h190
q19 0 29 -12zM446 132q5 5 9 12.5t4 15.5v380q0 8 -4 15.5t-9 12.5l-37 38q-10 12 -29 12h-121q-17 0 -29 -12l-37 -38q-12 -10 -12 -28v-380q0 -17 12 -28l37 -38q12 -12 29 -12h121q19 0 29 12z" />
    <glyph glyph-name="Oacute" unicode="&#xd3;" 
d="M308 833q-13 -11 -29 -11q-17 0 -29.5 11.5t-12.5 28.5t13 30l82 83q13 11 29 11q17 0 29.5 -12t12.5 -29t-12 -28zM530 604q11 -14 11 -30v-448q0 -16 -11 -30l-87 -84q-10 -12 -29 -12h-190q-17 0 -28 12l-85 84q-12 15 -12 30v448q0 15 12 30l85 84q11 12 28 12h190
q19 0 29 -12zM446 132q5 5 9 12.5t4 15.5v380q0 8 -4 15.5t-9 12.5l-37 38q-10 12 -29 12h-121q-17 0 -29 -12l-37 -38q-12 -10 -12 -28v-380q0 -17 12 -28l37 -38q12 -12 29 -12h121q19 0 29 12z" />
    <glyph glyph-name="Ocircumflex" unicode="&#xd4;" 
d="M251 831q-9 -9 -25 -9q-14 0 -24.5 10t-10.5 24t10 27l95 93q9 10 25 10q15 0 25 -10l94 -93q9 -12 9 -27t-9.5 -24.5t-24.5 -9.5t-26 9l-37 36q-12 14 -31 14q-20 0 -32 -14zM530 604q11 -14 11 -30v-448q0 -16 -11 -30l-87 -84q-10 -12 -29 -12h-190q-17 0 -28 12
l-85 84q-12 15 -12 30v448q0 15 12 30l85 84q11 12 28 12h190q19 0 29 -12zM446 132q5 5 9 12.5t4 15.5v380q0 8 -4 15.5t-9 12.5l-37 38q-10 12 -29 12h-121q-17 0 -29 -12l-37 -38q-12 -10 -12 -28v-380q0 -17 12 -28l37 -38q12 -12 29 -12h121q19 0 29 12z" />
    <glyph glyph-name="Otilde" unicode="&#xd5;" 
d="M230 914v-35q0 -14 -9.5 -23.5t-23.5 -9.5q-13 0 -23 9.5t-10 23.5v51q0 12 8 20l41 41q11 8 20 8h51q10 0 21 -8l40 -41q8 -11 8 -20v-24l19 -18h21l18 18v35q0 14 9.5 23.5t23.5 9.5t23.5 -9.5t9.5 -23.5v-50q0 -11 -7 -21l-43 -40q-6 -8 -19 -8h-51q-10 0 -21 8
l-41 40q-7 7 -7 21v23l-19 19h-20zM530 604q11 -14 11 -30v-448q0 -16 -11 -30l-87 -84q-10 -12 -29 -12h-190q-17 0 -28 12l-85 84q-12 15 -12 30v448q0 15 12 30l85 84q11 12 28 12h190q19 0 29 -12zM446 132q5 5 9 12.5t4 15.5v380q0 8 -4 15.5t-9 12.5l-37 38
q-10 12 -29 12h-121q-17 0 -29 -12l-37 -38q-12 -10 -12 -28v-380q0 -17 12 -28l37 -38q12 -12 29 -12h121q19 0 29 12z" />
    <glyph glyph-name="Odieresis" unicode="&#xd6;" 
d="M399 832q-17 0 -29 11.5t-12 28.5v21q0 17 12 28.5t29 11.5h20q17 0 29 -11.5t12 -28.5v-21q0 -17 -12 -28.5t-29 -11.5h-20zM221 832q-17 0 -28.5 11.5t-11.5 28.5v21q0 17 11.5 28.5t28.5 11.5h20q17 0 29 -11.5t12 -28.5v-21q0 -17 -12 -28.5t-29 -11.5h-20zM530 604
q11 -14 11 -30v-448q0 -16 -11 -30l-87 -84q-10 -12 -29 -12h-190q-17 0 -28 12l-85 84q-12 15 -12 30v448q0 15 12 30l85 84q11 12 28 12h190q19 0 29 -12zM446 132q5 5 9 12.5t4 15.5v380q0 8 -4 15.5t-9 12.5l-37 38q-10 12 -29 12h-121q-17 0 -29 -12l-37 -38
q-12 -10 -12 -28v-380q0 -17 12 -28l37 -38q12 -12 29 -12h121q19 0 29 12z" />
    <glyph glyph-name="multiply" unicode="&#xd7;" 
d="M486 244q12 -15 12 -30v-2q-1 -15 -13 -27t-28 -12q-17 0 -31 12l-71 71q-13 16 -34 16q-23 0 -36 -16l-72 -72q-14 -13 -29 -13q-17 0 -29.5 13.5t-12.5 29.5q0 14 11 28l72 73q16 13 16 35q0 20 -16 36l-72 72q-11 11 -11 28t12.5 30t29.5 13q15 0 29 -13l72 -72
q15 -15 36 -15q19 0 34 15l72 72q14 13 30 13h2q15 -1 27 -13.5t12 -28.5q0 -15 -12 -29l-72 -72q-14 -17 -14 -36q0 -20 15 -35z" />
    <glyph glyph-name="Oslash" unicode="&#xd8;" 
d="M538 628q11 11 30 11q17 0 29 -11.5t12 -28.5q0 -20 -12 -29l-44 -46q-12 -12 -12 -29v-368q0 -16 -12 -31l-87 -84q-10 -12 -28 -12h-189q-17 0 -28 12l-65 64q-6 6 -14 6q-9 0 -13 -7l-3 -3q-13 -11 -31 -11q-17 0 -28.5 12t-11.5 29q0 19 11 30l43 44q5 5 9 13t4 16
v369q0 7 4 15t9 15l86 84q11 12 28 12h189q18 0 28 -12l65 -64q6 -6 14 -6q10 0 14 7zM194 570q-5 -5 -9 -13.5t-4 -16.5v-243q0 -13 9 -13q6 0 10 6l245 245q9 8 9 19q0 7 -5 12l-40 40q-12 12 -30 12h-119q-8 0 -16.5 -4t-13.5 -9zM445 130q5 5 9.5 13.5t4.5 16.5v243
q0 13 -10 13q-5 0 -10 -6l-245 -245q-9 -7 -9 -19q0 -7 5 -12l40 -40q12 -12 30 -12h119q8 0 16.5 4t13.5 9z" />
    <glyph glyph-name="Ugrave" unicode="&#xd9;" 
d="M249 916q-12 11 -12 29q0 17 12 29t29 12q16 0 30 -11l83 -83q12 -13 12 -30t-12.5 -28.5t-29.5 -11.5q-18 0 -29 11zM181 160q0 -17 12 -28l37 -38q12 -12 29 -12h121q19 0 29 12l37 38q5 5 9 12.5t4 15.5v499q0 17 12 29t29 12t29 -12t12 -29v-533q0 -16 -11 -30
l-87 -84q-10 -12 -29 -12h-190q-17 0 -28 12l-85 84q-12 15 -12 30v533q0 17 12 29t29 12t29 -12t12 -29v-499z" />
    <glyph glyph-name="Uacute" unicode="&#xda;" 
d="M308 833q-13 -11 -29 -11q-17 0 -29.5 11.5t-12.5 28.5t13 30l82 83q13 11 29 11q17 0 29.5 -12t12.5 -29t-12 -28zM181 160q0 -17 12 -28l37 -38q12 -12 29 -12h121q19 0 29 12l37 38q5 5 9 12.5t4 15.5v499q0 17 12 29t29 12t29 -12t12 -29v-533q0 -16 -11 -30l-87 -84
q-10 -12 -29 -12h-190q-17 0 -28 12l-85 84q-12 15 -12 30v533q0 17 12 29t29 12t29 -12t12 -29v-499z" />
    <glyph glyph-name="Ucircumflex" unicode="&#xdb;" 
d="M251 831q-9 -9 -25 -9q-14 0 -24.5 10t-10.5 24t10 27l95 93q9 10 25 10q15 0 25 -10l94 -93q9 -12 9 -27t-9.5 -24.5t-24.5 -9.5t-26 9l-37 36q-12 14 -31 14q-20 0 -32 -14zM181 160q0 -17 12 -28l37 -38q12 -12 29 -12h121q19 0 29 12l37 38q5 5 9 12.5t4 15.5v499
q0 17 12 29t29 12t29 -12t12 -29v-533q0 -16 -11 -30l-87 -84q-10 -12 -29 -12h-190q-17 0 -28 12l-85 84q-12 15 -12 30v533q0 17 12 29t29 12t29 -12t12 -29v-499z" />
    <glyph glyph-name="Udieresis" unicode="&#xdc;" 
d="M399 832q-17 0 -29 11.5t-12 28.5v21q0 17 12 28.5t29 11.5h20q17 0 29 -11.5t12 -28.5v-21q0 -17 -12 -28.5t-29 -11.5h-20zM221 832q-17 0 -28.5 11.5t-11.5 28.5v21q0 17 11.5 28.5t28.5 11.5h20q17 0 29 -11.5t12 -28.5v-21q0 -17 -12 -28.5t-29 -11.5h-20zM181 160
q0 -17 12 -28l37 -38q12 -12 29 -12h121q19 0 29 12l37 38q5 5 9 12.5t4 15.5v499q0 17 12 29t29 12t29 -12t12 -29v-533q0 -16 -11 -30l-87 -84q-10 -12 -29 -12h-190q-17 0 -28 12l-85 84q-12 15 -12 30v533q0 17 12 29t29 12t29 -12t12 -29v-499z" />
    <glyph glyph-name="Yacute" unicode="&#xdd;" 
d="M308 833q-13 -11 -29 -11q-17 0 -29.5 11.5t-12.5 28.5t13 30l82 83q13 11 29 11q17 0 29.5 -12t12.5 -29t-12 -28zM112 458q-13 14 -13 30v171q0 17 12 29t29 12t29 -12t12 -29v-137q0 -17 12 -28l91 -91q15 -15 36 -15t36 15l91 91q12 12 12 28v137q0 17 12 29t29 12
t29 -12t12 -29v-171q0 -16 -12 -30l-156 -156q-12 -10 -12 -28v-233q0 -17 -12 -29t-29 -12t-29 12t-12 29v233q0 18 -12 28z" />
    <glyph glyph-name="Thorn" unicode="&#xde;" 
d="M99 659q0 17 12 29t29 12t29 -12t12 -29v-10q0 -21 14.5 -35.5t35.5 -14.5h163q16 0 29 -12l106 -106q12 -10 12 -29v-203q0 -18 -12 -29l-106 -107q-14 -11 -29 -11h-163q-21 0 -35.5 -15t-14.5 -36v-10q0 -17 -12 -29t-29 -12t-29 12t-12 29v618zM459 418q0 8 -4 15.5
t-9 12.5l-58 59q-12 12 -29 12h-128q-21 0 -35.5 -14.5t-14.5 -35.5v-233q0 -21 14.5 -35.5t35.5 -14.5h128q17 0 29 12l58 59q5 5 9 12.5t4 15.5v135z" />
    <glyph glyph-name="germandbls" unicode="&#xdf;" 
d="M182 -35q0 -17 -12 -28.5t-29 -11.5t-29 11.5t-12 28.5v609q0 16 11 30l86 84q11 12 29 12h162q16 0 29 -12l86 -84q11 -14 11 -30v-107q0 -18 -11 -29l-19 -21q-16 -15 -16 -35q0 -21 16 -36l49 -50q11 -11 11 -30v-139q0 -17 -11 -31l-86 -84q-10 -12 -29 -12h-131
q-17 0 -29.5 12t-12.5 29t12.5 29t29.5 12h96q8 0 16.5 4t13.5 9l36 36q5 5 9 13t4 16v72q0 8 -4 16t-9 13l-91 91q-12 14 -12 30t12 29l61 61q5 5 9.5 14t4.5 17v37q0 8 -4.5 16t-9.5 13l-36 36q-5 5 -13.5 9t-16.5 4h-92q-8 0 -16.5 -4t-13.5 -9l-36 -36q-5 -5 -9 -13
t-4 -16v-575z" />
    <glyph glyph-name="agrave" unicode="&#xe0;" 
d="M249 916q-12 11 -12 29q0 17 12 29t29 12q16 0 30 -11l83 -83q12 -13 12 -30t-12.5 -28.5t-29.5 -11.5q-18 0 -29 11zM541 41q0 -17 -12 -29t-29 -12t-29 12t-12 29v194q0 22 -15 36.5t-36 14.5h-177q-21 0 -35.5 -14.5t-14.5 -36.5v-194q0 -17 -12 -29t-29 -12t-29 12
t-12 29v512q0 16 12 29l106 106q11 12 29 12h148q15 0 29 -11l106 -108q12 -10 12 -28v-512zM459 518q0 8 -4 16t-9 13l-58 59q-12 12 -29 12h-79q-17 0 -28 -12l-59 -59q-12 -10 -12 -29v-99q0 -21 14.5 -36t35.5 -15h177q21 0 36 15t15 36v99z" />
    <glyph glyph-name="aacute" unicode="&#xe1;" 
d="M308 833q-13 -11 -29 -11q-17 0 -29.5 11.5t-12.5 28.5t13 30l82 83q13 11 29 11q17 0 29.5 -12t12.5 -29t-12 -28zM541 41q0 -17 -12 -29t-29 -12t-29 12t-12 29v194q0 22 -15 36.5t-36 14.5h-177q-21 0 -35.5 -14.5t-14.5 -36.5v-194q0 -17 -12 -29t-29 -12t-29 12
t-12 29v512q0 16 12 29l106 106q11 12 29 12h148q15 0 29 -11l106 -108q12 -10 12 -28v-512zM459 518q0 8 -4 16t-9 13l-58 59q-12 12 -29 12h-79q-17 0 -28 -12l-59 -59q-12 -10 -12 -29v-99q0 -21 14.5 -36t35.5 -15h177q21 0 36 15t15 36v99z" />
    <glyph glyph-name="acircumflex" unicode="&#xe2;" 
d="M251 831q-9 -9 -25 -9q-14 0 -24.5 10t-10.5 24t10 27l95 93q9 10 25 10q15 0 25 -10l94 -93q9 -12 9 -27t-9.5 -24.5t-24.5 -9.5t-26 9l-37 36q-12 14 -31 14q-20 0 -32 -14zM541 41q0 -17 -12 -29t-29 -12t-29 12t-12 29v194q0 22 -15 36.5t-36 14.5h-177
q-21 0 -35.5 -14.5t-14.5 -36.5v-194q0 -17 -12 -29t-29 -12t-29 12t-12 29v512q0 16 12 29l106 106q11 12 29 12h148q15 0 29 -11l106 -108q12 -10 12 -28v-512zM459 518q0 8 -4 16t-9 13l-58 59q-12 12 -29 12h-79q-17 0 -28 -12l-59 -59q-12 -10 -12 -29v-99
q0 -21 14.5 -36t35.5 -15h177q21 0 36 15t15 36v99z" />
    <glyph glyph-name="atilde" unicode="&#xe3;" 
d="M230 914v-35q0 -14 -9.5 -23.5t-23.5 -9.5q-13 0 -23 9.5t-10 23.5v51q0 12 8 20l41 41q11 8 20 8h51q10 0 21 -8l40 -41q8 -11 8 -20v-24l19 -18h21l18 18v35q0 14 9.5 23.5t23.5 9.5t23.5 -9.5t9.5 -23.5v-50q0 -11 -7 -21l-43 -40q-6 -8 -19 -8h-51q-10 0 -21 8
l-41 40q-7 7 -7 21v23l-19 19h-20zM541 41q0 -17 -12 -29t-29 -12t-29 12t-12 29v194q0 22 -15 36.5t-36 14.5h-177q-21 0 -35.5 -14.5t-14.5 -36.5v-194q0 -17 -12 -29t-29 -12t-29 12t-12 29v512q0 16 12 29l106 106q11 12 29 12h148q15 0 29 -11l106 -108q12 -10 12 -28
v-512zM459 518q0 8 -4 16t-9 13l-58 59q-12 12 -29 12h-79q-17 0 -28 -12l-59 -59q-12 -10 -12 -29v-99q0 -21 14.5 -36t35.5 -15h177q21 0 36 15t15 36v99z" />
    <glyph glyph-name="adieresis" unicode="&#xe4;" 
d="M399 832q-17 0 -29 11.5t-12 28.5v21q0 17 12 28.5t29 11.5h20q17 0 29 -11.5t12 -28.5v-21q0 -17 -12 -28.5t-29 -11.5h-20zM221 832q-17 0 -28.5 11.5t-11.5 28.5v21q0 17 11.5 28.5t28.5 11.5h20q17 0 29 -11.5t12 -28.5v-21q0 -17 -12 -28.5t-29 -11.5h-20zM541 41
q0 -17 -12 -29t-29 -12t-29 12t-12 29v194q0 22 -15 36.5t-36 14.5h-177q-21 0 -35.5 -14.5t-14.5 -36.5v-194q0 -17 -12 -29t-29 -12t-29 12t-12 29v512q0 16 12 29l106 106q11 12 29 12h148q15 0 29 -11l106 -108q12 -10 12 -28v-512zM459 518q0 8 -4 16t-9 13l-58 59
q-12 12 -29 12h-79q-17 0 -28 -12l-59 -59q-12 -10 -12 -29v-99q0 -21 14.5 -36t35.5 -15h177q21 0 36 15t15 36v99z" />
    <glyph glyph-name="aring" unicode="&#xe5;" 
d="M213 919q0 10 7 17l52 53q8 7 18 7h61q5 0 9.5 -2t8.5 -4l53 -55q6 -6 6 -16v-62q0 -9 -6 -17l-53 -53q-4 -2 -8.5 -4t-9.5 -2h-61q-10 0 -18 7l-52 52q-7 8 -7 17v62zM281 917q-12 -10 -12 -28t12 -29l11 -11q11 -12 29 -12t28 12l11 11q12 11 12 29t-12 28l-11 11
q-10 12 -28 12t-29 -12zM541 41q0 -17 -12 -29t-29 -12t-29 12t-12 29v194q0 22 -15 36.5t-36 14.5h-177q-21 0 -35.5 -14.5t-14.5 -36.5v-194q0 -17 -12 -29t-29 -12t-29 12t-12 29v512q0 16 12 29l106 106q11 12 29 12h148q15 0 29 -11l106 -108q12 -10 12 -28v-512z
M459 518q0 8 -4 16t-9 13l-58 59q-12 12 -29 12h-79q-17 0 -28 -12l-59 -59q-12 -10 -12 -29v-99q0 -21 14.5 -36t35.5 -15h177q21 0 36 15t15 36v99z" />
    <glyph glyph-name="ae" unicode="&#xe6;" 
d="M281 265q0 10 -6 15.5t-15 5.5h-47q-21 0 -36 -15t-15 -35v-195q0 -17 -12.5 -29t-29.5 -12t-28.5 12t-11.5 29v513q0 16 11 30l108 104q11 12 29 12h295q17 0 29 -12t12 -29t-12 -29t-29 -12h-109q-21 0 -36 -14t-15 -36v-126q0 -21 15 -36t36 -15h89q17 0 29 -12
t12 -29t-12 -29t-29 -12h-89q-21 0 -36 -15t-15 -36v-126q0 -22 15 -36t36 -14h109q17 0 29 -12t12 -29t-12 -29t-29 -12h-202q-17 0 -28.5 12t-11.5 29v224zM281 600q0 8 -6 13t-15 5q-15 0 -26 -11l-58 -58q-14 -12 -14 -30v-100q0 -21 15 -36t36 -15h47q9 0 15 6t6 15
v211z" />
    <glyph glyph-name="ccedilla" unicode="&#xe7;" 
d="M181 182q0 -18 12 -29l59 -59q11 -12 28 -12h78q17 0 29 12l58 59q5 5 9 13t4 16v30q0 17 12 29.5t29 12.5t29 -12.5t12 -29.5v-65q0 -17 -12 -28l-106 -108q-14 -11 -29 -11h-46v-21q0 -8 4 -17t9 -14l60 -58q7 -10 7 -18v-62q0 -4 -2 -8.5t-4 -8.5l-55 -53
q-6 -7 -16 -7h-62q-10 0 -16 7l-28 28q-9 9 -9 20t9 19t20 8q13 0 20 -7l6 -6q5 -5 13.5 -9t16.5 -4t16 4t13 9l9 9q5 5 9 13.5t4 16.5t-4 16t-9 13l-58 58q-9 10 -9 23v49h-45q-17 0 -31 12l-104 106q-12 12 -12 29v406q0 17 12 29l104 106q14 12 31 12h147q15 0 29 -11
l106 -108q12 -10 12 -28v-65q0 -17 -12 -29.5t-29 -12.5t-29 12.5t-12 29.5v30q0 8 -4 16t-9 13l-58 59q-12 12 -29 12h-78q-17 0 -28 -12l-59 -59q-12 -10 -12 -29v-336z" />
    <glyph glyph-name="egrave" unicode="&#xe8;" 
d="M249 916q-12 11 -12 29q0 17 12 29t29 12q16 0 30 -11l83 -83q12 -13 12 -30t-12.5 -28.5t-29.5 -11.5q-18 0 -29 11zM99 659q0 17 12 29t29 12h359q17 0 29 -12t12 -29t-12 -29t-29 -12h-268q-21 0 -35.5 -15t-14.5 -36v-125q0 -21 14.5 -36t35.5 -15h199q17 0 29.5 -12
t12.5 -29t-12.5 -29t-29.5 -12h-199q-21 0 -35.5 -15t-14.5 -36v-125q0 -21 14.5 -36t35.5 -15h268q17 0 29 -12t12 -29t-12 -29t-29 -12h-359q-17 0 -29 12t-12 29v618z" />
    <glyph glyph-name="eacute" unicode="&#xe9;" 
d="M308 833q-13 -11 -29 -11q-17 0 -29.5 11.5t-12.5 28.5t13 30l82 83q13 11 29 11q17 0 29.5 -12t12.5 -29t-12 -28zM99 659q0 17 12 29t29 12h359q17 0 29 -12t12 -29t-12 -29t-29 -12h-268q-21 0 -35.5 -15t-14.5 -36v-125q0 -21 14.5 -36t35.5 -15h199q17 0 29.5 -12
t12.5 -29t-12.5 -29t-29.5 -12h-199q-21 0 -35.5 -15t-14.5 -36v-125q0 -21 14.5 -36t35.5 -15h268q17 0 29 -12t12 -29t-12 -29t-29 -12h-359q-17 0 -29 12t-12 29v618z" />
    <glyph glyph-name="ecircumflex" unicode="&#xea;" 
d="M251 831q-9 -9 -25 -9q-14 0 -24.5 10t-10.5 24t10 27l95 93q9 10 25 10q15 0 25 -10l94 -93q9 -12 9 -27t-9.5 -24.5t-24.5 -9.5t-26 9l-37 36q-12 14 -31 14q-20 0 -32 -14zM99 659q0 17 12 29t29 12h359q17 0 29 -12t12 -29t-12 -29t-29 -12h-268q-21 0 -35.5 -15
t-14.5 -36v-125q0 -21 14.5 -36t35.5 -15h199q17 0 29.5 -12t12.5 -29t-12.5 -29t-29.5 -12h-199q-21 0 -35.5 -15t-14.5 -36v-125q0 -21 14.5 -36t35.5 -15h268q17 0 29 -12t12 -29t-12 -29t-29 -12h-359q-17 0 -29 12t-12 29v618z" />
    <glyph glyph-name="edieresis" unicode="&#xeb;" 
d="M399 832q-17 0 -29 11.5t-12 28.5v21q0 17 12 28.5t29 11.5h20q17 0 29 -11.5t12 -28.5v-21q0 -17 -12 -28.5t-29 -11.5h-20zM221 832q-17 0 -28.5 11.5t-11.5 28.5v21q0 17 11.5 28.5t28.5 11.5h20q17 0 29 -11.5t12 -28.5v-21q0 -17 -12 -28.5t-29 -11.5h-20zM99 659
q0 17 12 29t29 12h359q17 0 29 -12t12 -29t-12 -29t-29 -12h-268q-21 0 -35.5 -15t-14.5 -36v-125q0 -21 14.5 -36t35.5 -15h199q17 0 29.5 -12t12.5 -29t-12.5 -29t-29.5 -12h-199q-21 0 -35.5 -15t-14.5 -36v-125q0 -21 14.5 -36t35.5 -15h268q17 0 29 -12t12 -29t-12 -29
t-29 -12h-359q-17 0 -29 12t-12 29v618z" />
    <glyph glyph-name="igrave" unicode="&#xec;" 
d="M249 916q-12 11 -12 29q0 17 12 29t29 12q16 0 30 -11l83 -83q12 -13 12 -30t-12.5 -28.5t-29.5 -11.5q-18 0 -29 11zM186 0q-17 0 -29 12t-12 29t12 29t29 12h42q22 0 36.5 15t14.5 36v434q0 21 -14.5 36t-36.5 15h-42q-17 0 -29 12t-12 29t12 29t29 12h268q17 0 29 -12
t12 -29t-12 -29t-29 -12h-42q-22 0 -36.5 -15t-14.5 -36v-434q0 -21 14.5 -36t36.5 -15h42q17 0 29 -12t12 -29t-12 -29t-29 -12h-268z" />
    <glyph glyph-name="iacute" unicode="&#xed;" 
d="M308 833q-13 -11 -29 -11q-17 0 -29.5 11.5t-12.5 28.5t13 30l82 83q13 11 29 11q17 0 29.5 -12t12.5 -29t-12 -28zM186 0q-17 0 -29 12t-12 29t12 29t29 12h42q22 0 36.5 15t14.5 36v434q0 21 -14.5 36t-36.5 15h-42q-17 0 -29 12t-12 29t12 29t29 12h268q17 0 29 -12
t12 -29t-12 -29t-29 -12h-42q-22 0 -36.5 -15t-14.5 -36v-434q0 -21 14.5 -36t36.5 -15h42q17 0 29 -12t12 -29t-12 -29t-29 -12h-268z" />
    <glyph glyph-name="icircumflex" unicode="&#xee;" 
d="M251 831q-9 -9 -25 -9q-14 0 -24.5 10t-10.5 24t10 27l95 93q9 10 25 10q15 0 25 -10l94 -93q9 -12 9 -27t-9.5 -24.5t-24.5 -9.5t-26 9l-37 36q-12 14 -31 14q-20 0 -32 -14zM186 0q-17 0 -29 12t-12 29t12 29t29 12h42q22 0 36.5 15t14.5 36v434q0 21 -14.5 36
t-36.5 15h-42q-17 0 -29 12t-12 29t12 29t29 12h268q17 0 29 -12t12 -29t-12 -29t-29 -12h-42q-22 0 -36.5 -15t-14.5 -36v-434q0 -21 14.5 -36t36.5 -15h42q17 0 29 -12t12 -29t-12 -29t-29 -12h-268z" />
    <glyph glyph-name="idieresis" unicode="&#xef;" 
d="M399 832q-17 0 -29 11.5t-12 28.5v21q0 17 12 28.5t29 11.5h20q17 0 29 -11.5t12 -28.5v-21q0 -17 -12 -28.5t-29 -11.5h-20zM221 832q-17 0 -28.5 11.5t-11.5 28.5v21q0 17 11.5 28.5t28.5 11.5h20q17 0 29 -11.5t12 -28.5v-21q0 -17 -12 -28.5t-29 -11.5h-20zM186 0
q-17 0 -29 12t-12 29t12 29t29 12h42q22 0 36.5 15t14.5 36v434q0 21 -14.5 36t-36.5 15h-42q-17 0 -29 12t-12 29t12 29t29 12h268q17 0 29 -12t12 -29t-12 -29t-29 -12h-42q-22 0 -36.5 -15t-14.5 -36v-434q0 -21 14.5 -36t36.5 -15h42q17 0 29 -12t12 -29t-12 -29
t-29 -12h-268z" />
    <glyph glyph-name="eth" unicode="&#xf0;" 
d="M100 659q0 17 12 29t29 12h256q15 0 29 -11l106 -106q12 -12 12 -29v-408q0 -17 -12 -29l-106 -106q-14 -11 -29 -11h-256q-17 0 -29 12t-12 29v249q0 20 -20 20h-11q-17 0 -28.5 12t-11.5 29t11.5 29t28.5 12h11q20 0 20 20v247zM182 132q0 -22 14.5 -36t36.5 -14h128
q18 0 29 11l60 59q12 11 12 29v338q0 19 -12 29l-60 59q-11 11 -29 11h-128q-22 0 -36.5 -14t-14.5 -36v-156q0 -20 20 -20h143q17 0 29 -12t12 -29t-12 -29t-29 -12h-143q-20 0 -20 -20v-158z" />
    <glyph glyph-name="ntilde" unicode="&#xf1;" 
d="M230 914v-35q0 -14 -9.5 -23.5t-23.5 -9.5q-13 0 -23 9.5t-10 23.5v51q0 12 8 20l41 41q11 8 20 8h51q10 0 21 -8l40 -41q8 -11 8 -20v-24l19 -18h21l18 18v35q0 14 9.5 23.5t23.5 9.5t23.5 -9.5t9.5 -23.5v-50q0 -11 -7 -21l-43 -40q-6 -8 -19 -8h-51q-10 0 -21 8
l-41 40q-7 7 -7 21v23l-19 19h-20zM442 223q5 -8 9 -8q2 0 5 2.5t3 9.5v432q0 17 12 29t29 12t29 -12t12 -29v-618q0 -17 -12 -29t-29 -12q-24 0 -36 20l-267 458q-5 8 -9 8q-7 0 -7 -12v-433q0 -17 -12 -29t-29 -12t-29 12t-12 29v618q0 17 12 29t29 12q22 0 36 -20z" />
    <glyph glyph-name="ograve" unicode="&#xf2;" 
d="M249 916q-12 11 -12 29q0 17 12 29t29 12q16 0 30 -11l83 -83q12 -13 12 -30t-12.5 -28.5t-29.5 -11.5q-18 0 -29 11zM530 604q11 -14 11 -30v-448q0 -16 -11 -30l-87 -84q-10 -12 -29 -12h-190q-17 0 -28 12l-85 84q-12 15 -12 30v448q0 15 12 30l85 84q11 12 28 12h190
q19 0 29 -12zM446 132q5 5 9 12.5t4 15.5v380q0 8 -4 15.5t-9 12.5l-37 38q-10 12 -29 12h-121q-17 0 -29 -12l-37 -38q-12 -10 -12 -28v-380q0 -17 12 -28l37 -38q12 -12 29 -12h121q19 0 29 12z" />
    <glyph glyph-name="oacute" unicode="&#xf3;" 
d="M308 833q-13 -11 -29 -11q-17 0 -29.5 11.5t-12.5 28.5t13 30l82 83q13 11 29 11q17 0 29.5 -12t12.5 -29t-12 -28zM530 604q11 -14 11 -30v-448q0 -16 -11 -30l-87 -84q-10 -12 -29 -12h-190q-17 0 -28 12l-85 84q-12 15 -12 30v448q0 15 12 30l85 84q11 12 28 12h190
q19 0 29 -12zM446 132q5 5 9 12.5t4 15.5v380q0 8 -4 15.5t-9 12.5l-37 38q-10 12 -29 12h-121q-17 0 -29 -12l-37 -38q-12 -10 -12 -28v-380q0 -17 12 -28l37 -38q12 -12 29 -12h121q19 0 29 12z" />
    <glyph glyph-name="ocircumflex" unicode="&#xf4;" 
d="M251 831q-9 -9 -25 -9q-14 0 -24.5 10t-10.5 24t10 27l95 93q9 10 25 10q15 0 25 -10l94 -93q9 -12 9 -27t-9.5 -24.5t-24.5 -9.5t-26 9l-37 36q-12 14 -31 14q-20 0 -32 -14zM530 604q11 -14 11 -30v-448q0 -16 -11 -30l-87 -84q-10 -12 -29 -12h-190q-17 0 -28 12
l-85 84q-12 15 -12 30v448q0 15 12 30l85 84q11 12 28 12h190q19 0 29 -12zM446 132q5 5 9 12.5t4 15.5v380q0 8 -4 15.5t-9 12.5l-37 38q-10 12 -29 12h-121q-17 0 -29 -12l-37 -38q-12 -10 -12 -28v-380q0 -17 12 -28l37 -38q12 -12 29 -12h121q19 0 29 12z" />
    <glyph glyph-name="otilde" unicode="&#xf5;" 
d="M230 914v-35q0 -14 -9.5 -23.5t-23.5 -9.5q-13 0 -23 9.5t-10 23.5v51q0 12 8 20l41 41q11 8 20 8h51q10 0 21 -8l40 -41q8 -11 8 -20v-24l19 -18h21l18 18v35q0 14 9.5 23.5t23.5 9.5t23.5 -9.5t9.5 -23.5v-50q0 -11 -7 -21l-43 -40q-6 -8 -19 -8h-51q-10 0 -21 8
l-41 40q-7 7 -7 21v23l-19 19h-20zM530 604q11 -14 11 -30v-448q0 -16 -11 -30l-87 -84q-10 -12 -29 -12h-190q-17 0 -28 12l-85 84q-12 15 -12 30v448q0 15 12 30l85 84q11 12 28 12h190q19 0 29 -12zM446 132q5 5 9 12.5t4 15.5v380q0 8 -4 15.5t-9 12.5l-37 38
q-10 12 -29 12h-121q-17 0 -29 -12l-37 -38q-12 -10 -12 -28v-380q0 -17 12 -28l37 -38q12 -12 29 -12h121q19 0 29 12z" />
    <glyph glyph-name="odieresis" unicode="&#xf6;" 
d="M399 832q-17 0 -29 11.5t-12 28.5v21q0 17 12 28.5t29 11.5h20q17 0 29 -11.5t12 -28.5v-21q0 -17 -12 -28.5t-29 -11.5h-20zM221 832q-17 0 -28.5 11.5t-11.5 28.5v21q0 17 11.5 28.5t28.5 11.5h20q17 0 29 -11.5t12 -28.5v-21q0 -17 -12 -28.5t-29 -11.5h-20zM530 604
q11 -14 11 -30v-448q0 -16 -11 -30l-87 -84q-10 -12 -29 -12h-190q-17 0 -28 12l-85 84q-12 15 -12 30v448q0 15 12 30l85 84q11 12 28 12h190q19 0 29 -12zM446 132q5 5 9 12.5t4 15.5v380q0 8 -4 15.5t-9 12.5l-37 38q-10 12 -29 12h-121q-17 0 -29 -12l-37 -38
q-12 -10 -12 -28v-380q0 -17 12 -28l37 -38q12 -12 29 -12h121q19 0 29 12z" />
    <glyph glyph-name="divide" unicode="&#xf7;" 
d="M299 462q-17 0 -28.5 11.5t-11.5 28.5v41q0 17 11.5 28.5t28.5 11.5h41q17 0 28.5 -11.5t11.5 -28.5v-41q0 -17 -11.5 -28.5t-28.5 -11.5h-41zM480 392q17 0 28.5 -12t11.5 -29t-11.5 -29t-28.5 -12h-320q-17 0 -28.5 12t-11.5 29t11.5 29t28.5 12h320zM299 118
q-17 0 -28.5 11.5t-11.5 28.5v41q0 17 11.5 28.5t28.5 11.5h41q17 0 28.5 -11.5t11.5 -28.5v-41q0 -17 -11.5 -28.5t-28.5 -11.5h-41z" />
    <glyph glyph-name="oslash" unicode="&#xf8;" 
d="M538 628q11 11 30 11q17 0 29 -11.5t12 -28.5q0 -20 -12 -29l-44 -46q-12 -12 -12 -29v-368q0 -16 -12 -31l-87 -84q-10 -12 -28 -12h-189q-17 0 -28 12l-65 64q-6 6 -14 6q-9 0 -13 -7l-3 -3q-13 -11 -31 -11q-17 0 -28.5 12t-11.5 29q0 19 11 30l43 44q5 5 9 13t4 16
v369q0 7 4 15t9 15l86 84q11 12 28 12h189q18 0 28 -12l65 -64q6 -6 14 -6q10 0 14 7zM194 570q-5 -5 -9 -13.5t-4 -16.5v-243q0 -13 9 -13q6 0 10 6l245 245q9 8 9 19q0 7 -5 12l-40 40q-12 12 -30 12h-119q-8 0 -16.5 -4t-13.5 -9zM445 130q5 5 9.5 13.5t4.5 16.5v243
q0 13 -10 13q-5 0 -10 -6l-245 -245q-9 -7 -9 -19q0 -7 5 -12l40 -40q12 -12 30 -12h119q8 0 16.5 4t13.5 9z" />
    <glyph glyph-name="ugrave" unicode="&#xf9;" 
d="M249 916q-12 11 -12 29q0 17 12 29t29 12q16 0 30 -11l83 -83q12 -13 12 -30t-12.5 -28.5t-29.5 -11.5q-18 0 -29 11zM181 160q0 -17 12 -28l37 -38q12 -12 29 -12h121q19 0 29 12l37 38q5 5 9 12.5t4 15.5v499q0 17 12 29t29 12t29 -12t12 -29v-533q0 -16 -11 -30
l-87 -84q-10 -12 -29 -12h-190q-17 0 -28 12l-85 84q-12 15 -12 30v533q0 17 12 29t29 12t29 -12t12 -29v-499z" />
    <glyph glyph-name="uacute" unicode="&#xfa;" 
d="M308 833q-13 -11 -29 -11q-17 0 -29.5 11.5t-12.5 28.5t13 30l82 83q13 11 29 11q17 0 29.5 -12t12.5 -29t-12 -28zM181 160q0 -17 12 -28l37 -38q12 -12 29 -12h121q19 0 29 12l37 38q5 5 9 12.5t4 15.5v499q0 17 12 29t29 12t29 -12t12 -29v-533q0 -16 -11 -30l-87 -84
q-10 -12 -29 -12h-190q-17 0 -28 12l-85 84q-12 15 -12 30v533q0 17 12 29t29 12t29 -12t12 -29v-499z" />
    <glyph glyph-name="ucircumflex" unicode="&#xfb;" 
d="M251 831q-9 -9 -25 -9q-14 0 -24.5 10t-10.5 24t10 27l95 93q9 10 25 10q15 0 25 -10l94 -93q9 -12 9 -27t-9.5 -24.5t-24.5 -9.5t-26 9l-37 36q-12 14 -31 14q-20 0 -32 -14zM181 160q0 -17 12 -28l37 -38q12 -12 29 -12h121q19 0 29 12l37 38q5 5 9 12.5t4 15.5v499
q0 17 12 29t29 12t29 -12t12 -29v-533q0 -16 -11 -30l-87 -84q-10 -12 -29 -12h-190q-17 0 -28 12l-85 84q-12 15 -12 30v533q0 17 12 29t29 12t29 -12t12 -29v-499z" />
    <glyph glyph-name="udieresis" unicode="&#xfc;" 
d="M399 832q-17 0 -29 11.5t-12 28.5v21q0 17 12 28.5t29 11.5h20q17 0 29 -11.5t12 -28.5v-21q0 -17 -12 -28.5t-29 -11.5h-20zM221 832q-17 0 -28.5 11.5t-11.5 28.5v21q0 17 11.5 28.5t28.5 11.5h20q17 0 29 -11.5t12 -28.5v-21q0 -17 -12 -28.5t-29 -11.5h-20zM181 160
q0 -17 12 -28l37 -38q12 -12 29 -12h121q19 0 29 12l37 38q5 5 9 12.5t4 15.5v499q0 17 12 29t29 12t29 -12t12 -29v-533q0 -16 -11 -30l-87 -84q-10 -12 -29 -12h-190q-17 0 -28 12l-85 84q-12 15 -12 30v533q0 17 12 29t29 12t29 -12t12 -29v-499z" />
    <glyph glyph-name="yacute" unicode="&#xfd;" 
d="M308 833q-13 -11 -29 -11q-17 0 -29.5 11.5t-12.5 28.5t13 30l82 83q13 11 29 11q17 0 29.5 -12t12.5 -29t-12 -28zM112 458q-13 14 -13 30v171q0 17 12 29t29 12t29 -12t12 -29v-137q0 -17 12 -28l91 -91q15 -15 36 -15t36 15l91 91q12 12 12 28v137q0 17 12 29t29 12
t29 -12t12 -29v-171q0 -16 -12 -30l-156 -156q-12 -10 -12 -28v-233q0 -17 -12 -29t-29 -12t-29 12t-12 29v233q0 18 -12 28z" />
    <glyph glyph-name="thorn" unicode="&#xfe;" 
d="M100 739q0 17 12 28.5t29 11.5t29 -11.5t12 -28.5v-86q0 -22 14.5 -36.5t36.5 -14.5h164q15 0 29 -11l106 -107q12 -12 12 -29v-206q0 -17 -12 -29l-106 -107q-14 -11 -29 -11h-164q-22 0 -36.5 -14.5t-14.5 -36.5v-86q0 -17 -12 -28.5t-29 -11.5t-29 11.5t-12 28.5v774z
M462 419q0 18 -12 30l-60 59q-12 12 -29 12h-128q-22 0 -36.5 -14.5t-14.5 -36.5v-234q0 -22 14.5 -36.5t36.5 -14.5h128q17 0 29 12l60 59q12 12 12 30v134z" />
    <glyph glyph-name="ydieresis" unicode="&#xff;" 
d="M399 832q-17 0 -29 11.5t-12 28.5v21q0 17 12 28.5t29 11.5h20q17 0 29 -11.5t12 -28.5v-21q0 -17 -12 -28.5t-29 -11.5h-20zM221 832q-17 0 -28.5 11.5t-11.5 28.5v21q0 17 11.5 28.5t28.5 11.5h20q17 0 29 -11.5t12 -28.5v-21q0 -17 -12 -28.5t-29 -11.5h-20zM112 458
q-13 14 -13 30v171q0 17 12 29t29 12t29 -12t12 -29v-137q0 -17 12 -28l91 -91q15 -15 36 -15t36 15l91 91q12 12 12 28v137q0 17 12 29t29 12t29 -12t12 -29v-171q0 -16 -12 -30l-156 -156q-12 -10 -12 -28v-233q0 -17 -12 -29t-29 -12t-29 12t-12 29v233q0 18 -12 28z" />
    <glyph glyph-name="Amacron" unicode="&#x100;" 
d="M224 832q-17 0 -28.5 11.5t-11.5 28.5t11.5 29.5t28.5 12.5h192q17 0 28.5 -12.5t11.5 -29.5t-11.5 -28.5t-28.5 -11.5h-192zM541 41q0 -17 -12 -29t-29 -12t-29 12t-12 29v194q0 22 -15 36.5t-36 14.5h-177q-21 0 -35.5 -14.5t-14.5 -36.5v-194q0 -17 -12 -29t-29 -12
t-29 12t-12 29v512q0 16 12 29l106 106q11 12 29 12h148q15 0 29 -11l106 -108q12 -10 12 -28v-512zM459 518q0 8 -4 16t-9 13l-58 59q-12 12 -29 12h-79q-17 0 -28 -12l-59 -59q-12 -10 -12 -29v-99q0 -21 14.5 -36t35.5 -15h177q21 0 36 15t15 36v99z" />
    <glyph glyph-name="amacron" unicode="&#x101;" 
d="M224 832q-17 0 -28.5 11.5t-11.5 28.5t11.5 29.5t28.5 12.5h192q17 0 28.5 -12.5t11.5 -29.5t-11.5 -28.5t-28.5 -11.5h-192zM541 41q0 -17 -12 -29t-29 -12t-29 12t-12 29v194q0 22 -15 36.5t-36 14.5h-177q-21 0 -35.5 -14.5t-14.5 -36.5v-194q0 -17 -12 -29t-29 -12
t-29 12t-12 29v512q0 16 12 29l106 106q11 12 29 12h148q15 0 29 -11l106 -108q12 -10 12 -28v-512zM459 518q0 8 -4 16t-9 13l-58 59q-12 12 -29 12h-79q-17 0 -28 -12l-59 -59q-12 -10 -12 -29v-99q0 -21 14.5 -36t35.5 -15h177q21 0 36 15t15 36v99z" />
    <glyph glyph-name="Abreve" unicode="&#x102;" 
d="M261 943q0 -17 12 -28l16 -16q11 -12 29 -12h5q18 0 28 12l16 16q12 11 12 28v11q0 13 9.5 22.5t23.5 9.5t23 -9.5t9 -22.5v-43q0 -12 -8 -20l-60 -62q-10 -7 -21 -7h-70q-13 0 -21 7l-60 62q-8 8 -8 20v43q0 13 9 22.5t23 9.5t23.5 -9.5t9.5 -22.5v-11zM541 41
q0 -17 -12 -29t-29 -12t-29 12t-12 29v194q0 22 -15 36.5t-36 14.5h-177q-21 0 -35.5 -14.5t-14.5 -36.5v-194q0 -17 -12 -29t-29 -12t-29 12t-12 29v512q0 16 12 29l106 106q11 12 29 12h148q15 0 29 -11l106 -108q12 -10 12 -28v-512zM459 518q0 8 -4 16t-9 13l-58 59
q-12 12 -29 12h-79q-17 0 -28 -12l-59 -59q-12 -10 -12 -29v-99q0 -21 14.5 -36t35.5 -15h177q21 0 36 15t15 36v99z" />
    <glyph glyph-name="abreve" unicode="&#x103;" 
d="M261 943q0 -17 12 -28l16 -16q11 -12 29 -12h5q18 0 28 12l16 16q12 11 12 28v11q0 13 9.5 22.5t23.5 9.5t23 -9.5t9 -22.5v-43q0 -12 -8 -20l-60 -62q-10 -7 -21 -7h-70q-13 0 -21 7l-60 62q-8 8 -8 20v43q0 13 9 22.5t23 9.5t23.5 -9.5t9.5 -22.5v-11zM541 41
q0 -17 -12 -29t-29 -12t-29 12t-12 29v194q0 22 -15 36.5t-36 14.5h-177q-21 0 -35.5 -14.5t-14.5 -36.5v-194q0 -17 -12 -29t-29 -12t-29 12t-12 29v512q0 16 12 29l106 106q11 12 29 12h148q15 0 29 -11l106 -108q12 -10 12 -28v-512zM459 518q0 8 -4 16t-9 13l-58 59
q-12 12 -29 12h-79q-17 0 -28 -12l-59 -59q-12 -10 -12 -29v-99q0 -21 14.5 -36t35.5 -15h177q21 0 36 15t15 36v99z" />
    <glyph glyph-name="Aogonek" unicode="&#x104;" 
d="M541 -49q0 -13 -9 -23l-58 -58q-5 -5 -9 -13t-4 -16t4 -16.5t9 -13.5l9 -9q5 -5 13.5 -9t16.5 -4t16 4t13 9l6 6q7 7 20 7q12 0 20.5 -8t8.5 -19q0 -9 -8 -20l-29 -28q-6 -7 -16 -7h-62q-10 0 -16 7l-55 53q-2 4 -4 8.5t-2 8.5v62q0 8 7 18l60 58q5 5 9 14t4 17v24
q-11 5 -18.5 14.5t-7.5 23.5v194q0 22 -15 36.5t-36 14.5h-177q-21 0 -35.5 -14.5t-14.5 -36.5v-194q0 -17 -12 -29t-29 -12t-29 12t-12 29v512q0 16 12 29l106 106q11 12 29 12h148q15 0 29 -11l106 -108q12 -10 12 -28v-602zM459 518q0 8 -4 16t-9 13l-58 59
q-12 12 -29 12h-79q-17 0 -28 -12l-59 -59q-12 -10 -12 -29v-99q0 -21 14.5 -36t35.5 -15h177q21 0 36 15t15 36v99z" />
    <glyph glyph-name="aogonek" unicode="&#x105;" 
d="M541 -49q0 -13 -9 -23l-58 -58q-5 -5 -9 -13t-4 -16t4 -16.5t9 -13.5l9 -9q5 -5 13.5 -9t16.5 -4t16 4t13 9l6 6q7 7 20 7q12 0 20.5 -8t8.5 -19q0 -9 -8 -20l-29 -28q-6 -7 -16 -7h-62q-10 0 -16 7l-55 53q-2 4 -4 8.5t-2 8.5v62q0 8 7 18l60 58q5 5 9 14t4 17v24
q-11 5 -18.5 14.5t-7.5 23.5v194q0 22 -15 36.5t-36 14.5h-177q-21 0 -35.5 -14.5t-14.5 -36.5v-194q0 -17 -12 -29t-29 -12t-29 12t-12 29v512q0 16 12 29l106 106q11 12 29 12h148q15 0 29 -11l106 -108q12 -10 12 -28v-602zM459 518q0 8 -4 16t-9 13l-58 59
q-12 12 -29 12h-79q-17 0 -28 -12l-59 -59q-12 -10 -12 -29v-99q0 -21 14.5 -36t35.5 -15h177q21 0 36 15t15 36v99z" />
    <glyph glyph-name="Cacute" unicode="&#x106;" 
d="M308 833q-13 -11 -29 -11q-17 0 -29.5 11.5t-12.5 28.5t13 30l82 83q13 11 29 11q17 0 29.5 -12t12.5 -29t-12 -28zM181 182q0 -18 12 -29l59 -59q11 -12 28 -12h78q17 0 29 12l58 59q5 5 9 13t4 16v30q0 17 12 29.5t29 12.5t29 -12.5t12 -29.5v-65q0 -17 -12 -28
l-106 -108q-14 -11 -29 -11h-147q-17 0 -31 12l-104 106q-12 12 -12 29v406q0 17 12 29l104 106q14 12 31 12h147q15 0 29 -11l106 -108q12 -10 12 -28v-65q0 -17 -12 -29.5t-29 -12.5t-29 12.5t-12 29.5v30q0 8 -4 16t-9 13l-58 59q-12 12 -29 12h-78q-17 0 -28 -12
l-59 -59q-12 -10 -12 -29v-336z" />
    <glyph glyph-name="cacute" unicode="&#x107;" 
d="M308 833q-13 -11 -29 -11q-17 0 -29.5 11.5t-12.5 28.5t13 30l82 83q13 11 29 11q17 0 29.5 -12t12.5 -29t-12 -28zM181 182q0 -18 12 -29l59 -59q11 -12 28 -12h78q17 0 29 12l58 59q5 5 9 13t4 16v30q0 17 12 29.5t29 12.5t29 -12.5t12 -29.5v-65q0 -17 -12 -28
l-106 -108q-14 -11 -29 -11h-147q-17 0 -31 12l-104 106q-12 12 -12 29v406q0 17 12 29l104 106q14 12 31 12h147q15 0 29 -11l106 -108q12 -10 12 -28v-65q0 -17 -12 -29.5t-29 -12.5t-29 12.5t-12 29.5v30q0 8 -4 16t-9 13l-58 59q-12 12 -29 12h-78q-17 0 -28 -12
l-59 -59q-12 -10 -12 -29v-336z" />
    <glyph glyph-name="Ccircumflex" unicode="&#x108;" 
d="M251 831q-9 -9 -25 -9q-14 0 -24.5 10t-10.5 24t10 27l95 93q9 10 25 10q15 0 25 -10l94 -93q9 -12 9 -27t-9.5 -24.5t-24.5 -9.5t-26 9l-37 36q-12 14 -31 14q-20 0 -32 -14zM181 182q0 -18 12 -29l59 -59q11 -12 28 -12h78q17 0 29 12l58 59q5 5 9 13t4 16v30
q0 17 12 29.5t29 12.5t29 -12.5t12 -29.5v-65q0 -17 -12 -28l-106 -108q-14 -11 -29 -11h-147q-17 0 -31 12l-104 106q-12 12 -12 29v406q0 17 12 29l104 106q14 12 31 12h147q15 0 29 -11l106 -108q12 -10 12 -28v-65q0 -17 -12 -29.5t-29 -12.5t-29 12.5t-12 29.5v30
q0 8 -4 16t-9 13l-58 59q-12 12 -29 12h-78q-17 0 -28 -12l-59 -59q-12 -10 -12 -29v-336z" />
    <glyph glyph-name="ccircumflex" unicode="&#x109;" 
d="M251 831q-9 -9 -25 -9q-14 0 -24.5 10t-10.5 24t10 27l95 93q9 10 25 10q15 0 25 -10l94 -93q9 -12 9 -27t-9.5 -24.5t-24.5 -9.5t-26 9l-37 36q-12 14 -31 14q-20 0 -32 -14zM181 182q0 -18 12 -29l59 -59q11 -12 28 -12h78q17 0 29 12l58 59q5 5 9 13t4 16v30
q0 17 12 29.5t29 12.5t29 -12.5t12 -29.5v-65q0 -17 -12 -28l-106 -108q-14 -11 -29 -11h-147q-17 0 -31 12l-104 106q-12 12 -12 29v406q0 17 12 29l104 106q14 12 31 12h147q15 0 29 -11l106 -108q12 -10 12 -28v-65q0 -17 -12 -29.5t-29 -12.5t-29 12.5t-12 29.5v30
q0 8 -4 16t-9 13l-58 59q-12 12 -29 12h-78q-17 0 -28 -12l-59 -59q-12 -10 -12 -29v-336z" />
    <glyph glyph-name="Cdotaccent" unicode="&#x10a;" 
d="M305 837q-17 0 -28.5 11.5t-11.5 28.5v31q0 17 11.5 28.5t28.5 11.5h31q17 0 28.5 -11.5t11.5 -28.5v-31q0 -17 -11.5 -28.5t-28.5 -11.5h-31zM181 182q0 -18 12 -29l59 -59q11 -12 28 -12h78q17 0 29 12l58 59q5 5 9 13t4 16v30q0 17 12 29.5t29 12.5t29 -12.5t12 -29.5
v-65q0 -17 -12 -28l-106 -108q-14 -11 -29 -11h-147q-17 0 -31 12l-104 106q-12 12 -12 29v406q0 17 12 29l104 106q14 12 31 12h147q15 0 29 -11l106 -108q12 -10 12 -28v-65q0 -17 -12 -29.5t-29 -12.5t-29 12.5t-12 29.5v30q0 8 -4 16t-9 13l-58 59q-12 12 -29 12h-78
q-17 0 -28 -12l-59 -59q-12 -10 -12 -29v-336z" />
    <glyph glyph-name="cdotaccent" unicode="&#x10b;" 
d="M305 837q-17 0 -28.5 11.5t-11.5 28.5v31q0 17 11.5 28.5t28.5 11.5h31q17 0 28.5 -11.5t11.5 -28.5v-31q0 -17 -11.5 -28.5t-28.5 -11.5h-31zM181 182q0 -18 12 -29l59 -59q11 -12 28 -12h78q17 0 29 12l58 59q5 5 9 13t4 16v30q0 17 12 29.5t29 12.5t29 -12.5t12 -29.5
v-65q0 -17 -12 -28l-106 -108q-14 -11 -29 -11h-147q-17 0 -31 12l-104 106q-12 12 -12 29v406q0 17 12 29l104 106q14 12 31 12h147q15 0 29 -11l106 -108q12 -10 12 -28v-65q0 -17 -12 -29.5t-29 -12.5t-29 12.5t-12 29.5v30q0 8 -4 16t-9 13l-58 59q-12 12 -29 12h-78
q-17 0 -28 -12l-59 -59q-12 -10 -12 -29v-336z" />
    <glyph glyph-name="Ccaron" unicode="&#x10c;" 
d="M288 939q12 -14 33 -14q19 0 31 14l37 37q10 10 25 10q14 0 24.5 -10.5t10.5 -25.5q0 -14 -10 -25l-93 -94q-10 -9 -25 -9q-16 0 -27 9l-93 94q-10 10 -10 25q0 14 10.5 25t24.5 11q16 0 26 -10zM181 182q0 -18 12 -29l59 -59q11 -12 28 -12h78q17 0 29 12l58 59
q5 5 9 13t4 16v30q0 17 12 29.5t29 12.5t29 -12.5t12 -29.5v-65q0 -17 -12 -28l-106 -108q-14 -11 -29 -11h-147q-17 0 -31 12l-104 106q-12 12 -12 29v406q0 17 12 29l104 106q14 12 31 12h147q15 0 29 -11l106 -108q12 -10 12 -28v-65q0 -17 -12 -29.5t-29 -12.5t-29 12.5
t-12 29.5v30q0 8 -4 16t-9 13l-58 59q-12 12 -29 12h-78q-17 0 -28 -12l-59 -59q-12 -10 -12 -29v-336z" />
    <glyph glyph-name="ccaron" unicode="&#x10d;" 
d="M288 939q12 -14 33 -14q19 0 31 14l37 37q10 10 25 10q14 0 24.5 -10.5t10.5 -25.5q0 -14 -10 -25l-93 -94q-10 -9 -25 -9q-16 0 -27 9l-93 94q-10 10 -10 25q0 14 10.5 25t24.5 11q16 0 26 -10zM181 182q0 -18 12 -29l59 -59q11 -12 28 -12h78q17 0 29 12l58 59
q5 5 9 13t4 16v30q0 17 12 29.5t29 12.5t29 -12.5t12 -29.5v-65q0 -17 -12 -28l-106 -108q-14 -11 -29 -11h-147q-17 0 -31 12l-104 106q-12 12 -12 29v406q0 17 12 29l104 106q14 12 31 12h147q15 0 29 -11l106 -108q12 -10 12 -28v-65q0 -17 -12 -29.5t-29 -12.5t-29 12.5
t-12 29.5v30q0 8 -4 16t-9 13l-58 59q-12 12 -29 12h-78q-17 0 -28 -12l-59 -59q-12 -10 -12 -29v-336z" />
    <glyph glyph-name="Dcaron" unicode="&#x10e;" 
d="M288 939q12 -14 33 -14q19 0 31 14l37 37q10 10 25 10q14 0 24.5 -10.5t10.5 -25.5q0 -14 -10 -25l-93 -94q-10 -9 -25 -9q-16 0 -27 9l-93 94q-10 10 -10 25q0 14 10.5 25t24.5 11q16 0 26 -10zM529 581q12 -10 12 -28v-406q0 -17 -12 -28l-106 -108q-14 -11 -29 -11
h-254q-17 0 -29 12t-12 29v618q0 17 12 29t29 12h254q15 0 29 -11zM446 153q5 5 9 13t4 16v336q0 8 -4 16t-9 13l-58 59q-12 12 -29 12h-128q-21 0 -35.5 -15t-14.5 -36v-434q0 -21 14.5 -36t35.5 -15h128q17 0 29 12z" />
    <glyph glyph-name="dcaron" unicode="&#x10f;" 
d="M288 939q12 -14 33 -14q19 0 31 14l37 37q10 10 25 10q14 0 24.5 -10.5t10.5 -25.5q0 -14 -10 -25l-93 -94q-10 -9 -25 -9q-16 0 -27 9l-93 94q-10 10 -10 25q0 14 10.5 25t24.5 11q16 0 26 -10zM529 581q12 -10 12 -28v-406q0 -17 -12 -28l-106 -108q-14 -11 -29 -11
h-254q-17 0 -29 12t-12 29v618q0 17 12 29t29 12h254q15 0 29 -11zM446 153q5 5 9 13t4 16v336q0 8 -4 16t-9 13l-58 59q-12 12 -29 12h-128q-21 0 -35.5 -15t-14.5 -36v-434q0 -21 14.5 -36t35.5 -15h128q17 0 29 12z" />
    <glyph glyph-name="Dcroat" unicode="&#x110;" 
d="M99 659q0 17 12 29t29 12h254q15 0 29 -11l106 -108q12 -10 12 -28v-406q0 -17 -12 -28l-106 -108q-14 -11 -29 -11h-254q-17 0 -29 12t-12 29v249q0 20 -20 20h-10q-17 0 -29 12t-12 29t12 29t29 12h10q20 0 20 20v247zM181 133q0 -21 14.5 -36t35.5 -15h128q17 0 29 12
l58 59q5 5 9 13t4 16v336q0 8 -4 16t-9 13l-58 59q-12 12 -29 12h-128q-21 0 -35.5 -15t-14.5 -36v-155q0 -20 20 -20h142q17 0 28.5 -12t11.5 -29t-11.5 -29t-28.5 -12h-142q-20 0 -20 -20v-157z" />
    <glyph glyph-name="dcroat" unicode="&#x111;" 
d="M99 659q0 17 12 29t29 12h254q15 0 29 -11l106 -108q12 -10 12 -28v-406q0 -17 -12 -28l-106 -108q-14 -11 -29 -11h-254q-17 0 -29 12t-12 29v249q0 20 -20 20h-10q-17 0 -29 12t-12 29t12 29t29 12h10q20 0 20 20v247zM181 133q0 -21 14.5 -36t35.5 -15h128q17 0 29 12
l58 59q5 5 9 13t4 16v336q0 8 -4 16t-9 13l-58 59q-12 12 -29 12h-128q-21 0 -35.5 -15t-14.5 -36v-155q0 -20 20 -20h142q17 0 28.5 -12t11.5 -29t-11.5 -29t-28.5 -12h-142q-20 0 -20 -20v-157z" />
    <glyph glyph-name="Emacron" unicode="&#x112;" 
d="M224 832q-17 0 -28.5 11.5t-11.5 28.5t11.5 29.5t28.5 12.5h192q17 0 28.5 -12.5t11.5 -29.5t-11.5 -28.5t-28.5 -11.5h-192zM99 659q0 17 12 29t29 12h359q17 0 29 -12t12 -29t-12 -29t-29 -12h-268q-21 0 -35.5 -15t-14.5 -36v-125q0 -21 14.5 -36t35.5 -15h199
q17 0 29.5 -12t12.5 -29t-12.5 -29t-29.5 -12h-199q-21 0 -35.5 -15t-14.5 -36v-125q0 -21 14.5 -36t35.5 -15h268q17 0 29 -12t12 -29t-12 -29t-29 -12h-359q-17 0 -29 12t-12 29v618z" />
    <glyph glyph-name="emacron" unicode="&#x113;" 
d="M224 832q-17 0 -28.5 11.5t-11.5 28.5t11.5 29.5t28.5 12.5h192q17 0 28.5 -12.5t11.5 -29.5t-11.5 -28.5t-28.5 -11.5h-192zM99 659q0 17 12 29t29 12h359q17 0 29 -12t12 -29t-12 -29t-29 -12h-268q-21 0 -35.5 -15t-14.5 -36v-125q0 -21 14.5 -36t35.5 -15h199
q17 0 29.5 -12t12.5 -29t-12.5 -29t-29.5 -12h-199q-21 0 -35.5 -15t-14.5 -36v-125q0 -21 14.5 -36t35.5 -15h268q17 0 29 -12t12 -29t-12 -29t-29 -12h-359q-17 0 -29 12t-12 29v618z" />
    <glyph glyph-name="Ebreve" unicode="&#x114;" 
d="M261 943q0 -17 12 -28l16 -16q11 -12 29 -12h5q18 0 28 12l16 16q12 11 12 28v11q0 13 9.5 22.5t23.5 9.5t23 -9.5t9 -22.5v-43q0 -12 -8 -20l-60 -62q-10 -7 -21 -7h-70q-13 0 -21 7l-60 62q-8 8 -8 20v43q0 13 9 22.5t23 9.5t23.5 -9.5t9.5 -22.5v-11zM99 659
q0 17 12 29t29 12h359q17 0 29 -12t12 -29t-12 -29t-29 -12h-268q-21 0 -35.5 -15t-14.5 -36v-125q0 -21 14.5 -36t35.5 -15h199q17 0 29.5 -12t12.5 -29t-12.5 -29t-29.5 -12h-199q-21 0 -35.5 -15t-14.5 -36v-125q0 -21 14.5 -36t35.5 -15h268q17 0 29 -12t12 -29t-12 -29
t-29 -12h-359q-17 0 -29 12t-12 29v618z" />
    <glyph glyph-name="ebreve" unicode="&#x115;" 
d="M261 943q0 -17 12 -28l16 -16q11 -12 29 -12h5q18 0 28 12l16 16q12 11 12 28v11q0 13 9.5 22.5t23.5 9.5t23 -9.5t9 -22.5v-43q0 -12 -8 -20l-60 -62q-10 -7 -21 -7h-70q-13 0 -21 7l-60 62q-8 8 -8 20v43q0 13 9 22.5t23 9.5t23.5 -9.5t9.5 -22.5v-11zM99 659
q0 17 12 29t29 12h359q17 0 29 -12t12 -29t-12 -29t-29 -12h-268q-21 0 -35.5 -15t-14.5 -36v-125q0 -21 14.5 -36t35.5 -15h199q17 0 29.5 -12t12.5 -29t-12.5 -29t-29.5 -12h-199q-21 0 -35.5 -15t-14.5 -36v-125q0 -21 14.5 -36t35.5 -15h268q17 0 29 -12t12 -29t-12 -29
t-29 -12h-359q-17 0 -29 12t-12 29v618z" />
    <glyph glyph-name="Edotaccent" unicode="&#x116;" 
d="M305 837q-17 0 -28.5 11.5t-11.5 28.5v31q0 17 11.5 28.5t28.5 11.5h31q17 0 28.5 -11.5t11.5 -28.5v-31q0 -17 -11.5 -28.5t-28.5 -11.5h-31zM99 659q0 17 12 29t29 12h359q17 0 29 -12t12 -29t-12 -29t-29 -12h-268q-21 0 -35.5 -15t-14.5 -36v-125q0 -21 14.5 -36
t35.5 -15h199q17 0 29.5 -12t12.5 -29t-12.5 -29t-29.5 -12h-199q-21 0 -35.5 -15t-14.5 -36v-125q0 -21 14.5 -36t35.5 -15h268q17 0 29 -12t12 -29t-12 -29t-29 -12h-359q-17 0 -29 12t-12 29v618z" />
    <glyph glyph-name="edotaccent" unicode="&#x117;" 
d="M305 837q-17 0 -28.5 11.5t-11.5 28.5v31q0 17 11.5 28.5t28.5 11.5h31q17 0 28.5 -11.5t11.5 -28.5v-31q0 -17 -11.5 -28.5t-28.5 -11.5h-31zM99 659q0 17 12 29t29 12h359q17 0 29 -12t12 -29t-12 -29t-29 -12h-268q-21 0 -35.5 -15t-14.5 -36v-125q0 -21 14.5 -36
t35.5 -15h199q17 0 29.5 -12t12.5 -29t-12.5 -29t-29.5 -12h-199q-21 0 -35.5 -15t-14.5 -36v-125q0 -21 14.5 -36t35.5 -15h268q17 0 29 -12t12 -29t-12 -29t-29 -12h-359q-17 0 -29 12t-12 29v618z" />
    <glyph glyph-name="Eogonek" unicode="&#x118;" 
d="M99 659q0 17 12 29t29 12h359q17 0 29 -12t12 -29t-12 -29t-29 -12h-268q-21 0 -35.5 -15t-14.5 -36v-125q0 -21 14.5 -36t35.5 -15h199q17 0 29.5 -12t12.5 -29t-12.5 -29t-29.5 -12h-199q-21 0 -35.5 -15t-14.5 -36v-125q0 -21 14.5 -36t35.5 -15h268q19 0 30 -13.5
t11 -30.5v-87q0 -13 -9 -23l-58 -58q-5 -5 -9 -13t-4 -16t4 -16.5t9 -13.5l9 -9q5 -5 13.5 -9t16.5 -4t16 4t13 9l6 6q7 7 20 7q12 0 20.5 -8t8.5 -19q0 -9 -8 -20l-29 -28q-6 -7 -16 -7h-62q-10 0 -16 7l-55 53q-2 4 -4 8.5t-2 8.5v62q0 8 7 18l60 58q5 5 9 14t4 17v21
h-344q-17 0 -29 12t-12 29v618z" />
    <glyph glyph-name="eogonek" unicode="&#x119;" 
d="M99 659q0 17 12 29t29 12h359q17 0 29 -12t12 -29t-12 -29t-29 -12h-268q-21 0 -35.5 -15t-14.5 -36v-125q0 -21 14.5 -36t35.5 -15h199q17 0 29.5 -12t12.5 -29t-12.5 -29t-29.5 -12h-199q-21 0 -35.5 -15t-14.5 -36v-125q0 -21 14.5 -36t35.5 -15h268q19 0 30 -13.5
t11 -30.5v-87q0 -13 -9 -23l-58 -58q-5 -5 -9 -13t-4 -16t4 -16.5t9 -13.5l9 -9q5 -5 13.5 -9t16.5 -4t16 4t13 9l6 6q7 7 20 7q12 0 20.5 -8t8.5 -19q0 -9 -8 -20l-29 -28q-6 -7 -16 -7h-62q-10 0 -16 7l-55 53q-2 4 -4 8.5t-2 8.5v62q0 8 7 18l60 58q5 5 9 14t4 17v21
h-344q-17 0 -29 12t-12 29v618z" />
    <glyph glyph-name="Ecaron" unicode="&#x11a;" 
d="M288 939q12 -14 33 -14q19 0 31 14l37 37q10 10 25 10q14 0 24.5 -10.5t10.5 -25.5q0 -14 -10 -25l-93 -94q-10 -9 -25 -9q-16 0 -27 9l-93 94q-10 10 -10 25q0 14 10.5 25t24.5 11q16 0 26 -10zM99 659q0 17 12 29t29 12h359q17 0 29 -12t12 -29t-12 -29t-29 -12h-268
q-21 0 -35.5 -15t-14.5 -36v-125q0 -21 14.5 -36t35.5 -15h199q17 0 29.5 -12t12.5 -29t-12.5 -29t-29.5 -12h-199q-21 0 -35.5 -15t-14.5 -36v-125q0 -21 14.5 -36t35.5 -15h268q17 0 29 -12t12 -29t-12 -29t-29 -12h-359q-17 0 -29 12t-12 29v618z" />
    <glyph glyph-name="ecaron" unicode="&#x11b;" 
d="M288 939q12 -14 33 -14q19 0 31 14l37 37q10 10 25 10q14 0 24.5 -10.5t10.5 -25.5q0 -14 -10 -25l-93 -94q-10 -9 -25 -9q-16 0 -27 9l-93 94q-10 10 -10 25q0 14 10.5 25t24.5 11q16 0 26 -10zM99 659q0 17 12 29t29 12h359q17 0 29 -12t12 -29t-12 -29t-29 -12h-268
q-21 0 -35.5 -15t-14.5 -36v-125q0 -21 14.5 -36t35.5 -15h199q17 0 29.5 -12t12.5 -29t-12.5 -29t-29.5 -12h-199q-21 0 -35.5 -15t-14.5 -36v-125q0 -21 14.5 -36t35.5 -15h268q17 0 29 -12t12 -29t-12 -29t-29 -12h-359q-17 0 -29 12t-12 29v618z" />
    <glyph glyph-name="Gcircumflex" unicode="&#x11c;" 
d="M251 831q-9 -9 -25 -9q-14 0 -24.5 10t-10.5 24t10 27l95 93q9 10 25 10q15 0 25 -10l94 -93q9 -12 9 -27t-9.5 -24.5t-24.5 -9.5t-26 9l-37 36q-12 14 -31 14q-20 0 -32 -14zM459 540q0 8 -4 15.5t-9 12.5l-37 38q-10 12 -29 12h-120q-18 0 -30 -12l-37 -38
q-12 -10 -12 -28v-380q0 -17 12 -28l37 -38q12 -12 30 -12h120q19 0 29 12l37 38q5 5 9 12.5t4 15.5v99q0 21 -15 35.5t-36 14.5h-61q-17 0 -29.5 12t-12.5 29t12.5 29t29.5 12h153q17 0 29 -12t12 -29v-223q0 -17 -11 -31l-87 -84q-10 -12 -29 -12h-190q-17 0 -28 12
l-85 84q-12 15 -12 31v447q0 15 12 30l85 84q11 12 28 12h190q19 0 29 -12l87 -84q11 -14 11 -30v-46q0 -17 -12 -29t-29 -12t-29 12t-12 29v12z" />
    <glyph glyph-name="gcircumflex" unicode="&#x11d;" 
d="M251 831q-9 -9 -25 -9q-14 0 -24.5 10t-10.5 24t10 27l95 93q9 10 25 10q15 0 25 -10l94 -93q9 -12 9 -27t-9.5 -24.5t-24.5 -9.5t-26 9l-37 36q-12 14 -31 14q-20 0 -32 -14zM459 540q0 8 -4 15.5t-9 12.5l-37 38q-10 12 -29 12h-120q-18 0 -30 -12l-37 -38
q-12 -10 -12 -28v-380q0 -17 12 -28l37 -38q12 -12 30 -12h120q19 0 29 12l37 38q5 5 9 12.5t4 15.5v99q0 21 -15 35.5t-36 14.5h-61q-17 0 -29.5 12t-12.5 29t12.5 29t29.5 12h153q17 0 29 -12t12 -29v-223q0 -17 -11 -31l-87 -84q-10 -12 -29 -12h-190q-17 0 -28 12
l-85 84q-12 15 -12 31v447q0 15 12 30l85 84q11 12 28 12h190q19 0 29 -12l87 -84q11 -14 11 -30v-46q0 -17 -12 -29t-29 -12t-29 12t-12 29v12z" />
    <glyph glyph-name="Gbreve" unicode="&#x11e;" 
d="M261 943q0 -17 12 -28l16 -16q11 -12 29 -12h5q18 0 28 12l16 16q12 11 12 28v11q0 13 9.5 22.5t23.5 9.5t23 -9.5t9 -22.5v-43q0 -12 -8 -20l-60 -62q-10 -7 -21 -7h-70q-13 0 -21 7l-60 62q-8 8 -8 20v43q0 13 9 22.5t23 9.5t23.5 -9.5t9.5 -22.5v-11zM459 540
q0 8 -4 15.5t-9 12.5l-37 38q-10 12 -29 12h-120q-18 0 -30 -12l-37 -38q-12 -10 -12 -28v-380q0 -17 12 -28l37 -38q12 -12 30 -12h120q19 0 29 12l37 38q5 5 9 12.5t4 15.5v99q0 21 -15 35.5t-36 14.5h-61q-17 0 -29.5 12t-12.5 29t12.5 29t29.5 12h153q17 0 29 -12
t12 -29v-223q0 -17 -11 -31l-87 -84q-10 -12 -29 -12h-190q-17 0 -28 12l-85 84q-12 15 -12 31v447q0 15 12 30l85 84q11 12 28 12h190q19 0 29 -12l87 -84q11 -14 11 -30v-46q0 -17 -12 -29t-29 -12t-29 12t-12 29v12z" />
    <glyph glyph-name="gbreve" unicode="&#x11f;" 
d="M261 943q0 -17 12 -28l16 -16q11 -12 29 -12h5q18 0 28 12l16 16q12 11 12 28v11q0 13 9.5 22.5t23.5 9.5t23 -9.5t9 -22.5v-43q0 -12 -8 -20l-60 -62q-10 -7 -21 -7h-70q-13 0 -21 7l-60 62q-8 8 -8 20v43q0 13 9 22.5t23 9.5t23.5 -9.5t9.5 -22.5v-11zM459 540
q0 8 -4 15.5t-9 12.5l-37 38q-10 12 -29 12h-120q-18 0 -30 -12l-37 -38q-12 -10 -12 -28v-380q0 -17 12 -28l37 -38q12 -12 30 -12h120q19 0 29 12l37 38q5 5 9 12.5t4 15.5v99q0 21 -15 35.5t-36 14.5h-61q-17 0 -29.5 12t-12.5 29t12.5 29t29.5 12h153q17 0 29 -12
t12 -29v-223q0 -17 -11 -31l-87 -84q-10 -12 -29 -12h-190q-17 0 -28 12l-85 84q-12 15 -12 31v447q0 15 12 30l85 84q11 12 28 12h190q19 0 29 -12l87 -84q11 -14 11 -30v-46q0 -17 -12 -29t-29 -12t-29 12t-12 29v12z" />
    <glyph glyph-name="Gdotaccent" unicode="&#x120;" 
d="M305 837q-17 0 -28.5 11.5t-11.5 28.5v31q0 17 11.5 28.5t28.5 11.5h31q17 0 28.5 -11.5t11.5 -28.5v-31q0 -17 -11.5 -28.5t-28.5 -11.5h-31zM459 540q0 8 -4 15.5t-9 12.5l-37 38q-10 12 -29 12h-120q-18 0 -30 -12l-37 -38q-12 -10 -12 -28v-380q0 -17 12 -28l37 -38
q12 -12 30 -12h120q19 0 29 12l37 38q5 5 9 12.5t4 15.5v99q0 21 -15 35.5t-36 14.5h-61q-17 0 -29.5 12t-12.5 29t12.5 29t29.5 12h153q17 0 29 -12t12 -29v-223q0 -17 -11 -31l-87 -84q-10 -12 -29 -12h-190q-17 0 -28 12l-85 84q-12 15 -12 31v447q0 15 12 30l85 84
q11 12 28 12h190q19 0 29 -12l87 -84q11 -14 11 -30v-46q0 -17 -12 -29t-29 -12t-29 12t-12 29v12z" />
    <glyph glyph-name="gdotaccent" unicode="&#x121;" 
d="M305 837q-17 0 -28.5 11.5t-11.5 28.5v31q0 17 11.5 28.5t28.5 11.5h31q17 0 28.5 -11.5t11.5 -28.5v-31q0 -17 -11.5 -28.5t-28.5 -11.5h-31zM459 540q0 8 -4 15.5t-9 12.5l-37 38q-10 12 -29 12h-120q-18 0 -30 -12l-37 -38q-12 -10 -12 -28v-380q0 -17 12 -28l37 -38
q12 -12 30 -12h120q19 0 29 12l37 38q5 5 9 12.5t4 15.5v99q0 21 -15 35.5t-36 14.5h-61q-17 0 -29.5 12t-12.5 29t12.5 29t29.5 12h153q17 0 29 -12t12 -29v-223q0 -17 -11 -31l-87 -84q-10 -12 -29 -12h-190q-17 0 -28 12l-85 84q-12 15 -12 31v447q0 15 12 30l85 84
q11 12 28 12h190q19 0 29 -12l87 -84q11 -14 11 -30v-46q0 -17 -12 -29t-29 -12t-29 12t-12 29v12z" />
    <glyph glyph-name="uni0122" unicode="&#x122;" 
d="M459 540q0 8 -4 15.5t-9 12.5l-37 38q-10 12 -29 12h-120q-18 0 -30 -12l-37 -38q-12 -10 -12 -28v-380q0 -17 12 -28l37 -38q12 -12 30 -12h120q19 0 29 12l37 38q5 5 9 12.5t4 15.5v99q0 21 -15 35.5t-36 14.5h-61q-17 0 -29.5 12t-12.5 29t12.5 29t29.5 12h153
q17 0 29 -12t12 -29v-223q0 -17 -11 -31l-87 -84q-10 -12 -29 -12h-190q-17 0 -28 12l-85 84q-12 15 -12 31v447q0 15 12 30l85 84q11 12 28 12h190q19 0 29 -12l87 -84q11 -14 11 -30v-46q0 -17 -12 -29t-29 -12t-29 12t-12 29v12zM308 -256q-13 -11 -29 -11q-17 0 -28 11
q-14 14 -14 30t13 29l82 83q6 6 14 9t15 3q19 0 29 -12q13 -13 13 -29q0 -18 -12 -28z" />
    <glyph glyph-name="uni0123" unicode="&#x123;" 
d="M459 540q0 8 -4 15.5t-9 12.5l-37 38q-10 12 -29 12h-120q-18 0 -30 -12l-37 -38q-12 -10 -12 -28v-380q0 -17 12 -28l37 -38q12 -12 30 -12h120q19 0 29 12l37 38q5 5 9 12.5t4 15.5v99q0 21 -15 35.5t-36 14.5h-61q-17 0 -29.5 12t-12.5 29t12.5 29t29.5 12h153
q17 0 29 -12t12 -29v-223q0 -17 -11 -31l-87 -84q-10 -12 -29 -12h-190q-17 0 -28 12l-85 84q-12 15 -12 31v447q0 15 12 30l85 84q11 12 28 12h190q19 0 29 -12l87 -84q11 -14 11 -30v-46q0 -17 -12 -29t-29 -12t-29 12t-12 29v12zM308 -257q-13 -11 -29 -11q-18 0 -29 11
q-13 13 -13 30q0 15 12 29l83 84q13 11 29 11q19 0 29 -11q13 -13 13 -30q0 -18 -12 -28z" />
    <glyph glyph-name="Hcircumflex" unicode="&#x124;" 
d="M251 831q-9 -9 -25 -9q-14 0 -24.5 10t-10.5 24t10 27l95 93q9 10 25 10q15 0 25 -10l94 -93q9 -12 9 -27t-9.5 -24.5t-24.5 -9.5t-26 9l-37 36q-12 14 -31 14q-20 0 -32 -14zM541 41q0 -17 -12 -29t-29 -12t-29 12t-12 29v217q0 21 -15 36t-36 15h-177q-21 0 -35.5 -15
t-14.5 -36v-217q0 -17 -12 -29t-29 -12t-29 12t-12 29v618q0 17 12 29t29 12t29 -12t12 -29v-217q0 -21 14.5 -36t35.5 -15h177q21 0 36 15t15 36v217q0 17 12 29t29 12t29 -12t12 -29v-618z" />
    <glyph glyph-name="hcircumflex" unicode="&#x125;" 
d="M251 831q-9 -9 -25 -9q-14 0 -24.5 10t-10.5 24t10 27l95 93q9 10 25 10q15 0 25 -10l94 -93q9 -12 9 -27t-9.5 -24.5t-24.5 -9.5t-26 9l-37 36q-12 14 -31 14q-20 0 -32 -14zM541 41q0 -17 -12 -29t-29 -12t-29 12t-12 29v217q0 21 -15 36t-36 15h-177q-21 0 -35.5 -15
t-14.5 -36v-217q0 -17 -12 -29t-29 -12t-29 12t-12 29v618q0 17 12 29t29 12t29 -12t12 -29v-217q0 -21 14.5 -36t35.5 -15h177q21 0 36 15t15 36v217q0 17 12 29t29 12t29 -12t12 -29v-618z" />
    <glyph glyph-name="Hbar" unicode="&#x126;" 
d="M459 659q0 17 12 29t29 12t29 -12t12 -29v-49q0 -21 20 -21h9q17 0 29 -11.5t12 -28.5q0 -18 -12 -30t-29 -12h-9q-20 0 -20 -20v-446q0 -17 -12 -29t-29 -12t-29 12t-12 29v217q0 21 -15 36t-36 15h-177q-21 0 -35.5 -15t-14.5 -36v-217q0 -17 -12 -29t-29 -12t-29 12
t-12 29v446q0 20 -20 20h-10q-17 0 -29 12t-12 30q0 17 12 28.5t29 11.5h10q20 0 20 21v49q0 17 12 29t29 12t29 -12t12 -29v-49q0 -21 20 -21h237q9 0 15 5.5t6 15.5v49zM181 442q0 -21 14.5 -36t35.5 -15h177q21 0 36 15t15 36v45q0 9 -6 14.5t-15 5.5h-237q-20 0 -20 -20
v-45z" />
    <glyph glyph-name="hbar" unicode="&#x127;" 
d="M459 659q0 17 12 29t29 12t29 -12t12 -29v-49q0 -21 20 -21h9q17 0 29 -11.5t12 -28.5q0 -18 -12 -30t-29 -12h-9q-20 0 -20 -20v-446q0 -17 -12 -29t-29 -12t-29 12t-12 29v217q0 21 -15 36t-36 15h-177q-21 0 -35.5 -15t-14.5 -36v-217q0 -17 -12 -29t-29 -12t-29 12
t-12 29v446q0 20 -20 20h-10q-17 0 -29 12t-12 30q0 17 12 28.5t29 11.5h10q20 0 20 21v49q0 17 12 29t29 12t29 -12t12 -29v-49q0 -21 20 -21h237q9 0 15 5.5t6 15.5v49zM181 442q0 -21 14.5 -36t35.5 -15h177q21 0 36 15t15 36v45q0 9 -6 14.5t-15 5.5h-237q-20 0 -20 -20
v-45z" />
    <glyph glyph-name="Itilde" unicode="&#x128;" 
d="M230 914v-35q0 -14 -9.5 -23.5t-23.5 -9.5q-13 0 -23 9.5t-10 23.5v51q0 12 8 20l41 41q11 8 20 8h51q10 0 21 -8l40 -41q8 -11 8 -20v-24l19 -18h21l18 18v35q0 14 9.5 23.5t23.5 9.5t23.5 -9.5t9.5 -23.5v-50q0 -11 -7 -21l-43 -40q-6 -8 -19 -8h-51q-10 0 -21 8
l-41 40q-7 7 -7 21v23l-19 19h-20zM186 0q-17 0 -29 12t-12 29t12 29t29 12h42q22 0 36.5 15t14.5 36v434q0 21 -14.5 36t-36.5 15h-42q-17 0 -29 12t-12 29t12 29t29 12h268q17 0 29 -12t12 -29t-12 -29t-29 -12h-42q-22 0 -36.5 -15t-14.5 -36v-434q0 -21 14.5 -36
t36.5 -15h42q17 0 29 -12t12 -29t-12 -29t-29 -12h-268z" />
    <glyph glyph-name="itilde" unicode="&#x129;" 
d="M230 914v-35q0 -14 -9.5 -23.5t-23.5 -9.5q-13 0 -23 9.5t-10 23.5v51q0 12 8 20l41 41q11 8 20 8h51q10 0 21 -8l40 -41q8 -11 8 -20v-24l19 -18h21l18 18v35q0 14 9.5 23.5t23.5 9.5t23.5 -9.5t9.5 -23.5v-50q0 -11 -7 -21l-43 -40q-6 -8 -19 -8h-51q-10 0 -21 8
l-41 40q-7 7 -7 21v23l-19 19h-20zM186 0q-17 0 -29 12t-12 29t12 29t29 12h42q22 0 36.5 15t14.5 36v434q0 21 -14.5 36t-36.5 15h-42q-17 0 -29 12t-12 29t12 29t29 12h268q17 0 29 -12t12 -29t-12 -29t-29 -12h-42q-22 0 -36.5 -15t-14.5 -36v-434q0 -21 14.5 -36
t36.5 -15h42q17 0 29 -12t12 -29t-12 -29t-29 -12h-268z" />
    <glyph glyph-name="Imacron" unicode="&#x12a;" 
d="M224 832q-17 0 -28.5 11.5t-11.5 28.5t11.5 29.5t28.5 12.5h192q17 0 28.5 -12.5t11.5 -29.5t-11.5 -28.5t-28.5 -11.5h-192zM186 0q-17 0 -29 12t-12 29t12 29t29 12h42q22 0 36.5 15t14.5 36v434q0 21 -14.5 36t-36.5 15h-42q-17 0 -29 12t-12 29t12 29t29 12h268
q17 0 29 -12t12 -29t-12 -29t-29 -12h-42q-22 0 -36.5 -15t-14.5 -36v-434q0 -21 14.5 -36t36.5 -15h42q17 0 29 -12t12 -29t-12 -29t-29 -12h-268z" />
    <glyph glyph-name="imacron" unicode="&#x12b;" 
d="M224 832q-17 0 -28.5 11.5t-11.5 28.5t11.5 29.5t28.5 12.5h192q17 0 28.5 -12.5t11.5 -29.5t-11.5 -28.5t-28.5 -11.5h-192zM186 0q-17 0 -29 12t-12 29t12 29t29 12h42q22 0 36.5 15t14.5 36v434q0 21 -14.5 36t-36.5 15h-42q-17 0 -29 12t-12 29t12 29t29 12h268
q17 0 29 -12t12 -29t-12 -29t-29 -12h-42q-22 0 -36.5 -15t-14.5 -36v-434q0 -21 14.5 -36t36.5 -15h42q17 0 29 -12t12 -29t-12 -29t-29 -12h-268z" />
    <glyph glyph-name="Ibreve" unicode="&#x12c;" 
d="M260 943q0 -17 12 -28l16 -16q11 -12 29 -12h5q18 0 28 12l16 16q12 11 12 28v11q0 13 9.5 22.5t23.5 9.5t23 -9.5t9 -22.5v-43q0 -12 -8 -20l-60 -62q-10 -7 -21 -7h-70q-13 0 -21 7l-60 62q-8 8 -8 20v43q0 13 9 22.5t23 9.5t23.5 -9.5t9.5 -22.5v-11zM186 0
q-17 0 -29 12t-12 29t12 29t29 12h42q22 0 36.5 15t14.5 36v434q0 21 -14.5 36t-36.5 15h-42q-17 0 -29 12t-12 29t12 29t29 12h268q17 0 29 -12t12 -29t-12 -29t-29 -12h-42q-22 0 -36.5 -15t-14.5 -36v-434q0 -21 14.5 -36t36.5 -15h42q17 0 29 -12t12 -29t-12 -29
t-29 -12h-268z" />
    <glyph glyph-name="ibreve" unicode="&#x12d;" 
d="M260 943q0 -17 12 -28l16 -16q11 -12 29 -12h5q18 0 28 12l16 16q12 11 12 28v11q0 13 9.5 22.5t23.5 9.5t23 -9.5t9 -22.5v-43q0 -12 -8 -20l-60 -62q-10 -7 -21 -7h-70q-13 0 -21 7l-60 62q-8 8 -8 20v43q0 13 9 22.5t23 9.5t23.5 -9.5t9.5 -22.5v-11zM186 0
q-17 0 -29 12t-12 29t12 29t29 12h42q22 0 36.5 15t14.5 36v434q0 21 -14.5 36t-36.5 15h-42q-17 0 -29 12t-12 29t12 29t29 12h268q17 0 29 -12t12 -29t-12 -29t-29 -12h-42q-22 0 -36.5 -15t-14.5 -36v-434q0 -21 14.5 -36t36.5 -15h42q17 0 29 -12t12 -29t-12 -29
t-29 -12h-268z" />
    <glyph glyph-name="Iogonek" unicode="&#x12e;" 
d="M348 0v-50q0 -13 -9 -23l-58 -58q-5 -5 -9 -13t-4 -16t4 -16.5t9 -13.5l9 -9q5 -5 13.5 -9t16.5 -4t16 4t13 9l6 6q7 7 20 7q12 0 20.5 -8t8.5 -19q0 -9 -8 -20l-29 -28q-6 -7 -16 -7h-62q-10 0 -16 7l-55 53q-2 4 -4 8.5t-2 8.5v62q0 8 7 18l60 58q5 5 9 14t4 17v22
h-106q-17 0 -29 12t-12 29t12 29t29 12h42q22 0 36.5 15t14.5 36v434q0 21 -14.5 36t-36.5 15h-42q-17 0 -29 12t-12 29t12 29t29 12h268q17 0 29 -12t12 -29t-12 -29t-29 -12h-42q-22 0 -36.5 -15t-14.5 -36v-434q0 -21 14.5 -36t36.5 -15h42q17 0 29 -12t12 -29t-12 -29
t-29 -12h-106z" />
    <glyph glyph-name="iogonek" unicode="&#x12f;" 
d="M348 0v-50q0 -13 -9 -23l-58 -58q-5 -5 -9 -13t-4 -16t4 -16.5t9 -13.5l9 -9q5 -5 13.5 -9t16.5 -4t16 4t13 9l6 6q7 7 20 7q12 0 20.5 -8t8.5 -19q0 -9 -8 -20l-29 -28q-6 -7 -16 -7h-62q-10 0 -16 7l-55 53q-2 4 -4 8.5t-2 8.5v62q0 8 7 18l60 58q5 5 9 14t4 17v22
h-106q-17 0 -29 12t-12 29t12 29t29 12h42q22 0 36.5 15t14.5 36v434q0 21 -14.5 36t-36.5 15h-42q-17 0 -29 12t-12 29t12 29t29 12h268q17 0 29 -12t12 -29t-12 -29t-29 -12h-42q-22 0 -36.5 -15t-14.5 -36v-434q0 -21 14.5 -36t36.5 -15h42q17 0 29 -12t12 -29t-12 -29
t-29 -12h-106z" />
    <glyph glyph-name="Idotaccent" unicode="&#x130;" 
d="M305 837q-17 0 -28.5 11.5t-11.5 28.5v31q0 17 11.5 28.5t28.5 11.5h31q17 0 28.5 -11.5t11.5 -28.5v-31q0 -17 -11.5 -28.5t-28.5 -11.5h-31zM186 0q-17 0 -29 12t-12 29t12 29t29 12h42q22 0 36.5 15t14.5 36v434q0 21 -14.5 36t-36.5 15h-42q-17 0 -29 12t-12 29
t12 29t29 12h268q17 0 29 -12t12 -29t-12 -29t-29 -12h-42q-22 0 -36.5 -15t-14.5 -36v-434q0 -21 14.5 -36t36.5 -15h42q17 0 29 -12t12 -29t-12 -29t-29 -12h-268z" />
    <glyph glyph-name="dotlessi" unicode="&#x131;" 
d="M186 0q-17 0 -29 12t-12 29t12 29t29 12h42q22 0 36.5 15t14.5 36v434q0 21 -14.5 36t-36.5 15h-42q-17 0 -29 12t-12 29t12 29t29 12h268q17 0 29 -12t12 -29t-12 -29t-29 -12h-42q-22 0 -36.5 -15t-14.5 -36v-434q0 -21 14.5 -36t36.5 -15h42q17 0 29 -12t12 -29
t-12 -29t-29 -12h-268z" />
    <glyph glyph-name="Jcircumflex" unicode="&#x134;" 
d="M331 831q-5 -5 -12 -7t-14 -2q-14 0 -24.5 10t-10.5 24t10 27l96 93q9 10 25 10q15 0 25 -10l94 -93q9 -12 9 -27t-9.5 -24.5t-24.5 -9.5t-26 9l-37 36q-12 14 -31 14q-20 0 -32 -14zM459 567q0 21 -15 36t-36 15h-89q-17 0 -29 12t-12 29t12 29t29 12h181q17 0 29 -12
t12 -29v-532q0 -17 -11 -31l-87 -84q-10 -12 -28 -12h-191q-17 0 -28 12l-85 84q-12 15 -12 31v85q0 17 12 29.5t29 12.5t29 -12.5t12 -29.5v-52q0 -17 12 -28l37 -38q12 -12 29 -12h121q19 0 29 12l37 38q5 5 9 12.5t4 15.5v407z" />
    <glyph glyph-name="jcircumflex" unicode="&#x135;" 
d="M331 831q-5 -5 -12 -7t-14 -2q-14 0 -24.5 10t-10.5 24t10 27l96 93q9 10 25 10q15 0 25 -10l94 -93q9 -12 9 -27t-9.5 -24.5t-24.5 -9.5t-26 9l-37 36q-12 14 -31 14q-20 0 -32 -14zM459 567q0 21 -15 36t-36 15h-89q-17 0 -29 12t-12 29t12 29t29 12h181q17 0 29 -12
t12 -29v-532q0 -17 -11 -31l-87 -84q-10 -12 -28 -12h-191q-17 0 -28 12l-85 84q-12 15 -12 31v85q0 17 12 29.5t29 12.5t29 -12.5t12 -29.5v-52q0 -17 12 -28l37 -38q12 -12 29 -12h121q19 0 29 12l37 38q5 5 9 12.5t4 15.5v407z" />
    <glyph glyph-name="uni0136" unicode="&#x136;" 
d="M231 309q-21 0 -35.5 -15t-14.5 -36v-217q0 -17 -12 -29t-29 -12t-29 12t-12 29v618q0 17 12 29t29 12t29 -12t12 -29v-217q0 -21 14.5 -36t35.5 -15h48q18 0 28 12l139 138q5 5 9 12.5t4 15.5v90q0 17 12 29t29 12t29 -12t12 -29v-124q0 -16 -11 -30l-122 -119
q-6 -8 -10 -17t-4 -19t4 -18.5t10 -16.5l122 -120q11 -14 11 -30v-124q0 -17 -12 -29t-29 -12t-29 12t-12 29v90q0 8 -4 15.5t-9 12.5l-139 138q-10 12 -28 12h-48zM308 -256q-13 -11 -29 -11q-17 0 -28 11q-14 14 -14 30t13 29l82 83q6 6 14 9t15 3q19 0 29 -12
q13 -13 13 -29q0 -18 -12 -28z" />
    <glyph glyph-name="uni0137" unicode="&#x137;" 
d="M231 309q-21 0 -35.5 -15t-14.5 -36v-217q0 -17 -12 -29t-29 -12t-29 12t-12 29v618q0 17 12 29t29 12t29 -12t12 -29v-217q0 -21 14.5 -36t35.5 -15h48q18 0 28 12l139 138q5 5 9 12.5t4 15.5v90q0 17 12 29t29 12t29 -12t12 -29v-124q0 -16 -11 -30l-122 -119
q-6 -8 -10 -17t-4 -19t4 -18.5t10 -16.5l122 -120q11 -14 11 -30v-124q0 -17 -12 -29t-29 -12t-29 12t-12 29v90q0 8 -4 15.5t-9 12.5l-139 138q-10 12 -28 12h-48zM308 -256q-13 -11 -29 -11q-17 0 -28 11q-14 14 -14 30t13 29l82 83q6 6 14 9t15 3q19 0 29 -12
q13 -13 13 -29q0 -18 -12 -28z" />
    <glyph glyph-name="kgreenlandic" unicode="&#x138;" 
d="M231 309q-21 0 -35.5 -15t-14.5 -36v-217q0 -17 -12 -29t-29 -12t-29 12t-12 29v618q0 17 12 29t29 12t29 -12t12 -29v-217q0 -21 14.5 -36t35.5 -15h48q18 0 28 12l139 138q5 5 9 12.5t4 15.5v90q0 17 12 29t29 12t29 -12t12 -29v-124q0 -16 -11 -30l-122 -119
q-6 -8 -10 -17t-4 -19t4 -18.5t10 -16.5l122 -120q11 -14 11 -30v-124q0 -17 -12 -29t-29 -12t-29 12t-12 29v90q0 8 -4 15.5t-9 12.5l-139 138q-10 12 -28 12h-48z" />
    <glyph glyph-name="Lacute" unicode="&#x139;" 
d="M308 833q-13 -11 -29 -11q-17 0 -29.5 11.5t-12.5 28.5t13 30l82 83q13 11 29 11q17 0 29.5 -12t12.5 -29t-12 -28zM181 133q0 -21 14.5 -36t35.5 -15h268q17 0 29 -12t12 -29t-12 -29t-29 -12h-359q-17 0 -29 12t-12 29v618q0 17 12 29t29 12t29 -12t12 -29v-526z" />
    <glyph glyph-name="lacute" unicode="&#x13a;" 
d="M308 833q-13 -11 -29 -11q-17 0 -29.5 11.5t-12.5 28.5t13 30l82 83q13 11 29 11q17 0 29.5 -12t12.5 -29t-12 -28zM181 133q0 -21 14.5 -36t35.5 -15h268q17 0 29 -12t12 -29t-12 -29t-29 -12h-359q-17 0 -29 12t-12 29v618q0 17 12 29t29 12t29 -12t12 -29v-526z" />
    <glyph glyph-name="uni013B" unicode="&#x13b;" 
d="M181 133q0 -21 14.5 -36t35.5 -15h268q17 0 29 -12t12 -29t-12 -29t-29 -12h-359q-17 0 -29 12t-12 29v618q0 17 12 29t29 12t29 -12t12 -29v-526zM308 -256q-13 -11 -29 -11q-17 0 -28 11q-14 14 -14 30t13 29l82 83q6 6 14 9t15 3q19 0 29 -12q13 -13 13 -29
q0 -18 -12 -28z" />
    <glyph glyph-name="uni013C" unicode="&#x13c;" 
d="M181 133q0 -21 14.5 -36t35.5 -15h268q17 0 29 -12t12 -29t-12 -29t-29 -12h-359q-17 0 -29 12t-12 29v618q0 17 12 29t29 12t29 -12t12 -29v-526zM308 -256q-13 -11 -29 -11q-17 0 -28 11q-14 14 -14 30t13 29l82 83q6 6 14 9t15 3q19 0 29 -12q13 -13 13 -29
q0 -18 -12 -28z" />
    <glyph glyph-name="Lcaron" unicode="&#x13d;" 
d="M290 945q12 -15 32 -15t32 15l37 36q14 11 25 11q15 0 25.5 -11t10.5 -25q0 -15 -10 -26l-94 -95q-10 -9 -26 -9q-15 0 -26 9l-94 95q-10 13 -10 26q0 15 10 24q11 12 26 12q11 0 25 -11zM181 133q0 -21 14.5 -36t35.5 -15h268q17 0 29 -12t12 -29t-12 -29t-29 -12h-359
q-17 0 -29 12t-12 29v618q0 17 12 29t29 12t29 -12t12 -29v-526z" />
    <glyph glyph-name="lcaron" unicode="&#x13e;" 
d="M290 945q12 -15 32 -15t32 15l37 36q14 11 25 11q15 0 25.5 -11t10.5 -25q0 -15 -10 -26l-94 -95q-10 -9 -26 -9q-15 0 -26 9l-94 95q-10 13 -10 26q0 15 10 24q11 12 26 12q11 0 25 -11zM181 133q0 -21 14.5 -36t35.5 -15h268q17 0 29 -12t12 -29t-12 -29t-29 -12h-359
q-17 0 -29 12t-12 29v618q0 17 12 29t29 12t29 -12t12 -29v-526z" />
    <glyph glyph-name="Ldot" unicode="&#x13f;" 
d="M181 133q0 -21 14.5 -36t35.5 -15h268q17 0 29 -12t12 -29t-12 -29t-29 -12h-359q-17 0 -29 12t-12 29v618q0 17 12 29t29 12t29 -12t12 -29v-526zM353 289q-17 0 -29 12t-12 29v40q0 17 12 29t29 12h41q17 0 28.5 -12t11.5 -29v-40q0 -17 -11.5 -29t-28.5 -12h-41z" />
    <glyph glyph-name="ldot" unicode="&#x140;" 
d="M181 133q0 -21 14.5 -36t35.5 -15h268q17 0 29 -12t12 -29t-12 -29t-29 -12h-359q-17 0 -29 12t-12 29v618q0 17 12 29t29 12t29 -12t12 -29v-526zM353 289q-17 0 -29 12t-12 29v40q0 17 12 29t29 12h41q17 0 28.5 -12t11.5 -29v-40q0 -17 -11.5 -29t-28.5 -12h-41z" />
    <glyph glyph-name="Lslash" unicode="&#x141;" 
d="M99 183q0 15 -13 15q-5 0 -6 -1q-3 -1 -10 -1q-17 0 -29.5 12t-12.5 29t12 29l46 46q5 5 9 13.5t4 16.5v317q0 17 12 29t29 12t29 -12t12 -29v-225q0 -13 9 -13q6 0 10 6l65 65q14 12 28 12q17 0 29.5 -12.5t12.5 -29.5q0 -18 -11 -29l-130 -130q-5 -5 -9 -13t-4 -16
v-141q0 -21 14.5 -36t35.5 -15h269q17 0 29 -12t12 -29t-12 -29t-29 -12h-360q-17 0 -29 12t-12 29v142z" />
    <glyph glyph-name="lslash" unicode="&#x142;" 
d="M99 183q0 15 -13 15q-5 0 -6 -1q-3 -1 -10 -1q-17 0 -29.5 12t-12.5 29t12 29l46 46q5 5 9 13.5t4 16.5v317q0 17 12 29t29 12t29 -12t12 -29v-225q0 -13 9 -13q6 0 10 6l65 65q14 12 28 12q17 0 29.5 -12.5t12.5 -29.5q0 -18 -11 -29l-130 -130q-5 -5 -9 -13t-4 -16
v-141q0 -21 14.5 -36t35.5 -15h269q17 0 29 -12t12 -29t-12 -29t-29 -12h-360q-17 0 -29 12t-12 29v142z" />
    <glyph glyph-name="Nacute" unicode="&#x143;" 
d="M308 833q-13 -11 -29 -11q-17 0 -29.5 11.5t-12.5 28.5t13 30l82 83q13 11 29 11q17 0 29.5 -12t12.5 -29t-12 -28zM442 223q5 -8 9 -8q2 0 5 2.5t3 9.5v432q0 17 12 29t29 12t29 -12t12 -29v-618q0 -17 -12 -29t-29 -12q-24 0 -36 20l-267 458q-5 8 -9 8q-7 0 -7 -12
v-433q0 -17 -12 -29t-29 -12t-29 12t-12 29v618q0 17 12 29t29 12q22 0 36 -20z" />
    <glyph glyph-name="nacute" unicode="&#x144;" 
d="M308 833q-13 -11 -29 -11q-17 0 -29.5 11.5t-12.5 28.5t13 30l82 83q13 11 29 11q17 0 29.5 -12t12.5 -29t-12 -28zM442 223q5 -8 9 -8q2 0 5 2.5t3 9.5v432q0 17 12 29t29 12t29 -12t12 -29v-618q0 -17 -12 -29t-29 -12q-24 0 -36 20l-267 458q-5 8 -9 8q-7 0 -7 -12
v-433q0 -17 -12 -29t-29 -12t-29 12t-12 29v618q0 17 12 29t29 12q22 0 36 -20z" />
    <glyph glyph-name="uni0145" unicode="&#x145;" 
d="M442 223q5 -8 9 -8q2 0 5 2.5t3 9.5v432q0 17 12 29t29 12t29 -12t12 -29v-618q0 -17 -12 -29t-29 -12q-24 0 -36 20l-267 458q-5 8 -9 8q-7 0 -7 -12v-433q0 -17 -12 -29t-29 -12t-29 12t-12 29v618q0 17 12 29t29 12q22 0 36 -20zM308 -256q-13 -11 -29 -11
q-17 0 -28 11q-14 14 -14 30t13 29l82 83q6 6 14 9t15 3q19 0 29 -12q13 -13 13 -29q0 -18 -12 -28z" />
    <glyph glyph-name="uni0146" unicode="&#x146;" 
d="M442 223q5 -8 9 -8q2 0 5 2.5t3 9.5v432q0 17 12 29t29 12t29 -12t12 -29v-618q0 -17 -12 -29t-29 -12q-24 0 -36 20l-267 458q-5 8 -9 8q-7 0 -7 -12v-433q0 -17 -12 -29t-29 -12t-29 12t-12 29v618q0 17 12 29t29 12q22 0 36 -20zM308 -256q-13 -11 -29 -11
q-17 0 -28 11q-14 14 -14 30t13 29l82 83q6 6 14 9t15 3q19 0 29 -12q13 -13 13 -29q0 -18 -12 -28z" />
    <glyph glyph-name="Ncaron" unicode="&#x147;" 
d="M288 939q12 -14 33 -14q19 0 31 14l37 37q10 10 25 10q14 0 24.5 -10.5t10.5 -25.5q0 -14 -10 -25l-93 -94q-10 -9 -25 -9q-16 0 -27 9l-93 94q-10 10 -10 25q0 14 10.5 25t24.5 11q16 0 26 -10zM442 223q5 -8 9 -8q2 0 5 2.5t3 9.5v432q0 17 12 29t29 12t29 -12t12 -29
v-618q0 -17 -12 -29t-29 -12q-24 0 -36 20l-267 458q-5 8 -9 8q-7 0 -7 -12v-433q0 -17 -12 -29t-29 -12t-29 12t-12 29v618q0 17 12 29t29 12q22 0 36 -20z" />
    <glyph glyph-name="ncaron" unicode="&#x148;" 
d="M288 939q12 -14 33 -14q19 0 31 14l37 37q10 10 25 10q14 0 24.5 -10.5t10.5 -25.5q0 -14 -10 -25l-93 -94q-10 -9 -25 -9q-16 0 -27 9l-93 94q-10 10 -10 25q0 14 10.5 25t24.5 11q16 0 26 -10zM442 223q5 -8 9 -8q2 0 5 2.5t3 9.5v432q0 17 12 29t29 12t29 -12t12 -29
v-618q0 -17 -12 -29t-29 -12q-24 0 -36 20l-267 458q-5 8 -9 8q-7 0 -7 -12v-433q0 -17 -12 -29t-29 -12t-29 12t-12 29v618q0 17 12 29t29 12q22 0 36 -20z" />
    <glyph glyph-name="Eng" unicode="&#x14a;" 
d="M180 666q3 -12 10 -12q6 0 9 5l28 29q14 12 31 12h157q16 0 29 -12l86 -85q11 -13 11 -30v-672q0 -18 -11 -31l-87 -84q-10 -12 -28 -12h-96q-17 0 -29 11.5t-12 28.5t12 29.5t29 12.5h61q19 0 29 12l37 38q5 5 9 12.5t4 15.5v605q0 8 -4 15.5t-9 12.5l-36 39
q-12 12 -30 12h-89q-17 0 -28 -12l-71 -71q-11 -11 -11 -29v-465q0 -17 -12 -29t-29 -12t-29 12t-12 29v617q0 17 12 29.5t29 12.5q15 0 26.5 -9.5t13.5 -24.5z" />
    <glyph glyph-name="eng" unicode="&#x14b;" 
d="M180 666q3 -12 10 -12q6 0 9 5l28 29q14 12 31 12h157q16 0 29 -12l86 -85q11 -13 11 -30v-672q0 -18 -11 -31l-87 -84q-10 -12 -28 -12h-96q-17 0 -29 11.5t-12 28.5t12 29.5t29 12.5h61q19 0 29 12l37 38q5 5 9 12.5t4 15.5v605q0 8 -4 15.5t-9 12.5l-36 39
q-12 12 -30 12h-89q-17 0 -28 -12l-71 -71q-11 -11 -11 -29v-465q0 -17 -12 -29t-29 -12t-29 12t-12 29v617q0 17 12 29.5t29 12.5q15 0 26.5 -9.5t13.5 -24.5z" />
    <glyph glyph-name="Omacron" unicode="&#x14c;" 
d="M224 832q-17 0 -28.5 11.5t-11.5 28.5t11.5 29.5t28.5 12.5h192q17 0 28.5 -12.5t11.5 -29.5t-11.5 -28.5t-28.5 -11.5h-192zM530 604q11 -14 11 -30v-448q0 -16 -11 -30l-87 -84q-10 -12 -29 -12h-190q-17 0 -28 12l-85 84q-12 15 -12 30v448q0 15 12 30l85 84
q11 12 28 12h190q19 0 29 -12zM446 132q5 5 9 12.5t4 15.5v380q0 8 -4 15.5t-9 12.5l-37 38q-10 12 -29 12h-121q-17 0 -29 -12l-37 -38q-12 -10 -12 -28v-380q0 -17 12 -28l37 -38q12 -12 29 -12h121q19 0 29 12z" />
    <glyph glyph-name="omacron" unicode="&#x14d;" 
d="M224 832q-17 0 -28.5 11.5t-11.5 28.5t11.5 29.5t28.5 12.5h192q17 0 28.5 -12.5t11.5 -29.5t-11.5 -28.5t-28.5 -11.5h-192zM530 604q11 -14 11 -30v-448q0 -16 -11 -30l-87 -84q-10 -12 -29 -12h-190q-17 0 -28 12l-85 84q-12 15 -12 30v448q0 15 12 30l85 84
q11 12 28 12h190q19 0 29 -12zM446 132q5 5 9 12.5t4 15.5v380q0 8 -4 15.5t-9 12.5l-37 38q-10 12 -29 12h-121q-17 0 -29 -12l-37 -38q-12 -10 -12 -28v-380q0 -17 12 -28l37 -38q12 -12 29 -12h121q19 0 29 12z" />
    <glyph glyph-name="Obreve" unicode="&#x14e;" 
d="M261 943q0 -17 12 -28l16 -16q11 -12 29 -12h5q18 0 28 12l16 16q12 11 12 28v11q0 13 9.5 22.5t23.5 9.5t23 -9.5t9 -22.5v-43q0 -12 -8 -20l-60 -62q-10 -7 -21 -7h-70q-13 0 -21 7l-60 62q-8 8 -8 20v43q0 13 9 22.5t23 9.5t23.5 -9.5t9.5 -22.5v-11zM530 604
q11 -14 11 -30v-448q0 -16 -11 -30l-87 -84q-10 -12 -29 -12h-190q-17 0 -28 12l-85 84q-12 15 -12 30v448q0 15 12 30l85 84q11 12 28 12h190q19 0 29 -12zM446 132q5 5 9 12.5t4 15.5v380q0 8 -4 15.5t-9 12.5l-37 38q-10 12 -29 12h-121q-17 0 -29 -12l-37 -38
q-12 -10 -12 -28v-380q0 -17 12 -28l37 -38q12 -12 29 -12h121q19 0 29 12z" />
    <glyph glyph-name="obreve" unicode="&#x14f;" 
d="M261 943q0 -17 12 -28l16 -16q11 -12 29 -12h5q18 0 28 12l16 16q12 11 12 28v11q0 13 9.5 22.5t23.5 9.5t23 -9.5t9 -22.5v-43q0 -12 -8 -20l-60 -62q-10 -7 -21 -7h-70q-13 0 -21 7l-60 62q-8 8 -8 20v43q0 13 9 22.5t23 9.5t23.5 -9.5t9.5 -22.5v-11zM530 604
q11 -14 11 -30v-448q0 -16 -11 -30l-87 -84q-10 -12 -29 -12h-190q-17 0 -28 12l-85 84q-12 15 -12 30v448q0 15 12 30l85 84q11 12 28 12h190q19 0 29 -12zM446 132q5 5 9 12.5t4 15.5v380q0 8 -4 15.5t-9 12.5l-37 38q-10 12 -29 12h-121q-17 0 -29 -12l-37 -38
q-12 -10 -12 -28v-380q0 -17 12 -28l37 -38q12 -12 29 -12h121q19 0 29 12z" />
    <glyph glyph-name="Ohungarumlaut" unicode="&#x150;" 
d="M220 833q-11 -11 -29 -11q-17 0 -29 11.5t-12 28.5q0 19 11 30l84 83q11 11 29 11q17 0 28.5 -12t11.5 -29q0 -18 -11 -29zM396 833q-6 -5 -14.5 -8t-15.5 -3q-17 0 -29 11.5t-12 28.5t12 30l82 83q13 11 29 11q17 0 29.5 -12t12.5 -29t-12 -28zM530 604q11 -14 11 -30
v-448q0 -16 -11 -30l-87 -84q-10 -12 -29 -12h-190q-17 0 -28 12l-85 84q-12 15 -12 30v448q0 15 12 30l85 84q11 12 28 12h190q19 0 29 -12zM446 132q5 5 9 12.5t4 15.5v380q0 8 -4 15.5t-9 12.5l-37 38q-10 12 -29 12h-121q-17 0 -29 -12l-37 -38q-12 -10 -12 -28v-380
q0 -17 12 -28l37 -38q12 -12 29 -12h121q19 0 29 12z" />
    <glyph glyph-name="ohungarumlaut" unicode="&#x151;" 
d="M220 833q-11 -11 -29 -11q-17 0 -29 11.5t-12 28.5q0 19 11 30l84 83q11 11 29 11q17 0 28.5 -12t11.5 -29q0 -18 -11 -29zM396 833q-6 -5 -14.5 -8t-15.5 -3q-17 0 -29 11.5t-12 28.5t12 30l82 83q13 11 29 11q17 0 29.5 -12t12.5 -29t-12 -28zM530 604q11 -14 11 -30
v-448q0 -16 -11 -30l-87 -84q-10 -12 -29 -12h-190q-17 0 -28 12l-85 84q-12 15 -12 30v448q0 15 12 30l85 84q11 12 28 12h190q19 0 29 -12zM446 132q5 5 9 12.5t4 15.5v380q0 8 -4 15.5t-9 12.5l-37 38q-10 12 -29 12h-121q-17 0 -29 -12l-37 -38q-12 -10 -12 -28v-380
q0 -17 12 -28l37 -38q12 -12 29 -12h121q19 0 29 12z" />
    <glyph glyph-name="OE" unicode="&#x152;" 
d="M205 0q-17 0 -28 12l-87 84q-11 14 -11 31v447q0 16 11 30l87 84q11 12 28 12h315q17 0 29 -12t12 -29t-12 -29t-29 -12h-108q-22 0 -36.5 -15t-14.5 -36v-125q0 -21 14.5 -36t36.5 -15h88q17 0 29 -12t12 -29t-12 -29t-29 -12h-88q-22 0 -36.5 -15t-14.5 -36v-125
q0 -21 14.5 -36t36.5 -15h108q17 0 29 -12t12 -29t-12 -29t-29 -12h-315zM279 597q0 21 -20 21h-20q-8 0 -16 -4t-13 -9l-35 -36q-14 -12 -14 -29v-380q0 -17 14 -29l35 -36q5 -5 13 -9t16 -4h20q20 0 20 21v494z" />
    <glyph glyph-name="oe" unicode="&#x153;" 
d="M205 0q-17 0 -28 12l-87 84q-11 14 -11 31v447q0 16 11 30l87 84q11 12 28 12h315q17 0 29 -12t12 -29t-12 -29t-29 -12h-108q-22 0 -36.5 -15t-14.5 -36v-125q0 -21 14.5 -36t36.5 -15h88q17 0 29 -12t12 -29t-12 -29t-29 -12h-88q-22 0 -36.5 -15t-14.5 -36v-125
q0 -21 14.5 -36t36.5 -15h108q17 0 29 -12t12 -29t-12 -29t-29 -12h-315zM279 597q0 21 -20 21h-20q-8 0 -16 -4t-13 -9l-35 -36q-14 -12 -14 -29v-380q0 -17 14 -29l35 -36q5 -5 13 -9t16 -4h20q20 0 20 21v494z" />
    <glyph glyph-name="Racute" unicode="&#x154;" 
d="M308 833q-13 -11 -29 -11q-17 0 -29.5 11.5t-12.5 28.5t13 30l82 83q13 11 29 11q17 0 29.5 -12t12.5 -29t-12 -28zM231 286q-21 0 -35.5 -14.5t-14.5 -36.5v-194q0 -17 -12 -29t-29 -12t-29 12t-12 29v618q0 17 12 29t29 12h254q17 0 30 -12l106 -106q11 -11 11 -29
v-120q0 -15 -12 -29l-41 -41q-15 -15 -15 -35q0 -10 4 -19.5t10 -17.5l43 -40q11 -14 11 -30v-180q0 -17 -12 -29t-29 -12t-29 12t-12 29v146q0 8 -4 15.5t-9 12.5l-58 59q-12 12 -29 12h-128zM446 439q5 5 9 13t4 16v50q0 8 -4 16t-9 13l-58 59q-12 12 -29 12h-128
q-21 0 -35.5 -15t-14.5 -36v-148q0 -21 14.5 -36t35.5 -15h128q17 0 29 12z" />
    <glyph glyph-name="racute" unicode="&#x155;" 
d="M308 833q-13 -11 -29 -11q-17 0 -29.5 11.5t-12.5 28.5t13 30l82 83q13 11 29 11q17 0 29.5 -12t12.5 -29t-12 -28zM231 286q-21 0 -35.5 -14.5t-14.5 -36.5v-194q0 -17 -12 -29t-29 -12t-29 12t-12 29v618q0 17 12 29t29 12h254q17 0 30 -12l106 -106q11 -11 11 -29
v-120q0 -15 -12 -29l-41 -41q-15 -15 -15 -35q0 -10 4 -19.5t10 -17.5l43 -40q11 -14 11 -30v-180q0 -17 -12 -29t-29 -12t-29 12t-12 29v146q0 8 -4 15.5t-9 12.5l-58 59q-12 12 -29 12h-128zM446 439q5 5 9 13t4 16v50q0 8 -4 16t-9 13l-58 59q-12 12 -29 12h-128
q-21 0 -35.5 -15t-14.5 -36v-148q0 -21 14.5 -36t35.5 -15h128q17 0 29 12z" />
    <glyph glyph-name="uni0156" unicode="&#x156;" 
d="M231 286q-21 0 -35.5 -14.5t-14.5 -36.5v-194q0 -17 -12 -29t-29 -12t-29 12t-12 29v618q0 17 12 29t29 12h254q17 0 30 -12l106 -106q11 -11 11 -29v-120q0 -15 -12 -29l-41 -41q-15 -15 -15 -35q0 -10 4 -19.5t10 -17.5l43 -40q11 -14 11 -30v-180q0 -17 -12 -29
t-29 -12t-29 12t-12 29v146q0 8 -4 15.5t-9 12.5l-58 59q-12 12 -29 12h-128zM446 439q5 5 9 13t4 16v50q0 8 -4 16t-9 13l-58 59q-12 12 -29 12h-128q-21 0 -35.5 -15t-14.5 -36v-148q0 -21 14.5 -36t35.5 -15h128q17 0 29 12zM308 -256q-13 -11 -29 -11q-17 0 -28 11
q-14 14 -14 30t13 29l82 83q6 6 14 9t15 3q19 0 29 -12q13 -13 13 -29q0 -18 -12 -28z" />
    <glyph glyph-name="uni0157" unicode="&#x157;" 
d="M231 286q-21 0 -35.5 -14.5t-14.5 -36.5v-194q0 -17 -12 -29t-29 -12t-29 12t-12 29v618q0 17 12 29t29 12h254q17 0 30 -12l106 -106q11 -11 11 -29v-120q0 -15 -12 -29l-41 -41q-15 -15 -15 -35q0 -10 4 -19.5t10 -17.5l43 -40q11 -14 11 -30v-180q0 -17 -12 -29
t-29 -12t-29 12t-12 29v146q0 8 -4 15.5t-9 12.5l-58 59q-12 12 -29 12h-128zM446 439q5 5 9 13t4 16v50q0 8 -4 16t-9 13l-58 59q-12 12 -29 12h-128q-21 0 -35.5 -15t-14.5 -36v-148q0 -21 14.5 -36t35.5 -15h128q17 0 29 12zM308 -256q-13 -11 -29 -11q-17 0 -28 11
q-14 14 -14 30t13 29l82 83q6 6 14 9t15 3q19 0 29 -12q13 -13 13 -29q0 -18 -12 -28z" />
    <glyph glyph-name="Rcaron" unicode="&#x158;" 
d="M288 939q12 -14 33 -14q19 0 31 14l37 37q10 10 25 10q14 0 24.5 -10.5t10.5 -25.5q0 -14 -10 -25l-93 -94q-10 -9 -25 -9q-16 0 -27 9l-93 94q-10 10 -10 25q0 14 10.5 25t24.5 11q16 0 26 -10zM231 286q-21 0 -35.5 -14.5t-14.5 -36.5v-194q0 -17 -12 -29t-29 -12
t-29 12t-12 29v618q0 17 12 29t29 12h254q17 0 30 -12l106 -106q11 -11 11 -29v-120q0 -15 -12 -29l-41 -41q-15 -15 -15 -35q0 -10 4 -19.5t10 -17.5l43 -40q11 -14 11 -30v-180q0 -17 -12 -29t-29 -12t-29 12t-12 29v146q0 8 -4 15.5t-9 12.5l-58 59q-12 12 -29 12h-128z
M446 439q5 5 9 13t4 16v50q0 8 -4 16t-9 13l-58 59q-12 12 -29 12h-128q-21 0 -35.5 -15t-14.5 -36v-148q0 -21 14.5 -36t35.5 -15h128q17 0 29 12z" />
    <glyph glyph-name="rcaron" unicode="&#x159;" 
d="M288 939q12 -14 33 -14q19 0 31 14l37 37q10 10 25 10q14 0 24.5 -10.5t10.5 -25.5q0 -14 -10 -25l-93 -94q-10 -9 -25 -9q-16 0 -27 9l-93 94q-10 10 -10 25q0 14 10.5 25t24.5 11q16 0 26 -10zM231 286q-21 0 -35.5 -14.5t-14.5 -36.5v-194q0 -17 -12 -29t-29 -12
t-29 12t-12 29v618q0 17 12 29t29 12h254q17 0 30 -12l106 -106q11 -11 11 -29v-120q0 -15 -12 -29l-41 -41q-15 -15 -15 -35q0 -10 4 -19.5t10 -17.5l43 -40q11 -14 11 -30v-180q0 -17 -12 -29t-29 -12t-29 12t-12 29v146q0 8 -4 15.5t-9 12.5l-58 59q-12 12 -29 12h-128z
M446 439q5 5 9 13t4 16v50q0 8 -4 16t-9 13l-58 59q-12 12 -29 12h-128q-21 0 -35.5 -15t-14.5 -36v-148q0 -21 14.5 -36t35.5 -15h128q17 0 29 12z" />
    <glyph glyph-name="Sacute" unicode="&#x15a;" 
d="M308 833q-13 -11 -29 -11q-17 0 -29.5 11.5t-12.5 28.5t13 30l82 83q13 11 29 11q17 0 29.5 -12t12.5 -29t-12 -28zM459 540q0 8 -4 15.5t-9 12.5l-37 38q-10 12 -29 12h-121q-17 0 -29 -12l-37 -38q-12 -10 -12 -28v-70q0 -17 12 -29l36 -38q12 -12 30 -12h156
q16 0 29 -12l86 -85q11 -11 11 -29v-139q0 -16 -11 -30l-87 -84q-10 -12 -28 -12h-191q-17 0 -28 12l-85 84q-12 15 -12 30v47q0 17 12 28.5t29 11.5t29 -11.5t12 -28.5v-13q0 -17 12 -28l37 -38q12 -12 29 -12h121q19 0 29 12l37 38q5 5 9 12.5t4 15.5v70q0 8 -4 16t-9 13
l-36 38q-12 12 -30 12h-156q-15 0 -29 12l-84 85q-12 12 -12 29v139q0 15 12 30l85 84q11 12 28 12h191q18 0 28 -12l87 -84q11 -14 11 -30v-46q0 -17 -12 -29t-29 -12t-29 12t-12 29v12z" />
    <glyph glyph-name="sacute" unicode="&#x15b;" 
d="M308 833q-13 -11 -29 -11q-17 0 -29.5 11.5t-12.5 28.5t13 30l82 83q13 11 29 11q17 0 29.5 -12t12.5 -29t-12 -28zM459 540q0 8 -4 15.5t-9 12.5l-37 38q-10 12 -29 12h-121q-17 0 -29 -12l-37 -38q-12 -10 -12 -28v-70q0 -17 12 -29l36 -38q12 -12 30 -12h156
q16 0 29 -12l86 -85q11 -11 11 -29v-139q0 -16 -11 -30l-87 -84q-10 -12 -28 -12h-191q-17 0 -28 12l-85 84q-12 15 -12 30v47q0 17 12 28.5t29 11.5t29 -11.5t12 -28.5v-13q0 -17 12 -28l37 -38q12 -12 29 -12h121q19 0 29 12l37 38q5 5 9 12.5t4 15.5v70q0 8 -4 16t-9 13
l-36 38q-12 12 -30 12h-156q-15 0 -29 12l-84 85q-12 12 -12 29v139q0 15 12 30l85 84q11 12 28 12h191q18 0 28 -12l87 -84q11 -14 11 -30v-46q0 -17 -12 -29t-29 -12t-29 12t-12 29v12z" />
    <glyph glyph-name="Scircumflex" unicode="&#x15c;" 
d="M251 831q-9 -9 -25 -9q-14 0 -24.5 10t-10.5 24t10 27l95 93q9 10 25 10q15 0 25 -10l94 -93q9 -12 9 -27t-9.5 -24.5t-24.5 -9.5t-26 9l-37 36q-12 14 -31 14q-20 0 -32 -14zM459 540q0 8 -4 15.5t-9 12.5l-37 38q-10 12 -29 12h-121q-17 0 -29 -12l-37 -38
q-12 -10 -12 -28v-70q0 -17 12 -29l36 -38q12 -12 30 -12h156q16 0 29 -12l86 -85q11 -11 11 -29v-139q0 -16 -11 -30l-87 -84q-10 -12 -28 -12h-191q-17 0 -28 12l-85 84q-12 15 -12 30v47q0 17 12 28.5t29 11.5t29 -11.5t12 -28.5v-13q0 -17 12 -28l37 -38q12 -12 29 -12
h121q19 0 29 12l37 38q5 5 9 12.5t4 15.5v70q0 8 -4 16t-9 13l-36 38q-12 12 -30 12h-156q-15 0 -29 12l-84 85q-12 12 -12 29v139q0 15 12 30l85 84q11 12 28 12h191q18 0 28 -12l87 -84q11 -14 11 -30v-46q0 -17 -12 -29t-29 -12t-29 12t-12 29v12z" />
    <glyph glyph-name="scircumflex" unicode="&#x15d;" 
d="M251 831q-9 -9 -25 -9q-14 0 -24.5 10t-10.5 24t10 27l95 93q9 10 25 10q15 0 25 -10l94 -93q9 -12 9 -27t-9.5 -24.5t-24.5 -9.5t-26 9l-37 36q-12 14 -31 14q-20 0 -32 -14zM459 540q0 8 -4 15.5t-9 12.5l-37 38q-10 12 -29 12h-121q-17 0 -29 -12l-37 -38
q-12 -10 -12 -28v-70q0 -17 12 -29l36 -38q12 -12 30 -12h156q16 0 29 -12l86 -85q11 -11 11 -29v-139q0 -16 -11 -30l-87 -84q-10 -12 -28 -12h-191q-17 0 -28 12l-85 84q-12 15 -12 30v47q0 17 12 28.5t29 11.5t29 -11.5t12 -28.5v-13q0 -17 12 -28l37 -38q12 -12 29 -12
h121q19 0 29 12l37 38q5 5 9 12.5t4 15.5v70q0 8 -4 16t-9 13l-36 38q-12 12 -30 12h-156q-15 0 -29 12l-84 85q-12 12 -12 29v139q0 15 12 30l85 84q11 12 28 12h191q18 0 28 -12l87 -84q11 -14 11 -30v-46q0 -17 -12 -29t-29 -12t-29 12t-12 29v12z" />
    <glyph glyph-name="Scedilla" unicode="&#x15e;" 
d="M459 540q0 8 -4 15.5t-9 12.5l-37 38q-10 12 -29 12h-121q-17 0 -29 -12l-37 -38q-12 -10 -12 -28v-70q0 -17 12 -29l36 -38q12 -12 30 -12h156q16 0 29 -12l86 -85q11 -11 11 -29v-139q0 -16 -11 -30l-87 -84q-10 -12 -28 -12h-67v-21q0 -8 4 -17t9 -14l60 -58
q7 -10 7 -18v-62q0 -4 -2 -8.5t-4 -8.5l-55 -53q-6 -7 -16 -7h-63q-10 0 -16 7l-28 28q-9 9 -9 20t9 19t20 8q13 0 20 -7l6 -6q5 -5 14 -9t17 -4t16 4t13 9l9 9q5 5 9 13.5t4 16.5t-4 16t-9 13l-59 58q-9 10 -9 23v49h-67q-17 0 -28 12l-85 84q-12 15 -12 30v47
q0 17 12 28.5t29 11.5t29 -11.5t12 -28.5v-13q0 -17 12 -28l37 -38q12 -12 29 -12h121q19 0 29 12l37 38q5 5 9 12.5t4 15.5v70q0 8 -4 16t-9 13l-36 38q-12 12 -30 12h-156q-15 0 -29 12l-84 85q-12 12 -12 29v139q0 15 12 30l85 84q11 12 28 12h191q18 0 28 -12l87 -84
q11 -14 11 -30v-46q0 -17 -12 -29t-29 -12t-29 12t-12 29v12z" />
    <glyph glyph-name="scedilla" unicode="&#x15f;" 
d="M459 540q0 8 -4 15.5t-9 12.5l-37 38q-10 12 -29 12h-121q-17 0 -29 -12l-37 -38q-12 -10 -12 -28v-70q0 -17 12 -29l36 -38q12 -12 30 -12h156q16 0 29 -12l86 -85q11 -11 11 -29v-139q0 -16 -11 -30l-87 -84q-10 -12 -28 -12h-67v-21q0 -8 4 -17t9 -14l60 -58
q7 -10 7 -18v-62q0 -4 -2 -8.5t-4 -8.5l-55 -53q-6 -7 -16 -7h-63q-10 0 -16 7l-28 28q-9 9 -9 20t9 19t20 8q13 0 20 -7l6 -6q5 -5 14 -9t17 -4t16 4t13 9l9 9q5 5 9 13.5t4 16.5t-4 16t-9 13l-59 58q-9 10 -9 23v49h-67q-17 0 -28 12l-85 84q-12 15 -12 30v47
q0 17 12 28.5t29 11.5t29 -11.5t12 -28.5v-13q0 -17 12 -28l37 -38q12 -12 29 -12h121q19 0 29 12l37 38q5 5 9 12.5t4 15.5v70q0 8 -4 16t-9 13l-36 38q-12 12 -30 12h-156q-15 0 -29 12l-84 85q-12 12 -12 29v139q0 15 12 30l85 84q11 12 28 12h191q18 0 28 -12l87 -84
q11 -14 11 -30v-46q0 -17 -12 -29t-29 -12t-29 12t-12 29v12z" />
    <glyph glyph-name="Scaron" unicode="&#x160;" 
d="M288 939q12 -14 33 -14q19 0 31 14l37 37q10 10 25 10q14 0 24.5 -10.5t10.5 -25.5q0 -14 -10 -25l-93 -94q-10 -9 -25 -9q-16 0 -27 9l-93 94q-10 10 -10 25q0 14 10.5 25t24.5 11q16 0 26 -10zM459 540q0 8 -4 15.5t-9 12.5l-37 38q-10 12 -29 12h-121q-17 0 -29 -12
l-37 -38q-12 -10 -12 -28v-70q0 -17 12 -29l36 -38q12 -12 30 -12h156q16 0 29 -12l86 -85q11 -11 11 -29v-139q0 -16 -11 -30l-87 -84q-10 -12 -28 -12h-191q-17 0 -28 12l-85 84q-12 15 -12 30v47q0 17 12 28.5t29 11.5t29 -11.5t12 -28.5v-13q0 -17 12 -28l37 -38
q12 -12 29 -12h121q19 0 29 12l37 38q5 5 9 12.5t4 15.5v70q0 8 -4 16t-9 13l-36 38q-12 12 -30 12h-156q-15 0 -29 12l-84 85q-12 12 -12 29v139q0 15 12 30l85 84q11 12 28 12h191q18 0 28 -12l87 -84q11 -14 11 -30v-46q0 -17 -12 -29t-29 -12t-29 12t-12 29v12z" />
    <glyph glyph-name="scaron" unicode="&#x161;" 
d="M288 939q12 -14 33 -14q19 0 31 14l37 37q10 10 25 10q14 0 24.5 -10.5t10.5 -25.5q0 -14 -10 -25l-93 -94q-10 -9 -25 -9q-16 0 -27 9l-93 94q-10 10 -10 25q0 14 10.5 25t24.5 11q16 0 26 -10zM459 540q0 8 -4 15.5t-9 12.5l-37 38q-10 12 -29 12h-121q-17 0 -29 -12
l-37 -38q-12 -10 -12 -28v-70q0 -17 12 -29l36 -38q12 -12 30 -12h156q16 0 29 -12l86 -85q11 -11 11 -29v-139q0 -16 -11 -30l-87 -84q-10 -12 -28 -12h-191q-17 0 -28 12l-85 84q-12 15 -12 30v47q0 17 12 28.5t29 11.5t29 -11.5t12 -28.5v-13q0 -17 12 -28l37 -38
q12 -12 29 -12h121q19 0 29 12l37 38q5 5 9 12.5t4 15.5v70q0 8 -4 16t-9 13l-36 38q-12 12 -30 12h-156q-15 0 -29 12l-84 85q-12 12 -12 29v139q0 15 12 30l85 84q11 12 28 12h191q18 0 28 -12l87 -84q11 -14 11 -30v-46q0 -17 -12 -29t-29 -12t-29 12t-12 29v12z" />
    <glyph glyph-name="uni0162" unicode="&#x162;" 
d="M361 41q0 -17 -12 -29t-29 -12t-29 12t-12 29v526q0 21 -14.5 36t-36.5 15h-88q-17 0 -29 12t-12 29t12 29t29 12h360q17 0 29 -12t12 -29t-12 -29t-29 -12h-88q-22 0 -36.5 -15t-14.5 -36v-526zM308 -256q-13 -11 -29 -11q-17 0 -28 11q-14 14 -14 30t13 29l82 83
q6 6 14 9t15 3q19 0 29 -12q13 -13 13 -29q0 -18 -12 -28z" />
    <glyph glyph-name="uni0163" unicode="&#x163;" 
d="M361 41q0 -17 -12 -29t-29 -12t-29 12t-12 29v526q0 21 -14.5 36t-36.5 15h-88q-17 0 -29 12t-12 29t12 29t29 12h360q17 0 29 -12t12 -29t-12 -29t-29 -12h-88q-22 0 -36.5 -15t-14.5 -36v-526zM308 -256q-13 -11 -29 -11q-17 0 -28 11q-14 14 -14 30t13 29l82 83
q6 6 14 9t15 3q19 0 29 -12q13 -13 13 -29q0 -18 -12 -28z" />
    <glyph glyph-name="Tcaron" unicode="&#x164;" 
d="M288 939q12 -14 33 -14q19 0 31 14l37 37q10 10 25 10q14 0 24.5 -10.5t10.5 -25.5q0 -14 -10 -25l-93 -94q-10 -9 -25 -9q-16 0 -27 9l-93 94q-10 10 -10 25q0 14 10.5 25t24.5 11q16 0 26 -10zM361 41q0 -17 -12 -29t-29 -12t-29 12t-12 29v526q0 21 -14.5 36t-36.5 15
h-88q-17 0 -29 12t-12 29t12 29t29 12h360q17 0 29 -12t12 -29t-12 -29t-29 -12h-88q-22 0 -36.5 -15t-14.5 -36v-526z" />
    <glyph glyph-name="tcaron" unicode="&#x165;" 
d="M290 945q12 -15 32 -15t32 15l37 36q14 11 25 11q15 0 25.5 -11t10.5 -25q0 -15 -10 -26l-94 -95q-10 -9 -26 -9q-15 0 -26 9l-94 95q-10 13 -10 26q0 15 10 24q11 12 26 12q11 0 25 -11zM361 41q0 -17 -12 -29t-29 -12t-29 12t-12 29v526q0 21 -14.5 36t-36.5 15h-88
q-17 0 -29 12t-12 29t12 29t29 12h360q17 0 29 -12t12 -29t-12 -29t-29 -12h-88q-22 0 -36.5 -15t-14.5 -36v-526z" />
    <glyph glyph-name="Tbar" unicode="&#x166;" 
d="M279 567q0 21 -14.5 36t-36.5 15h-88q-17 0 -29 12t-12 29t12 29t29 12h360q17 0 29 -12t12 -29t-12 -29t-29 -12h-88q-22 0 -36.5 -15t-14.5 -36v-155q0 -20 20 -20h99q17 0 28.5 -12t11.5 -29t-11.5 -29t-28.5 -12h-99q-20 0 -20 -20v-248q0 -17 -12 -29t-29 -12
t-29 12t-12 29v248q0 20 -20 20h-99q-17 0 -28.5 12t-11.5 29t11.5 29t28.5 12h99q20 0 20 20v155z" />
    <glyph glyph-name="tbar" unicode="&#x167;" 
d="M279 567q0 21 -14.5 36t-36.5 15h-88q-17 0 -29 12t-12 29t12 29t29 12h360q17 0 29 -12t12 -29t-12 -29t-29 -12h-88q-22 0 -36.5 -15t-14.5 -36v-155q0 -20 20 -20h99q17 0 28.5 -12t11.5 -29t-11.5 -29t-28.5 -12h-99q-20 0 -20 -20v-248q0 -17 -12 -29t-29 -12
t-29 12t-12 29v248q0 20 -20 20h-99q-17 0 -28.5 12t-11.5 29t11.5 29t28.5 12h99q20 0 20 20v155z" />
    <glyph glyph-name="Utilde" unicode="&#x168;" 
d="M230 914v-35q0 -14 -9.5 -23.5t-23.5 -9.5q-13 0 -23 9.5t-10 23.5v51q0 12 8 20l41 41q11 8 20 8h51q10 0 21 -8l40 -41q8 -11 8 -20v-24l19 -18h21l18 18v35q0 14 9.5 23.5t23.5 9.5t23.5 -9.5t9.5 -23.5v-50q0 -11 -7 -21l-43 -40q-6 -8 -19 -8h-51q-10 0 -21 8
l-41 40q-7 7 -7 21v23l-19 19h-20zM181 160q0 -17 12 -28l37 -38q12 -12 29 -12h121q19 0 29 12l37 38q5 5 9 12.5t4 15.5v499q0 17 12 29t29 12t29 -12t12 -29v-533q0 -16 -11 -30l-87 -84q-10 -12 -29 -12h-190q-17 0 -28 12l-85 84q-12 15 -12 30v533q0 17 12 29t29 12
t29 -12t12 -29v-499z" />
    <glyph glyph-name="utilde" unicode="&#x169;" 
d="M230 914v-35q0 -14 -9.5 -23.5t-23.5 -9.5q-13 0 -23 9.5t-10 23.5v51q0 12 8 20l41 41q11 8 20 8h51q10 0 21 -8l40 -41q8 -11 8 -20v-24l19 -18h21l18 18v35q0 14 9.5 23.5t23.5 9.5t23.5 -9.5t9.5 -23.5v-50q0 -11 -7 -21l-43 -40q-6 -8 -19 -8h-51q-10 0 -21 8
l-41 40q-7 7 -7 21v23l-19 19h-20zM181 160q0 -17 12 -28l37 -38q12 -12 29 -12h121q19 0 29 12l37 38q5 5 9 12.5t4 15.5v499q0 17 12 29t29 12t29 -12t12 -29v-533q0 -16 -11 -30l-87 -84q-10 -12 -29 -12h-190q-17 0 -28 12l-85 84q-12 15 -12 30v533q0 17 12 29t29 12
t29 -12t12 -29v-499z" />
    <glyph glyph-name="Umacron" unicode="&#x16a;" 
d="M224 832q-17 0 -28.5 11.5t-11.5 28.5t11.5 29.5t28.5 12.5h192q17 0 28.5 -12.5t11.5 -29.5t-11.5 -28.5t-28.5 -11.5h-192zM181 160q0 -17 12 -28l37 -38q12 -12 29 -12h121q19 0 29 12l37 38q5 5 9 12.5t4 15.5v499q0 17 12 29t29 12t29 -12t12 -29v-533
q0 -16 -11 -30l-87 -84q-10 -12 -29 -12h-190q-17 0 -28 12l-85 84q-12 15 -12 30v533q0 17 12 29t29 12t29 -12t12 -29v-499z" />
    <glyph glyph-name="umacron" unicode="&#x16b;" 
d="M224 832q-17 0 -28.5 11.5t-11.5 28.5t11.5 29.5t28.5 12.5h192q17 0 28.5 -12.5t11.5 -29.5t-11.5 -28.5t-28.5 -11.5h-192zM181 160q0 -17 12 -28l37 -38q12 -12 29 -12h121q19 0 29 12l37 38q5 5 9 12.5t4 15.5v499q0 17 12 29t29 12t29 -12t12 -29v-533
q0 -16 -11 -30l-87 -84q-10 -12 -29 -12h-190q-17 0 -28 12l-85 84q-12 15 -12 30v533q0 17 12 29t29 12t29 -12t12 -29v-499z" />
    <glyph glyph-name="Ubreve" unicode="&#x16c;" 
d="M261 943q0 -17 12 -28l16 -16q11 -12 29 -12h5q18 0 28 12l16 16q12 11 12 28v11q0 13 9.5 22.5t23.5 9.5t23 -9.5t9 -22.5v-43q0 -12 -8 -20l-60 -62q-10 -7 -21 -7h-70q-13 0 -21 7l-60 62q-8 8 -8 20v43q0 13 9 22.5t23 9.5t23.5 -9.5t9.5 -22.5v-11zM181 160
q0 -17 12 -28l37 -38q12 -12 29 -12h121q19 0 29 12l37 38q5 5 9 12.5t4 15.5v499q0 17 12 29t29 12t29 -12t12 -29v-533q0 -16 -11 -30l-87 -84q-10 -12 -29 -12h-190q-17 0 -28 12l-85 84q-12 15 -12 30v533q0 17 12 29t29 12t29 -12t12 -29v-499z" />
    <glyph glyph-name="ubreve" unicode="&#x16d;" 
d="M261 943q0 -17 12 -28l16 -16q11 -12 29 -12h5q18 0 28 12l16 16q12 11 12 28v11q0 13 9.5 22.5t23.5 9.5t23 -9.5t9 -22.5v-43q0 -12 -8 -20l-60 -62q-10 -7 -21 -7h-70q-13 0 -21 7l-60 62q-8 8 -8 20v43q0 13 9 22.5t23 9.5t23.5 -9.5t9.5 -22.5v-11zM181 160
q0 -17 12 -28l37 -38q12 -12 29 -12h121q19 0 29 12l37 38q5 5 9 12.5t4 15.5v499q0 17 12 29t29 12t29 -12t12 -29v-533q0 -16 -11 -30l-87 -84q-10 -12 -29 -12h-190q-17 0 -28 12l-85 84q-12 15 -12 30v533q0 17 12 29t29 12t29 -12t12 -29v-499z" />
    <glyph glyph-name="Uring" unicode="&#x16e;" 
d="M213 919q0 10 7 17l52 53q8 7 18 7h61q5 0 9.5 -2t8.5 -4l53 -55q6 -6 6 -16v-62q0 -9 -6 -17l-53 -53q-4 -2 -8.5 -4t-9.5 -2h-61q-10 0 -18 7l-52 52q-7 8 -7 17v62zM281 917q-12 -10 -12 -28t12 -29l11 -11q11 -12 29 -12t28 12l11 11q12 11 12 29t-12 28l-11 11
q-10 12 -28 12t-29 -12zM181 160q0 -17 12 -28l37 -38q12 -12 29 -12h121q19 0 29 12l37 38q5 5 9 12.5t4 15.5v499q0 17 12 29t29 12t29 -12t12 -29v-533q0 -16 -11 -30l-87 -84q-10 -12 -29 -12h-190q-17 0 -28 12l-85 84q-12 15 -12 30v533q0 17 12 29t29 12t29 -12
t12 -29v-499z" />
    <glyph glyph-name="uring" unicode="&#x16f;" 
d="M213 919q0 10 7 17l52 53q8 7 18 7h61q5 0 9.5 -2t8.5 -4l53 -55q6 -6 6 -16v-62q0 -9 -6 -17l-53 -53q-4 -2 -8.5 -4t-9.5 -2h-61q-10 0 -18 7l-52 52q-7 8 -7 17v62zM281 917q-12 -10 -12 -28t12 -29l11 -11q11 -12 29 -12t28 12l11 11q12 11 12 29t-12 28l-11 11
q-10 12 -28 12t-29 -12zM181 160q0 -17 12 -28l37 -38q12 -12 29 -12h121q19 0 29 12l37 38q5 5 9 12.5t4 15.5v499q0 17 12 29t29 12t29 -12t12 -29v-533q0 -16 -11 -30l-87 -84q-10 -12 -29 -12h-190q-17 0 -28 12l-85 84q-12 15 -12 30v533q0 17 12 29t29 12t29 -12
t12 -29v-499z" />
    <glyph glyph-name="Uhungarumlaut" unicode="&#x170;" 
d="M220 833q-11 -11 -29 -11q-17 0 -29 11.5t-12 28.5q0 19 11 30l84 83q11 11 29 11q17 0 28.5 -12t11.5 -29q0 -18 -11 -29zM396 833q-6 -5 -14.5 -8t-15.5 -3q-17 0 -29 11.5t-12 28.5t12 30l82 83q13 11 29 11q17 0 29.5 -12t12.5 -29t-12 -28zM181 160q0 -17 12 -28
l37 -38q12 -12 29 -12h121q19 0 29 12l37 38q5 5 9 12.5t4 15.5v499q0 17 12 29t29 12t29 -12t12 -29v-533q0 -16 -11 -30l-87 -84q-10 -12 -29 -12h-190q-17 0 -28 12l-85 84q-12 15 -12 30v533q0 17 12 29t29 12t29 -12t12 -29v-499z" />
    <glyph glyph-name="uhungarumlaut" unicode="&#x171;" 
d="M220 833q-11 -11 -29 -11q-17 0 -29 11.5t-12 28.5q0 19 11 30l84 83q11 11 29 11q17 0 28.5 -12t11.5 -29q0 -18 -11 -29zM396 833q-6 -5 -14.5 -8t-15.5 -3q-17 0 -29 11.5t-12 28.5t12 30l82 83q13 11 29 11q17 0 29.5 -12t12.5 -29t-12 -28zM181 160q0 -17 12 -28
l37 -38q12 -12 29 -12h121q19 0 29 12l37 38q5 5 9 12.5t4 15.5v499q0 17 12 29t29 12t29 -12t12 -29v-533q0 -16 -11 -30l-87 -84q-10 -12 -29 -12h-190q-17 0 -28 12l-85 84q-12 15 -12 30v533q0 17 12 29t29 12t29 -12t12 -29v-499z" />
    <glyph glyph-name="Uogonek" unicode="&#x172;" 
d="M181 160q0 -17 12 -28l37 -38q12 -12 29 -12h121q19 0 29 12l37 38q5 5 9 12.5t4 15.5v499q0 17 12 29t29 12t29 -12t12 -29v-533q0 -16 -11 -30l-59 -57v-88q0 -13 -9 -23l-58 -58q-5 -5 -9 -13t-4 -16t4 -16.5t9 -13.5l9 -9q5 -5 13.5 -9t16.5 -4t16 4t13 9l6 6
q7 7 20 7q12 0 20.5 -8t8.5 -19q0 -9 -8 -20l-29 -28q-6 -7 -16 -7h-62q-10 0 -16 7l-55 53q-2 4 -4 8.5t-2 8.5v62q0 8 7 18l60 58q5 5 9 14t4 17v21h-191q-17 0 -28 12l-85 84q-12 15 -12 30v533q0 17 12 29t29 12t29 -12t12 -29v-499z" />
    <glyph glyph-name="uogonek" unicode="&#x173;" 
d="M181 160q0 -17 12 -28l37 -38q12 -12 29 -12h121q19 0 29 12l37 38q5 5 9 12.5t4 15.5v499q0 17 12 29t29 12t29 -12t12 -29v-533q0 -16 -11 -30l-59 -57v-88q0 -13 -9 -23l-58 -58q-5 -5 -9 -13t-4 -16t4 -16.5t9 -13.5l9 -9q5 -5 13.5 -9t16.5 -4t16 4t13 9l6 6
q7 7 20 7q12 0 20.5 -8t8.5 -19q0 -9 -8 -20l-29 -28q-6 -7 -16 -7h-62q-10 0 -16 7l-55 53q-2 4 -4 8.5t-2 8.5v62q0 8 7 18l60 58q5 5 9 14t4 17v21h-191q-17 0 -28 12l-85 84q-12 15 -12 30v533q0 17 12 29t29 12t29 -12t12 -29v-499z" />
    <glyph glyph-name="Wcircumflex" unicode="&#x174;" 
d="M251 831q-9 -9 -25 -9q-14 0 -24.5 10t-10.5 24t10 27l95 93q9 10 25 10q15 0 25 -10l94 -93q9 -12 9 -27t-9.5 -24.5t-24.5 -9.5t-26 9l-37 36q-12 14 -31 14q-20 0 -32 -14zM459 659q0 17 12 29t29 12t29 -12t12 -29v-528q0 -18 -11 -29l-91 -91q-11 -11 -29 -11
q-16 0 -30 11l-59 62l-61 -62q-6 -6 -14.5 -8.5t-16.5 -2.5q-18 0 -29 11l-89 91q-12 12 -12 29v528q0 17 12 29t29 12t29 -12t12 -29v-494q0 -19 15.5 -32t32.5 -13q20 0 35 13t15 32v185q0 17 12 29t30 12q17 0 28.5 -12t11.5 -29v-185q0 -19 16 -32t33 -13q19 0 34 13
t15 32v494z" />
    <glyph glyph-name="wcircumflex" unicode="&#x175;" 
d="M251 831q-9 -9 -25 -9q-14 0 -24.5 10t-10.5 24t10 27l95 93q9 10 25 10q15 0 25 -10l94 -93q9 -12 9 -27t-9.5 -24.5t-24.5 -9.5t-26 9l-37 36q-12 14 -31 14q-20 0 -32 -14zM459 659q0 17 12 29t29 12t29 -12t12 -29v-528q0 -18 -11 -29l-91 -91q-11 -11 -29 -11
q-16 0 -30 11l-59 62l-61 -62q-6 -6 -14.5 -8.5t-16.5 -2.5q-18 0 -29 11l-89 91q-12 12 -12 29v528q0 17 12 29t29 12t29 -12t12 -29v-494q0 -19 15.5 -32t32.5 -13q20 0 35 13t15 32v185q0 17 12 29t30 12q17 0 28.5 -12t11.5 -29v-185q0 -19 16 -32t33 -13q19 0 34 13
t15 32v494z" />
    <glyph glyph-name="Ycircumflex" unicode="&#x176;" 
d="M251 831q-9 -9 -25 -9q-14 0 -24.5 10t-10.5 24t10 27l95 93q9 10 25 10q15 0 25 -10l94 -93q9 -12 9 -27t-9.5 -24.5t-24.5 -9.5t-26 9l-37 36q-12 14 -31 14q-20 0 -32 -14zM112 458q-13 14 -13 30v171q0 17 12 29t29 12t29 -12t12 -29v-137q0 -17 12 -28l91 -91
q15 -15 36 -15t36 15l91 91q12 12 12 28v137q0 17 12 29t29 12t29 -12t12 -29v-171q0 -16 -12 -30l-156 -156q-12 -10 -12 -28v-233q0 -17 -12 -29t-29 -12t-29 12t-12 29v233q0 18 -12 28z" />
    <glyph glyph-name="ycircumflex" unicode="&#x177;" 
d="M251 831q-9 -9 -25 -9q-14 0 -24.5 10t-10.5 24t10 27l95 93q9 10 25 10q15 0 25 -10l94 -93q9 -12 9 -27t-9.5 -24.5t-24.5 -9.5t-26 9l-37 36q-12 14 -31 14q-20 0 -32 -14zM112 458q-13 14 -13 30v171q0 17 12 29t29 12t29 -12t12 -29v-137q0 -17 12 -28l91 -91
q15 -15 36 -15t36 15l91 91q12 12 12 28v137q0 17 12 29t29 12t29 -12t12 -29v-171q0 -16 -12 -30l-156 -156q-12 -10 -12 -28v-233q0 -17 -12 -29t-29 -12t-29 12t-12 29v233q0 18 -12 28z" />
    <glyph glyph-name="Ydieresis" unicode="&#x178;" 
d="M399 832q-17 0 -29 11.5t-12 28.5v21q0 17 12 28.5t29 11.5h20q17 0 29 -11.5t12 -28.5v-21q0 -17 -12 -28.5t-29 -11.5h-20zM221 832q-17 0 -28.5 11.5t-11.5 28.5v21q0 17 11.5 28.5t28.5 11.5h20q17 0 29 -11.5t12 -28.5v-21q0 -17 -12 -28.5t-29 -11.5h-20zM112 458
q-13 14 -13 30v171q0 17 12 29t29 12t29 -12t12 -29v-137q0 -17 12 -28l91 -91q15 -15 36 -15t36 15l91 91q12 12 12 28v137q0 17 12 29t29 12t29 -12t12 -29v-171q0 -16 -12 -30l-156 -156q-12 -10 -12 -28v-233q0 -17 -12 -29t-29 -12t-29 12t-12 29v233q0 18 -12 28z" />
    <glyph glyph-name="Zacute" unicode="&#x179;" 
d="M308 833q-13 -11 -29 -11q-17 0 -29.5 11.5t-12.5 28.5t13 30l82 83q13 11 29 11q17 0 29.5 -12t12.5 -29t-12 -28zM446 536q5 5 9 12.5t4 15.5v3q0 21 -15 36t-36 15h-268q-17 0 -29 12t-12 29t12 29t29 12h360q17 0 29 -12t12 -29v-129q0 -19 -11 -30l-336 -336
q-12 -10 -12 -28v-3q0 -21 14.5 -36t35.5 -15h268q17 0 29 -12t12 -29t-12 -29t-29 -12h-360q-17 0 -29 12t-12 29v129q0 18 12 30z" />
    <glyph glyph-name="zacute" unicode="&#x17a;" 
d="M308 833q-13 -11 -29 -11q-17 0 -29.5 11.5t-12.5 28.5t13 30l82 83q13 11 29 11q17 0 29.5 -12t12.5 -29t-12 -28zM446 536q5 5 9 12.5t4 15.5v3q0 21 -15 36t-36 15h-268q-17 0 -29 12t-12 29t12 29t29 12h360q17 0 29 -12t12 -29v-129q0 -19 -11 -30l-336 -336
q-12 -10 -12 -28v-3q0 -21 14.5 -36t35.5 -15h268q17 0 29 -12t12 -29t-12 -29t-29 -12h-360q-17 0 -29 12t-12 29v129q0 18 12 30z" />
    <glyph glyph-name="Zdotaccent" unicode="&#x17b;" 
d="M305 837q-17 0 -28.5 11.5t-11.5 28.5v31q0 17 11.5 28.5t28.5 11.5h31q17 0 28.5 -11.5t11.5 -28.5v-31q0 -17 -11.5 -28.5t-28.5 -11.5h-31zM446 536q5 5 9 12.5t4 15.5v3q0 21 -15 36t-36 15h-268q-17 0 -29 12t-12 29t12 29t29 12h360q17 0 29 -12t12 -29v-129
q0 -19 -11 -30l-336 -336q-12 -10 -12 -28v-3q0 -21 14.5 -36t35.5 -15h268q17 0 29 -12t12 -29t-12 -29t-29 -12h-360q-17 0 -29 12t-12 29v129q0 18 12 30z" />
    <glyph glyph-name="zdotaccent" unicode="&#x17c;" 
d="M305 837q-17 0 -28.5 11.5t-11.5 28.5v31q0 17 11.5 28.5t28.5 11.5h31q17 0 28.5 -11.5t11.5 -28.5v-31q0 -17 -11.5 -28.5t-28.5 -11.5h-31zM446 536q5 5 9 12.5t4 15.5v3q0 21 -15 36t-36 15h-268q-17 0 -29 12t-12 29t12 29t29 12h360q17 0 29 -12t12 -29v-129
q0 -19 -11 -30l-336 -336q-12 -10 -12 -28v-3q0 -21 14.5 -36t35.5 -15h268q17 0 29 -12t12 -29t-12 -29t-29 -12h-360q-17 0 -29 12t-12 29v129q0 18 12 30z" />
    <glyph glyph-name="Zcaron" unicode="&#x17d;" 
d="M288 939q12 -14 33 -14q19 0 31 14l37 37q10 10 25 10q14 0 24.5 -10.5t10.5 -25.5q0 -14 -10 -25l-93 -94q-10 -9 -25 -9q-16 0 -27 9l-93 94q-10 10 -10 25q0 14 10.5 25t24.5 11q16 0 26 -10zM446 536q5 5 9 12.5t4 15.5v3q0 21 -15 36t-36 15h-268q-17 0 -29 12
t-12 29t12 29t29 12h360q17 0 29 -12t12 -29v-129q0 -19 -11 -30l-336 -336q-12 -10 -12 -28v-3q0 -21 14.5 -36t35.5 -15h268q17 0 29 -12t12 -29t-12 -29t-29 -12h-360q-17 0 -29 12t-12 29v129q0 18 12 30z" />
    <glyph glyph-name="zcaron" unicode="&#x17e;" 
d="M288 939q12 -14 33 -14q19 0 31 14l37 37q10 10 25 10q14 0 24.5 -10.5t10.5 -25.5q0 -14 -10 -25l-93 -94q-10 -9 -25 -9q-16 0 -27 9l-93 94q-10 10 -10 25q0 14 10.5 25t24.5 11q16 0 26 -10zM446 536q5 5 9 12.5t4 15.5v3q0 21 -15 36t-36 15h-268q-17 0 -29 12
t-12 29t12 29t29 12h360q17 0 29 -12t12 -29v-129q0 -19 -11 -30l-336 -336q-12 -10 -12 -28v-3q0 -21 14.5 -36t35.5 -15h268q17 0 29 -12t12 -29t-12 -29t-29 -12h-360q-17 0 -29 12t-12 29v129q0 18 12 30z" />
    <glyph glyph-name="uni0218" unicode="&#x218;" 
d="M459 540q0 8 -4 15.5t-9 12.5l-37 38q-10 12 -29 12h-121q-17 0 -29 -12l-37 -38q-12 -10 -12 -28v-70q0 -17 12 -29l36 -38q12 -12 30 -12h156q16 0 29 -12l86 -85q11 -11 11 -29v-139q0 -16 -11 -30l-87 -84q-10 -12 -28 -12h-191q-17 0 -28 12l-85 84q-12 15 -12 30
v47q0 17 12 28.5t29 11.5t29 -11.5t12 -28.5v-13q0 -17 12 -28l37 -38q12 -12 29 -12h121q19 0 29 12l37 38q5 5 9 12.5t4 15.5v70q0 8 -4 16t-9 13l-36 38q-12 12 -30 12h-156q-15 0 -29 12l-84 85q-12 12 -12 29v139q0 15 12 30l85 84q11 12 28 12h191q18 0 28 -12l87 -84
q11 -14 11 -30v-46q0 -17 -12 -29t-29 -12t-29 12t-12 29v12zM308 -256q-13 -11 -29 -11q-17 0 -28 11q-14 14 -14 30t13 29l82 83q6 6 14 9t15 3q19 0 29 -12q13 -13 13 -29q0 -18 -12 -28z" />
    <glyph glyph-name="uni0219" unicode="&#x219;" 
d="M459 540q0 8 -4 15.5t-9 12.5l-37 38q-10 12 -29 12h-121q-17 0 -29 -12l-37 -38q-12 -10 -12 -28v-70q0 -17 12 -29l36 -38q12 -12 30 -12h156q16 0 29 -12l86 -85q11 -11 11 -29v-139q0 -16 -11 -30l-87 -84q-10 -12 -28 -12h-191q-17 0 -28 12l-85 84q-12 15 -12 30
v47q0 17 12 28.5t29 11.5t29 -11.5t12 -28.5v-13q0 -17 12 -28l37 -38q12 -12 29 -12h121q19 0 29 12l37 38q5 5 9 12.5t4 15.5v70q0 8 -4 16t-9 13l-36 38q-12 12 -30 12h-156q-15 0 -29 12l-84 85q-12 12 -12 29v139q0 15 12 30l85 84q11 12 28 12h191q18 0 28 -12l87 -84
q11 -14 11 -30v-46q0 -17 -12 -29t-29 -12t-29 12t-12 29v12zM308 -256q-13 -11 -29 -11q-17 0 -28 11q-14 14 -14 30t13 29l82 83q6 6 14 9t15 3q19 0 29 -12q13 -13 13 -29q0 -18 -12 -28z" />
    <glyph glyph-name="uni021A" unicode="&#x21a;" 
d="M361 41q0 -17 -12 -29t-29 -12t-29 12t-12 29v526q0 21 -14.5 36t-36.5 15h-88q-17 0 -29 12t-12 29t12 29t29 12h360q17 0 29 -12t12 -29t-12 -29t-29 -12h-88q-22 0 -36.5 -15t-14.5 -36v-526zM308 -256q-13 -11 -29 -11q-17 0 -28 11q-14 14 -14 30t13 29l82 83
q6 6 14 9t15 3q19 0 29 -12q13 -13 13 -29q0 -18 -12 -28z" />
    <glyph glyph-name="uni021B" unicode="&#x21b;" 
d="M361 41q0 -17 -12 -29t-29 -12t-29 12t-12 29v526q0 21 -14.5 36t-36.5 15h-88q-17 0 -29 12t-12 29t12 29t29 12h360q17 0 29 -12t12 -29t-12 -29t-29 -12h-88q-22 0 -36.5 -15t-14.5 -36v-526zM308 -256q-13 -11 -29 -11q-17 0 -28 11q-14 14 -14 30t13 29l82 83
q6 6 14 9t15 3q19 0 29 -12q13 -13 13 -29q0 -18 -12 -28z" />
    <glyph glyph-name="uni0237" unicode="&#x237;" 
d="M459 567q0 21 -15 36t-36 15h-89q-17 0 -29 12t-12 29t12 29t29 12h181q17 0 29 -12t12 -29v-532q0 -17 -11 -31l-87 -84q-10 -12 -28 -12h-191q-17 0 -28 12l-85 84q-12 15 -12 31v85q0 17 12 29.5t29 12.5t29 -12.5t12 -29.5v-52q0 -17 12 -28l37 -38q12 -12 29 -12
h121q19 0 29 12l37 38q5 5 9 12.5t4 15.5v407z" />
    <glyph glyph-name="circumflex" unicode="&#x2c6;" 
d="M251 831q-9 -9 -25 -9q-14 0 -24.5 10t-10.5 24t10 27l95 93q9 10 25 10q15 0 25 -10l94 -93q9 -12 9 -27t-9.5 -24.5t-24.5 -9.5t-26 9l-37 36q-12 14 -31 14q-20 0 -32 -14z" />
    <glyph glyph-name="caron" unicode="&#x2c7;" 
d="M288 939q12 -14 33 -14q19 0 31 14l37 37q10 10 25 10q14 0 24.5 -10.5t10.5 -25.5q0 -14 -10 -25l-93 -94q-10 -9 -25 -9q-16 0 -27 9l-93 94q-10 10 -10 25q0 14 10.5 25t24.5 11q16 0 26 -10z" />
    <glyph glyph-name="uni02C9" unicode="&#x2c9;" 
d="M223 832q-17 0 -28.5 11.5t-11.5 28.5t11.5 29.5t28.5 12.5h192q17 0 28.5 -12.5t11.5 -29.5t-11.5 -28.5t-28.5 -11.5h-192z" />
    <glyph glyph-name="breve" unicode="&#x2d8;" 
d="M261 943q0 -17 12 -28l16 -16q11 -12 29 -12h5q18 0 28 12l16 16q12 11 12 28v11q0 13 9.5 22.5t23.5 9.5t23 -9.5t9 -22.5v-43q0 -12 -8 -20l-60 -62q-10 -7 -21 -7h-70q-13 0 -21 7l-60 62q-8 8 -8 20v43q0 13 9 22.5t23 9.5t23.5 -9.5t9.5 -22.5v-11z" />
    <glyph glyph-name="dotaccent" unicode="&#x2d9;" 
d="M304 837q-17 0 -28.5 11.5t-11.5 28.5v31q0 17 11.5 28.5t28.5 11.5h31q17 0 28.5 -11.5t11.5 -28.5v-31q0 -17 -11.5 -28.5t-28.5 -11.5h-31z" />
    <glyph glyph-name="ring" unicode="&#x2da;" 
d="M212 919q0 10 7 17l52 53q8 7 18 7h61q5 0 9.5 -2t8.5 -4l53 -55q6 -6 6 -16v-62q0 -9 -6 -17l-53 -53q-4 -2 -8.5 -4t-9.5 -2h-61q-10 0 -18 7l-52 52q-7 8 -7 17v62zM280 917q-12 -10 -12 -28t12 -29l11 -11q11 -12 29 -12t28 12l11 11q12 11 12 29t-12 28l-11 11
q-10 12 -28 12t-29 -12z" />
    <glyph glyph-name="ogonek" unicode="&#x2db;" 
d="M348 -49q0 -13 -9 -23l-58 -58q-5 -5 -9 -13t-4 -16t4 -16.5t9 -13.5l9 -9q5 -5 13.5 -9t16.5 -4t16 4t13 9l6 6q7 7 20 7q12 0 20.5 -8t8.5 -19q0 -9 -8 -20l-29 -28q-6 -7 -16 -7h-62q-10 0 -16 7l-55 53q-2 4 -4 8.5t-2 8.5v62q0 8 7 18l60 58q5 5 9 14t4 17v57
q0 11 8 19t20 8q11 0 19.5 -8t8.5 -19v-85z" />
    <glyph glyph-name="tilde" unicode="&#x2dc;" 
d="M229 914v-35q0 -14 -9.5 -23.5t-23.5 -9.5q-13 0 -23 9.5t-10 23.5v51q0 12 8 20l41 41q11 8 20 8h51q10 0 21 -8l40 -41q8 -11 8 -20v-24l19 -18h21l18 18v35q0 14 9.5 23.5t23.5 9.5t23.5 -9.5t9.5 -23.5v-50q0 -11 -7 -21l-43 -40q-6 -8 -19 -8h-51q-10 0 -21 8
l-41 40q-7 7 -7 21v23l-19 19h-20z" />
    <glyph glyph-name="hungarumlaut" unicode="&#x2dd;" 
d="M219 833q-11 -11 -29 -11q-17 0 -29 11.5t-12 28.5q0 19 11 30l84 83q11 11 29 11q17 0 28.5 -12t11.5 -29q0 -18 -11 -29zM395 833q-6 -5 -14.5 -8t-15.5 -3q-17 0 -29 11.5t-12 28.5t12 30l82 83q13 11 29 11q17 0 29.5 -12t12.5 -29t-12 -28z" />
    <glyph glyph-name="uni0326" unicode="&#x326;" 
d="M308 -256q-13 -11 -29 -11q-17 0 -28 11q-14 14 -14 30t13 29l82 83q6 6 14 9t15 3q19 0 29 -12q13 -13 13 -29q0 -18 -12 -28z" />
    <glyph glyph-name="uni03BC" unicode="&#x3bc;" 
d="M201 9q-4 4 -10 4q-9 0 -9 -13v-126q0 -17 -12 -29t-29 -12t-29 12t-12 29v630q0 17 12 29t29 12t29 -12t12 -29v-344q0 -17 12 -28l38 -38q12 -12 29 -12h122q17 0 29 12l38 38q12 11 12 28v344q0 17 12 29t29 12t29 -12t12 -29v-378q0 -16 -11 -30l-86 -84
q-10 -12 -30 -12h-191q-11 0 -25 9z" />
    <glyph glyph-name="Wgrave" unicode="&#x1e80;" 
d="M249 916q-12 11 -12 29q0 17 12 29t29 12q16 0 30 -11l83 -83q12 -13 12 -30t-12.5 -28.5t-29.5 -11.5q-18 0 -29 11zM459 659q0 17 12 29t29 12t29 -12t12 -29v-528q0 -18 -11 -29l-91 -91q-11 -11 -29 -11q-16 0 -30 11l-59 62l-61 -62q-6 -6 -14.5 -8.5t-16.5 -2.5
q-18 0 -29 11l-89 91q-12 12 -12 29v528q0 17 12 29t29 12t29 -12t12 -29v-494q0 -19 15.5 -32t32.5 -13q20 0 35 13t15 32v185q0 17 12 29t30 12q17 0 28.5 -12t11.5 -29v-185q0 -19 16 -32t33 -13q19 0 34 13t15 32v494z" />
    <glyph glyph-name="wgrave" unicode="&#x1e81;" 
d="M249 916q-12 11 -12 29q0 17 12 29t29 12q16 0 30 -11l83 -83q12 -13 12 -30t-12.5 -28.5t-29.5 -11.5q-18 0 -29 11zM459 659q0 17 12 29t29 12t29 -12t12 -29v-528q0 -18 -11 -29l-91 -91q-11 -11 -29 -11q-16 0 -30 11l-59 62l-61 -62q-6 -6 -14.5 -8.5t-16.5 -2.5
q-18 0 -29 11l-89 91q-12 12 -12 29v528q0 17 12 29t29 12t29 -12t12 -29v-494q0 -19 15.5 -32t32.5 -13q20 0 35 13t15 32v185q0 17 12 29t30 12q17 0 28.5 -12t11.5 -29v-185q0 -19 16 -32t33 -13q19 0 34 13t15 32v494z" />
    <glyph glyph-name="Wacute" unicode="&#x1e82;" 
d="M308 833q-13 -11 -29 -11q-17 0 -29.5 11.5t-12.5 28.5t13 30l82 83q13 11 29 11q17 0 29.5 -12t12.5 -29t-12 -28zM459 659q0 17 12 29t29 12t29 -12t12 -29v-528q0 -18 -11 -29l-91 -91q-11 -11 -29 -11q-16 0 -30 11l-59 62l-61 -62q-6 -6 -14.5 -8.5t-16.5 -2.5
q-18 0 -29 11l-89 91q-12 12 -12 29v528q0 17 12 29t29 12t29 -12t12 -29v-494q0 -19 15.5 -32t32.5 -13q20 0 35 13t15 32v185q0 17 12 29t30 12q17 0 28.5 -12t11.5 -29v-185q0 -19 16 -32t33 -13q19 0 34 13t15 32v494z" />
    <glyph glyph-name="wacute" unicode="&#x1e83;" 
d="M308 833q-13 -11 -29 -11q-17 0 -29.5 11.5t-12.5 28.5t13 30l82 83q13 11 29 11q17 0 29.5 -12t12.5 -29t-12 -28zM459 659q0 17 12 29t29 12t29 -12t12 -29v-528q0 -18 -11 -29l-91 -91q-11 -11 -29 -11q-16 0 -30 11l-59 62l-61 -62q-6 -6 -14.5 -8.5t-16.5 -2.5
q-18 0 -29 11l-89 91q-12 12 -12 29v528q0 17 12 29t29 12t29 -12t12 -29v-494q0 -19 15.5 -32t32.5 -13q20 0 35 13t15 32v185q0 17 12 29t30 12q17 0 28.5 -12t11.5 -29v-185q0 -19 16 -32t33 -13q19 0 34 13t15 32v494z" />
    <glyph glyph-name="Wdieresis" unicode="&#x1e84;" 
d="M399 832q-17 0 -29 11.5t-12 28.5v21q0 17 12 28.5t29 11.5h20q17 0 29 -11.5t12 -28.5v-21q0 -17 -12 -28.5t-29 -11.5h-20zM221 832q-17 0 -28.5 11.5t-11.5 28.5v21q0 17 11.5 28.5t28.5 11.5h20q17 0 29 -11.5t12 -28.5v-21q0 -17 -12 -28.5t-29 -11.5h-20zM459 659
q0 17 12 29t29 12t29 -12t12 -29v-528q0 -18 -11 -29l-91 -91q-11 -11 -29 -11q-16 0 -30 11l-59 62l-61 -62q-6 -6 -14.5 -8.5t-16.5 -2.5q-18 0 -29 11l-89 91q-12 12 -12 29v528q0 17 12 29t29 12t29 -12t12 -29v-494q0 -19 15.5 -32t32.5 -13q20 0 35 13t15 32v185
q0 17 12 29t30 12q17 0 28.5 -12t11.5 -29v-185q0 -19 16 -32t33 -13q19 0 34 13t15 32v494z" />
    <glyph glyph-name="wdieresis" unicode="&#x1e85;" 
d="M399 832q-17 0 -29 11.5t-12 28.5v21q0 17 12 28.5t29 11.5h20q17 0 29 -11.5t12 -28.5v-21q0 -17 -12 -28.5t-29 -11.5h-20zM221 832q-17 0 -28.5 11.5t-11.5 28.5v21q0 17 11.5 28.5t28.5 11.5h20q17 0 29 -11.5t12 -28.5v-21q0 -17 -12 -28.5t-29 -11.5h-20zM459 659
q0 17 12 29t29 12t29 -12t12 -29v-528q0 -18 -11 -29l-91 -91q-11 -11 -29 -11q-16 0 -30 11l-59 62l-61 -62q-6 -6 -14.5 -8.5t-16.5 -2.5q-18 0 -29 11l-89 91q-12 12 -12 29v528q0 17 12 29t29 12t29 -12t12 -29v-494q0 -19 15.5 -32t32.5 -13q20 0 35 13t15 32v185
q0 17 12 29t30 12q17 0 28.5 -12t11.5 -29v-185q0 -19 16 -32t33 -13q19 0 34 13t15 32v494z" />
    <glyph glyph-name="endash" unicode="&#x2013;" 
d="M480 392q17 0 28.5 -12t11.5 -29t-11.5 -29t-28.5 -12h-320q-17 0 -28.5 12t-11.5 29t11.5 29t28.5 12h320z" />
    <glyph glyph-name="emdash" unicode="&#x2014;" 
d="M500 392q17 0 29 -12t12 -29t-12 -29t-29 -12h-360q-17 0 -29 12t-12 29t12 29t29 12h360z" />
    <glyph glyph-name="quoteleft" unicode="&#x2018;" 
d="M301 479q-17 0 -29 12t-12 29v99q0 16 12 29l42 43q12 9 25 9t23 -9q9 -10 9 -24q0 -13 -9 -24l-43 -43h22q17 0 28.5 -11.5t11.5 -28.5v-40q0 -17 -11.5 -29t-28.5 -12h-40z" />
    <glyph glyph-name="quoteright" unicode="&#x2019;" 
d="M339 700q17 0 29 -12.5t12 -29.5v-98q0 -15 -12 -29l-42 -43q-10 -9 -25 -9q-13 0 -22.5 9.5t-9.5 22.5q0 15 9 25l44 42h-23q-17 0 -28.5 12t-11.5 29v39q0 17 11.5 29.5t28.5 12.5h40z" />
    <glyph glyph-name="quotesinglbase" unicode="&#x201a;" 
d="M339 122q17 0 29 -12.5t12 -29.5v-98q0 -15 -12 -30l-43 -42q-9 -9 -24 -9q-14 0 -23 9t-9 23q0 13 10 24l43 43h-23q-17 0 -28.5 12t-11.5 29v39q0 17 11.5 29.5t28.5 12.5h40z" />
    <glyph glyph-name="quotereversed" unicode="&#x201b;" 
d="M340 700q17 0 28.5 -12.5t11.5 -29.5v-39q0 -17 -11.5 -29t-28.5 -12h-22l43 -42q9 -10 9 -25q0 -14 -9 -23t-23 -9q-13 0 -25 9l-42 43q-12 14 -12 29v98q0 17 12 29.5t29 12.5h40z" />
    <glyph glyph-name="quotedblleft" unicode="&#x201c;" 
d="M195 479q-17 0 -29.5 12t-12.5 29v99q0 16 12 29l43 43q11 9 24 9q14 0 24 -9q9 -10 9 -24q0 -13 -9 -24l-44 -43h22q17 0 29 -11.5t12 -28.5v-40q0 -17 -12 -29t-29 -12h-39zM408 479q-17 0 -29.5 12t-12.5 29v99q0 16 12 29l43 43q11 9 24 9q14 0 24 -9q9 -10 9 -24
q0 -13 -9 -24l-44 -43h22q17 0 29 -11.5t12 -28.5v-40q0 -17 -12 -29t-29 -12h-39z" />
    <glyph glyph-name="quotedblright" unicode="&#x201d;" 
d="M445 700q17 0 29.5 -12.5t12.5 -29.5v-98q0 -15 -12 -29l-43 -43q-10 -9 -24 -9q-13 0 -23 9.5t-10 22.5q0 15 9 25l44 42h-22q-17 0 -29 12t-12 29v39q0 17 12 29.5t29 12.5h39zM232 700q17 0 29.5 -12.5t12.5 -29.5v-98q0 -15 -12 -29l-43 -43q-10 -9 -24 -9
q-13 0 -23 9.5t-10 22.5q0 15 9 25l44 42h-22q-17 0 -29 12t-12 29v39q0 17 12 29.5t29 12.5h39z" />
    <glyph glyph-name="quotedblbase" unicode="&#x201e;" 
d="M445 122q17 0 29.5 -12.5t12.5 -29.5v-98q0 -15 -12 -30l-44 -42q-9 -9 -23 -9t-23.5 9t-9.5 23q0 13 11 24l42 43h-22q-17 0 -29 12t-12 29v39q0 17 12 29.5t29 12.5h39zM232 122q17 0 29.5 -12.5t12.5 -29.5v-98q0 -15 -12 -30l-44 -42q-9 -9 -23 -9t-23.5 9t-9.5 23
q0 13 11 24l42 43h-22q-17 0 -29 12t-12 29v39q0 17 12 29.5t29 12.5h39z" />
    <glyph glyph-name="uni201F" unicode="&#x201f;" 
d="M233 700q17 0 29 -12.5t12 -29.5v-39q0 -17 -12 -29t-29 -12h-22l44 -42q9 -10 9 -25q0 -13 -9.5 -22.5t-23.5 -9.5q-13 0 -24 9l-43 43q-12 14 -12 29v98q0 17 12.5 29.5t29.5 12.5h39zM446 700q17 0 29 -12.5t12 -29.5v-39q0 -17 -12 -29t-29 -12h-22l44 -42
q9 -10 9 -25q0 -13 -9.5 -22.5t-23.5 -9.5q-13 0 -24 9l-43 43q-12 14 -12 29v98q0 17 12.5 29.5t29.5 12.5h39z" />
    <glyph glyph-name="dagger" unicode="&#x2020;" 
d="M360 517q0 -20 20 -20h120q17 0 29 -11.5t12 -28.5q0 -18 -12 -30t-29 -12h-120q-20 0 -20 -20v-354q0 -17 -12 -29t-29 -12t-29 12t-12 29v354q0 20 -20 20h-118q-17 0 -29 12t-12 30q0 17 12 28.5t29 11.5h118q20 0 20 20v142q0 17 12 29t29 12t29 -12t12 -29v-142z
" />
    <glyph glyph-name="daggerdbl" unicode="&#x2021;" 
d="M360 305q0 -20 20 -20h120q17 0 29 -11.5t12 -28.5q0 -18 -12 -30t-29 -12h-120q-20 0 -20 -20v-142q0 -17 -12 -29t-29 -12t-29 12t-12 29v142q0 20 -20 20h-118q-17 0 -29 12t-12 30q0 17 12 28.5t29 11.5h118q20 0 20 20v90q0 20 -20 20h-118q-17 0 -29 12t-12 30
q0 17 12 28.5t29 11.5h118q20 0 20 20v142q0 17 12 29t29 12t29 -12t12 -29v-142q0 -20 20 -20h120q17 0 29 -11.5t12 -28.5q0 -18 -12 -30t-29 -12h-120q-20 0 -20 -20v-90z" />
    <glyph glyph-name="bullet" unicode="&#x2022;" 
d="M212 380q0 11 7 18l52 52q4 3 8.5 5.5t9.5 2.5h61q5 0 9.5 -2.5t8.5 -4.5l53 -54q6 -6 6 -17v-61q0 -10 -6 -18l-53 -52q-8 -7 -18 -7h-61q-5 0 -9.5 2.5t-8.5 5.5l-52 51q-7 8 -7 18v61z" />
    <glyph glyph-name="ellipsis" unicode="&#x2026;" 
d="M102 0q-17 0 -29 12t-12 29v40q0 17 12 29t29 12h40q17 0 29 -12t12 -29v-40q0 -17 -12 -29t-29 -12h-40zM299 0q-17 0 -28.5 12t-11.5 29v40q0 17 11.5 29t28.5 12h41q17 0 28.5 -12t11.5 -29v-40q0 -17 -11.5 -29t-28.5 -12h-41zM497 0q-17 0 -28.5 12t-11.5 29v40
q0 17 11.5 29t28.5 12h41q17 0 28.5 -12t11.5 -29v-40q0 -17 -11.5 -29t-28.5 -12h-41z" />
    <glyph glyph-name="guilsinglleft" unicode="&#x2039;" 
d="M365 533q10 10 28 10q17 0 30.5 -12.5t13.5 -29.5q0 -14 -11 -28l-88 -86q-17 -17 -17 -37t18 -38l85 -83q10 -13 10 -29q0 -17 -11 -29.5t-28 -12.5q-20 0 -31 11l-150 151q-12 14 -12 30t11 30z" />
    <glyph glyph-name="guilsinglright" unicode="&#x203a;" 
d="M426 380q11 -14 11 -30t-12 -30l-150 -151q-11 -11 -30 -11q-18 0 -29 12.5t-11 29.5q0 16 10 29l85 83q19 19 19 38t-18 37l-88 86q-11 14 -11 28q0 17 14 29.5t31 12.5t27 -10z" />
    <glyph glyph-name="fraction" unicode="&#x2044;" 
d="M459 659q0 17 12 29t29 12t29 -12t12 -29v-129q0 -10 -3 -16.5t-9 -13.5l-336 -336q-12 -10 -12 -28v-95q0 -17 -12 -29t-29 -12t-29 12t-12 29v129q0 10 3.5 16.5t9.5 13.5l334 336q5 5 9 12.5t4 15.5v95z" />
    <glyph glyph-name="franc" unicode="&#x20a3;" 
d="M99 659q0 17 12 29t29 12h359q17 0 29 -12t12 -29t-12 -29t-29 -12h-268q-21 0 -35.5 -15t-14.5 -36v-125q0 -21 14.5 -36t35.5 -15h199q17 0 29 -12t12 -29t-12 -29t-29 -12h-199q-21 0 -35.5 -15t-14.5 -36v-32q0 -20 20 -20h141q17 0 28.5 -12t11.5 -29t-11.5 -29
t-28.5 -12h-141q-20 0 -20 -20v-64q0 -17 -12 -29t-29 -12t-29 12t-12 29v64q0 20 -20 20h-10q-17 0 -29 12t-12 29t12 29t29 12h10q20 0 20 20v433z" />
    <glyph glyph-name="lira" unicode="&#x20a4;" 
d="M192 574q0 16 11 30l86 84q11 12 29 12h97q18 0 28 -12l87 -84q11 -14 11 -30v-46q0 -17 -12 -29t-29 -12t-29 12t-12 29v12q0 8 -4.5 16t-9.5 13l-35 36q-5 5 -13.5 9t-16.5 4h-28q-8 0 -16 -4t-13 -9l-36 -36q-5 -5 -9 -13t-4 -16v-93q0 -20 20 -20h159
q17 0 29.5 -11.5t12.5 -28.5t-12.5 -29.5t-29.5 -12.5h-159q-20 0 -20 -20v-26q0 -20 20 -20h159q17 0 29.5 -12.5t12.5 -29.5t-12.5 -28.5t-29.5 -11.5h-159q-20 0 -20 -20v-74q0 -21 20 -21h206q17 0 29 -12t12 -29t-12 -29t-29 -12h-360q-17 0 -29 12t-12 29t12 29t29 12
h31q21 0 21 21v74q0 20 -21 20h-31q-17 0 -29 11.5t-12 28.5t12 29.5t29 12.5h31q21 0 21 20v26q0 20 -21 20h-31q-17 0 -29 12.5t-12 29.5t12 28.5t29 11.5h31q21 0 21 20v127z" />
    <glyph glyph-name="Euro" unicode="&#x20ac;" 
d="M459 541q-2 9 -6 16.5t-9 11.5l-35 36q-5 5 -13.5 9t-16.5 4h-48q-8 0 -16.5 -4t-13.5 -9l-35 -36q-5 -5 -9 -13t-4 -16v-54q0 -20 20 -20h129q17 0 29 -12t12 -29t-12 -29t-29 -12h-129q-9 0 -14.5 -6t-5.5 -15v-26q0 -9 5.5 -15t14.5 -6h129q17 0 29 -12t12 -29
t-12 -29t-29 -12h-129q-20 0 -20 -20v-54q0 -8 4 -16t9 -13l35 -36q5 -5 13.5 -9t16.5 -4h48q8 0 16.5 4t13.5 9l35 36q5 4 9 11.5t6 16.5q2 15 13.5 24.5t26.5 9.5q17 0 29 -12t12 -29v-25q0 -17 -11 -31l-87 -84q-10 -12 -28 -12h-118q-17 0 -28 12l-85 84q-12 15 -12 31
v87q0 20 -20 20h-11q-17 0 -29 12t-12 29t12 29t29 12h11q9 0 14.5 6t5.5 15v26q0 9 -5.5 15t-14.5 6h-11q-17 0 -29 12t-12 29t12 29t29 12h11q20 0 20 20v88q0 15 12 30l85 84q11 12 28 12h118q18 0 28 -12l87 -84q11 -14 11 -30v-26q0 -17 -12 -29t-29 -12
q-15 0 -26.5 9.5t-13.5 24.5z" />
    <glyph glyph-name="trademark" unicode="&#x2122;" 
d="M261 700q7 0 12 -4.5t5 -12.5q0 -11 -6 -16t-15 -5h-31q-19 0 -19 -17v-146q0 -8 -5 -12.5t-12 -4.5q-8 0 -14 4.5t-6 12.5v146q0 17 -18 17h-31q-9 0 -15.5 5t-6.5 16q0 17 19 17h143zM469 609q-4 -4 -4 -14v-23q0 -5 -3.5 -11.5t-12.5 -6.5q-8 0 -11.5 6.5t-3.5 11.5
v23q0 11 -3 14l-26 21q-1 1 -4 1t-3 -6v-126q0 -17 -19 -17q-7 0 -13 4.5t-6 12.5v184q0 8 6 12.5t13 4.5q9 0 16 -7l41 -44q6 -6 13 -6q8 0 14 6l42 44q6 7 15 7q8 0 14.5 -4.5t6.5 -12.5v-184q0 -8 -6.5 -12.5t-14.5 -4.5q-7 0 -12.5 4.5t-5.5 12.5v126q0 6 -3 6t-4 -1z
" />
    <glyph glyph-name="arrowleft" unicode="&#x2190;" 
d="M377 172q12 -10 12 -29q0 -17 -12 -29.5t-29 -12.5q-18 0 -30 12l-207 207q-12 12 -12 30q0 21 17 33l203 204q12 12 28 12q17 0 30.5 -12.5t13.5 -29.5t-12 -28l-118 -119q-5 -3 -5 -9q0 -9 13 -9h231q17 0 29 -12t12 -29t-12 -29t-29 -12h-234q-13 0 -13 -9q0 -6 5 -9z
" />
    <glyph glyph-name="arrowup" unicode="&#x2191;" 
d="M142 292q-11 -11 -29 -11t-30 11.5t-12 29.5q0 19 11 30l207 207q11 11 31 11q24 0 34 -16l204 -203q11 -11 11 -28t-12 -30.5t-29 -13.5q-18 0 -29 11l-119 119q-3 5 -9 5q-9 0 -9 -13v-232q0 -17 -11.5 -28.5t-28.5 -11.5q-18 0 -30 11.5t-12 28.5v235q0 13 -9 13
q-6 0 -9 -5z" />
    <glyph glyph-name="arrowright" unicode="&#x2192;" 
d="M382 292q6 3 6 9q0 9 -14 9h-234q-17 0 -29 12t-12 29t12 29t29 12h231q13 0 13 9q0 6 -5 9l-118 119q-11 11 -11 28t13 29.5t30 12.5q16 0 29 -12l202 -204q17 -11 17 -33q0 -19 -11 -30l-207 -207q-12 -12 -31 -12q-17 0 -28.5 12.5t-11.5 29.5q0 18 11 29z" />
    <glyph glyph-name="arrowdown" unicode="&#x2193;" 
d="M262 287q3 -5 9 -5q9 0 9 13v235q0 17 12 28.5t30 11.5q17 0 28.5 -11.5t11.5 -28.5v-232q0 -13 9 -13q6 0 9 5l119 119q11 11 29 11q17 0 29 -13.5t12 -30.5t-11 -28l-204 -203q-10 -16 -34 -16q-20 0 -31 11l-207 207q-11 11 -11 30q0 18 12 29.5t30 11.5t29 -11z" />
    <glyph glyph-name="minus" unicode="&#x2212;" 
d="M480 392q17 0 28.5 -12t11.5 -29t-11.5 -29t-28.5 -12h-320q-17 0 -28.5 12t-11.5 29t11.5 29t28.5 12h320z" />
    <glyph glyph-name="uni2215" unicode="&#x2215;" 
d="M459 659q0 17 12 29t29 12t29 -12t12 -29v-129q0 -10 -3 -16.5t-9 -13.5l-336 -336q-12 -10 -12 -28v-95q0 -17 -12 -29t-29 -12t-29 12t-12 29v129q0 10 3.5 16.5t9.5 13.5l334 336q5 5 9 12.5t4 15.5v95z" />
    <glyph glyph-name="uni2219" unicode="&#x2219;" 
d="M212 380q0 11 7 18l52 52q4 3 8.5 5.5t9.5 2.5h61q5 0 9.5 -2.5t8.5 -4.5l53 -54q6 -6 6 -17v-61q0 -10 -6 -18l-53 -52q-8 -7 -18 -7h-61q-5 0 -9.5 2.5t-8.5 5.5l-52 51q-7 8 -7 18v61z" />
    <glyph glyph-name="triagup" unicode="&#x25b2;" 
d="M111 205q-17 1 -28.5 13.5t-11.5 29.5t11 28l204 203q10 16 35 16q19 0 30 -11l207 -207q11 -11 11 -30q0 -18 -12 -29.5t-30 -12.5h-416z" />
    <glyph glyph-name="triagrt" unicode="&#x25ba;" 
d="M175 559q1 16 13 28t29 12q16 0 29 -12l202 -204q17 -11 17 -34q0 -19 -12 -30l-206 -207q-13 -12 -31 -12q-17 0 -28.5 12.5t-12.5 29.5v417z" />
    <glyph glyph-name="triagdn" unicode="&#x25bc;" 
d="M527 495q18 -1 30 -12.5t12 -29.5q0 -19 -11 -30l-207 -207q-11 -11 -30 -11q-25 0 -35 16l-204 203q-11 11 -11 28t11.5 29.5t28.5 13.5h416z" />
    <glyph glyph-name="triaglf" unicode="&#x25c4;" 
d="M465 142q-1 -17 -13 -29.5t-29 -12.5q-18 0 -30 12l-207 207q-11 11 -11 30q0 24 16 34l203 204q12 12 28 12q17 0 29.5 -12t13.5 -28v-417z" />
    <glyph glyph-name="uni2400" horiz-adv-x="0" 
 />
  </font>
</defs>
</svg>
