<?xml version="1.0" standalone="no"?>
<!DOCTYPE svg PUBLIC "-//W3C//DTD SVG 1.1//EN" "http://www.w3.org/Graphics/SVG/1.1/DTD/svg11.dtd" >
<svg xmlns="http://www.w3.org/2000/svg" xmlns:xlink="http://www.w3.org/1999/xlink" version="1.1">
<metadata>
Created by FontForge 20170731 at Sat Dec 18 19:06:43 2021
 By Aleksey,,,
Copyright (c) 2021 by ATK Studio. All rights reserved.
</metadata>
<defs>
<font id="ProtoMonoRegularShadow" horiz-adv-x="640" >
  <font-face 
    font-family="Proto Mono Regular Shadow"
    font-weight="400"
    font-stretch="normal"
    units-per-em="1000"
    panose-1="0 0 0 0 0 0 0 0 0 0"
    ascent="800"
    descent="-200"
    x-height="710"
    cap-height="710"
    bbox="18 -309 657 1005"
    underline-thickness="50"
    underline-position="-175"
    unicode-range="U+000D-25C4"
  />
<missing-glyph horiz-adv-x="500" 
 />
    <glyph glyph-name=".notdef" horiz-adv-x="500" 
 />
    <glyph glyph-name=".null" horiz-adv-x="0" 
 />
    <glyph glyph-name="uni000D" unicode="&#xd;" horiz-adv-x="250" 
 />
    <glyph glyph-name="uni2400" horiz-adv-x="0" 
 />
    <glyph glyph-name="uni2400" horiz-adv-x="0" 
 />
    <glyph glyph-name="space" unicode=" " 
 />
    <glyph glyph-name="exclam" unicode="!" 
d="M411 210q0 -23 -16.5 -39t-39.5 -16q-18 0 -32.5 10.5t-19.5 27.5q-17 5 -27.5 19.5t-10.5 32.5v410q0 23 16 39t39 16q18 0 33 -10.5t20 -27.5q17 -6 27.5 -20t10.5 -32v-410zM366 655q0 19 -13.5 32t-32.5 13t-32 -13t-13 -32v-410q0 -19 13 -32t32 -13t32.5 13
t13.5 32v410zM335 -45q-18 0 -32.5 10.5t-19.5 27.5q-17 5 -27.5 19.5t-10.5 32.5v40q0 23 16 39t39 16h40q18 0 32.5 -10.5t19.5 -27.5q17 -5 27.5 -19.5t10.5 -32.5v-40q0 -23 -16 -39t-39 -16h-40zM340 0q19 0 32 13t13 32v40q0 19 -13 32t-32 13h-40q-19 0 -32 -13
t-13 -32v-40q0 -19 13 -32t32 -13h40z" />
    <glyph glyph-name="quotedbl" unicode="&#x22;" 
d="M320 481q0 -23 -16.5 -39t-39.5 -16q-18 0 -32.5 10.5t-19.5 27.5q-17 5 -27.5 19.5t-10.5 32.5v139q0 23 16 39t39 16q18 0 33 -10.5t20 -27.5q17 -6 27.5 -20t10.5 -32v-139zM502 481q0 -23 -16.5 -39t-39.5 -16q-18 0 -32.5 10.5t-19.5 27.5q-17 5 -27.5 19.5
t-10.5 32.5v139q0 23 16 39t39 16q18 0 33 -10.5t20 -27.5q17 -6 27.5 -20t10.5 -32v-139zM275 655q0 19 -13.5 32t-32.5 13t-32 -13t-13 -32v-139q0 -19 13 -32t32 -13t32.5 13t13.5 32v139zM457 655q0 19 -13.5 32t-32.5 13t-32 -13t-13 -32v-139q0 -19 13 -32t32 -13
t32.5 13t13.5 32v139z" />
    <glyph glyph-name="numbersign" unicode="#" 
d="M156 161q-22 11 -30 33q-17 5 -27.5 19.5t-10.5 32.5q0 23 16 39.5t39 16.5h23q7 0 7 6q2 12 3.5 26.5t3.5 29.5h-2q-18 0 -32 10.5t-20 27.5q-17 5 -27.5 20t-10.5 33q0 23 16 39t39 16h47q7 0 7 6l15 144q3 26 21.5 37.5t39.5 11.5q17 0 29 -11t17 -26q20 -5 30 -23.5
t8 -35.5l-10 -103h17q7 0 7 6l15 144q3 26 21.5 37.5t39.5 11.5q17 0 29 -11t18 -26q19 -5 29.5 -23.5t8.5 -35.5l-12 -108q24 -11 30 -33q17 -5 27.5 -19.5t10.5 -32.5q0 -23 -16 -39.5t-39 -16.5h-23q-5 0 -7 -6q-1 -12 -2.5 -27t-3.5 -29h1q19 0 33 -10.5t19 -27.5
q17 -5 27.5 -20t10.5 -33q0 -23 -16 -39t-39 -16h-47q-6 0 -7 -7l-18 -147q-3 -25 -21 -36.5t-40 -11.5q-17 0 -29 11t-17 25q-20 5 -30 24t-8 36l13 106h-17q-6 0 -7 -7l-18 -147q-3 -25 -21 -36.5t-40 -11.5q-17 0 -29.5 11t-17.5 26q-19 5 -29.5 23t-8.5 36zM151 49v-5
q0 -17 11.5 -31t28.5 -14h5q17 0 30.5 11.5t15.5 28.5l18 147q2 15 17 15h53q13 0 13 -13v-2l-17 -137v-5q0 -17 11 -31t28 -14h5q17 0 30.5 11.5t15.5 28.5l18 147q2 15 17 15h47q19 0 32 13t13 32q0 20 -13 33t-32 13h-36q-13 0 -13 13v2l9 87q2 15 17 15h23q19 0 32 13.5
t13 32.5t-13 32t-32 13h-13q-13 0 -13 13v2l15 134v5q0 17 -11.5 30t-28.5 15h-5q-17 0 -30.5 -11.5t-15.5 -28.5l-15 -144q-1 -15 -17 -15h-53q-13 0 -13 13v2l14 134v5q0 17 -11 31t-28 14h-5q-17 0 -30.5 -11.5t-15.5 -28.5l-15 -144q-1 -15 -17 -15h-47q-19 0 -32 -13
t-13 -32t13 -32.5t32 -13.5h36q13 0 13 -13v-2l-9 -87q-1 -15 -17 -15h-23q-19 0 -32 -13t-13 -33q0 -19 13 -32t32 -13h13q13 0 13 -13v-2zM287 292q-13 0 -13 13v2l10 87q2 15 17 15h53q13 0 13 -13v-2l-10 -87q-1 -15 -17 -15h-53zM336 364q-5 0 -7 -6q-1 -11 -3 -26
l-4 -30h18q7 0 7 6q2 11 3.5 26t3.5 30h-18z" />
    <glyph glyph-name="dollar" unicode="$" 
d="M265 260h-3q-23 0 -39 16l-119 119q-16 16 -16 39v137q0 23 16 39l84 83q8 8 17.5 12t18.5 5q8 1 17 0.5t19 -0.5q5 0 5 5v14q0 23 16 39t39 16q19 0 33.5 -10.5t19.5 -27.5q27 -9 36 -36h8q9 -1 18.5 -5t17.5 -12l119 -118q10 -9 13 -21t4 -23t0 -21.5t-1 -19.5
q0 -23 -16 -39t-39 -16q-18 0 -33 10.5t-20 27.5q-23 7 -30.5 24t-7.5 38q0 6 -1 8q-1 8 -6 12l-2 2q-7 7 -17 7q-5 0 -5 -4v-154h3q22 0 39 -17l119 -119q16 -16 16 -39v-136q0 -25 -16 -40l-84 -83q-8 -9 -17 -12.5t-19 -4.5q-8 -2 -17 -1t-19 1q-5 0 -5 -5v-14
q0 -24 -16.5 -39.5t-39.5 -15.5q-18 0 -32.5 10.5t-19.5 27.5q-27 8 -35 35q-7 0 -9 1q-9 1 -18 4.5t-18 12.5l-84 83q-1 1 -1.5 2t-1.5 2l-32 31q-9 9 -12.5 21t-4.5 23t0 21.5t1 19.5q0 23 16 39t39 16q18 0 33 -10.5t20 -27.5q23 -8 30.5 -24t7.5 -38q1 -2 1 -8
q2 -7 6 -12l2 -2q7 -7 17 -7q5 0 5 4v155zM227 700q-20 0 -32 -14l-84 -83q-13 -13 -13 -32v-137q0 -19 13 -32l84 -84q13 -13 32 -13h33q15 0 15 -15v-185q0 -14 -15 -14q-14 0 -24 10l-37 37q-10 10 -10 25v12q0 19 -13.5 32t-32.5 13t-32 -13t-13 -32v-45q0 -20 13 -33
l84 -83q12 -14 32 -14h33q15 0 15 -15v-14q0 -19 13 -32t32 -13q20 0 33 13t13 32v14q0 15 15 15h33q20 0 32 14l84 83q13 13 13 33v136q0 19 -13 32l-84 84q-6 6 -14.5 10t-17.5 4h-33q-15 0 -15 15v184q0 14 15 14q14 0 24 -10l37 -37q10 -10 10 -25v-12q0 -19 13.5 -32
t32.5 -13t32 13t13 32v46q0 19 -13 32l-84 83q-12 14 -32 14h-33q-15 0 -15 15v14q0 19 -13 32t-33 13q-19 0 -32 -13t-13 -32v-14q0 -15 -15 -15h-33zM275 410q0 -14 -15 -14q-14 0 -24 10l-37 37q-10 10 -10 25v69q0 15 10 25l37 37q10 10 25 10q14 0 14 -14v-185z
M265 543l-24 -23q-7 -8 -7 -18v-69q0 -11 7 -18l2 -2q7 -7 17 -7q5 0 5 4v133zM366 291q0 14 15 14q14 0 24 -10l37 -38q10 -10 10 -25v-69q0 -15 -10 -25l-37 -37q-10 -10 -25 -10q-14 0 -14 14v186zM429 256q-7 4 -13 4q-5 0 -5 -4v-135l24 24q7 7 7 18v69q0 10 -7 18z
" />
    <glyph glyph-name="percent" unicode="%" 
d="M588 492q0 -24 -17 -39l-330 -331q-7 -8 -7 -18v-94q0 -23 -16.5 -39t-39.5 -16q-18 0 -32.5 10.5t-19.5 27.5q-17 5 -27.5 19.5t-10.5 32.5v128q0 22 17 39l330 331q7 7 7 18v94q0 23 16.5 39t39.5 16q18 0 32.5 -10.5t19.5 -27.5q17 -5 27.5 -19.5t10.5 -32.5v-128z
M178 505q-18 0 -32.5 10.5t-19.5 27.5q-17 5 -27.5 19.5t-10.5 32.5v60q0 23 16 39t39 16h60q18 0 32.5 -10.5t19.5 -27.5q17 -5 27.5 -19.5t10.5 -32.5v-60q0 -23 -16 -39t-39 -16h-60zM452 561q0 -15 -10 -25l-330 -331q-14 -14 -14 -32v-128q0 -19 13 -32t32 -13t32.5 13
t13.5 32v94q0 15 10 25l330 331q14 14 14 32v128q0 19 -13 32t-32 13t-32.5 -13t-13.5 -32v-94zM203 550q19 0 32 13t13 32v60q0 19 -13 32t-32 13h-60q-19 0 -32 -13t-13 -32v-60q0 -19 13 -32t32 -13h60zM473 -45q-18 0 -32.5 10.5t-19.5 27.5q-17 5 -27.5 19.5
t-10.5 32.5v60q0 23 16 39t39 16h60q18 0 32.5 -10.5t19.5 -27.5q17 -5 27.5 -19.5t10.5 -32.5v-60q0 -23 -16 -39t-39 -16h-60zM498 0q19 0 32 13t13 32v60q0 19 -13 32t-32 13h-60q-19 0 -32 -13t-13 -32v-60q0 -19 13 -32t32 -13h60z" />
    <glyph glyph-name="ampersand" unicode="&#x26;" 
d="M262 -45q-22 0 -39 17l-84 83q-1 1 -1.5 2t-1.5 2l-32 31q-16 16 -16 40v135q0 17 9 30q5 8 10 13l5 4q9 8 15.5 16t6.5 22q0 13 -6.5 21t-15.5 16l-5 4q-8 9 -10 13q-9 14 -9 30v137q0 23 16 39l84 83q17 17 39 17h93q19 0 33.5 -10.5t19.5 -27.5q17 -5 27.5 -19
t10.5 -33q0 -23 -16.5 -39.5t-39.5 -16.5h-59q-10 0 -18 -7l-19 -19t-13 -14q-9 -9 -11 -17q-2 -6 -2 -23q1 -9 1 -21.5v-29.5q0 -12 8 -18l5 -6q7 -4 14 -4h131q2 0 3 0.5t2 5.5q1 3 1 11q-1 3 -1 6.5v5.5q0 23 16 39.5t39 16.5q18 0 32.5 -10.5t20.5 -27.5q15 -5 25.5 -18
t12.5 -29q16 -2 28.5 -12.5t17.5 -25.5q17 -6 27.5 -20t10.5 -32q0 -23 -16.5 -39.5t-39.5 -16.5h-22q-6 -1 -6 -5v-159q0 -25 -17 -40l-83 -83q-15 -17 -40 -17h-141zM498 289q0 15 15 15h23q19 0 32.5 13.5t13.5 32.5t-13.5 32t-32.5 13h-23q-15 0 -15 15v24
q0 19 -13.5 32.5t-32.5 13.5t-32 -13.5t-13 -32.5v-24q0 -15 -15 -15h-131q-15 0 -25 10l-37 38q-10 10 -10 25v69q0 15 10 25l37 37q10 10 25 10h59q20 0 33 13.5t13 32.5t-13 32t-33 13h-93q-20 0 -32 -14l-84 -83q-13 -13 -13 -32v-137q0 -19 13 -32l20 -20
q13 -13 13 -32q0 -20 -13 -33l-20 -20q-13 -13 -13 -32v-135q0 -20 13 -33l84 -83q12 -14 32 -14h141q19 0 33 14l83 83q14 14 14 33v159zM407 163q0 -15 -10 -25l-38 -37q-10 -10 -25 -10h-73q-15 0 -25 10l-37 37q-10 10 -10 25v68q0 15 10 25l37 38q10 10 25 10h131
q15 0 15 -15v-126zM397 259h-101q-10 0 -17 -7l-37 -38q-8 -8 -8 -18v-68q0 -11 7 -18l2 -2q7 -7 18 -7h73q10 0 18 7l38 37q7 7 7 18v96z" />
    <glyph glyph-name="quotesingle" unicode="'" 
d="M411 481q0 -23 -16.5 -39t-39.5 -16q-18 0 -32.5 10.5t-19.5 27.5q-17 5 -27.5 19.5t-10.5 32.5v139q0 23 16 39t39 16q18 0 33 -10.5t20 -27.5q17 -6 27.5 -20t10.5 -32v-139zM366 655q0 19 -13.5 32t-32.5 13t-32 -13t-13 -32v-139q0 -19 13 -32t32 -13t32.5 13
t13.5 32v139z" />
    <glyph glyph-name="parenleft" unicode="(" 
d="M364 -91q-22 0 -39 17l-84 83q-1 1 -1.5 2t-1.5 2l-32 31q-16 16 -16 39v533q0 23 16 39l84 83q17 17 39 17h66q18 0 32.5 -10.5t19.5 -27.5q17 -5 27.5 -19.5t10.5 -32.5q0 -23 -16 -39.5t-39 -16.5h-32q-10 0 -18 -7l-37 -37q-7 -8 -7 -18v-465q0 -11 7 -18l2 -2
q7 -7 21 -7q8 -1 15 -0.5t14 0.5q18 0 32.5 -10.5t19.5 -27.5q17 -5 27.5 -19.5t10.5 -32.5q0 -23 -16 -39.5t-39 -16.5h-66zM363 45q-15 0 -25 10l-37 37q-10 10 -10 25v465q0 15 10 25l37 37q10 10 25 10h32q19 0 32 13.5t13 32.5t-13 32t-32 13h-66q-20 0 -32 -14
l-84 -83q-13 -13 -13 -32v-533q0 -19 13 -32l84 -83q12 -14 32 -14h66q19 0 32 13.5t13 32.5t-13 32t-32 13h-32z" />
    <glyph glyph-name="parenright" unicode=")" 
d="M330 602q-6 6 -20 7q-8 1 -15.5 0.5t-14.5 -0.5q-18 0 -32 10.5t-20 27.5q-17 5 -27.5 20t-10.5 33q0 23 16 39t39 16h66q22 0 39 -17l119 -118q16 -16 16 -39v-533q0 -24 -16 -39l-84 -83q-15 -17 -39 -17h-66q-18 0 -32 10.5t-20 27.5q-17 5 -27.5 20t-10.5 33
q0 23 16 39t39 16h32q11 0 18 7l37 37q7 7 7 18v465q0 11 -7 18zM245 45q-19 0 -32 -13t-13 -32t13 -32.5t32 -13.5h66q20 0 32 14l84 83q13 13 13 32v533q0 19 -13 32l-84 83q-12 14 -32 14h-66q-19 0 -32 -13t-13 -32t13 -32.5t32 -13.5h32q15 0 25 -10l37 -37
q10 -10 10 -25v-465q0 -15 -10 -25l-37 -37q-10 -10 -25 -10h-32z" />
    <glyph glyph-name="asterisk" unicode="*" 
d="M223 544q-3 4 -5.5 7.5t-4.5 8.5l-2 2q-11 6 -23 17t-12 30q0 18 13 30t30 12q11 0 21 -5t18 -10q5 -2 8 -4.5t7 -4.5q2 -2 4 -2v46q2 14 12.5 26.5t30.5 12.5t30 -11t13 -25q26 -4 34 -29q5 2 11 4t13 2q17 0 28.5 -10t13.5 -26q16 -2 26 -13.5t10 -28.5
q0 -20 -11.5 -30.5t-22.5 -16.5q-4 -2 -6.5 -3t-4.5 -2q4 -5 5.5 -9t3.5 -9q5 -3 9 -5t6 -4q21 -10 21 -37q0 -19 -12 -31t-31 -12q-11 0 -21 5t-18 10q-4 2 -7.5 4.5t-6.5 4.5q-1 1 -3 1l-1 1q0 -5 0.5 -11t0.5 -12q0 -12 -1.5 -23t-6.5 -19.5t-13.5 -14t-23.5 -5.5
q-20 0 -29.5 10.5t-12.5 24.5q-15 2 -23 10.5t-11 19.5q-12 -6 -25 -6q-16 0 -28 9.5t-14 26.5q-15 2 -25.5 13t-10.5 28q0 19 12 30t23 17q6 5 12 6zM236 637q-7 4 -17 4q-14 0 -23.5 -9t-9.5 -23q0 -19 17 -30l37 -22q6 -3 6 -7t-6 -7l-37 -22q-17 -11 -17 -30
q0 -14 9.5 -23t23.5 -9q10 0 17 4l37 21l6 2q7 0 7 -10v-42q0 -14 10 -24t24 -10t24 10t10 24v42q0 10 7 10l6 -2l37 -21q7 -4 17 -4q15 0 24 9.5t9 23.5q0 20 -16 29l-37 22q-6 3 -6 7t6 7l37 22q16 9 16 29q0 14 -9.5 23.5t-23.5 9.5q-10 0 -17 -4l-37 -21l-6 -2
q-7 0 -7 10v42q0 14 -10 24t-24 10t-24 -10t-10 -24v-42q0 -10 -7 -10l-6 2z" />
    <glyph glyph-name="plus" unicode="+" 
d="M446 258q-14 0 -24.5 -10.5t-10.5 -24.5v-45q0 -24 -16.5 -39.5t-39.5 -15.5q-18 0 -32.5 10.5t-19.5 27.5q-17 5 -27.5 19.5t-10.5 32.5v45h-45q-19 0 -33 10.5t-19 27.5q-17 5 -27.5 19.5t-10.5 33.5q0 23 16 39t39 16h45q14 0 24.5 10.5t10.5 24.5v45q0 23 16 39
t39 16q19 0 33.5 -10.5t19.5 -27.5q17 -5 27.5 -19t10.5 -33v-45h44q18 0 32.5 -10.5t19.5 -27.5q17 -5 27.5 -19.5t10.5 -32.5q0 -23 -15.5 -39.5t-39.5 -16.5h-44zM411 394q-19 0 -32 13t-13 32v45q0 19 -13 32t-33 13q-19 0 -32 -13t-13 -32v-45q0 -19 -13 -32t-32 -13
h-45q-19 0 -32 -13t-13 -32q0 -20 13 -33t32 -13h45q19 0 32 -13t13 -32v-45q0 -19 13 -32t32 -13q20 0 33 13t13 32v45q0 19 13 32t32 13h44q19 0 32 13t13 33q0 19 -13 32t-32 13h-44z" />
    <glyph glyph-name="comma" unicode="," 
d="M392 102q17 -6 27.5 -20.5t10.5 -32.5v-97q0 -24 -17 -39l-42 -42q-14 -14 -34 -14q-17 0 -29.5 10t-15.5 26q-16 4 -26.5 16.5t-10.5 29.5q0 20 14 34l15 15q0 1 -1 1v3q-16 6 -27 18.5t-11 34.5v39q0 23 16 39.5t39 16.5h39q18 0 32.5 -10.5t20.5 -27.5zM300 130
q-19 0 -32 -13.5t-13 -32.5v-39q0 -19 13 -32t32 -13h10l-34 -34q-11 -14 -11 -27q0 -15 11 -26t26 -11q16 0 27 11l42 42q14 14 14 32v97q0 19 -13.5 32.5t-32.5 13.5h-39z" />
    <glyph glyph-name="hyphen" unicode="-" 
d="M507 368q17 -5 27.5 -19.5t10.5 -32.5q0 -23 -15.5 -39.5t-39.5 -16.5h-270q-19 0 -33 10.5t-19 27.5q-17 5 -27.5 19.5t-10.5 33.5q0 23 16 39t39 16h270q18 0 32.5 -10.5t19.5 -27.5zM185 396q-19 0 -32 -13t-13 -32q0 -20 13 -33t32 -13h270q19 0 32 13t13 33
q0 19 -13 32t-32 13h-270z" />
    <glyph glyph-name="period" unicode="." 
d="M330 -45q-18 0 -32.5 10.5t-19.5 27.5q-17 5 -27.5 19.5t-10.5 32.5v50q0 23 16 39t39 16h50q18 0 32.5 -10.5t19.5 -27.5q17 -5 27.5 -19.5t10.5 -32.5v-50q0 -23 -16 -39t-39 -16h-50zM345 0q19 0 32 13t13 32v50q0 19 -13 32t-32 13h-50q-19 0 -32 -13t-13 -32v-50
q0 -19 13 -32t32 -13h50z" />
    <glyph glyph-name="slash" unicode="/" 
d="M588 492q0 -24 -17 -39l-330 -331q-7 -8 -7 -18v-94q0 -23 -16.5 -39t-39.5 -16q-18 0 -32.5 10.5t-19.5 27.5q-17 5 -27.5 19.5t-10.5 32.5v128q0 22 17 39l330 331q7 7 7 18v94q0 23 16.5 39t39.5 16q18 0 32.5 -10.5t19.5 -27.5q17 -5 27.5 -19.5t10.5 -32.5v-128z
M452 561q0 -15 -10 -25l-330 -331q-14 -14 -14 -32v-128q0 -19 13 -32t32 -13t32.5 13t13.5 32v94q0 15 10 25l330 331q14 14 14 32v128q0 19 -13 32t-32 13t-32.5 -13t-13.5 -32v-94z" />
    <glyph glyph-name="zero" unicode="0" 
d="M104 111q-16 16 -16 39v400q0 23 16 39l105 104q8 8 17 12.5t22 4.5h145q23 0 39 -16l139 -140q17 -17 17 -39v-400q0 -25 -17 -40l-104 -104q-15 -16 -39 -16h-145q-22 0 -39 17zM111 582q-13 -13 -13 -32v-400q0 -19 13 -32l105 -104q12 -14 32 -14h145q19 0 32 13
l104 104q14 14 14 33v400q0 20 -14 32l-104 105q-13 13 -32 13h-145q-20 0 -32 -14zM199 293q-3 -3 -6 -3q-4 0 -4 8v218q0 15 10 25l58 58q10 10 25 10h77q15 0 25 -10l51 -50q4 -4 4 -10t-4 -10zM429 540l-17 17q-7 7 -18 7h-77q-10 0 -18 -7l-58 -58q-7 -8 -7 -18v-138
l194 193v1l1 1v1v1zM282 91q-15 0 -25 10l-51 50q-5 5 -5 10t5 10l236 236q3 3 6 3q4 0 4 -8v-218q0 -15 -10 -25l-58 -58q-10 -10 -25 -10h-77zM442 322l-194 -193q-1 -1 -1 -3v-1l17 -17q7 -7 18 -7h77q11 0 18 7l58 58q7 7 7 18v138z" />
    <glyph glyph-name="one" unicode="1" 
d="M265 449q-19 -17 -42 -17q-18 0 -32.5 10.5t-19.5 27.5q-17 5 -27.5 19.5t-10.5 32.5q0 24 16 40l132 132q16 16 40 16q18 0 32.5 -10.5t19.5 -27.5q17 -5 27.5 -19.5t10.5 -32.5v-519h42q18 0 32.5 -10.5t19.5 -27.5q17 -5 27.5 -20t10.5 -33q0 -23 -16 -39t-39 -16
h-265q-18 0 -32.5 10.5t-19.5 27.5q-17 5 -27.5 19.5t-10.5 32.5q0 23 16 39.5t39 16.5h42q14 0 24.5 10.5t10.5 24.5v313zM275 136q0 -19 -13 -32t-32 -13h-42q-19 0 -32 -13.5t-13 -32.5t13 -32t32 -13h265q19 0 32 13t13 32t-13 32.5t-32 13.5h-42q-19 0 -32 13t-13 32
v519q0 19 -13 32t-32 13q-20 0 -33 -13l-132 -132q-13 -13 -13 -33q0 -19 13 -32t32 -13t33 13l44 45q3 3 6 3q4 0 4 -8v-394z" />
    <glyph glyph-name="two" unicode="2" 
d="M572 575q8 -8 12 -18.5t4 -20.5v-62q0 -24 -16 -39l-331 -331q0 -1 -2 -3h259q18 0 32.5 -10.5t19.5 -27.5q17 -5 27.5 -20t10.5 -33q0 -23 -16 -39t-39 -16h-355q-18 0 -32.5 10.5t-19.5 27.5q-17 5 -27.5 19.5t-10.5 32.5v110q0 24 16 39l333 333q5 5 5 13t-5 13l-4 4
q-7 7 -18 7h-119q-10 0 -18 -7l-37 -37q-5 -6 -6 -13q0 -6 -1 -8q0 -26 -13.5 -45t-42.5 -19q-18 0 -32.5 10.5t-19.5 27.5q-17 5 -27.5 19.5t-10.5 32.5v46q0 23 16 39l84 83q17 17 39 17h187q22 0 39 -17l84 -83q1 -1 1.5 -2t1.5 -2zM189 537q0 15 10 25l37 37
q10 10 25 10h119q15 0 25 -10l39 -39q8 -8 8 -20t-8 -20l-333 -333q-13 -13 -13 -32v-110q0 -19 13 -32t32 -13h355q19 0 32 13t13 32t-13 32.5t-32 13.5h-264q-15 0 -29 10t-14 26q0 11 8 19l331 331q13 13 13 32v62q0 18 -13 32l-84 83q-12 14 -32 14h-187q-20 0 -32 -14
l-84 -83q-13 -13 -13 -32v-46q0 -19 13 -32t32 -13t32.5 13t13.5 32v12z" />
    <glyph glyph-name="three" unicode="3" 
d="M429 255q-7 4 -14 4h-114q-18 0 -32.5 10.5t-20.5 27.5q-17 5 -27.5 19.5t-10.5 33.5q0 23 16.5 39t39.5 16h114q11 0 18 7l37 38q7 8 7 18v69q0 11 -7 18l-2 2q-7 7 -18 7h-119q-10 0 -18 -7l-37 -37q-5 -6 -6 -13q0 -6 -1 -8q0 -26 -13.5 -45t-42.5 -19
q-18 0 -32.5 10.5t-19.5 27.5q-17 5 -27.5 19.5t-10.5 32.5v46q0 23 16 39l84 83q17 17 39 17h187q22 0 39 -17l119 -118q16 -16 16 -39v-137q0 -17 -8 -31l-2 -2l-5 -6l-2 -2l-9 -9q-8 -8 -14 -15.5t-6 -18.5q0 -13 6 -20.5t14 -15.5l9 -9q7 -7 9 -10q8 -14 8 -30v-136
q0 -24 -16 -39l-84 -83q-15 -17 -39 -17h-187q-22 0 -39 17l-84 83q-1 1 -1.5 2t-1.5 2l-32 31q-9 9 -12.5 20.5t-4.5 22.5t0 22t1 20q0 23 16 38.5t39 15.5q18 0 33.5 -10.5t20.5 -27.5q22 -8 29.5 -24t7.5 -37q1 -2 1 -8q2 -7 6 -12l2 -2q7 -7 18 -7h119q11 0 18 7l19 19
t13 14q10 10 11 16q2 6 2 23q0 9 -0.5 21.5t-0.5 29.5q0 10 -7 18zM189 537q0 15 10 25l37 37q10 10 25 10h119q15 0 25 -10l37 -37q10 -10 10 -25v-69q0 -15 -10 -25l-37 -38q-10 -10 -25 -10h-114q-20 0 -33 -13t-13 -32t13 -32.5t33 -13.5h114q15 0 25 -10l37 -38
q10 -10 10 -25v-68q0 -15 -10 -25l-37 -37q-10 -10 -25 -10h-119q-15 0 -25 10l-37 37q-10 10 -10 25v12q0 19 -13.5 31.5t-32.5 12.5t-32 -12.5t-13 -31.5v-46q0 -19 13 -32l84 -83q12 -14 32 -14h187q20 0 32 14l84 83q13 13 13 32v136q0 19 -13 32l-20 20q-13 13 -13 33
q0 19 13 32l20 20q13 13 13 32v137q0 19 -13 32l-84 83q-12 14 -32 14h-187q-20 0 -32 -14l-84 -83q-13 -13 -13 -32v-46q0 -19 13 -32t32 -13t32.5 13t13.5 32v12z" />
    <glyph glyph-name="four" unicode="4" 
d="M550 672q17 -5 27.5 -19.5t10.5 -32.5v-610q0 -23 -16 -39t-39 -16q-18 0 -33 10.5t-20 27.5q-17 5 -27.5 19.5t-10.5 32.5v192h-180q-22 0 -39 17l-84 83q-1 1 -1.5 2t-1.5 2l-32 31q-16 16 -16 40v243q0 23 16 39t39 16q18 0 33 -10.5t20 -27.5q17 -6 27.5 -20
t10.5 -32v-210q0 -11 7 -18l2 -2q7 -7 18 -7h146q14 0 24.5 10.5t10.5 24.5v237q0 23 16.5 39t39.5 16q18 0 32.5 -10.5t19.5 -27.5zM261 373q-15 0 -25 10l-37 37q-10 10 -10 25v210q0 19 -13.5 32t-32.5 13t-32 -13t-13 -32v-243q0 -20 13 -33l84 -83q12 -14 32 -14h180
q19 0 32 -13t13 -32v-192q0 -19 13.5 -32t32.5 -13t32 13t13 32v610q0 19 -13 32t-32 13t-32.5 -13t-13.5 -32v-237q0 -19 -13 -32t-32 -13h-146z" />
    <glyph glyph-name="five" unicode="5" 
d="M433 275q-7 7 -18 7h-153q-22 0 -39 17l-84 83q-1 1 -1.5 2t-1.5 2l-32 31q-16 16 -16 40v198q0 23 16 39t39 16h355q18 0 32.5 -10.5t19.5 -27.5q17 -5 27.5 -19.5t10.5 -32.5q0 -23 -15.5 -39.5t-39.5 -16.5h-264q-14 0 -24.5 -10.5t-10.5 -24.5v-74q0 -11 7 -18l2 -2
q7 -7 18 -7h152q23 0 40 -17l119 -118q16 -16 16 -40v-159q0 -24 -16 -39l-84 -83q-17 -17 -40 -17h-186q-22 0 -39 17l-84 83q-1 1 -1.5 2t-1.5 2l-32 31q-9 9 -12.5 21t-4.5 23t0 21.5t1 19.5q0 23 16 39t39 16q18 0 33 -10.5t20 -27.5q23 -8 30.5 -24t7.5 -38q1 -2 1 -8
q2 -7 6 -12l2 -2q7 -7 18 -7h119q11 0 18 7l37 37q7 7 7 18v92q0 11 -7 18zM189 175q0 19 -13.5 32t-32.5 13t-32 -13t-13 -32v-46q0 -19 13 -32l84 -83q12 -14 32 -14h186q21 0 33 14l84 83q13 13 13 32v159q0 20 -13 33l-84 83q-12 14 -33 14h-152q-15 0 -25 10l-37 37
q-10 10 -10 25v74q0 19 13 32t32 13h264q19 0 32 13t13 33q0 19 -13 32t-32 13h-355q-19 0 -32 -13t-13 -32v-198q0 -20 13 -33l84 -83q12 -14 32 -14h153q15 0 25 -10l37 -37q10 -10 10 -25v-92q0 -15 -10 -25l-37 -37q-10 -10 -25 -10h-119q-15 0 -25 10l-37 37
q-10 10 -10 25v12z" />
    <glyph glyph-name="six" unicode="6" 
d="M296 564q-10 0 -18 -7l-37 -37q-7 -8 -7 -18v-97h179q24 0 40 -16l31 -32q1 -1 2 -1.5t2 -1.5l84 -85q16 -16 16 -39v-136q0 -24 -16 -39l-84 -83q-17 -17 -40 -17h-186q-22 0 -39 17l-84 83q-1 1 -1.5 2t-1.5 2l-32 31q-16 16 -16 39v442q0 23 16 39l84 83q17 17 39 17
h186q23 0 40 -17l119 -118q10 -9 13 -21t4 -23t0 -21.5t-1 -19.5q0 -23 -16 -39t-39 -16q-18 0 -33 10.5t-20 27.5q-23 7 -30.5 24t-7.5 38q0 6 -1 8q-1 8 -6 12l-2 2q-7 7 -18 7h-119zM452 525q0 -19 13.5 -32t32.5 -13t32 13t13 32v46q0 19 -13 32l-84 83q-12 14 -33 14
h-186q-20 0 -32 -14l-84 -83q-13 -13 -13 -32v-442q0 -19 13 -32l84 -83q12 -14 32 -14h186q21 0 33 14l84 83q13 13 13 32v136q0 19 -13 32l-84 85q-13 13 -33 13h-179q-19 0 -32 13.5t-13 32.5v96q0 15 10 25l37 37q10 10 25 10h119q15 0 25 -10l37 -37q10 -10 10 -25v-12
zM189 258q0 19 13 32.5t32 13.5h146q15 0 25 -10l37 -38q10 -10 10 -25v-68q0 -15 -10 -25l-37 -37q-10 -10 -25 -10h-119q-15 0 -25 10l-37 37q-10 10 -10 25v95zM234 128q0 -11 7 -18l2 -2q7 -7 18 -7h119q11 0 18 7l37 37q7 7 7 18v68q0 10 -7 18l-6 6q-7 4 -14 4h-146
q-14 0 -24.5 -11t-10.5 -25v-95z" />
    <glyph glyph-name="seven" unicode="7" 
d="M178 564q-19 0 -33 10.5t-19 27.5q-17 5 -27.5 19.5t-10.5 33.5q0 23 16 39t39 16h355q18 0 32.5 -10.5t19.5 -27.5q17 -5 27.5 -19.5t10.5 -32.5v-128q0 -24 -16 -39l-154 -154q-7 -8 -7 -18v-271q0 -23 -16 -39t-39 -16q-18 0 -33 10.5t-20 27.5q-17 5 -27.5 19
t-10.5 33v305q0 24 16 39l154 154q7 7 7 21h-264zM366 316q0 15 10 25l154 154q13 13 13 32v128q0 19 -13 32t-32 13h-355q-19 0 -32 -13t-13 -32q0 -20 13 -33t32 -13h264q19 0 32 -13t13 -32v-3q0 -15 -10 -25l-154 -154q-13 -13 -13 -32v-305q0 -19 13 -32t33 -13
q19 0 32 13t13 32v271z" />
    <glyph glyph-name="eight" unicode="8" 
d="M262 -45q-22 0 -39 17l-84 83q-1 1 -1.5 2t-1.5 2l-32 31q-16 16 -16 39v136q0 17 9 30q5 8 10 13l5 4q9 8 15.5 16t6.5 22q0 13 -6.5 21t-15.5 16l-5 4q-8 9 -10 13q-9 14 -9 30v137q0 23 16 39l84 83q17 17 39 17h187q22 0 39 -17l119 -118q16 -16 16 -39v-137
q0 -17 -8 -31l-2 -2l-5 -6l-2 -2l-9 -9q-8 -8 -14 -15.5t-6 -18.5q0 -13 6 -20.5t14 -15.5l9 -9q7 -7 9 -10q8 -14 8 -30v-136q0 -24 -16 -39l-84 -83q-15 -17 -39 -17h-187zM414 0q20 0 32 14l84 83q13 13 13 32v136q0 19 -13 32l-20 20q-13 13 -13 33q0 19 13 32l20 20
q13 13 13 32v137q0 19 -13 32l-84 83q-12 14 -32 14h-187q-20 0 -32 -14l-84 -83q-13 -13 -13 -32v-137q0 -19 13 -32l20 -20q13 -13 13 -32q0 -20 -13 -33l-20 -20q-13 -13 -13 -32v-136q0 -19 13 -32l84 -83q12 -14 32 -14h187zM442 562q10 -10 10 -25v-69q0 -15 -10 -25
l-37 -38q-10 -10 -25 -10h-119q-15 0 -25 10l-37 38q-10 10 -10 25v69q0 15 10 25l37 37q10 10 25 10h119q15 0 25 -10zM296 564q-10 0 -18 -7l-37 -37q-7 -8 -7 -18v-69q0 -12 8 -18l5 -6q7 -4 14 -4h119q11 0 18 7l37 38q7 8 7 18v69q0 11 -7 18l-2 2q-7 7 -18 7h-119z
M442 256q10 -10 10 -25v-68q0 -15 -10 -25l-37 -37q-10 -10 -25 -10h-119q-15 0 -25 10l-37 37q-10 10 -10 25v68q0 15 10 25l37 38q10 10 25 10h119q15 0 25 -10zM296 259q-10 0 -17 -7l-37 -38q-8 -8 -8 -18v-68q0 -11 7 -18l2 -2q7 -7 18 -7h119q11 0 18 7l37 37
q7 7 7 18v68q0 10 -7 18l-6 6q-7 4 -14 4h-119z" />
    <glyph glyph-name="nine" unicode="9" 
d="M442 259h-180q-23 0 -39 16l-119 120q-16 16 -16 39v137q0 23 16 39l84 83q17 17 39 17h187q22 0 39 -17l119 -118q16 -16 16 -39v-442q0 -24 -16 -39l-84 -83q-15 -17 -39 -17h-187q-22 0 -39 17l-84 83q-1 1 -1.5 2t-1.5 2l-32 31q-9 9 -12.5 20.5t-4.5 22.5t0 22t1 20
q0 23 16 38.5t39 15.5q18 0 33.5 -10.5t20.5 -27.5q22 -8 29.5 -24t7.5 -37q1 -2 1 -8q2 -7 6 -12l2 -2q7 -7 18 -7h119q11 0 18 7l37 37q7 7 7 18v96zM189 175q0 19 -13.5 31.5t-32.5 12.5t-32 -12.5t-13 -31.5v-46q0 -19 13 -32l84 -83q12 -14 32 -14h187q20 0 32 14
l84 83q13 13 13 32v442q0 19 -13 32l-84 83q-12 14 -32 14h-187q-20 0 -32 -14l-84 -83q-13 -13 -13 -32v-137q0 -19 13 -32l84 -85q13 -13 32 -13h180q19 0 32 -13.5t13 -32.5v-95q0 -15 -10 -25l-37 -37q-10 -10 -25 -10h-119q-15 0 -25 10l-37 37q-10 10 -10 25v12z
M452 441q0 -19 -13 -32.5t-32 -13.5h-146q-15 0 -25 10l-37 38q-10 10 -10 25v69q0 15 10 25l37 37q10 10 25 10h119q15 0 25 -10l37 -37q10 -10 10 -25v-96zM433 557q-7 7 -18 7h-119q-10 0 -18 -7l-37 -37q-7 -8 -7 -18v-69q0 -12 8 -18l5 -6q7 -4 14 -4h146
q14 0 24.5 10.5t10.5 25.5v96q0 11 -7 18z" />
    <glyph glyph-name="colon" unicode=":" 
d="M330 295q-18 0 -32.5 10.5t-19.5 27.5q-17 5 -27.5 19.5t-10.5 32.5v50q0 23 16 39t39 16h50q18 0 32.5 -10.5t19.5 -27.5q17 -5 27.5 -19.5t10.5 -32.5v-50q0 -23 -16 -39t-39 -16h-50zM345 340q19 0 32 13t13 32v50q0 19 -13 32t-32 13h-50q-19 0 -32 -13t-13 -32v-50
q0 -19 13 -32t32 -13h50zM330 -45q-18 0 -32.5 10.5t-19.5 27.5q-17 5 -27.5 19.5t-10.5 32.5v50q0 23 16 39t39 16h50q18 0 32.5 -10.5t19.5 -27.5q17 -5 27.5 -19.5t10.5 -32.5v-50q0 -23 -16 -39t-39 -16h-50zM345 0q19 0 32 13t13 32v50q0 19 -13 32t-32 13h-50
q-19 0 -32 -13t-13 -32v-50q0 -19 13 -32t32 -13h50z" />
    <glyph glyph-name="semicolon" unicode=";" 
d="M330 295q-18 0 -32.5 10.5t-19.5 27.5q-17 5 -27.5 19.5t-10.5 32.5v50q0 23 16 39t39 16h50q18 0 32.5 -10.5t19.5 -27.5q17 -5 27.5 -19.5t10.5 -32.5v-50q0 -23 -16 -39t-39 -16h-50zM345 340q19 0 32 13t13 32v50q0 19 -13 32t-32 13h-50q-19 0 -32 -13t-13 -32v-50
q0 -19 13 -32t32 -13h50zM392 102q17 -6 27.5 -20.5t10.5 -32.5v-97q0 -24 -17 -39l-42 -42q-14 -14 -34 -14q-17 0 -29.5 10t-15.5 26q-16 4 -26.5 16.5t-10.5 29.5q0 20 14 34l15 15q0 1 -1 1v3q-16 6 -27 18.5t-11 34.5v39q0 23 16 39.5t39 16.5h39q18 0 32.5 -10.5
t20.5 -27.5zM300 130q-19 0 -32 -13.5t-13 -32.5v-39q0 -19 13 -32t32 -13h10l-34 -34q-11 -11 -11 -27q0 -15 11 -26t26 -11q16 0 27 11l42 42q14 14 14 32v97q0 19 -13.5 32.5t-32.5 13.5h-39z" />
    <glyph glyph-name="less" unicode="&#x3c;" 
d="M524 539q0 -22 -16 -38l-162 -162q-12 -13 -12 -25q0 -13 13 -26l159 -159q16 -16 16 -39t-15.5 -39.5t-39.5 -16.5t-40 16l-259 259q-16 16 -16 40t16 40l225 225q16 16 38 16q18 0 33.5 -11t21.5 -28q16 -6 27 -20t11 -32zM175 382q-13 -13 -13 -33t13 -33l224 -224
q13 -13 33 -13t32.5 13t12.5 33q0 19 -13 32l-159 159q-16 16 -16 33t15 32l162 162q13 13 13 31q0 19 -14.5 32.5t-33.5 13.5q-18 0 -31 -13z" />
    <glyph glyph-name="equal" unicode="=" 
d="M507 472q17 -5 27.5 -19.5t10.5 -32.5q0 -23 -15.5 -39.5t-39.5 -16.5h-270q-19 0 -33 10.5t-19 27.5q-17 5 -27.5 19.5t-10.5 33.5q0 23 16 39t39 16h270q18 0 32.5 -10.5t19.5 -27.5zM185 500q-19 0 -32 -13t-13 -32q0 -20 13 -33t32 -13h270q19 0 32 13t13 33
q0 19 -13 32t-32 13h-270zM507 264q17 -5 27.5 -19.5t10.5 -32.5q0 -23 -15.5 -39.5t-39.5 -16.5h-270q-19 0 -33 10.5t-19 27.5q-17 5 -27.5 19.5t-10.5 33.5q0 23 16 39t39 16h270q18 0 32.5 -10.5t19.5 -27.5zM185 292q-19 0 -32 -13t-13 -32q0 -20 13 -33t32 -13h270
q19 0 32 13t13 33q0 19 -13 32t-32 13h-270z" />
    <glyph glyph-name="greater" unicode="&#x3e;" 
d="M284 50q-15 -16 -40 -16q-19 0 -33 10t-19 27q-17 6 -27.5 20.5t-10.5 33.5q0 24 16 39l159 159q13 13 13 26t-12 25l-162 162q-16 16 -16 38q0 23 17.5 39.5t40.5 16.5q22 0 38 -16l260 -260q16 -16 16 -40q0 -25 -16 -40zM241 607q-13 13 -31 13q-19 0 -33.5 -13.5
t-14.5 -32.5q0 -18 13 -31l162 -162q15 -15 15 -32t-16 -33l-159 -159q-13 -13 -13 -32q0 -20 12.5 -33t32.5 -13t33 13l224 224q13 13 13 33t-13 33z" />
    <glyph glyph-name="question" unicode="?" 
d="M588 471q0 -24 -16 -39l-154 -154q-7 -8 -7 -18v-50q0 -23 -16 -39t-39 -16q-18 0 -33 10.5t-20 27.5q-17 5 -27.5 19t-10.5 33v84q0 24 16 39l154 154q7 7 7 18q0 8 -5 13l-4 4q-7 7 -18 7h-119q-10 0 -18 -7l-37 -37q-7 -8 -7 -18v-12q0 -23 -16.5 -39t-39.5 -16
q-18 0 -32.5 10.5t-19.5 27.5q-17 5 -27.5 19.5t-10.5 32.5v46q0 23 16 39l84 83q17 17 39 17h187q22 0 39 -17l84 -83q1 -1 1.5 -2t1.5 -2l32 -31q8 -8 12 -18.5t4 -20.5v-65zM543 571q0 18 -13 32l-84 83q-12 14 -32 14h-187q-20 0 -32 -14l-84 -83q-13 -13 -13 -32v-46
q0 -19 13 -32t32 -13t32.5 13t13.5 32v12q0 15 10 25l37 37q10 10 25 10h119q15 0 25 -10l39 -39q8 -8 8 -20q0 -15 -10 -25l-154 -154q-13 -13 -13 -32v-84q0 -19 13 -32t33 -13q19 0 32 13t13 32v50q0 15 10 25l154 154q13 13 13 32v65zM335 -45q-18 0 -32.5 10.5
t-19.5 27.5q-17 5 -27.5 19.5t-10.5 32.5v40q0 23 16 39t39 16h40q18 0 32.5 -10.5t19.5 -27.5q17 -5 27.5 -19.5t10.5 -32.5v-40q0 -23 -16 -39t-39 -16h-40zM340 0q19 0 32 13t13 32v40q0 19 -13 32t-32 13h-40q-19 0 -32 -13t-13 -32v-40q0 -19 13 -32t32 -13h40z" />
    <glyph glyph-name="at" unicode="@" 
d="M433 557q-7 7 -18 7h-119q-10 0 -18 -7l-37 -37q-7 -8 -7 -18v-374q0 -11 7 -18l2 -2q7 -7 18 -7h146q18 0 32.5 -10.5t19.5 -27.5q17 -5 27.5 -20t10.5 -33q0 -23 -16 -39t-39 -16h-180q-22 0 -39 17l-84 83q-1 1 -1.5 2t-1.5 2l-32 31q-16 16 -16 40v441q0 23 16 39
l84 83q17 17 39 17h186q23 0 40 -17l119 -118q16 -16 16 -39v-348q0 -23 -16 -39.5t-39 -16.5h-113q-23 0 -40 17l-99 99q-16 16 -16 39v168q0 23 16 39t39 16q19 0 33.5 -10.5t19.5 -27.5q17 -5 27.5 -19t10.5 -33v-135v-1l1 -3q1 -2 2 -2t2 -1h21q5 0 5 5v254q0 11 -7 18z
M376 295q-10 10 -10 25v135q0 19 -13 32t-33 13q-19 0 -32 -13t-13 -32v-168q0 -19 13 -32l64 -64q14 -14 33 -14h113q19 0 32 13.5t13 32.5v348q0 19 -13 32l-84 83q-12 14 -33 14h-186q-20 0 -32 -14l-84 -83q-13 -13 -13 -32v-441q0 -20 13 -33l84 -83q12 -14 32 -14h180
q19 0 32 13t13 32t-13 32.5t-32 13.5h-146q-15 0 -25 10l-37 37q-10 10 -10 25v374q0 15 10 25l37 37q10 10 25 10h119q15 0 25 -10l37 -37q10 -10 10 -25v-254q0 -15 -15 -15h-19q-15 0 -25 10z" />
    <glyph glyph-name="A" unicode="A" 
d="M588 10q0 -23 -16 -39t-39 -16q-18 0 -33 10.5t-20 27.5q-17 5 -27.5 19.5t-10.5 32.5v192h-173q-14 0 -24.5 -10.5t-10.5 -24.5v-192q0 -23 -16.5 -39t-39.5 -16q-18 0 -32.5 10.5t-19.5 27.5q-17 5 -27.5 19.5t-10.5 32.5v505q0 23 16 39l105 104q8 8 17 12.5t22 4.5
h145q23 0 39 -16l139 -140q17 -17 17 -39v-505zM543 550q0 20 -14 32l-104 105q-13 13 -32 13h-145q-20 0 -32 -14l-105 -104q-13 -13 -13 -32v-505q0 -19 13 -32t32 -13t32.5 13t13.5 32v192q0 19 13 32t32 13h173q19 0 32 -13t13 -32v-192q0 -19 13.5 -32t32.5 -13t32 13
t13 32v505zM452 418q0 -19 -13 -32t-32 -13h-173q-19 0 -32 13t-13 32v98q0 15 10 25l58 58q10 10 25 10h77q15 0 25 -10l58 -58q10 -10 10 -25v-98zM412 557q-7 7 -18 7h-77q-10 0 -18 -7l-58 -58q-7 -8 -7 -18v-98h173q14 0 24.5 10.5t10.5 24.5v98q0 11 -7 18z" />
    <glyph glyph-name="B" unicode="B" 
d="M571 270q7 -7 9 -10q8 -14 8 -30v-135q0 -25 -16 -40l-84 -83q-17 -17 -40 -17h-270q-18 0 -32.5 10.5t-19.5 27.5q-17 5 -27.5 19.5t-10.5 32.5v610q0 23 16 39t39 16h270q23 0 40 -17l119 -118q16 -16 16 -39v-137q0 -17 -8 -31l-2 -2l-5 -6l-2 -2l-9 -9
q-8 -8 -14 -15.5t-6 -18.5q0 -13 6 -20.5t14 -15.5zM530 402q13 13 13 32v137q0 19 -13 32l-84 83q-12 14 -33 14h-270q-19 0 -32 -13t-13 -32v-610q0 -19 13 -32t32 -13h270q21 0 33 14l84 83q13 13 13 33v135q0 19 -13 32l-20 20q-13 13 -13 33q0 19 13 32zM405 405
q-10 -10 -25 -10h-146q-19 0 -32 13.5t-13 32.5v123q0 19 13 32t32 13h146q15 0 25 -10l37 -37q10 -10 10 -25v-69q0 -15 -10 -25zM433 557q-7 7 -18 7h-146q-14 0 -24.5 -10.5t-10.5 -24.5v-124h146q11 0 18 7l37 38q7 8 7 18v69q0 11 -7 18zM405 101q-10 -10 -25 -10h-146
q-19 0 -32 13t-13 32v122q0 19 13 32.5t32 13.5h146q15 0 25 -10l37 -38q10 -10 10 -25v-68q0 -15 -10 -25zM429 255q-7 4 -14 4h-146q-14 0 -24.5 -11t-10.5 -25v-122h146q11 0 18 7l37 37q7 7 7 18v68q0 10 -7 18z" />
    <glyph glyph-name="C" unicode="C" 
d="M234 149q0 -11 7 -18l23 -23q7 -7 18 -7h77q11 0 18 7l58 58q7 7 7 20q1 7 0.5 14t-0.5 14q0 23 16.5 39.5t39.5 16.5q18 0 32.5 -10.5t19.5 -27.5q17 -5 27.5 -20t10.5 -33v-64q0 -13 -4.5 -22t-12.5 -17l-104 -105q-15 -16 -39 -16h-145q-23 0 -40 17l-139 139
q-16 15 -16 39v400q0 24 16 39l104 104q17 17 40 17h145q23 0 39 -16l139 -140q17 -17 17 -39v-64q0 -23 -16 -39.5t-39 -16.5q-18 0 -32.5 10.5t-20.5 27.5q-17 6 -27.5 20.5t-10.5 32.5q0 7 0.5 14t-0.5 14q0 13 -7 20l-23 23q-7 7 -18 7h-77q-10 0 -18 -7l-58 -58
q-7 -8 -7 -18v-332zM189 516q0 15 10 25l58 58q10 10 25 10h77q15 0 25 -10l58 -58q10 -10 10 -25v-30q0 -19 13.5 -32.5t32.5 -13.5t32 13.5t13 32.5v64q0 20 -14 32l-104 105q-13 13 -32 13h-145q-19 0 -33 -14l-104 -104q-13 -13 -13 -32v-400q0 -19 13 -32l104 -104
q14 -14 33 -14h145q19 0 32 13l104 105q14 12 14 32v64q0 19 -13 32.5t-32 13.5t-32.5 -13.5t-13.5 -32.5v-30q0 -15 -10 -25l-58 -58q-10 -10 -25 -10h-77q-15 0 -25 10l-58 58q-10 10 -10 25v332z" />
    <glyph glyph-name="D" unicode="D" 
d="M588 115q0 -13 -4.5 -22t-12.5 -17l-104 -105q-15 -16 -39 -16h-250q-18 0 -32.5 10.5t-19.5 27.5q-17 5 -27.5 19.5t-10.5 32.5v610q0 23 16 39t39 16h250q23 0 39 -16l139 -140q17 -17 17 -39v-400zM425 687q-13 13 -32 13h-250q-19 0 -32 -13t-13 -32v-610
q0 -19 13 -32t32 -13h250q19 0 32 13l104 105q14 12 14 32v400q0 20 -14 32zM384 101q-10 -10 -25 -10h-125q-19 0 -32 13t-13 32v428q0 19 13 32t32 13h125q15 0 25 -10l58 -58q10 -10 10 -25v-332q0 -15 -10 -25zM412 557q-7 7 -18 7h-125q-14 0 -24.5 -10.5t-10.5 -24.5
v-428h125q11 0 18 7l58 58q7 7 7 18v332q0 11 -7 18z" />
    <glyph glyph-name="E" unicode="E" 
d="M550 672q17 -5 27.5 -19.5t10.5 -32.5q0 -23 -16 -39.5t-39 -16.5h-264q-14 0 -24.5 -10.5t-10.5 -24.5v-124h196q18 0 33 -10.5t20 -27.5q17 -6 27.5 -20t10.5 -32q0 -23 -16.5 -39.5t-39.5 -16.5h-196q-14 0 -24.5 -11t-10.5 -25v-122h264q18 0 32.5 -10.5t19.5 -27.5
q17 -5 27.5 -20t10.5 -33q0 -23 -16 -39t-39 -16h-355q-18 0 -32.5 10.5t-19.5 27.5q-17 5 -27.5 19.5t-10.5 32.5v610q0 23 16 39t39 16h355q18 0 32.5 -10.5t19.5 -27.5zM98 45q0 -19 13 -32t32 -13h355q19 0 32 13t13 32t-13 32.5t-32 13.5h-264q-19 0 -32 13t-13 32v122
q0 19 13 32.5t32 13.5h196q19 0 32.5 13.5t13.5 32.5t-13.5 32t-32.5 13h-196q-19 0 -32 13.5t-13 32.5v123q0 19 13 32t32 13h264q19 0 32 13.5t13 32.5t-13 32t-32 13h-355q-19 0 -32 -13t-13 -32v-610z" />
    <glyph glyph-name="F" unicode="F" 
d="M550 672q17 -5 27.5 -19.5t10.5 -32.5q0 -23 -16 -39.5t-39 -16.5h-264q-14 0 -24.5 -10.5t-10.5 -24.5v-124h196q18 0 32.5 -10.5t19.5 -27.5q17 -5 27.5 -19.5t10.5 -32.5q0 -23 -16 -39.5t-39 -16.5h-196q-14 0 -24.5 -11t-10.5 -25v-214q0 -23 -16.5 -39t-39.5 -16
q-18 0 -32.5 10.5t-19.5 27.5q-17 5 -27.5 19.5t-10.5 32.5v611q0 23 16 39t39 16h355q18 0 32.5 -10.5t19.5 -27.5zM189 258q0 19 13 32.5t32 13.5h196q19 0 32 13.5t13 32.5t-13 32t-32 13h-196q-19 0 -32 13.5t-13 32.5v123q0 19 13 32t32 13h264q19 0 32 13.5t13 32.5
t-13 32t-32 13h-355q-19 0 -32 -13t-13 -32v-611q0 -19 13 -32t32 -13t32.5 13t13.5 32v214z" />
    <glyph glyph-name="G" unicode="G" 
d="M296 564q-10 0 -18 -7l-37 -37q-7 -8 -7 -18v-374q0 -11 7 -18l2 -2q7 -7 18 -7h119q11 0 18 7l37 37q7 7 7 18v96h-60q-18 0 -32.5 10.5t-20.5 27.5q-17 6 -27.5 20.5t-10.5 32.5q0 23 16.5 39t39.5 16h151q18 0 32.5 -10.5t19.5 -27.5q17 -5 27.5 -19.5t10.5 -32.5
v-220q0 -25 -16 -40l-84 -83q-17 -17 -40 -17h-186q-22 0 -39 17l-84 83q0 1 -1 1l-1 2l-1 1l-32 31q-16 16 -16 40v441q0 23 16 39l84 83q17 17 39 17h186q23 0 40 -17l119 -118q10 -9 13 -21t4 -23t0 -21.5t-1 -19.5q0 -23 -16 -39t-39 -16q-18 0 -33 10.5t-20 27.5
q-23 7 -30.5 24t-7.5 38q0 6 -1 8q-1 8 -6 12l-2 2q-7 7 -18 7h-119zM452 525q0 -19 13.5 -32t32.5 -13t32 13t13 32v46q0 19 -13 32l-84 83q-12 14 -33 14h-186q-20 0 -32 -14l-84 -83q-13 -13 -13 -32v-441q0 -20 13 -33l84 -83q12 -14 32 -14h186q21 0 33 14l84 83
q13 13 13 33v220q0 19 -13 32t-32 13h-151q-19 0 -32.5 -13t-13.5 -32t13.5 -32.5t32.5 -13.5h60q19 0 32 -13t13 -32v-96q0 -15 -10 -25l-37 -37q-10 -10 -25 -10h-119q-15 0 -25 10l-37 37q-10 10 -10 25v374q0 15 10 25l37 37q10 10 25 10h119q15 0 25 -10l37 -37
q10 -10 10 -25v-12z" />
    <glyph glyph-name="H" unicode="H" 
d="M588 10q0 -23 -16 -39t-39 -16q-18 0 -33 10.5t-20 27.5q-17 5 -27.5 19t-10.5 33v215h-173q-14 0 -24.5 -11t-10.5 -25v-214q0 -23 -16.5 -39t-39.5 -16q-18 0 -32.5 10.5t-19.5 27.5q-17 5 -27.5 19.5t-10.5 32.5v610q0 23 16 39t39 16q18 0 33 -10.5t20 -27.5
q17 -6 27.5 -20t10.5 -32v-215h173q14 0 24.5 10.5t10.5 25.5v214q0 23 16.5 39t39.5 16q18 0 32.5 -10.5t19.5 -27.5q17 -5 27.5 -19.5t10.5 -32.5v-610zM543 655q0 19 -13 32t-32 13q-20 0 -33 -13t-13 -32v-214q0 -19 -13 -32.5t-32 -13.5h-173q-19 0 -32 13.5t-13 32.5
v214q0 19 -13.5 32t-32.5 13t-32 -13t-13 -32v-610q0 -19 13 -32t32 -13t32.5 13t13.5 32v214q0 19 13 32.5t32 13.5h173q19 0 32 -13.5t13 -32.5v-214q0 -19 13 -32t33 -13q19 0 32 13t13 32v610z" />
    <glyph glyph-name="I" unicode="I" 
d="M223 -45q-18 0 -32.5 10.5t-19.5 27.5q-17 5 -27.5 19.5t-10.5 32.5q0 23 16 39.5t39 16.5h42q14 0 24.5 10.5t10.5 24.5v428h-42q-18 0 -32 10.5t-20 27.5q-17 5 -27.5 20t-10.5 33q0 23 16 39t39 16h265q18 0 32.5 -10.5t19.5 -27.5q17 -5 27.5 -19.5t10.5 -32.5
q0 -23 -16 -39.5t-39 -16.5h-42q-14 0 -24.5 -10.5t-10.5 -24.5v-428h42q18 0 32.5 -10.5t19.5 -27.5q17 -5 27.5 -20t10.5 -33q0 -23 -16 -39t-39 -16h-265zM453 0q19 0 32 13t13 32t-13 32.5t-32 13.5h-42q-19 0 -32 13t-13 32v428q0 19 13 32t32 13h42q19 0 32 13.5
t13 32.5t-13 32t-32 13h-265q-19 0 -32 -13t-13 -32t13 -32.5t32 -13.5h42q19 0 32 -13t13 -32v-428q0 -19 -13 -32t-32 -13h-42q-19 0 -32 -13.5t-13 -32.5t13 -32t32 -13h265z" />
    <glyph glyph-name="J" unicode="J" 
d="M442 564h-87q-18 0 -32 10.5t-20 27.5q-17 5 -27.5 20t-10.5 33q0 23 16 39t39 16h178q18 0 32.5 -10.5t19.5 -27.5q17 -5 27.5 -19.5t10.5 -32.5v-525q0 -25 -16 -40l-84 -83q-15 -17 -39 -17h-187q-22 0 -39 17l-84 83q-1 1 -1.5 2t-1.5 2l-32 31q-16 16 -16 40v84
q0 23 16 39.5t39 16.5q18 0 32.5 -10.5t20.5 -27.5q17 -6 27.5 -20.5t10.5 -32.5v-51q0 -11 7 -18l2 -2q7 -7 18 -7h119q11 0 18 7l37 37q7 7 7 18v401zM452 163q0 -15 -10 -25l-37 -37q-10 -10 -25 -10h-119q-15 0 -25 10l-37 37q-10 10 -10 25v51q0 19 -13.5 32.5
t-32.5 13.5t-32 -13.5t-13 -32.5v-84q0 -20 13 -33l84 -83q12 -14 32 -14h187q20 0 32 14l84 83q13 13 13 33v525q0 19 -13 32t-32 13h-178q-19 0 -32 -13t-13 -32t13 -32.5t32 -13.5h87q19 0 32 -13t13 -32v-401z" />
    <glyph glyph-name="K" unicode="K" 
d="M269 260q-14 0 -24.5 -11t-10.5 -25v-214q0 -23 -16.5 -39t-39.5 -16q-18 0 -32.5 10.5t-19.5 27.5q-17 5 -27.5 19.5t-10.5 32.5v610q0 23 16 39t39 16q18 0 33 -10.5t20 -27.5q17 -6 27.5 -20t10.5 -32v-215h47q11 0 18 7l136 136q7 7 7 18v89q0 23 16.5 39t39.5 16
q18 0 32.5 -10.5t19.5 -27.5q17 -5 27.5 -19.5t10.5 -32.5v-123q0 -24 -16 -39l-119 -118q-4 -5 -7 -12t-3 -13t2.5 -12t5.5 -11l121 -120q16 -16 16 -39v-123q0 -23 -16 -39t-39 -16q-18 0 -33 10.5t-20 27.5q-17 5 -27.5 19.5t-10.5 32.5v89q0 11 -7 18l-101 101
q-7 7 -18 7h-47zM281 305q15 0 25 -10l136 -136q10 -10 10 -25v-89q0 -19 13.5 -32t32.5 -13t32 13t13 32v123q0 19 -13 32l-119 118q-13 14 -13 32t13 32l119 118q13 13 13 32v123q0 19 -13 32t-32 13t-32.5 -13t-13.5 -32v-89q0 -15 -10 -25l-136 -136q-10 -10 -25 -10
h-47q-19 0 -32 13.5t-13 32.5v214q0 19 -13.5 32t-32.5 13t-32 -13t-13 -32v-610q0 -19 13 -32t32 -13t32.5 13t13.5 32v214q0 19 13 32.5t32 13.5h47z" />
    <glyph glyph-name="L" unicode="L" 
d="M178 -45q-18 0 -32.5 10.5t-19.5 27.5q-17 5 -27.5 19.5t-10.5 32.5v610q0 23 16 39t39 16q18 0 33 -10.5t20 -27.5q17 -6 27.5 -20t10.5 -32v-519h264q18 0 32.5 -10.5t19.5 -27.5q17 -5 27.5 -20t10.5 -33q0 -23 -16 -39t-39 -16h-355zM189 655q0 19 -13.5 32t-32.5 13
t-32 -13t-13 -32v-610q0 -19 13 -32t32 -13h355q19 0 32 13t13 32t-13 32.5t-32 13.5h-264q-19 0 -32 13t-13 32v519z" />
    <glyph glyph-name="M" unicode="M" 
d="M234 486v-476q0 -23 -16.5 -39t-39.5 -16q-18 0 -32.5 10.5t-19.5 27.5q-17 5 -27.5 19.5t-10.5 32.5v610q0 23 16 39t39 16q24 0 40 -16l114 -115q11 -8 24 -8q15 0 25 10l112 113q16 16 40 16q18 0 32.5 -10.5t19.5 -27.5q17 -5 27.5 -19.5t10.5 -32.5v-610
q0 -23 -16 -39t-39 -16q-18 0 -33 10.5t-20 27.5q-17 5 -27.5 19.5t-10.5 32.5v405l-24 -23q-7 -8 -7 -18v-94q0 -23 -16 -39t-39 -16q-18 0 -33 10.5t-20 27.5q-17 5 -27.5 19t-10.5 33v94q0 11 -7 18zM452 45q0 -19 13.5 -32t32.5 -13t32 13t13 32v610q0 19 -13 32t-32 13
q-20 0 -33 -13l-112 -113q-13 -13 -32 -13t-33 13l-112 113q-13 13 -33 13q-19 0 -32 -13t-13 -32v-610q0 -19 13 -32t32 -13t32.5 13t13.5 32v485q0 8 4 8q3 0 6 -3l66 -66q10 -10 10 -25v-94q0 -19 13 -32t33 -13q19 0 32 13t13 32v94q0 15 10 25l66 66q3 3 6 3q4 0 4 -8
v-485z" />
    <glyph glyph-name="N" unicode="N" 
d="M550 672q17 -5 27.5 -19.5t10.5 -32.5v-610q0 -23 -16 -39t-39 -16q-32 0 -48 28l-7 10q-17 7 -29 25l-215 370v-378q0 -23 -16.5 -39t-39.5 -16q-18 0 -32.5 10.5t-19.5 27.5q-17 5 -27.5 19.5t-10.5 32.5v610q0 23 16 39t39 16q15 0 28 -7.5t21 -20.5l6 -11
q17 -6 29 -24l215 -370v378q0 23 16.5 39t39.5 16q18 0 32.5 -10.5t19.5 -27.5zM183 677q-14 23 -40 23q-19 0 -32 -13t-13 -32v-610q0 -19 13 -32t32 -13t32.5 13t13.5 32v427q0 7 2 7q3 0 5 -5l262 -451q14 -23 40 -23q19 0 32 13t13 32v610q0 19 -13 32t-32 13t-32.5 -13
t-13.5 -32v-426q0 -7 -2 -7t-5 5z" />
    <glyph glyph-name="O" unicode="O" 
d="M588 94q0 -24 -16 -39l-84 -83q-17 -17 -40 -17h-186q-22 0 -39 17l-84 83q0 1 -1 1l-1 2l-1 1l-32 31q-16 16 -16 39v442q0 23 16 39l84 83q17 17 39 17h186q23 0 40 -17l119 -118q16 -16 16 -39v-442zM446 686q-12 14 -33 14h-186q-20 0 -32 -14l-84 -83
q-13 -13 -13 -32v-442q0 -19 13 -32l84 -83q12 -14 32 -14h186q21 0 33 14l84 83q13 13 13 32v442q0 19 -13 32zM405 101q-10 -10 -25 -10h-119q-15 0 -25 10l-37 37q-10 10 -10 25v374q0 15 10 25l37 37q10 10 25 10h119q15 0 25 -10l37 -37q10 -10 10 -25v-374
q0 -15 -10 -25zM433 557q-7 7 -18 7h-119q-10 0 -18 -7l-37 -37q-7 -8 -7 -18v-374q0 -11 7 -18l2 -2q7 -7 18 -7h119q11 0 18 7l37 37q7 7 7 18v374q0 11 -7 18z" />
    <glyph glyph-name="P" unicode="P" 
d="M126 -7q-17 5 -27.5 19.5t-10.5 32.5v610q0 23 16 39t39 16h270q23 0 40 -17l119 -118q16 -16 16 -39v-159q0 -25 -16 -40l-84 -83q-17 -17 -40 -17h-179q-14 0 -24.5 -10.5t-10.5 -24.5v-192q0 -23 -16.5 -39t-39.5 -16q-18 0 -32.5 10.5t-19.5 27.5zM189 237
q0 19 13 32t32 13h179q21 0 33 14l84 83q13 13 13 33v159q0 19 -13 32l-84 83q-12 14 -33 14h-270q-19 0 -32 -13t-13 -32v-610q0 -19 13 -32t32 -13t32.5 13t13.5 32v192zM234 373q-19 0 -32 13t-13 32v146q0 19 13 32t32 13h146q15 0 25 -10l37 -37q10 -10 10 -25v-92
q0 -15 -10 -25l-37 -37q-10 -10 -25 -10h-146zM433 557q-7 7 -18 7h-146q-14 0 -24.5 -10.5t-10.5 -24.5v-146h146q11 0 18 7l37 37q7 7 7 18v92q0 11 -7 18z" />
    <glyph glyph-name="Q" unicode="Q" 
d="M463 -82q-2 1 -3 2l-2 2l-28 28q-8 5 -15 5h-152q-23 0 -40 17l-84 83q-1 1 -1.5 2t-1.5 2l-32 31q-16 16 -16 40v441q0 23 16 39l84 83q17 17 40 17h186q22 0 39 -17l119 -118q16 -16 16 -39v-441q0 -17 -8 -31q-4 -5 -8.5 -10t-9.5 -9q-8 -8 -14 -15t-6 -20
q0 -12 5.5 -19t14.5 -15l9 -9q7 -7 9 -10q8 -14 8 -31q0 -23 -16 -39t-39 -16q-24 0 -40 16zM380 0q15 0 25 -10l60 -61q13 -13 33 -13q19 0 32 13t13 32q0 20 -13 33l-20 19q-13 13 -13 32q0 20 13 33l20 19q13 13 13 33v441q0 19 -13 32l-84 83q-12 14 -32 14h-186
q-21 0 -33 -14l-84 -83q-13 -13 -13 -32v-441q0 -20 13 -33l84 -83q12 -14 33 -14h152zM405 101q-10 -10 -25 -10h-119q-15 0 -25 10l-37 37q-10 10 -10 25v374q0 15 10 25l37 37q10 10 25 10h119q15 0 25 -10l37 -37q10 -10 10 -25v-374q0 -15 -10 -25zM433 557q-7 7 -18 7
h-119q-10 0 -18 -7l-37 -37q-7 -8 -7 -18v-374q0 -11 7 -18l2 -2q7 -7 18 -7h119q11 0 18 7l37 37q7 7 7 18v374q0 11 -7 18z" />
    <glyph glyph-name="R" unicode="R" 
d="M269 237q-14 0 -24.5 -10.5t-10.5 -24.5v-192q0 -23 -16.5 -39t-39.5 -16q-18 0 -32.5 10.5t-19.5 27.5q-17 5 -27.5 19.5t-10.5 32.5v610q0 23 16 39t39 16h250q23 0 40 -17l139 -139q16 -16 16 -39v-118q0 -11 -3.5 -19t-8.5 -16q-5 -5 -12 -12.5t-13 -11.5
q-13 -12 -21.5 -22t-8.5 -23q0 -11 6 -20l2 -2l6 -6t6 -7q0 -1 2 -3l8 -8q6 -4 13 -11.5t12 -12.5q5 -8 8.5 -16t3.5 -19v-178q0 -23 -16 -39t-39 -16q-18 0 -33 10.5t-20 27.5q-17 5 -27.5 19.5t-10.5 32.5v144q0 11 -7 18l-23 23q-7 7 -18 7h-125zM359 282q15 0 25 -10
l58 -58q10 -10 10 -25v-144q0 -19 13.5 -32t32.5 -13t32 13t13 32v178q0 19 -13 32l-41 40q-13 14 -13 33t13 32l40 40q14 14 14 32v118q0 19 -13 32l-104 104q-14 14 -33 14h-250q-19 0 -32 -13t-13 -32v-610q0 -19 13 -32t32 -13t32.5 13t13.5 32v192q0 19 13 32t32 13
h125zM384 383q-10 -10 -25 -10h-125q-19 0 -32 13t-13 32v146q0 19 13 32t32 13h125q15 0 25 -10l58 -58q10 -10 10 -25v-50q0 -15 -10 -25zM412 557q-7 7 -18 7h-125q-14 0 -24.5 -10.5t-10.5 -24.5v-146h125q11 0 18 7l58 58q7 7 7 18v50q0 11 -7 18z" />
    <glyph glyph-name="S" unicode="S" 
d="M296 564q-10 0 -18 -7l-19 -19t-13 -14q-9 -9 -11 -17q-2 -6 -2 -23q1 -9 1 -21.5v-29.5q0 -12 8 -18l5 -6q7 -4 14 -4h153q23 0 39 -16l31 -32q1 -1 2 -1.5t2 -1.5l84 -85q16 -16 16 -39v-136q0 -24 -16 -39l-84 -83q-15 -17 -39 -17h-187q-22 0 -39 17l-84 83
q-1 1 -1.5 2t-1.5 2l-32 31q-9 9 -12.5 20.5t-4.5 22.5t0 22t1 20q0 23 16 38.5t39 15.5q18 0 33.5 -10.5t20.5 -27.5q22 -8 29.5 -24t7.5 -37q1 -2 1 -8q2 -7 6 -12l2 -2q7 -7 18 -7h119q11 0 18 7l19 19t13 14q10 10 11 16q2 6 2 23q0 9 -0.5 21.5t-0.5 29.5q0 10 -7 18
l-6 6q-7 4 -14 4h-153q-23 0 -39 16l-119 120q-16 16 -16 39v137q0 23 16 39l84 83q17 17 39 17h187q22 0 39 -17l119 -118q10 -9 13 -21t4 -23t0 -21.5t-1 -19.5q0 -23 -16 -39t-39 -16q-18 0 -33 10.5t-20 27.5q-17 5 -27.5 19.5t-10.5 32.5v12q0 11 -7 18l-2 2
q-7 7 -18 7h-119zM452 525q0 -19 13.5 -32t32.5 -13t32 13t13 32v46q0 19 -13 32l-84 83q-12 14 -32 14h-187q-20 0 -32 -14l-84 -83q-13 -13 -13 -32v-137q0 -19 13 -32l84 -85q13 -13 32 -13h153q15 0 25 -10l37 -38q10 -10 10 -25v-68q0 -15 -10 -25l-37 -37
q-10 -10 -25 -10h-119q-15 0 -25 10l-37 37q-10 10 -10 25v12q0 19 -13.5 31.5t-32.5 12.5t-32 -12.5t-13 -31.5v-46q0 -19 13 -32l84 -83q12 -14 32 -14h187q20 0 32 14l84 83q13 13 13 32v136q0 19 -13 32l-84 85q-13 13 -32 13h-153q-15 0 -25 10l-37 38q-10 10 -10 25
v69q0 15 10 25l37 37q10 10 25 10h119q15 0 25 -10l37 -37q10 -10 10 -25v-12z" />
    <glyph glyph-name="T" unicode="T" 
d="M265 564h-87q-18 0 -32 10.5t-20 27.5q-17 5 -27.5 20t-10.5 33q0 23 16 39t39 16h355q18 0 32.5 -10.5t19.5 -27.5q17 -5 27.5 -19.5t10.5 -32.5q0 -23 -16 -39.5t-39 -16.5h-87q-14 0 -24.5 -10.5t-10.5 -24.5v-519q0 -24 -16.5 -39.5t-39.5 -15.5q-18 0 -32.5 10.5
t-19.5 27.5q-17 5 -27.5 19.5t-10.5 32.5v519zM366 564q0 19 13 32t32 13h87q19 0 32 13.5t13 32.5t-13 32t-32 13h-355q-19 0 -32 -13t-13 -32t13 -32.5t32 -13.5h87q19 0 32 -13t13 -32v-519q0 -19 13 -32t32 -13q20 0 33 13t13 32v519z" />
    <glyph glyph-name="U" unicode="U" 
d="M550 672q17 -5 27.5 -19.5t10.5 -32.5v-526q0 -24 -16 -39l-84 -83q-17 -17 -40 -17h-186q-22 0 -39 17l-84 83q0 1 -1 1l-1 2l-1 1l-32 31q-16 16 -16 39v526q0 23 16 39t39 16q18 0 33 -10.5t20 -27.5q17 -6 27.5 -20t10.5 -32v-492q0 -11 7 -18l2 -2q7 -7 18 -7h119
q11 0 18 7l37 37q7 7 7 18v492q0 23 16.5 39t39.5 16q18 0 32.5 -10.5t19.5 -27.5zM189 655q0 19 -13.5 32t-32.5 13t-32 -13t-13 -32v-526q0 -19 13 -32l84 -83q12 -14 32 -14h186q21 0 33 14l84 83q13 13 13 32v526q0 19 -13 32t-32 13t-32.5 -13t-13.5 -32v-492
q0 -15 -10 -25l-37 -37q-10 -10 -25 -10h-119q-15 0 -25 10l-37 37q-10 10 -10 25v492z" />
    <glyph glyph-name="V" unicode="V" 
d="M588 169q0 -25 -17 -40l-158 -158q-8 -9 -18 -12.5t-20 -4.5t-19.5 0t-18.5 1q-23 0 -39 16l-193 193q-17 17 -17 40v451q0 23 16 39t39 16q18 0 33 -10.5t20 -27.5q17 -6 27.5 -20t10.5 -32v-417q0 -11 7 -18l57 -58q10 -7 23 -7q15 0 25 10l89 90q7 7 7 18v417
q0 23 16.5 39t39.5 16q18 0 32.5 -10.5t19.5 -27.5q17 -5 27.5 -19.5t10.5 -32.5v-451zM452 238q0 -15 -10 -25l-89 -90q-13 -13 -32 -13q-20 0 -33 13l-89 90q-10 10 -10 25v417q0 19 -13.5 32t-32.5 13t-32 -13t-13 -32v-451q0 -19 14 -33l158 -158q13 -13 32 -13h37
q19 0 32 13l158 158q14 14 14 33v451q0 19 -13 32t-32 13t-32.5 -13t-13.5 -32v-417z" />
    <glyph glyph-name="W" unicode="W" 
d="M588 99q0 -24 -16 -39l-89 -89q-15 -16 -39 -16q-23 0 -39 16l-30 30q-2 2 -3 2.5t-2 2.5l-14 14l-50 -49q-15 -16 -39 -16q-23 0 -39 16l-124 124q-16 15 -16 39v521q0 23 16 39t39 16q18 0 33 -10.5t20 -27.5q17 -6 27.5 -20t10.5 -32v-482q13 1 22 10t9 20v182
q0 23 16.5 39t39.5 16q18 0 32.5 -10.5t19.5 -27.5q17 -5 27.5 -19.5t10.5 -32.5v-177q13 1 22 10t9 20v487q0 23 16.5 39t39.5 16q18 0 32.5 -10.5t19.5 -27.5q17 -5 27.5 -19.5t10.5 -32.5v-521zM452 168q0 -17 -13 -28.5t-30 -11.5q-16 0 -29.5 11.5t-13.5 28.5v182
q0 19 -13 32t-32 13q-20 0 -33 -13t-13 -32v-182q0 -17 -13 -28.5t-30 -11.5q-16 0 -29.5 11.5t-13.5 28.5v487q0 19 -13.5 32t-32.5 13t-32 -13t-13 -32v-521q0 -19 13 -32l89 -89q13 -13 32 -13t32 13l57 57l56 -57q13 -13 32 -13t32 13l89 89q13 13 13 32v521
q0 19 -13 32t-32 13t-32.5 -13t-13.5 -32v-487z" />
    <glyph glyph-name="X" unicode="X" 
d="M588 473q0 -24 -17 -39l-93 -94q-11 -11 -11 -25t11 -25l93 -94q17 -17 17 -39v-147q0 -23 -16 -39t-39 -16q-18 0 -33 10.5t-20 27.5q-17 5 -27.5 19.5t-10.5 32.5v113q0 11 -7 18l-54 54q-11 11 -26 11q-14 0 -25 -11l-89 -89q-7 -8 -7 -18v-113q0 -23 -16.5 -39
t-39.5 -16q-18 0 -32.5 10.5t-19.5 27.5q-17 5 -27.5 19.5t-10.5 32.5v147q0 22 17 39l93 94q11 11 11 25t-11 25l-93 94q-17 17 -17 39v147q0 23 16 39t39 16q18 0 33 -10.5t20 -27.5q17 -6 27.5 -20t10.5 -32v-113q0 -11 7 -18l57 -57q11 -8 22 -8q16 0 26 10l89 90
q7 7 7 18v113q0 23 16.5 39t39.5 16q18 0 32.5 -10.5t19.5 -27.5q17 -5 27.5 -19.5t10.5 -32.5v-147zM452 542q0 -15 -10 -25l-89 -90q-14 -13 -33 -13q-18 0 -32 13l-89 90q-10 10 -10 25v113q0 19 -13.5 32t-32.5 13t-32 -13t-13 -32v-147q0 -20 14 -32l93 -94
q14 -14 14 -32t-14 -32l-93 -94q-14 -12 -14 -32v-147q0 -19 13 -32t32 -13t32.5 13t13.5 32v113q0 15 10 25l89 89q14 14 32 14q19 0 33 -14l89 -89q10 -10 10 -25v-113q0 -19 13.5 -32t32.5 -13t32 13t13 32v147q0 20 -14 32l-93 94q-14 14 -14 32t14 32l93 94
q14 12 14 32v147q0 19 -13 32t-32 13t-32.5 -13t-13.5 -32v-113z" />
    <glyph glyph-name="Y" unicode="Y" 
d="M196 672q17 -6 27.5 -20t10.5 -32v-135q0 -11 7 -18l57 -58q10 -7 22 -7q15 0 26 10l89 90q7 7 7 18v135q0 23 16.5 39t39.5 16q18 0 32.5 -10.5t19.5 -27.5q17 -5 27.5 -19.5t10.5 -32.5v-169q0 -25 -17 -40l-153 -153q-7 -8 -7 -18v-230q0 -24 -16.5 -39.5t-39.5 -15.5
q-18 0 -32.5 10.5t-19.5 27.5q-17 5 -27.5 19.5t-10.5 32.5v230q0 11 -7 18l-153 153q-17 17 -17 40v169q0 23 16 39t39 16q18 0 33 -10.5t20 -27.5zM265 300q10 -10 10 -25v-230q0 -19 13 -32t32 -13q20 0 33 13t13 32v230q0 15 10 25l153 153q14 14 14 33v169q0 19 -13 32
t-32 13t-32.5 -13t-13.5 -32v-135q0 -15 -10 -25l-89 -90q-13 -13 -33 -13q-19 0 -32 13l-89 90q-10 10 -10 25v135q0 19 -13.5 32t-32.5 13t-32 -13t-13 -32v-169q0 -19 14 -33z" />
    <glyph glyph-name="Z" unicode="Z" 
d="M178 564q-18 0 -32 10.5t-20 27.5q-17 5 -27.5 20t-10.5 33q0 23 16 39t39 16h355q18 0 32.5 -10.5t19.5 -27.5q17 -5 27.5 -19.5t10.5 -32.5v-128q0 -24 -16 -39l-331 -331q-7 -8 -7 -21h264q18 0 32.5 -10.5t19.5 -27.5q17 -5 27.5 -20t10.5 -33q0 -23 -16 -39t-39 -16
h-355q-18 0 -32.5 10.5t-19.5 27.5q-17 5 -27.5 19.5t-10.5 32.5v128q0 24 16 39l331 331q7 7 7 21h-264zM111 205q-13 -13 -13 -32v-128q0 -19 13 -32t32 -13h355q19 0 32 13t13 32t-13 32.5t-32 13.5h-264q-19 0 -32 13t-13 32v3q0 15 10 25l331 331q13 13 13 32v128
q0 19 -13 32t-32 13h-355q-19 0 -32 -13t-13 -32t13 -32.5t32 -13.5h264q19 0 32 -13t13 -32v-3q0 -15 -10 -25z" />
    <glyph glyph-name="bracketleft" unicode="[" 
d="M447 717q17 -5 27.5 -19.5t10.5 -32.5q0 -23 -16 -39.5t-39 -16.5h-15t-16 1q-9 0 -17 -0.5t-15 -1.5q-14 -3 -22.5 -10t-8.5 -24v-519q7 -1 13.5 -1h13.5q9 0 17 0.5t15 0.5q18 0 32.5 -10.5t19.5 -27.5q17 -5 27.5 -19.5t10.5 -32.5q0 -23 -16 -39.5t-39 -16.5h-150
q-18 0 -32.5 10.5t-19.5 27.5q-17 5 -27.5 19.5t-10.5 32.5v701q0 23 16 39t39 16h150q18 0 32.5 -10.5t19.5 -27.5zM395 -46q19 0 32 13.5t13 32.5t-13 32t-32 13h-59q-19 0 -32 13t-13 32v519q0 19 13 32t32 13h59q19 0 32 13.5t13 32.5t-13 32t-32 13h-150q-19 0 -32 -13
t-13 -32v-701q0 -19 13 -32t32 -13h150z" />
    <glyph glyph-name="backslash" unicode="\" 
d="M588 10q0 -23 -16 -39t-39 -16q-18 0 -33 10.5t-20 27.5q-17 5 -27.5 19.5t-10.5 32.5v94q0 11 -7 18l-330 331q-17 17 -17 39v128q0 23 16 39t39 16q18 0 33 -10.5t20 -27.5q17 -6 27.5 -20t10.5 -32v-94q0 -11 7 -18l330 -331q17 -17 17 -39v-128zM189 655
q0 19 -13.5 32t-32.5 13t-32 -13t-13 -32v-128q0 -18 14 -32l330 -331q10 -10 10 -25v-94q0 -19 13.5 -32t32.5 -13t32 13t13 32v128q0 18 -14 32l-330 331q-10 10 -10 25v94z" />
    <glyph glyph-name="bracketright" unicode="]" 
d="M280 -91q-18 0 -32 10.5t-20 27.5q-17 5 -27.5 20t-10.5 33q0 19 7.5 30t19.5 17t26.5 7.5t29.5 1.5q8 0 16 -0.5t15 -0.5q14 0 24.5 10.5t10.5 24.5v518q-6 2 -13 2h-14q-8 -1 -16.5 -1h-15.5q-18 0 -32 10.5t-20 27.5q-17 5 -27.5 20t-10.5 33q0 23 16 39t39 16h150
q18 0 32.5 -10.5t19.5 -27.5q17 -5 27.5 -19.5t10.5 -32.5v-701q0 -23 -16 -39t-39 -16h-150zM395 -46q19 0 32 13t13 32v701q0 19 -13 32t-32 13h-150q-19 0 -32 -13t-13 -32t13 -32.5t32 -13.5h59q19 0 32 -13t13 -32v-519q0 -19 -13 -32t-32 -13h-59q-19 0 -32 -13
t-13 -32t13 -32.5t32 -13.5h150z" />
    <glyph glyph-name="asciicircum" unicode="^" 
d="M158 457q-17 5 -27.5 19t-10.5 33q0 24 16 40l145 145q16 16 39 16t39 -16l180 -180q16 -16 16 -40q0 -25 -17 -40t-40 -15q-21 0 -37 16l-81 81q-11 11 -25 11t-25 -11l-81 -81q-13 -16 -37 -16q-19 0 -34 10.5t-20 27.5zM320 700q-19 0 -32 -13l-145 -145
q-13 -13 -13 -33q0 -19 13.5 -32t33.5 -13q17 0 30 13l81 81q14 14 32 14t32 -14l81 -81q8 -8 15 -10.5t15 -2.5q20 0 33.5 13t13.5 32q0 20 -13 33l-145 145q-13 13 -32 13z" />
    <glyph glyph-name="underscore" unicode="_" 
d="M550 17q17 -5 27.5 -19.5t10.5 -32.5q0 -23 -15.5 -39.5t-39.5 -16.5h-355q-19 0 -33 10.5t-19 27.5q-17 5 -27.5 19.5t-10.5 33.5q0 23 16 39t39 16h355q18 0 32.5 -10.5t19.5 -27.5zM143 45q-19 0 -32 -13t-13 -32q0 -20 13 -33t32 -13h355q19 0 32 13t13 33
q0 19 -13 32t-32 13h-355z" />
    <glyph glyph-name="grave" unicode="`" 
d="M349 944q1 -1 2 -1.5t2 -1.5l81 -82q17 -17 17 -39q0 -23 -16.5 -39t-39.5 -16t-39 16l-117 117q-16 15 -16 39q0 23 16 39t39 16q24 0 40 -16zM328 823q13 -13 32 -13t32.5 13t13.5 32q0 18 -14 32l-81 82q-13 13 -33 13q-19 0 -32 -13t-13 -32t13 -32z" />
    <glyph glyph-name="a" unicode="a" 
d="M588 10q0 -23 -16 -39t-39 -16q-18 0 -33 10.5t-20 27.5q-17 5 -27.5 19.5t-10.5 32.5v192h-173q-14 0 -24.5 -10.5t-10.5 -24.5v-192q0 -23 -16.5 -39t-39.5 -16q-18 0 -32.5 10.5t-19.5 27.5q-17 5 -27.5 19.5t-10.5 32.5v505q0 23 16 39l105 104q8 8 17 12.5t22 4.5
h145q23 0 39 -16l139 -140q17 -17 17 -39v-505zM543 550q0 20 -14 32l-104 105q-13 13 -32 13h-145q-20 0 -32 -14l-105 -104q-13 -13 -13 -32v-505q0 -19 13 -32t32 -13t32.5 13t13.5 32v192q0 19 13 32t32 13h173q19 0 32 -13t13 -32v-192q0 -19 13.5 -32t32.5 -13t32 13
t13 32v505zM452 418q0 -19 -13 -32t-32 -13h-173q-19 0 -32 13t-13 32v98q0 15 10 25l58 58q10 10 25 10h77q15 0 25 -10l58 -58q10 -10 10 -25v-98zM412 557q-7 7 -18 7h-77q-10 0 -18 -7l-58 -58q-7 -8 -7 -18v-98h173q14 0 24.5 10.5t10.5 24.5v98q0 11 -7 18z" />
    <glyph glyph-name="b" unicode="b" 
d="M571 270q7 -7 9 -10q8 -14 8 -30v-135q0 -25 -16 -40l-84 -83q-17 -17 -40 -17h-270q-18 0 -32.5 10.5t-19.5 27.5q-17 5 -27.5 19.5t-10.5 32.5v610q0 23 16 39t39 16h270q23 0 40 -17l119 -118q16 -16 16 -39v-137q0 -17 -8 -31l-2 -2l-5 -6l-2 -2l-9 -9
q-8 -8 -14 -15.5t-6 -18.5q0 -13 6 -20.5t14 -15.5zM530 402q13 13 13 32v137q0 19 -13 32l-84 83q-12 14 -33 14h-270q-19 0 -32 -13t-13 -32v-610q0 -19 13 -32t32 -13h270q21 0 33 14l84 83q13 13 13 33v135q0 19 -13 32l-20 20q-13 13 -13 33q0 19 13 32zM405 405
q-10 -10 -25 -10h-146q-19 0 -32 13.5t-13 32.5v123q0 19 13 32t32 13h146q15 0 25 -10l37 -37q10 -10 10 -25v-69q0 -15 -10 -25zM433 557q-7 7 -18 7h-146q-14 0 -24.5 -10.5t-10.5 -24.5v-124h146q11 0 18 7l37 38q7 8 7 18v69q0 11 -7 18zM405 101q-10 -10 -25 -10h-146
q-19 0 -32 13t-13 32v122q0 19 13 32.5t32 13.5h146q15 0 25 -10l37 -38q10 -10 10 -25v-68q0 -15 -10 -25zM429 255q-7 4 -14 4h-146q-14 0 -24.5 -11t-10.5 -25v-122h146q11 0 18 7l37 37q7 7 7 18v68q0 10 -7 18z" />
    <glyph glyph-name="c" unicode="c" 
d="M234 149q0 -11 7 -18l23 -23q7 -7 18 -7h77q11 0 18 7l58 58q7 7 7 20q1 7 0.5 14t-0.5 14q0 23 16.5 39.5t39.5 16.5q18 0 32.5 -10.5t19.5 -27.5q17 -5 27.5 -20t10.5 -33v-64q0 -13 -4.5 -22t-12.5 -17l-104 -105q-15 -16 -39 -16h-145q-23 0 -40 17l-139 139
q-16 15 -16 39v400q0 24 16 39l104 104q17 17 40 17h145q23 0 39 -16l139 -140q17 -17 17 -39v-64q0 -23 -16 -39.5t-39 -16.5q-18 0 -32.5 10.5t-20.5 27.5q-17 6 -27.5 20.5t-10.5 32.5q0 7 0.5 14t-0.5 14q0 13 -7 20l-23 23q-7 7 -18 7h-77q-10 0 -18 -7l-58 -58
q-7 -8 -7 -18v-332zM189 516q0 15 10 25l58 58q10 10 25 10h77q15 0 25 -10l58 -58q10 -10 10 -25v-30q0 -19 13.5 -32.5t32.5 -13.5t32 13.5t13 32.5v64q0 20 -14 32l-104 105q-13 13 -32 13h-145q-19 0 -33 -14l-104 -104q-13 -13 -13 -32v-400q0 -19 13 -32l104 -104
q14 -14 33 -14h145q19 0 32 13l104 105q14 12 14 32v64q0 19 -13 32.5t-32 13.5t-32.5 -13.5t-13.5 -32.5v-30q0 -15 -10 -25l-58 -58q-10 -10 -25 -10h-77q-15 0 -25 10l-58 58q-10 10 -10 25v332z" />
    <glyph glyph-name="d" unicode="d" 
d="M588 115q0 -13 -4.5 -22t-12.5 -17l-104 -105q-15 -16 -39 -16h-250q-18 0 -32.5 10.5t-19.5 27.5q-17 5 -27.5 19.5t-10.5 32.5v610q0 23 16 39t39 16h250q23 0 39 -16l139 -140q17 -17 17 -39v-400zM425 687q-13 13 -32 13h-250q-19 0 -32 -13t-13 -32v-610
q0 -19 13 -32t32 -13h250q19 0 32 13l104 105q14 12 14 32v400q0 20 -14 32zM384 101q-10 -10 -25 -10h-125q-19 0 -32 13t-13 32v428q0 19 13 32t32 13h125q15 0 25 -10l58 -58q10 -10 10 -25v-332q0 -15 -10 -25zM412 557q-7 7 -18 7h-125q-14 0 -24.5 -10.5t-10.5 -24.5
v-428h125q11 0 18 7l58 58q7 7 7 18v332q0 11 -7 18z" />
    <glyph glyph-name="e" unicode="e" 
d="M550 672q17 -5 27.5 -19.5t10.5 -32.5q0 -23 -16 -39.5t-39 -16.5h-264q-14 0 -24.5 -10.5t-10.5 -24.5v-124h196q18 0 33 -10.5t20 -27.5q17 -6 27.5 -20t10.5 -32q0 -23 -16.5 -39.5t-39.5 -16.5h-196q-14 0 -24.5 -11t-10.5 -25v-122h264q18 0 32.5 -10.5t19.5 -27.5
q17 -5 27.5 -20t10.5 -33q0 -23 -16 -39t-39 -16h-355q-18 0 -32.5 10.5t-19.5 27.5q-17 5 -27.5 19.5t-10.5 32.5v610q0 23 16 39t39 16h355q18 0 32.5 -10.5t19.5 -27.5zM98 45q0 -19 13 -32t32 -13h355q19 0 32 13t13 32t-13 32.5t-32 13.5h-264q-19 0 -32 13t-13 32v122
q0 19 13 32.5t32 13.5h196q19 0 32.5 13.5t13.5 32.5t-13.5 32t-32.5 13h-196q-19 0 -32 13.5t-13 32.5v123q0 19 13 32t32 13h264q19 0 32 13.5t13 32.5t-13 32t-32 13h-355q-19 0 -32 -13t-13 -32v-610z" />
    <glyph glyph-name="f" unicode="f" 
d="M550 672q17 -5 27.5 -19.5t10.5 -32.5q0 -23 -16 -39.5t-39 -16.5h-264q-14 0 -24.5 -10.5t-10.5 -24.5v-124h196q18 0 32.5 -10.5t19.5 -27.5q17 -5 27.5 -19.5t10.5 -32.5q0 -23 -16 -39.5t-39 -16.5h-196q-14 0 -24.5 -11t-10.5 -25v-214q0 -23 -16.5 -39t-39.5 -16
q-18 0 -32.5 10.5t-19.5 27.5q-17 5 -27.5 19.5t-10.5 32.5v611q0 23 16 39t39 16h355q18 0 32.5 -10.5t19.5 -27.5zM189 258q0 19 13 32.5t32 13.5h196q19 0 32 13.5t13 32.5t-13 32t-32 13h-196q-19 0 -32 13.5t-13 32.5v123q0 19 13 32t32 13h264q19 0 32 13.5t13 32.5
t-13 32t-32 13h-355q-19 0 -32 -13t-13 -32v-611q0 -19 13 -32t32 -13t32.5 13t13.5 32v214z" />
    <glyph glyph-name="g" unicode="g" 
d="M296 564q-10 0 -18 -7l-37 -37q-7 -8 -7 -18v-374q0 -11 7 -18l2 -2q7 -7 18 -7h119q11 0 18 7l37 37q7 7 7 18v96h-60q-18 0 -32.5 10.5t-20.5 27.5q-17 6 -27.5 20.5t-10.5 32.5q0 23 16.5 39t39.5 16h151q18 0 32.5 -10.5t19.5 -27.5q17 -5 27.5 -19.5t10.5 -32.5
v-220q0 -25 -16 -40l-84 -83q-17 -17 -40 -17h-186q-22 0 -39 17l-84 83q0 1 -1 1l-1 2l-1 1l-32 31q-16 16 -16 40v441q0 23 16 39l84 83q17 17 39 17h186q23 0 40 -17l119 -118q10 -9 13 -21t4 -23t0 -21.5t-1 -19.5q0 -23 -16 -39t-39 -16q-18 0 -33 10.5t-20 27.5
q-23 7 -30.5 24t-7.5 38q0 6 -1 8q-1 8 -6 12l-2 2q-7 7 -18 7h-119zM452 525q0 -19 13.5 -32t32.5 -13t32 13t13 32v46q0 19 -13 32l-84 83q-12 14 -33 14h-186q-20 0 -32 -14l-84 -83q-13 -13 -13 -32v-441q0 -20 13 -33l84 -83q12 -14 32 -14h186q21 0 33 14l84 83
q13 13 13 33v220q0 19 -13 32t-32 13h-151q-19 0 -32.5 -13t-13.5 -32t13.5 -32.5t32.5 -13.5h60q19 0 32 -13t13 -32v-96q0 -15 -10 -25l-37 -37q-10 -10 -25 -10h-119q-15 0 -25 10l-37 37q-10 10 -10 25v374q0 15 10 25l37 37q10 10 25 10h119q15 0 25 -10l37 -37
q10 -10 10 -25v-12z" />
    <glyph glyph-name="h" unicode="h" 
d="M588 10q0 -23 -16 -39t-39 -16q-18 0 -33 10.5t-20 27.5q-17 5 -27.5 19t-10.5 33v215h-173q-14 0 -24.5 -11t-10.5 -25v-214q0 -23 -16.5 -39t-39.5 -16q-18 0 -32.5 10.5t-19.5 27.5q-17 5 -27.5 19.5t-10.5 32.5v610q0 23 16 39t39 16q18 0 33 -10.5t20 -27.5
q17 -6 27.5 -20t10.5 -32v-215h173q14 0 24.5 10.5t10.5 25.5v214q0 23 16.5 39t39.5 16q18 0 32.5 -10.5t19.5 -27.5q17 -5 27.5 -19.5t10.5 -32.5v-610zM543 655q0 19 -13 32t-32 13q-20 0 -33 -13t-13 -32v-214q0 -19 -13 -32.5t-32 -13.5h-173q-19 0 -32 13.5t-13 32.5
v214q0 19 -13.5 32t-32.5 13t-32 -13t-13 -32v-610q0 -19 13 -32t32 -13t32.5 13t13.5 32v214q0 19 13 32.5t32 13.5h173q19 0 32 -13.5t13 -32.5v-214q0 -19 13 -32t33 -13q19 0 32 13t13 32v610z" />
    <glyph glyph-name="i" unicode="i" 
d="M223 -45q-18 0 -32.5 10.5t-19.5 27.5q-17 5 -27.5 19.5t-10.5 32.5q0 23 16 39.5t39 16.5h42q14 0 24.5 10.5t10.5 24.5v428h-42q-18 0 -32 10.5t-20 27.5q-17 5 -27.5 20t-10.5 33q0 23 16 39t39 16h265q18 0 32.5 -10.5t19.5 -27.5q17 -5 27.5 -19.5t10.5 -32.5
q0 -23 -16 -39.5t-39 -16.5h-42q-14 0 -24.5 -10.5t-10.5 -24.5v-428h42q18 0 32.5 -10.5t19.5 -27.5q17 -5 27.5 -20t10.5 -33q0 -23 -16 -39t-39 -16h-265zM453 0q19 0 32 13t13 32t-13 32.5t-32 13.5h-42q-19 0 -32 13t-13 32v428q0 19 13 32t32 13h42q19 0 32 13.5
t13 32.5t-13 32t-32 13h-265q-19 0 -32 -13t-13 -32t13 -32.5t32 -13.5h42q19 0 32 -13t13 -32v-428q0 -19 -13 -32t-32 -13h-42q-19 0 -32 -13.5t-13 -32.5t13 -32t32 -13h265z" />
    <glyph glyph-name="j" unicode="j" 
d="M442 564h-87q-18 0 -32 10.5t-20 27.5q-17 5 -27.5 20t-10.5 33q0 23 16 39t39 16h178q18 0 32.5 -10.5t19.5 -27.5q17 -5 27.5 -19.5t10.5 -32.5v-525q0 -25 -16 -40l-84 -83q-15 -17 -39 -17h-187q-22 0 -39 17l-84 83q-1 1 -1.5 2t-1.5 2l-32 31q-16 16 -16 40v84
q0 23 16 39.5t39 16.5q18 0 32.5 -10.5t20.5 -27.5q17 -6 27.5 -20.5t10.5 -32.5v-51q0 -11 7 -18l2 -2q7 -7 18 -7h119q11 0 18 7l37 37q7 7 7 18v401zM452 163q0 -15 -10 -25l-37 -37q-10 -10 -25 -10h-119q-15 0 -25 10l-37 37q-10 10 -10 25v51q0 19 -13.5 32.5
t-32.5 13.5t-32 -13.5t-13 -32.5v-84q0 -20 13 -33l84 -83q12 -14 32 -14h187q20 0 32 14l84 83q13 13 13 33v525q0 19 -13 32t-32 13h-178q-19 0 -32 -13t-13 -32t13 -32.5t32 -13.5h87q19 0 32 -13t13 -32v-401z" />
    <glyph glyph-name="k" unicode="k" 
d="M269 260q-14 0 -24.5 -11t-10.5 -25v-214q0 -23 -16.5 -39t-39.5 -16q-18 0 -32.5 10.5t-19.5 27.5q-17 5 -27.5 19.5t-10.5 32.5v610q0 23 16 39t39 16q18 0 33 -10.5t20 -27.5q17 -6 27.5 -20t10.5 -32v-215h47q11 0 18 7l136 136q7 7 7 18v89q0 23 16.5 39t39.5 16
q18 0 32.5 -10.5t19.5 -27.5q17 -5 27.5 -19.5t10.5 -32.5v-123q0 -24 -16 -39l-119 -118q-4 -5 -7 -12t-3 -13t2.5 -12t5.5 -11l121 -120q16 -16 16 -39v-123q0 -23 -16 -39t-39 -16q-18 0 -33 10.5t-20 27.5q-17 5 -27.5 19.5t-10.5 32.5v89q0 11 -7 18l-101 101
q-7 7 -18 7h-47zM281 305q15 0 25 -10l136 -136q10 -10 10 -25v-89q0 -19 13.5 -32t32.5 -13t32 13t13 32v123q0 19 -13 32l-119 118q-13 14 -13 32t13 32l119 118q13 13 13 32v123q0 19 -13 32t-32 13t-32.5 -13t-13.5 -32v-89q0 -15 -10 -25l-136 -136q-10 -10 -25 -10
h-47q-19 0 -32 13.5t-13 32.5v214q0 19 -13.5 32t-32.5 13t-32 -13t-13 -32v-610q0 -19 13 -32t32 -13t32.5 13t13.5 32v214q0 19 13 32.5t32 13.5h47z" />
    <glyph glyph-name="l" unicode="l" 
d="M178 -45q-18 0 -32.5 10.5t-19.5 27.5q-17 5 -27.5 19.5t-10.5 32.5v610q0 23 16 39t39 16q18 0 33 -10.5t20 -27.5q17 -6 27.5 -20t10.5 -32v-519h264q18 0 32.5 -10.5t19.5 -27.5q17 -5 27.5 -20t10.5 -33q0 -23 -16 -39t-39 -16h-355zM189 655q0 19 -13.5 32t-32.5 13
t-32 -13t-13 -32v-610q0 -19 13 -32t32 -13h355q19 0 32 13t13 32t-13 32.5t-32 13.5h-264q-19 0 -32 13t-13 32v519z" />
    <glyph glyph-name="m" unicode="m" 
d="M234 486v-476q0 -23 -16.5 -39t-39.5 -16q-18 0 -32.5 10.5t-19.5 27.5q-17 5 -27.5 19.5t-10.5 32.5v610q0 23 16 39t39 16q24 0 40 -16l114 -115q11 -8 24 -8q15 0 25 10l112 113q16 16 40 16q18 0 32.5 -10.5t19.5 -27.5q17 -5 27.5 -19.5t10.5 -32.5v-610
q0 -23 -16 -39t-39 -16q-18 0 -33 10.5t-20 27.5q-17 5 -27.5 19.5t-10.5 32.5v405l-24 -23q-7 -8 -7 -18v-94q0 -23 -16 -39t-39 -16q-18 0 -33 10.5t-20 27.5q-17 5 -27.5 19t-10.5 33v94q0 11 -7 18zM452 45q0 -19 13.5 -32t32.5 -13t32 13t13 32v610q0 19 -13 32t-32 13
q-20 0 -33 -13l-112 -113q-13 -13 -32 -13t-33 13l-112 113q-13 13 -33 13q-19 0 -32 -13t-13 -32v-610q0 -19 13 -32t32 -13t32.5 13t13.5 32v485q0 8 4 8q3 0 6 -3l66 -66q10 -10 10 -25v-94q0 -19 13 -32t33 -13q19 0 32 13t13 32v94q0 15 10 25l66 66q3 3 6 3q4 0 4 -8
v-485z" />
    <glyph glyph-name="n" unicode="n" 
d="M550 672q17 -5 27.5 -19.5t10.5 -32.5v-610q0 -23 -16 -39t-39 -16q-32 0 -48 28l-7 10q-17 7 -29 25l-215 370v-378q0 -23 -16.5 -39t-39.5 -16q-18 0 -32.5 10.5t-19.5 27.5q-17 5 -27.5 19.5t-10.5 32.5v610q0 23 16 39t39 16q15 0 28 -7.5t21 -20.5l6 -11
q17 -6 29 -24l215 -370v378q0 23 16.5 39t39.5 16q18 0 32.5 -10.5t19.5 -27.5zM183 677q-14 23 -40 23q-19 0 -32 -13t-13 -32v-610q0 -19 13 -32t32 -13t32.5 13t13.5 32v427q0 7 2 7q3 0 5 -5l262 -451q14 -23 40 -23q19 0 32 13t13 32v610q0 19 -13 32t-32 13t-32.5 -13
t-13.5 -32v-426q0 -7 -2 -7t-5 5z" />
    <glyph glyph-name="o" unicode="o" 
d="M588 94q0 -24 -16 -39l-84 -83q-17 -17 -40 -17h-186q-22 0 -39 17l-84 83q0 1 -1 1l-1 2l-1 1l-32 31q-16 16 -16 39v442q0 23 16 39l84 83q17 17 39 17h186q23 0 40 -17l119 -118q16 -16 16 -39v-442zM446 686q-12 14 -33 14h-186q-20 0 -32 -14l-84 -83
q-13 -13 -13 -32v-442q0 -19 13 -32l84 -83q12 -14 32 -14h186q21 0 33 14l84 83q13 13 13 32v442q0 19 -13 32zM405 101q-10 -10 -25 -10h-119q-15 0 -25 10l-37 37q-10 10 -10 25v374q0 15 10 25l37 37q10 10 25 10h119q15 0 25 -10l37 -37q10 -10 10 -25v-374
q0 -15 -10 -25zM433 557q-7 7 -18 7h-119q-10 0 -18 -7l-37 -37q-7 -8 -7 -18v-374q0 -11 7 -18l2 -2q7 -7 18 -7h119q11 0 18 7l37 37q7 7 7 18v374q0 11 -7 18z" />
    <glyph glyph-name="p" unicode="p" 
d="M126 -7q-17 5 -27.5 19.5t-10.5 32.5v610q0 23 16 39t39 16h270q23 0 40 -17l119 -118q16 -16 16 -39v-159q0 -25 -16 -40l-84 -83q-17 -17 -40 -17h-179q-14 0 -24.5 -10.5t-10.5 -24.5v-192q0 -23 -16.5 -39t-39.5 -16q-18 0 -32.5 10.5t-19.5 27.5zM189 237
q0 19 13 32t32 13h179q21 0 33 14l84 83q13 13 13 33v159q0 19 -13 32l-84 83q-12 14 -33 14h-270q-19 0 -32 -13t-13 -32v-610q0 -19 13 -32t32 -13t32.5 13t13.5 32v192zM234 373q-19 0 -32 13t-13 32v146q0 19 13 32t32 13h146q15 0 25 -10l37 -37q10 -10 10 -25v-92
q0 -15 -10 -25l-37 -37q-10 -10 -25 -10h-146zM433 557q-7 7 -18 7h-146q-14 0 -24.5 -10.5t-10.5 -24.5v-146h146q11 0 18 7l37 37q7 7 7 18v92q0 11 -7 18z" />
    <glyph glyph-name="q" unicode="q" 
d="M463 -82q-2 1 -3 2l-2 2l-28 28q-8 5 -15 5h-152q-23 0 -40 17l-84 83q0 1 -1 1l-1 2l-1 1l-32 31q-16 16 -16 40v441q0 23 16 39l84 83q17 17 40 17h186q22 0 39 -17l119 -118q16 -16 16 -39v-441q0 -17 -8 -31q-4 -5 -8.5 -10t-9.5 -9q-8 -8 -14 -15t-6 -20
q0 -12 5.5 -19t14.5 -15l9 -9q7 -7 9 -10q8 -14 8 -31q0 -23 -16 -39t-39 -16q-24 0 -40 16zM380 0q15 0 25 -10l60 -61q13 -13 33 -13q19 0 32 13t13 32q0 20 -13 33l-20 19q-13 13 -13 32q0 20 13 33l20 19q13 13 13 33v441q0 19 -13 32l-84 83q-12 14 -32 14h-186
q-21 0 -33 -14l-84 -83q-13 -13 -13 -32v-441q0 -20 13 -33l84 -83q12 -14 33 -14h152zM405 101q-10 -10 -25 -10h-119q-15 0 -25 10l-37 37q-10 10 -10 25v374q0 15 10 25l37 37q10 10 25 10h119q15 0 25 -10l37 -37q10 -10 10 -25v-374q0 -15 -10 -25zM433 557q-7 7 -18 7
h-119q-10 0 -18 -7l-37 -37q-7 -8 -7 -18v-374q0 -11 7 -18l2 -2q7 -7 18 -7h119q11 0 18 7l37 37q7 7 7 18v374q0 11 -7 18z" />
    <glyph glyph-name="r" unicode="r" 
d="M269 237q-14 0 -24.5 -10.5t-10.5 -24.5v-192q0 -23 -16.5 -39t-39.5 -16q-18 0 -32.5 10.5t-19.5 27.5q-17 5 -27.5 19.5t-10.5 32.5v610q0 23 16 39t39 16h250q23 0 40 -17l139 -139q16 -16 16 -39v-118q0 -11 -3.5 -19t-8.5 -16q-5 -5 -12 -12.5t-13 -11.5
q-13 -12 -21.5 -22t-8.5 -23q0 -11 6 -20l2 -2l6 -6t6 -7q0 -1 2 -3l8 -8q6 -4 13 -11.5t12 -12.5q5 -8 8.5 -16t3.5 -19v-178q0 -23 -16 -39t-39 -16q-18 0 -33 10.5t-20 27.5q-17 5 -27.5 19.5t-10.5 32.5v144q0 11 -7 18l-23 23q-7 7 -18 7h-125zM359 282q15 0 25 -10
l58 -58q10 -10 10 -25v-144q0 -19 13.5 -32t32.5 -13t32 13t13 32v178q0 19 -13 32l-41 40q-13 14 -13 33t13 32l40 40q14 14 14 32v118q0 19 -13 32l-104 104q-14 14 -33 14h-250q-19 0 -32 -13t-13 -32v-610q0 -19 13 -32t32 -13t32.5 13t13.5 32v192q0 19 13 32t32 13
h125zM384 383q-10 -10 -25 -10h-125q-19 0 -32 13t-13 32v146q0 19 13 32t32 13h125q15 0 25 -10l58 -58q10 -10 10 -25v-50q0 -15 -10 -25zM412 557q-7 7 -18 7h-125q-14 0 -24.5 -10.5t-10.5 -24.5v-146h125q11 0 18 7l58 58q7 7 7 18v50q0 11 -7 18z" />
    <glyph glyph-name="s" unicode="s" 
d="M296 564q-10 0 -18 -7l-19 -19t-13 -14q-9 -9 -11 -17q-2 -6 -2 -23q1 -9 1 -21.5v-29.5q0 -12 8 -18l5 -6q7 -4 14 -4h153q23 0 39 -16l31 -32q1 -1 2 -1.5t2 -1.5l84 -85q16 -16 16 -39v-136q0 -24 -16 -39l-84 -83q-15 -17 -39 -17h-187q-22 0 -39 17l-84 83
q-1 1 -1.5 2t-1.5 2l-32 31q-9 9 -12.5 20.5t-4.5 22.5t0 22t1 20q0 23 16 38.5t39 15.5q18 0 33.5 -10.5t20.5 -27.5q22 -8 29.5 -24t7.5 -37q1 -2 1 -8q2 -7 6 -12l2 -2q7 -7 18 -7h119q11 0 18 7l19 19t13 14q10 10 11 16q2 6 2 23q0 9 -0.5 21.5t-0.5 29.5q0 10 -7 18
l-6 6q-7 4 -14 4h-153q-23 0 -39 16l-119 120q-16 16 -16 39v137q0 23 16 39l84 83q17 17 39 17h187q22 0 39 -17l119 -118q10 -9 13 -21t4 -23t0 -21.5t-1 -19.5q0 -23 -16 -39t-39 -16q-18 0 -33 10.5t-20 27.5q-17 5 -27.5 19.5t-10.5 32.5v12q0 11 -7 18l-2 2
q-7 7 -18 7h-119zM452 525q0 -19 13.5 -32t32.5 -13t32 13t13 32v46q0 19 -13 32l-84 83q-12 14 -32 14h-187q-20 0 -32 -14l-84 -83q-13 -13 -13 -32v-137q0 -19 13 -32l84 -85q13 -13 32 -13h153q15 0 25 -10l37 -38q10 -10 10 -25v-68q0 -15 -10 -25l-37 -37
q-10 -10 -25 -10h-119q-15 0 -25 10l-37 37q-10 10 -10 25v12q0 19 -13.5 31.5t-32.5 12.5t-32 -12.5t-13 -31.5v-46q0 -19 13 -32l84 -83q12 -14 32 -14h187q20 0 32 14l84 83q13 13 13 32v136q0 19 -13 32l-84 85q-13 13 -32 13h-153q-15 0 -25 10l-37 38q-10 10 -10 25
v69q0 15 10 25l37 37q10 10 25 10h119q15 0 25 -10l37 -37q10 -10 10 -25v-12z" />
    <glyph glyph-name="t" unicode="t" 
d="M265 564h-87q-18 0 -32 10.5t-20 27.5q-17 5 -27.5 20t-10.5 33q0 23 16 39t39 16h355q18 0 32.5 -10.5t19.5 -27.5q17 -5 27.5 -19.5t10.5 -32.5q0 -23 -16 -39.5t-39 -16.5h-87q-14 0 -24.5 -10.5t-10.5 -24.5v-519q0 -24 -16.5 -39.5t-39.5 -15.5q-18 0 -32.5 10.5
t-19.5 27.5q-17 5 -27.5 19.5t-10.5 32.5v519zM366 564q0 19 13 32t32 13h87q19 0 32 13.5t13 32.5t-13 32t-32 13h-355q-19 0 -32 -13t-13 -32t13 -32.5t32 -13.5h87q19 0 32 -13t13 -32v-519q0 -19 13 -32t32 -13q20 0 33 13t13 32v519z" />
    <glyph glyph-name="u" unicode="u" 
d="M550 672q17 -5 27.5 -19.5t10.5 -32.5v-526q0 -24 -16 -39l-84 -83q-17 -17 -40 -17h-186q-22 0 -39 17l-84 83q-1 1 -1.5 2t-1.5 2l-32 31q-16 16 -16 39v526q0 23 16 39t39 16q18 0 33 -10.5t20 -27.5q17 -6 27.5 -20t10.5 -32v-492q0 -11 7 -18l2 -2q7 -7 18 -7h119
q11 0 18 7l37 37q7 7 7 18v492q0 23 16.5 39t39.5 16q18 0 32.5 -10.5t19.5 -27.5zM189 655q0 19 -13.5 32t-32.5 13t-32 -13t-13 -32v-526q0 -19 13 -32l84 -83q12 -14 32 -14h186q21 0 33 14l84 83q13 13 13 32v526q0 19 -13 32t-32 13t-32.5 -13t-13.5 -32v-492
q0 -15 -10 -25l-37 -37q-10 -10 -25 -10h-119q-15 0 -25 10l-37 37q-10 10 -10 25v492z" />
    <glyph glyph-name="v" unicode="v" 
d="M588 169q0 -25 -17 -40l-158 -158q-8 -9 -18 -12.5t-20 -4.5t-19.5 0t-18.5 1q-23 0 -39 16l-193 193q-17 17 -17 40v451q0 23 16 39t39 16q18 0 33 -10.5t20 -27.5q17 -6 27.5 -20t10.5 -32v-417q0 -11 7 -18l57 -58q10 -7 23 -7q15 0 25 10l89 90q7 7 7 18v417
q0 23 16.5 39t39.5 16q18 0 32.5 -10.5t19.5 -27.5q17 -5 27.5 -19.5t10.5 -32.5v-451zM452 238q0 -15 -10 -25l-89 -90q-13 -13 -32 -13q-20 0 -33 13l-89 90q-10 10 -10 25v417q0 19 -13.5 32t-32.5 13t-32 -13t-13 -32v-451q0 -19 14 -33l158 -158q13 -13 32 -13h37
q19 0 32 13l158 158q14 14 14 33v451q0 19 -13 32t-32 13t-32.5 -13t-13.5 -32v-417z" />
    <glyph glyph-name="w" unicode="w" 
d="M588 99q0 -24 -16 -39l-89 -89q-15 -16 -39 -16q-23 0 -39 16l-30 30q-2 2 -3 2.5t-2 2.5l-14 14l-50 -49q-15 -16 -39 -16q-23 0 -39 16l-124 124q-16 15 -16 39v521q0 23 16 39t39 16q18 0 33 -10.5t20 -27.5q17 -6 27.5 -20t10.5 -32v-482q13 1 22 10t9 20v182
q0 23 16.5 39t39.5 16q18 0 32.5 -10.5t19.5 -27.5q17 -5 27.5 -19.5t10.5 -32.5v-177q13 1 22 10t9 20v487q0 23 16.5 39t39.5 16q18 0 32.5 -10.5t19.5 -27.5q17 -5 27.5 -19.5t10.5 -32.5v-521zM452 168q0 -17 -13 -28.5t-30 -11.5q-16 0 -29.5 11.5t-13.5 28.5v182
q0 19 -13 32t-32 13q-20 0 -33 -13t-13 -32v-182q0 -17 -13 -28.5t-30 -11.5q-16 0 -29.5 11.5t-13.5 28.5v487q0 19 -13.5 32t-32.5 13t-32 -13t-13 -32v-521q0 -19 13 -32l89 -89q13 -13 32 -13t32 13l57 57l56 -57q13 -13 32 -13t32 13l89 89q13 13 13 32v521
q0 19 -13 32t-32 13t-32.5 -13t-13.5 -32v-487z" />
    <glyph glyph-name="x" unicode="x" 
d="M588 473q0 -24 -17 -39l-93 -94q-11 -11 -11 -25t11 -25l93 -94q17 -17 17 -39v-147q0 -23 -16 -39t-39 -16q-18 0 -33 10.5t-20 27.5q-17 5 -27.5 19.5t-10.5 32.5v113q0 11 -7 18l-54 54q-11 11 -26 11q-14 0 -25 -11l-89 -89q-7 -8 -7 -18v-113q0 -23 -16.5 -39
t-39.5 -16q-18 0 -32.5 10.5t-19.5 27.5q-17 5 -27.5 19.5t-10.5 32.5v147q0 22 17 39l93 94q11 11 11 25t-11 25l-93 94q-17 17 -17 39v147q0 23 16 39t39 16q18 0 33 -10.5t20 -27.5q17 -6 27.5 -20t10.5 -32v-113q0 -11 7 -18l57 -57q11 -8 22 -8q16 0 26 10l89 90
q7 7 7 18v113q0 23 16.5 39t39.5 16q18 0 32.5 -10.5t19.5 -27.5q17 -5 27.5 -19.5t10.5 -32.5v-147zM452 542q0 -15 -10 -25l-89 -90q-14 -13 -33 -13q-18 0 -32 13l-89 90q-10 10 -10 25v113q0 19 -13.5 32t-32.5 13t-32 -13t-13 -32v-147q0 -20 14 -32l93 -94
q14 -14 14 -32t-14 -32l-93 -94q-14 -12 -14 -32v-147q0 -19 13 -32t32 -13t32.5 13t13.5 32v113q0 15 10 25l89 89q14 14 32 14q19 0 33 -14l89 -89q10 -10 10 -25v-113q0 -19 13.5 -32t32.5 -13t32 13t13 32v147q0 20 -14 32l-93 94q-14 14 -14 32t14 32l93 94
q14 12 14 32v147q0 19 -13 32t-32 13t-32.5 -13t-13.5 -32v-113z" />
    <glyph glyph-name="y" unicode="y" 
d="M196 672q17 -6 27.5 -20t10.5 -32v-135q0 -11 7 -18l57 -58q10 -7 22 -7q15 0 26 10l89 90q7 7 7 18v135q0 23 16.5 39t39.5 16q18 0 32.5 -10.5t19.5 -27.5q17 -5 27.5 -19.5t10.5 -32.5v-169q0 -25 -17 -40l-153 -153q-7 -8 -7 -18v-230q0 -24 -16.5 -39.5t-39.5 -15.5
q-18 0 -32.5 10.5t-19.5 27.5q-17 5 -27.5 19.5t-10.5 32.5v230q0 11 -7 18l-153 153q-17 17 -17 40v169q0 23 16 39t39 16q18 0 33 -10.5t20 -27.5zM265 300q10 -10 10 -25v-230q0 -19 13 -32t32 -13q20 0 33 13t13 32v230q0 15 10 25l153 153q14 14 14 33v169q0 19 -13 32
t-32 13t-32.5 -13t-13.5 -32v-135q0 -15 -10 -25l-89 -90q-13 -13 -33 -13q-19 0 -32 13l-89 90q-10 10 -10 25v135q0 19 -13.5 32t-32.5 13t-32 -13t-13 -32v-169q0 -19 14 -33z" />
    <glyph glyph-name="z" unicode="z" 
d="M178 564q-18 0 -32 10.5t-20 27.5q-17 5 -27.5 20t-10.5 33q0 23 16 39t39 16h355q18 0 32.5 -10.5t19.5 -27.5q17 -5 27.5 -19.5t10.5 -32.5v-128q0 -24 -16 -39l-331 -331q-7 -8 -7 -21h264q18 0 32.5 -10.5t19.5 -27.5q17 -5 27.5 -20t10.5 -33q0 -23 -16 -39t-39 -16
h-355q-18 0 -32.5 10.5t-19.5 27.5q-17 5 -27.5 19.5t-10.5 32.5v128q0 24 16 39l331 331q7 7 7 21h-264zM111 205q-13 -13 -13 -32v-128q0 -19 13 -32t32 -13h355q19 0 32 13t13 32t-13 32.5t-32 13.5h-264q-19 0 -32 13t-13 32v3q0 15 10 25l331 331q13 13 13 32v128
q0 19 -13 32t-32 13h-355q-19 0 -32 -13t-13 -32t13 -32.5t32 -13.5h264q19 0 32 -13t13 -32v-3q0 -15 -10 -25z" />
    <glyph glyph-name="braceleft" unicode="{" 
d="M406 -92q-24 0 -39 17l-119 119q-16 16 -16 39v148q0 11 -7 18l-61 61q-16 16 -16 39q0 24 16 39l61 61q7 7 7 18v149q0 23 16 39l84 83q17 17 39 17h66q18 0 32.5 -10.5t19.5 -27.5q17 -5 27.5 -19.5t10.5 -32.5q0 -23 -16 -39.5t-39 -16.5q-6 0 -13.5 0.5t-15.5 -0.5
q-7 -1 -12 -3t-9 -4l-37 -37q-7 -8 -7 -18v-149q0 -20 -10.5 -33.5t-21.5 -23.5q-4 -3 -6.5 -5t-4.5 -4q-6 -4 -9 -9q-7 -6 -7 -9v-1q6 -4 14 -16h1q3 -3 6 -5.5t5 -5.5q11 -10 22 -23.5t11 -32.5v-148q0 -11 7 -18l2 -2q7 -7 21 -7q8 -1 15 -0.5t14 0.5q18 0 32.5 -10.5
t19.5 -27.5q17 -5 27.5 -19.5t10.5 -32.5q0 -23 -15.5 -40t-39.5 -17h-66zM278 339q-4 4 -4 10t4 10l42 42q13 13 13 32v149q0 15 10 25l37 37q10 10 25 10h32q19 0 32 13.5t13 32.5t-13 32t-32 13h-66q-20 0 -32 -14l-84 -83q-13 -13 -13 -32v-149q0 -15 -10 -25l-61 -61
q-13 -13 -13 -32t13 -32l61 -61q10 -10 10 -25v-148q0 -19 13 -32l84 -84q14 -14 32 -14h66q19 0 32 13.5t13 33.5q0 19 -13 32t-32 13h-32q-15 0 -25 10l-37 37q-10 10 -10 25v148q0 19 -13 32z" />
    <glyph glyph-name="bar" unicode="|" 
d="M373 746q17 -5 27.5 -19t10.5 -33v-758q0 -24 -16.5 -39.5t-39.5 -15.5q-18 0 -32.5 10.5t-19.5 27.5q-17 5 -27.5 19.5t-10.5 32.5v758q0 23 16 39t39 16q19 0 33.5 -10.5t19.5 -27.5zM275 -29q0 -19 13 -32t32 -13q20 0 33 13t13 32v758q0 19 -13 32t-33 13
q-19 0 -32 -13t-13 -32v-758z" />
    <glyph glyph-name="braceright" unicode="}" 
d="M357 349q-5 4 -13 15q-3 3 -6.5 6t-7.5 6q-11 10 -22 24t-11 33v149q0 11 -7 18l-2 2q-6 6 -20 7q-8 1 -15.5 0.5t-14.5 -0.5q-18 0 -32 10.5t-20 27.5q-17 5 -27.5 20t-10.5 33q0 23 16 39t39 16h66q22 0 39 -17l119 -118q16 -16 16 -39v-149q0 -11 7 -18l61 -61
q16 -16 16 -39q0 -24 -16 -39l-61 -61q-7 -8 -7 -18v-148q0 -24 -16 -39l-84 -84q-15 -17 -39 -17h-66q-19 0 -32.5 10.5t-18.5 27.5q-18 5 -28.5 20t-10.5 34q0 23 16 39t39 16q7 0 14 -0.5t15 0.5q14 0 21 7l37 37q7 7 7 18v148q0 19 11 33t22 24q12 11 21 18q6 6 6 9z
M320 297q-13 -13 -13 -32v-148q0 -15 -10 -25l-37 -37q-10 -10 -25 -10h-32q-19 0 -32 -13t-13 -32q0 -20 13 -33.5t32 -13.5h66q18 0 32 14l84 84q13 13 13 32v148q0 15 10 25l61 61q13 13 13 32t-13 32l-61 61q-10 10 -10 25v149q0 19 -13 32l-84 83q-12 14 -32 14h-66
q-19 0 -32 -13t-13 -32t13 -32.5t32 -13.5h32q15 0 25 -10l37 -37q10 -10 10 -25v-149q0 -19 13 -32l42 -42q5 -5 5 -10t-5 -10z" />
    <glyph glyph-name="asciitilde" unicode="~" 
d="M245 323v-54q0 -24 -17 -40t-40 -16q-17 0 -31 11t-19 27q-17 5 -28 20.5t-11 32.5v80q0 10 5 19.5t11 15.5l47 48q15 15 35 15h79q21 0 36 -15q12 -12 21 -20t16 -14q5 -5 9 -9.5t8 -9.5q5 -5 9.5 -9t8.5 -8q15 -13 20 -22q6 -12 6 -28v-19h10l11 13v56q0 23 16.5 39.5
t39.5 16.5q18 0 32 -11t20 -27q17 -6 27.5 -21t10.5 -32v-80q0 -8 -2.5 -18t-10.5 -18l-50 -48q-8 -7 -15.5 -10.5t-19.5 -3.5h-80q-22 0 -37 15q-11 11 -20 19.5t-16 14.5l-9 9t-7 8q-6 6 -10.5 10t-8.5 8q-12 11 -19 23t-8 27v18h-6zM218 381h38l18 -19v-45q0 -16 12 -28
l48 -48q12 -12 30 -12h80q19 0 28 12l50 48q10 10 10 28v80q0 18 -13.5 32t-31.5 14q-19 0 -32.5 -14t-13.5 -32v-60l-17 -19h-39l-20 19v47q0 7 -2 14t-9 14l-49 48q-12 12 -29 12h-79q-16 0 -28 -12l-47 -48q-13 -14 -13 -28v-80q0 -19 13.5 -32.5t30.5 -13.5
q20 0 33.5 13.5t13.5 32.5v58z" />
    <glyph glyph-name="exclamdown" unicode="&#xa1;" 
d="M392 672q17 -5 27.5 -19.5t10.5 -32.5v-40q0 -23 -16 -39t-39 -16h-40q-18 0 -32.5 10.5t-19.5 27.5q-17 5 -27.5 19.5t-10.5 32.5v40q0 23 16 39t39 16h40q18 0 32.5 -10.5t19.5 -27.5zM300 700q-19 0 -32 -13t-13 -32v-40q0 -19 13 -32t32 -13h40q19 0 32 13t13 32v40
q0 19 -13 32t-32 13h-40zM411 10q0 -23 -16.5 -39t-39.5 -16q-18 0 -32.5 10.5t-19.5 27.5q-17 5 -27.5 19.5t-10.5 32.5v410q0 23 16 39t39 16q18 0 33 -10.5t20 -27.5q17 -6 27.5 -20t10.5 -32v-410zM366 455q0 19 -13.5 32t-32.5 13t-32 -13t-13 -32v-410q0 -19 13 -32
t32 -13t32.5 13t13.5 32v410z" />
    <glyph glyph-name="cent" unicode="&#xa2;" 
d="M550 232q17 -5 27.5 -20t10.5 -33v-64q0 -13 -4.5 -22t-12.5 -17l-104 -105q-8 -10 -17.5 -13t-21.5 -3h-13q-5 0 -5 -5v-14q0 -24 -16.5 -39.5t-39.5 -15.5q-18 0 -32.5 10.5t-19.5 27.5q-30 8 -36 38q-6 2 -11.5 5.5t-11.5 9.5l-139 139q-16 15 -16 39v400q0 24 16 39
l104 104q12 12 25 15q3 1 6 1t7 1h13q5 0 5 5v14q0 23 16 39t39 16q19 0 33.5 -10.5t19.5 -27.5q30 -11 37 -38q14 -3 23 -14l31 -32q1 -1 2 -1.5t2 -1.5l104 -105q17 -17 17 -39v-64q0 -23 -16 -39.5t-39 -16.5q-18 0 -32.5 10.5t-20.5 27.5q-17 6 -27.5 20.5t-10.5 32.5
q0 7 0.5 14t-0.5 14q0 13 -7 20l-23 23q-1 1 -2 1v-417l25 25q7 7 7 20q1 7 0.5 14t-0.5 14q0 23 16.5 39.5t39.5 16.5q18 0 32.5 -10.5t19.5 -27.5zM365 729q0 19 -13 32t-33 13q-19 0 -32 -13t-13 -32v-14q0 -15 -15 -15h-11q-19 0 -33 -14l-104 -104q-13 -13 -13 -32
v-400q0 -19 13 -32l104 -104q14 -14 33 -14h11q15 0 15 -15v-14q0 -19 13 -32t32 -13q20 0 33 13t13 32v14q0 15 15 15h13q19 0 32 13l104 105q14 12 14 32v64q0 19 -13 32.5t-32 13.5t-32.5 -13.5t-13.5 -32.5v-30q0 -15 -10 -25l-58 -58q-5 -5 -11 -5q-8 0 -8 11v486
q0 11 8 11q6 0 11 -5l58 -58q10 -10 10 -25v-30q0 -19 13.5 -32.5t32.5 -13.5t32 13.5t13 32.5v64q0 20 -14 32l-104 105q-13 13 -32 13h-13q-15 0 -15 15v14zM274 107q0 -11 -7 -11q-5 0 -10 5l-58 58q-10 10 -10 25v332q0 15 10 25l58 58q5 5 10 5q7 0 7 -11v-486z
M264 521l-23 -22q-7 -8 -7 -18v-332q0 -11 7 -18l23 -23v413z" />
    <glyph glyph-name="sterling" unicode="&#xa3;" 
d="M333 521q-3 -4 -5.5 -9t-2.5 -10v-119h127q18 0 33 -10.5t20 -27.5q17 -6 27.5 -20t10.5 -32q0 -23 -16.5 -39.5t-39.5 -16.5h-157q-5 0 -5 -5v-131h173q18 0 32.5 -10.5t19.5 -27.5q17 -5 27.5 -20t10.5 -33q0 -23 -16 -39t-39 -16h-355q-18 0 -32.5 10.5t-19.5 27.5
q-17 5 -27.5 19.5t-10.5 32.5q0 23 16 39.5t39 16.5h6t8 -1h13q7 1 8 2.5t1 3.5v131q-20 0 -34 10.5t-19 27.5q-17 5 -27.5 19.5t-10.5 33.5q0 23 16 39t39 16h6t8 -1h13q7 1 8 2.5t1 3.5v183q0 23 16 39l84 83q17 17 39 17h96q22 0 39 -17l84 -83q1 -1 2 -1.5t2 -2.5
l31 -31q10 -9 13 -21t4 -23t0 -21.5t-1 -19.5q0 -23 -16 -39t-39 -16q-18 0 -33 10.5t-20 27.5q-17 5 -27.5 19.5t-10.5 32.5q0 17 -4.5 27t-22.5 12q-7 1 -14 0.5t-14 -0.5q-5 0 -10 -2.5t-9 -5.5zM452 525q0 -19 13.5 -32t32.5 -13t32 13t13 32v46q0 19 -13 32l-84 83
q-12 14 -32 14h-96q-20 0 -32 -14l-84 -83q-13 -13 -13 -32v-183q0 -15 -15 -15h-31q-19 0 -32 -13t-13 -32q0 -20 13 -33t32 -13h31q15 0 15 -15v-161q0 -15 -15 -15h-31q-19 0 -32 -13.5t-13 -32.5t13 -32t32 -13h355q19 0 32 13t13 32t-13 32.5t-32 13.5h-203
q-15 0 -15 15v161q0 15 15 15h157q19 0 32.5 13t13.5 33q0 19 -13.5 32t-32.5 13h-157q-15 0 -15 15v149q0 15 11 26l35 35q11 11 26 11h28q15 0 26 -11l35 -35q11 -11 11 -26v-12z" />
    <glyph glyph-name="currency" unicode="&#xa4;" 
d="M557 552q17 -5 27.5 -19.5t10.5 -32.5q0 -19 -9 -31.5t-18 -21.5q-3 -2 -5.5 -4t-4.5 -4l-7 -7q-5 -5 -5 -7l1 -1l1 -1v-2q1 -3 5 -7q4 -5 7 -12.5t3 -18.5v-136q0 -11 -3 -18.5t-7 -12.5q-3 -3 -5 -8l-1 -2l-1 -1q0 -4 5 -9t8 -7l3 -3t6 -5q9 -8 18 -20.5t9 -30.5
q0 -23 -16 -39t-39 -16q-18 0 -31 9t-22 19q-4 5 -7.5 9t-7.5 8q-2 2 -3 2.5t-3 2.5l-2 -2q-4 -1 -9 -6q-6 -4 -13.5 -7t-18.5 -3h-136q-10 0 -18 3t-13 7q-4 5 -9 6l-2 2q-1 -1 -2.5 -2t-3.5 -3q-4 -4 -7.5 -8t-8.5 -9q-8 -10 -21 -19t-32 -9q-18 0 -32.5 10.5t-19.5 27.5
q-17 5 -27.5 19.5t-10.5 32.5q0 22 14.5 38.5t30.5 29.5q4 4 4 5q1 1 1 2q-1 1 -1 2t-0.5 1t-0.5 1l-3 4q-7 8 -10 15.5t-3 18.5v136q0 13 5 22.5t13 19.5q0 1 -1 2q0 2 -4 5q-16 13 -30.5 29.5t-14.5 38.5q0 23 16 39t39 16q19 0 31.5 -9t20.5 -19l9 -9q1 -2 6 -7
q7 -5 9 -5l1 1q3 2 5 3t5 3q5 3 12.5 6.5t17.5 3.5h136q10 0 17.5 -3t13.5 -7l9 -6l1 -1q2 0 9 5q5 5 6 7l9 9q8 10 20.5 19t31.5 9q18 0 32.5 -10.5t19.5 -27.5zM135 449q-13 -13 -13 -31v-136q0 -18 13 -31q5 -5 5 -11q0 -5 -5 -10l-32 -32q-13 -13 -13 -33q0 -19 13 -32
t32 -13q20 0 33 13l32 32q5 5 10 5t10 -5q7 -5 15 -9t17 -4h136q9 0 17 4t15 9q8 5 10 5q5 0 10 -5l32 -32q13 -13 33 -13q19 0 32 13t13 32t-13 32l-32 32q-4 4 -4 11t4 11q13 13 13 31v136q0 18 -13 31q-4 4 -4 11q0 6 4 10l32 32q13 13 13 33q0 19 -13 32t-32 13
q-20 0 -33 -13l-32 -32q-4 -4 -10 -4t-10 4q-7 5 -15 9t-17 4h-136q-9 0 -17 -4t-15 -9q-4 -4 -10 -4t-10 4l-32 32q-13 13 -33 13q-19 0 -32 -13t-13 -32q0 -20 13 -33l32 -32q5 -5 5 -10q0 -3 -5 -11zM427 316q0 -15 -11 -26l-36 -36q-11 -11 -26 -11h-68q-15 0 -26 11
l-36 36q-11 11 -11 26v68q0 15 11 26l36 36q11 11 26 11h68q15 0 26 -11l36 -36q11 -11 11 -26v-68zM408 404q-3 3 -8.5 5.5t-10.5 2.5h-68q-5 0 -10 -2.5t-9 -5.5l-36 -36q-3 -4 -5.5 -9t-2.5 -10v-68q0 -5 2.5 -10.5t5.5 -8.5l1 -1q8 -8 19 -8h68q11 0 19 8l36 36
q8 8 8 19v68q0 11 -8 19z" />
    <glyph glyph-name="yen" unicode="&#xa5;" 
d="M105 529q-17 17 -17 40v86q0 23 16 39t39 16q18 0 33 -10.5t20 -27.5q17 -6 27.5 -20t10.5 -32v-52q0 -11 7 -18l57 -58q10 -7 22 -7q15 0 26 10l89 90q7 7 7 18v52q0 23 16.5 39t39.5 16q18 0 32.5 -10.5t19.5 -27.5q17 -5 27.5 -19.5t10.5 -32.5v-86q0 -25 -17 -40
l-125 -126h9q18 0 32.5 -10.5t19.5 -27.5q17 -5 27.5 -19.5t10.5 -32.5q0 -23 -15.5 -39.5t-39.5 -16.5h-3q15 -11 20 -28q17 -5 27.5 -19.5t10.5 -32.5q0 -23 -15.5 -39.5t-39.5 -16.5h-74q-5 0 -5 -5v-71q0 -24 -16.5 -39.5t-39.5 -15.5q-18 0 -32.5 10.5t-19.5 27.5
q-17 5 -27.5 19.5t-10.5 32.5v41h-45q-19 0 -33 10.5t-19 27.5q-17 5 -27.5 19.5t-10.5 33.5q0 23 16 39t39 16h3q-14 11 -20 28q-17 5 -27.5 19.5t-10.5 33.5q0 23 16 39t39 16h75q2 0 2 1q0 3 -4 7zM272 368q0 -10 -12 -10h-75q-19 0 -32 -13t-13 -32q0 -20 13 -33t32 -13
h75q15 0 15 -15v-15q0 -15 -15 -15h-75q-19 0 -32 -13t-13 -32q0 -20 13 -33t32 -13h75q15 0 15 -15v-71q0 -19 13 -32t32 -13q20 0 33 13t13 32v71q0 15 15 15h74q19 0 32 13t13 33q0 19 -13 32t-32 13h-74q-15 0 -15 15v15q0 15 15 15h74q19 0 32 13t13 33q0 19 -13 32
t-32 13h-74q-12 0 -12 10q0 8 7 15l153 153q14 14 14 33v86q0 19 -13 32t-32 13t-32.5 -13t-13.5 -32v-52q0 -15 -10 -25l-89 -90q-13 -13 -33 -13q-19 0 -32 13l-89 90q-10 10 -10 25v52q0 19 -13.5 32t-32.5 13t-32 -13t-13 -32v-86q0 -19 14 -33l153 -153q7 -7 7 -15z
" />
    <glyph glyph-name="brokenbar" unicode="&#xa6;" 
d="M373 746q17 -5 27.5 -19t10.5 -33v-287q0 -24 -16.5 -39.5t-39.5 -15.5q-18 0 -32.5 10.5t-19.5 27.5q-17 5 -27.5 19.5t-10.5 32.5v287q0 23 16 39t39 16q19 0 33.5 -10.5t19.5 -27.5zM275 442q0 -19 13 -32t32 -13q20 0 33 13t13 32v287q0 19 -13 32t-33 13
q-19 0 -32 -13t-13 -32v-287zM373 275q17 -5 27.5 -19t10.5 -33v-287q0 -24 -16.5 -39.5t-39.5 -15.5q-18 0 -32.5 10.5t-19.5 27.5q-17 5 -27.5 19.5t-10.5 32.5v287q0 23 16 39t39 16q19 0 33.5 -10.5t19.5 -27.5zM275 -29q0 -19 13 -32t32 -13q20 0 33 13t13 32v287
q0 19 -13 32t-33 13q-19 0 -32 -13t-13 -32v-287z" />
    <glyph glyph-name="section" unicode="&#xa7;" 
d="M296 648q-10 0 -18 -7l-25 -25q-5 -4 -8 -7.5t-5 -5.5q-3 -5 -4.5 -13t-1.5 -28q0 -12 8 -18l5 -6q7 -4 14 -4h153q23 0 39 -16l119 -119q16 -16 16 -39v-91q0 -24 -16 -40l-45 -43l45 -46q16 -16 16 -39v-91q0 -24 -16 -39l-84 -83q-15 -17 -39 -17h-187q-22 0 -39 17
l-84 83q-1 1 -1.5 2t-1.5 2l-32 31q-9 9 -12.5 20.5t-4.5 22.5t0 22t1 20q0 23 16 38.5t39 15.5q18 0 33.5 -10.5t20.5 -27.5q22 -8 29.5 -24t7.5 -37q1 -2 1 -8q2 -7 6 -12l2 -2q7 -7 18 -7h119q11 0 18 7q8 8 14 13.5t11 10.5q10 9 13 13q4 5 5 13t1 28q0 10 -7 18l-6 6
q-7 4 -14 4h-153q-23 0 -39 16l-119 119q-16 15 -16 39v91q0 23 16 39l45 44l-45 46q-16 16 -16 39v92q0 23 16 39l84 83q17 17 39 17h187q22 0 39 -17l119 -118q16 -16 16 -39v-47q0 -23 -16 -39t-39 -16q-18 0 -33 10.5t-20 27.5q-23 7 -30.5 24t-7.5 38q0 7 -1 8
q-1 8 -6 13l-2 2q-7 7 -18 7h-119zM452 608q0 -19 13.5 -32t32.5 -13t32 13t13 32v47q0 19 -13 32l-84 83q-12 14 -32 14h-187q-20 0 -32 -14l-84 -83q-13 -13 -13 -32v-92q0 -19 13 -32l52 -53l-52 -51q-13 -13 -13 -32v-91q0 -19 13 -32l84 -84q13 -13 32 -13h153
q15 0 25 -10l37 -38q10 -10 10 -25v-23q0 -15 -10 -25l-37 -37q-10 -10 -25 -10h-119q-15 0 -25 10l-37 37q-10 10 -10 25v12q0 19 -13.5 31.5t-32.5 12.5t-32 -12.5t-13 -31.5v-46q0 -19 13 -32l84 -83q12 -14 32 -14h187q20 0 32 14l84 83q13 13 13 32v91q0 19 -13 32
l-53 53l53 51q13 13 13 32v91q0 19 -13 32l-84 84q-13 13 -32 13h-153q-15 0 -25 10l-37 38q-10 10 -10 25v24q0 15 10 25l37 37q10 10 25 10h119q15 0 25 -10l37 -37q10 -10 10 -25v-13zM199 313q-10 10 -10 25v23q0 15 10 25l37 37q10 10 25 10h119q15 0 25 -10l37 -38
q10 -10 10 -25v-22q0 -15 -10 -25l-37 -37q-10 -10 -25 -10h-119q-15 0 -25 10zM429 384q-7 4 -14 4h-119q-10 0 -18 -7l-37 -37q-7 -8 -7 -18v-23q0 -11 7 -18l2 -2q7 -7 18 -7h119q11 0 18 7l37 37q7 7 7 18v22q0 10 -7 18z" />
    <glyph glyph-name="dieresis" unicode="&#xa8;" 
d="M257 775q-18 0 -32.5 10.5t-19.5 27.5q-17 5 -27.5 19.5t-10.5 32.5v20q0 23 16 39t39 16h20q18 0 32.5 -10.5t19.5 -27.5q17 -5 27.5 -19.5t10.5 -32.5v-20q0 -23 -16 -39t-39 -16h-20zM432 775q-18 0 -32.5 10.5t-19.5 27.5q-17 5 -27.5 19.5t-10.5 32.5v20q0 23 16 39
t39 16h20q18 0 32.5 -10.5t19.5 -27.5q17 -5 27.5 -19.5t10.5 -32.5v-20q0 -23 -16 -39t-39 -16h-20zM417 820q19 0 32 13t13 32v20q0 19 -13 32t-32 13h-20q-19 0 -32 -13t-13 -32v-20q0 -19 13 -32t32 -13h20zM242 820q19 0 32 13t13 32v20q0 19 -13 32t-32 13h-20
q-19 0 -32 -13t-13 -32v-20q0 -19 13 -32t32 -13h20z" />
    <glyph glyph-name="copyright" unicode="&#xa9;" 
d="M588 157q0 -16 -11 -27l-74 -73q-10 -12 -27 -12h-241q-9 0 -15 3t-12 9l-109 108q-11 11 -11 27v317q0 15 11 26l74 75q11 11 27 11h241q16 0 27 -11l109 -110q11 -11 11 -26v-317zM461 603q-8 8 -20 8h-241q-12 0 -20 -8l-74 -75q-8 -8 -8 -19v-317q0 -9 8 -20l74 -73
q8 -9 20 -9h241q13 0 20 9l74 73q8 11 8 20v317q0 11 -8 19zM440 159q-4 -4 -11.5 -7.5t-14.5 -3.5h-187q-7 0 -14.5 3.5t-11.5 7.5l-34 34q-4 4 -7.5 11.5t-3.5 14.5v263q0 7 3.5 14.5t7.5 11.5l34 34q4 4 11.5 7.5t14.5 3.5h187q15 0 26 -11l34 -34q11 -11 11 -26v-263
q0 -7 -3.5 -14.5t-7.5 -11.5zM383 508l92 -92v66q0 11 -7.5 18.5t-18.5 7.5h-66zM382 303q-3 -18 -11 -26l-15 -15q-11 -11 -26 -11h-19q-15 0 -26 11l-15 15q-11 11 -11 26v96q0 14 11 25l15 16q10 10 26 10h19q16 0 26 -10l15 -16q8 -8 11 -25q5 -24 29 -24q12 0 20.5 8.5
t8.5 20.5v22q0 11 -9 20l-54 54q-8 8 -20 8h-73q-12 0 -21 -9l-53 -53q-9 -9 -9 -20v-150q0 -12 9 -21l53 -53q11 -9 21 -9h73q13 0 20 9l54 53q9 11 9 21v22q0 12 -8.5 20.5t-20.5 8.5q-24 0 -29 -24zM425 335q-11 8 -15 19l-3 11q-14 2 -21 9t-11 16q-2 3 -2.5 6.5
t-2.5 7.5h-3q-3 1 -21 1q-5 0 -9 -2l-8 -4l-7 -7l-2 -2l-5 -6l-2 -2q-9 -10 -9 -18v-96v-1l1 -3q4 -2 9.5 -2.5t15.5 -0.5q11 0 19 8l15 15q3 3 6 11q1 4 2 7.5t3 8.5q3 11 11 18.5t25 7.5q4 0 14 -2zM475 342q-12 -12 -29 -12q-8 0 -14 2q11 -8 14 -19q3 -6 3 -11
q17 -2 26 -12v52zM293 158l-90 90l-2 2v-66q0 -5 2.5 -10t5.5 -9q3 -2 8.5 -4.5t9.5 -2.5h66z" />
    <glyph glyph-name="guillemotleft" unicode="&#xab;" 
d="M283 340q-12 -13 -12 -25q0 -10 8 -21l54 -53q1 -1 1.5 -2t1.5 -2l32 -31q8 -8 11.5 -18.5t3.5 -20.5q0 -23 -14.5 -39.5t-39.5 -16.5q-24 0 -40 16l-149 148l-2 2l-33 33q-8 8 -12 19t-4 21q0 24 16 40l150 150q15 15 37 15q18 0 34 -11t22 -28q14 -6 25 -17.5t13 -28.5
l70 70q15 15 37 15q18 0 34 -11t22 -28q16 -6 27 -20t11 -32q0 -23 -16 -38l-87 -86q-12 -13 -12 -25q0 -10 8 -21l54 -53q1 -1 1.5 -2t1.5 -2l32 -31q8 -8 11.5 -18.5t3.5 -20.5q0 -23 -14.5 -39.5t-39.5 -16.5q-24 0 -40 16l-149 148l-2 2l-33 33q-7 7 -11 17t-5 19z
M112 383q-13 -13 -13 -33q0 -19 13 -33l149 -148q13 -13 33 -13t32 13t12 33t-12 32l-84 83q-16 15 -16 33q0 19 15 32l87 86q13 13 13 31q0 20 -15 33t-34 13q-18 0 -30 -12zM313 383q-13 -13 -13 -33q0 -19 13 -33l149 -148q13 -13 33 -13t32 13t12 33t-12 32l-84 83
q-16 15 -16 33q0 19 15 32l87 86q13 13 13 31q0 20 -15 33t-34 13q-18 0 -30 -12z" />
    <glyph glyph-name="registered" unicode="&#xae;" 
d="M588 157q0 -16 -11 -27l-74 -73q-10 -12 -27 -12h-241q-9 0 -15 3t-12 9l-109 108q-11 11 -11 27v317q0 15 11 26l74 75q11 11 27 11h241q16 0 27 -11l109 -110q11 -11 11 -26v-317zM461 603q-8 8 -20 8h-241q-12 0 -20 -8l-74 -75q-8 -8 -8 -19v-317q0 -9 8 -20l74 -73
q8 -9 20 -9h241q13 0 20 9l74 73q8 11 8 20v317q0 11 -8 19zM440 159q-4 -4 -11.5 -7.5t-14.5 -3.5h-187q-7 0 -14.5 3.5t-11.5 7.5l-34 34q-4 4 -7.5 11.5t-3.5 14.5v263q0 7 3.5 14.5t7.5 11.5l34 34q4 4 11.5 7.5t14.5 3.5h187q15 0 26 -11l34 -34q11 -11 11 -26v-263
q0 -7 -3.5 -14.5t-7.5 -11.5zM383 508l2 -2l90 -90v66q0 11 -7.5 18.5t-18.5 7.5h-66zM317 306q16 0 26 -10l28 -29q11 -11 11 -25v-20q0 -12 8.5 -20.5t20.5 -8.5t20.5 8.5t8.5 20.5v47q0 11 -9 20l-25 26q-9 8 -9 20t9 21l25 25q9 9 9 21v24q0 11 -9 20l-53 53q-9 9 -21 9
h-127q-12 0 -20.5 -8.5t-8.5 -20.5v-257q0 -12 8.5 -20.5t20.5 -8.5t20.5 8.5t8.5 20.5v55q0 12 8.5 20.5t20.5 8.5h29zM259 435q0 15 15 15h56q16 0 26 -10l15 -16q5 -5 5 -10q0 -6 -5 -11l-28 -28q-11 -11 -26 -11h-29q-12 0 -20.5 8.5t-8.5 20.5v42zM309 405q-5 0 -5 -5
v-26h13q11 0 24 12l12 12l2 2l3 3l1 2h-50zM475 340q-1 -1 -1 -2l-3 -3l-2 -2l-2 -2l-5 -3l-2 -2q-4 -4 -7.5 -7t-5.5 -7q-5 -8 -5 -12t5 -12q4 -7 14 -14l8 -8l6 -6v80zM323 261q-8 0 -11 -3t-5 -8q-2 -7 -2.5 -16t-0.5 -20q2 -10 0 -21q0 -10 -3 -21q-2 -4 -3.5 -7.5
t-4.5 -6.5h121q4 0 5 1q-11 11 -11 24q-15 2 -25.5 13t-10.5 26v23l-2 6t-4 6q-7 4 -14 4h-29zM239 158q-12 11 -12 25q-15 2 -26 13v-12q0 -5 2.5 -10t5.5 -9q3 -2 8.5 -4.5t9.5 -2.5h12z" />
    <glyph glyph-name="macron" unicode="&#xaf;" 
d="M260 775q-18 0 -32.5 10.5t-19.5 27.5q-17 5 -27.5 19.5t-10.5 32.5q0 23 16 39.5t39 16.5h189q18 0 32.5 -10.5t19.5 -27.5q17 -5 27.5 -20t10.5 -33q0 -23 -16 -39t-39 -16h-189zM414 820q19 0 32 13t13 32t-13 32.5t-32 13.5h-189q-19 0 -32 -13.5t-13 -32.5t13 -32
t32 -13h189z" />
    <glyph glyph-name="degree" unicode="&#xb0;" 
d="M192 502q-13 13 -13 30v73q0 8 4 16.5t9 13.5l61 62q13 13 31 13h72q19 0 31 -13l96 -97q13 -12 13 -30v-73q0 -20 -13 -30l-61 -61q-10 -13 -31 -13h-72q-18 0 -31 13zM189 532q0 -13 10 -23l61 -61q11 -10 24 -10h72q14 0 24 10l61 61q10 10 10 23v73q0 14 -10 23
l-61 62q-10 10 -24 10h-72q-14 0 -24 -10l-61 -62q-10 -11 -10 -23v-73zM290 612q11 11 30 11t30 -11l13 -13q11 -11 11 -30t-11 -30l-13 -13q-11 -11 -30 -11t-30 11l-13 13q-11 11 -11 30t11 30zM363 577q-2 0 -4 0.5t-4 0.5q-16 0 -30 -14t-14 -30q0 -2 0.5 -4t0.5 -4
q2 -1 8 -1q17 0 30.5 13.5t13.5 30.5q0 6 -1 8z" />
    <glyph glyph-name="plusminus" unicode="&#xb1;" 
d="M446 258q-14 0 -24.5 -10.5t-10.5 -24.5v-45q0 -24 -16.5 -39.5t-39.5 -15.5q-18 0 -32.5 10.5t-19.5 27.5q-17 5 -27.5 19.5t-10.5 32.5v45h-45q-19 0 -33 10.5t-19 27.5q-17 5 -27.5 19.5t-10.5 33.5q0 23 16 39t39 16h45q14 0 24.5 10.5t10.5 24.5v45q0 23 16 39
t39 16q19 0 33.5 -10.5t19.5 -27.5q17 -5 27.5 -19t10.5 -33v-45h44q18 0 32.5 -10.5t19.5 -27.5q17 -5 27.5 -19.5t10.5 -32.5q0 -23 -15.5 -39.5t-39.5 -16.5h-44zM411 394q-19 0 -32 13t-13 32v45q0 19 -13 32t-33 13q-19 0 -32 -13t-13 -32v-45q0 -19 -13 -32t-32 -13
h-45q-19 0 -32 -13t-13 -32q0 -20 13 -33t32 -13h45q19 0 32 -13t13 -32v-45q0 -19 13 -32t32 -13q20 0 33 13t13 32v45q0 19 13 32t32 13h44q19 0 32 13t13 33q0 19 -13 32t-32 13h-44zM530 63q17 -5 27.5 -19.5t10.5 -32.5q0 -23 -15.5 -39.5t-39.5 -16.5h-315
q-19 0 -33 10.5t-19 27.5q-17 5 -27.5 19.5t-10.5 33.5q0 23 16 39t39 16h315q18 0 32.5 -10.5t19.5 -27.5zM163 91q-19 0 -32 -13t-13 -32q0 -20 13 -33t32 -13h315q19 0 32 13t13 33q0 19 -13 32t-32 13h-315z" />
    <glyph glyph-name="acute" unicode="&#xb4;" 
d="M413 954q17 -6 27.5 -20t10.5 -32q0 -24 -17 -39l-81 -82q-15 -16 -39 -16q-18 0 -33 10.5t-20 27.5q-17 5 -27.5 19.5t-10.5 32.5q0 22 17 39l81 82q16 16 39 16q18 0 33 -10.5t20 -27.5zM392 905q14 12 14 32q0 19 -13.5 32t-32.5 13t-32 -13l-81 -82q-14 -14 -14 -32
q0 -19 13.5 -32t32.5 -13t32 13z" />
    <glyph glyph-name="paragraph" unicode="&#xb6;" 
d="M427 10q0 -23 -16 -39t-39 -16q-18 0 -33 10.5t-20 27.5q-17 5 -27.5 19.5t-10.5 32.5v192h-15q-14 0 -23.5 3.5t-19.5 13.5l-119 119q-16 15 -16 39v159q0 23 16 39l84 83q17 17 39 17h271q18 0 32.5 -10.5t19.5 -27.5q17 -5 27.5 -19.5t10.5 -32.5v-610q0 -23 -16 -39
t-39 -16q-18 0 -33 10.5t-20 27.5q-17 5 -27.5 19.5t-10.5 32.5v519h-10q-5 0 -5 -5v-549zM452 45q0 -19 13.5 -32t32.5 -13t32 13t13 32v610q0 19 -13 32t-32 13h-271q-20 0 -32 -14l-84 -83q-13 -13 -13 -32v-159q0 -19 13 -32l84 -84q14 -14 32 -14h18q18 0 32 -13
t14 -32v-192q0 -19 13.5 -32t32.5 -13t32 13t13 32v549q0 15 15 15h40q15 0 15 -15v-549z" />
    <glyph glyph-name="periodcentered" unicode="&#xb7;" 
d="M330 235q-18 0 -32.5 10.5t-19.5 27.5q-17 5 -27.5 19.5t-10.5 32.5v50q0 23 16 39t39 16h50q18 0 32.5 -10.5t19.5 -27.5q17 -5 27.5 -19.5t10.5 -32.5v-50q0 -23 -16 -39t-39 -16h-50zM345 280q19 0 32 13t13 32v50q0 19 -13 32t-32 13h-50q-19 0 -32 -13t-13 -32v-50
q0 -19 13 -32t32 -13h50z" />
    <glyph glyph-name="cedilla" unicode="&#xb8;" 
d="M361 46q13 -1 20 -6.5t10.5 -13.5t4.5 -17.5t1 -18.5v-37q2 -14 6 -20l27 -27q1 -1 1.5 -2t1.5 -2l32 -31q5 -5 8 -13t3 -14v-61q0 -16 -11 -27l-53 -52q-10 -12 -27 -12h-61q-9 0 -15 3t-12 9q-7 7 -10 9q-7 6 -13 13q-4 1 -7 9q-3 2 -8.5 7t-7.5 7l-12 12
q-7 7 -12 15.5t-5 19.5q0 18 13 30t30 12q12 0 20 -5q3 -2 5 -3t3 -2q2 -2 3.5 -3t2.5 -2q5 -5 9.5 -8t11.5 -3q11 0 23.5 12.5t12.5 23.5q0 7 -5 15q-6 4 -10 10q-7 6 -15 15l-3 3q0 1 -1 2l-2 2q-1 1 -2 1.5t-2 1.5l-7 7q-1 1 -2 1.5t-2 1.5q-10 8 -19 22t-9 27v83
q0 18 13 30t30 12q21 0 30 -11t11 -25zM287 -43q0 -15 11 -26l57 -57q11 -11 11 -26t-11 -26l-9 -9q-11 -11 -26 -11t-26 11l-6 6q-9 9 -23 9t-23.5 -9t-9.5 -23q0 -13 10 -23l27 -27q8 -9 20 -9h61q13 0 20 9l53 52q8 8 8 20v61q0 9 -8 20l-60 59q-11 11 -11 26v56
q0 14 -9 23t-23 9t-23.5 -9t-9.5 -23v-83z" />
    <glyph glyph-name="guillemotright" unicode="&#xbb;" 
d="M422 127q-15 -16 -40 -16q-19 0 -32.5 10.5t-18.5 26.5q-17 5 -26.5 18.5t-11.5 31.5l-72 -71q-15 -16 -40 -16q-19 0 -32.5 10.5t-18.5 26.5q-17 5 -27.5 20t-10.5 34q0 10 3.5 20.5t11.5 18.5l84 83q13 13 13 26q0 9 -8 20l-56 56q-1 1 -1.5 2t-1.5 2l-32 31
q-16 16 -16 38q0 24 18 40t41 16q22 0 37 -15l185 -185q8 -8 11.5 -17.5t4.5 -19.5l6 6q13 13 13 26q0 9 -8 20l-56 56q-1 1 -1.5 2t-1.5 2l-32 31q-16 16 -16 38q0 24 18 40t41 16q22 0 37 -15l185 -185q16 -16 16 -40t-16 -40zM379 533q-12 12 -30 12q-19 0 -34 -13
t-15 -33q0 -18 13 -31l87 -86q15 -13 15 -32q0 -18 -16 -33l-84 -83q-12 -12 -12 -32t12 -33t32 -13t33 13l149 148q13 14 13 33q0 20 -13 33zM178 533q-12 12 -30 12q-19 0 -34 -13t-15 -33q0 -18 13 -31l87 -86q15 -13 15 -32q0 -18 -16 -33l-84 -83q-12 -12 -12 -32
t12 -33t32 -13t33 13l149 148q13 14 13 33q0 20 -13 33z" />
    <glyph glyph-name="questiondown" unicode="&#xbf;" 
d="M393 672q17 -5 27.5 -19.5t10.5 -32.5v-40q0 -23 -16 -39t-39 -16h-40q-18 0 -32.5 10.5t-19.5 27.5q-17 5 -27.5 19.5t-10.5 32.5v40q0 23 16 39t39 16h40q18 0 32.5 -10.5t19.5 -27.5zM301 700q-19 0 -32 -13t-13 -32v-40q0 -19 13 -32t32 -13h40q19 0 32 13t13 32v40
q0 19 -13 32t-32 13h-40zM373 472q17 -5 27.5 -19t10.5 -33v-84q0 -24 -16 -39l-154 -154q-7 -8 -7 -18q0 -8 5 -13l4 -4q7 -7 18 -7h119q11 0 18 7l37 37q7 7 7 18v12q0 23 16.5 39t39.5 16q18 0 32.5 -10.5t19.5 -27.5q17 -5 27.5 -19.5t10.5 -32.5v-46q0 -24 -16 -39
l-84 -83q-15 -17 -39 -17h-187q-22 0 -39 17l-119 118q-8 8 -12 18.5t-4 20.5v65q0 24 16 39l154 154q7 7 7 18v50q0 23 16 39t39 16q19 0 33.5 -10.5t19.5 -27.5zM98 129q0 -18 13 -32l84 -83q12 -14 32 -14h187q20 0 32 14l84 83q13 13 13 32v46q0 19 -13 32t-32 13
t-32.5 -13t-13.5 -32v-12q0 -15 -10 -25l-37 -37q-10 -10 -25 -10h-119q-15 0 -25 10l-39 39q-8 8 -8 20q0 15 10 25l154 154q13 13 13 32v84q0 19 -13 32t-33 13q-19 0 -32 -13t-13 -32v-50q0 -15 -10 -25l-154 -154q-13 -13 -13 -32v-65z" />
    <glyph glyph-name="Agrave" unicode="&#xc0;" 
d="M350 944q1 -1 2 -1.5t2 -1.5l81 -82q17 -17 17 -39q0 -23 -16.5 -39t-39.5 -16t-39 16l-117 117q-16 15 -16 39q0 23 16 39t39 16q24 0 40 -16zM329 823q13 -13 32 -13t32.5 13t13.5 32q0 18 -14 32l-81 82q-13 13 -33 13q-19 0 -32 -13t-13 -32t13 -32zM588 10
q0 -23 -16 -39t-39 -16q-18 0 -33 10.5t-20 27.5q-17 5 -27.5 19.5t-10.5 32.5v192h-173q-14 0 -24.5 -10.5t-10.5 -24.5v-192q0 -23 -16.5 -39t-39.5 -16q-18 0 -32.5 10.5t-19.5 27.5q-17 5 -27.5 19.5t-10.5 32.5v505q0 23 16 39l105 104q8 8 17 12.5t22 4.5h145
q23 0 39 -16l139 -140q17 -17 17 -39v-505zM543 550q0 20 -14 32l-104 105q-13 13 -32 13h-145q-20 0 -32 -14l-105 -104q-13 -13 -13 -32v-505q0 -19 13 -32t32 -13t32.5 13t13.5 32v192q0 19 13 32t32 13h173q19 0 32 -13t13 -32v-192q0 -19 13.5 -32t32.5 -13t32 13
t13 32v505zM452 418q0 -19 -13 -32t-32 -13h-173q-19 0 -32 13t-13 32v98q0 15 10 25l58 58q10 10 25 10h77q15 0 25 -10l58 -58q10 -10 10 -25v-98zM412 557q-7 7 -18 7h-77q-10 0 -18 -7l-58 -58q-7 -8 -7 -18v-98h173q14 0 24.5 10.5t10.5 24.5v98q0 11 -7 18z" />
    <glyph glyph-name="Aacute" unicode="&#xc1;" 
d="M414 954q17 -6 27.5 -20t10.5 -32q0 -24 -17 -39l-81 -82q-15 -16 -39 -16q-18 0 -33 10.5t-20 27.5q-17 5 -27.5 19.5t-10.5 32.5q0 22 17 39l81 82q16 16 39 16q18 0 33 -10.5t20 -27.5zM393 905q14 12 14 32q0 19 -13.5 32t-32.5 13t-32 -13l-81 -82q-14 -14 -14 -32
q0 -19 13.5 -32t32.5 -13t32 13zM588 10q0 -23 -16 -39t-39 -16q-18 0 -33 10.5t-20 27.5q-17 5 -27.5 19.5t-10.5 32.5v192h-173q-14 0 -24.5 -10.5t-10.5 -24.5v-192q0 -23 -16.5 -39t-39.5 -16q-18 0 -32.5 10.5t-19.5 27.5q-17 5 -27.5 19.5t-10.5 32.5v505q0 23 16 39
l105 104q8 8 17 12.5t22 4.5h145q23 0 39 -16l139 -140q17 -17 17 -39v-505zM543 550q0 20 -14 32l-104 105q-13 13 -32 13h-145q-20 0 -32 -14l-105 -104q-13 -13 -13 -32v-505q0 -19 13 -32t32 -13t32.5 13t13.5 32v192q0 19 13 32t32 13h173q19 0 32 -13t13 -32v-192
q0 -19 13.5 -32t32.5 -13t32 13t13 32v505zM452 418q0 -19 -13 -32t-32 -13h-173q-19 0 -32 13t-13 32v98q0 15 10 25l58 58q10 10 25 10h77q15 0 25 -10l58 -58q10 -10 10 -25v-98zM412 557q-7 7 -18 7h-77q-10 0 -18 -7l-58 -58q-7 -8 -7 -18v-98h173q14 0 24.5 10.5
t10.5 24.5v98q0 11 -7 18z" />
    <glyph glyph-name="Acircumflex" unicode="&#xc2;" 
d="M483 850q8 -8 11 -17.5t3 -18.5q0 -22 -13.5 -35.5t-35.5 -13.5q-18 0 -32 11q-12 9 -23 22l-2 2l-5 6q-4 4 -6 5l-2 2l-5 4l-2 2q-8 5 -16 5t-19 -8q-1 -1 -4.5 -4t-7 -6.5l-6.5 -6.5t-3 -4l-6 -6q0 -1 -2 -3t-3 -2l-6 -6q-16 -13 -36 -13q-17 0 -30.5 10t-17.5 27
q-16 4 -26.5 17t-10.5 30q0 10 3.5 19.5t11.5 16.5l93 92q15 15 35 15t35 -15l93 -92q1 -1 1.5 -2t1.5 -2zM292 857q11 12 28 12q16 0 28 -12l36 -36q11 -11 29 -11q17 0 28 11t11 28q0 18 -11 29l-93 92q-12 12 -28 12q-17 0 -28 -12l-93 -92q-12 -12 -12 -29t11.5 -28
t28.5 -11q18 0 28 11zM588 10q0 -23 -16 -39t-39 -16q-18 0 -33 10.5t-20 27.5q-17 5 -27.5 19.5t-10.5 32.5v192h-173q-14 0 -24.5 -10.5t-10.5 -24.5v-192q0 -23 -16.5 -39t-39.5 -16q-18 0 -32.5 10.5t-19.5 27.5q-17 5 -27.5 19.5t-10.5 32.5v505q0 23 16 39l105 104
q8 8 17 12.5t22 4.5h145q23 0 39 -16l139 -140q17 -17 17 -39v-505zM543 550q0 20 -14 32l-104 105q-13 13 -32 13h-145q-20 0 -32 -14l-105 -104q-13 -13 -13 -32v-505q0 -19 13 -32t32 -13t32.5 13t13.5 32v192q0 19 13 32t32 13h173q19 0 32 -13t13 -32v-192
q0 -19 13.5 -32t32.5 -13t32 13t13 32v505zM452 418q0 -19 -13 -32t-32 -13h-173q-19 0 -32 13t-13 32v98q0 15 10 25l58 58q10 10 25 10h77q15 0 25 -10l58 -58q10 -10 10 -25v-98zM412 557q-7 7 -18 7h-77q-10 0 -18 -7l-58 -58q-7 -8 -7 -18v-98h173q14 0 24.5 10.5
t10.5 24.5v98q0 11 -7 18z" />
    <glyph glyph-name="Atilde" unicode="&#xc3;" 
d="M281 857v-20q0 -20 -14 -34t-34 -14q-17 0 -29 10.5t-16 25.5q-17 4 -27 17t-10 30v50q0 17 13 30l40 40q13 13 30 13h50q18 0 31 -13l79 -79v20q0 20 14.5 33.5t33.5 13.5q17 0 29.5 -10.5t16.5 -26.5q15 -3 25.5 -15.5t10.5 -29.5v-50q0 -19 -12 -31l-41 -40
q-6 -5 -13 -8.5t-17 -3.5h-50q-19 0 -31 13zM251 920h16l16 -16v-21q0 -14 9 -23l40 -40q10 -10 24 -10h50q16 0 23 10l41 40q9 9 9 23v50q0 15 -11 26t-26 11q-16 0 -27 -11t-11 -26v-33l-15 -15h-16l-16 15v22q0 13 -9 23l-40 40q-10 10 -24 10h-50q-13 0 -23 -10l-40 -40
q-10 -10 -10 -23v-50q0 -16 11 -27t26 -11q16 0 27 11t11 27v32zM588 10q0 -23 -16 -39t-39 -16q-18 0 -33 10.5t-20 27.5q-17 5 -27.5 19.5t-10.5 32.5v192h-173q-14 0 -24.5 -10.5t-10.5 -24.5v-192q0 -23 -16.5 -39t-39.5 -16q-18 0 -32.5 10.5t-19.5 27.5
q-17 5 -27.5 19.5t-10.5 32.5v505q0 23 16 39l105 104q8 8 17 12.5t22 4.5h145q23 0 39 -16l139 -140q17 -17 17 -39v-505zM543 550q0 20 -14 32l-104 105q-13 13 -32 13h-145q-20 0 -32 -14l-105 -104q-13 -13 -13 -32v-505q0 -19 13 -32t32 -13t32.5 13t13.5 32v192
q0 19 13 32t32 13h173q19 0 32 -13t13 -32v-192q0 -19 13.5 -32t32.5 -13t32 13t13 32v505zM452 418q0 -19 -13 -32t-32 -13h-173q-19 0 -32 13t-13 32v98q0 15 10 25l58 58q10 10 25 10h77q15 0 25 -10l58 -58q10 -10 10 -25v-98zM412 557q-7 7 -18 7h-77q-10 0 -18 -7
l-58 -58q-7 -8 -7 -18v-98h173q14 0 24.5 10.5t10.5 24.5v98q0 11 -7 18z" />
    <glyph glyph-name="Adieresis" unicode="&#xc4;" 
d="M258 775q-18 0 -32.5 10.5t-19.5 27.5q-17 5 -27.5 19.5t-10.5 32.5v20q0 23 16 39t39 16h20q18 0 32.5 -10.5t19.5 -27.5q17 -5 27.5 -19.5t10.5 -32.5v-20q0 -23 -16 -39t-39 -16h-20zM433 775q-18 0 -32.5 10.5t-19.5 27.5q-17 5 -27.5 19.5t-10.5 32.5v20q0 23 16 39
t39 16h20q18 0 32.5 -10.5t19.5 -27.5q17 -5 27.5 -19.5t10.5 -32.5v-20q0 -23 -16 -39t-39 -16h-20zM418 820q19 0 32 13t13 32v20q0 19 -13 32t-32 13h-20q-19 0 -32 -13t-13 -32v-20q0 -19 13 -32t32 -13h20zM243 820q19 0 32 13t13 32v20q0 19 -13 32t-32 13h-20
q-19 0 -32 -13t-13 -32v-20q0 -19 13 -32t32 -13h20zM588 10q0 -23 -16 -39t-39 -16q-18 0 -33 10.5t-20 27.5q-17 5 -27.5 19.5t-10.5 32.5v192h-173q-14 0 -24.5 -10.5t-10.5 -24.5v-192q0 -23 -16.5 -39t-39.5 -16q-18 0 -32.5 10.5t-19.5 27.5q-17 5 -27.5 19.5
t-10.5 32.5v505q0 23 16 39l105 104q8 8 17 12.5t22 4.5h145q23 0 39 -16l139 -140q17 -17 17 -39v-505zM543 550q0 20 -14 32l-104 105q-13 13 -32 13h-145q-20 0 -32 -14l-105 -104q-13 -13 -13 -32v-505q0 -19 13 -32t32 -13t32.5 13t13.5 32v192q0 19 13 32t32 13h173
q19 0 32 -13t13 -32v-192q0 -19 13.5 -32t32.5 -13t32 13t13 32v505zM452 418q0 -19 -13 -32t-32 -13h-173q-19 0 -32 13t-13 32v98q0 15 10 25l58 58q10 10 25 10h77q15 0 25 -10l58 -58q10 -10 10 -25v-98zM412 557q-7 7 -18 7h-77q-10 0 -18 -7l-58 -58q-7 -8 -7 -18v-98
h173q14 0 24.5 10.5t10.5 24.5v98q0 11 -7 18z" />
    <glyph glyph-name="Aring" unicode="&#xc5;" 
d="M409 959q1 -1 2 -1.5t2 -1.5l52 -53q11 -11 11 -27v-61q0 -16 -11 -27l-52 -52q-10 -11 -28 -11h-60q-7 0 -14.5 2.5t-13.5 8.5l-87 87q-11 11 -11 27v61q0 16 11 27l52 53q5 5 13 8t15 3h60q7 0 14.5 -2.5t13.5 -8.5zM209 850q0 -9 8 -20l52 -52q11 -8 21 -8h60
q13 0 21 8l52 52q8 8 8 20v61q0 12 -8 20l-52 53q-8 8 -21 8h-60q-10 0 -21 -8l-52 -53q-8 -8 -8 -20v-61zM295 917q10 10 25 10t25 -10l11 -11q10 -10 10 -25t-10 -25l-11 -11q-10 -10 -25 -10t-25 10l-11 11q-10 10 -10 25t10 25zM355 882q-12 0 -24 -12t-12 -24v-1h1
q12 0 24 12t12 24q0 1 -1 1zM588 10q0 -23 -16 -39t-39 -16q-18 0 -33 10.5t-20 27.5q-17 5 -27.5 19.5t-10.5 32.5v192h-173q-14 0 -24.5 -10.5t-10.5 -24.5v-192q0 -23 -16.5 -39t-39.5 -16q-18 0 -32.5 10.5t-19.5 27.5q-17 5 -27.5 19.5t-10.5 32.5v505q0 23 16 39
l105 104q8 8 17 12.5t22 4.5h145q23 0 39 -16l139 -140q17 -17 17 -39v-505zM543 550q0 20 -14 32l-104 105q-13 13 -32 13h-145q-20 0 -32 -14l-105 -104q-13 -13 -13 -32v-505q0 -19 13 -32t32 -13t32.5 13t13.5 32v192q0 19 13 32t32 13h173q19 0 32 -13t13 -32v-192
q0 -19 13.5 -32t32.5 -13t32 13t13 32v505zM452 418q0 -19 -13 -32t-32 -13h-173q-19 0 -32 13t-13 32v98q0 15 10 25l58 58q10 10 25 10h77q15 0 25 -10l58 -58q10 -10 10 -25v-98zM412 557q-7 7 -18 7h-77q-10 0 -18 -7l-58 -58q-7 -8 -7 -18v-98h173q14 0 24.5 10.5
t10.5 24.5v98q0 11 -7 18z" />
    <glyph glyph-name="AE" unicode="&#xc6;" 
d="M214 10q0 -23 -16.5 -39t-39.5 -16q-18 0 -32.5 10.5t-19.5 27.5q-17 5 -27.5 19.5t-10.5 32.5v505q0 23 16 39l105 104q8 8 17 12.5t22 4.5h290q18 0 32.5 -10.5t19.5 -27.5q17 -5 27.5 -19.5t10.5 -32.5q0 -23 -16 -39.5t-39 -16.5h-107q-14 0 -24.5 -10.5t-10.5 -24.5
v-124h87q18 0 32.5 -10.5t19.5 -27.5q17 -5 27.5 -19.5t10.5 -32.5q0 -23 -16 -39.5t-39 -16.5h-87q-14 0 -24.5 -10.5t-10.5 -24.5v-123h107q18 0 32.5 -10.5t19.5 -27.5q17 -5 27.5 -20t10.5 -33q0 -23 -16 -39t-39 -16h-198q-18 0 -32.5 10.5t-19.5 27.5
q-17 5 -27.5 19.5t-10.5 32.5v192h-16q-14 0 -24.5 -10.5t-10.5 -24.5v-192zM275 45q0 -19 13 -32t32 -13h198q19 0 32 13t13 32t-13 32.5t-32 13.5h-107q-19 0 -32 13t-13 32v123q0 19 13 32t32 13h87q19 0 32 13.5t13 32.5t-13 32t-32 13h-87q-19 0 -32 13.5t-13 32.5v123
q0 19 13 32t32 13h107q19 0 32 13.5t13 32.5t-13 32t-32 13h-290q-20 0 -32 -14l-105 -104q-13 -13 -13 -32v-505q0 -19 13 -32t32 -13t32.5 13t13.5 32v192q0 19 13 32t32 13h46q15 0 15 -15v-222zM275 388q0 -15 -15 -15h-46q-19 0 -32 13t-13 32v98q0 15 11 26l57 57
q10 10 23 10q15 0 15 -14v-207zM265 542l-43 -42q-3 -4 -5.5 -9t-2.5 -10v-98h46q5 0 5 5v154z" />
    <glyph glyph-name="Ccedilla" unicode="&#xc7;" 
d="M234 149q0 -11 7 -18l23 -23q7 -7 18 -7h77q11 0 18 7l58 58q7 7 7 20q1 7 0.5 14t-0.5 14q0 23 16.5 39.5t39.5 16.5q18 0 32.5 -10.5t19.5 -27.5q17 -5 27.5 -20t10.5 -33v-64q0 -13 -4.5 -22t-12.5 -17l-104 -105q-8 -9 -18.5 -12.5t-21.5 -4.5q-7 -1 -14 -0.5
t-15 0.5v-5q0 -7 5 -15q2 -2 3 -2l5 -5q1 -1 1.5 -1t1.5 -1t1.5 -2t1.5 -2l7 -6q1 -1 1.5 -2t1.5 -2q2 -2 3.5 -4t3.5 -5q4 -3 7.5 -6t7.5 -7q4 -3 7 -6l7 -7q5 -7 9.5 -15t4.5 -17v-61q0 -16 -11 -27l-53 -52q-10 -12 -27 -12h-61q-9 0 -15 3t-12 9q-7 7 -10 9q-7 6 -13 13
q-4 1 -7 9q-3 2 -8.5 7t-7.5 7l-12 12q-7 7 -12 15.5t-5 19.5q0 18 13 30t30 12q12 0 20 -5q3 -2 5 -3t3 -2q2 -2 3.5 -3t2.5 -2q5 -5 9.5 -8t11.5 -3q11 0 23.5 12.5t12.5 23.5q0 7 -5 15l-2 2l-6 5l-2 2l-14 14q-4 4 -5 7l-2 2q-4 3 -7.5 6t-7.5 7q-10 8 -18.5 21t-9.5 26
q-9 2 -18 5.5t-17 11.5l-139 139q-16 15 -16 39v400q0 24 16 39l104 104q17 17 40 17h145q23 0 39 -16l139 -140q17 -17 17 -39v-64q0 -23 -16 -39.5t-39 -16.5q-18 0 -32.5 10.5t-20.5 27.5q-17 6 -27.5 20.5t-10.5 32.5q0 7 0.5 14t-0.5 14q0 13 -7 20l-23 23q-7 7 -18 7
h-77q-10 0 -18 -7l-58 -58q-7 -8 -7 -18v-332zM189 516q0 15 10 25l58 58q10 10 25 10h77q15 0 25 -10l58 -58q10 -10 10 -25v-30q0 -19 13.5 -32.5t32.5 -13.5t32 13.5t13 32.5v64q0 20 -14 32l-104 105q-13 13 -32 13h-145q-19 0 -33 -14l-104 -104q-13 -13 -13 -32v-400
q0 -19 13 -32l104 -104q14 -14 33 -14h40v-43q0 -15 11 -26l57 -57q11 -11 11 -26t-11 -26l-9 -9q-11 -11 -26 -11t-26 11l-6 6q-9 9 -23 9t-23.5 -9t-9.5 -23q0 -13 10 -23l27 -27q8 -9 20 -9h61q13 0 20 9l53 52q8 8 8 20v61q0 9 -8 20l-60 59q-11 11 -11 26v16h40
q19 0 32 13l104 105q14 12 14 32v64q0 19 -13 32.5t-32 13.5t-32.5 -13.5t-13.5 -32.5v-30q0 -15 -10 -25l-58 -58q-10 -10 -25 -10h-77q-15 0 -25 10l-58 58q-10 10 -10 25v332z" />
    <glyph glyph-name="Egrave" unicode="&#xc8;" 
d="M350 944q1 -1 2 -1.5t2 -1.5l81 -82q17 -17 17 -39q0 -23 -16.5 -39t-39.5 -16t-39 16l-117 117q-16 15 -16 39q0 23 16 39t39 16q24 0 40 -16zM329 823q13 -13 32 -13t32.5 13t13.5 32q0 18 -14 32l-81 82q-13 13 -33 13q-19 0 -32 -13t-13 -32t13 -32zM550 672
q17 -5 27.5 -19.5t10.5 -32.5q0 -23 -16 -39.5t-39 -16.5h-264q-14 0 -24.5 -10.5t-10.5 -24.5v-124h196q18 0 33 -10.5t20 -27.5q17 -6 27.5 -20t10.5 -32q0 -23 -16.5 -39.5t-39.5 -16.5h-196q-14 0 -24.5 -11t-10.5 -25v-122h264q18 0 32.5 -10.5t19.5 -27.5
q17 -5 27.5 -20t10.5 -33q0 -23 -16 -39t-39 -16h-355q-18 0 -32.5 10.5t-19.5 27.5q-17 5 -27.5 19.5t-10.5 32.5v610q0 23 16 39t39 16h355q18 0 32.5 -10.5t19.5 -27.5zM98 45q0 -19 13 -32t32 -13h355q19 0 32 13t13 32t-13 32.5t-32 13.5h-264q-19 0 -32 13t-13 32v122
q0 19 13 32.5t32 13.5h196q19 0 32.5 13.5t13.5 32.5t-13.5 32t-32.5 13h-196q-19 0 -32 13.5t-13 32.5v123q0 19 13 32t32 13h264q19 0 32 13.5t13 32.5t-13 32t-32 13h-355q-19 0 -32 -13t-13 -32v-610z" />
    <glyph glyph-name="Eacute" unicode="&#xc9;" 
d="M414 954q17 -6 27.5 -20t10.5 -32q0 -24 -17 -39l-81 -82q-15 -16 -39 -16q-18 0 -33 10.5t-20 27.5q-17 5 -27.5 19.5t-10.5 32.5q0 22 17 39l81 82q16 16 39 16q18 0 33 -10.5t20 -27.5zM393 905q14 12 14 32q0 19 -13.5 32t-32.5 13t-32 -13l-81 -82q-14 -14 -14 -32
q0 -19 13.5 -32t32.5 -13t32 13zM550 672q17 -5 27.5 -19.5t10.5 -32.5q0 -23 -16 -39.5t-39 -16.5h-264q-14 0 -24.5 -10.5t-10.5 -24.5v-124h196q18 0 33 -10.5t20 -27.5q17 -6 27.5 -20t10.5 -32q0 -23 -16.5 -39.5t-39.5 -16.5h-196q-14 0 -24.5 -11t-10.5 -25v-122h264
q18 0 32.5 -10.5t19.5 -27.5q17 -5 27.5 -20t10.5 -33q0 -23 -16 -39t-39 -16h-355q-18 0 -32.5 10.5t-19.5 27.5q-17 5 -27.5 19.5t-10.5 32.5v610q0 23 16 39t39 16h355q18 0 32.5 -10.5t19.5 -27.5zM98 45q0 -19 13 -32t32 -13h355q19 0 32 13t13 32t-13 32.5t-32 13.5
h-264q-19 0 -32 13t-13 32v122q0 19 13 32.5t32 13.5h196q19 0 32.5 13.5t13.5 32.5t-13.5 32t-32.5 13h-196q-19 0 -32 13.5t-13 32.5v123q0 19 13 32t32 13h264q19 0 32 13.5t13 32.5t-13 32t-32 13h-355q-19 0 -32 -13t-13 -32v-610z" />
    <glyph glyph-name="Ecircumflex" unicode="&#xca;" 
d="M483 850q8 -8 11 -17.5t3 -18.5q0 -22 -13.5 -35.5t-35.5 -13.5q-18 0 -32 11q-12 9 -23 22l-2 2l-5 6q-4 4 -6 5l-2 2l-5 4l-2 2q-8 5 -16 5t-19 -8q-1 -1 -4.5 -4t-7 -6.5l-6.5 -6.5t-3 -4l-6 -6q0 -1 -2 -3t-3 -2l-6 -6q-16 -13 -36 -13q-17 0 -30.5 10t-17.5 27
q-16 4 -26.5 17t-10.5 30q0 10 3.5 19.5t11.5 16.5l93 92q15 15 35 15t35 -15l93 -92q1 -1 1.5 -2t1.5 -2zM292 857q11 12 28 12q16 0 28 -12l36 -36q11 -11 29 -11q17 0 28 11t11 28q0 18 -11 29l-93 92q-12 12 -28 12q-17 0 -28 -12l-93 -92q-12 -12 -12 -29t11.5 -28
t28.5 -11q18 0 28 11zM550 672q17 -5 27.5 -19.5t10.5 -32.5q0 -23 -16 -39.5t-39 -16.5h-264q-14 0 -24.5 -10.5t-10.5 -24.5v-124h196q18 0 33 -10.5t20 -27.5q17 -6 27.5 -20t10.5 -32q0 -23 -16.5 -39.5t-39.5 -16.5h-196q-14 0 -24.5 -11t-10.5 -25v-122h264
q18 0 32.5 -10.5t19.5 -27.5q17 -5 27.5 -20t10.5 -33q0 -23 -16 -39t-39 -16h-355q-18 0 -32.5 10.5t-19.5 27.5q-17 5 -27.5 19.5t-10.5 32.5v610q0 23 16 39t39 16h355q18 0 32.5 -10.5t19.5 -27.5zM98 45q0 -19 13 -32t32 -13h355q19 0 32 13t13 32t-13 32.5t-32 13.5
h-264q-19 0 -32 13t-13 32v122q0 19 13 32.5t32 13.5h196q19 0 32.5 13.5t13.5 32.5t-13.5 32t-32.5 13h-196q-19 0 -32 13.5t-13 32.5v123q0 19 13 32t32 13h264q19 0 32 13.5t13 32.5t-13 32t-32 13h-355q-19 0 -32 -13t-13 -32v-610z" />
    <glyph glyph-name="Edieresis" unicode="&#xcb;" 
d="M258 775q-18 0 -32.5 10.5t-19.5 27.5q-17 5 -27.5 19.5t-10.5 32.5v20q0 23 16 39t39 16h20q18 0 32.5 -10.5t19.5 -27.5q17 -5 27.5 -19.5t10.5 -32.5v-20q0 -23 -16 -39t-39 -16h-20zM433 775q-18 0 -32.5 10.5t-19.5 27.5q-17 5 -27.5 19.5t-10.5 32.5v20q0 23 16 39
t39 16h20q18 0 32.5 -10.5t19.5 -27.5q17 -5 27.5 -19.5t10.5 -32.5v-20q0 -23 -16 -39t-39 -16h-20zM418 820q19 0 32 13t13 32v20q0 19 -13 32t-32 13h-20q-19 0 -32 -13t-13 -32v-20q0 -19 13 -32t32 -13h20zM243 820q19 0 32 13t13 32v20q0 19 -13 32t-32 13h-20
q-19 0 -32 -13t-13 -32v-20q0 -19 13 -32t32 -13h20zM550 672q17 -5 27.5 -19.5t10.5 -32.5q0 -23 -16 -39.5t-39 -16.5h-264q-14 0 -24.5 -10.5t-10.5 -24.5v-124h196q18 0 33 -10.5t20 -27.5q17 -6 27.5 -20t10.5 -32q0 -23 -16.5 -39.5t-39.5 -16.5h-196q-14 0 -24.5 -11
t-10.5 -25v-122h264q18 0 32.5 -10.5t19.5 -27.5q17 -5 27.5 -20t10.5 -33q0 -23 -16 -39t-39 -16h-355q-18 0 -32.5 10.5t-19.5 27.5q-17 5 -27.5 19.5t-10.5 32.5v610q0 23 16 39t39 16h355q18 0 32.5 -10.5t19.5 -27.5zM98 45q0 -19 13 -32t32 -13h355q19 0 32 13t13 32
t-13 32.5t-32 13.5h-264q-19 0 -32 13t-13 32v122q0 19 13 32.5t32 13.5h196q19 0 32.5 13.5t13.5 32.5t-13.5 32t-32.5 13h-196q-19 0 -32 13.5t-13 32.5v123q0 19 13 32t32 13h264q19 0 32 13.5t13 32.5t-13 32t-32 13h-355q-19 0 -32 -13t-13 -32v-610z" />
    <glyph glyph-name="Igrave" unicode="&#xcc;" 
d="M350 944q1 -1 2 -1.5t2 -1.5l81 -82q17 -17 17 -39q0 -23 -16.5 -39t-39.5 -16t-39 16l-117 117q-16 15 -16 39q0 23 16 39t39 16q24 0 40 -16zM329 823q13 -13 32 -13t32.5 13t13.5 32q0 18 -14 32l-81 82q-13 13 -33 13q-19 0 -32 -13t-13 -32t13 -32zM223 -45
q-18 0 -32.5 10.5t-19.5 27.5q-17 5 -27.5 19.5t-10.5 32.5q0 23 16 39.5t39 16.5h42q14 0 24.5 10.5t10.5 24.5v428h-42q-18 0 -32 10.5t-20 27.5q-17 5 -27.5 20t-10.5 33q0 23 16 39t39 16h265q18 0 32.5 -10.5t19.5 -27.5q17 -5 27.5 -19.5t10.5 -32.5q0 -23 -16 -39.5
t-39 -16.5h-42q-14 0 -24.5 -10.5t-10.5 -24.5v-428h42q18 0 32.5 -10.5t19.5 -27.5q17 -5 27.5 -20t10.5 -33q0 -23 -16 -39t-39 -16h-265zM453 0q19 0 32 13t13 32t-13 32.5t-32 13.5h-42q-19 0 -32 13t-13 32v428q0 19 13 32t32 13h42q19 0 32 13.5t13 32.5t-13 32
t-32 13h-265q-19 0 -32 -13t-13 -32t13 -32.5t32 -13.5h42q19 0 32 -13t13 -32v-428q0 -19 -13 -32t-32 -13h-42q-19 0 -32 -13.5t-13 -32.5t13 -32t32 -13h265z" />
    <glyph glyph-name="Iacute" unicode="&#xcd;" 
d="M414 954q17 -6 27.5 -20t10.5 -32q0 -24 -17 -39l-81 -82q-15 -16 -39 -16q-18 0 -33 10.5t-20 27.5q-17 5 -27.5 19.5t-10.5 32.5q0 22 17 39l81 82q16 16 39 16q18 0 33 -10.5t20 -27.5zM393 905q14 12 14 32q0 19 -13.5 32t-32.5 13t-32 -13l-81 -82q-14 -14 -14 -32
q0 -19 13.5 -32t32.5 -13t32 13zM223 -45q-18 0 -32.5 10.5t-19.5 27.5q-17 5 -27.5 19.5t-10.5 32.5q0 23 16 39.5t39 16.5h42q14 0 24.5 10.5t10.5 24.5v428h-42q-18 0 -32 10.5t-20 27.5q-17 5 -27.5 20t-10.5 33q0 23 16 39t39 16h265q18 0 32.5 -10.5t19.5 -27.5
q17 -5 27.5 -19.5t10.5 -32.5q0 -23 -16 -39.5t-39 -16.5h-42q-14 0 -24.5 -10.5t-10.5 -24.5v-428h42q18 0 32.5 -10.5t19.5 -27.5q17 -5 27.5 -20t10.5 -33q0 -23 -16 -39t-39 -16h-265zM453 0q19 0 32 13t13 32t-13 32.5t-32 13.5h-42q-19 0 -32 13t-13 32v428
q0 19 13 32t32 13h42q19 0 32 13.5t13 32.5t-13 32t-32 13h-265q-19 0 -32 -13t-13 -32t13 -32.5t32 -13.5h42q19 0 32 -13t13 -32v-428q0 -19 -13 -32t-32 -13h-42q-19 0 -32 -13.5t-13 -32.5t13 -32t32 -13h265z" />
    <glyph glyph-name="Icircumflex" unicode="&#xce;" 
d="M483 850q8 -8 11 -17.5t3 -18.5q0 -22 -13.5 -35.5t-35.5 -13.5q-18 0 -32 11q-12 9 -23 22l-2 2l-5 6q-4 4 -6 5l-2 2l-5 4l-2 2q-8 5 -16 5t-19 -8q-1 -1 -4.5 -4t-7 -6.5l-6.5 -6.5t-3 -4l-6 -6q0 -1 -2 -3t-3 -2l-6 -6q-16 -13 -36 -13q-17 0 -30.5 10t-17.5 27
q-16 4 -26.5 17t-10.5 30q0 10 3.5 19.5t11.5 16.5l93 92q15 15 35 15t35 -15l93 -92q1 -1 1.5 -2t1.5 -2zM292 857q11 12 28 12q16 0 28 -12l36 -36q11 -11 29 -11q17 0 28 11t11 28q0 18 -11 29l-93 92q-12 12 -28 12q-17 0 -28 -12l-93 -92q-12 -12 -12 -29t11.5 -28
t28.5 -11q18 0 28 11zM223 -45q-18 0 -32.5 10.5t-19.5 27.5q-17 5 -27.5 19.5t-10.5 32.5q0 23 16 39.5t39 16.5h42q14 0 24.5 10.5t10.5 24.5v428h-42q-18 0 -32 10.5t-20 27.5q-17 5 -27.5 20t-10.5 33q0 23 16 39t39 16h265q18 0 32.5 -10.5t19.5 -27.5
q17 -5 27.5 -19.5t10.5 -32.5q0 -23 -16 -39.5t-39 -16.5h-42q-14 0 -24.5 -10.5t-10.5 -24.5v-428h42q18 0 32.5 -10.5t19.5 -27.5q17 -5 27.5 -20t10.5 -33q0 -23 -16 -39t-39 -16h-265zM453 0q19 0 32 13t13 32t-13 32.5t-32 13.5h-42q-19 0 -32 13t-13 32v428
q0 19 13 32t32 13h42q19 0 32 13.5t13 32.5t-13 32t-32 13h-265q-19 0 -32 -13t-13 -32t13 -32.5t32 -13.5h42q19 0 32 -13t13 -32v-428q0 -19 -13 -32t-32 -13h-42q-19 0 -32 -13.5t-13 -32.5t13 -32t32 -13h265z" />
    <glyph glyph-name="Idieresis" unicode="&#xcf;" 
d="M258 775q-18 0 -32.5 10.5t-19.5 27.5q-17 5 -27.5 19.5t-10.5 32.5v20q0 23 16 39t39 16h20q18 0 32.5 -10.5t19.5 -27.5q17 -5 27.5 -19.5t10.5 -32.5v-20q0 -23 -16 -39t-39 -16h-20zM433 775q-18 0 -32.5 10.5t-19.5 27.5q-17 5 -27.5 19.5t-10.5 32.5v20q0 23 16 39
t39 16h20q18 0 32.5 -10.5t19.5 -27.5q17 -5 27.5 -19.5t10.5 -32.5v-20q0 -23 -16 -39t-39 -16h-20zM418 820q19 0 32 13t13 32v20q0 19 -13 32t-32 13h-20q-19 0 -32 -13t-13 -32v-20q0 -19 13 -32t32 -13h20zM243 820q19 0 32 13t13 32v20q0 19 -13 32t-32 13h-20
q-19 0 -32 -13t-13 -32v-20q0 -19 13 -32t32 -13h20zM223 -45q-18 0 -32.5 10.5t-19.5 27.5q-17 5 -27.5 19.5t-10.5 32.5q0 23 16 39.5t39 16.5h42q14 0 24.5 10.5t10.5 24.5v428h-42q-18 0 -32 10.5t-20 27.5q-17 5 -27.5 20t-10.5 33q0 23 16 39t39 16h265
q18 0 32.5 -10.5t19.5 -27.5q17 -5 27.5 -19.5t10.5 -32.5q0 -23 -16 -39.5t-39 -16.5h-42q-14 0 -24.5 -10.5t-10.5 -24.5v-428h42q18 0 32.5 -10.5t19.5 -27.5q17 -5 27.5 -20t10.5 -33q0 -23 -16 -39t-39 -16h-265zM453 0q19 0 32 13t13 32t-13 32.5t-32 13.5h-42
q-19 0 -32 13t-13 32v428q0 19 13 32t32 13h42q19 0 32 13.5t13 32.5t-13 32t-32 13h-265q-19 0 -32 -13t-13 -32t13 -32.5t32 -13.5h42q19 0 32 -13t13 -32v-428q0 -19 -13 -32t-32 -13h-42q-19 0 -32 -13.5t-13 -32.5t13 -32t32 -13h265z" />
    <glyph glyph-name="Eth" unicode="&#xd0;" 
d="M88 264q-11 5 -20 13t-13 22q-16 5 -26.5 17t-10.5 35q0 16 6 26.5t15 17t20.5 9t23.5 2.5q5 0 5 5v244q0 23 16 39t39 16h250q23 0 39 -16l139 -140q17 -17 17 -39v-400q0 -13 -4.5 -22t-12.5 -17l-104 -105q-15 -16 -39 -16h-250q-18 0 -32.5 10.5t-19.5 27.5
q-17 5 -27.5 19.5t-10.5 32.5v219zM98 411q0 -15 -15 -15h-10q-19 0 -32 -13t-13 -32q0 -20 13 -33t32 -13h10q15 0 15 -15v-245q0 -19 13 -32t32 -13h250q19 0 32 13l104 105q14 12 14 32v400q0 20 -14 32l-104 105q-13 13 -32 13h-250q-19 0 -32 -13t-13 -32v-244z
M189 290q0 15 15 15h139q19 0 32 13t13 33q0 19 -13 32t-32 13h-139q-15 0 -15 15v153q0 19 13 32t32 13h125q15 0 25 -10l58 -58q10 -10 10 -25v-332q0 -15 -10 -25l-58 -58q-10 -10 -25 -10h-125q-19 0 -32 13t-13 32v154zM412 557q-7 7 -18 7h-125q-14 0 -24.5 -10.5
t-10.5 -24.5v-123h109q18 0 32.5 -10.5t19.5 -27.5q17 -5 27.5 -19.5t10.5 -32.5q0 -23 -15.5 -39.5t-39.5 -16.5h-139q-5 0 -5 -5v-154h125q11 0 18 7l58 58q7 7 7 18v332q0 11 -7 18z" />
    <glyph glyph-name="Ntilde" unicode="&#xd1;" 
d="M281 857v-20q0 -20 -14 -34t-34 -14q-17 0 -29 10.5t-16 25.5q-17 4 -27 17t-10 30v50q0 17 13 30l40 40q13 13 30 13h50q18 0 31 -13l79 -79v20q0 20 14.5 33.5t33.5 13.5q17 0 29.5 -10.5t16.5 -26.5q15 -3 25.5 -15.5t10.5 -29.5v-50q0 -19 -12 -31l-41 -40
q-6 -5 -13 -8.5t-17 -3.5h-50q-19 0 -31 13zM251 920h16l16 -16v-21q0 -14 9 -23l40 -40q10 -10 24 -10h50q16 0 23 10l41 40q9 9 9 23v50q0 15 -11 26t-26 11q-16 0 -27 -11t-11 -26v-33l-15 -15h-16l-16 15v22q0 13 -9 23l-40 40q-10 10 -24 10h-50q-13 0 -23 -10l-40 -40
q-10 -10 -10 -23v-50q0 -16 11 -27t26 -11q16 0 27 11t11 27v32zM550 672q17 -5 27.5 -19.5t10.5 -32.5v-610q0 -23 -16 -39t-39 -16q-32 0 -48 28l-7 10q-17 7 -29 25l-215 370v-378q0 -23 -16.5 -39t-39.5 -16q-18 0 -32.5 10.5t-19.5 27.5q-17 5 -27.5 19.5t-10.5 32.5
v610q0 23 16 39t39 16q15 0 28 -7.5t21 -20.5l6 -11q17 -6 29 -24l215 -370v378q0 23 16.5 39t39.5 16q18 0 32.5 -10.5t19.5 -27.5zM183 677q-14 23 -40 23q-19 0 -32 -13t-13 -32v-610q0 -19 13 -32t32 -13t32.5 13t13.5 32v427q0 7 2 7q3 0 5 -5l262 -451q14 -23 40 -23
q19 0 32 13t13 32v610q0 19 -13 32t-32 13t-32.5 -13t-13.5 -32v-426q0 -7 -2 -7t-5 5z" />
    <glyph glyph-name="Ograve" unicode="&#xd2;" 
d="M350 944q1 -1 2 -1.5t2 -1.5l81 -82q17 -17 17 -39q0 -23 -16.5 -39t-39.5 -16t-39 16l-117 117q-16 15 -16 39q0 23 16 39t39 16q24 0 40 -16zM329 823q13 -13 32 -13t32.5 13t13.5 32q0 18 -14 32l-81 82q-13 13 -33 13q-19 0 -32 -13t-13 -32t13 -32zM588 94
q0 -24 -16 -39l-84 -83q-17 -17 -40 -17h-186q-22 0 -39 17l-84 83q-1 1 -1.5 2t-1.5 2l-32 31q-16 16 -16 39v442q0 23 16 39l84 83q17 17 39 17h186q23 0 40 -17l119 -118q16 -16 16 -39v-442zM446 686q-12 14 -33 14h-186q-20 0 -32 -14l-84 -83q-13 -13 -13 -32v-442
q0 -19 13 -32l84 -83q12 -14 32 -14h186q21 0 33 14l84 83q13 13 13 32v442q0 19 -13 32zM405 101q-10 -10 -25 -10h-119q-15 0 -25 10l-37 37q-10 10 -10 25v374q0 15 10 25l37 37q10 10 25 10h119q15 0 25 -10l37 -37q10 -10 10 -25v-374q0 -15 -10 -25zM433 557
q-7 7 -18 7h-119q-10 0 -18 -7l-37 -37q-7 -8 -7 -18v-374q0 -11 7 -18l2 -2q7 -7 18 -7h119q11 0 18 7l37 37q7 7 7 18v374q0 11 -7 18z" />
    <glyph glyph-name="Oacute" unicode="&#xd3;" 
d="M414 954q17 -6 27.5 -20t10.5 -32q0 -24 -17 -39l-81 -82q-15 -16 -39 -16q-18 0 -33 10.5t-20 27.5q-17 5 -27.5 19.5t-10.5 32.5q0 22 17 39l81 82q16 16 39 16q18 0 33 -10.5t20 -27.5zM393 905q14 12 14 32q0 19 -13.5 32t-32.5 13t-32 -13l-81 -82q-14 -14 -14 -32
q0 -19 13.5 -32t32.5 -13t32 13zM588 94q0 -24 -16 -39l-84 -83q-17 -17 -40 -17h-186q-22 0 -39 17l-84 83q-1 1 -1.5 2t-1.5 2l-32 31q-16 16 -16 39v442q0 23 16 39l84 83q17 17 39 17h186q23 0 40 -17l119 -118q16 -16 16 -39v-442zM446 686q-12 14 -33 14h-186
q-20 0 -32 -14l-84 -83q-13 -13 -13 -32v-442q0 -19 13 -32l84 -83q12 -14 32 -14h186q21 0 33 14l84 83q13 13 13 32v442q0 19 -13 32zM405 101q-10 -10 -25 -10h-119q-15 0 -25 10l-37 37q-10 10 -10 25v374q0 15 10 25l37 37q10 10 25 10h119q15 0 25 -10l37 -37
q10 -10 10 -25v-374q0 -15 -10 -25zM433 557q-7 7 -18 7h-119q-10 0 -18 -7l-37 -37q-7 -8 -7 -18v-374q0 -11 7 -18l2 -2q7 -7 18 -7h119q11 0 18 7l37 37q7 7 7 18v374q0 11 -7 18z" />
    <glyph glyph-name="Ocircumflex" unicode="&#xd4;" 
d="M483 850q8 -8 11 -17.5t3 -18.5q0 -22 -13.5 -35.5t-35.5 -13.5q-18 0 -32 11q-12 9 -23 22l-2 2l-5 6q-4 4 -6 5l-2 2l-5 4l-2 2q-8 5 -16 5t-19 -8q-1 -1 -4.5 -4t-7 -6.5l-6.5 -6.5t-3 -4l-6 -6q0 -1 -2 -3t-3 -2l-6 -6q-16 -13 -36 -13q-17 0 -30.5 10t-17.5 27
q-16 4 -26.5 17t-10.5 30q0 10 3.5 19.5t11.5 16.5l93 92q15 15 35 15t35 -15l93 -92q1 -1 1.5 -2t1.5 -2zM292 857q11 12 28 12q16 0 28 -12l36 -36q11 -11 29 -11q17 0 28 11t11 28q0 18 -11 29l-93 92q-12 12 -28 12q-17 0 -28 -12l-93 -92q-12 -12 -12 -29t11.5 -28
t28.5 -11q18 0 28 11zM588 94q0 -24 -16 -39l-84 -83q-17 -17 -40 -17h-186q-22 0 -39 17l-84 83q-1 1 -1.5 2t-1.5 2l-32 31q-16 16 -16 39v442q0 23 16 39l84 83q17 17 39 17h186q23 0 40 -17l119 -118q16 -16 16 -39v-442zM446 686q-12 14 -33 14h-186q-20 0 -32 -14
l-84 -83q-13 -13 -13 -32v-442q0 -19 13 -32l84 -83q12 -14 32 -14h186q21 0 33 14l84 83q13 13 13 32v442q0 19 -13 32zM405 101q-10 -10 -25 -10h-119q-15 0 -25 10l-37 37q-10 10 -10 25v374q0 15 10 25l37 37q10 10 25 10h119q15 0 25 -10l37 -37q10 -10 10 -25v-374
q0 -15 -10 -25zM433 557q-7 7 -18 7h-119q-10 0 -18 -7l-37 -37q-7 -8 -7 -18v-374q0 -11 7 -18l2 -2q7 -7 18 -7h119q11 0 18 7l37 37q7 7 7 18v374q0 11 -7 18z" />
    <glyph glyph-name="Otilde" unicode="&#xd5;" 
d="M281 857v-20q0 -20 -14 -34t-34 -14q-17 0 -29 10.5t-16 25.5q-17 4 -27 17t-10 30v50q0 17 13 30l40 40q13 13 30 13h50q18 0 31 -13l79 -79v20q0 20 14.5 33.5t33.5 13.5q17 0 29.5 -10.5t16.5 -26.5q15 -3 25.5 -15.5t10.5 -29.5v-50q0 -19 -12 -31l-41 -40
q-6 -5 -13 -8.5t-17 -3.5h-50q-19 0 -31 13zM251 920h16l16 -16v-21q0 -14 9 -23l40 -40q10 -10 24 -10h50q16 0 23 10l41 40q9 9 9 23v50q0 15 -11 26t-26 11q-16 0 -27 -11t-11 -26v-33l-15 -15h-16l-16 15v22q0 13 -9 23l-40 40q-10 10 -24 10h-50q-13 0 -23 -10l-40 -40
q-10 -10 -10 -23v-50q0 -16 11 -27t26 -11q16 0 27 11t11 27v32zM588 94q0 -24 -16 -39l-84 -83q-17 -17 -40 -17h-186q-22 0 -39 17l-84 83q-1 1 -1.5 2t-1.5 2l-32 31q-16 16 -16 39v442q0 23 16 39l84 83q17 17 39 17h186q23 0 40 -17l119 -118q16 -16 16 -39v-442z
M446 686q-12 14 -33 14h-186q-20 0 -32 -14l-84 -83q-13 -13 -13 -32v-442q0 -19 13 -32l84 -83q12 -14 32 -14h186q21 0 33 14l84 83q13 13 13 32v442q0 19 -13 32zM405 101q-10 -10 -25 -10h-119q-15 0 -25 10l-37 37q-10 10 -10 25v374q0 15 10 25l37 37q10 10 25 10h119
q15 0 25 -10l37 -37q10 -10 10 -25v-374q0 -15 -10 -25zM433 557q-7 7 -18 7h-119q-10 0 -18 -7l-37 -37q-7 -8 -7 -18v-374q0 -11 7 -18l2 -2q7 -7 18 -7h119q11 0 18 7l37 37q7 7 7 18v374q0 11 -7 18z" />
    <glyph glyph-name="Odieresis" unicode="&#xd6;" 
d="M258 775q-18 0 -32.5 10.5t-19.5 27.5q-17 5 -27.5 19.5t-10.5 32.5v20q0 23 16 39t39 16h20q18 0 32.5 -10.5t19.5 -27.5q17 -5 27.5 -19.5t10.5 -32.5v-20q0 -23 -16 -39t-39 -16h-20zM433 775q-18 0 -32.5 10.5t-19.5 27.5q-17 5 -27.5 19.5t-10.5 32.5v20q0 23 16 39
t39 16h20q18 0 32.5 -10.5t19.5 -27.5q17 -5 27.5 -19.5t10.5 -32.5v-20q0 -23 -16 -39t-39 -16h-20zM418 820q19 0 32 13t13 32v20q0 19 -13 32t-32 13h-20q-19 0 -32 -13t-13 -32v-20q0 -19 13 -32t32 -13h20zM243 820q19 0 32 13t13 32v20q0 19 -13 32t-32 13h-20
q-19 0 -32 -13t-13 -32v-20q0 -19 13 -32t32 -13h20zM588 94q0 -24 -16 -39l-84 -83q-17 -17 -40 -17h-186q-22 0 -39 17l-84 83q-1 1 -1.5 2t-1.5 2l-32 31q-16 16 -16 39v442q0 23 16 39l84 83q17 17 39 17h186q23 0 40 -17l119 -118q16 -16 16 -39v-442zM446 686
q-12 14 -33 14h-186q-20 0 -32 -14l-84 -83q-13 -13 -13 -32v-442q0 -19 13 -32l84 -83q12 -14 32 -14h186q21 0 33 14l84 83q13 13 13 32v442q0 19 -13 32zM405 101q-10 -10 -25 -10h-119q-15 0 -25 10l-37 37q-10 10 -10 25v374q0 15 10 25l37 37q10 10 25 10h119
q15 0 25 -10l37 -37q10 -10 10 -25v-374q0 -15 -10 -25zM433 557q-7 7 -18 7h-119q-10 0 -18 -7l-37 -37q-7 -8 -7 -18v-374q0 -11 7 -18l2 -2q7 -7 18 -7h119q11 0 18 7l37 37q7 7 7 18v374q0 11 -7 18z" />
    <glyph glyph-name="multiply" unicode="&#xd7;" 
d="M490 125q-23 0 -40 17l-70 70q-11 11 -24 11q-11 0 -28 -14q-8 -6 -16 -14.5t-16 -17.5q-4 -5 -8 -9.5t-8 -9.5q-12 -12 -26 -23t-33 -11q-18 0 -32 10.5t-20 27.5q-17 6 -28 21t-11 33q0 22 16 38l71 71q11 11 11 25t-11 25l-71 71q-16 16 -16 38q0 23 16.5 40t39.5 17
q22 0 39 -17l71 -71q11 -10 25 -10q13 0 24 10l71 71q17 17 42 17q17 0 30.5 -11t19.5 -27q17 -5 27.5 -20.5t10.5 -32.5q0 -22 -17 -39l-70 -71q-10 -11 -10 -25q0 -15 10 -25l70 -70q10 -9 13.5 -19.5t3.5 -22.5q0 -22 -18 -37.5t-38 -15.5zM417 318q-13 13 -13 32t13 32
l70 71q14 14 14 32t-14 32.5t-32 13.5q-18 0 -32 -14l-71 -71q-13 -13 -31 -13q-19 0 -32 13l-71 71q-14 14 -32 14q-19 0 -32.5 -14t-13.5 -33q0 -18 13 -31l71 -71q14 -14 14 -32t-14 -32l-71 -71q-13 -13 -13 -31t13.5 -32.5t32.5 -14.5q18 0 32 14l71 71q14 14 32 14
q17 0 31 -14l70 -70q14 -14 33 -14q18 0 32.5 14t13.5 32q0 18 -14 32z" />
    <glyph glyph-name="Oslash" unicode="&#xd8;" 
d="M655 560q0 -21 -12 -35.5t-25 -25.5l-3 -3l-6 -5l-3 -3q-3 -4 -9 -10q-9 -10 -9 -20v-363q0 -25 -17 -40l-84 -83q-8 -8 -17 -12.5t-22 -4.5h-186q-22 0 -39 17l-63 62q-2 2 -4 2q0 -1 -1 -2q-2 -1 -4 -3t-5 -4q-5 -5 -13.5 -8.5t-22.5 -3.5q-18 0 -32.5 10.5t-19.5 27.5
q-17 5 -27.5 19.5t-10.5 32.5q0 22 12.5 36t24.5 25l3 3l6 5l3 3l10 10q8 11 8 20v364q0 22 17 39l84 83q8 8 17 12.5t22 4.5h186q13 0 22 -4.5t17 -12.5l63 -62q2 -2 4 -2q1 0 2 1q6 6 8 7q6 5 14.5 9t21.5 4q18 0 32.5 -10.5t19.5 -27.5q17 -5 27.5 -19.5t10.5 -32.5z
M529 624q-5 -5 -10 -5q-6 0 -11 5l-63 62q-12 14 -32 14h-186q-20 0 -32 -14l-84 -83q-14 -14 -14 -32v-364q0 -15 -11 -26l-43 -43q-13 -13 -13 -33q0 -19 13 -32t32 -13q20 0 33 13l3 3q5 5 10 5q6 0 11 -5l63 -62q12 -14 32 -14h186q20 0 32 14l84 83q14 14 14 33v363
q0 15 11 26l43 44q13 12 13 32q0 19 -13 32t-32 13q-20 0 -33 -13zM235 598q11 11 26 11h118q15 0 26 -11l40 -39q3 -3 3 -8q0 -9 -7 -16l-242 -241q-4 -4 -7 -4q-4 0 -4 8v239q0 15 11 26zM433 555q-9 9 -19 9h-118q-10 0 -19 -9l-36 -35q-3 -3 -5.5 -8t-2.5 -10v-160
l201 200q4 4 4 9zM405 102q-11 -11 -26 -11h-118q-15 0 -26 11l-40 39q-3 3 -3 8q0 9 7 16l242 241q4 4 7 4q4 0 4 -8v-239q0 -15 -11 -26zM442 322l-201 -199q-4 -5 -4 -9l5 -5q8 -8 19 -8h118q11 0 19 8l36 35q8 8 8 19v159z" />
    <glyph glyph-name="Ugrave" unicode="&#xd9;" 
d="M350 944q1 -1 2 -1.5t2 -1.5l81 -82q17 -17 17 -39q0 -23 -16.5 -39t-39.5 -16t-39 16l-117 117q-16 15 -16 39q0 23 16 39t39 16q24 0 40 -16zM329 823q13 -13 32 -13t32.5 13t13.5 32q0 18 -14 32l-81 82q-13 13 -33 13q-19 0 -32 -13t-13 -32t13 -32zM550 672
q17 -5 27.5 -19.5t10.5 -32.5v-526q0 -24 -16 -39l-84 -83q-17 -17 -40 -17h-186q-22 0 -39 17l-84 83q-1 1 -1.5 2t-1.5 2l-32 31q-16 16 -16 39v526q0 23 16 39t39 16q18 0 33 -10.5t20 -27.5q17 -6 27.5 -20t10.5 -32v-492q0 -11 7 -18l2 -2q7 -7 18 -7h119q11 0 18 7
l37 37q7 7 7 18v492q0 23 16.5 39t39.5 16q18 0 32.5 -10.5t19.5 -27.5zM189 655q0 19 -13.5 32t-32.5 13t-32 -13t-13 -32v-526q0 -19 13 -32l84 -83q12 -14 32 -14h186q21 0 33 14l84 83q13 13 13 32v526q0 19 -13 32t-32 13t-32.5 -13t-13.5 -32v-492q0 -15 -10 -25
l-37 -37q-10 -10 -25 -10h-119q-15 0 -25 10l-37 37q-10 10 -10 25v492z" />
    <glyph glyph-name="Uacute" unicode="&#xda;" 
d="M414 954q17 -6 27.5 -20t10.5 -32q0 -24 -17 -39l-81 -82q-15 -16 -39 -16q-18 0 -33 10.5t-20 27.5q-17 5 -27.5 19.5t-10.5 32.5q0 22 17 39l81 82q16 16 39 16q18 0 33 -10.5t20 -27.5zM393 905q14 12 14 32q0 19 -13.5 32t-32.5 13t-32 -13l-81 -82q-14 -14 -14 -32
q0 -19 13.5 -32t32.5 -13t32 13zM550 672q17 -5 27.5 -19.5t10.5 -32.5v-526q0 -24 -16 -39l-84 -83q-17 -17 -40 -17h-186q-22 0 -39 17l-84 83q-1 1 -1.5 2t-1.5 2l-32 31q-16 16 -16 39v526q0 23 16 39t39 16q18 0 33 -10.5t20 -27.5q17 -6 27.5 -20t10.5 -32v-492
q0 -11 7 -18l2 -2q7 -7 18 -7h119q11 0 18 7l37 37q7 7 7 18v492q0 23 16.5 39t39.5 16q18 0 32.5 -10.5t19.5 -27.5zM189 655q0 19 -13.5 32t-32.5 13t-32 -13t-13 -32v-526q0 -19 13 -32l84 -83q12 -14 32 -14h186q21 0 33 14l84 83q13 13 13 32v526q0 19 -13 32t-32 13
t-32.5 -13t-13.5 -32v-492q0 -15 -10 -25l-37 -37q-10 -10 -25 -10h-119q-15 0 -25 10l-37 37q-10 10 -10 25v492z" />
    <glyph glyph-name="Ucircumflex" unicode="&#xdb;" 
d="M483 850q8 -8 11 -17.5t3 -18.5q0 -22 -13.5 -35.5t-35.5 -13.5q-18 0 -32 11q-12 9 -23 22l-2 2l-5 6q-4 4 -6 5l-2 2l-5 4l-2 2q-8 5 -16 5t-19 -8q-1 -1 -4.5 -4t-7 -6.5l-6.5 -6.5t-3 -4l-6 -6q0 -1 -2 -3t-3 -2l-6 -6q-16 -13 -36 -13q-17 0 -30.5 10t-17.5 27
q-16 4 -26.5 17t-10.5 30q0 10 3.5 19.5t11.5 16.5l93 92q15 15 35 15t35 -15l93 -92q1 -1 1.5 -2t1.5 -2zM292 857q11 12 28 12q16 0 28 -12l36 -36q11 -11 29 -11q17 0 28 11t11 28q0 18 -11 29l-93 92q-12 12 -28 12q-17 0 -28 -12l-93 -92q-12 -12 -12 -29t11.5 -28
t28.5 -11q18 0 28 11zM550 672q17 -5 27.5 -19.5t10.5 -32.5v-526q0 -24 -16 -39l-84 -83q-17 -17 -40 -17h-186q-22 0 -39 17l-84 83q-1 1 -1.5 2t-1.5 2l-32 31q-16 16 -16 39v526q0 23 16 39t39 16q18 0 33 -10.5t20 -27.5q17 -6 27.5 -20t10.5 -32v-492q0 -11 7 -18
l2 -2q7 -7 18 -7h119q11 0 18 7l37 37q7 7 7 18v492q0 23 16.5 39t39.5 16q18 0 32.5 -10.5t19.5 -27.5zM189 655q0 19 -13.5 32t-32.5 13t-32 -13t-13 -32v-526q0 -19 13 -32l84 -83q12 -14 32 -14h186q21 0 33 14l84 83q13 13 13 32v526q0 19 -13 32t-32 13t-32.5 -13
t-13.5 -32v-492q0 -15 -10 -25l-37 -37q-10 -10 -25 -10h-119q-15 0 -25 10l-37 37q-10 10 -10 25v492z" />
    <glyph glyph-name="Udieresis" unicode="&#xdc;" 
d="M258 775q-18 0 -32.5 10.5t-19.5 27.5q-17 5 -27.5 19.5t-10.5 32.5v20q0 23 16 39t39 16h20q18 0 32.5 -10.5t19.5 -27.5q17 -5 27.5 -19.5t10.5 -32.5v-20q0 -23 -16 -39t-39 -16h-20zM433 775q-18 0 -32.5 10.5t-19.5 27.5q-17 5 -27.5 19.5t-10.5 32.5v20q0 23 16 39
t39 16h20q18 0 32.5 -10.5t19.5 -27.5q17 -5 27.5 -19.5t10.5 -32.5v-20q0 -23 -16 -39t-39 -16h-20zM418 820q19 0 32 13t13 32v20q0 19 -13 32t-32 13h-20q-19 0 -32 -13t-13 -32v-20q0 -19 13 -32t32 -13h20zM243 820q19 0 32 13t13 32v20q0 19 -13 32t-32 13h-20
q-19 0 -32 -13t-13 -32v-20q0 -19 13 -32t32 -13h20zM550 672q17 -5 27.5 -19.5t10.5 -32.5v-526q0 -24 -16 -39l-84 -83q-17 -17 -40 -17h-186q-22 0 -39 17l-84 83q-1 1 -1.5 2t-1.5 2l-32 31q-16 16 -16 39v526q0 23 16 39t39 16q18 0 33 -10.5t20 -27.5q17 -6 27.5 -20
t10.5 -32v-492q0 -11 7 -18l2 -2q7 -7 18 -7h119q11 0 18 7l37 37q7 7 7 18v492q0 23 16.5 39t39.5 16q18 0 32.5 -10.5t19.5 -27.5zM189 655q0 19 -13.5 32t-32.5 13t-32 -13t-13 -32v-526q0 -19 13 -32l84 -83q12 -14 32 -14h186q21 0 33 14l84 83q13 13 13 32v526
q0 19 -13 32t-32 13t-32.5 -13t-13.5 -32v-492q0 -15 -10 -25l-37 -37q-10 -10 -25 -10h-119q-15 0 -25 10l-37 37q-10 10 -10 25v492z" />
    <glyph glyph-name="Yacute" unicode="&#xdd;" 
d="M414 954q17 -6 27.5 -20t10.5 -32q0 -24 -17 -39l-81 -82q-15 -16 -39 -16q-18 0 -33 10.5t-20 27.5q-17 5 -27.5 19.5t-10.5 32.5q0 22 17 39l81 82q16 16 39 16q18 0 33 -10.5t20 -27.5zM393 905q14 12 14 32q0 19 -13.5 32t-32.5 13t-32 -13l-81 -82q-14 -14 -14 -32
q0 -19 13.5 -32t32.5 -13t32 13zM196 672q17 -6 27.5 -20t10.5 -32v-135q0 -11 7 -18l57 -58q10 -7 22 -7q15 0 26 10l89 90q7 7 7 18v135q0 23 16.5 39t39.5 16q18 0 32.5 -10.5t19.5 -27.5q17 -5 27.5 -19.5t10.5 -32.5v-169q0 -25 -17 -40l-153 -153q-7 -8 -7 -18v-230
q0 -24 -16.5 -39.5t-39.5 -15.5q-18 0 -32.5 10.5t-19.5 27.5q-17 5 -27.5 19.5t-10.5 32.5v230q0 11 -7 18l-153 153q-17 17 -17 40v169q0 23 16 39t39 16q18 0 33 -10.5t20 -27.5zM265 300q10 -10 10 -25v-230q0 -19 13 -32t32 -13q20 0 33 13t13 32v230q0 15 10 25
l153 153q14 14 14 33v169q0 19 -13 32t-32 13t-32.5 -13t-13.5 -32v-135q0 -15 -10 -25l-89 -90q-13 -13 -33 -13q-19 0 -32 13l-89 90q-10 10 -10 25v135q0 19 -13.5 32t-32.5 13t-32 -13t-13 -32v-169q0 -19 14 -33z" />
    <glyph glyph-name="Thorn" unicode="&#xde;" 
d="M195 673q22 -6 30.5 -24.5t8.5 -38.5h159q23 0 39 -16l139 -140q17 -17 17 -39v-200q0 -13 -4.5 -22t-12.5 -17l-104 -105q-15 -16 -39 -16h-159q-14 0 -24.5 -10.5t-10.5 -24.5q0 -24 -12 -44.5t-44 -20.5q-18 0 -32.5 10.5t-19.5 27.5q-17 5 -27.5 19.5t-10.5 32.5v610
q0 23 16 39t39 16t35 -10.5t17 -26.5zM98 45q0 -19 13 -32t32 -13q20 0 33 13t13 32v10q0 19 13 32t32 13h159q19 0 32 13l104 105q14 12 14 32v200q0 20 -14 32l-104 105q-13 13 -32 13h-159q-19 0 -32 13t-13 32v10q0 19 -13 32t-33 13q-19 0 -32 -13t-13 -32v-610z
M452 284q0 -15 -10 -25l-58 -58q-10 -10 -25 -10h-125q-19 0 -32 13t-13 32v228q0 19 13 32t32 13h125q15 0 25 -10l58 -58q10 -10 10 -25v-132zM412 457q-7 7 -18 7h-125q-14 0 -24.5 -10.5t-10.5 -24.5v-228h125q11 0 18 7l58 58q7 7 7 18v132q0 11 -7 18z" />
    <glyph glyph-name="germandbls" unicode="&#xdf;" 
d="M126 -81q-17 5 -27.5 19.5t-10.5 32.5v600q0 23 16 39l84 83q17 17 39 17h158q22 0 39 -17l119 -118q16 -16 16 -39v-108q0 -16 -8 -30q-5 -6 -9 -10.5t-9 -9.5q-8 -8 -14 -15.5t-6 -18.5t6 -20q1 0 1 -0.5t1 -0.5l3 -3q5 -4 8.5 -8t6.5 -8q1 -1 1.5 -2t2.5 -3
q1 -2 2 -2.5t2 -1.5q4 -3 7.5 -6t6.5 -7q12 -10 19.5 -22.5t7.5 -28.5v-136q0 -25 -16 -40l-84 -83q-15 -17 -39 -17h-128q-18 0 -32.5 10.5t-19.5 27.5q-26 8 -35 33v-90q0 -23 -16.5 -39t-39.5 -16q-18 0 -32.5 10.5t-19.5 27.5zM189 537q0 15 11 26l35 35q11 11 26 11h90
q15 0 26 -11l35 -35q11 -11 11 -26v-40q0 -15 -11 -26l-59 -60q-14 -14 -14 -32t14 -32l88 -89q11 -11 11 -26v-69q0 -15 -11 -26l-35 -35q-11 -11 -26 -11h-94q-19 0 -32 -13.5t-13 -32.5t13 -32t32 -13h128q20 0 32 14l84 83q13 13 13 33v136q0 19 -13 32l-49 49
q-13 13 -13 32t13 32l20 20q13 13 13 32v108q0 19 -13 32l-84 83q-12 14 -32 14h-158q-20 0 -32 -14l-84 -83q-13 -13 -13 -32v-600q0 -19 13 -32t32 -13t32.5 13t13.5 32v566zM405 556q-4 3 -9 5.5t-10 2.5h-90q-5 0 -10 -2.5t-9 -5.5l-35 -35q-3 -4 -5.5 -9t-2.5 -10v-438
q6 16 20 26.5t32 10.5h94q11 0 19 8l35 35q8 8 8 19v69q0 11 -8 19l-88 89q-17 17 -17 39q0 11 4.5 20.5t10.5 17.5q14 17 30 30q5 4 8.5 7t7.5 7q7 7 15 16.5t8 19.5v40q0 11 -8 19z" />
    <glyph glyph-name="agrave" unicode="&#xe0;" 
d="M350 944q1 -1 2 -1.5t2 -1.5l81 -82q17 -17 17 -39q0 -23 -16.5 -39t-39.5 -16t-39 16l-117 117q-16 15 -16 39q0 23 16 39t39 16q24 0 40 -16zM329 823q13 -13 32 -13t32.5 13t13.5 32q0 18 -14 32l-81 82q-13 13 -33 13q-19 0 -32 -13t-13 -32t13 -32zM588 10
q0 -23 -16 -39t-39 -16q-18 0 -33 10.5t-20 27.5q-17 5 -27.5 19.5t-10.5 32.5v192h-173q-14 0 -24.5 -10.5t-10.5 -24.5v-192q0 -23 -16.5 -39t-39.5 -16q-18 0 -32.5 10.5t-19.5 27.5q-17 5 -27.5 19.5t-10.5 32.5v505q0 23 16 39l105 104q8 8 17 12.5t22 4.5h145
q23 0 39 -16l139 -140q17 -17 17 -39v-505zM543 550q0 20 -14 32l-104 105q-13 13 -32 13h-145q-20 0 -32 -14l-105 -104q-13 -13 -13 -32v-505q0 -19 13 -32t32 -13t32.5 13t13.5 32v192q0 19 13 32t32 13h173q19 0 32 -13t13 -32v-192q0 -19 13.5 -32t32.5 -13t32 13
t13 32v505zM452 418q0 -19 -13 -32t-32 -13h-173q-19 0 -32 13t-13 32v98q0 15 10 25l58 58q10 10 25 10h77q15 0 25 -10l58 -58q10 -10 10 -25v-98zM412 557q-7 7 -18 7h-77q-10 0 -18 -7l-58 -58q-7 -8 -7 -18v-98h173q14 0 24.5 10.5t10.5 24.5v98q0 11 -7 18z" />
    <glyph glyph-name="aacute" unicode="&#xe1;" 
d="M414 954q17 -6 27.5 -20t10.5 -32q0 -24 -17 -39l-81 -82q-15 -16 -39 -16q-18 0 -33 10.5t-20 27.5q-17 5 -27.5 19.5t-10.5 32.5q0 22 17 39l81 82q16 16 39 16q18 0 33 -10.5t20 -27.5zM393 905q14 12 14 32q0 19 -13.5 32t-32.5 13t-32 -13l-81 -82q-14 -14 -14 -32
q0 -19 13.5 -32t32.5 -13t32 13zM588 10q0 -23 -16 -39t-39 -16q-18 0 -33 10.5t-20 27.5q-17 5 -27.5 19.5t-10.5 32.5v192h-173q-14 0 -24.5 -10.5t-10.5 -24.5v-192q0 -23 -16.5 -39t-39.5 -16q-18 0 -32.5 10.5t-19.5 27.5q-17 5 -27.5 19.5t-10.5 32.5v505q0 23 16 39
l105 104q8 8 17 12.5t22 4.5h145q23 0 39 -16l139 -140q17 -17 17 -39v-505zM543 550q0 20 -14 32l-104 105q-13 13 -32 13h-145q-20 0 -32 -14l-105 -104q-13 -13 -13 -32v-505q0 -19 13 -32t32 -13t32.5 13t13.5 32v192q0 19 13 32t32 13h173q19 0 32 -13t13 -32v-192
q0 -19 13.5 -32t32.5 -13t32 13t13 32v505zM452 418q0 -19 -13 -32t-32 -13h-173q-19 0 -32 13t-13 32v98q0 15 10 25l58 58q10 10 25 10h77q15 0 25 -10l58 -58q10 -10 10 -25v-98zM412 557q-7 7 -18 7h-77q-10 0 -18 -7l-58 -58q-7 -8 -7 -18v-98h173q14 0 24.5 10.5
t10.5 24.5v98q0 11 -7 18z" />
    <glyph glyph-name="acircumflex" unicode="&#xe2;" 
d="M483 850q8 -8 11 -17.5t3 -18.5q0 -22 -13.5 -35.5t-35.5 -13.5q-18 0 -32 11q-12 9 -23 22l-2 2l-5 6q-4 4 -6 5l-2 2l-5 4l-2 2q-8 5 -16 5t-19 -8q-1 -1 -4.5 -4t-7 -6.5l-6.5 -6.5t-3 -4l-6 -6q0 -1 -2 -3t-3 -2l-6 -6q-16 -13 -36 -13q-17 0 -30.5 10t-17.5 27
q-16 4 -26.5 17t-10.5 30q0 10 3.5 19.5t11.5 16.5l93 92q15 15 35 15t35 -15l93 -92q1 -1 1.5 -2t1.5 -2zM292 857q11 12 28 12q16 0 28 -12l36 -36q11 -11 29 -11q17 0 28 11t11 28q0 18 -11 29l-93 92q-12 12 -28 12q-17 0 -28 -12l-93 -92q-12 -12 -12 -29t11.5 -28
t28.5 -11q18 0 28 11zM588 10q0 -23 -16 -39t-39 -16q-18 0 -33 10.5t-20 27.5q-17 5 -27.5 19.5t-10.5 32.5v192h-173q-14 0 -24.5 -10.5t-10.5 -24.5v-192q0 -23 -16.5 -39t-39.5 -16q-18 0 -32.5 10.5t-19.5 27.5q-17 5 -27.5 19.5t-10.5 32.5v505q0 23 16 39l105 104
q8 8 17 12.5t22 4.5h145q23 0 39 -16l139 -140q17 -17 17 -39v-505zM543 550q0 20 -14 32l-104 105q-13 13 -32 13h-145q-20 0 -32 -14l-105 -104q-13 -13 -13 -32v-505q0 -19 13 -32t32 -13t32.5 13t13.5 32v192q0 19 13 32t32 13h173q19 0 32 -13t13 -32v-192
q0 -19 13.5 -32t32.5 -13t32 13t13 32v505zM452 418q0 -19 -13 -32t-32 -13h-173q-19 0 -32 13t-13 32v98q0 15 10 25l58 58q10 10 25 10h77q15 0 25 -10l58 -58q10 -10 10 -25v-98zM412 557q-7 7 -18 7h-77q-10 0 -18 -7l-58 -58q-7 -8 -7 -18v-98h173q14 0 24.5 10.5
t10.5 24.5v98q0 11 -7 18z" />
    <glyph glyph-name="atilde" unicode="&#xe3;" 
d="M281 857v-20q0 -20 -14 -34t-34 -14q-17 0 -29 10.5t-16 25.5q-17 4 -27 17t-10 30v50q0 17 13 30l40 40q13 13 30 13h50q18 0 31 -13l79 -79v20q0 20 14.5 33.5t33.5 13.5q17 0 29.5 -10.5t16.5 -26.5q15 -3 25.5 -15.5t10.5 -29.5v-50q0 -19 -12 -31l-41 -40
q-6 -5 -13 -8.5t-17 -3.5h-50q-19 0 -31 13zM251 920h16l16 -16v-21q0 -14 9 -23l40 -40q10 -10 24 -10h50q16 0 23 10l41 40q9 9 9 23v50q0 15 -11 26t-26 11q-16 0 -27 -11t-11 -26v-33l-15 -15h-16l-16 15v22q0 13 -9 23l-40 40q-10 10 -24 10h-50q-13 0 -23 -10l-40 -40
q-10 -10 -10 -23v-50q0 -16 11 -27t26 -11q16 0 27 11t11 27v32zM588 10q0 -23 -16 -39t-39 -16q-18 0 -33 10.5t-20 27.5q-17 5 -27.5 19.5t-10.5 32.5v192h-173q-14 0 -24.5 -10.5t-10.5 -24.5v-192q0 -23 -16.5 -39t-39.5 -16q-18 0 -32.5 10.5t-19.5 27.5
q-17 5 -27.5 19.5t-10.5 32.5v505q0 23 16 39l105 104q8 8 17 12.5t22 4.5h145q23 0 39 -16l139 -140q17 -17 17 -39v-505zM543 550q0 20 -14 32l-104 105q-13 13 -32 13h-145q-20 0 -32 -14l-105 -104q-13 -13 -13 -32v-505q0 -19 13 -32t32 -13t32.5 13t13.5 32v192
q0 19 13 32t32 13h173q19 0 32 -13t13 -32v-192q0 -19 13.5 -32t32.5 -13t32 13t13 32v505zM452 418q0 -19 -13 -32t-32 -13h-173q-19 0 -32 13t-13 32v98q0 15 10 25l58 58q10 10 25 10h77q15 0 25 -10l58 -58q10 -10 10 -25v-98zM412 557q-7 7 -18 7h-77q-10 0 -18 -7
l-58 -58q-7 -8 -7 -18v-98h173q14 0 24.5 10.5t10.5 24.5v98q0 11 -7 18z" />
    <glyph glyph-name="adieresis" unicode="&#xe4;" 
d="M258 775q-18 0 -32.5 10.5t-19.5 27.5q-17 5 -27.5 19.5t-10.5 32.5v20q0 23 16 39t39 16h20q18 0 32.5 -10.5t19.5 -27.5q17 -5 27.5 -19.5t10.5 -32.5v-20q0 -23 -16 -39t-39 -16h-20zM433 775q-18 0 -32.5 10.5t-19.5 27.5q-17 5 -27.5 19.5t-10.5 32.5v20q0 23 16 39
t39 16h20q18 0 32.5 -10.5t19.5 -27.5q17 -5 27.5 -19.5t10.5 -32.5v-20q0 -23 -16 -39t-39 -16h-20zM418 820q19 0 32 13t13 32v20q0 19 -13 32t-32 13h-20q-19 0 -32 -13t-13 -32v-20q0 -19 13 -32t32 -13h20zM243 820q19 0 32 13t13 32v20q0 19 -13 32t-32 13h-20
q-19 0 -32 -13t-13 -32v-20q0 -19 13 -32t32 -13h20zM588 10q0 -23 -16 -39t-39 -16q-18 0 -33 10.5t-20 27.5q-17 5 -27.5 19.5t-10.5 32.5v192h-173q-14 0 -24.5 -10.5t-10.5 -24.5v-192q0 -23 -16.5 -39t-39.5 -16q-18 0 -32.5 10.5t-19.5 27.5q-17 5 -27.5 19.5
t-10.5 32.5v505q0 23 16 39l105 104q8 8 17 12.5t22 4.5h145q23 0 39 -16l139 -140q17 -17 17 -39v-505zM543 550q0 20 -14 32l-104 105q-13 13 -32 13h-145q-20 0 -32 -14l-105 -104q-13 -13 -13 -32v-505q0 -19 13 -32t32 -13t32.5 13t13.5 32v192q0 19 13 32t32 13h173
q19 0 32 -13t13 -32v-192q0 -19 13.5 -32t32.5 -13t32 13t13 32v505zM452 418q0 -19 -13 -32t-32 -13h-173q-19 0 -32 13t-13 32v98q0 15 10 25l58 58q10 10 25 10h77q15 0 25 -10l58 -58q10 -10 10 -25v-98zM412 557q-7 7 -18 7h-77q-10 0 -18 -7l-58 -58q-7 -8 -7 -18v-98
h173q14 0 24.5 10.5t10.5 24.5v98q0 11 -7 18z" />
    <glyph glyph-name="aring" unicode="&#xe5;" 
d="M409 959q1 -1 2 -1.5t2 -1.5l52 -53q11 -11 11 -27v-61q0 -16 -11 -27l-52 -52q-10 -11 -28 -11h-60q-7 0 -14.5 2.5t-13.5 8.5l-87 87q-11 11 -11 27v61q0 16 11 27l52 53q5 5 13 8t15 3h60q7 0 14.5 -2.5t13.5 -8.5zM209 850q0 -9 8 -20l52 -52q11 -8 21 -8h60
q13 0 21 8l52 52q8 8 8 20v61q0 12 -8 20l-52 53q-8 8 -21 8h-60q-10 0 -21 -8l-52 -53q-8 -8 -8 -20v-61zM295 917q10 10 25 10t25 -10l11 -11q10 -10 10 -25t-10 -25l-11 -11q-10 -10 -25 -10t-25 10l-11 11q-10 10 -10 25t10 25zM355 882q-12 0 -24 -12t-12 -24v-1h1
q12 0 24 12t12 24q0 1 -1 1zM588 10q0 -23 -16 -39t-39 -16q-18 0 -33 10.5t-20 27.5q-17 5 -27.5 19.5t-10.5 32.5v192h-173q-14 0 -24.5 -10.5t-10.5 -24.5v-192q0 -23 -16.5 -39t-39.5 -16q-18 0 -32.5 10.5t-19.5 27.5q-17 5 -27.5 19.5t-10.5 32.5v505q0 23 16 39
l105 104q8 8 17 12.5t22 4.5h145q23 0 39 -16l139 -140q17 -17 17 -39v-505zM543 550q0 20 -14 32l-104 105q-13 13 -32 13h-145q-20 0 -32 -14l-105 -104q-13 -13 -13 -32v-505q0 -19 13 -32t32 -13t32.5 13t13.5 32v192q0 19 13 32t32 13h173q19 0 32 -13t13 -32v-192
q0 -19 13.5 -32t32.5 -13t32 13t13 32v505zM452 418q0 -19 -13 -32t-32 -13h-173q-19 0 -32 13t-13 32v98q0 15 10 25l58 58q10 10 25 10h77q15 0 25 -10l58 -58q10 -10 10 -25v-98zM412 557q-7 7 -18 7h-77q-10 0 -18 -7l-58 -58q-7 -8 -7 -18v-98h173q14 0 24.5 10.5
t10.5 24.5v98q0 11 -7 18z" />
    <glyph glyph-name="ae" unicode="&#xe6;" 
d="M214 10q0 -23 -16.5 -39t-39.5 -16q-18 0 -32.5 10.5t-19.5 27.5q-17 5 -27.5 19.5t-10.5 32.5v505q0 23 16 39l105 104q8 8 17 12.5t22 4.5h290q18 0 32.5 -10.5t19.5 -27.5q17 -5 27.5 -19.5t10.5 -32.5q0 -23 -16 -39.5t-39 -16.5h-107q-14 0 -24.5 -10.5t-10.5 -24.5
v-124h87q18 0 32.5 -10.5t19.5 -27.5q17 -5 27.5 -19.5t10.5 -32.5q0 -23 -16 -39.5t-39 -16.5h-87q-14 0 -24.5 -10.5t-10.5 -24.5v-123h107q18 0 32.5 -10.5t19.5 -27.5q17 -5 27.5 -20t10.5 -33q0 -23 -16 -39t-39 -16h-198q-18 0 -32.5 10.5t-19.5 27.5
q-17 5 -27.5 19.5t-10.5 32.5v192h-16q-14 0 -24.5 -10.5t-10.5 -24.5v-192zM275 45q0 -19 13 -32t32 -13h198q19 0 32 13t13 32t-13 32.5t-32 13.5h-107q-19 0 -32 13t-13 32v123q0 19 13 32t32 13h87q19 0 32 13.5t13 32.5t-13 32t-32 13h-87q-19 0 -32 13.5t-13 32.5v123
q0 19 13 32t32 13h107q19 0 32 13.5t13 32.5t-13 32t-32 13h-290q-20 0 -32 -14l-105 -104q-13 -13 -13 -32v-505q0 -19 13 -32t32 -13t32.5 13t13.5 32v192q0 19 13 32t32 13h46q15 0 15 -15v-222zM275 388q0 -15 -15 -15h-46q-19 0 -32 13t-13 32v98q0 15 11 26l57 57
q10 10 23 10q15 0 15 -14v-207zM265 542l-43 -42q-3 -4 -5.5 -9t-2.5 -10v-98h46q5 0 5 5v154z" />
    <glyph glyph-name="ccedilla" unicode="&#xe7;" 
d="M234 149q0 -11 7 -18l23 -23q7 -7 18 -7h77q11 0 18 7l58 58q7 7 7 20q1 7 0.5 14t-0.5 14q0 23 16.5 39.5t39.5 16.5q18 0 32.5 -10.5t19.5 -27.5q17 -5 27.5 -20t10.5 -33v-64q0 -13 -4.5 -22t-12.5 -17l-104 -105q-8 -9 -18.5 -12.5t-21.5 -4.5q-7 -1 -14 -0.5
t-15 0.5v-5q0 -7 5 -15q2 -2 3 -2l5 -5q1 -1 1.5 -1t1.5 -1t1.5 -2t1.5 -2l7 -6q1 -1 1.5 -2t1.5 -2q2 -2 3.5 -4t3.5 -5q4 -3 7.5 -6t7.5 -7q4 -3 7 -6l7 -7q5 -7 9.5 -15t4.5 -17v-61q0 -16 -11 -27l-53 -52q-10 -12 -27 -12h-61q-9 0 -15 3t-12 9q-7 7 -10 9q-7 6 -13 13
q-4 1 -7 9q-3 2 -8.5 7t-7.5 7l-12 12q-7 7 -12 15.5t-5 19.5q0 18 13 30t30 12q12 0 20 -5q3 -2 5 -3t3 -2q2 -2 3.5 -3t2.5 -2q5 -5 9.5 -8t11.5 -3q11 0 23.5 12.5t12.5 23.5q0 7 -5 15l-2 2l-6 5l-2 2l-14 14q-4 4 -5 7l-2 2q-4 3 -7.5 6t-7.5 7q-10 8 -18.5 21t-9.5 26
q-9 2 -18 5.5t-17 11.5l-139 139q-16 15 -16 39v400q0 24 16 39l104 104q17 17 40 17h145q23 0 39 -16l139 -140q17 -17 17 -39v-64q0 -23 -16 -39.5t-39 -16.5q-18 0 -32.5 10.5t-20.5 27.5q-17 6 -27.5 20.5t-10.5 32.5q0 7 0.5 14t-0.5 14q0 13 -7 20l-23 23q-7 7 -18 7
h-77q-10 0 -18 -7l-58 -58q-7 -8 -7 -18v-332zM189 516q0 15 10 25l58 58q10 10 25 10h77q15 0 25 -10l58 -58q10 -10 10 -25v-30q0 -19 13.5 -32.5t32.5 -13.5t32 13.5t13 32.5v64q0 20 -14 32l-104 105q-13 13 -32 13h-145q-19 0 -33 -14l-104 -104q-13 -13 -13 -32v-400
q0 -19 13 -32l104 -104q14 -14 33 -14h40v-43q0 -15 11 -26l57 -57q11 -11 11 -26t-11 -26l-9 -9q-11 -11 -26 -11t-26 11l-6 6q-9 9 -23 9t-23.5 -9t-9.5 -23q0 -13 10 -23l27 -27q8 -9 20 -9h61q13 0 20 9l53 52q8 8 8 20v61q0 9 -8 20l-60 59q-11 11 -11 26v16h40
q19 0 32 13l104 105q14 12 14 32v64q0 19 -13 32.5t-32 13.5t-32.5 -13.5t-13.5 -32.5v-30q0 -15 -10 -25l-58 -58q-10 -10 -25 -10h-77q-15 0 -25 10l-58 58q-10 10 -10 25v332z" />
    <glyph glyph-name="egrave" unicode="&#xe8;" 
d="M350 944q1 -1 2 -1.5t2 -1.5l81 -82q17 -17 17 -39q0 -23 -16.5 -39t-39.5 -16t-39 16l-117 117q-16 15 -16 39q0 23 16 39t39 16q24 0 40 -16zM329 823q13 -13 32 -13t32.5 13t13.5 32q0 18 -14 32l-81 82q-13 13 -33 13q-19 0 -32 -13t-13 -32t13 -32zM550 672
q17 -5 27.5 -19.5t10.5 -32.5q0 -23 -16 -39.5t-39 -16.5h-264q-14 0 -24.5 -10.5t-10.5 -24.5v-124h196q18 0 33 -10.5t20 -27.5q17 -6 27.5 -20t10.5 -32q0 -23 -16.5 -39.5t-39.5 -16.5h-196q-14 0 -24.5 -11t-10.5 -25v-122h264q18 0 32.5 -10.5t19.5 -27.5
q17 -5 27.5 -20t10.5 -33q0 -23 -16 -39t-39 -16h-355q-18 0 -32.5 10.5t-19.5 27.5q-17 5 -27.5 19.5t-10.5 32.5v610q0 23 16 39t39 16h355q18 0 32.5 -10.5t19.5 -27.5zM98 45q0 -19 13 -32t32 -13h355q19 0 32 13t13 32t-13 32.5t-32 13.5h-264q-19 0 -32 13t-13 32v122
q0 19 13 32.5t32 13.5h196q19 0 32.5 13.5t13.5 32.5t-13.5 32t-32.5 13h-196q-19 0 -32 13.5t-13 32.5v123q0 19 13 32t32 13h264q19 0 32 13.5t13 32.5t-13 32t-32 13h-355q-19 0 -32 -13t-13 -32v-610z" />
    <glyph glyph-name="eacute" unicode="&#xe9;" 
d="M414 954q17 -6 27.5 -20t10.5 -32q0 -24 -17 -39l-81 -82q-15 -16 -39 -16q-18 0 -33 10.5t-20 27.5q-17 5 -27.5 19.5t-10.5 32.5q0 22 17 39l81 82q16 16 39 16q18 0 33 -10.5t20 -27.5zM393 905q14 12 14 32q0 19 -13.5 32t-32.5 13t-32 -13l-81 -82q-14 -14 -14 -32
q0 -19 13.5 -32t32.5 -13t32 13zM550 672q17 -5 27.5 -19.5t10.5 -32.5q0 -23 -16 -39.5t-39 -16.5h-264q-14 0 -24.5 -10.5t-10.5 -24.5v-124h196q18 0 33 -10.5t20 -27.5q17 -6 27.5 -20t10.5 -32q0 -23 -16.5 -39.5t-39.5 -16.5h-196q-14 0 -24.5 -11t-10.5 -25v-122h264
q18 0 32.5 -10.5t19.5 -27.5q17 -5 27.5 -20t10.5 -33q0 -23 -16 -39t-39 -16h-355q-18 0 -32.5 10.5t-19.5 27.5q-17 5 -27.5 19.5t-10.5 32.5v610q0 23 16 39t39 16h355q18 0 32.5 -10.5t19.5 -27.5zM98 45q0 -19 13 -32t32 -13h355q19 0 32 13t13 32t-13 32.5t-32 13.5
h-264q-19 0 -32 13t-13 32v122q0 19 13 32.5t32 13.5h196q19 0 32.5 13.5t13.5 32.5t-13.5 32t-32.5 13h-196q-19 0 -32 13.5t-13 32.5v123q0 19 13 32t32 13h264q19 0 32 13.5t13 32.5t-13 32t-32 13h-355q-19 0 -32 -13t-13 -32v-610z" />
    <glyph glyph-name="ecircumflex" unicode="&#xea;" 
d="M483 850q8 -8 11 -17.5t3 -18.5q0 -22 -13.5 -35.5t-35.5 -13.5q-18 0 -32 11q-12 9 -23 22l-2 2l-5 6q-4 4 -6 5l-2 2l-5 4l-2 2q-8 5 -16 5t-19 -8q-1 -1 -4.5 -4t-7 -6.5l-6.5 -6.5t-3 -4l-6 -6q0 -1 -2 -3t-3 -2l-6 -6q-16 -13 -36 -13q-17 0 -30.5 10t-17.5 27
q-16 4 -26.5 17t-10.5 30q0 10 3.5 19.5t11.5 16.5l93 92q15 15 35 15t35 -15l93 -92q1 -1 1.5 -2t1.5 -2zM292 857q11 12 28 12q16 0 28 -12l36 -36q11 -11 29 -11q17 0 28 11t11 28q0 18 -11 29l-93 92q-12 12 -28 12q-17 0 -28 -12l-93 -92q-12 -12 -12 -29t11.5 -28
t28.5 -11q18 0 28 11zM550 672q17 -5 27.5 -19.5t10.5 -32.5q0 -23 -16 -39.5t-39 -16.5h-264q-14 0 -24.5 -10.5t-10.5 -24.5v-124h196q18 0 33 -10.5t20 -27.5q17 -6 27.5 -20t10.5 -32q0 -23 -16.5 -39.5t-39.5 -16.5h-196q-14 0 -24.5 -11t-10.5 -25v-122h264
q18 0 32.5 -10.5t19.5 -27.5q17 -5 27.5 -20t10.5 -33q0 -23 -16 -39t-39 -16h-355q-18 0 -32.5 10.5t-19.5 27.5q-17 5 -27.5 19.5t-10.5 32.5v610q0 23 16 39t39 16h355q18 0 32.5 -10.5t19.5 -27.5zM98 45q0 -19 13 -32t32 -13h355q19 0 32 13t13 32t-13 32.5t-32 13.5
h-264q-19 0 -32 13t-13 32v122q0 19 13 32.5t32 13.5h196q19 0 32.5 13.5t13.5 32.5t-13.5 32t-32.5 13h-196q-19 0 -32 13.5t-13 32.5v123q0 19 13 32t32 13h264q19 0 32 13.5t13 32.5t-13 32t-32 13h-355q-19 0 -32 -13t-13 -32v-610z" />
    <glyph glyph-name="edieresis" unicode="&#xeb;" 
d="M258 775q-18 0 -32.5 10.5t-19.5 27.5q-17 5 -27.5 19.5t-10.5 32.5v20q0 23 16 39t39 16h20q18 0 32.5 -10.5t19.5 -27.5q17 -5 27.5 -19.5t10.5 -32.5v-20q0 -23 -16 -39t-39 -16h-20zM433 775q-18 0 -32.5 10.5t-19.5 27.5q-17 5 -27.5 19.5t-10.5 32.5v20q0 23 16 39
t39 16h20q18 0 32.5 -10.5t19.5 -27.5q17 -5 27.5 -19.5t10.5 -32.5v-20q0 -23 -16 -39t-39 -16h-20zM418 820q19 0 32 13t13 32v20q0 19 -13 32t-32 13h-20q-19 0 -32 -13t-13 -32v-20q0 -19 13 -32t32 -13h20zM243 820q19 0 32 13t13 32v20q0 19 -13 32t-32 13h-20
q-19 0 -32 -13t-13 -32v-20q0 -19 13 -32t32 -13h20zM550 672q17 -5 27.5 -19.5t10.5 -32.5q0 -23 -16 -39.5t-39 -16.5h-264q-14 0 -24.5 -10.5t-10.5 -24.5v-124h196q18 0 33 -10.5t20 -27.5q17 -6 27.5 -20t10.5 -32q0 -23 -16.5 -39.5t-39.5 -16.5h-196q-14 0 -24.5 -11
t-10.5 -25v-122h264q18 0 32.5 -10.5t19.5 -27.5q17 -5 27.5 -20t10.5 -33q0 -23 -16 -39t-39 -16h-355q-18 0 -32.5 10.5t-19.5 27.5q-17 5 -27.5 19.5t-10.5 32.5v610q0 23 16 39t39 16h355q18 0 32.5 -10.5t19.5 -27.5zM98 45q0 -19 13 -32t32 -13h355q19 0 32 13t13 32
t-13 32.5t-32 13.5h-264q-19 0 -32 13t-13 32v122q0 19 13 32.5t32 13.5h196q19 0 32.5 13.5t13.5 32.5t-13.5 32t-32.5 13h-196q-19 0 -32 13.5t-13 32.5v123q0 19 13 32t32 13h264q19 0 32 13.5t13 32.5t-13 32t-32 13h-355q-19 0 -32 -13t-13 -32v-610z" />
    <glyph glyph-name="igrave" unicode="&#xec;" 
d="M350 944q1 -1 2 -1.5t2 -1.5l81 -82q17 -17 17 -39q0 -23 -16.5 -39t-39.5 -16t-39 16l-117 117q-16 15 -16 39q0 23 16 39t39 16q24 0 40 -16zM329 823q13 -13 32 -13t32.5 13t13.5 32q0 18 -14 32l-81 82q-13 13 -33 13q-19 0 -32 -13t-13 -32t13 -32zM223 -45
q-18 0 -32.5 10.5t-19.5 27.5q-17 5 -27.5 19.5t-10.5 32.5q0 23 16 39.5t39 16.5h42q14 0 24.5 10.5t10.5 24.5v428h-42q-18 0 -32 10.5t-20 27.5q-17 5 -27.5 20t-10.5 33q0 23 16 39t39 16h265q18 0 32.5 -10.5t19.5 -27.5q17 -5 27.5 -19.5t10.5 -32.5q0 -23 -16 -39.5
t-39 -16.5h-42q-14 0 -24.5 -10.5t-10.5 -24.5v-428h42q18 0 32.5 -10.5t19.5 -27.5q17 -5 27.5 -20t10.5 -33q0 -23 -16 -39t-39 -16h-265zM453 0q19 0 32 13t13 32t-13 32.5t-32 13.5h-42q-19 0 -32 13t-13 32v428q0 19 13 32t32 13h42q19 0 32 13.5t13 32.5t-13 32
t-32 13h-265q-19 0 -32 -13t-13 -32t13 -32.5t32 -13.5h42q19 0 32 -13t13 -32v-428q0 -19 -13 -32t-32 -13h-42q-19 0 -32 -13.5t-13 -32.5t13 -32t32 -13h265z" />
    <glyph glyph-name="iacute" unicode="&#xed;" 
d="M414 954q17 -6 27.5 -20t10.5 -32q0 -24 -17 -39l-81 -82q-15 -16 -39 -16q-18 0 -33 10.5t-20 27.5q-17 5 -27.5 19.5t-10.5 32.5q0 22 17 39l81 82q16 16 39 16q18 0 33 -10.5t20 -27.5zM393 905q14 12 14 32q0 19 -13.5 32t-32.5 13t-32 -13l-81 -82q-14 -14 -14 -32
q0 -19 13.5 -32t32.5 -13t32 13zM223 -45q-18 0 -32.5 10.5t-19.5 27.5q-17 5 -27.5 19.5t-10.5 32.5q0 23 16 39.5t39 16.5h42q14 0 24.5 10.5t10.5 24.5v428h-42q-18 0 -32 10.5t-20 27.5q-17 5 -27.5 20t-10.5 33q0 23 16 39t39 16h265q18 0 32.5 -10.5t19.5 -27.5
q17 -5 27.5 -19.5t10.5 -32.5q0 -23 -16 -39.5t-39 -16.5h-42q-14 0 -24.5 -10.5t-10.5 -24.5v-428h42q18 0 32.5 -10.5t19.5 -27.5q17 -5 27.5 -20t10.5 -33q0 -23 -16 -39t-39 -16h-265zM453 0q19 0 32 13t13 32t-13 32.5t-32 13.5h-42q-19 0 -32 13t-13 32v428
q0 19 13 32t32 13h42q19 0 32 13.5t13 32.5t-13 32t-32 13h-265q-19 0 -32 -13t-13 -32t13 -32.5t32 -13.5h42q19 0 32 -13t13 -32v-428q0 -19 -13 -32t-32 -13h-42q-19 0 -32 -13.5t-13 -32.5t13 -32t32 -13h265z" />
    <glyph glyph-name="icircumflex" unicode="&#xee;" 
d="M483 850q8 -8 11 -17.5t3 -18.5q0 -22 -13.5 -35.5t-35.5 -13.5q-18 0 -32 11q-12 9 -23 22l-2 2l-5 6q-4 4 -6 5l-2 2l-5 4l-2 2q-8 5 -16 5t-19 -8q-1 -1 -4.5 -4t-7 -6.5l-6.5 -6.5t-3 -4l-6 -6q0 -1 -2 -3t-3 -2l-6 -6q-16 -13 -36 -13q-17 0 -30.5 10t-17.5 27
q-16 4 -26.5 17t-10.5 30q0 10 3.5 19.5t11.5 16.5l93 92q15 15 35 15t35 -15l93 -92q1 -1 1.5 -2t1.5 -2zM292 857q11 12 28 12q16 0 28 -12l36 -36q11 -11 29 -11q17 0 28 11t11 28q0 18 -11 29l-93 92q-12 12 -28 12q-17 0 -28 -12l-93 -92q-12 -12 -12 -29t11.5 -28
t28.5 -11q18 0 28 11zM223 -45q-18 0 -32.5 10.5t-19.5 27.5q-17 5 -27.5 19.5t-10.5 32.5q0 23 16 39.5t39 16.5h42q14 0 24.5 10.5t10.5 24.5v428h-42q-18 0 -32 10.5t-20 27.5q-17 5 -27.5 20t-10.5 33q0 23 16 39t39 16h265q18 0 32.5 -10.5t19.5 -27.5
q17 -5 27.5 -19.5t10.5 -32.5q0 -23 -16 -39.5t-39 -16.5h-42q-14 0 -24.5 -10.5t-10.5 -24.5v-428h42q18 0 32.5 -10.5t19.5 -27.5q17 -5 27.5 -20t10.5 -33q0 -23 -16 -39t-39 -16h-265zM453 0q19 0 32 13t13 32t-13 32.5t-32 13.5h-42q-19 0 -32 13t-13 32v428
q0 19 13 32t32 13h42q19 0 32 13.5t13 32.5t-13 32t-32 13h-265q-19 0 -32 -13t-13 -32t13 -32.5t32 -13.5h42q19 0 32 -13t13 -32v-428q0 -19 -13 -32t-32 -13h-42q-19 0 -32 -13.5t-13 -32.5t13 -32t32 -13h265z" />
    <glyph glyph-name="idieresis" unicode="&#xef;" 
d="M258 775q-18 0 -32.5 10.5t-19.5 27.5q-17 5 -27.5 19.5t-10.5 32.5v20q0 23 16 39t39 16h20q18 0 32.5 -10.5t19.5 -27.5q17 -5 27.5 -19.5t10.5 -32.5v-20q0 -23 -16 -39t-39 -16h-20zM433 775q-18 0 -32.5 10.5t-19.5 27.5q-17 5 -27.5 19.5t-10.5 32.5v20q0 23 16 39
t39 16h20q18 0 32.5 -10.5t19.5 -27.5q17 -5 27.5 -19.5t10.5 -32.5v-20q0 -23 -16 -39t-39 -16h-20zM418 820q19 0 32 13t13 32v20q0 19 -13 32t-32 13h-20q-19 0 -32 -13t-13 -32v-20q0 -19 13 -32t32 -13h20zM243 820q19 0 32 13t13 32v20q0 19 -13 32t-32 13h-20
q-19 0 -32 -13t-13 -32v-20q0 -19 13 -32t32 -13h20zM223 -45q-18 0 -32.5 10.5t-19.5 27.5q-17 5 -27.5 19.5t-10.5 32.5q0 23 16 39.5t39 16.5h42q14 0 24.5 10.5t10.5 24.5v428h-42q-18 0 -32 10.5t-20 27.5q-17 5 -27.5 20t-10.5 33q0 23 16 39t39 16h265
q18 0 32.5 -10.5t19.5 -27.5q17 -5 27.5 -19.5t10.5 -32.5q0 -23 -16 -39.5t-39 -16.5h-42q-14 0 -24.5 -10.5t-10.5 -24.5v-428h42q18 0 32.5 -10.5t19.5 -27.5q17 -5 27.5 -20t10.5 -33q0 -23 -16 -39t-39 -16h-265zM453 0q19 0 32 13t13 32t-13 32.5t-32 13.5h-42
q-19 0 -32 13t-13 32v428q0 19 13 32t32 13h42q19 0 32 13.5t13 32.5t-13 32t-32 13h-265q-19 0 -32 -13t-13 -32t13 -32.5t32 -13.5h42q19 0 32 -13t13 -32v-428q0 -19 -13 -32t-32 -13h-42q-19 0 -32 -13.5t-13 -32.5t13 -32t32 -13h265z" />
    <glyph glyph-name="eth" unicode="&#xf0;" 
d="M88 264q-11 5 -20 13t-13 22q-16 5 -26.5 17t-10.5 35q0 16 6 26.5t15 17t20.5 9t23.5 2.5q5 0 5 5v244q0 23 16 39t39 16h250q23 0 39 -16l139 -140q17 -17 17 -39v-400q0 -13 -4.5 -22t-12.5 -17l-104 -105q-15 -16 -39 -16h-250q-18 0 -32.5 10.5t-19.5 27.5
q-17 5 -27.5 19.5t-10.5 32.5v219zM98 411q0 -15 -15 -15h-10q-19 0 -32 -13t-13 -32q0 -20 13 -33t32 -13h10q15 0 15 -15v-245q0 -19 13 -32t32 -13h250q19 0 32 13l104 105q14 12 14 32v400q0 20 -14 32l-104 105q-13 13 -32 13h-250q-19 0 -32 -13t-13 -32v-244z
M189 290q0 15 15 15h139q19 0 32 13t13 33q0 19 -13 32t-32 13h-139q-15 0 -15 15v153q0 19 13 32t32 13h125q15 0 25 -10l58 -58q10 -10 10 -25v-332q0 -15 -10 -25l-58 -58q-10 -10 -25 -10h-125q-19 0 -32 13t-13 32v154zM412 557q-7 7 -18 7h-125q-14 0 -24.5 -10.5
t-10.5 -24.5v-123h109q18 0 32.5 -10.5t19.5 -27.5q17 -5 27.5 -19.5t10.5 -32.5q0 -23 -15.5 -39.5t-39.5 -16.5h-139q-5 0 -5 -5v-154h125q11 0 18 7l58 58q7 7 7 18v332q0 11 -7 18z" />
    <glyph glyph-name="ntilde" unicode="&#xf1;" 
d="M281 857v-20q0 -20 -14 -34t-34 -14q-17 0 -29 10.5t-16 25.5q-17 4 -27 17t-10 30v50q0 17 13 30l40 40q13 13 30 13h50q18 0 31 -13l79 -79v20q0 20 14.5 33.5t33.5 13.5q17 0 29.5 -10.5t16.5 -26.5q15 -3 25.5 -15.5t10.5 -29.5v-50q0 -19 -12 -31l-41 -40
q-6 -5 -13 -8.5t-17 -3.5h-50q-19 0 -31 13zM251 920h16l16 -16v-21q0 -14 9 -23l40 -40q10 -10 24 -10h50q16 0 23 10l41 40q9 9 9 23v50q0 15 -11 26t-26 11q-16 0 -27 -11t-11 -26v-33l-15 -15h-16l-16 15v22q0 13 -9 23l-40 40q-10 10 -24 10h-50q-13 0 -23 -10l-40 -40
q-10 -10 -10 -23v-50q0 -16 11 -27t26 -11q16 0 27 11t11 27v32zM550 672q17 -5 27.5 -19.5t10.5 -32.5v-610q0 -23 -16 -39t-39 -16q-32 0 -48 28l-7 10q-17 7 -29 25l-215 370v-378q0 -23 -16.5 -39t-39.5 -16q-18 0 -32.5 10.5t-19.5 27.5q-17 5 -27.5 19.5t-10.5 32.5
v610q0 23 16 39t39 16q15 0 28 -7.5t21 -20.5l6 -11q17 -6 29 -24l215 -370v378q0 23 16.5 39t39.5 16q18 0 32.5 -10.5t19.5 -27.5zM183 677q-14 23 -40 23q-19 0 -32 -13t-13 -32v-610q0 -19 13 -32t32 -13t32.5 13t13.5 32v427q0 7 2 7q3 0 5 -5l262 -451q14 -23 40 -23
q19 0 32 13t13 32v610q0 19 -13 32t-32 13t-32.5 -13t-13.5 -32v-426q0 -7 -2 -7t-5 5z" />
    <glyph glyph-name="ograve" unicode="&#xf2;" 
d="M350 944q1 -1 2 -1.5t2 -1.5l81 -82q17 -17 17 -39q0 -23 -16.5 -39t-39.5 -16t-39 16l-117 117q-16 15 -16 39q0 23 16 39t39 16q24 0 40 -16zM329 823q13 -13 32 -13t32.5 13t13.5 32q0 18 -14 32l-81 82q-13 13 -33 13q-19 0 -32 -13t-13 -32t13 -32zM588 94
q0 -24 -16 -39l-84 -83q-17 -17 -40 -17h-186q-22 0 -39 17l-84 83q-1 1 -1.5 2t-1.5 2l-32 31q-16 16 -16 39v442q0 23 16 39l84 83q17 17 39 17h186q23 0 40 -17l119 -118q16 -16 16 -39v-442zM446 686q-12 14 -33 14h-186q-20 0 -32 -14l-84 -83q-13 -13 -13 -32v-442
q0 -19 13 -32l84 -83q12 -14 32 -14h186q21 0 33 14l84 83q13 13 13 32v442q0 19 -13 32zM405 101q-10 -10 -25 -10h-119q-15 0 -25 10l-37 37q-10 10 -10 25v374q0 15 10 25l37 37q10 10 25 10h119q15 0 25 -10l37 -37q10 -10 10 -25v-374q0 -15 -10 -25zM433 557
q-7 7 -18 7h-119q-10 0 -18 -7l-37 -37q-7 -8 -7 -18v-374q0 -11 7 -18l2 -2q7 -7 18 -7h119q11 0 18 7l37 37q7 7 7 18v374q0 11 -7 18z" />
    <glyph glyph-name="oacute" unicode="&#xf3;" 
d="M414 954q17 -6 27.5 -20t10.5 -32q0 -24 -17 -39l-81 -82q-15 -16 -39 -16q-18 0 -33 10.5t-20 27.5q-17 5 -27.5 19.5t-10.5 32.5q0 22 17 39l81 82q16 16 39 16q18 0 33 -10.5t20 -27.5zM393 905q14 12 14 32q0 19 -13.5 32t-32.5 13t-32 -13l-81 -82q-14 -14 -14 -32
q0 -19 13.5 -32t32.5 -13t32 13zM588 94q0 -24 -16 -39l-84 -83q-17 -17 -40 -17h-186q-22 0 -39 17l-84 83q-1 1 -1.5 2t-1.5 2l-32 31q-16 16 -16 39v442q0 23 16 39l84 83q17 17 39 17h186q23 0 40 -17l119 -118q16 -16 16 -39v-442zM446 686q-12 14 -33 14h-186
q-20 0 -32 -14l-84 -83q-13 -13 -13 -32v-442q0 -19 13 -32l84 -83q12 -14 32 -14h186q21 0 33 14l84 83q13 13 13 32v442q0 19 -13 32zM405 101q-10 -10 -25 -10h-119q-15 0 -25 10l-37 37q-10 10 -10 25v374q0 15 10 25l37 37q10 10 25 10h119q15 0 25 -10l37 -37
q10 -10 10 -25v-374q0 -15 -10 -25zM433 557q-7 7 -18 7h-119q-10 0 -18 -7l-37 -37q-7 -8 -7 -18v-374q0 -11 7 -18l2 -2q7 -7 18 -7h119q11 0 18 7l37 37q7 7 7 18v374q0 11 -7 18z" />
    <glyph glyph-name="ocircumflex" unicode="&#xf4;" 
d="M483 850q8 -8 11 -17.5t3 -18.5q0 -22 -13.5 -35.5t-35.5 -13.5q-18 0 -32 11q-12 9 -23 22l-2 2l-5 6q-4 4 -6 5l-2 2l-5 4l-2 2q-8 5 -16 5t-19 -8q-1 -1 -4.5 -4t-7 -6.5l-6.5 -6.5t-3 -4l-6 -6q0 -1 -2 -3t-3 -2l-6 -6q-16 -13 -36 -13q-17 0 -30.5 10t-17.5 27
q-16 4 -26.5 17t-10.5 30q0 10 3.5 19.5t11.5 16.5l93 92q15 15 35 15t35 -15l93 -92q1 -1 1.5 -2t1.5 -2zM292 857q11 12 28 12q16 0 28 -12l36 -36q11 -11 29 -11q17 0 28 11t11 28q0 18 -11 29l-93 92q-12 12 -28 12q-17 0 -28 -12l-93 -92q-12 -12 -12 -29t11.5 -28
t28.5 -11q18 0 28 11zM588 94q0 -24 -16 -39l-84 -83q-17 -17 -40 -17h-186q-22 0 -39 17l-84 83q-1 1 -1.5 2t-1.5 2l-32 31q-16 16 -16 39v442q0 23 16 39l84 83q17 17 39 17h186q23 0 40 -17l119 -118q16 -16 16 -39v-442zM446 686q-12 14 -33 14h-186q-20 0 -32 -14
l-84 -83q-13 -13 -13 -32v-442q0 -19 13 -32l84 -83q12 -14 32 -14h186q21 0 33 14l84 83q13 13 13 32v442q0 19 -13 32zM405 101q-10 -10 -25 -10h-119q-15 0 -25 10l-37 37q-10 10 -10 25v374q0 15 10 25l37 37q10 10 25 10h119q15 0 25 -10l37 -37q10 -10 10 -25v-374
q0 -15 -10 -25zM433 557q-7 7 -18 7h-119q-10 0 -18 -7l-37 -37q-7 -8 -7 -18v-374q0 -11 7 -18l2 -2q7 -7 18 -7h119q11 0 18 7l37 37q7 7 7 18v374q0 11 -7 18z" />
    <glyph glyph-name="otilde" unicode="&#xf5;" 
d="M281 857v-20q0 -20 -14 -34t-34 -14q-17 0 -29 10.5t-16 25.5q-17 4 -27 17t-10 30v50q0 17 13 30l40 40q13 13 30 13h50q18 0 31 -13l79 -79v20q0 20 14.5 33.5t33.5 13.5q17 0 29.5 -10.5t16.5 -26.5q15 -3 25.5 -15.5t10.5 -29.5v-50q0 -19 -12 -31l-41 -40
q-6 -5 -13 -8.5t-17 -3.5h-50q-19 0 -31 13zM251 920h16l16 -16v-21q0 -14 9 -23l40 -40q10 -10 24 -10h50q16 0 23 10l41 40q9 9 9 23v50q0 15 -11 26t-26 11q-16 0 -27 -11t-11 -26v-33l-15 -15h-16l-16 15v22q0 13 -9 23l-40 40q-10 10 -24 10h-50q-13 0 -23 -10l-40 -40
q-10 -10 -10 -23v-50q0 -16 11 -27t26 -11q16 0 27 11t11 27v32zM588 94q0 -24 -16 -39l-84 -83q-17 -17 -40 -17h-186q-22 0 -39 17l-84 83q-1 1 -1.5 2t-1.5 2l-32 31q-16 16 -16 39v442q0 23 16 39l84 83q17 17 39 17h186q23 0 40 -17l119 -118q16 -16 16 -39v-442z
M446 686q-12 14 -33 14h-186q-20 0 -32 -14l-84 -83q-13 -13 -13 -32v-442q0 -19 13 -32l84 -83q12 -14 32 -14h186q21 0 33 14l84 83q13 13 13 32v442q0 19 -13 32zM405 101q-10 -10 -25 -10h-119q-15 0 -25 10l-37 37q-10 10 -10 25v374q0 15 10 25l37 37q10 10 25 10h119
q15 0 25 -10l37 -37q10 -10 10 -25v-374q0 -15 -10 -25zM433 557q-7 7 -18 7h-119q-10 0 -18 -7l-37 -37q-7 -8 -7 -18v-374q0 -11 7 -18l2 -2q7 -7 18 -7h119q11 0 18 7l37 37q7 7 7 18v374q0 11 -7 18z" />
    <glyph glyph-name="odieresis" unicode="&#xf6;" 
d="M258 775q-18 0 -32.5 10.5t-19.5 27.5q-17 5 -27.5 19.5t-10.5 32.5v20q0 23 16 39t39 16h20q18 0 32.5 -10.5t19.5 -27.5q17 -5 27.5 -19.5t10.5 -32.5v-20q0 -23 -16 -39t-39 -16h-20zM433 775q-18 0 -32.5 10.5t-19.5 27.5q-17 5 -27.5 19.5t-10.5 32.5v20q0 23 16 39
t39 16h20q18 0 32.5 -10.5t19.5 -27.5q17 -5 27.5 -19.5t10.5 -32.5v-20q0 -23 -16 -39t-39 -16h-20zM418 820q19 0 32 13t13 32v20q0 19 -13 32t-32 13h-20q-19 0 -32 -13t-13 -32v-20q0 -19 13 -32t32 -13h20zM243 820q19 0 32 13t13 32v20q0 19 -13 32t-32 13h-20
q-19 0 -32 -13t-13 -32v-20q0 -19 13 -32t32 -13h20zM588 94q0 -24 -16 -39l-84 -83q-17 -17 -40 -17h-186q-22 0 -39 17l-84 83q-1 1 -1.5 2t-1.5 2l-32 31q-16 16 -16 39v442q0 23 16 39l84 83q17 17 39 17h186q23 0 40 -17l119 -118q16 -16 16 -39v-442zM446 686
q-12 14 -33 14h-186q-20 0 -32 -14l-84 -83q-13 -13 -13 -32v-442q0 -19 13 -32l84 -83q12 -14 32 -14h186q21 0 33 14l84 83q13 13 13 32v442q0 19 -13 32zM405 101q-10 -10 -25 -10h-119q-15 0 -25 10l-37 37q-10 10 -10 25v374q0 15 10 25l37 37q10 10 25 10h119
q15 0 25 -10l37 -37q10 -10 10 -25v-374q0 -15 -10 -25zM433 557q-7 7 -18 7h-119q-10 0 -18 -7l-37 -37q-7 -8 -7 -18v-374q0 -11 7 -18l2 -2q7 -7 18 -7h119q11 0 18 7l37 37q7 7 7 18v374q0 11 -7 18z" />
    <glyph glyph-name="divide" unicode="&#xf7;" 
d="M335 410q-18 0 -32.5 10.5t-19.5 27.5q-17 5 -27.5 19.5t-10.5 32.5v40q0 23 16 39t39 16h40q18 0 32.5 -10.5t19.5 -27.5q17 -5 27.5 -19.5t10.5 -32.5v-40q0 -23 -16 -39t-39 -16h-40zM340 455q19 0 32 13t13 32v40q0 19 -13 32t-32 13h-40q-19 0 -32 -13t-13 -32v-40
q0 -19 13 -32t32 -13h40zM530 368q17 -5 27.5 -19.5t10.5 -32.5q0 -23 -15.5 -39.5t-39.5 -16.5h-315q-19 0 -33 10.5t-19 27.5q-17 5 -27.5 19.5t-10.5 33.5q0 23 16 39t39 16h315q18 0 32.5 -10.5t19.5 -27.5zM163 396q-19 0 -32 -13t-13 -32q0 -20 13 -33t32 -13h315
q19 0 32 13t13 33q0 19 -13 32t-32 13h-315zM335 70q-18 0 -32.5 10.5t-19.5 27.5q-17 5 -27.5 19.5t-10.5 32.5v40q0 23 16 39t39 16h40q18 0 32.5 -10.5t19.5 -27.5q17 -5 27.5 -19.5t10.5 -32.5v-40q0 -23 -16 -39t-39 -16h-40zM340 115q19 0 32 13t13 32v40q0 19 -13 32
t-32 13h-40q-19 0 -32 -13t-13 -32v-40q0 -19 13 -32t32 -13h40z" />
    <glyph glyph-name="oslash" unicode="&#xf8;" 
d="M655 560q0 -21 -12 -35.5t-25 -25.5l-3 -3l-6 -5l-3 -3q-3 -4 -9 -10q-9 -10 -9 -20v-363q0 -25 -17 -40l-84 -83q-8 -8 -17 -12.5t-22 -4.5h-186q-22 0 -39 17l-63 62q-2 2 -4 2q0 -1 -1 -2q-2 -1 -4 -3t-5 -4q-5 -5 -13.5 -8.5t-22.5 -3.5q-18 0 -32.5 10.5t-19.5 27.5
q-17 5 -27.5 19.5t-10.5 32.5q0 22 12.5 36t24.5 25l3 3l6 5l3 3l10 10q8 11 8 20v364q0 22 17 39l84 83q8 8 17 12.5t22 4.5h186q13 0 22 -4.5t17 -12.5l63 -62q2 -2 4 -2q1 0 2 1q6 6 8 7q6 5 14.5 9t21.5 4q18 0 32.5 -10.5t19.5 -27.5q17 -5 27.5 -19.5t10.5 -32.5z
M529 624q-5 -5 -10 -5q-6 0 -11 5l-63 62q-12 14 -32 14h-186q-20 0 -32 -14l-84 -83q-14 -14 -14 -32v-364q0 -15 -11 -26l-43 -43q-13 -13 -13 -33q0 -19 13 -32t32 -13q20 0 33 13l3 3q5 5 10 5q6 0 11 -5l63 -62q12 -14 32 -14h186q20 0 32 14l84 83q14 14 14 33v363
q0 15 11 26l43 44q13 12 13 32q0 19 -13 32t-32 13q-20 0 -33 -13zM235 598q11 11 26 11h118q15 0 26 -11l40 -39q3 -3 3 -8q0 -9 -7 -16l-242 -241q-4 -4 -7 -4q-4 0 -4 8v239q0 15 11 26zM433 555q-9 9 -19 9h-118q-10 0 -19 -9l-36 -35q-3 -3 -5.5 -8t-2.5 -10v-160
l201 200q4 4 4 9zM405 102q-11 -11 -26 -11h-118q-15 0 -26 11l-40 39q-3 3 -3 8q0 9 7 16l242 241q4 4 7 4q4 0 4 -8v-239q0 -15 -11 -26zM442 322l-201 -199q-4 -5 -4 -9l5 -5q8 -8 19 -8h118q11 0 19 8l36 35q8 8 8 19v159z" />
    <glyph glyph-name="ugrave" unicode="&#xf9;" 
d="M350 944q1 -1 2 -1.5t2 -1.5l81 -82q17 -17 17 -39q0 -23 -16.5 -39t-39.5 -16t-39 16l-117 117q-16 15 -16 39q0 23 16 39t39 16q24 0 40 -16zM329 823q13 -13 32 -13t32.5 13t13.5 32q0 18 -14 32l-81 82q-13 13 -33 13q-19 0 -32 -13t-13 -32t13 -32zM550 672
q17 -5 27.5 -19.5t10.5 -32.5v-526q0 -24 -16 -39l-84 -83q-17 -17 -40 -17h-186q-22 0 -39 17l-84 83q-1 1 -1.5 2t-1.5 2l-32 31q-16 16 -16 39v526q0 23 16 39t39 16q18 0 33 -10.5t20 -27.5q17 -6 27.5 -20t10.5 -32v-492q0 -11 7 -18l2 -2q7 -7 18 -7h119q11 0 18 7
l37 37q7 7 7 18v492q0 23 16.5 39t39.5 16q18 0 32.5 -10.5t19.5 -27.5zM189 655q0 19 -13.5 32t-32.5 13t-32 -13t-13 -32v-526q0 -19 13 -32l84 -83q12 -14 32 -14h186q21 0 33 14l84 83q13 13 13 32v526q0 19 -13 32t-32 13t-32.5 -13t-13.5 -32v-492q0 -15 -10 -25
l-37 -37q-10 -10 -25 -10h-119q-15 0 -25 10l-37 37q-10 10 -10 25v492z" />
    <glyph glyph-name="uacute" unicode="&#xfa;" 
d="M414 954q17 -6 27.5 -20t10.5 -32q0 -24 -17 -39l-81 -82q-15 -16 -39 -16q-18 0 -33 10.5t-20 27.5q-17 5 -27.5 19.5t-10.5 32.5q0 22 17 39l81 82q16 16 39 16q18 0 33 -10.5t20 -27.5zM393 905q14 12 14 32q0 19 -13.5 32t-32.5 13t-32 -13l-81 -82q-14 -14 -14 -32
q0 -19 13.5 -32t32.5 -13t32 13zM550 672q17 -5 27.5 -19.5t10.5 -32.5v-526q0 -24 -16 -39l-84 -83q-17 -17 -40 -17h-186q-22 0 -39 17l-84 83q-1 1 -1.5 2t-1.5 2l-32 31q-16 16 -16 39v526q0 23 16 39t39 16q18 0 33 -10.5t20 -27.5q17 -6 27.5 -20t10.5 -32v-492
q0 -11 7 -18l2 -2q7 -7 18 -7h119q11 0 18 7l37 37q7 7 7 18v492q0 23 16.5 39t39.5 16q18 0 32.5 -10.5t19.5 -27.5zM189 655q0 19 -13.5 32t-32.5 13t-32 -13t-13 -32v-526q0 -19 13 -32l84 -83q12 -14 32 -14h186q21 0 33 14l84 83q13 13 13 32v526q0 19 -13 32t-32 13
t-32.5 -13t-13.5 -32v-492q0 -15 -10 -25l-37 -37q-10 -10 -25 -10h-119q-15 0 -25 10l-37 37q-10 10 -10 25v492z" />
    <glyph glyph-name="ucircumflex" unicode="&#xfb;" 
d="M483 850q8 -8 11 -17.5t3 -18.5q0 -22 -13.5 -35.5t-35.5 -13.5q-18 0 -32 11q-12 9 -23 22l-2 2l-5 6q-4 4 -6 5l-2 2l-5 4l-2 2q-8 5 -16 5t-19 -8q-1 -1 -4.5 -4t-7 -6.5l-6.5 -6.5t-3 -4l-6 -6q0 -1 -2 -3t-3 -2l-6 -6q-16 -13 -36 -13q-17 0 -30.5 10t-17.5 27
q-16 4 -26.5 17t-10.5 30q0 10 3.5 19.5t11.5 16.5l93 92q15 15 35 15t35 -15l93 -92q1 -1 1.5 -2t1.5 -2zM292 857q11 12 28 12q16 0 28 -12l36 -36q11 -11 29 -11q17 0 28 11t11 28q0 18 -11 29l-93 92q-12 12 -28 12q-17 0 -28 -12l-93 -92q-12 -12 -12 -29t11.5 -28
t28.5 -11q18 0 28 11zM550 672q17 -5 27.5 -19.5t10.5 -32.5v-526q0 -24 -16 -39l-84 -83q-17 -17 -40 -17h-186q-22 0 -39 17l-84 83q-1 1 -1.5 2t-1.5 2l-32 31q-16 16 -16 39v526q0 23 16 39t39 16q18 0 33 -10.5t20 -27.5q17 -6 27.5 -20t10.5 -32v-492q0 -11 7 -18
l2 -2q7 -7 18 -7h119q11 0 18 7l37 37q7 7 7 18v492q0 23 16.5 39t39.5 16q18 0 32.5 -10.5t19.5 -27.5zM189 655q0 19 -13.5 32t-32.5 13t-32 -13t-13 -32v-526q0 -19 13 -32l84 -83q12 -14 32 -14h186q21 0 33 14l84 83q13 13 13 32v526q0 19 -13 32t-32 13t-32.5 -13
t-13.5 -32v-492q0 -15 -10 -25l-37 -37q-10 -10 -25 -10h-119q-15 0 -25 10l-37 37q-10 10 -10 25v492z" />
    <glyph glyph-name="udieresis" unicode="&#xfc;" 
d="M258 775q-18 0 -32.5 10.5t-19.5 27.5q-17 5 -27.5 19.5t-10.5 32.5v20q0 23 16 39t39 16h20q18 0 32.5 -10.5t19.5 -27.5q17 -5 27.5 -19.5t10.5 -32.5v-20q0 -23 -16 -39t-39 -16h-20zM433 775q-18 0 -32.5 10.5t-19.5 27.5q-17 5 -27.5 19.5t-10.5 32.5v20q0 23 16 39
t39 16h20q18 0 32.5 -10.5t19.5 -27.5q17 -5 27.5 -19.5t10.5 -32.5v-20q0 -23 -16 -39t-39 -16h-20zM418 820q19 0 32 13t13 32v20q0 19 -13 32t-32 13h-20q-19 0 -32 -13t-13 -32v-20q0 -19 13 -32t32 -13h20zM243 820q19 0 32 13t13 32v20q0 19 -13 32t-32 13h-20
q-19 0 -32 -13t-13 -32v-20q0 -19 13 -32t32 -13h20zM550 672q17 -5 27.5 -19.5t10.5 -32.5v-526q0 -24 -16 -39l-84 -83q-17 -17 -40 -17h-186q-22 0 -39 17l-84 83q-1 1 -1.5 2t-1.5 2l-32 31q-16 16 -16 39v526q0 23 16 39t39 16q18 0 33 -10.5t20 -27.5q17 -6 27.5 -20
t10.5 -32v-492q0 -11 7 -18l2 -2q7 -7 18 -7h119q11 0 18 7l37 37q7 7 7 18v492q0 23 16.5 39t39.5 16q18 0 32.5 -10.5t19.5 -27.5zM189 655q0 19 -13.5 32t-32.5 13t-32 -13t-13 -32v-526q0 -19 13 -32l84 -83q12 -14 32 -14h186q21 0 33 14l84 83q13 13 13 32v526
q0 19 -13 32t-32 13t-32.5 -13t-13.5 -32v-492q0 -15 -10 -25l-37 -37q-10 -10 -25 -10h-119q-15 0 -25 10l-37 37q-10 10 -10 25v492z" />
    <glyph glyph-name="yacute" unicode="&#xfd;" 
d="M414 954q17 -6 27.5 -20t10.5 -32q0 -24 -17 -39l-81 -82q-15 -16 -39 -16q-18 0 -33 10.5t-20 27.5q-17 5 -27.5 19.5t-10.5 32.5q0 22 17 39l81 82q16 16 39 16q18 0 33 -10.5t20 -27.5zM393 905q14 12 14 32q0 19 -13.5 32t-32.5 13t-32 -13l-81 -82q-14 -14 -14 -32
q0 -19 13.5 -32t32.5 -13t32 13zM196 672q17 -6 27.5 -20t10.5 -32v-135q0 -11 7 -18l57 -58q10 -7 22 -7q15 0 26 10l89 90q7 7 7 18v135q0 23 16.5 39t39.5 16q18 0 32.5 -10.5t19.5 -27.5q17 -5 27.5 -19.5t10.5 -32.5v-169q0 -25 -17 -40l-153 -153q-7 -8 -7 -18v-230
q0 -24 -16.5 -39.5t-39.5 -15.5q-18 0 -32.5 10.5t-19.5 27.5q-17 5 -27.5 19.5t-10.5 32.5v230q0 11 -7 18l-153 153q-17 17 -17 40v169q0 23 16 39t39 16q18 0 33 -10.5t20 -27.5zM265 300q10 -10 10 -25v-230q0 -19 13 -32t32 -13q20 0 33 13t13 32v230q0 15 10 25
l153 153q14 14 14 33v169q0 19 -13 32t-32 13t-32.5 -13t-13.5 -32v-135q0 -15 -10 -25l-89 -90q-13 -13 -33 -13q-19 0 -32 13l-89 90q-10 10 -10 25v135q0 19 -13.5 32t-32.5 13t-32 -13t-13 -32v-169q0 -19 14 -33z" />
    <glyph glyph-name="thorn" unicode="&#xfe;" 
d="M196 746q17 -5 27.5 -19t10.5 -33v-84h159q23 0 39 -16l139 -140q17 -17 17 -39v-200q0 -13 -4.5 -22t-12.5 -17l-104 -105q-15 -16 -39 -16h-159q-14 0 -24.5 -10.5t-10.5 -24.5v-84q0 -24 -16.5 -39.5t-39.5 -15.5q-18 0 -32.5 10.5t-19.5 27.5q-17 5 -27.5 19.5
t-10.5 32.5v758q0 23 16 39t39 16q19 0 33.5 -10.5t19.5 -27.5zM98 -29q0 -19 13 -32t32 -13q20 0 33 13t13 32v84q0 19 13 32t32 13h159q19 0 32 13l104 105q14 12 14 32v200q0 20 -14 32l-104 105q-13 13 -32 13h-159q-19 0 -32 13t-13 32v84q0 19 -13 32t-33 13
q-19 0 -32 -13t-13 -32v-758zM452 284q0 -15 -10 -25l-58 -58q-10 -10 -25 -10h-125q-19 0 -32 13t-13 32v228q0 19 13 32t32 13h125q15 0 25 -10l58 -58q10 -10 10 -25v-132zM412 457q-7 7 -18 7h-125q-14 0 -24.5 -10.5t-10.5 -24.5v-228h125q11 0 18 7l58 58q7 7 7 18
v132q0 11 -7 18z" />
    <glyph glyph-name="ydieresis" unicode="&#xff;" 
d="M258 775q-18 0 -32.5 10.5t-19.5 27.5q-17 5 -27.5 19.5t-10.5 32.5v20q0 23 16 39t39 16h20q18 0 32.5 -10.5t19.5 -27.5q17 -5 27.5 -19.5t10.5 -32.5v-20q0 -23 -16 -39t-39 -16h-20zM433 775q-18 0 -32.5 10.5t-19.5 27.5q-17 5 -27.5 19.5t-10.5 32.5v20q0 23 16 39
t39 16h20q18 0 32.5 -10.5t19.5 -27.5q17 -5 27.5 -19.5t10.5 -32.5v-20q0 -23 -16 -39t-39 -16h-20zM418 820q19 0 32 13t13 32v20q0 19 -13 32t-32 13h-20q-19 0 -32 -13t-13 -32v-20q0 -19 13 -32t32 -13h20zM243 820q19 0 32 13t13 32v20q0 19 -13 32t-32 13h-20
q-19 0 -32 -13t-13 -32v-20q0 -19 13 -32t32 -13h20zM196 672q17 -6 27.5 -20t10.5 -32v-135q0 -11 7 -18l57 -58q10 -7 22 -7q15 0 26 10l89 90q7 7 7 18v135q0 23 16.5 39t39.5 16q18 0 32.5 -10.5t19.5 -27.5q17 -5 27.5 -19.5t10.5 -32.5v-169q0 -25 -17 -40l-153 -153
q-7 -8 -7 -18v-230q0 -24 -16.5 -39.5t-39.5 -15.5q-18 0 -32.5 10.5t-19.5 27.5q-17 5 -27.5 19.5t-10.5 32.5v230q0 11 -7 18l-153 153q-17 17 -17 40v169q0 23 16 39t39 16q18 0 33 -10.5t20 -27.5zM265 300q10 -10 10 -25v-230q0 -19 13 -32t32 -13q20 0 33 13t13 32
v230q0 15 10 25l153 153q14 14 14 33v169q0 19 -13 32t-32 13t-32.5 -13t-13.5 -32v-135q0 -15 -10 -25l-89 -90q-13 -13 -33 -13q-19 0 -32 13l-89 90q-10 10 -10 25v135q0 19 -13.5 32t-32.5 13t-32 -13t-13 -32v-169q0 -19 14 -33z" />
    <glyph glyph-name="Amacron" unicode="&#x100;" 
d="M261 775q-18 0 -32.5 10.5t-19.5 27.5q-17 5 -27.5 19.5t-10.5 32.5q0 23 16 39.5t39 16.5h189q18 0 32.5 -10.5t19.5 -27.5q17 -5 27.5 -20t10.5 -33q0 -23 -16 -39t-39 -16h-189zM415 820q19 0 32 13t13 32t-13 32.5t-32 13.5h-189q-19 0 -32 -13.5t-13 -32.5t13 -32
t32 -13h189zM588 10q0 -23 -16 -39t-39 -16q-18 0 -33 10.5t-20 27.5q-17 5 -27.5 19.5t-10.5 32.5v192h-173q-14 0 -24.5 -10.5t-10.5 -24.5v-192q0 -23 -16.5 -39t-39.5 -16q-18 0 -32.5 10.5t-19.5 27.5q-17 5 -27.5 19.5t-10.5 32.5v505q0 23 16 39l105 104q8 8 17 12.5
t22 4.5h145q23 0 39 -16l139 -140q17 -17 17 -39v-505zM543 550q0 20 -14 32l-104 105q-13 13 -32 13h-145q-20 0 -32 -14l-105 -104q-13 -13 -13 -32v-505q0 -19 13 -32t32 -13t32.5 13t13.5 32v192q0 19 13 32t32 13h173q19 0 32 -13t13 -32v-192q0 -19 13.5 -32t32.5 -13
t32 13t13 32v505zM452 418q0 -19 -13 -32t-32 -13h-173q-19 0 -32 13t-13 32v98q0 15 10 25l58 58q10 10 25 10h77q15 0 25 -10l58 -58q10 -10 10 -25v-98zM412 557q-7 7 -18 7h-77q-10 0 -18 -7l-58 -58q-7 -8 -7 -18v-98h173q14 0 24.5 10.5t10.5 24.5v98q0 11 -7 18z" />
    <glyph glyph-name="amacron" unicode="&#x101;" 
d="M261 775q-18 0 -32.5 10.5t-19.5 27.5q-17 5 -27.5 19.5t-10.5 32.5q0 23 16 39.5t39 16.5h189q18 0 32.5 -10.5t19.5 -27.5q17 -5 27.5 -20t10.5 -33q0 -23 -16 -39t-39 -16h-189zM415 820q19 0 32 13t13 32t-13 32.5t-32 13.5h-189q-19 0 -32 -13.5t-13 -32.5t13 -32
t32 -13h189zM588 10q0 -23 -16 -39t-39 -16q-18 0 -33 10.5t-20 27.5q-17 5 -27.5 19.5t-10.5 32.5v192h-173q-14 0 -24.5 -10.5t-10.5 -24.5v-192q0 -23 -16.5 -39t-39.5 -16q-18 0 -32.5 10.5t-19.5 27.5q-17 5 -27.5 19.5t-10.5 32.5v505q0 23 16 39l105 104q8 8 17 12.5
t22 4.5h145q23 0 39 -16l139 -140q17 -17 17 -39v-505zM543 550q0 20 -14 32l-104 105q-13 13 -32 13h-145q-20 0 -32 -14l-105 -104q-13 -13 -13 -32v-505q0 -19 13 -32t32 -13t32.5 13t13.5 32v192q0 19 13 32t32 13h173q19 0 32 -13t13 -32v-192q0 -19 13.5 -32t32.5 -13
t32 13t13 32v505zM452 418q0 -19 -13 -32t-32 -13h-173q-19 0 -32 13t-13 32v98q0 15 10 25l58 58q10 10 25 10h77q15 0 25 -10l58 -58q10 -10 10 -25v-98zM412 557q-7 7 -18 7h-77q-10 0 -18 -7l-58 -58q-7 -8 -7 -18v-98h173q14 0 24.5 10.5t10.5 24.5v98q0 11 -7 18z" />
    <glyph glyph-name="Abreve" unicode="&#x102;" 
d="M456 955q16 -3 26 -15.5t10 -29.5v-42q0 -19 -12 -30l-60 -61q-6 -7 -14.5 -9.5t-16.5 -2.5h-69q-19 0 -31 12l-95 96q-12 12 -12 30v42q0 20 13.5 33.5t33.5 13.5q21 0 31 -11t14 -25q23 -4 30.5 -22.5t7.5 -38.5q2 -1 10 -1q11 0 18 7l16 16q5 5 6 11t1 17
q0 20 13.5 33.5t33.5 13.5q17 0 29.5 -10.5t16.5 -26.5zM266 945q0 15 -10.5 26t-26.5 11t-26.5 -11t-10.5 -26v-42q0 -14 9 -23l60 -61q9 -9 24 -9h69q15 0 24 9l60 61q9 9 9 23v42q0 15 -10.5 26t-26.5 11t-26.5 -11t-10.5 -26v-10q0 -15 -10 -25l-16 -16q-10 -10 -25 -10
h-5q-15 0 -25 10l-16 16q-10 10 -10 25v10zM588 10q0 -23 -16 -39t-39 -16q-18 0 -33 10.5t-20 27.5q-17 5 -27.5 19.5t-10.5 32.5v192h-173q-14 0 -24.5 -10.5t-10.5 -24.5v-192q0 -23 -16.5 -39t-39.5 -16q-18 0 -32.5 10.5t-19.5 27.5q-17 5 -27.5 19.5t-10.5 32.5v505
q0 23 16 39l105 104q8 8 17 12.5t22 4.5h145q23 0 39 -16l139 -140q17 -17 17 -39v-505zM543 550q0 20 -14 32l-104 105q-13 13 -32 13h-145q-20 0 -32 -14l-105 -104q-13 -13 -13 -32v-505q0 -19 13 -32t32 -13t32.5 13t13.5 32v192q0 19 13 32t32 13h173q19 0 32 -13
t13 -32v-192q0 -19 13.5 -32t32.5 -13t32 13t13 32v505zM452 418q0 -19 -13 -32t-32 -13h-173q-19 0 -32 13t-13 32v98q0 15 10 25l58 58q10 10 25 10h77q15 0 25 -10l58 -58q10 -10 10 -25v-98zM412 557q-7 7 -18 7h-77q-10 0 -18 -7l-58 -58q-7 -8 -7 -18v-98h173
q14 0 24.5 10.5t10.5 24.5v98q0 11 -7 18z" />
    <glyph glyph-name="abreve" unicode="&#x103;" 
d="M456 955q16 -3 26 -15.5t10 -29.5v-42q0 -19 -12 -30l-60 -61q-6 -7 -14.5 -9.5t-16.5 -2.5h-69q-19 0 -31 12l-95 96q-12 12 -12 30v42q0 20 13.5 33.5t33.5 13.5q21 0 31 -11t14 -25q23 -4 30.5 -22.5t7.5 -38.5q2 -1 10 -1q11 0 18 7l16 16q5 5 6 11t1 17
q0 20 13.5 33.5t33.5 13.5q17 0 29.5 -10.5t16.5 -26.5zM266 945q0 15 -10.5 26t-26.5 11t-26.5 -11t-10.5 -26v-42q0 -14 9 -23l60 -61q9 -9 24 -9h69q15 0 24 9l60 61q9 9 9 23v42q0 15 -10.5 26t-26.5 11t-26.5 -11t-10.5 -26v-10q0 -15 -10 -25l-16 -16q-10 -10 -25 -10
h-5q-15 0 -25 10l-16 16q-10 10 -10 25v10zM588 10q0 -23 -16 -39t-39 -16q-18 0 -33 10.5t-20 27.5q-17 5 -27.5 19.5t-10.5 32.5v192h-173q-14 0 -24.5 -10.5t-10.5 -24.5v-192q0 -23 -16.5 -39t-39.5 -16q-18 0 -32.5 10.5t-19.5 27.5q-17 5 -27.5 19.5t-10.5 32.5v505
q0 23 16 39l105 104q8 8 17 12.5t22 4.5h145q23 0 39 -16l139 -140q17 -17 17 -39v-505zM543 550q0 20 -14 32l-104 105q-13 13 -32 13h-145q-20 0 -32 -14l-105 -104q-13 -13 -13 -32v-505q0 -19 13 -32t32 -13t32.5 13t13.5 32v192q0 19 13 32t32 13h173q19 0 32 -13
t13 -32v-192q0 -19 13.5 -32t32.5 -13t32 13t13 32v505zM452 418q0 -19 -13 -32t-32 -13h-173q-19 0 -32 13t-13 32v98q0 15 10 25l58 58q10 10 25 10h77q15 0 25 -10l58 -58q10 -10 10 -25v-98zM412 557q-7 7 -18 7h-77q-10 0 -18 -7l-58 -58q-7 -8 -7 -18v-98h173
q14 0 24.5 10.5t10.5 24.5v98q0 11 -7 18z" />
    <glyph glyph-name="Aogonek" unicode="&#x104;" 
d="M588 -78q0 -19 -14 -36l-14 -14l-15 -12q-15 -12 -26 -25q-10 -13 -10 -22v-1h1q7 0 11.5 3t9.5 8q1 1 2.5 2t3.5 3q1 1 3 2t5 3q8 5 20 5q16 0 28.5 -10t14.5 -26q14 -2 24.5 -13.5t10.5 -27.5q0 -11 -5 -19.5t-11 -15.5q-3 -4 -6.5 -7t-6.5 -6q-4 -3 -6.5 -5t-4.5 -4
q-10 -12 -27 -12h-61q-9 0 -15 3t-12 9l-53 52q-1 1 -1.5 2t-1.5 2l-32 31q-11 11 -11 27v61q0 16 11 27l60 59q7 7 8 16v18q-26 17 -26 46v192h-173q-14 0 -24.5 -10.5t-10.5 -24.5v-192q0 -23 -16.5 -39t-39.5 -16q-18 0 -32.5 10.5t-19.5 27.5q-17 5 -27.5 19.5
t-10.5 32.5v505q0 23 16 39l105 104q8 8 17 12.5t22 4.5h145q23 0 39 -16l139 -140q17 -17 17 -39v-593zM543 550q0 20 -14 32l-104 105q-13 13 -32 13h-145q-20 0 -32 -14l-105 -104q-13 -13 -13 -32v-505q0 -19 13 -32t32 -13t32.5 13t13.5 32v192q0 19 13 32t32 13h173
q19 0 32 -13t13 -32v-192q0 -14 7.5 -24.5t18.5 -15.5v-21q0 -15 -11 -26l-60 -59q-8 -11 -8 -20v-61q0 -12 8 -20l53 -52q8 -9 20 -9h61q13 0 20 9l27 27q10 10 10 23q0 14 -9.5 23t-23.5 9t-23 -9l-6 -6q-11 -11 -26 -11t-26 11l-9 9q-11 11 -11 26t11 26l57 57
q11 11 11 26v593zM452 418q0 -19 -13 -32t-32 -13h-173q-19 0 -32 13t-13 32v98q0 15 10 25l58 58q10 10 25 10h77q15 0 25 -10l58 -58q10 -10 10 -25v-98zM412 557q-7 7 -18 7h-77q-10 0 -18 -7l-58 -58q-7 -8 -7 -18v-98h173q14 0 24.5 10.5t10.5 24.5v98q0 11 -7 18z" />
    <glyph glyph-name="aogonek" unicode="&#x105;" 
d="M588 -78q0 -19 -14 -36l-14 -14l-15 -12q-15 -12 -26 -25q-10 -13 -10 -22v-1h1q7 0 11.5 3t9.5 8q1 1 2.5 2t3.5 3q1 1 3 2t5 3q8 5 20 5q16 0 28.5 -10t14.5 -26q14 -2 24.5 -13.5t10.5 -27.5q0 -11 -5 -19.5t-11 -15.5q-3 -4 -6.5 -7t-6.5 -6q-4 -3 -6.5 -5t-4.5 -4
q-10 -12 -27 -12h-61q-9 0 -15 3t-12 9l-53 52q-1 1 -1.5 2t-1.5 2l-32 31q-11 11 -11 27v61q0 16 11 27l60 59q7 7 8 16v18q-26 17 -26 46v192h-173q-14 0 -24.5 -10.5t-10.5 -24.5v-192q0 -23 -16.5 -39t-39.5 -16q-18 0 -32.5 10.5t-19.5 27.5q-17 5 -27.5 19.5
t-10.5 32.5v505q0 23 16 39l105 104q8 8 17 12.5t22 4.5h145q23 0 39 -16l139 -140q17 -17 17 -39v-593zM543 550q0 20 -14 32l-104 105q-13 13 -32 13h-145q-20 0 -32 -14l-105 -104q-13 -13 -13 -32v-505q0 -19 13 -32t32 -13t32.5 13t13.5 32v192q0 19 13 32t32 13h173
q19 0 32 -13t13 -32v-192q0 -14 7.5 -24.5t18.5 -15.5v-21q0 -15 -11 -26l-60 -59q-8 -11 -8 -20v-61q0 -12 8 -20l53 -52q8 -9 20 -9h61q13 0 20 9l27 27q10 10 10 23q0 14 -9.5 23t-23.5 9t-23 -9l-6 -6q-11 -11 -26 -11t-26 11l-9 9q-11 11 -11 26t11 26l57 57
q11 11 11 26v593zM452 418q0 -19 -13 -32t-32 -13h-173q-19 0 -32 13t-13 32v98q0 15 10 25l58 58q10 10 25 10h77q15 0 25 -10l58 -58q10 -10 10 -25v-98zM412 557q-7 7 -18 7h-77q-10 0 -18 -7l-58 -58q-7 -8 -7 -18v-98h173q14 0 24.5 10.5t10.5 24.5v98q0 11 -7 18z" />
    <glyph glyph-name="Cacute" unicode="&#x106;" 
d="M414 954q17 -6 27.5 -20t10.5 -32q0 -24 -17 -39l-81 -82q-15 -16 -39 -16q-18 0 -33 10.5t-20 27.5q-17 5 -27.5 19.5t-10.5 32.5q0 22 17 39l81 82q16 16 39 16q18 0 33 -10.5t20 -27.5zM393 905q14 12 14 32q0 19 -13.5 32t-32.5 13t-32 -13l-81 -82q-14 -14 -14 -32
q0 -19 13.5 -32t32.5 -13t32 13zM234 149q0 -11 7 -18l23 -23q7 -7 18 -7h77q11 0 18 7l58 58q7 7 7 20q1 7 0.5 14t-0.5 14q0 23 16.5 39.5t39.5 16.5q18 0 32.5 -10.5t19.5 -27.5q17 -5 27.5 -20t10.5 -33v-64q0 -13 -4.5 -22t-12.5 -17l-104 -105q-15 -16 -39 -16h-145
q-23 0 -40 17l-139 139q-16 15 -16 39v400q0 24 16 39l104 104q17 17 40 17h145q23 0 39 -16l139 -140q17 -17 17 -39v-64q0 -23 -16 -39.5t-39 -16.5q-18 0 -32.5 10.5t-20.5 27.5q-17 6 -27.5 20.5t-10.5 32.5q0 7 0.5 14t-0.5 14q0 13 -7 20l-23 23q-7 7 -18 7h-77
q-10 0 -18 -7l-58 -58q-7 -8 -7 -18v-332zM189 516q0 15 10 25l58 58q10 10 25 10h77q15 0 25 -10l58 -58q10 -10 10 -25v-30q0 -19 13.5 -32.5t32.5 -13.5t32 13.5t13 32.5v64q0 20 -14 32l-104 105q-13 13 -32 13h-145q-19 0 -33 -14l-104 -104q-13 -13 -13 -32v-400
q0 -19 13 -32l104 -104q14 -14 33 -14h145q19 0 32 13l104 105q14 12 14 32v64q0 19 -13 32.5t-32 13.5t-32.5 -13.5t-13.5 -32.5v-30q0 -15 -10 -25l-58 -58q-10 -10 -25 -10h-77q-15 0 -25 10l-58 58q-10 10 -10 25v332z" />
    <glyph glyph-name="cacute" unicode="&#x107;" 
d="M414 954q17 -6 27.5 -20t10.5 -32q0 -24 -17 -39l-81 -82q-15 -16 -39 -16q-18 0 -33 10.5t-20 27.5q-17 5 -27.5 19.5t-10.5 32.5q0 22 17 39l81 82q16 16 39 16q18 0 33 -10.5t20 -27.5zM393 905q14 12 14 32q0 19 -13.5 32t-32.5 13t-32 -13l-81 -82q-14 -14 -14 -32
q0 -19 13.5 -32t32.5 -13t32 13zM234 149q0 -11 7 -18l23 -23q7 -7 18 -7h77q11 0 18 7l58 58q7 7 7 20q1 7 0.5 14t-0.5 14q0 23 16.5 39.5t39.5 16.5q18 0 32.5 -10.5t19.5 -27.5q17 -5 27.5 -20t10.5 -33v-64q0 -13 -4.5 -22t-12.5 -17l-104 -105q-15 -16 -39 -16h-145
q-23 0 -40 17l-139 139q-16 15 -16 39v400q0 24 16 39l104 104q17 17 40 17h145q23 0 39 -16l139 -140q17 -17 17 -39v-64q0 -23 -16 -39.5t-39 -16.5q-18 0 -32.5 10.5t-20.5 27.5q-17 6 -27.5 20.5t-10.5 32.5q0 7 0.5 14t-0.5 14q0 13 -7 20l-23 23q-7 7 -18 7h-77
q-10 0 -18 -7l-58 -58q-7 -8 -7 -18v-332zM189 516q0 15 10 25l58 58q10 10 25 10h77q15 0 25 -10l58 -58q10 -10 10 -25v-30q0 -19 13.5 -32.5t32.5 -13.5t32 13.5t13 32.5v64q0 20 -14 32l-104 105q-13 13 -32 13h-145q-19 0 -33 -14l-104 -104q-13 -13 -13 -32v-400
q0 -19 13 -32l104 -104q14 -14 33 -14h145q19 0 32 13l104 105q14 12 14 32v64q0 19 -13 32.5t-32 13.5t-32.5 -13.5t-13.5 -32.5v-30q0 -15 -10 -25l-58 -58q-10 -10 -25 -10h-77q-15 0 -25 10l-58 58q-10 10 -10 25v332z" />
    <glyph glyph-name="Ccircumflex" unicode="&#x108;" 
d="M483 850q8 -8 11 -17.5t3 -18.5q0 -22 -13.5 -35.5t-35.5 -13.5q-18 0 -32 11q-12 9 -23 22l-2 2l-5 6q-4 4 -6 5l-2 2l-5 4l-2 2q-8 5 -16 5t-19 -8q-1 -1 -4.5 -4t-7 -6.5l-6.5 -6.5t-3 -4l-6 -6q0 -1 -2 -3t-3 -2l-6 -6q-16 -13 -36 -13q-17 0 -30.5 10t-17.5 27
q-16 4 -26.5 17t-10.5 30q0 10 3.5 19.5t11.5 16.5l93 92q15 15 35 15t35 -15l93 -92q1 -1 1.5 -2t1.5 -2zM292 857q11 12 28 12q16 0 28 -12l36 -36q11 -11 29 -11q17 0 28 11t11 28q0 18 -11 29l-93 92q-12 12 -28 12q-17 0 -28 -12l-93 -92q-12 -12 -12 -29t11.5 -28
t28.5 -11q18 0 28 11zM234 149q0 -11 7 -18l23 -23q7 -7 18 -7h77q11 0 18 7l58 58q7 7 7 20q1 7 0.5 14t-0.5 14q0 23 16.5 39.5t39.5 16.5q18 0 32.5 -10.5t19.5 -27.5q17 -5 27.5 -20t10.5 -33v-64q0 -13 -4.5 -22t-12.5 -17l-104 -105q-15 -16 -39 -16h-145
q-23 0 -40 17l-139 139q-16 15 -16 39v400q0 24 16 39l104 104q17 17 40 17h145q23 0 39 -16l139 -140q17 -17 17 -39v-64q0 -23 -16 -39.5t-39 -16.5q-18 0 -32.5 10.5t-20.5 27.5q-17 6 -27.5 20.5t-10.5 32.5q0 7 0.5 14t-0.5 14q0 13 -7 20l-23 23q-7 7 -18 7h-77
q-10 0 -18 -7l-58 -58q-7 -8 -7 -18v-332zM189 516q0 15 10 25l58 58q10 10 25 10h77q15 0 25 -10l58 -58q10 -10 10 -25v-30q0 -19 13.5 -32.5t32.5 -13.5t32 13.5t13 32.5v64q0 20 -14 32l-104 105q-13 13 -32 13h-145q-19 0 -33 -14l-104 -104q-13 -13 -13 -32v-400
q0 -19 13 -32l104 -104q14 -14 33 -14h145q19 0 32 13l104 105q14 12 14 32v64q0 19 -13 32.5t-32 13.5t-32.5 -13.5t-13.5 -32.5v-30q0 -15 -10 -25l-58 -58q-10 -10 -25 -10h-77q-15 0 -25 10l-58 58q-10 10 -10 25v332z" />
    <glyph glyph-name="ccircumflex" unicode="&#x109;" 
d="M483 850q8 -8 11 -17.5t3 -18.5q0 -22 -13.5 -35.5t-35.5 -13.5q-18 0 -32 11q-12 9 -23 22l-2 2l-5 6q-4 4 -6 5l-2 2l-5 4l-2 2q-8 5 -16 5t-19 -8q-1 -1 -4.5 -4t-7 -6.5l-6.5 -6.5t-3 -4l-6 -6q0 -1 -2 -3t-3 -2l-6 -6q-16 -13 -36 -13q-17 0 -30.5 10t-17.5 27
q-16 4 -26.5 17t-10.5 30q0 10 3.5 19.5t11.5 16.5l93 92q15 15 35 15t35 -15l93 -92q1 -1 1.5 -2t1.5 -2zM292 857q11 12 28 12q16 0 28 -12l36 -36q11 -11 29 -11q17 0 28 11t11 28q0 18 -11 29l-93 92q-12 12 -28 12q-17 0 -28 -12l-93 -92q-12 -12 -12 -29t11.5 -28
t28.5 -11q18 0 28 11zM234 149q0 -11 7 -18l23 -23q7 -7 18 -7h77q11 0 18 7l58 58q7 7 7 20q1 7 0.5 14t-0.5 14q0 23 16.5 39.5t39.5 16.5q18 0 32.5 -10.5t19.5 -27.5q17 -5 27.5 -20t10.5 -33v-64q0 -13 -4.5 -22t-12.5 -17l-104 -105q-15 -16 -39 -16h-145
q-23 0 -40 17l-139 139q-16 15 -16 39v400q0 24 16 39l104 104q17 17 40 17h145q23 0 39 -16l139 -140q17 -17 17 -39v-64q0 -23 -16 -39.5t-39 -16.5q-18 0 -32.5 10.5t-20.5 27.5q-17 6 -27.5 20.5t-10.5 32.5q0 7 0.5 14t-0.5 14q0 13 -7 20l-23 23q-7 7 -18 7h-77
q-10 0 -18 -7l-58 -58q-7 -8 -7 -18v-332zM189 516q0 15 10 25l58 58q10 10 25 10h77q15 0 25 -10l58 -58q10 -10 10 -25v-30q0 -19 13.5 -32.5t32.5 -13.5t32 13.5t13 32.5v64q0 20 -14 32l-104 105q-13 13 -32 13h-145q-19 0 -33 -14l-104 -104q-13 -13 -13 -32v-400
q0 -19 13 -32l104 -104q14 -14 33 -14h145q19 0 32 13l104 105q14 12 14 32v64q0 19 -13 32.5t-32 13.5t-32.5 -13.5t-13.5 -32.5v-30q0 -15 -10 -25l-58 -58q-10 -10 -25 -10h-77q-15 0 -25 10l-58 58q-10 10 -10 25v332z" />
    <glyph glyph-name="Cdotaccent" unicode="&#x10a;" 
d="M340 780q-18 0 -32.5 10.5t-19.5 27.5q-17 5 -27.5 19.5t-10.5 32.5v30q0 23 16 39t39 16h30q18 0 32.5 -10.5t19.5 -27.5q17 -5 27.5 -19.5t10.5 -32.5v-30q0 -23 -16 -39t-39 -16h-30zM335 825q19 0 32 13t13 32v30q0 19 -13 32t-32 13h-30q-19 0 -32 -13t-13 -32v-30
q0 -19 13 -32t32 -13h30zM234 149q0 -11 7 -18l23 -23q7 -7 18 -7h77q11 0 18 7l58 58q7 7 7 20q1 7 0.5 14t-0.5 14q0 23 16.5 39.5t39.5 16.5q18 0 32.5 -10.5t19.5 -27.5q17 -5 27.5 -20t10.5 -33v-64q0 -13 -4.5 -22t-12.5 -17l-104 -105q-15 -16 -39 -16h-145
q-23 0 -40 17l-139 139q-16 15 -16 39v400q0 24 16 39l104 104q17 17 40 17h145q23 0 39 -16l139 -140q17 -17 17 -39v-64q0 -23 -16 -39.5t-39 -16.5q-18 0 -32.5 10.5t-20.5 27.5q-17 6 -27.5 20.5t-10.5 32.5q0 7 0.5 14t-0.5 14q0 13 -7 20l-23 23q-7 7 -18 7h-77
q-10 0 -18 -7l-58 -58q-7 -8 -7 -18v-332zM189 516q0 15 10 25l58 58q10 10 25 10h77q15 0 25 -10l58 -58q10 -10 10 -25v-30q0 -19 13.5 -32.5t32.5 -13.5t32 13.5t13 32.5v64q0 20 -14 32l-104 105q-13 13 -32 13h-145q-19 0 -33 -14l-104 -104q-13 -13 -13 -32v-400
q0 -19 13 -32l104 -104q14 -14 33 -14h145q19 0 32 13l104 105q14 12 14 32v64q0 19 -13 32.5t-32 13.5t-32.5 -13.5t-13.5 -32.5v-30q0 -15 -10 -25l-58 -58q-10 -10 -25 -10h-77q-15 0 -25 10l-58 58q-10 10 -10 25v332z" />
    <glyph glyph-name="cdotaccent" unicode="&#x10b;" 
d="M340 780q-18 0 -32.5 10.5t-19.5 27.5q-17 5 -27.5 19.5t-10.5 32.5v30q0 23 16 39t39 16h30q18 0 32.5 -10.5t19.5 -27.5q17 -5 27.5 -19.5t10.5 -32.5v-30q0 -23 -16 -39t-39 -16h-30zM335 825q19 0 32 13t13 32v30q0 19 -13 32t-32 13h-30q-19 0 -32 -13t-13 -32v-30
q0 -19 13 -32t32 -13h30zM234 149q0 -11 7 -18l23 -23q7 -7 18 -7h77q11 0 18 7l58 58q7 7 7 20q1 7 0.5 14t-0.5 14q0 23 16.5 39.5t39.5 16.5q18 0 32.5 -10.5t19.5 -27.5q17 -5 27.5 -20t10.5 -33v-64q0 -13 -4.5 -22t-12.5 -17l-104 -105q-15 -16 -39 -16h-145
q-23 0 -40 17l-139 139q-16 15 -16 39v400q0 24 16 39l104 104q17 17 40 17h145q23 0 39 -16l139 -140q17 -17 17 -39v-64q0 -23 -16 -39.5t-39 -16.5q-18 0 -32.5 10.5t-20.5 27.5q-17 6 -27.5 20.5t-10.5 32.5q0 7 0.5 14t-0.5 14q0 13 -7 20l-23 23q-7 7 -18 7h-77
q-10 0 -18 -7l-58 -58q-7 -8 -7 -18v-332zM189 516q0 15 10 25l58 58q10 10 25 10h77q15 0 25 -10l58 -58q10 -10 10 -25v-30q0 -19 13.5 -32.5t32.5 -13.5t32 13.5t13 32.5v64q0 20 -14 32l-104 105q-13 13 -32 13h-145q-19 0 -33 -14l-104 -104q-13 -13 -13 -32v-400
q0 -19 13 -32l104 -104q14 -14 33 -14h145q19 0 32 13l104 105q14 12 14 32v64q0 19 -13 32.5t-32 13.5t-32.5 -13.5t-13.5 -32.5v-30q0 -15 -10 -25l-58 -58q-10 -10 -25 -10h-77q-15 0 -25 10l-58 58q-10 10 -10 25v332z" />
    <glyph glyph-name="Ccaron" unicode="&#x10c;" 
d="M460 955q37 -11 37 -48q0 -9 -3.5 -19t-10.5 -16l-93 -93q-14 -14 -35 -14q-9 0 -18.5 3t-17.5 11l-31 32q-1 1 -2 1.5t-2 1.5l-92 93q-15 15 -15 35t15 35t35 15q11 0 23.5 -6.5t19.5 -15.5q3 -3 5.5 -6t4.5 -5q3 -3 5.5 -6t5.5 -5l3 -3q2 -1 9 -8q8 -5 17 -5
q12 0 21.5 9t16.5 18q3 2 5.5 5t5.5 6q2 3 5 5.5t6 5.5q14 11 32 11q17 0 30.5 -10.5t17.5 -26.5zM255 970q-12 12 -28 12t-28 -12t-12 -28t12 -28l92 -93q11 -11 29 -11q17 0 28 11l93 93q11 14 11 28q0 17 -11.5 28.5t-28.5 11.5q-16 0 -28 -12l-36 -36q-12 -12 -28 -12
q-17 0 -29 12zM234 149q0 -11 7 -18l23 -23q7 -7 18 -7h77q11 0 18 7l58 58q7 7 7 20q1 7 0.5 14t-0.5 14q0 23 16.5 39.5t39.5 16.5q18 0 32.5 -10.5t19.5 -27.5q17 -5 27.5 -20t10.5 -33v-64q0 -13 -4.5 -22t-12.5 -17l-104 -105q-15 -16 -39 -16h-145q-23 0 -40 17
l-139 139q-16 15 -16 39v400q0 24 16 39l104 104q17 17 40 17h145q23 0 39 -16l139 -140q17 -17 17 -39v-64q0 -23 -16 -39.5t-39 -16.5q-18 0 -32.5 10.5t-20.5 27.5q-17 6 -27.5 20.5t-10.5 32.5q0 7 0.5 14t-0.5 14q0 13 -7 20l-23 23q-7 7 -18 7h-77q-10 0 -18 -7
l-58 -58q-7 -8 -7 -18v-332zM189 516q0 15 10 25l58 58q10 10 25 10h77q15 0 25 -10l58 -58q10 -10 10 -25v-30q0 -19 13.5 -32.5t32.5 -13.5t32 13.5t13 32.5v64q0 20 -14 32l-104 105q-13 13 -32 13h-145q-19 0 -33 -14l-104 -104q-13 -13 -13 -32v-400q0 -19 13 -32
l104 -104q14 -14 33 -14h145q19 0 32 13l104 105q14 12 14 32v64q0 19 -13 32.5t-32 13.5t-32.5 -13.5t-13.5 -32.5v-30q0 -15 -10 -25l-58 -58q-10 -10 -25 -10h-77q-15 0 -25 10l-58 58q-10 10 -10 25v332z" />
    <glyph glyph-name="ccaron" unicode="&#x10d;" 
d="M460 955q37 -11 37 -48q0 -9 -3.5 -19t-10.5 -16l-93 -93q-14 -14 -35 -14q-9 0 -18.5 3t-17.5 11l-31 32q-1 1 -2 1.5t-2 1.5l-92 93q-15 15 -15 35t15 35t35 15q11 0 23.5 -6.5t19.5 -15.5q3 -3 5.5 -6t4.5 -5q3 -3 5.5 -6t5.5 -5l3 -3q2 -1 9 -8q8 -5 17 -5
q12 0 21.5 9t16.5 18q3 2 5.5 5t5.5 6q2 3 5 5.5t6 5.5q14 11 32 11q17 0 30.5 -10.5t17.5 -26.5zM255 970q-12 12 -28 12t-28 -12t-12 -28t12 -28l92 -93q11 -11 29 -11q17 0 28 11l93 93q11 14 11 28q0 17 -11.5 28.5t-28.5 11.5q-16 0 -28 -12l-36 -36q-12 -12 -28 -12
q-17 0 -29 12zM234 149q0 -11 7 -18l23 -23q7 -7 18 -7h77q11 0 18 7l58 58q7 7 7 20q1 7 0.5 14t-0.5 14q0 23 16.5 39.5t39.5 16.5q18 0 32.5 -10.5t19.5 -27.5q17 -5 27.5 -20t10.5 -33v-64q0 -13 -4.5 -22t-12.5 -17l-104 -105q-15 -16 -39 -16h-145q-23 0 -40 17
l-139 139q-16 15 -16 39v400q0 24 16 39l104 104q17 17 40 17h145q23 0 39 -16l139 -140q17 -17 17 -39v-64q0 -23 -16 -39.5t-39 -16.5q-18 0 -32.5 10.5t-20.5 27.5q-17 6 -27.5 20.5t-10.5 32.5q0 7 0.5 14t-0.5 14q0 13 -7 20l-23 23q-7 7 -18 7h-77q-10 0 -18 -7
l-58 -58q-7 -8 -7 -18v-332zM189 516q0 15 10 25l58 58q10 10 25 10h77q15 0 25 -10l58 -58q10 -10 10 -25v-30q0 -19 13.5 -32.5t32.5 -13.5t32 13.5t13 32.5v64q0 20 -14 32l-104 105q-13 13 -32 13h-145q-19 0 -33 -14l-104 -104q-13 -13 -13 -32v-400q0 -19 13 -32
l104 -104q14 -14 33 -14h145q19 0 32 13l104 105q14 12 14 32v64q0 19 -13 32.5t-32 13.5t-32.5 -13.5t-13.5 -32.5v-30q0 -15 -10 -25l-58 -58q-10 -10 -25 -10h-77q-15 0 -25 10l-58 58q-10 10 -10 25v332z" />
    <glyph glyph-name="Dcaron" unicode="&#x10e;" 
d="M460 955q37 -11 37 -48q0 -9 -3.5 -19t-10.5 -16l-93 -93q-14 -14 -35 -14q-9 0 -18.5 3t-17.5 11l-31 32q-1 1 -2 1.5t-2 1.5l-92 93q-15 15 -15 35t15 35t35 15q11 0 23.5 -6.5t19.5 -15.5q3 -3 5.5 -6t4.5 -5q3 -3 5.5 -6t5.5 -5l3 -3q2 -1 9 -8q8 -5 17 -5
q12 0 21.5 9t16.5 18q3 2 5.5 5t5.5 6q2 3 5 5.5t6 5.5q14 11 32 11q17 0 30.5 -10.5t17.5 -26.5zM255 970q-12 12 -28 12t-28 -12t-12 -28t12 -28l92 -93q11 -11 29 -11q17 0 28 11l93 93q11 14 11 28q0 17 -11.5 28.5t-28.5 11.5q-16 0 -28 -12l-36 -36q-12 -12 -28 -12
q-17 0 -29 12zM588 115q0 -13 -4.5 -22t-12.5 -17l-104 -105q-15 -16 -39 -16h-250q-18 0 -32.5 10.5t-19.5 27.5q-17 5 -27.5 19.5t-10.5 32.5v610q0 23 16 39t39 16h250q23 0 39 -16l139 -140q17 -17 17 -39v-400zM425 687q-13 13 -32 13h-250q-19 0 -32 -13t-13 -32v-610
q0 -19 13 -32t32 -13h250q19 0 32 13l104 105q14 12 14 32v400q0 20 -14 32zM384 101q-10 -10 -25 -10h-125q-19 0 -32 13t-13 32v428q0 19 13 32t32 13h125q15 0 25 -10l58 -58q10 -10 10 -25v-332q0 -15 -10 -25zM412 557q-7 7 -18 7h-125q-14 0 -24.5 -10.5t-10.5 -24.5
v-428h125q11 0 18 7l58 58q7 7 7 18v332q0 11 -7 18z" />
    <glyph glyph-name="dcaron" unicode="&#x10f;" 
d="M460 955q37 -11 37 -48q0 -9 -3.5 -19t-10.5 -16l-93 -93q-14 -14 -35 -14q-9 0 -18.5 3t-17.5 11l-31 32q-1 1 -2 1.5t-2 1.5l-92 93q-15 15 -15 35t15 35t35 15q11 0 23.5 -6.5t19.5 -15.5q3 -3 5.5 -6t4.5 -5q3 -3 5.5 -6t5.5 -5l3 -3q2 -1 9 -8q8 -5 17 -5
q12 0 21.5 9t16.5 18q3 2 5.5 5t5.5 6q2 3 5 5.5t6 5.5q14 11 32 11q17 0 30.5 -10.5t17.5 -26.5zM255 970q-12 12 -28 12t-28 -12t-12 -28t12 -28l92 -93q11 -11 29 -11q17 0 28 11l93 93q11 14 11 28q0 17 -11.5 28.5t-28.5 11.5q-16 0 -28 -12l-36 -36q-12 -12 -28 -12
q-17 0 -29 12zM588 115q0 -13 -4.5 -22t-12.5 -17l-104 -105q-15 -16 -39 -16h-250q-18 0 -32.5 10.5t-19.5 27.5q-17 5 -27.5 19.5t-10.5 32.5v610q0 23 16 39t39 16h250q23 0 39 -16l139 -140q17 -17 17 -39v-400zM425 687q-13 13 -32 13h-250q-19 0 -32 -13t-13 -32v-610
q0 -19 13 -32t32 -13h250q19 0 32 13l104 105q14 12 14 32v400q0 20 -14 32zM384 101q-10 -10 -25 -10h-125q-19 0 -32 13t-13 32v428q0 19 13 32t32 13h125q15 0 25 -10l58 -58q10 -10 10 -25v-332q0 -15 -10 -25zM412 557q-7 7 -18 7h-125q-14 0 -24.5 -10.5t-10.5 -24.5
v-428h125q11 0 18 7l58 58q7 7 7 18v332q0 11 -7 18z" />
    <glyph glyph-name="Dcroat" unicode="&#x110;" 
d="M88 264q-11 5 -20 13t-13 22q-16 5 -26.5 17t-10.5 35q0 16 6 26.5t15 17t20.5 9t23.5 2.5q5 0 5 5v244q0 23 16 39t39 16h250q23 0 39 -16l139 -140q17 -17 17 -39v-400q0 -13 -4.5 -22t-12.5 -17l-104 -105q-15 -16 -39 -16h-250q-18 0 -32.5 10.5t-19.5 27.5
q-17 5 -27.5 19.5t-10.5 32.5v219zM98 411q0 -15 -15 -15h-10q-19 0 -32 -13t-13 -32q0 -20 13 -33t32 -13h10q15 0 15 -15v-245q0 -19 13 -32t32 -13h250q19 0 32 13l104 105q14 12 14 32v400q0 20 -14 32l-104 105q-13 13 -32 13h-250q-19 0 -32 -13t-13 -32v-244z
M189 290q0 15 15 15h139q19 0 32 13t13 33q0 19 -13 32t-32 13h-139q-15 0 -15 15v153q0 19 13 32t32 13h125q15 0 25 -10l58 -58q10 -10 10 -25v-332q0 -15 -10 -25l-58 -58q-10 -10 -25 -10h-125q-19 0 -32 13t-13 32v154zM412 557q-7 7 -18 7h-125q-14 0 -24.5 -10.5
t-10.5 -24.5v-123h109q18 0 32.5 -10.5t19.5 -27.5q17 -5 27.5 -19.5t10.5 -32.5q0 -23 -15.5 -39.5t-39.5 -16.5h-139q-5 0 -5 -5v-154h125q11 0 18 7l58 58q7 7 7 18v332q0 11 -7 18z" />
    <glyph glyph-name="dcroat" unicode="&#x111;" 
d="M88 264q-11 5 -20 13t-13 22q-16 5 -26.5 17t-10.5 35q0 16 6 26.5t15 17t20.5 9t23.5 2.5q5 0 5 5v244q0 23 16 39t39 16h250q23 0 39 -16l139 -140q17 -17 17 -39v-400q0 -13 -4.5 -22t-12.5 -17l-104 -105q-15 -16 -39 -16h-250q-18 0 -32.5 10.5t-19.5 27.5
q-17 5 -27.5 19.5t-10.5 32.5v219zM98 411q0 -15 -15 -15h-10q-19 0 -32 -13t-13 -32q0 -20 13 -33t32 -13h10q15 0 15 -15v-245q0 -19 13 -32t32 -13h250q19 0 32 13l104 105q14 12 14 32v400q0 20 -14 32l-104 105q-13 13 -32 13h-250q-19 0 -32 -13t-13 -32v-244z
M189 290q0 15 15 15h139q19 0 32 13t13 33q0 19 -13 32t-32 13h-139q-15 0 -15 15v153q0 19 13 32t32 13h125q15 0 25 -10l58 -58q10 -10 10 -25v-332q0 -15 -10 -25l-58 -58q-10 -10 -25 -10h-125q-19 0 -32 13t-13 32v154zM412 557q-7 7 -18 7h-125q-14 0 -24.5 -10.5
t-10.5 -24.5v-123h109q18 0 32.5 -10.5t19.5 -27.5q17 -5 27.5 -19.5t10.5 -32.5q0 -23 -15.5 -39.5t-39.5 -16.5h-139q-5 0 -5 -5v-154h125q11 0 18 7l58 58q7 7 7 18v332q0 11 -7 18z" />
    <glyph glyph-name="Emacron" unicode="&#x112;" 
d="M261 775q-18 0 -32.5 10.5t-19.5 27.5q-17 5 -27.5 19.5t-10.5 32.5q0 23 16 39.5t39 16.5h189q18 0 32.5 -10.5t19.5 -27.5q17 -5 27.5 -20t10.5 -33q0 -23 -16 -39t-39 -16h-189zM415 820q19 0 32 13t13 32t-13 32.5t-32 13.5h-189q-19 0 -32 -13.5t-13 -32.5t13 -32
t32 -13h189zM550 672q17 -5 27.5 -19.5t10.5 -32.5q0 -23 -16 -39.5t-39 -16.5h-264q-14 0 -24.5 -10.5t-10.5 -24.5v-124h196q18 0 33 -10.5t20 -27.5q17 -6 27.5 -20t10.5 -32q0 -23 -16.5 -39.5t-39.5 -16.5h-196q-14 0 -24.5 -11t-10.5 -25v-122h264q18 0 32.5 -10.5
t19.5 -27.5q17 -5 27.5 -20t10.5 -33q0 -23 -16 -39t-39 -16h-355q-18 0 -32.5 10.5t-19.5 27.5q-17 5 -27.5 19.5t-10.5 32.5v610q0 23 16 39t39 16h355q18 0 32.5 -10.5t19.5 -27.5zM98 45q0 -19 13 -32t32 -13h355q19 0 32 13t13 32t-13 32.5t-32 13.5h-264q-19 0 -32 13
t-13 32v122q0 19 13 32.5t32 13.5h196q19 0 32.5 13.5t13.5 32.5t-13.5 32t-32.5 13h-196q-19 0 -32 13.5t-13 32.5v123q0 19 13 32t32 13h264q19 0 32 13.5t13 32.5t-13 32t-32 13h-355q-19 0 -32 -13t-13 -32v-610z" />
    <glyph glyph-name="emacron" unicode="&#x113;" 
d="M261 775q-18 0 -32.5 10.5t-19.5 27.5q-17 5 -27.5 19.5t-10.5 32.5q0 23 16 39.5t39 16.5h189q18 0 32.5 -10.5t19.5 -27.5q17 -5 27.5 -20t10.5 -33q0 -23 -16 -39t-39 -16h-189zM415 820q19 0 32 13t13 32t-13 32.5t-32 13.5h-189q-19 0 -32 -13.5t-13 -32.5t13 -32
t32 -13h189zM550 672q17 -5 27.5 -19.5t10.5 -32.5q0 -23 -16 -39.5t-39 -16.5h-264q-14 0 -24.5 -10.5t-10.5 -24.5v-124h196q18 0 33 -10.5t20 -27.5q17 -6 27.5 -20t10.5 -32q0 -23 -16.5 -39.5t-39.5 -16.5h-196q-14 0 -24.5 -11t-10.5 -25v-122h264q18 0 32.5 -10.5
t19.5 -27.5q17 -5 27.5 -20t10.5 -33q0 -23 -16 -39t-39 -16h-355q-18 0 -32.5 10.5t-19.5 27.5q-17 5 -27.5 19.5t-10.5 32.5v610q0 23 16 39t39 16h355q18 0 32.5 -10.5t19.5 -27.5zM98 45q0 -19 13 -32t32 -13h355q19 0 32 13t13 32t-13 32.5t-32 13.5h-264q-19 0 -32 13
t-13 32v122q0 19 13 32.5t32 13.5h196q19 0 32.5 13.5t13.5 32.5t-13.5 32t-32.5 13h-196q-19 0 -32 13.5t-13 32.5v123q0 19 13 32t32 13h264q19 0 32 13.5t13 32.5t-13 32t-32 13h-355q-19 0 -32 -13t-13 -32v-610z" />
    <glyph glyph-name="Ebreve" unicode="&#x114;" 
d="M456 955q16 -3 26 -15.5t10 -29.5v-42q0 -19 -12 -30l-60 -61q-6 -7 -14.5 -9.5t-16.5 -2.5h-69q-19 0 -31 12l-95 96q-12 12 -12 30v42q0 20 13.5 33.5t33.5 13.5q21 0 31 -11t14 -25q23 -4 30.5 -22.5t7.5 -38.5q2 -1 10 -1q11 0 18 7l16 16q5 5 6 11t1 17
q0 20 13.5 33.5t33.5 13.5q17 0 29.5 -10.5t16.5 -26.5zM266 945q0 15 -10.5 26t-26.5 11t-26.5 -11t-10.5 -26v-42q0 -14 9 -23l60 -61q9 -9 24 -9h69q15 0 24 9l60 61q9 9 9 23v42q0 15 -10.5 26t-26.5 11t-26.5 -11t-10.5 -26v-10q0 -15 -10 -25l-16 -16q-10 -10 -25 -10
h-5q-15 0 -25 10l-16 16q-10 10 -10 25v10zM550 672q17 -5 27.5 -19.5t10.5 -32.5q0 -23 -16 -39.5t-39 -16.5h-264q-14 0 -24.5 -10.5t-10.5 -24.5v-124h196q18 0 33 -10.5t20 -27.5q17 -6 27.5 -20t10.5 -32q0 -23 -16.5 -39.5t-39.5 -16.5h-196q-14 0 -24.5 -11
t-10.5 -25v-122h264q18 0 32.5 -10.5t19.5 -27.5q17 -5 27.5 -20t10.5 -33q0 -23 -16 -39t-39 -16h-355q-18 0 -32.5 10.5t-19.5 27.5q-17 5 -27.5 19.5t-10.5 32.5v610q0 23 16 39t39 16h355q18 0 32.5 -10.5t19.5 -27.5zM98 45q0 -19 13 -32t32 -13h355q19 0 32 13t13 32
t-13 32.5t-32 13.5h-264q-19 0 -32 13t-13 32v122q0 19 13 32.5t32 13.5h196q19 0 32.5 13.5t13.5 32.5t-13.5 32t-32.5 13h-196q-19 0 -32 13.5t-13 32.5v123q0 19 13 32t32 13h264q19 0 32 13.5t13 32.5t-13 32t-32 13h-355q-19 0 -32 -13t-13 -32v-610z" />
    <glyph glyph-name="ebreve" unicode="&#x115;" 
d="M456 955q16 -3 26 -15.5t10 -29.5v-42q0 -19 -12 -30l-60 -61q-6 -7 -14.5 -9.5t-16.5 -2.5h-69q-19 0 -31 12l-95 96q-12 12 -12 30v42q0 20 13.5 33.5t33.5 13.5q21 0 31 -11t14 -25q23 -4 30.5 -22.5t7.5 -38.5q2 -1 10 -1q11 0 18 7l16 16q5 5 6 11t1 17
q0 20 13.5 33.5t33.5 13.5q17 0 29.5 -10.5t16.5 -26.5zM266 945q0 15 -10.5 26t-26.5 11t-26.5 -11t-10.5 -26v-42q0 -14 9 -23l60 -61q9 -9 24 -9h69q15 0 24 9l60 61q9 9 9 23v42q0 15 -10.5 26t-26.5 11t-26.5 -11t-10.5 -26v-10q0 -15 -10 -25l-16 -16q-10 -10 -25 -10
h-5q-15 0 -25 10l-16 16q-10 10 -10 25v10zM550 672q17 -5 27.5 -19.5t10.5 -32.5q0 -23 -16 -39.5t-39 -16.5h-264q-14 0 -24.5 -10.5t-10.5 -24.5v-124h196q18 0 33 -10.5t20 -27.5q17 -6 27.5 -20t10.5 -32q0 -23 -16.5 -39.5t-39.5 -16.5h-196q-14 0 -24.5 -11
t-10.5 -25v-122h264q18 0 32.5 -10.5t19.5 -27.5q17 -5 27.5 -20t10.5 -33q0 -23 -16 -39t-39 -16h-355q-18 0 -32.5 10.5t-19.5 27.5q-17 5 -27.5 19.5t-10.5 32.5v610q0 23 16 39t39 16h355q18 0 32.5 -10.5t19.5 -27.5zM98 45q0 -19 13 -32t32 -13h355q19 0 32 13t13 32
t-13 32.5t-32 13.5h-264q-19 0 -32 13t-13 32v122q0 19 13 32.5t32 13.5h196q19 0 32.5 13.5t13.5 32.5t-13.5 32t-32.5 13h-196q-19 0 -32 13.5t-13 32.5v123q0 19 13 32t32 13h264q19 0 32 13.5t13 32.5t-13 32t-32 13h-355q-19 0 -32 -13t-13 -32v-610z" />
    <glyph glyph-name="Edotaccent" unicode="&#x116;" 
d="M340 780q-18 0 -32.5 10.5t-19.5 27.5q-17 5 -27.5 19.5t-10.5 32.5v30q0 23 16 39t39 16h30q18 0 32.5 -10.5t19.5 -27.5q17 -5 27.5 -19.5t10.5 -32.5v-30q0 -23 -16 -39t-39 -16h-30zM335 825q19 0 32 13t13 32v30q0 19 -13 32t-32 13h-30q-19 0 -32 -13t-13 -32v-30
q0 -19 13 -32t32 -13h30zM550 672q17 -5 27.5 -19.5t10.5 -32.5q0 -23 -16 -39.5t-39 -16.5h-264q-14 0 -24.5 -10.5t-10.5 -24.5v-124h196q18 0 33 -10.5t20 -27.5q17 -6 27.5 -20t10.5 -32q0 -23 -16.5 -39.5t-39.5 -16.5h-196q-14 0 -24.5 -11t-10.5 -25v-122h264
q18 0 32.5 -10.5t19.5 -27.5q17 -5 27.5 -20t10.5 -33q0 -23 -16 -39t-39 -16h-355q-18 0 -32.5 10.5t-19.5 27.5q-17 5 -27.5 19.5t-10.5 32.5v610q0 23 16 39t39 16h355q18 0 32.5 -10.5t19.5 -27.5zM98 45q0 -19 13 -32t32 -13h355q19 0 32 13t13 32t-13 32.5t-32 13.5
h-264q-19 0 -32 13t-13 32v122q0 19 13 32.5t32 13.5h196q19 0 32.5 13.5t13.5 32.5t-13.5 32t-32.5 13h-196q-19 0 -32 13.5t-13 32.5v123q0 19 13 32t32 13h264q19 0 32 13.5t13 32.5t-13 32t-32 13h-355q-19 0 -32 -13t-13 -32v-610z" />
    <glyph glyph-name="edotaccent" unicode="&#x117;" 
d="M340 780q-18 0 -32.5 10.5t-19.5 27.5q-17 5 -27.5 19.5t-10.5 32.5v30q0 23 16 39t39 16h30q18 0 32.5 -10.5t19.5 -27.5q17 -5 27.5 -19.5t10.5 -32.5v-30q0 -23 -16 -39t-39 -16h-30zM335 825q19 0 32 13t13 32v30q0 19 -13 32t-32 13h-30q-19 0 -32 -13t-13 -32v-30
q0 -19 13 -32t32 -13h30zM550 672q17 -5 27.5 -19.5t10.5 -32.5q0 -23 -16 -39.5t-39 -16.5h-264q-14 0 -24.5 -10.5t-10.5 -24.5v-124h196q18 0 33 -10.5t20 -27.5q17 -6 27.5 -20t10.5 -32q0 -23 -16.5 -39.5t-39.5 -16.5h-196q-14 0 -24.5 -11t-10.5 -25v-122h264
q18 0 32.5 -10.5t19.5 -27.5q17 -5 27.5 -20t10.5 -33q0 -23 -16 -39t-39 -16h-355q-18 0 -32.5 10.5t-19.5 27.5q-17 5 -27.5 19.5t-10.5 32.5v610q0 23 16 39t39 16h355q18 0 32.5 -10.5t19.5 -27.5zM98 45q0 -19 13 -32t32 -13h355q19 0 32 13t13 32t-13 32.5t-32 13.5
h-264q-19 0 -32 13t-13 32v122q0 19 13 32.5t32 13.5h196q19 0 32.5 13.5t13.5 32.5t-13.5 32t-32.5 13h-196q-19 0 -32 13.5t-13 32.5v123q0 19 13 32t32 13h264q19 0 32 13.5t13 32.5t-13 32t-32 13h-355q-19 0 -32 -13t-13 -32v-610z" />
    <glyph glyph-name="Eogonek" unicode="&#x118;" 
d="M550 672q17 -5 27.5 -19.5t10.5 -32.5q0 -23 -16 -39.5t-39 -16.5h-264q-14 0 -24.5 -10.5t-10.5 -24.5v-124h196q18 0 33 -10.5t20 -27.5q17 -6 27.5 -20t10.5 -32q0 -23 -16.5 -39.5t-39.5 -16.5h-196q-14 0 -24.5 -11t-10.5 -25v-122h264q20 0 33 -11t18 -26
q20 -6 29.5 -23t9.5 -36v-83q0 -9 -3.5 -18t-10.5 -15l-57 -57q-3 -4 -5.5 -9t-2.5 -10v-1h1q7 0 11.5 3t9.5 8q1 1 2.5 2t3.5 3q1 1 3 2t5 3q8 5 20 5q16 0 28.5 -10t14.5 -26q14 -2 24.5 -13.5t10.5 -27.5q0 -11 -5 -19.5t-11 -15.5l-13 -13q-4 -3 -6.5 -5t-4.5 -4
q-10 -12 -27 -12h-61q-9 0 -15 3t-12 9l-53 52q-1 1 -1.5 2t-1.5 2l-32 31q-11 11 -11 27v61q0 16 11 27l49 49h-271q-18 0 -32.5 10.5t-19.5 27.5q-17 5 -27.5 19.5t-10.5 32.5v610q0 23 16 39t39 16h355q18 0 32.5 -10.5t19.5 -27.5zM98 45q0 -19 13 -32t32 -13h335v-16
q0 -15 -11 -26l-60 -59q-8 -11 -8 -20v-61q0 -12 8 -20l53 -52q8 -9 20 -9h61q13 0 20 9l27 27q10 10 10 23q0 14 -9.5 23t-23.5 9t-23 -9l-6 -6q-11 -11 -26 -11t-26 11l-9 9q-11 11 -11 26t11 26l57 57q11 11 11 26v85q0 20 -12 34.5t-33 14.5h-264q-19 0 -32 13t-13 32
v122q0 19 13 32.5t32 13.5h196q19 0 32.5 13.5t13.5 32.5t-13.5 32t-32.5 13h-196q-19 0 -32 13.5t-13 32.5v123q0 19 13 32t32 13h264q19 0 32 13.5t13 32.5t-13 32t-32 13h-355q-19 0 -32 -13t-13 -32v-610z" />
    <glyph glyph-name="eogonek" unicode="&#x119;" 
d="M550 672q17 -5 27.5 -19.5t10.5 -32.5q0 -23 -16 -39.5t-39 -16.5h-264q-14 0 -24.5 -10.5t-10.5 -24.5v-124h196q18 0 33 -10.5t20 -27.5q17 -6 27.5 -20t10.5 -32q0 -23 -16.5 -39.5t-39.5 -16.5h-196q-14 0 -24.5 -11t-10.5 -25v-122h264q20 0 33 -11t18 -26
q20 -6 29.5 -23t9.5 -36v-83q0 -9 -3.5 -18t-10.5 -15l-57 -57q-3 -4 -5.5 -9t-2.5 -10v-1h1q7 0 11.5 3t9.5 8q1 1 2.5 2t3.5 3q1 1 3 2t5 3q8 5 20 5q16 0 28.5 -10t14.5 -26q14 -2 24.5 -13.5t10.5 -27.5q0 -11 -5 -19.5t-11 -15.5l-13 -13q-4 -3 -6.5 -5t-4.5 -4
q-10 -12 -27 -12h-61q-9 0 -15 3t-12 9l-53 52q-1 1 -1.5 2t-1.5 2l-32 31q-11 11 -11 27v61q0 16 11 27l49 49h-271q-18 0 -32.5 10.5t-19.5 27.5q-17 5 -27.5 19.5t-10.5 32.5v610q0 23 16 39t39 16h355q18 0 32.5 -10.5t19.5 -27.5zM98 45q0 -19 13 -32t32 -13h335v-16
q0 -15 -11 -26l-60 -59q-8 -11 -8 -20v-61q0 -12 8 -20l53 -52q8 -9 20 -9h61q13 0 20 9l27 27q10 10 10 23q0 14 -9.5 23t-23.5 9t-23 -9l-6 -6q-11 -11 -26 -11t-26 11l-9 9q-11 11 -11 26t11 26l57 57q11 11 11 26v85q0 20 -12 34.5t-33 14.5h-264q-19 0 -32 13t-13 32
v122q0 19 13 32.5t32 13.5h196q19 0 32.5 13.5t13.5 32.5t-13.5 32t-32.5 13h-196q-19 0 -32 13.5t-13 32.5v123q0 19 13 32t32 13h264q19 0 32 13.5t13 32.5t-13 32t-32 13h-355q-19 0 -32 -13t-13 -32v-610z" />
    <glyph glyph-name="Ecaron" unicode="&#x11a;" 
d="M460 955q37 -11 37 -48q0 -9 -3.5 -19t-10.5 -16l-93 -93q-14 -14 -35 -14q-9 0 -18.5 3t-17.5 11l-31 32q-1 1 -2 1.5t-2 1.5l-92 93q-15 15 -15 35t15 35t35 15q11 0 23.5 -6.5t19.5 -15.5q3 -3 5.5 -6t4.5 -5q3 -3 5.5 -6t5.5 -5l3 -3q2 -1 9 -8q8 -5 17 -5
q12 0 21.5 9t16.5 18q3 2 5.5 5t5.5 6q2 3 5 5.5t6 5.5q14 11 32 11q17 0 30.5 -10.5t17.5 -26.5zM255 970q-12 12 -28 12t-28 -12t-12 -28t12 -28l92 -93q11 -11 29 -11q17 0 28 11l93 93q11 14 11 28q0 17 -11.5 28.5t-28.5 11.5q-16 0 -28 -12l-36 -36q-12 -12 -28 -12
q-17 0 -29 12zM550 672q17 -5 27.5 -19.5t10.5 -32.5q0 -23 -16 -39.5t-39 -16.5h-264q-14 0 -24.5 -10.5t-10.5 -24.5v-124h196q18 0 33 -10.5t20 -27.5q17 -6 27.5 -20t10.5 -32q0 -23 -16.5 -39.5t-39.5 -16.5h-196q-14 0 -24.5 -11t-10.5 -25v-122h264q18 0 32.5 -10.5
t19.5 -27.5q17 -5 27.5 -20t10.5 -33q0 -23 -16 -39t-39 -16h-355q-18 0 -32.5 10.5t-19.5 27.5q-17 5 -27.5 19.5t-10.5 32.5v610q0 23 16 39t39 16h355q18 0 32.5 -10.5t19.5 -27.5zM98 45q0 -19 13 -32t32 -13h355q19 0 32 13t13 32t-13 32.5t-32 13.5h-264q-19 0 -32 13
t-13 32v122q0 19 13 32.5t32 13.5h196q19 0 32.5 13.5t13.5 32.5t-13.5 32t-32.5 13h-196q-19 0 -32 13.5t-13 32.5v123q0 19 13 32t32 13h264q19 0 32 13.5t13 32.5t-13 32t-32 13h-355q-19 0 -32 -13t-13 -32v-610z" />
    </font>
</defs>
</svg>
